<?xml version="1.0" encoding="utf-8"?>
<svg xmlns="http://www.w3.org/2000/svg" xmlns:xlink="http://www.w3.org/1999/xlink" width="600" height="400" viewBox="0 0 2400 1600">
<defs>
  <clipPath id="clip160">
    <rect x="0" y="0" width="2400" height="1600"/>
  </clipPath>
</defs>
<path clip-path="url(#clip160)" d="
M0 1600 L2400 1600 L2400 0 L0 0  Z
  " fill="#ffffff" fill-rule="evenodd" fill-opacity="1"/>
<defs>
  <clipPath id="clip161">
    <rect x="480" y="0" width="1681" height="1600"/>
  </clipPath>
</defs>
<path clip-path="url(#clip160)" d="
M251.071 1410.9 L2352.76 1410.9 L2352.76 47.2441 L251.071 47.2441  Z
  " fill="#ffffff" fill-rule="evenodd" fill-opacity="1"/>
<defs>
  <clipPath id="clip162">
    <rect x="251" y="47" width="2103" height="1365"/>
  </clipPath>
</defs>
<polyline clip-path="url(#clip162)" style="stroke:#000000; stroke-linecap:butt; stroke-linejoin:round; stroke-width:2; stroke-opacity:0.1; fill:none" points="
  648.08,1410.9 648.08,47.2441 
  "/>
<polyline clip-path="url(#clip162)" style="stroke:#000000; stroke-linecap:butt; stroke-linejoin:round; stroke-width:2; stroke-opacity:0.1; fill:none" points="
  1860.95,1410.9 1860.95,47.2441 
  "/>
<polyline clip-path="url(#clip160)" style="stroke:#000000; stroke-linecap:butt; stroke-linejoin:round; stroke-width:4; stroke-opacity:1; fill:none" points="
  251.071,1410.9 2352.76,1410.9 
  "/>
<polyline clip-path="url(#clip160)" style="stroke:#000000; stroke-linecap:butt; stroke-linejoin:round; stroke-width:4; stroke-opacity:1; fill:none" points="
  251.071,47.2441 2352.76,47.2441 
  "/>
<polyline clip-path="url(#clip160)" style="stroke:#000000; stroke-linecap:butt; stroke-linejoin:round; stroke-width:4; stroke-opacity:1; fill:none" points="
  648.08,1410.9 648.08,1392 
  "/>
<polyline clip-path="url(#clip160)" style="stroke:#000000; stroke-linecap:butt; stroke-linejoin:round; stroke-width:4; stroke-opacity:1; fill:none" points="
  1860.95,1410.9 1860.95,1392 
  "/>
<path clip-path="url(#clip160)" d="M597.961 1485.02 L605.6 1485.02 L605.6 1458.66 L597.289 1460.32 L597.289 1456.06 L605.553 1454.4 L610.229 1454.4 L610.229 1485.02 L617.868 1485.02 L617.868 1488.96 L597.961 1488.96 L597.961 1485.02 Z" fill="#000000" fill-rule="evenodd" fill-opacity="1" /><path clip-path="url(#clip160)" d="M637.312 1457.48 Q633.701 1457.48 631.873 1461.04 Q630.067 1464.58 630.067 1471.71 Q630.067 1478.82 631.873 1482.38 Q633.701 1485.92 637.312 1485.92 Q640.947 1485.92 642.752 1482.38 Q644.581 1478.82 644.581 1471.71 Q644.581 1464.58 642.752 1461.04 Q640.947 1457.48 637.312 1457.48 M637.312 1453.77 Q643.122 1453.77 646.178 1458.38 Q649.257 1462.96 649.257 1471.71 Q649.257 1480.44 646.178 1485.04 Q643.122 1489.63 637.312 1489.63 Q631.502 1489.63 628.423 1485.04 Q625.368 1480.44 625.368 1471.71 Q625.368 1462.96 628.423 1458.38 Q631.502 1453.77 637.312 1453.77 Z" fill="#000000" fill-rule="evenodd" fill-opacity="1" /><path clip-path="url(#clip160)" d="M649.257 1447.87 L673.368 1447.87 L673.368 1451.07 L649.257 1451.07 L649.257 1447.87 Z" fill="#000000" fill-rule="evenodd" fill-opacity="1" /><path clip-path="url(#clip160)" d="M693.079 1446.41 Q695.806 1446.99 697.329 1448.83 Q698.872 1450.68 698.872 1453.38 Q698.872 1457.54 696.013 1459.82 Q693.154 1462.09 687.888 1462.09 Q686.12 1462.09 684.239 1461.73 Q682.377 1461.4 680.384 1460.7 L680.384 1457.03 Q681.963 1457.95 683.844 1458.42 Q685.725 1458.89 687.775 1458.89 Q691.348 1458.89 693.21 1457.48 Q695.091 1456.07 695.091 1453.38 Q695.091 1450.9 693.342 1449.51 Q691.612 1448.1 688.509 1448.1 L685.236 1448.1 L685.236 1444.98 L688.659 1444.98 Q691.461 1444.98 692.947 1443.87 Q694.433 1442.74 694.433 1440.63 Q694.433 1438.47 692.891 1437.32 Q691.367 1436.16 688.509 1436.16 Q686.947 1436.16 685.161 1436.49 Q683.374 1436.83 681.23 1437.55 L681.23 1434.16 Q683.393 1433.56 685.274 1433.26 Q687.173 1432.96 688.847 1432.96 Q693.173 1432.96 695.693 1434.93 Q698.213 1436.89 698.213 1440.24 Q698.213 1442.57 696.878 1444.19 Q695.543 1445.79 693.079 1446.41 Z" fill="#000000" fill-rule="evenodd" fill-opacity="1" /><path clip-path="url(#clip160)" d="M1811.22 1485.02 L1818.86 1485.02 L1818.86 1458.66 L1810.55 1460.32 L1810.55 1456.06 L1818.81 1454.4 L1823.49 1454.4 L1823.49 1485.02 L1831.12 1485.02 L1831.12 1488.96 L1811.22 1488.96 L1811.22 1485.02 Z" fill="#000000" fill-rule="evenodd" fill-opacity="1" /><path clip-path="url(#clip160)" d="M1850.57 1457.48 Q1846.96 1457.48 1845.13 1461.04 Q1843.32 1464.58 1843.32 1471.71 Q1843.32 1478.82 1845.13 1482.38 Q1846.96 1485.92 1850.57 1485.92 Q1854.2 1485.92 1856.01 1482.38 Q1857.84 1478.82 1857.84 1471.71 Q1857.84 1464.58 1856.01 1461.04 Q1854.2 1457.48 1850.57 1457.48 M1850.57 1453.77 Q1856.38 1453.77 1859.43 1458.38 Q1862.51 1462.96 1862.51 1471.71 Q1862.51 1480.44 1859.43 1485.04 Q1856.38 1489.63 1850.57 1489.63 Q1844.76 1489.63 1841.68 1485.04 Q1838.62 1480.44 1838.62 1471.71 Q1838.62 1462.96 1841.68 1458.38 Q1844.76 1453.77 1850.57 1453.77 Z" fill="#000000" fill-rule="evenodd" fill-opacity="1" /><path clip-path="url(#clip160)" d="M1862.51 1447.87 L1886.62 1447.87 L1886.62 1451.07 L1862.51 1451.07 L1862.51 1447.87 Z" fill="#000000" fill-rule="evenodd" fill-opacity="1" /><path clip-path="url(#clip160)" d="M1898.1 1458.35 L1911.36 1458.35 L1911.36 1461.55 L1893.53 1461.55 L1893.53 1458.35 Q1895.69 1456.11 1899.41 1452.35 Q1903.16 1448.57 1904.12 1447.48 Q1905.94 1445.43 1906.65 1444.02 Q1907.39 1442.59 1907.39 1441.22 Q1907.39 1438.98 1905.81 1437.57 Q1904.25 1436.16 1901.73 1436.16 Q1899.94 1436.16 1897.95 1436.78 Q1895.97 1437.4 1893.71 1438.66 L1893.71 1434.82 Q1896.01 1433.9 1898 1433.43 Q1900 1432.96 1901.65 1432.96 Q1906.01 1432.96 1908.61 1435.14 Q1911.21 1437.32 1911.21 1440.97 Q1911.21 1442.7 1910.55 1444.26 Q1909.91 1445.8 1908.2 1447.91 Q1907.73 1448.46 1905.21 1451.07 Q1902.69 1453.67 1898.1 1458.35 Z" fill="#000000" fill-rule="evenodd" fill-opacity="1" /><path clip-path="url(#clip160)" d="M914.353 1526.67 L944.4 1526.67 L944.4 1532.08 L920.783 1532.08 L920.783 1546.14 L943.413 1546.14 L943.413 1551.56 L920.783 1551.56 L920.783 1568.77 L944.972 1568.77 L944.972 1574.19 L914.353 1574.19 L914.353 1526.67 Z" fill="#000000" fill-rule="evenodd" fill-opacity="1" /><path clip-path="url(#clip160)" d="M984.917 1538.54 L972.027 1555.88 L985.586 1574.19 L978.679 1574.19 L968.303 1560.18 L957.927 1574.19 L951.02 1574.19 L964.865 1555.53 L952.198 1538.54 L959.104 1538.54 L968.557 1551.24 L978.011 1538.54 L984.917 1538.54 Z" fill="#000000" fill-rule="evenodd" fill-opacity="1" /><path clip-path="url(#clip160)" d="M1022.35 1554.9 L1022.35 1557.76 L995.421 1557.76 Q995.803 1563.81 999.049 1566.99 Q1002.33 1570.14 1008.15 1570.14 Q1011.53 1570.14 1014.68 1569.32 Q1017.86 1568.49 1020.98 1566.83 L1020.98 1572.37 Q1017.83 1573.71 1014.52 1574.41 Q1011.21 1575.11 1007.8 1575.11 Q999.272 1575.11 994.275 1570.14 Q989.31 1565.18 989.31 1556.71 Q989.31 1547.96 994.02 1542.83 Q998.763 1537.68 1006.78 1537.68 Q1013.98 1537.68 1018.15 1542.33 Q1022.35 1546.94 1022.35 1554.9 M1016.49 1553.18 Q1016.43 1548.37 1013.79 1545.51 Q1011.18 1542.64 1006.85 1542.64 Q1001.95 1542.64 998.986 1545.41 Q996.057 1548.18 995.612 1553.21 L1016.49 1553.18 Z" fill="#000000" fill-rule="evenodd" fill-opacity="1" /><path clip-path="url(#clip160)" d="M1057.61 1539.91 L1057.61 1545.38 Q1055.13 1544.01 1052.62 1543.34 Q1050.13 1542.64 1047.59 1542.64 Q1041.89 1542.64 1038.74 1546.27 Q1035.59 1549.87 1035.59 1556.39 Q1035.59 1562.92 1038.74 1566.55 Q1041.89 1570.14 1047.59 1570.14 Q1050.13 1570.14 1052.62 1569.47 Q1055.13 1568.77 1057.61 1567.41 L1057.61 1572.82 Q1055.16 1573.96 1052.52 1574.54 Q1049.91 1575.11 1046.95 1575.11 Q1038.9 1575.11 1034.16 1570.05 Q1029.41 1564.99 1029.41 1556.39 Q1029.41 1547.67 1034.19 1542.68 Q1038.99 1537.68 1047.33 1537.68 Q1050.04 1537.68 1052.62 1538.25 Q1055.19 1538.79 1057.61 1539.91 Z" fill="#000000" fill-rule="evenodd" fill-opacity="1" /><path clip-path="url(#clip160)" d="M1067.19 1560.12 L1067.19 1538.54 L1073.05 1538.54 L1073.05 1559.89 Q1073.05 1564.96 1075.02 1567.5 Q1077 1570.02 1080.94 1570.02 Q1085.69 1570.02 1088.42 1566.99 Q1091.19 1563.97 1091.19 1558.75 L1091.19 1538.54 L1097.05 1538.54 L1097.05 1574.19 L1091.19 1574.19 L1091.19 1568.71 Q1089.06 1571.96 1086.23 1573.55 Q1083.43 1575.11 1079.7 1575.11 Q1073.56 1575.11 1070.38 1571.29 Q1067.19 1567.47 1067.19 1560.12 M1081.93 1537.68 L1081.93 1537.68 Z" fill="#000000" fill-rule="evenodd" fill-opacity="1" /><path clip-path="url(#clip160)" d="M1114.91 1528.42 L1114.91 1538.54 L1126.97 1538.54 L1126.97 1543.09 L1114.91 1543.09 L1114.91 1562.44 Q1114.91 1566.8 1116.08 1568.04 Q1117.29 1569.28 1120.95 1569.28 L1126.97 1569.28 L1126.97 1574.19 L1120.95 1574.19 Q1114.17 1574.19 1111.59 1571.67 Q1109.02 1569.12 1109.02 1562.44 L1109.02 1543.09 L1104.72 1543.09 L1104.72 1538.54 L1109.02 1538.54 L1109.02 1528.42 L1114.91 1528.42 Z" fill="#000000" fill-rule="evenodd" fill-opacity="1" /><path clip-path="url(#clip160)" d="M1134.67 1538.54 L1140.53 1538.54 L1140.53 1574.19 L1134.67 1574.19 L1134.67 1538.54 M1134.67 1524.66 L1140.53 1524.66 L1140.53 1532.08 L1134.67 1532.08 L1134.67 1524.66 Z" fill="#000000" fill-rule="evenodd" fill-opacity="1" /><path clip-path="url(#clip160)" d="M1166.59 1542.64 Q1161.88 1542.64 1159.15 1546.34 Q1156.41 1550 1156.41 1556.39 Q1156.41 1562.79 1159.11 1566.48 Q1161.85 1570.14 1166.59 1570.14 Q1171.27 1570.14 1174.01 1566.45 Q1176.75 1562.76 1176.75 1556.39 Q1176.75 1550.06 1174.01 1546.37 Q1171.27 1542.64 1166.59 1542.64 M1166.59 1537.68 Q1174.23 1537.68 1178.59 1542.64 Q1182.95 1547.61 1182.95 1556.39 Q1182.95 1565.15 1178.59 1570.14 Q1174.23 1575.11 1166.59 1575.11 Q1158.92 1575.11 1154.56 1570.14 Q1150.23 1565.15 1150.23 1556.39 Q1150.23 1547.61 1154.56 1542.64 Q1158.92 1537.68 1166.59 1537.68 Z" fill="#000000" fill-rule="evenodd" fill-opacity="1" /><path clip-path="url(#clip160)" d="M1222.29 1552.67 L1222.29 1574.19 L1216.44 1574.19 L1216.44 1552.86 Q1216.44 1547.8 1214.46 1545.29 Q1212.49 1542.77 1208.54 1542.77 Q1203.8 1542.77 1201.06 1545.79 Q1198.33 1548.82 1198.33 1554.04 L1198.33 1574.19 L1192.44 1574.19 L1192.44 1538.54 L1198.33 1538.54 L1198.33 1544.08 Q1200.43 1540.86 1203.26 1539.27 Q1206.13 1537.68 1209.85 1537.68 Q1215.99 1537.68 1219.14 1541.5 Q1222.29 1545.29 1222.29 1552.67 Z" fill="#000000" fill-rule="evenodd" fill-opacity="1" /><path clip-path="url(#clip160)" d="M1260.49 1528.42 L1260.49 1538.54 L1272.55 1538.54 L1272.55 1543.09 L1260.49 1543.09 L1260.49 1562.44 Q1260.49 1566.8 1261.67 1568.04 Q1262.88 1569.28 1266.54 1569.28 L1272.55 1569.28 L1272.55 1574.19 L1266.54 1574.19 Q1259.76 1574.19 1257.18 1571.67 Q1254.6 1569.12 1254.6 1562.44 L1254.6 1543.09 L1250.3 1543.09 L1250.3 1538.54 L1254.6 1538.54 L1254.6 1528.42 L1260.49 1528.42 Z" fill="#000000" fill-rule="evenodd" fill-opacity="1" /><path clip-path="url(#clip160)" d="M1280.25 1538.54 L1286.11 1538.54 L1286.11 1574.19 L1280.25 1574.19 L1280.25 1538.54 M1280.25 1524.66 L1286.11 1524.66 L1286.11 1532.08 L1280.25 1532.08 L1280.25 1524.66 Z" fill="#000000" fill-rule="evenodd" fill-opacity="1" /><path clip-path="url(#clip160)" d="M1326.12 1545.38 Q1328.32 1541.43 1331.37 1539.56 Q1334.43 1537.68 1338.56 1537.68 Q1344.13 1537.68 1347.16 1541.59 Q1350.18 1545.48 1350.18 1552.67 L1350.18 1574.19 L1344.29 1574.19 L1344.29 1552.86 Q1344.29 1547.74 1342.48 1545.25 Q1340.66 1542.77 1336.94 1542.77 Q1332.39 1542.77 1329.75 1545.79 Q1327.11 1548.82 1327.11 1554.04 L1327.11 1574.19 L1321.22 1574.19 L1321.22 1552.86 Q1321.22 1547.7 1319.4 1545.25 Q1317.59 1542.77 1313.8 1542.77 Q1309.31 1542.77 1306.67 1545.83 Q1304.03 1548.85 1304.03 1554.04 L1304.03 1574.19 L1298.14 1574.19 L1298.14 1538.54 L1304.03 1538.54 L1304.03 1544.08 Q1306.04 1540.8 1308.84 1539.24 Q1311.64 1537.68 1315.49 1537.68 Q1319.37 1537.68 1322.08 1539.65 Q1324.81 1541.62 1326.12 1545.38 Z" fill="#000000" fill-rule="evenodd" fill-opacity="1" /><path clip-path="url(#clip160)" d="M1392.35 1554.9 L1392.35 1557.76 L1365.43 1557.76 Q1365.81 1563.81 1369.06 1566.99 Q1372.33 1570.14 1378.16 1570.14 Q1381.53 1570.14 1384.68 1569.32 Q1387.87 1568.49 1390.99 1566.83 L1390.99 1572.37 Q1387.83 1573.71 1384.52 1574.41 Q1381.21 1575.11 1377.81 1575.11 Q1369.28 1575.11 1364.28 1570.14 Q1359.32 1565.18 1359.32 1556.71 Q1359.32 1547.96 1364.03 1542.83 Q1368.77 1537.68 1376.79 1537.68 Q1383.98 1537.68 1388.15 1542.33 Q1392.35 1546.94 1392.35 1554.9 M1386.5 1553.18 Q1386.43 1548.37 1383.79 1545.51 Q1381.18 1542.64 1376.85 1542.64 Q1371.95 1542.64 1368.99 1545.41 Q1366.06 1548.18 1365.62 1553.21 L1386.5 1553.18 Z" fill="#000000" fill-rule="evenodd" fill-opacity="1" /><path clip-path="url(#clip160)" d="M1436.76 1524.72 Q1432.49 1532.04 1430.42 1539.21 Q1428.35 1546.37 1428.35 1553.72 Q1428.35 1561.07 1430.42 1568.3 Q1432.52 1575.49 1436.76 1582.78 L1431.66 1582.78 Q1426.89 1575.3 1424.5 1568.07 Q1422.15 1560.85 1422.15 1553.72 Q1422.15 1546.62 1424.5 1539.43 Q1426.86 1532.24 1431.66 1524.72 L1436.76 1524.72 Z" fill="#000000" fill-rule="evenodd" fill-opacity="1" /><path clip-path="url(#clip160)" d="M1470.84 1539.59 L1470.84 1545.13 Q1468.36 1543.85 1465.69 1543.22 Q1463.01 1542.58 1460.15 1542.58 Q1455.79 1542.58 1453.59 1543.92 Q1451.43 1545.25 1451.43 1547.93 Q1451.43 1549.96 1452.99 1551.14 Q1454.55 1552.29 1459.26 1553.34 L1461.26 1553.78 Q1467.5 1555.12 1470.11 1557.57 Q1472.75 1559.99 1472.75 1564.35 Q1472.75 1569.32 1468.81 1572.21 Q1464.89 1575.11 1458.02 1575.11 Q1455.15 1575.11 1452.03 1574.54 Q1448.95 1573.99 1445.51 1572.88 L1445.51 1566.83 Q1448.75 1568.52 1451.91 1569.38 Q1455.06 1570.21 1458.14 1570.21 Q1462.28 1570.21 1464.51 1568.81 Q1466.74 1567.37 1466.74 1564.8 Q1466.74 1562.41 1465.11 1561.14 Q1463.52 1559.86 1458.08 1558.68 L1456.04 1558.21 Q1450.6 1557.06 1448.18 1554.71 Q1445.76 1552.32 1445.76 1548.18 Q1445.76 1543.15 1449.33 1540.42 Q1452.89 1537.68 1459.45 1537.68 Q1462.7 1537.68 1465.56 1538.16 Q1468.42 1538.63 1470.84 1539.59 Z" fill="#000000" fill-rule="evenodd" fill-opacity="1" /><path clip-path="url(#clip160)" d="M1507.73 1539.91 L1507.73 1545.38 Q1505.25 1544.01 1502.74 1543.34 Q1500.25 1542.64 1497.71 1542.64 Q1492.01 1542.64 1488.86 1546.27 Q1485.71 1549.87 1485.71 1556.39 Q1485.71 1562.92 1488.86 1566.55 Q1492.01 1570.14 1497.71 1570.14 Q1500.25 1570.14 1502.74 1569.47 Q1505.25 1568.77 1507.73 1567.41 L1507.73 1572.82 Q1505.28 1573.96 1502.64 1574.54 Q1500.03 1575.11 1497.07 1575.11 Q1489.02 1575.11 1484.28 1570.05 Q1479.53 1564.99 1479.53 1556.39 Q1479.53 1547.67 1484.31 1542.68 Q1489.11 1537.68 1497.45 1537.68 Q1500.16 1537.68 1502.74 1538.25 Q1505.31 1538.79 1507.73 1539.91 Z" fill="#000000" fill-rule="evenodd" fill-opacity="1" /><path clip-path="url(#clip160)" d="M1519.41 1566.1 L1526.13 1566.1 L1526.13 1571.58 L1520.91 1581.76 L1516.8 1581.76 L1519.41 1571.58 L1519.41 1566.1 Z" fill="#000000" fill-rule="evenodd" fill-opacity="1" /><path clip-path="url(#clip160)" d="M1559.61 1526.67 L1566.04 1526.67 L1566.04 1568.77 L1589.18 1568.77 L1589.18 1574.19 L1559.61 1574.19 L1559.61 1526.67 Z" fill="#000000" fill-rule="evenodd" fill-opacity="1" /><path clip-path="url(#clip160)" d="M1608.34 1542.64 Q1603.63 1542.64 1600.89 1546.34 Q1598.16 1550 1598.16 1556.39 Q1598.16 1562.79 1600.86 1566.48 Q1603.6 1570.14 1608.34 1570.14 Q1613.02 1570.14 1615.76 1566.45 Q1618.5 1562.76 1618.5 1556.39 Q1618.5 1550.06 1615.76 1546.37 Q1613.02 1542.64 1608.34 1542.64 M1608.34 1537.68 Q1615.98 1537.68 1620.34 1542.64 Q1624.7 1547.61 1624.7 1556.39 Q1624.7 1565.15 1620.34 1570.14 Q1615.98 1575.11 1608.34 1575.11 Q1600.67 1575.11 1596.31 1570.14 Q1591.98 1565.15 1591.98 1556.39 Q1591.98 1547.61 1596.31 1542.64 Q1600.67 1537.68 1608.34 1537.68 Z" fill="#000000" fill-rule="evenodd" fill-opacity="1" /><path clip-path="url(#clip160)" d="M1657.87 1555.95 Q1657.87 1549.58 1655.23 1546.08 Q1652.62 1542.58 1647.87 1542.58 Q1643.16 1542.58 1640.52 1546.08 Q1637.91 1549.58 1637.91 1555.95 Q1637.91 1562.28 1640.52 1565.78 Q1643.16 1569.28 1647.87 1569.28 Q1652.62 1569.28 1655.23 1565.78 Q1657.87 1562.28 1657.87 1555.95 M1663.72 1569.76 Q1663.72 1578.86 1659.68 1583.29 Q1655.64 1587.74 1647.3 1587.74 Q1644.21 1587.74 1641.48 1587.27 Q1638.74 1586.82 1636.16 1585.87 L1636.16 1580.17 Q1638.74 1581.57 1641.25 1582.24 Q1643.77 1582.91 1646.38 1582.91 Q1652.14 1582.91 1655 1579.88 Q1657.87 1576.89 1657.87 1570.81 L1657.87 1567.92 Q1656.05 1571.07 1653.22 1572.63 Q1650.39 1574.19 1646.44 1574.19 Q1639.88 1574.19 1635.87 1569.19 Q1631.86 1564.19 1631.86 1555.95 Q1631.86 1547.67 1635.87 1542.68 Q1639.88 1537.68 1646.44 1537.68 Q1650.39 1537.68 1653.22 1539.24 Q1656.05 1540.8 1657.87 1543.95 L1657.87 1538.54 L1663.72 1538.54 L1663.72 1569.76 Z" fill="#000000" fill-rule="evenodd" fill-opacity="1" /><path clip-path="url(#clip160)" d="M1674.86 1524.72 L1679.96 1524.72 Q1684.73 1532.24 1687.09 1539.43 Q1689.47 1546.62 1689.47 1553.72 Q1689.47 1560.85 1687.09 1568.07 Q1684.73 1575.3 1679.96 1582.78 L1674.86 1582.78 Q1679.1 1575.49 1681.17 1568.3 Q1683.27 1561.07 1683.27 1553.72 Q1683.27 1546.37 1681.17 1539.21 Q1679.1 1532.04 1674.86 1524.72 Z" fill="#000000" fill-rule="evenodd" fill-opacity="1" /><polyline clip-path="url(#clip162)" style="stroke:#000000; stroke-linecap:butt; stroke-linejoin:round; stroke-width:2; stroke-opacity:0.1; fill:none" points="
  251.071,1209.6 2352.76,1209.6 
  "/>
<polyline clip-path="url(#clip162)" style="stroke:#000000; stroke-linecap:butt; stroke-linejoin:round; stroke-width:2; stroke-opacity:0.1; fill:none" points="
  251.071,534.184 2352.76,534.184 
  "/>
<polyline clip-path="url(#clip160)" style="stroke:#000000; stroke-linecap:butt; stroke-linejoin:round; stroke-width:4; stroke-opacity:1; fill:none" points="
  251.071,1410.9 251.071,47.2441 
  "/>
<polyline clip-path="url(#clip160)" style="stroke:#000000; stroke-linecap:butt; stroke-linejoin:round; stroke-width:4; stroke-opacity:1; fill:none" points="
  2352.76,1410.9 2352.76,47.2441 
  "/>
<polyline clip-path="url(#clip160)" style="stroke:#000000; stroke-linecap:butt; stroke-linejoin:round; stroke-width:4; stroke-opacity:1; fill:none" points="
  251.071,1209.6 269.969,1209.6 
  "/>
<polyline clip-path="url(#clip160)" style="stroke:#000000; stroke-linecap:butt; stroke-linejoin:round; stroke-width:4; stroke-opacity:1; fill:none" points="
  251.071,534.184 269.969,534.184 
  "/>
<path clip-path="url(#clip160)" d="M114.931 1229.39 L122.57 1229.39 L122.57 1203.02 L114.26 1204.69 L114.26 1200.43 L122.524 1198.76 L127.2 1198.76 L127.2 1229.39 L134.839 1229.39 L134.839 1233.32 L114.931 1233.32 L114.931 1229.39 Z" fill="#000000" fill-rule="evenodd" fill-opacity="1" /><path clip-path="url(#clip160)" d="M154.283 1201.84 Q150.672 1201.84 148.843 1205.41 Q147.038 1208.95 147.038 1216.08 Q147.038 1223.18 148.843 1226.75 Q150.672 1230.29 154.283 1230.29 Q157.917 1230.29 159.723 1226.75 Q161.552 1223.18 161.552 1216.08 Q161.552 1208.95 159.723 1205.41 Q157.917 1201.84 154.283 1201.84 M154.283 1198.14 Q160.093 1198.14 163.149 1202.74 Q166.227 1207.33 166.227 1216.08 Q166.227 1224.8 163.149 1229.41 Q160.093 1233.99 154.283 1233.99 Q148.473 1233.99 145.394 1229.41 Q142.339 1224.8 142.339 1216.08 Q142.339 1207.33 145.394 1202.74 Q148.473 1198.14 154.283 1198.14 Z" fill="#000000" fill-rule="evenodd" fill-opacity="1" /><path clip-path="url(#clip160)" d="M166.227 1192.24 L190.339 1192.24 L190.339 1195.44 L166.227 1195.44 L166.227 1192.24 Z" fill="#000000" fill-rule="evenodd" fill-opacity="1" /><path clip-path="url(#clip160)" d="M201.812 1202.72 L215.071 1202.72 L215.071 1205.91 L197.241 1205.91 L197.241 1202.72 Q199.404 1200.48 203.128 1196.72 Q206.871 1192.94 207.83 1191.84 Q209.655 1189.79 210.369 1188.38 Q211.103 1186.95 211.103 1185.58 Q211.103 1183.34 209.523 1181.93 Q207.962 1180.52 205.442 1180.52 Q203.655 1180.52 201.661 1181.14 Q199.686 1181.76 197.43 1183.02 L197.43 1179.19 Q199.724 1178.27 201.718 1177.8 Q203.711 1177.32 205.366 1177.32 Q209.73 1177.32 212.325 1179.51 Q214.921 1181.69 214.921 1185.34 Q214.921 1187.07 214.263 1188.63 Q213.623 1190.17 211.912 1192.28 Q211.441 1192.82 208.921 1195.44 Q206.401 1198.03 201.812 1202.72 Z" fill="#000000" fill-rule="evenodd" fill-opacity="1" /><path clip-path="url(#clip160)" d="M144.366 553.977 L152.004 553.977 L152.004 527.611 L143.694 529.278 L143.694 525.019 L151.958 523.352 L156.634 523.352 L156.634 553.977 L164.273 553.977 L164.273 557.912 L144.366 557.912 L144.366 553.977 Z" fill="#000000" fill-rule="evenodd" fill-opacity="1" /><path clip-path="url(#clip160)" d="M183.717 526.431 Q180.106 526.431 178.277 529.995 Q176.472 533.537 176.472 540.667 Q176.472 547.773 178.277 551.338 Q180.106 554.879 183.717 554.879 Q187.351 554.879 189.157 551.338 Q190.986 547.773 190.986 540.667 Q190.986 533.537 189.157 529.995 Q187.351 526.431 183.717 526.431 M183.717 522.727 Q189.527 522.727 192.583 527.333 Q195.662 531.917 195.662 540.667 Q195.662 549.393 192.583 554 Q189.527 558.583 183.717 558.583 Q177.907 558.583 174.828 554 Q171.773 549.393 171.773 540.667 Q171.773 531.917 174.828 527.333 Q177.907 522.727 183.717 522.727 Z" fill="#000000" fill-rule="evenodd" fill-opacity="1" /><path clip-path="url(#clip160)" d="M205.366 504.923 Q202.432 504.923 200.947 507.819 Q199.48 510.697 199.48 516.49 Q199.48 522.264 200.947 525.16 Q202.432 528.038 205.366 528.038 Q208.319 528.038 209.786 525.16 Q211.272 522.264 211.272 516.49 Q211.272 510.697 209.786 507.819 Q208.319 504.923 205.366 504.923 M205.366 501.914 Q210.087 501.914 212.57 505.656 Q215.071 509.38 215.071 516.49 Q215.071 523.58 212.57 527.323 Q210.087 531.047 205.366 531.047 Q200.646 531.047 198.144 527.323 Q195.662 523.58 195.662 516.49 Q195.662 509.38 198.144 505.656 Q200.646 501.914 205.366 501.914 Z" fill="#000000" fill-rule="evenodd" fill-opacity="1" /><path clip-path="url(#clip160)" d="M16.4842 1034.96 L16.4842 1004.91 L21.895 1004.91 L21.895 1028.53 L35.9632 1028.53 L35.9632 1005.9 L41.3741 1005.9 L41.3741 1028.53 L58.5933 1028.53 L58.5933 1004.34 L64.0042 1004.34 L64.0042 1034.96 L16.4842 1034.96 Z" fill="#000000" fill-rule="evenodd" fill-opacity="1" /><path clip-path="url(#clip160)" d="M33.8307 973.37 Q33.2578 974.357 33.0032 975.535 Q32.7167 976.68 32.7167 978.081 Q32.7167 983.046 35.9632 985.72 Q39.1779 988.362 45.2253 988.362 L64.0042 988.362 L64.0042 994.25 L28.3562 994.25 L28.3562 988.362 L33.8944 988.362 Q30.6479 986.515 29.0883 983.555 Q27.4968 980.595 27.4968 976.362 Q27.4968 975.757 27.5923 975.025 Q27.656 974.293 27.8151 973.402 L33.8307 973.37 Z" fill="#000000" fill-rule="evenodd" fill-opacity="1" /><path clip-path="url(#clip160)" d="M33.8307 947.716 Q33.2578 948.703 33.0032 949.881 Q32.7167 951.027 32.7167 952.427 Q32.7167 957.392 35.9632 960.066 Q39.1779 962.708 45.2253 962.708 L64.0042 962.708 L64.0042 968.596 L28.3562 968.596 L28.3562 962.708 L33.8944 962.708 Q30.6479 960.862 29.0883 957.902 Q27.4968 954.942 27.4968 950.708 Q27.4968 950.104 27.5923 949.372 Q27.656 948.64 27.8151 947.748 L33.8307 947.716 Z" fill="#000000" fill-rule="evenodd" fill-opacity="1" /><path clip-path="url(#clip160)" d="M32.4621 929.192 Q32.4621 933.903 36.1542 936.64 Q39.8145 939.377 46.212 939.377 Q52.6095 939.377 56.3017 936.672 Q59.9619 933.935 59.9619 929.192 Q59.9619 924.513 56.2698 921.776 Q52.5777 919.039 46.212 919.039 Q39.8781 919.039 36.186 921.776 Q32.4621 924.513 32.4621 929.192 M27.4968 929.192 Q27.4968 921.553 32.4621 917.193 Q37.4273 912.832 46.212 912.832 Q54.9649 912.832 59.9619 917.193 Q64.9272 921.553 64.9272 929.192 Q64.9272 936.863 59.9619 941.223 Q54.9649 945.552 46.212 945.552 Q37.4273 945.552 32.4621 941.223 Q27.4968 936.863 27.4968 929.192 Z" fill="#000000" fill-rule="evenodd" fill-opacity="1" /><path clip-path="url(#clip160)" d="M33.8307 882.468 Q33.2578 883.455 33.0032 884.632 Q32.7167 885.778 32.7167 887.179 Q32.7167 892.144 35.9632 894.817 Q39.1779 897.459 45.2253 897.459 L64.0042 897.459 L64.0042 903.348 L28.3562 903.348 L28.3562 897.459 L33.8944 897.459 Q30.6479 895.613 29.0883 892.653 Q27.4968 889.693 27.4968 885.46 Q27.4968 884.855 27.5923 884.123 Q27.656 883.391 27.8151 882.5 L33.8307 882.468 Z" fill="#000000" fill-rule="evenodd" fill-opacity="1" /><path clip-path="url(#clip160)" d="M55.9197 875.975 L55.9197 869.259 L64.0042 869.259 L64.0042 875.975 L55.9197 875.975 M30.2977 875.975 L30.2977 869.259 L38.3822 869.259 L38.3822 875.975 L30.2977 875.975 Z" fill="#000000" fill-rule="evenodd" fill-opacity="1" /><path clip-path="url(#clip160)" d="M58.5933 828.423 L58.5933 805.984 L64.0042 805.984 L64.0042 836.157 L58.5933 836.157 Q54.8057 832.497 48.44 826.195 Q42.0425 819.861 40.1964 818.238 Q36.7271 815.151 34.34 813.941 Q31.921 812.7 29.5975 812.7 Q25.8099 812.7 23.4228 815.373 Q21.0356 818.015 21.0356 822.28 Q21.0356 825.304 22.086 828.678 Q23.1363 832.02 25.2688 835.839 L18.7758 835.839 Q17.2162 831.956 16.4205 828.582 Q15.6248 825.208 15.6248 822.408 Q15.6248 815.023 19.3169 810.631 Q23.009 806.239 29.1837 806.239 Q32.112 806.239 34.7537 807.353 Q37.3637 808.435 40.9285 811.331 Q41.8515 812.127 46.2757 816.392 Q50.668 820.657 58.5933 828.423 Z" fill="#000000" fill-rule="evenodd" fill-opacity="1" /><path clip-path="url(#clip160)" d="M43.5384 796.276 L43.5384 779.121 L48.7583 779.121 L48.7583 796.276 L43.5384 796.276 Z" fill="#000000" fill-rule="evenodd" fill-opacity="1" /><path clip-path="url(#clip160)" d="M42.4881 740.163 L64.0042 740.163 L64.0042 746.019 L42.679 746.019 Q37.6183 746.019 35.1038 747.992 Q32.5894 749.966 32.5894 753.913 Q32.5894 758.655 35.6131 761.392 Q38.6368 764.129 43.8567 764.129 L64.0042 764.129 L64.0042 770.018 L28.3562 770.018 L28.3562 764.129 L33.8944 764.129 Q30.6797 762.029 29.0883 759.196 Q27.4968 756.332 27.4968 752.608 Q27.4968 746.465 31.3163 743.314 Q35.1038 740.163 42.4881 740.163 Z" fill="#000000" fill-rule="evenodd" fill-opacity="1" /><path clip-path="url(#clip160)" d="M32.4621 714.668 Q32.4621 719.379 36.1542 722.116 Q39.8145 724.853 46.212 724.853 Q52.6095 724.853 56.3017 722.148 Q59.9619 719.41 59.9619 714.668 Q59.9619 709.989 56.2698 707.252 Q52.5777 704.515 46.212 704.515 Q39.8781 704.515 36.186 707.252 Q32.4621 709.989 32.4621 714.668 M27.4968 714.668 Q27.4968 707.029 32.4621 702.669 Q37.4273 698.308 46.212 698.308 Q54.9649 698.308 59.9619 702.669 Q64.9272 707.029 64.9272 714.668 Q64.9272 722.339 59.9619 726.699 Q54.9649 731.028 46.212 731.028 Q37.4273 731.028 32.4621 726.699 Q27.4968 722.339 27.4968 714.668 Z" fill="#000000" fill-rule="evenodd" fill-opacity="1" /><path clip-path="url(#clip160)" d="M33.8307 667.944 Q33.2578 668.93 33.0032 670.108 Q32.7167 671.254 32.7167 672.654 Q32.7167 677.62 35.9632 680.293 Q39.1779 682.935 45.2253 682.935 L64.0042 682.935 L64.0042 688.823 L28.3562 688.823 L28.3562 682.935 L33.8944 682.935 Q30.6479 681.089 29.0883 678.129 Q27.4968 675.169 27.4968 670.936 Q27.4968 670.331 27.5923 669.599 Q27.656 668.867 27.8151 667.975 L33.8307 667.944 Z" fill="#000000" fill-rule="evenodd" fill-opacity="1" /><path clip-path="url(#clip160)" d="M35.1993 635.192 Q31.2526 632.996 29.3747 629.94 Q27.4968 626.885 27.4968 622.747 Q27.4968 617.177 31.4117 614.153 Q35.2948 611.13 42.4881 611.13 L64.0042 611.13 L64.0042 617.018 L42.679 617.018 Q37.5546 617.018 35.072 618.832 Q32.5894 620.646 32.5894 624.37 Q32.5894 628.922 35.6131 631.564 Q38.6368 634.205 43.8567 634.205 L64.0042 634.205 L64.0042 640.094 L42.679 640.094 Q37.5228 640.094 35.072 641.908 Q32.5894 643.722 32.5894 647.51 Q32.5894 651.998 35.6449 654.639 Q38.6686 657.281 43.8567 657.281 L64.0042 657.281 L64.0042 663.169 L28.3562 663.169 L28.3562 657.281 L33.8944 657.281 Q30.616 655.276 29.0564 652.475 Q27.4968 649.674 27.4968 645.823 Q27.4968 641.94 29.4702 639.234 Q31.4436 636.497 35.1993 635.192 Z" fill="#000000" fill-rule="evenodd" fill-opacity="1" /><path clip-path="url(#clip160)" d="M14.5426 564.66 Q21.8632 568.925 29.0246 570.994 Q36.186 573.063 43.5384 573.063 Q50.8908 573.063 58.1159 570.994 Q65.3091 568.893 72.5979 564.66 L72.5979 569.753 Q65.1182 574.527 57.8931 576.914 Q50.668 579.269 43.5384 579.269 Q36.4406 579.269 29.2474 576.914 Q22.0542 574.559 14.5426 569.753 L14.5426 564.66 Z" fill="#000000" fill-rule="evenodd" fill-opacity="1" /><path clip-path="url(#clip160)" d="M16.4842 553.043 L16.4842 546.613 L58.5933 546.613 L58.5933 523.474 L64.0042 523.474 L64.0042 553.043 L16.4842 553.043 Z" fill="#000000" fill-rule="evenodd" fill-opacity="1" /><path clip-path="url(#clip160)" d="M32.4621 504.313 Q32.4621 509.024 36.1542 511.761 Q39.8145 514.498 46.212 514.498 Q52.6095 514.498 56.3017 511.793 Q59.9619 509.056 59.9619 504.313 Q59.9619 499.634 56.2698 496.897 Q52.5777 494.16 46.212 494.16 Q39.8781 494.16 36.186 496.897 Q32.4621 499.634 32.4621 504.313 M27.4968 504.313 Q27.4968 496.674 32.4621 492.314 Q37.4273 487.953 46.212 487.953 Q54.9649 487.953 59.9619 492.314 Q64.9272 496.674 64.9272 504.313 Q64.9272 511.984 59.9619 516.344 Q54.9649 520.673 46.212 520.673 Q37.4273 520.673 32.4621 516.344 Q27.4968 511.984 27.4968 504.313 Z" fill="#000000" fill-rule="evenodd" fill-opacity="1" /><path clip-path="url(#clip160)" d="M45.7664 454.788 Q39.4007 454.788 35.8996 457.43 Q32.3984 460.04 32.3984 464.782 Q32.3984 469.493 35.8996 472.135 Q39.4007 474.744 45.7664 474.744 Q52.1003 474.744 55.6014 472.135 Q59.1026 469.493 59.1026 464.782 Q59.1026 460.04 55.6014 457.43 Q52.1003 454.788 45.7664 454.788 M59.58 448.932 Q68.683 448.932 73.1071 452.974 Q77.5631 457.016 77.5631 465.355 Q77.5631 468.442 77.0857 471.18 Q76.6401 473.917 75.6852 476.495 L69.9879 476.495 Q71.3884 473.917 72.0568 471.402 Q72.7252 468.888 72.7252 466.278 Q72.7252 460.517 69.7015 457.653 Q66.7096 454.788 60.6303 454.788 L57.7339 454.788 Q60.885 456.602 62.4446 459.435 Q64.0042 462.268 64.0042 466.214 Q64.0042 472.771 59.0071 476.782 Q54.01 480.792 45.7664 480.792 Q37.491 480.792 32.4939 476.782 Q27.4968 472.771 27.4968 466.214 Q27.4968 462.268 29.0564 459.435 Q30.616 456.602 33.7671 454.788 L28.3562 454.788 L28.3562 448.932 L59.58 448.932 Z" fill="#000000" fill-rule="evenodd" fill-opacity="1" /><path clip-path="url(#clip160)" d="M14.5426 437.792 L14.5426 432.699 Q22.0542 427.925 29.2474 425.569 Q36.4406 423.182 43.5384 423.182 Q50.668 423.182 57.8931 425.569 Q65.1182 427.925 72.5979 432.699 L72.5979 437.792 Q65.3091 433.558 58.1159 431.489 Q50.8908 429.389 43.5384 429.389 Q36.186 429.389 29.0246 431.489 Q21.8632 433.558 14.5426 437.792 Z" fill="#000000" fill-rule="evenodd" fill-opacity="1" /><polyline clip-path="url(#clip162)" style="stroke:#0000ff; stroke-linecap:butt; stroke-linejoin:round; stroke-width:8; stroke-opacity:1; fill:none" points="
  400.706,601.509 755.27,758.037 1087.51,912.915 1441.89,1066.48 1799.79,1219.45 2164.9,1372.16 
  "/>
<circle clip-path="url(#clip162)" cx="400.706" cy="601.509" r="18" fill="#ffffff" fill-rule="evenodd" fill-opacity="1" stroke="#000000" stroke-opacity="1" stroke-width="3.2"/>
<circle clip-path="url(#clip162)" cx="755.27" cy="758.037" r="18" fill="#ffffff" fill-rule="evenodd" fill-opacity="1" stroke="#000000" stroke-opacity="1" stroke-width="3.2"/>
<circle clip-path="url(#clip162)" cx="1087.51" cy="912.915" r="18" fill="#ffffff" fill-rule="evenodd" fill-opacity="1" stroke="#000000" stroke-opacity="1" stroke-width="3.2"/>
<circle clip-path="url(#clip162)" cx="1441.89" cy="1066.48" r="18" fill="#ffffff" fill-rule="evenodd" fill-opacity="1" stroke="#000000" stroke-opacity="1" stroke-width="3.2"/>
<circle clip-path="url(#clip162)" cx="1799.79" cy="1219.45" r="18" fill="#ffffff" fill-rule="evenodd" fill-opacity="1" stroke="#000000" stroke-opacity="1" stroke-width="3.2"/>
<circle clip-path="url(#clip162)" cx="2164.9" cy="1372.16" r="18" fill="#ffffff" fill-rule="evenodd" fill-opacity="1" stroke="#000000" stroke-opacity="1" stroke-width="3.2"/>
<polyline clip-path="url(#clip162)" style="stroke:#0000ff; stroke-linecap:butt; stroke-linejoin:round; stroke-width:8; stroke-opacity:1; fill:none" points="
  355.571,611.313 689.393,762.095 1043.88,914.517 1403.74,1067.15 1763.64,1219.75 2123.09,1372.3 
  "/>
<path clip-path="url(#clip162)" d="M335.571 591.313 L335.571 631.313 L375.571 631.313 L375.571 591.313 L335.571 591.313 Z" fill="#ffffff" fill-rule="evenodd" fill-opacity="1" stroke="#000000" stroke-opacity="1" stroke-width="3.2"/>
<path clip-path="url(#clip162)" d="M669.393 742.095 L669.393 782.095 L709.393 782.095 L709.393 742.095 L669.393 742.095 Z" fill="#ffffff" fill-rule="evenodd" fill-opacity="1" stroke="#000000" stroke-opacity="1" stroke-width="3.2"/>
<path clip-path="url(#clip162)" d="M1023.88 894.517 L1023.88 934.517 L1063.88 934.517 L1063.88 894.517 L1023.88 894.517 Z" fill="#ffffff" fill-rule="evenodd" fill-opacity="1" stroke="#000000" stroke-opacity="1" stroke-width="3.2"/>
<path clip-path="url(#clip162)" d="M1383.74 1047.15 L1383.74 1087.15 L1423.74 1087.15 L1423.74 1047.15 L1383.74 1047.15 Z" fill="#ffffff" fill-rule="evenodd" fill-opacity="1" stroke="#000000" stroke-opacity="1" stroke-width="3.2"/>
<path clip-path="url(#clip162)" d="M1743.64 1199.75 L1743.64 1239.75 L1783.64 1239.75 L1783.64 1199.75 L1743.64 1199.75 Z" fill="#ffffff" fill-rule="evenodd" fill-opacity="1" stroke="#000000" stroke-opacity="1" stroke-width="3.2"/>
<path clip-path="url(#clip162)" d="M2103.09 1352.3 L2103.09 1392.3 L2143.09 1392.3 L2143.09 1352.3 L2103.09 1352.3 Z" fill="#ffffff" fill-rule="evenodd" fill-opacity="1" stroke="#000000" stroke-opacity="1" stroke-width="3.2"/>
<polyline clip-path="url(#clip162)" style="stroke:#ff0000; stroke-linecap:butt; stroke-linejoin:round; stroke-width:8; stroke-opacity:1; fill:none" points="
  310.553,85.838 642.457,218.053 1025.89,308.224 1369.64,377.691 1728.03,437.53 2074.67,492.79 
  "/>
<path clip-path="url(#clip162)" d="M326.553 85.838 L302.553 71.838 L302.553 99.838 L326.553 85.838 Z" fill="#ffffff" fill-rule="evenodd" fill-opacity="1" stroke="#000000" stroke-opacity="1" stroke-width="3.2"/>
<path clip-path="url(#clip162)" d="M658.457 218.053 L634.457 204.053 L634.457 232.053 L658.457 218.053 Z" fill="#ffffff" fill-rule="evenodd" fill-opacity="1" stroke="#000000" stroke-opacity="1" stroke-width="3.2"/>
<path clip-path="url(#clip162)" d="M1041.89 308.224 L1017.89 294.224 L1017.89 322.224 L1041.89 308.224 Z" fill="#ffffff" fill-rule="evenodd" fill-opacity="1" stroke="#000000" stroke-opacity="1" stroke-width="3.2"/>
<path clip-path="url(#clip162)" d="M1385.64 377.691 L1361.64 363.691 L1361.64 391.691 L1385.64 377.691 Z" fill="#ffffff" fill-rule="evenodd" fill-opacity="1" stroke="#000000" stroke-opacity="1" stroke-width="3.2"/>
<path clip-path="url(#clip162)" d="M1744.03 437.53 L1720.03 423.53 L1720.03 451.53 L1744.03 437.53 Z" fill="#ffffff" fill-rule="evenodd" fill-opacity="1" stroke="#000000" stroke-opacity="1" stroke-width="3.2"/>
<path clip-path="url(#clip162)" d="M2090.67 492.79 L2066.67 478.79 L2066.67 506.79 L2090.67 492.79 Z" fill="#ffffff" fill-rule="evenodd" fill-opacity="1" stroke="#000000" stroke-opacity="1" stroke-width="3.2"/>
<polyline clip-path="url(#clip162)" style="stroke:#ff0000; stroke-linecap:butt; stroke-linejoin:round; stroke-width:8; stroke-opacity:1; fill:none" points="
  516.387,601.509 878.52,758.036 1229.18,912.914 1572.36,1066.48 1918.57,1219.45 2293.27,1372.16 
  "/>
<circle clip-path="url(#clip162)" cx="516.387" cy="601.509" r="18" fill="#ffffff" fill-rule="evenodd" fill-opacity="1" stroke="#000000" stroke-opacity="1" stroke-width="3.2"/>
<circle clip-path="url(#clip162)" cx="878.52" cy="758.036" r="18" fill="#ffffff" fill-rule="evenodd" fill-opacity="1" stroke="#000000" stroke-opacity="1" stroke-width="3.2"/>
<circle clip-path="url(#clip162)" cx="1229.18" cy="912.914" r="18" fill="#ffffff" fill-rule="evenodd" fill-opacity="1" stroke="#000000" stroke-opacity="1" stroke-width="3.2"/>
<circle clip-path="url(#clip162)" cx="1572.36" cy="1066.48" r="18" fill="#ffffff" fill-rule="evenodd" fill-opacity="1" stroke="#000000" stroke-opacity="1" stroke-width="3.2"/>
<circle clip-path="url(#clip162)" cx="1918.57" cy="1219.45" r="18" fill="#ffffff" fill-rule="evenodd" fill-opacity="1" stroke="#000000" stroke-opacity="1" stroke-width="3.2"/>
<circle clip-path="url(#clip162)" cx="2293.27" cy="1372.16" r="18" fill="#ffffff" fill-rule="evenodd" fill-opacity="1" stroke="#000000" stroke-opacity="1" stroke-width="3.2"/>
<polyline clip-path="url(#clip162)" style="stroke:#ff0000; stroke-linecap:butt; stroke-linejoin:round; stroke-width:8; stroke-opacity:1; fill:none" points="
  407.525,350.533 776.794,353.939 1099.21,376.375 1447.53,411.753 1827.28,454.551 2159.89,501.293 
  "/>
<path clip-path="url(#clip162)" d="M407.525 330.533 L387.525 350.533 L407.525 370.533 L427.525 350.533 L407.525 330.533 Z" fill="#ffffff" fill-rule="evenodd" fill-opacity="1" stroke="#000000" stroke-opacity="1" stroke-width="3.2"/>
<path clip-path="url(#clip162)" d="M776.794 333.939 L756.794 353.939 L776.794 373.939 L796.794 353.939 L776.794 333.939 Z" fill="#ffffff" fill-rule="evenodd" fill-opacity="1" stroke="#000000" stroke-opacity="1" stroke-width="3.2"/>
<path clip-path="url(#clip162)" d="M1099.21 356.375 L1079.21 376.375 L1099.21 396.375 L1119.21 376.375 L1099.21 356.375 Z" fill="#ffffff" fill-rule="evenodd" fill-opacity="1" stroke="#000000" stroke-opacity="1" stroke-width="3.2"/>
<path clip-path="url(#clip162)" d="M1447.53 391.753 L1427.53 411.753 L1447.53 431.753 L1467.53 411.753 L1447.53 391.753 Z" fill="#ffffff" fill-rule="evenodd" fill-opacity="1" stroke="#000000" stroke-opacity="1" stroke-width="3.2"/>
<path clip-path="url(#clip162)" d="M1827.28 434.551 L1807.28 454.551 L1827.28 474.551 L1847.28 454.551 L1827.28 434.551 Z" fill="#ffffff" fill-rule="evenodd" fill-opacity="1" stroke="#000000" stroke-opacity="1" stroke-width="3.2"/>
<path clip-path="url(#clip162)" d="M2159.89 481.293 L2139.89 501.293 L2159.89 521.293 L2179.89 501.293 L2159.89 481.293 Z" fill="#ffffff" fill-rule="evenodd" fill-opacity="1" stroke="#000000" stroke-opacity="1" stroke-width="3.2"/>
<polyline clip-path="url(#clip162)" style="stroke:#ff0000; stroke-linecap:butt; stroke-linejoin:round; stroke-width:8; stroke-opacity:1; fill:none" points="
  456.716,611.313 714.691,762.093 1075.65,914.517 1410.09,1067.15 1807.66,1219.75 2125.69,1372.3 
  "/>
<path clip-path="url(#clip162)" d="M436.716 591.313 L436.716 631.313 L476.716 631.313 L476.716 591.313 L436.716 591.313 Z" fill="#ffffff" fill-rule="evenodd" fill-opacity="1" stroke="#000000" stroke-opacity="1" stroke-width="3.2"/>
<path clip-path="url(#clip162)" d="M694.691 742.093 L694.691 782.093 L734.691 782.093 L734.691 742.093 L694.691 742.093 Z" fill="#ffffff" fill-rule="evenodd" fill-opacity="1" stroke="#000000" stroke-opacity="1" stroke-width="3.2"/>
<path clip-path="url(#clip162)" d="M1055.65 894.517 L1055.65 934.517 L1095.65 934.517 L1095.65 894.517 L1055.65 894.517 Z" fill="#ffffff" fill-rule="evenodd" fill-opacity="1" stroke="#000000" stroke-opacity="1" stroke-width="3.2"/>
<path clip-path="url(#clip162)" d="M1390.09 1047.15 L1390.09 1087.15 L1430.09 1087.15 L1430.09 1047.15 L1390.09 1047.15 Z" fill="#ffffff" fill-rule="evenodd" fill-opacity="1" stroke="#000000" stroke-opacity="1" stroke-width="3.2"/>
<path clip-path="url(#clip162)" d="M1787.66 1199.75 L1787.66 1239.75 L1827.66 1239.75 L1827.66 1199.75 L1787.66 1199.75 Z" fill="#ffffff" fill-rule="evenodd" fill-opacity="1" stroke="#000000" stroke-opacity="1" stroke-width="3.2"/>
<path clip-path="url(#clip162)" d="M2105.69 1352.3 L2105.69 1392.3 L2145.69 1392.3 L2145.69 1352.3 L2105.69 1352.3 Z" fill="#ffffff" fill-rule="evenodd" fill-opacity="1" stroke="#000000" stroke-opacity="1" stroke-width="3.2"/>
<path clip-path="url(#clip160)" d="
M1737.56 884.59 L2282.7 884.59 L2282.7 521.71 L1737.56 521.71  Z
  " fill="#ffffff" fill-rule="evenodd" fill-opacity="1"/>
<polyline clip-path="url(#clip160)" style="stroke:#000000; stroke-linecap:butt; stroke-linejoin:round; stroke-width:4; stroke-opacity:1; fill:none" points="
  1737.56,884.59 2282.7,884.59 2282.7,521.71 1737.56,521.71 1737.56,884.59 
  "/>
<polyline clip-path="url(#clip160)" style="stroke:#0000ff; stroke-linecap:butt; stroke-linejoin:round; stroke-width:4; stroke-opacity:1; fill:none" points="
  1760.91,573.55 1901.02,573.55 
  "/>
<circle clip-path="url(#clip160)" cx="1830.97" cy="573.55" r="23.04" fill="#ffffff" fill-rule="evenodd" fill-opacity="1" stroke="#000000" stroke-opacity="1" stroke-width="4.096"/>
<path clip-path="url(#clip160)" d="M1931.48 556.27 L1936.16 556.27 L1936.16 588.423 Q1936.16 594.673 1933.78 597.497 Q1931.41 600.321 1926.16 600.321 L1924.38 600.321 L1924.38 596.386 L1925.84 596.386 Q1928.94 596.386 1930.21 594.65 Q1931.48 592.914 1931.48 588.423 L1931.48 556.27 Z" fill="#000000" fill-rule="evenodd" fill-opacity="1" /><path clip-path="url(#clip160)" d="M1944.84 580.599 L1944.84 564.905 L1949.1 564.905 L1949.1 580.437 Q1949.1 584.117 1950.53 585.969 Q1951.97 587.798 1954.84 587.798 Q1958.29 587.798 1960.28 585.599 Q1962.29 583.4 1962.29 579.604 L1962.29 564.905 L1966.55 564.905 L1966.55 590.83 L1962.29 590.83 L1962.29 586.849 Q1960.74 589.21 1958.68 590.367 Q1956.65 591.502 1953.94 591.502 Q1949.47 591.502 1947.15 588.724 Q1944.84 585.946 1944.84 580.599 M1955.56 564.28 L1955.56 564.28 Z" fill="#000000" fill-rule="evenodd" fill-opacity="1" /><path clip-path="url(#clip160)" d="M1975.33 554.812 L1979.58 554.812 L1979.58 590.83 L1975.33 590.83 L1975.33 554.812 Z" fill="#000000" fill-rule="evenodd" fill-opacity="1" /><path clip-path="url(#clip160)" d="M1988.5 564.905 L1992.76 564.905 L1992.76 590.83 L1988.5 590.83 L1988.5 564.905 M1988.5 554.812 L1992.76 554.812 L1992.76 560.206 L1988.5 560.206 L1988.5 554.812 Z" fill="#000000" fill-rule="evenodd" fill-opacity="1" /><path clip-path="url(#clip160)" d="M2013.45 577.798 Q2008.29 577.798 2006.3 578.979 Q2004.31 580.159 2004.31 583.006 Q2004.31 585.275 2005.79 586.617 Q2007.29 587.937 2009.86 587.937 Q2013.4 587.937 2015.53 585.437 Q2017.69 582.914 2017.69 578.747 L2017.69 577.798 L2013.45 577.798 M2021.95 576.039 L2021.95 590.83 L2017.69 590.83 L2017.69 586.895 Q2016.23 589.256 2014.05 590.391 Q2011.88 591.502 2008.73 591.502 Q2004.75 591.502 2002.39 589.279 Q2000.05 587.034 2000.05 583.284 Q2000.05 578.909 2002.96 576.687 Q2005.9 574.465 2011.71 574.465 L2017.69 574.465 L2017.69 574.048 Q2017.69 571.108 2015.74 569.511 Q2013.82 567.891 2010.33 567.891 Q2008.1 567.891 2006 568.423 Q2003.89 568.955 2001.95 570.02 L2001.95 566.085 Q2004.28 565.182 2006.48 564.743 Q2008.68 564.28 2010.77 564.28 Q2016.39 564.28 2019.17 567.196 Q2021.95 570.113 2021.95 576.039 Z" fill="#000000" fill-rule="evenodd" fill-opacity="1" /><path clip-path="url(#clip160)" d="M2050.65 560.113 L2050.65 573.099 L2056.53 573.099 Q2059.79 573.099 2061.58 571.409 Q2063.36 569.719 2063.36 566.594 Q2063.36 563.493 2061.58 561.803 Q2059.79 560.113 2056.53 560.113 L2050.65 560.113 M2045.97 556.27 L2056.53 556.27 Q2062.34 556.27 2065.3 558.909 Q2068.29 561.525 2068.29 566.594 Q2068.29 571.71 2065.3 574.326 Q2062.34 576.942 2056.53 576.942 L2050.65 576.942 L2050.65 590.83 L2045.97 590.83 L2045.97 556.27 Z" fill="#000000" fill-rule="evenodd" fill-opacity="1" /><path clip-path="url(#clip160)" d="M2100.44 558.932 L2100.44 563.863 Q2098.08 561.664 2095.39 560.576 Q2092.73 559.488 2089.72 559.488 Q2083.8 559.488 2080.65 563.122 Q2077.5 566.733 2077.5 573.585 Q2077.5 580.414 2080.65 584.048 Q2083.8 587.659 2089.72 587.659 Q2092.73 587.659 2095.39 586.571 Q2098.08 585.483 2100.44 583.284 L2100.44 588.168 Q2097.99 589.835 2095.23 590.668 Q2092.5 591.502 2089.45 591.502 Q2081.6 591.502 2077.08 586.71 Q2072.57 581.895 2072.57 573.585 Q2072.57 565.252 2077.08 560.46 Q2081.6 555.645 2089.45 555.645 Q2092.55 555.645 2095.28 556.479 Q2098.03 557.289 2100.44 558.932 Z" fill="#000000" fill-rule="evenodd" fill-opacity="1" /><polyline clip-path="url(#clip160)" style="stroke:#0000ff; stroke-linecap:butt; stroke-linejoin:round; stroke-width:4; stroke-opacity:1; fill:none" points="
  1760.91,625.39 1901.02,625.39 
  "/>
<path clip-path="url(#clip160)" d="M1805.37 599.79 L1805.37 650.99 L1856.57 650.99 L1856.57 599.79 L1805.37 599.79 Z" fill="#ffffff" fill-rule="evenodd" fill-opacity="1" stroke="#000000" stroke-opacity="1" stroke-width="4.096"/>
<path clip-path="url(#clip160)" d="M1931.48 608.11 L1936.16 608.11 L1936.16 640.263 Q1936.16 646.513 1933.78 649.337 Q1931.41 652.161 1926.16 652.161 L1924.38 652.161 L1924.38 648.226 L1925.84 648.226 Q1928.94 648.226 1930.21 646.49 Q1931.48 644.754 1931.48 640.263 L1931.48 608.11 Z" fill="#000000" fill-rule="evenodd" fill-opacity="1" /><path clip-path="url(#clip160)" d="M1944.84 632.439 L1944.84 616.745 L1949.1 616.745 L1949.1 632.277 Q1949.1 635.957 1950.53 637.809 Q1951.97 639.638 1954.84 639.638 Q1958.29 639.638 1960.28 637.439 Q1962.29 635.24 1962.29 631.444 L1962.29 616.745 L1966.55 616.745 L1966.55 642.67 L1962.29 642.67 L1962.29 638.689 Q1960.74 641.05 1958.68 642.207 Q1956.65 643.342 1953.94 643.342 Q1949.47 643.342 1947.15 640.564 Q1944.84 637.786 1944.84 632.439 M1955.56 616.12 L1955.56 616.12 Z" fill="#000000" fill-rule="evenodd" fill-opacity="1" /><path clip-path="url(#clip160)" d="M1975.33 606.652 L1979.58 606.652 L1979.58 642.67 L1975.33 642.67 L1975.33 606.652 Z" fill="#000000" fill-rule="evenodd" fill-opacity="1" /><path clip-path="url(#clip160)" d="M1988.5 616.745 L1992.76 616.745 L1992.76 642.67 L1988.5 642.67 L1988.5 616.745 M1988.5 606.652 L1992.76 606.652 L1992.76 612.046 L1988.5 612.046 L1988.5 606.652 Z" fill="#000000" fill-rule="evenodd" fill-opacity="1" /><path clip-path="url(#clip160)" d="M2013.45 629.638 Q2008.29 629.638 2006.3 630.819 Q2004.31 631.999 2004.31 634.846 Q2004.31 637.115 2005.79 638.457 Q2007.29 639.777 2009.86 639.777 Q2013.4 639.777 2015.53 637.277 Q2017.69 634.754 2017.69 630.587 L2017.69 629.638 L2013.45 629.638 M2021.95 627.879 L2021.95 642.67 L2017.69 642.67 L2017.69 638.735 Q2016.23 641.096 2014.05 642.231 Q2011.88 643.342 2008.73 643.342 Q2004.75 643.342 2002.39 641.119 Q2000.05 638.874 2000.05 635.124 Q2000.05 630.749 2002.96 628.527 Q2005.9 626.305 2011.71 626.305 L2017.69 626.305 L2017.69 625.888 Q2017.69 622.948 2015.74 621.351 Q2013.82 619.731 2010.33 619.731 Q2008.1 619.731 2006 620.263 Q2003.89 620.795 2001.95 621.86 L2001.95 617.925 Q2004.28 617.022 2006.48 616.583 Q2008.68 616.12 2010.77 616.12 Q2016.39 616.12 2019.17 619.036 Q2021.95 621.953 2021.95 627.879 Z" fill="#000000" fill-rule="evenodd" fill-opacity="1" /><path clip-path="url(#clip160)" d="M2045.97 608.11 L2052.27 608.11 L2067.59 637.022 L2067.59 608.11 L2072.13 608.11 L2072.13 642.67 L2065.83 642.67 L2050.51 613.758 L2050.51 642.67 L2045.97 642.67 L2045.97 608.11 Z" fill="#000000" fill-rule="evenodd" fill-opacity="1" /><path clip-path="url(#clip160)" d="M2097.83 626.467 Q2099.33 626.976 2100.74 628.643 Q2102.18 630.309 2103.61 633.226 L2108.36 642.67 L2103.33 642.67 L2098.91 633.805 Q2097.2 630.332 2095.58 629.198 Q2093.98 628.064 2091.2 628.064 L2086.11 628.064 L2086.11 642.67 L2081.44 642.67 L2081.44 608.11 L2091.99 608.11 Q2097.92 608.11 2100.83 610.587 Q2103.75 613.064 2103.75 618.064 Q2103.75 621.328 2102.22 623.481 Q2100.72 625.633 2097.83 626.467 M2086.11 611.953 L2086.11 624.221 L2091.99 624.221 Q2095.37 624.221 2097.08 622.67 Q2098.82 621.096 2098.82 618.064 Q2098.82 615.032 2097.08 613.504 Q2095.37 611.953 2091.99 611.953 L2086.11 611.953 Z" fill="#000000" fill-rule="evenodd" fill-opacity="1" /><polyline clip-path="url(#clip160)" style="stroke:#ff0000; stroke-linecap:butt; stroke-linejoin:round; stroke-width:4; stroke-opacity:1; fill:none" points="
  1760.91,677.23 1901.02,677.23 
  "/>
<path clip-path="url(#clip160)" d="M1851.45 677.23 L1820.73 659.31 L1820.73 695.15 L1851.45 677.23 Z" fill="#ffffff" fill-rule="evenodd" fill-opacity="1" stroke="#000000" stroke-opacity="1" stroke-width="4.096"/>
<path clip-path="url(#clip160)" d="M1924.38 659.95 L1931.34 659.95 L1940.16 683.469 L1949.03 659.95 L1956 659.95 L1956 694.51 L1951.44 694.51 L1951.44 664.163 L1942.52 687.867 L1937.83 687.867 L1928.91 664.163 L1928.91 694.51 L1924.38 694.51 L1924.38 659.95 Z" fill="#000000" fill-rule="evenodd" fill-opacity="1" /><path clip-path="url(#clip160)" d="M1976.88 681.478 Q1971.71 681.478 1969.72 682.659 Q1967.73 683.839 1967.73 686.686 Q1967.73 688.955 1969.21 690.297 Q1970.72 691.617 1973.29 691.617 Q1976.83 691.617 1978.96 689.117 Q1981.11 686.594 1981.11 682.427 L1981.11 681.478 L1976.88 681.478 M1985.37 679.719 L1985.37 694.51 L1981.11 694.51 L1981.11 690.575 Q1979.65 692.936 1977.48 694.071 Q1975.3 695.182 1972.15 695.182 Q1968.17 695.182 1965.81 692.959 Q1963.47 690.714 1963.47 686.964 Q1963.47 682.589 1966.39 680.367 Q1969.33 678.145 1975.14 678.145 L1981.11 678.145 L1981.11 677.728 Q1981.11 674.788 1979.17 673.191 Q1977.25 671.571 1973.75 671.571 Q1971.53 671.571 1969.42 672.103 Q1967.32 672.635 1965.37 673.7 L1965.37 669.765 Q1967.71 668.862 1969.91 668.423 Q1972.11 667.96 1974.19 667.96 Q1979.82 667.96 1982.59 670.876 Q1985.37 673.793 1985.37 679.719 Z" fill="#000000" fill-rule="evenodd" fill-opacity="1" /><path clip-path="url(#clip160)" d="M1998.36 661.224 L1998.36 668.585 L2007.13 668.585 L2007.13 671.895 L1998.36 671.895 L1998.36 685.969 Q1998.36 689.14 1999.21 690.043 Q2000.09 690.946 2002.76 690.946 L2007.13 690.946 L2007.13 694.51 L2002.76 694.51 Q1997.83 694.51 1995.95 692.682 Q1994.08 690.83 1994.08 685.969 L1994.08 671.895 L1990.95 671.895 L1990.95 668.585 L1994.08 668.585 L1994.08 661.224 L1998.36 661.224 Z" fill="#000000" fill-rule="evenodd" fill-opacity="1" /><path clip-path="url(#clip160)" d="M2012.73 658.492 L2016.99 658.492 L2016.99 694.51 L2012.73 694.51 L2012.73 658.492 Z" fill="#000000" fill-rule="evenodd" fill-opacity="1" /><path clip-path="url(#clip160)" d="M2037.69 681.478 Q2032.52 681.478 2030.53 682.659 Q2028.54 683.839 2028.54 686.686 Q2028.54 688.955 2030.02 690.297 Q2031.53 691.617 2034.1 691.617 Q2037.64 691.617 2039.77 689.117 Q2041.92 686.594 2041.92 682.427 L2041.92 681.478 L2037.69 681.478 M2046.18 679.719 L2046.18 694.51 L2041.92 694.51 L2041.92 690.575 Q2040.46 692.936 2038.29 694.071 Q2036.11 695.182 2032.96 695.182 Q2028.98 695.182 2026.62 692.959 Q2024.28 690.714 2024.28 686.964 Q2024.28 682.589 2027.2 680.367 Q2030.14 678.145 2035.95 678.145 L2041.92 678.145 L2041.92 677.728 Q2041.92 674.788 2039.98 673.191 Q2038.06 671.571 2034.56 671.571 Q2032.34 671.571 2030.23 672.103 Q2028.13 672.635 2026.18 673.7 L2026.18 669.765 Q2028.52 668.862 2030.72 668.423 Q2032.92 667.96 2035 667.96 Q2040.63 667.96 2043.4 670.876 Q2046.18 673.793 2046.18 679.719 Z" fill="#000000" fill-rule="evenodd" fill-opacity="1" /><path clip-path="url(#clip160)" d="M2073.57 681.571 Q2073.57 676.872 2071.62 674.21 Q2069.7 671.524 2066.32 671.524 Q2062.94 671.524 2061 674.21 Q2059.08 676.872 2059.08 681.571 Q2059.08 686.27 2061 688.955 Q2062.94 691.617 2066.32 691.617 Q2069.7 691.617 2071.62 688.955 Q2073.57 686.27 2073.57 681.571 M2059.08 672.52 Q2060.42 670.205 2062.45 669.094 Q2064.52 667.96 2067.36 667.96 Q2072.08 667.96 2075.02 671.71 Q2077.99 675.46 2077.99 681.571 Q2077.99 687.682 2075.02 691.432 Q2072.08 695.182 2067.36 695.182 Q2064.52 695.182 2062.45 694.071 Q2060.42 692.936 2059.08 690.622 L2059.08 694.51 L2054.79 694.51 L2054.79 658.492 L2059.08 658.492 L2059.08 672.52 Z" fill="#000000" fill-rule="evenodd" fill-opacity="1" /><path clip-path="url(#clip160)" d="M2104.98 663.793 L2104.98 676.779 L2110.86 676.779 Q2114.12 676.779 2115.9 675.089 Q2117.69 673.399 2117.69 670.274 Q2117.69 667.173 2115.9 665.483 Q2114.12 663.793 2110.86 663.793 L2104.98 663.793 M2100.3 659.95 L2110.86 659.95 Q2116.67 659.95 2119.63 662.589 Q2122.62 665.205 2122.62 670.274 Q2122.62 675.39 2119.63 678.006 Q2116.67 680.622 2110.86 680.622 L2104.98 680.622 L2104.98 694.51 L2100.3 694.51 L2100.3 659.95 Z" fill="#000000" fill-rule="evenodd" fill-opacity="1" /><path clip-path="url(#clip160)" d="M2128.89 659.95 L2133.57 659.95 L2133.57 694.51 L2128.89 694.51 L2128.89 659.95 Z" fill="#000000" fill-rule="evenodd" fill-opacity="1" /><path clip-path="url(#clip160)" d="M2140.53 679.626 L2153.01 679.626 L2153.01 683.422 L2140.53 683.422 L2140.53 679.626 Z" fill="#000000" fill-rule="evenodd" fill-opacity="1" /><path clip-path="url(#clip160)" d="M2159.98 659.95 L2181.83 659.95 L2181.83 663.886 L2164.65 663.886 L2164.65 674.117 L2181.11 674.117 L2181.11 678.052 L2164.65 678.052 L2164.65 690.575 L2182.25 690.575 L2182.25 694.51 L2159.98 694.51 L2159.98 659.95 Z" fill="#000000" fill-rule="evenodd" fill-opacity="1" /><path clip-path="url(#clip160)" d="M2188.26 659.95 L2193.29 659.95 L2201.88 672.798 L2210.51 659.95 L2215.53 659.95 L2204.42 676.548 L2216.27 694.51 L2211.25 694.51 L2201.53 679.811 L2191.74 694.51 L2186.69 694.51 L2199.03 676.061 L2188.26 659.95 Z" fill="#000000" fill-rule="evenodd" fill-opacity="1" /><polyline clip-path="url(#clip160)" style="stroke:#ff0000; stroke-linecap:butt; stroke-linejoin:round; stroke-width:4; stroke-opacity:1; fill:none" points="
  1760.91,729.07 1901.02,729.07 
  "/>
<circle clip-path="url(#clip160)" cx="1830.97" cy="729.07" r="23.04" fill="#ffffff" fill-rule="evenodd" fill-opacity="1" stroke="#000000" stroke-opacity="1" stroke-width="4.096"/>
<path clip-path="url(#clip160)" d="M1924.38 711.79 L1931.34 711.79 L1940.16 735.309 L1949.03 711.79 L1956 711.79 L1956 746.35 L1951.44 746.35 L1951.44 716.003 L1942.52 739.707 L1937.83 739.707 L1928.91 716.003 L1928.91 746.35 L1924.38 746.35 L1924.38 711.79 Z" fill="#000000" fill-rule="evenodd" fill-opacity="1" /><path clip-path="url(#clip160)" d="M1976.88 733.318 Q1971.71 733.318 1969.72 734.499 Q1967.73 735.679 1967.73 738.526 Q1967.73 740.795 1969.21 742.137 Q1970.72 743.457 1973.29 743.457 Q1976.83 743.457 1978.96 740.957 Q1981.11 738.434 1981.11 734.267 L1981.11 733.318 L1976.88 733.318 M1985.37 731.559 L1985.37 746.35 L1981.11 746.35 L1981.11 742.415 Q1979.65 744.776 1977.48 745.911 Q1975.3 747.022 1972.15 747.022 Q1968.17 747.022 1965.81 744.799 Q1963.47 742.554 1963.47 738.804 Q1963.47 734.429 1966.39 732.207 Q1969.33 729.985 1975.14 729.985 L1981.11 729.985 L1981.11 729.568 Q1981.11 726.628 1979.17 725.031 Q1977.25 723.411 1973.75 723.411 Q1971.53 723.411 1969.42 723.943 Q1967.32 724.475 1965.37 725.54 L1965.37 721.605 Q1967.71 720.702 1969.91 720.263 Q1972.11 719.8 1974.19 719.8 Q1979.82 719.8 1982.59 722.716 Q1985.37 725.633 1985.37 731.559 Z" fill="#000000" fill-rule="evenodd" fill-opacity="1" /><path clip-path="url(#clip160)" d="M1998.36 713.064 L1998.36 720.425 L2007.13 720.425 L2007.13 723.735 L1998.36 723.735 L1998.36 737.809 Q1998.36 740.98 1999.21 741.883 Q2000.09 742.786 2002.76 742.786 L2007.13 742.786 L2007.13 746.35 L2002.76 746.35 Q1997.83 746.35 1995.95 744.522 Q1994.08 742.67 1994.08 737.809 L1994.08 723.735 L1990.95 723.735 L1990.95 720.425 L1994.08 720.425 L1994.08 713.064 L1998.36 713.064 Z" fill="#000000" fill-rule="evenodd" fill-opacity="1" /><path clip-path="url(#clip160)" d="M2012.73 710.332 L2016.99 710.332 L2016.99 746.35 L2012.73 746.35 L2012.73 710.332 Z" fill="#000000" fill-rule="evenodd" fill-opacity="1" /><path clip-path="url(#clip160)" d="M2037.69 733.318 Q2032.52 733.318 2030.53 734.499 Q2028.54 735.679 2028.54 738.526 Q2028.54 740.795 2030.02 742.137 Q2031.53 743.457 2034.1 743.457 Q2037.64 743.457 2039.77 740.957 Q2041.92 738.434 2041.92 734.267 L2041.92 733.318 L2037.69 733.318 M2046.18 731.559 L2046.18 746.35 L2041.92 746.35 L2041.92 742.415 Q2040.46 744.776 2038.29 745.911 Q2036.11 747.022 2032.96 747.022 Q2028.98 747.022 2026.62 744.799 Q2024.28 742.554 2024.28 738.804 Q2024.28 734.429 2027.2 732.207 Q2030.14 729.985 2035.95 729.985 L2041.92 729.985 L2041.92 729.568 Q2041.92 726.628 2039.98 725.031 Q2038.06 723.411 2034.56 723.411 Q2032.34 723.411 2030.23 723.943 Q2028.13 724.475 2026.18 725.54 L2026.18 721.605 Q2028.52 720.702 2030.72 720.263 Q2032.92 719.8 2035 719.8 Q2040.63 719.8 2043.4 722.716 Q2046.18 725.633 2046.18 731.559 Z" fill="#000000" fill-rule="evenodd" fill-opacity="1" /><path clip-path="url(#clip160)" d="M2073.57 733.411 Q2073.57 728.712 2071.62 726.05 Q2069.7 723.364 2066.32 723.364 Q2062.94 723.364 2061 726.05 Q2059.08 728.712 2059.08 733.411 Q2059.08 738.11 2061 740.795 Q2062.94 743.457 2066.32 743.457 Q2069.7 743.457 2071.62 740.795 Q2073.57 738.11 2073.57 733.411 M2059.08 724.36 Q2060.42 722.045 2062.45 720.934 Q2064.52 719.8 2067.36 719.8 Q2072.08 719.8 2075.02 723.55 Q2077.99 727.3 2077.99 733.411 Q2077.99 739.522 2075.02 743.272 Q2072.08 747.022 2067.36 747.022 Q2064.52 747.022 2062.45 745.911 Q2060.42 744.776 2059.08 742.462 L2059.08 746.35 L2054.79 746.35 L2054.79 710.332 L2059.08 710.332 L2059.08 724.36 Z" fill="#000000" fill-rule="evenodd" fill-opacity="1" /><path clip-path="url(#clip160)" d="M2104.98 715.633 L2104.98 728.619 L2110.86 728.619 Q2114.12 728.619 2115.9 726.929 Q2117.69 725.239 2117.69 722.114 Q2117.69 719.013 2115.9 717.323 Q2114.12 715.633 2110.86 715.633 L2104.98 715.633 M2100.3 711.79 L2110.86 711.79 Q2116.67 711.79 2119.63 714.429 Q2122.62 717.045 2122.62 722.114 Q2122.62 727.23 2119.63 729.846 Q2116.67 732.462 2110.86 732.462 L2104.98 732.462 L2104.98 746.35 L2100.3 746.35 L2100.3 711.79 Z" fill="#000000" fill-rule="evenodd" fill-opacity="1" /><path clip-path="url(#clip160)" d="M2128.89 711.79 L2133.57 711.79 L2133.57 746.35 L2128.89 746.35 L2128.89 711.79 Z" fill="#000000" fill-rule="evenodd" fill-opacity="1" /><path clip-path="url(#clip160)" d="M2140.53 731.466 L2153.01 731.466 L2153.01 735.262 L2140.53 735.262 L2140.53 731.466 Z" fill="#000000" fill-rule="evenodd" fill-opacity="1" /><path clip-path="url(#clip160)" d="M2164.65 715.633 L2164.65 728.619 L2170.53 728.619 Q2173.8 728.619 2175.58 726.929 Q2177.36 725.239 2177.36 722.114 Q2177.36 719.013 2175.58 717.323 Q2173.8 715.633 2170.53 715.633 L2164.65 715.633 M2159.98 711.79 L2170.53 711.79 Q2176.34 711.79 2179.31 714.429 Q2182.29 717.045 2182.29 722.114 Q2182.29 727.23 2179.31 729.846 Q2176.34 732.462 2170.53 732.462 L2164.65 732.462 L2164.65 746.35 L2159.98 746.35 L2159.98 711.79 Z" fill="#000000" fill-rule="evenodd" fill-opacity="1" /><path clip-path="url(#clip160)" d="M2214.44 714.452 L2214.44 719.383 Q2212.08 717.184 2209.4 716.096 Q2206.74 715.008 2203.73 715.008 Q2197.8 715.008 2194.65 718.642 Q2191.51 722.253 2191.51 729.105 Q2191.51 735.934 2194.65 739.568 Q2197.8 743.179 2203.73 743.179 Q2206.74 743.179 2209.4 742.091 Q2212.08 741.003 2214.44 738.804 L2214.44 743.688 Q2211.99 745.355 2209.24 746.188 Q2206.51 747.022 2203.45 747.022 Q2195.6 747.022 2191.09 742.23 Q2186.57 737.415 2186.57 729.105 Q2186.57 720.772 2191.09 715.98 Q2195.6 711.165 2203.45 711.165 Q2206.55 711.165 2209.28 711.999 Q2212.04 712.809 2214.44 714.452 Z" fill="#000000" fill-rule="evenodd" fill-opacity="1" /><polyline clip-path="url(#clip160)" style="stroke:#ff0000; stroke-linecap:butt; stroke-linejoin:round; stroke-width:4; stroke-opacity:1; fill:none" points="
  1760.91,780.91 1901.02,780.91 
  "/>
<path clip-path="url(#clip160)" d="M1830.97 755.31 L1805.37 780.91 L1830.97 806.51 L1856.57 780.91 L1830.97 755.31 Z" fill="#ffffff" fill-rule="evenodd" fill-opacity="1" stroke="#000000" stroke-opacity="1" stroke-width="4.096"/>
<path clip-path="url(#clip160)" d="M1924.38 763.63 L1931.34 763.63 L1940.16 787.149 L1949.03 763.63 L1956 763.63 L1956 798.19 L1951.44 798.19 L1951.44 767.843 L1942.52 791.547 L1937.83 791.547 L1928.91 767.843 L1928.91 798.19 L1924.38 798.19 L1924.38 763.63 Z" fill="#000000" fill-rule="evenodd" fill-opacity="1" /><path clip-path="url(#clip160)" d="M1976.88 785.158 Q1971.71 785.158 1969.72 786.339 Q1967.73 787.519 1967.73 790.366 Q1967.73 792.635 1969.21 793.977 Q1970.72 795.297 1973.29 795.297 Q1976.83 795.297 1978.96 792.797 Q1981.11 790.274 1981.11 786.107 L1981.11 785.158 L1976.88 785.158 M1985.37 783.399 L1985.37 798.19 L1981.11 798.19 L1981.11 794.255 Q1979.65 796.616 1977.48 797.751 Q1975.3 798.862 1972.15 798.862 Q1968.17 798.862 1965.81 796.639 Q1963.47 794.394 1963.47 790.644 Q1963.47 786.269 1966.39 784.047 Q1969.33 781.825 1975.14 781.825 L1981.11 781.825 L1981.11 781.408 Q1981.11 778.468 1979.17 776.871 Q1977.25 775.251 1973.75 775.251 Q1971.53 775.251 1969.42 775.783 Q1967.32 776.315 1965.37 777.38 L1965.37 773.445 Q1967.71 772.542 1969.91 772.103 Q1972.11 771.64 1974.19 771.64 Q1979.82 771.64 1982.59 774.556 Q1985.37 777.473 1985.37 783.399 Z" fill="#000000" fill-rule="evenodd" fill-opacity="1" /><path clip-path="url(#clip160)" d="M1998.36 764.904 L1998.36 772.265 L2007.13 772.265 L2007.13 775.575 L1998.36 775.575 L1998.36 789.649 Q1998.36 792.82 1999.21 793.723 Q2000.09 794.626 2002.76 794.626 L2007.13 794.626 L2007.13 798.19 L2002.76 798.19 Q1997.83 798.19 1995.95 796.362 Q1994.08 794.51 1994.08 789.649 L1994.08 775.575 L1990.95 775.575 L1990.95 772.265 L1994.08 772.265 L1994.08 764.904 L1998.36 764.904 Z" fill="#000000" fill-rule="evenodd" fill-opacity="1" /><path clip-path="url(#clip160)" d="M2012.73 762.172 L2016.99 762.172 L2016.99 798.19 L2012.73 798.19 L2012.73 762.172 Z" fill="#000000" fill-rule="evenodd" fill-opacity="1" /><path clip-path="url(#clip160)" d="M2037.69 785.158 Q2032.52 785.158 2030.53 786.339 Q2028.54 787.519 2028.54 790.366 Q2028.54 792.635 2030.02 793.977 Q2031.53 795.297 2034.1 795.297 Q2037.64 795.297 2039.77 792.797 Q2041.92 790.274 2041.92 786.107 L2041.92 785.158 L2037.69 785.158 M2046.18 783.399 L2046.18 798.19 L2041.92 798.19 L2041.92 794.255 Q2040.46 796.616 2038.29 797.751 Q2036.11 798.862 2032.96 798.862 Q2028.98 798.862 2026.62 796.639 Q2024.28 794.394 2024.28 790.644 Q2024.28 786.269 2027.2 784.047 Q2030.14 781.825 2035.95 781.825 L2041.92 781.825 L2041.92 781.408 Q2041.92 778.468 2039.98 776.871 Q2038.06 775.251 2034.56 775.251 Q2032.34 775.251 2030.23 775.783 Q2028.13 776.315 2026.18 777.38 L2026.18 773.445 Q2028.52 772.542 2030.72 772.103 Q2032.92 771.64 2035 771.64 Q2040.63 771.64 2043.4 774.556 Q2046.18 777.473 2046.18 783.399 Z" fill="#000000" fill-rule="evenodd" fill-opacity="1" /><path clip-path="url(#clip160)" d="M2073.57 785.251 Q2073.57 780.552 2071.62 777.89 Q2069.7 775.204 2066.32 775.204 Q2062.94 775.204 2061 777.89 Q2059.08 780.552 2059.08 785.251 Q2059.08 789.95 2061 792.635 Q2062.94 795.297 2066.32 795.297 Q2069.7 795.297 2071.62 792.635 Q2073.57 789.95 2073.57 785.251 M2059.08 776.2 Q2060.42 773.885 2062.45 772.774 Q2064.52 771.64 2067.36 771.64 Q2072.08 771.64 2075.02 775.39 Q2077.99 779.14 2077.99 785.251 Q2077.99 791.362 2075.02 795.112 Q2072.08 798.862 2067.36 798.862 Q2064.52 798.862 2062.45 797.751 Q2060.42 796.616 2059.08 794.302 L2059.08 798.19 L2054.79 798.19 L2054.79 762.172 L2059.08 762.172 L2059.08 776.2 Z" fill="#000000" fill-rule="evenodd" fill-opacity="1" /><path clip-path="url(#clip160)" d="M2104.98 767.473 L2104.98 780.459 L2110.86 780.459 Q2114.12 780.459 2115.9 778.769 Q2117.69 777.079 2117.69 773.954 Q2117.69 770.853 2115.9 769.163 Q2114.12 767.473 2110.86 767.473 L2104.98 767.473 M2100.3 763.63 L2110.86 763.63 Q2116.67 763.63 2119.63 766.269 Q2122.62 768.885 2122.62 773.954 Q2122.62 779.07 2119.63 781.686 Q2116.67 784.302 2110.86 784.302 L2104.98 784.302 L2104.98 798.19 L2100.3 798.19 L2100.3 763.63 Z" fill="#000000" fill-rule="evenodd" fill-opacity="1" /><path clip-path="url(#clip160)" d="M2128.89 763.63 L2133.57 763.63 L2133.57 798.19 L2128.89 798.19 L2128.89 763.63 Z" fill="#000000" fill-rule="evenodd" fill-opacity="1" /><path clip-path="url(#clip160)" d="M2140.53 783.306 L2153.01 783.306 L2153.01 787.102 L2140.53 787.102 L2140.53 783.306 Z" fill="#000000" fill-rule="evenodd" fill-opacity="1" /><path clip-path="url(#clip160)" d="M2159.98 763.63 L2164.65 763.63 L2164.65 798.19 L2159.98 798.19 L2159.98 763.63 Z" fill="#000000" fill-rule="evenodd" fill-opacity="1" /><path clip-path="url(#clip160)" d="M2173.96 763.63 L2180.93 763.63 L2189.75 787.149 L2198.61 763.63 L2205.58 763.63 L2205.58 798.19 L2201.02 798.19 L2201.02 767.843 L2192.11 791.547 L2187.41 791.547 L2178.5 767.843 L2178.5 798.19 L2173.96 798.19 L2173.96 763.63 Z" fill="#000000" fill-rule="evenodd" fill-opacity="1" /><path clip-path="url(#clip160)" d="M2216.09 794.255 L2223.73 794.255 L2223.73 767.89 L2215.42 769.556 L2215.42 765.297 L2223.68 763.63 L2228.36 763.63 L2228.36 794.255 L2236 794.255 L2236 798.19 L2216.09 798.19 L2216.09 794.255 Z" fill="#000000" fill-rule="evenodd" fill-opacity="1" /><polyline clip-path="url(#clip160)" style="stroke:#ff0000; stroke-linecap:butt; stroke-linejoin:round; stroke-width:4; stroke-opacity:1; fill:none" points="
  1760.91,832.75 1901.02,832.75 
  "/>
<path clip-path="url(#clip160)" d="M1805.37 807.15 L1805.37 858.35 L1856.57 858.35 L1856.57 807.15 L1805.37 807.15 Z" fill="#ffffff" fill-rule="evenodd" fill-opacity="1" stroke="#000000" stroke-opacity="1" stroke-width="4.096"/>
<path clip-path="url(#clip160)" d="M1924.38 815.47 L1931.34 815.47 L1940.16 838.989 L1949.03 815.47 L1956 815.47 L1956 850.03 L1951.44 850.03 L1951.44 819.683 L1942.52 843.387 L1937.83 843.387 L1928.91 819.683 L1928.91 850.03 L1924.38 850.03 L1924.38 815.47 Z" fill="#000000" fill-rule="evenodd" fill-opacity="1" /><path clip-path="url(#clip160)" d="M1976.88 836.998 Q1971.71 836.998 1969.72 838.179 Q1967.73 839.359 1967.73 842.206 Q1967.73 844.475 1969.21 845.817 Q1970.72 847.137 1973.29 847.137 Q1976.83 847.137 1978.96 844.637 Q1981.11 842.114 1981.11 837.947 L1981.11 836.998 L1976.88 836.998 M1985.37 835.239 L1985.37 850.03 L1981.11 850.03 L1981.11 846.095 Q1979.65 848.456 1977.48 849.591 Q1975.3 850.702 1972.15 850.702 Q1968.17 850.702 1965.81 848.479 Q1963.47 846.234 1963.47 842.484 Q1963.47 838.109 1966.39 835.887 Q1969.33 833.665 1975.14 833.665 L1981.11 833.665 L1981.11 833.248 Q1981.11 830.308 1979.17 828.711 Q1977.25 827.091 1973.75 827.091 Q1971.53 827.091 1969.42 827.623 Q1967.32 828.155 1965.37 829.22 L1965.37 825.285 Q1967.71 824.382 1969.91 823.943 Q1972.11 823.48 1974.19 823.48 Q1979.82 823.48 1982.59 826.396 Q1985.37 829.313 1985.37 835.239 Z" fill="#000000" fill-rule="evenodd" fill-opacity="1" /><path clip-path="url(#clip160)" d="M1998.36 816.744 L1998.36 824.105 L2007.13 824.105 L2007.13 827.415 L1998.36 827.415 L1998.36 841.489 Q1998.36 844.66 1999.21 845.563 Q2000.09 846.466 2002.76 846.466 L2007.13 846.466 L2007.13 850.03 L2002.76 850.03 Q1997.83 850.03 1995.95 848.202 Q1994.08 846.35 1994.08 841.489 L1994.08 827.415 L1990.95 827.415 L1990.95 824.105 L1994.08 824.105 L1994.08 816.744 L1998.36 816.744 Z" fill="#000000" fill-rule="evenodd" fill-opacity="1" /><path clip-path="url(#clip160)" d="M2012.73 814.012 L2016.99 814.012 L2016.99 850.03 L2012.73 850.03 L2012.73 814.012 Z" fill="#000000" fill-rule="evenodd" fill-opacity="1" /><path clip-path="url(#clip160)" d="M2037.69 836.998 Q2032.52 836.998 2030.53 838.179 Q2028.54 839.359 2028.54 842.206 Q2028.54 844.475 2030.02 845.817 Q2031.53 847.137 2034.1 847.137 Q2037.64 847.137 2039.77 844.637 Q2041.92 842.114 2041.92 837.947 L2041.92 836.998 L2037.69 836.998 M2046.18 835.239 L2046.18 850.03 L2041.92 850.03 L2041.92 846.095 Q2040.46 848.456 2038.29 849.591 Q2036.11 850.702 2032.96 850.702 Q2028.98 850.702 2026.62 848.479 Q2024.28 846.234 2024.28 842.484 Q2024.28 838.109 2027.2 835.887 Q2030.14 833.665 2035.95 833.665 L2041.92 833.665 L2041.92 833.248 Q2041.92 830.308 2039.98 828.711 Q2038.06 827.091 2034.56 827.091 Q2032.34 827.091 2030.23 827.623 Q2028.13 828.155 2026.18 829.22 L2026.18 825.285 Q2028.52 824.382 2030.72 823.943 Q2032.92 823.48 2035 823.48 Q2040.63 823.48 2043.4 826.396 Q2046.18 829.313 2046.18 835.239 Z" fill="#000000" fill-rule="evenodd" fill-opacity="1" /><path clip-path="url(#clip160)" d="M2073.57 837.091 Q2073.57 832.392 2071.62 829.73 Q2069.7 827.044 2066.32 827.044 Q2062.94 827.044 2061 829.73 Q2059.08 832.392 2059.08 837.091 Q2059.08 841.79 2061 844.475 Q2062.94 847.137 2066.32 847.137 Q2069.7 847.137 2071.62 844.475 Q2073.57 841.79 2073.57 837.091 M2059.08 828.04 Q2060.42 825.725 2062.45 824.614 Q2064.52 823.48 2067.36 823.48 Q2072.08 823.48 2075.02 827.23 Q2077.99 830.98 2077.99 837.091 Q2077.99 843.202 2075.02 846.952 Q2072.08 850.702 2067.36 850.702 Q2064.52 850.702 2062.45 849.591 Q2060.42 848.456 2059.08 846.142 L2059.08 850.03 L2054.79 850.03 L2054.79 814.012 L2059.08 814.012 L2059.08 828.04 Z" fill="#000000" fill-rule="evenodd" fill-opacity="1" /><path clip-path="url(#clip160)" d="M2104.98 819.313 L2104.98 832.299 L2110.86 832.299 Q2114.12 832.299 2115.9 830.609 Q2117.69 828.919 2117.69 825.794 Q2117.69 822.693 2115.9 821.003 Q2114.12 819.313 2110.86 819.313 L2104.98 819.313 M2100.3 815.47 L2110.86 815.47 Q2116.67 815.47 2119.63 818.109 Q2122.62 820.725 2122.62 825.794 Q2122.62 830.91 2119.63 833.526 Q2116.67 836.142 2110.86 836.142 L2104.98 836.142 L2104.98 850.03 L2100.3 850.03 L2100.3 815.47 Z" fill="#000000" fill-rule="evenodd" fill-opacity="1" /><path clip-path="url(#clip160)" d="M2128.89 815.47 L2133.57 815.47 L2133.57 850.03 L2128.89 850.03 L2128.89 815.47 Z" fill="#000000" fill-rule="evenodd" fill-opacity="1" /><path clip-path="url(#clip160)" d="M2140.53 835.146 L2153.01 835.146 L2153.01 838.942 L2140.53 838.942 L2140.53 835.146 Z" fill="#000000" fill-rule="evenodd" fill-opacity="1" /><path clip-path="url(#clip160)" d="M2159.98 815.47 L2164.65 815.47 L2164.65 850.03 L2159.98 850.03 L2159.98 815.47 Z" fill="#000000" fill-rule="evenodd" fill-opacity="1" /><path clip-path="url(#clip160)" d="M2173.96 815.47 L2180.93 815.47 L2189.75 838.989 L2198.61 815.47 L2205.58 815.47 L2205.58 850.03 L2201.02 850.03 L2201.02 819.683 L2192.11 843.387 L2187.41 843.387 L2178.5 819.683 L2178.5 850.03 L2173.96 850.03 L2173.96 815.47 Z" fill="#000000" fill-rule="evenodd" fill-opacity="1" /><path clip-path="url(#clip160)" d="M2219.31 846.095 L2235.63 846.095 L2235.63 850.03 L2213.68 850.03 L2213.68 846.095 Q2216.34 843.341 2220.93 838.711 Q2225.53 834.058 2226.71 832.716 Q2228.96 830.193 2229.84 828.456 Q2230.74 826.697 2230.74 825.007 Q2230.74 822.253 2228.8 820.517 Q2226.88 818.781 2223.77 818.781 Q2221.57 818.781 2219.12 819.544 Q2216.69 820.308 2213.91 821.859 L2213.91 817.137 Q2216.74 816.003 2219.19 815.424 Q2221.64 814.845 2223.68 814.845 Q2229.05 814.845 2232.25 817.531 Q2235.44 820.216 2235.44 824.706 Q2235.44 826.836 2234.63 828.757 Q2233.84 830.655 2231.74 833.248 Q2231.16 833.919 2228.06 837.137 Q2224.95 840.331 2219.31 846.095 Z" fill="#000000" fill-rule="evenodd" fill-opacity="1" /></svg>
