<?xml version="1.0" encoding="utf-8"?>
<svg xmlns="http://www.w3.org/2000/svg" xmlns:xlink="http://www.w3.org/1999/xlink" width="600" height="400" viewBox="0 0 2400 1600">
<defs>
  <clipPath id="clip260">
    <rect x="0" y="0" width="2400" height="1600"/>
  </clipPath>
</defs>
<path clip-path="url(#clip260)" d="
M0 1600 L2400 1600 L2400 0 L0 0  Z
  " fill="#ffffff" fill-rule="evenodd" fill-opacity="1"/>
<defs>
  <clipPath id="clip261">
    <rect x="480" y="0" width="1681" height="1600"/>
  </clipPath>
</defs>
<path clip-path="url(#clip260)" d="
M221.637 1410.9 L2352.76 1410.9 L2352.76 47.2441 L221.637 47.2441  Z
  " fill="#ffffff" fill-rule="evenodd" fill-opacity="1"/>
<defs>
  <clipPath id="clip262">
    <rect x="221" y="47" width="2132" height="1365"/>
  </clipPath>
</defs>
<polyline clip-path="url(#clip262)" style="stroke:#000000; stroke-linecap:butt; stroke-linejoin:round; stroke-width:2; stroke-opacity:0.1; fill:none" points="
  620.619,1410.9 620.619,47.2441 
  "/>
<polyline clip-path="url(#clip262)" style="stroke:#000000; stroke-linecap:butt; stroke-linejoin:round; stroke-width:2; stroke-opacity:0.1; fill:none" points="
  1216.4,1410.9 1216.4,47.2441 
  "/>
<polyline clip-path="url(#clip262)" style="stroke:#000000; stroke-linecap:butt; stroke-linejoin:round; stroke-width:2; stroke-opacity:0.1; fill:none" points="
  1812.19,1410.9 1812.19,47.2441 
  "/>
<polyline clip-path="url(#clip260)" style="stroke:#000000; stroke-linecap:butt; stroke-linejoin:round; stroke-width:4; stroke-opacity:1; fill:none" points="
  221.637,1410.9 2352.76,1410.9 
  "/>
<polyline clip-path="url(#clip260)" style="stroke:#000000; stroke-linecap:butt; stroke-linejoin:round; stroke-width:4; stroke-opacity:1; fill:none" points="
  221.637,47.2441 2352.76,47.2441 
  "/>
<polyline clip-path="url(#clip260)" style="stroke:#000000; stroke-linecap:butt; stroke-linejoin:round; stroke-width:4; stroke-opacity:1; fill:none" points="
  620.619,1410.9 620.619,1392 
  "/>
<polyline clip-path="url(#clip260)" style="stroke:#000000; stroke-linecap:butt; stroke-linejoin:round; stroke-width:4; stroke-opacity:1; fill:none" points="
  1216.4,1410.9 1216.4,1392 
  "/>
<polyline clip-path="url(#clip260)" style="stroke:#000000; stroke-linecap:butt; stroke-linejoin:round; stroke-width:4; stroke-opacity:1; fill:none" points="
  1812.19,1410.9 1812.19,1392 
  "/>
<path clip-path="url(#clip260)" d="M552.265 1485.02 L559.904 1485.02 L559.904 1458.66 L551.594 1460.32 L551.594 1456.06 L559.858 1454.4 L564.534 1454.4 L564.534 1485.02 L572.172 1485.02 L572.172 1488.96 L552.265 1488.96 L552.265 1485.02 Z" fill="#000000" fill-rule="evenodd" fill-opacity="1" /><path clip-path="url(#clip260)" d="M591.617 1457.48 Q588.006 1457.48 586.177 1461.04 Q584.371 1464.58 584.371 1471.71 Q584.371 1478.82 586.177 1482.38 Q588.006 1485.92 591.617 1485.92 Q595.251 1485.92 597.057 1482.38 Q598.885 1478.82 598.885 1471.71 Q598.885 1464.58 597.057 1461.04 Q595.251 1457.48 591.617 1457.48 M591.617 1453.77 Q597.427 1453.77 600.482 1458.38 Q603.561 1462.96 603.561 1471.71 Q603.561 1480.44 600.482 1485.04 Q597.427 1489.63 591.617 1489.63 Q585.807 1489.63 582.728 1485.04 Q579.672 1480.44 579.672 1471.71 Q579.672 1462.96 582.728 1458.38 Q585.807 1453.77 591.617 1453.77 Z" fill="#000000" fill-rule="evenodd" fill-opacity="1" /><path clip-path="url(#clip260)" d="M603.561 1447.87 L627.673 1447.87 L627.673 1451.07 L603.561 1451.07 L603.561 1447.87 Z" fill="#000000" fill-rule="evenodd" fill-opacity="1" /><path clip-path="url(#clip260)" d="M636.531 1458.35 L642.738 1458.35 L642.738 1436.93 L635.986 1438.28 L635.986 1434.82 L642.7 1433.47 L646.499 1433.47 L646.499 1458.35 L652.706 1458.35 L652.706 1461.55 L636.531 1461.55 L636.531 1458.35 Z" fill="#000000" fill-rule="evenodd" fill-opacity="1" /><path clip-path="url(#clip260)" d="M660.379 1456.77 L664.348 1456.77 L664.348 1461.55 L660.379 1461.55 L660.379 1456.77 Z" fill="#000000" fill-rule="evenodd" fill-opacity="1" /><path clip-path="url(#clip260)" d="M672.661 1433.47 L687.575 1433.47 L687.575 1436.66 L676.14 1436.66 L676.14 1443.55 Q676.968 1443.27 677.795 1443.13 Q678.623 1442.98 679.45 1442.98 Q684.152 1442.98 686.898 1445.56 Q689.644 1448.14 689.644 1452.54 Q689.644 1457.07 686.823 1459.59 Q684.002 1462.09 678.867 1462.09 Q677.099 1462.09 675.256 1461.79 Q673.432 1461.49 671.476 1460.89 L671.476 1457.07 Q673.169 1457.99 674.974 1458.44 Q676.78 1458.89 678.792 1458.89 Q682.046 1458.89 683.946 1457.18 Q685.845 1455.47 685.845 1452.54 Q685.845 1449.6 683.946 1447.89 Q682.046 1446.18 678.792 1446.18 Q677.269 1446.18 675.745 1446.52 Q674.241 1446.86 672.661 1447.57 L672.661 1433.47 Z" fill="#000000" fill-rule="evenodd" fill-opacity="1" /><path clip-path="url(#clip260)" d="M1147.65 1485.02 L1155.28 1485.02 L1155.28 1458.66 L1146.97 1460.32 L1146.97 1456.06 L1155.24 1454.4 L1159.91 1454.4 L1159.91 1485.02 L1167.55 1485.02 L1167.55 1488.96 L1147.65 1488.96 L1147.65 1485.02 Z" fill="#000000" fill-rule="evenodd" fill-opacity="1" /><path clip-path="url(#clip260)" d="M1187 1457.48 Q1183.39 1457.48 1181.56 1461.04 Q1179.75 1464.58 1179.75 1471.71 Q1179.75 1478.82 1181.56 1482.38 Q1183.39 1485.92 1187 1485.92 Q1190.63 1485.92 1192.44 1482.38 Q1194.27 1478.82 1194.27 1471.71 Q1194.27 1464.58 1192.44 1461.04 Q1190.63 1457.48 1187 1457.48 M1187 1453.77 Q1192.81 1453.77 1195.86 1458.38 Q1198.94 1462.96 1198.94 1471.71 Q1198.94 1480.44 1195.86 1485.04 Q1192.81 1489.63 1187 1489.63 Q1181.19 1489.63 1178.11 1485.04 Q1175.05 1480.44 1175.05 1471.71 Q1175.05 1462.96 1178.11 1458.38 Q1181.19 1453.77 1187 1453.77 Z" fill="#000000" fill-rule="evenodd" fill-opacity="1" /><path clip-path="url(#clip260)" d="M1198.94 1447.87 L1223.05 1447.87 L1223.05 1451.07 L1198.94 1451.07 L1198.94 1447.87 Z" fill="#000000" fill-rule="evenodd" fill-opacity="1" /><path clip-path="url(#clip260)" d="M1231.91 1458.35 L1238.12 1458.35 L1238.12 1436.93 L1231.37 1438.28 L1231.37 1434.82 L1238.08 1433.47 L1241.88 1433.47 L1241.88 1458.35 L1248.09 1458.35 L1248.09 1461.55 L1231.91 1461.55 L1231.91 1458.35 Z" fill="#000000" fill-rule="evenodd" fill-opacity="1" /><path clip-path="url(#clip260)" d="M1255.76 1456.77 L1259.73 1456.77 L1259.73 1461.55 L1255.76 1461.55 L1255.76 1456.77 Z" fill="#000000" fill-rule="evenodd" fill-opacity="1" /><path clip-path="url(#clip260)" d="M1276.13 1435.97 Q1273.19 1435.97 1271.71 1438.86 Q1270.24 1441.74 1270.24 1447.53 Q1270.24 1453.31 1271.71 1456.2 Q1273.19 1459.08 1276.13 1459.08 Q1279.08 1459.08 1280.55 1456.2 Q1282.03 1453.31 1282.03 1447.53 Q1282.03 1441.74 1280.55 1438.86 Q1279.08 1435.97 1276.13 1435.97 M1276.13 1432.96 Q1280.85 1432.96 1283.33 1436.7 Q1285.83 1440.43 1285.83 1447.53 Q1285.83 1454.62 1283.33 1458.37 Q1280.85 1462.09 1276.13 1462.09 Q1271.41 1462.09 1268.91 1458.37 Q1266.42 1454.62 1266.42 1447.53 Q1266.42 1440.43 1268.91 1436.7 Q1271.41 1432.96 1276.13 1432.96 Z" fill="#000000" fill-rule="evenodd" fill-opacity="1" /><path clip-path="url(#clip260)" d="M1743.84 1485.02 L1751.47 1485.02 L1751.47 1458.66 L1743.16 1460.32 L1743.16 1456.06 L1751.43 1454.4 L1756.1 1454.4 L1756.1 1485.02 L1763.74 1485.02 L1763.74 1488.96 L1743.84 1488.96 L1743.84 1485.02 Z" fill="#000000" fill-rule="evenodd" fill-opacity="1" /><path clip-path="url(#clip260)" d="M1783.19 1457.48 Q1779.58 1457.48 1777.75 1461.04 Q1775.94 1464.58 1775.94 1471.71 Q1775.94 1478.82 1777.75 1482.38 Q1779.58 1485.92 1783.19 1485.92 Q1786.82 1485.92 1788.63 1482.38 Q1790.46 1478.82 1790.46 1471.71 Q1790.46 1464.58 1788.63 1461.04 Q1786.82 1457.48 1783.19 1457.48 M1783.19 1453.77 Q1789 1453.77 1792.05 1458.38 Q1795.13 1462.96 1795.13 1471.71 Q1795.13 1480.44 1792.05 1485.04 Q1789 1489.63 1783.19 1489.63 Q1777.38 1489.63 1774.3 1485.04 Q1771.24 1480.44 1771.24 1471.71 Q1771.24 1462.96 1774.3 1458.38 Q1777.38 1453.77 1783.19 1453.77 Z" fill="#000000" fill-rule="evenodd" fill-opacity="1" /><path clip-path="url(#clip260)" d="M1795.13 1447.87 L1819.24 1447.87 L1819.24 1451.07 L1795.13 1451.07 L1795.13 1447.87 Z" fill="#000000" fill-rule="evenodd" fill-opacity="1" /><path clip-path="url(#clip260)" d="M1835.57 1435.97 Q1832.63 1435.97 1831.15 1438.86 Q1829.68 1441.74 1829.68 1447.53 Q1829.68 1453.31 1831.15 1456.2 Q1832.63 1459.08 1835.57 1459.08 Q1838.52 1459.08 1839.99 1456.2 Q1841.47 1453.31 1841.47 1447.53 Q1841.47 1441.74 1839.99 1438.86 Q1838.52 1435.97 1835.57 1435.97 M1835.57 1432.96 Q1840.29 1432.96 1842.77 1436.7 Q1845.27 1440.43 1845.27 1447.53 Q1845.27 1454.62 1842.77 1458.37 Q1840.29 1462.09 1835.57 1462.09 Q1830.85 1462.09 1828.35 1458.37 Q1825.86 1454.62 1825.86 1447.53 Q1825.86 1440.43 1828.35 1436.7 Q1830.85 1432.96 1835.57 1432.96 Z" fill="#000000" fill-rule="evenodd" fill-opacity="1" /><path clip-path="url(#clip260)" d="M1851.95 1456.77 L1855.92 1456.77 L1855.92 1461.55 L1851.95 1461.55 L1851.95 1456.77 Z" fill="#000000" fill-rule="evenodd" fill-opacity="1" /><path clip-path="url(#clip260)" d="M1864.23 1433.47 L1879.15 1433.47 L1879.15 1436.66 L1867.71 1436.66 L1867.71 1443.55 Q1868.54 1443.27 1869.37 1443.13 Q1870.19 1442.98 1871.02 1442.98 Q1875.72 1442.98 1878.47 1445.56 Q1881.21 1448.14 1881.21 1452.54 Q1881.21 1457.07 1878.39 1459.59 Q1875.57 1462.09 1870.44 1462.09 Q1868.67 1462.09 1866.83 1461.79 Q1865 1461.49 1863.05 1460.89 L1863.05 1457.07 Q1864.74 1457.99 1866.54 1458.44 Q1868.35 1458.89 1870.36 1458.89 Q1873.62 1458.89 1875.52 1457.18 Q1877.42 1455.47 1877.42 1452.54 Q1877.42 1449.6 1875.52 1447.89 Q1873.62 1446.18 1870.36 1446.18 Q1868.84 1446.18 1867.32 1446.52 Q1865.81 1446.86 1864.23 1447.57 L1864.23 1433.47 Z" fill="#000000" fill-rule="evenodd" fill-opacity="1" /><path clip-path="url(#clip260)" d="M899.636 1526.67 L929.682 1526.67 L929.682 1532.08 L906.066 1532.08 L906.066 1546.14 L928.696 1546.14 L928.696 1551.56 L906.066 1551.56 L906.066 1568.77 L930.255 1568.77 L930.255 1574.19 L899.636 1574.19 L899.636 1526.67 Z" fill="#000000" fill-rule="evenodd" fill-opacity="1" /><path clip-path="url(#clip260)" d="M970.2 1538.54 L957.31 1555.88 L970.869 1574.19 L963.962 1574.19 L953.586 1560.18 L943.21 1574.19 L936.303 1574.19 L950.148 1555.53 L937.48 1538.54 L944.387 1538.54 L953.84 1551.24 L963.293 1538.54 L970.2 1538.54 Z" fill="#000000" fill-rule="evenodd" fill-opacity="1" /><path clip-path="url(#clip260)" d="M1007.63 1554.9 L1007.63 1557.76 L980.704 1557.76 Q981.086 1563.81 984.332 1566.99 Q987.61 1570.14 993.435 1570.14 Q996.809 1570.14 999.96 1569.32 Q1003.14 1568.49 1006.26 1566.83 L1006.26 1572.37 Q1003.11 1573.71 999.801 1574.41 Q996.491 1575.11 993.085 1575.11 Q984.555 1575.11 979.558 1570.14 Q974.593 1565.18 974.593 1556.71 Q974.593 1547.96 979.303 1542.83 Q984.046 1537.68 992.066 1537.68 Q999.26 1537.68 1003.43 1542.33 Q1007.63 1546.94 1007.63 1554.9 M1001.77 1553.18 Q1001.71 1548.37 999.069 1545.51 Q996.459 1542.64 992.13 1542.64 Q987.228 1542.64 984.268 1545.41 Q981.34 1548.18 980.895 1553.21 L1001.77 1553.18 Z" fill="#000000" fill-rule="evenodd" fill-opacity="1" /><path clip-path="url(#clip260)" d="M1042.9 1539.91 L1042.9 1545.38 Q1040.41 1544.01 1037.9 1543.34 Q1035.42 1542.64 1032.87 1542.64 Q1027.17 1542.64 1024.02 1546.27 Q1020.87 1549.87 1020.87 1556.39 Q1020.87 1562.92 1024.02 1566.55 Q1027.17 1570.14 1032.87 1570.14 Q1035.42 1570.14 1037.9 1569.47 Q1040.41 1568.77 1042.9 1567.41 L1042.9 1572.82 Q1040.45 1573.96 1037.8 1574.54 Q1035.19 1575.11 1032.23 1575.11 Q1024.18 1575.11 1019.44 1570.05 Q1014.7 1564.99 1014.7 1556.39 Q1014.7 1547.67 1019.47 1542.68 Q1024.28 1537.68 1032.62 1537.68 Q1035.32 1537.68 1037.9 1538.25 Q1040.48 1538.79 1042.9 1539.91 Z" fill="#000000" fill-rule="evenodd" fill-opacity="1" /><path clip-path="url(#clip260)" d="M1052.48 1560.12 L1052.48 1538.54 L1058.33 1538.54 L1058.33 1559.89 Q1058.33 1564.96 1060.31 1567.5 Q1062.28 1570.02 1066.23 1570.02 Q1070.97 1570.02 1073.71 1566.99 Q1076.48 1563.97 1076.48 1558.75 L1076.48 1538.54 L1082.33 1538.54 L1082.33 1574.19 L1076.48 1574.19 L1076.48 1568.71 Q1074.34 1571.96 1071.51 1573.55 Q1068.71 1575.11 1064.99 1575.11 Q1058.84 1575.11 1055.66 1571.29 Q1052.48 1567.47 1052.48 1560.12 M1067.21 1537.68 L1067.21 1537.68 Z" fill="#000000" fill-rule="evenodd" fill-opacity="1" /><path clip-path="url(#clip260)" d="M1100.19 1528.42 L1100.19 1538.54 L1112.25 1538.54 L1112.25 1543.09 L1100.19 1543.09 L1100.19 1562.44 Q1100.19 1566.8 1101.37 1568.04 Q1102.58 1569.28 1106.24 1569.28 L1112.25 1569.28 L1112.25 1574.19 L1106.24 1574.19 Q1099.46 1574.19 1096.88 1571.67 Q1094.3 1569.12 1094.3 1562.44 L1094.3 1543.09 L1090 1543.09 L1090 1538.54 L1094.3 1538.54 L1094.3 1528.42 L1100.19 1528.42 Z" fill="#000000" fill-rule="evenodd" fill-opacity="1" /><path clip-path="url(#clip260)" d="M1119.95 1538.54 L1125.81 1538.54 L1125.81 1574.19 L1119.95 1574.19 L1119.95 1538.54 M1119.95 1524.66 L1125.81 1524.66 L1125.81 1532.08 L1119.95 1532.08 L1119.95 1524.66 Z" fill="#000000" fill-rule="evenodd" fill-opacity="1" /><path clip-path="url(#clip260)" d="M1151.88 1542.64 Q1147.17 1542.64 1144.43 1546.34 Q1141.69 1550 1141.69 1556.39 Q1141.69 1562.79 1144.4 1566.48 Q1147.14 1570.14 1151.88 1570.14 Q1156.56 1570.14 1159.29 1566.45 Q1162.03 1562.76 1162.03 1556.39 Q1162.03 1550.06 1159.29 1546.37 Q1156.56 1542.64 1151.88 1542.64 M1151.88 1537.68 Q1159.52 1537.68 1163.88 1542.64 Q1168.24 1547.61 1168.24 1556.39 Q1168.24 1565.15 1163.88 1570.14 Q1159.52 1575.11 1151.88 1575.11 Q1144.21 1575.11 1139.85 1570.14 Q1135.52 1565.15 1135.52 1556.39 Q1135.52 1547.61 1139.85 1542.64 Q1144.21 1537.68 1151.88 1537.68 Z" fill="#000000" fill-rule="evenodd" fill-opacity="1" /><path clip-path="url(#clip260)" d="M1207.58 1552.67 L1207.58 1574.19 L1201.72 1574.19 L1201.72 1552.86 Q1201.72 1547.8 1199.75 1545.29 Q1197.77 1542.77 1193.83 1542.77 Q1189.09 1542.77 1186.35 1545.79 Q1183.61 1548.82 1183.61 1554.04 L1183.61 1574.19 L1177.72 1574.19 L1177.72 1538.54 L1183.61 1538.54 L1183.61 1544.08 Q1185.71 1540.86 1188.54 1539.27 Q1191.41 1537.68 1195.13 1537.68 Q1201.28 1537.68 1204.43 1541.5 Q1207.58 1545.29 1207.58 1552.67 Z" fill="#000000" fill-rule="evenodd" fill-opacity="1" /><path clip-path="url(#clip260)" d="M1245.77 1528.42 L1245.77 1538.54 L1257.83 1538.54 L1257.83 1543.09 L1245.77 1543.09 L1245.77 1562.44 Q1245.77 1566.8 1246.95 1568.04 Q1248.16 1569.28 1251.82 1569.28 L1257.83 1569.28 L1257.83 1574.19 L1251.82 1574.19 Q1245.04 1574.19 1242.46 1571.67 Q1239.88 1569.12 1239.88 1562.44 L1239.88 1543.09 L1235.59 1543.09 L1235.59 1538.54 L1239.88 1538.54 L1239.88 1528.42 L1245.77 1528.42 Z" fill="#000000" fill-rule="evenodd" fill-opacity="1" /><path clip-path="url(#clip260)" d="M1265.54 1538.54 L1271.39 1538.54 L1271.39 1574.19 L1265.54 1574.19 L1265.54 1538.54 M1265.54 1524.66 L1271.39 1524.66 L1271.39 1532.08 L1265.54 1532.08 L1265.54 1524.66 Z" fill="#000000" fill-rule="evenodd" fill-opacity="1" /><path clip-path="url(#clip260)" d="M1311.4 1545.38 Q1313.6 1541.43 1316.65 1539.56 Q1319.71 1537.68 1323.85 1537.68 Q1329.42 1537.68 1332.44 1541.59 Q1335.46 1545.48 1335.46 1552.67 L1335.46 1574.19 L1329.58 1574.19 L1329.58 1552.86 Q1329.58 1547.74 1327.76 1545.25 Q1325.95 1542.77 1322.22 1542.77 Q1317.67 1542.77 1315.03 1545.79 Q1312.39 1548.82 1312.39 1554.04 L1312.39 1574.19 L1306.5 1574.19 L1306.5 1552.86 Q1306.5 1547.7 1304.69 1545.25 Q1302.87 1542.77 1299.08 1542.77 Q1294.6 1542.77 1291.95 1545.83 Q1289.31 1548.85 1289.31 1554.04 L1289.31 1574.19 L1283.42 1574.19 L1283.42 1538.54 L1289.31 1538.54 L1289.31 1544.08 Q1291.32 1540.8 1294.12 1539.24 Q1296.92 1537.68 1300.77 1537.68 Q1304.65 1537.68 1307.36 1539.65 Q1310.1 1541.62 1311.4 1545.38 Z" fill="#000000" fill-rule="evenodd" fill-opacity="1" /><path clip-path="url(#clip260)" d="M1377.64 1554.9 L1377.64 1557.76 L1350.71 1557.76 Q1351.09 1563.81 1354.34 1566.99 Q1357.62 1570.14 1363.44 1570.14 Q1366.82 1570.14 1369.97 1569.32 Q1373.15 1568.49 1376.27 1566.83 L1376.27 1572.37 Q1373.12 1573.71 1369.81 1574.41 Q1366.5 1575.11 1363.09 1575.11 Q1354.56 1575.11 1349.56 1570.14 Q1344.6 1565.18 1344.6 1556.71 Q1344.6 1547.96 1349.31 1542.83 Q1354.05 1537.68 1362.07 1537.68 Q1369.27 1537.68 1373.44 1542.33 Q1377.64 1546.94 1377.64 1554.9 M1371.78 1553.18 Q1371.72 1548.37 1369.08 1545.51 Q1366.47 1542.64 1362.14 1542.64 Q1357.24 1542.64 1354.28 1545.41 Q1351.35 1548.18 1350.9 1553.21 L1371.78 1553.18 Z" fill="#000000" fill-rule="evenodd" fill-opacity="1" /><path clip-path="url(#clip260)" d="M1422.04 1524.72 Q1417.77 1532.04 1415.7 1539.21 Q1413.64 1546.37 1413.64 1553.72 Q1413.64 1561.07 1415.7 1568.3 Q1417.8 1575.49 1422.04 1582.78 L1416.95 1582.78 Q1412.17 1575.3 1409.78 1568.07 Q1407.43 1560.85 1407.43 1553.72 Q1407.43 1546.62 1409.78 1539.43 Q1412.14 1532.24 1416.95 1524.72 L1422.04 1524.72 Z" fill="#000000" fill-rule="evenodd" fill-opacity="1" /><path clip-path="url(#clip260)" d="M1456.13 1539.59 L1456.13 1545.13 Q1453.64 1543.85 1450.97 1543.22 Q1448.3 1542.58 1445.43 1542.58 Q1441.07 1542.58 1438.88 1543.92 Q1436.71 1545.25 1436.71 1547.93 Q1436.71 1549.96 1438.27 1551.14 Q1439.83 1552.29 1444.54 1553.34 L1446.55 1553.78 Q1452.78 1555.12 1455.39 1557.57 Q1458.04 1559.99 1458.04 1564.35 Q1458.04 1569.32 1454.09 1572.21 Q1450.17 1575.11 1443.3 1575.11 Q1440.43 1575.11 1437.32 1574.54 Q1434.23 1573.99 1430.79 1572.88 L1430.79 1566.83 Q1434.04 1568.52 1437.19 1569.38 Q1440.34 1570.21 1443.43 1570.21 Q1447.56 1570.21 1449.79 1568.81 Q1452.02 1567.37 1452.02 1564.8 Q1452.02 1562.41 1450.4 1561.14 Q1448.81 1559.86 1443.36 1558.68 L1441.33 1558.21 Q1435.88 1557.06 1433.46 1554.71 Q1431.05 1552.32 1431.05 1548.18 Q1431.05 1543.15 1434.61 1540.42 Q1438.18 1537.68 1444.73 1537.68 Q1447.98 1537.68 1450.84 1538.16 Q1453.71 1538.63 1456.13 1539.59 Z" fill="#000000" fill-rule="evenodd" fill-opacity="1" /><path clip-path="url(#clip260)" d="M1493.02 1539.91 L1493.02 1545.38 Q1490.53 1544.01 1488.02 1543.34 Q1485.54 1542.64 1482.99 1542.64 Q1477.29 1542.64 1474.14 1546.27 Q1470.99 1549.87 1470.99 1556.39 Q1470.99 1562.92 1474.14 1566.55 Q1477.29 1570.14 1482.99 1570.14 Q1485.54 1570.14 1488.02 1569.47 Q1490.53 1568.77 1493.02 1567.41 L1493.02 1572.82 Q1490.56 1573.96 1487.92 1574.54 Q1485.31 1575.11 1482.35 1575.11 Q1474.3 1575.11 1469.56 1570.05 Q1464.82 1564.99 1464.82 1556.39 Q1464.82 1547.67 1469.59 1542.68 Q1474.4 1537.68 1482.74 1537.68 Q1485.44 1537.68 1488.02 1538.25 Q1490.6 1538.79 1493.02 1539.91 Z" fill="#000000" fill-rule="evenodd" fill-opacity="1" /><path clip-path="url(#clip260)" d="M1504.7 1566.1 L1511.41 1566.1 L1511.41 1571.58 L1506.19 1581.76 L1502.09 1581.76 L1504.7 1571.58 L1504.7 1566.1 Z" fill="#000000" fill-rule="evenodd" fill-opacity="1" /><path clip-path="url(#clip260)" d="M1544.9 1526.67 L1551.33 1526.67 L1551.33 1568.77 L1574.46 1568.77 L1574.46 1574.19 L1544.9 1574.19 L1544.9 1526.67 Z" fill="#000000" fill-rule="evenodd" fill-opacity="1" /><path clip-path="url(#clip260)" d="M1593.63 1542.64 Q1588.92 1542.64 1586.18 1546.34 Q1583.44 1550 1583.44 1556.39 Q1583.44 1562.79 1586.15 1566.48 Q1588.88 1570.14 1593.63 1570.14 Q1598.3 1570.14 1601.04 1566.45 Q1603.78 1562.76 1603.78 1556.39 Q1603.78 1550.06 1601.04 1546.37 Q1598.3 1542.64 1593.63 1542.64 M1593.63 1537.68 Q1601.26 1537.68 1605.63 1542.64 Q1609.99 1547.61 1609.99 1556.39 Q1609.99 1565.15 1605.63 1570.14 Q1601.26 1575.11 1593.63 1575.11 Q1585.96 1575.11 1581.59 1570.14 Q1577.27 1565.15 1577.27 1556.39 Q1577.27 1547.61 1581.59 1542.64 Q1585.96 1537.68 1593.63 1537.68 Z" fill="#000000" fill-rule="evenodd" fill-opacity="1" /><path clip-path="url(#clip260)" d="M1643.15 1555.95 Q1643.15 1549.58 1640.51 1546.08 Q1637.9 1542.58 1633.16 1542.58 Q1628.45 1542.58 1625.8 1546.08 Q1623.19 1549.58 1623.19 1555.95 Q1623.19 1562.28 1625.8 1565.78 Q1628.45 1569.28 1633.16 1569.28 Q1637.9 1569.28 1640.51 1565.78 Q1643.15 1562.28 1643.15 1555.95 M1649.01 1569.76 Q1649.01 1578.86 1644.97 1583.29 Q1640.92 1587.74 1632.58 1587.74 Q1629.5 1587.74 1626.76 1587.27 Q1624.02 1586.82 1621.44 1585.87 L1621.44 1580.17 Q1624.02 1581.57 1626.54 1582.24 Q1629.05 1582.91 1631.66 1582.91 Q1637.42 1582.91 1640.29 1579.88 Q1643.15 1576.89 1643.15 1570.81 L1643.15 1567.92 Q1641.34 1571.07 1638.5 1572.63 Q1635.67 1574.19 1631.72 1574.19 Q1625.17 1574.19 1621.16 1569.19 Q1617.15 1564.19 1617.15 1555.95 Q1617.15 1547.67 1621.16 1542.68 Q1625.17 1537.68 1631.72 1537.68 Q1635.67 1537.68 1638.5 1539.24 Q1641.34 1540.8 1643.15 1543.95 L1643.15 1538.54 L1649.01 1538.54 L1649.01 1569.76 Z" fill="#000000" fill-rule="evenodd" fill-opacity="1" /><path clip-path="url(#clip260)" d="M1660.15 1524.72 L1665.24 1524.72 Q1670.01 1532.24 1672.37 1539.43 Q1674.76 1546.62 1674.76 1553.72 Q1674.76 1560.85 1672.37 1568.07 Q1670.01 1575.3 1665.24 1582.78 L1660.15 1582.78 Q1664.38 1575.49 1666.45 1568.3 Q1668.55 1561.07 1668.55 1553.72 Q1668.55 1546.37 1666.45 1539.21 Q1664.38 1532.04 1660.15 1524.72 Z" fill="#000000" fill-rule="evenodd" fill-opacity="1" /><polyline clip-path="url(#clip262)" style="stroke:#000000; stroke-linecap:butt; stroke-linejoin:round; stroke-width:2; stroke-opacity:0.1; fill:none" points="
  221.637,1229.97 2352.76,1229.97 
  "/>
<polyline clip-path="url(#clip262)" style="stroke:#000000; stroke-linecap:butt; stroke-linejoin:round; stroke-width:2; stroke-opacity:0.1; fill:none" points="
  221.637,722.898 2352.76,722.898 
  "/>
<polyline clip-path="url(#clip262)" style="stroke:#000000; stroke-linecap:butt; stroke-linejoin:round; stroke-width:2; stroke-opacity:0.1; fill:none" points="
  221.637,215.829 2352.76,215.829 
  "/>
<polyline clip-path="url(#clip260)" style="stroke:#000000; stroke-linecap:butt; stroke-linejoin:round; stroke-width:4; stroke-opacity:1; fill:none" points="
  221.637,1410.9 221.637,47.2441 
  "/>
<polyline clip-path="url(#clip260)" style="stroke:#000000; stroke-linecap:butt; stroke-linejoin:round; stroke-width:4; stroke-opacity:1; fill:none" points="
  2352.76,1410.9 2352.76,47.2441 
  "/>
<polyline clip-path="url(#clip260)" style="stroke:#000000; stroke-linecap:butt; stroke-linejoin:round; stroke-width:4; stroke-opacity:1; fill:none" points="
  221.637,1229.97 240.535,1229.97 
  "/>
<polyline clip-path="url(#clip260)" style="stroke:#000000; stroke-linecap:butt; stroke-linejoin:round; stroke-width:4; stroke-opacity:1; fill:none" points="
  221.637,722.898 240.535,722.898 
  "/>
<polyline clip-path="url(#clip260)" style="stroke:#000000; stroke-linecap:butt; stroke-linejoin:round; stroke-width:4; stroke-opacity:1; fill:none" points="
  221.637,215.829 240.535,215.829 
  "/>
<path clip-path="url(#clip260)" d="M114.931 1249.76 L122.57 1249.76 L122.57 1223.39 L114.26 1225.06 L114.26 1220.8 L122.524 1219.13 L127.2 1219.13 L127.2 1249.76 L134.839 1249.76 L134.839 1253.69 L114.931 1253.69 L114.931 1249.76 Z" fill="#000000" fill-rule="evenodd" fill-opacity="1" /><path clip-path="url(#clip260)" d="M154.283 1222.21 Q150.672 1222.21 148.843 1225.78 Q147.038 1229.32 147.038 1236.45 Q147.038 1243.56 148.843 1247.12 Q150.672 1250.66 154.283 1250.66 Q157.917 1250.66 159.723 1247.12 Q161.552 1243.56 161.552 1236.45 Q161.552 1229.32 159.723 1225.78 Q157.917 1222.21 154.283 1222.21 M154.283 1218.51 Q160.093 1218.51 163.149 1223.12 Q166.227 1227.7 166.227 1236.45 Q166.227 1245.18 163.149 1249.78 Q160.093 1254.37 154.283 1254.37 Q148.473 1254.37 145.394 1249.78 Q142.339 1245.18 142.339 1236.45 Q142.339 1227.7 145.394 1223.12 Q148.473 1218.51 154.283 1218.51 Z" fill="#000000" fill-rule="evenodd" fill-opacity="1" /><path clip-path="url(#clip260)" d="M175.932 1200.71 Q172.998 1200.71 171.512 1203.6 Q170.045 1206.48 170.045 1212.27 Q170.045 1218.05 171.512 1220.94 Q172.998 1223.82 175.932 1223.82 Q178.885 1223.82 180.352 1220.94 Q181.838 1218.05 181.838 1212.27 Q181.838 1206.48 180.352 1203.6 Q178.885 1200.71 175.932 1200.71 M175.932 1197.7 Q180.653 1197.7 183.136 1201.44 Q185.637 1205.16 185.637 1212.27 Q185.637 1219.36 183.136 1223.11 Q180.653 1226.83 175.932 1226.83 Q171.212 1226.83 168.71 1223.11 Q166.227 1219.36 166.227 1212.27 Q166.227 1205.16 168.71 1201.44 Q171.212 1197.7 175.932 1197.7 Z" fill="#000000" fill-rule="evenodd" fill-opacity="1" /><path clip-path="url(#clip260)" d="M117.621 742.691 L125.26 742.691 L125.26 716.325 L116.95 717.992 L116.95 713.732 L125.214 712.066 L129.889 712.066 L129.889 742.691 L137.528 742.691 L137.528 746.626 L117.621 746.626 L117.621 742.691 Z" fill="#000000" fill-rule="evenodd" fill-opacity="1" /><path clip-path="url(#clip260)" d="M156.973 715.144 Q153.362 715.144 151.533 718.709 Q149.727 722.251 149.727 729.38 Q149.727 736.487 151.533 740.052 Q153.362 743.593 156.973 743.593 Q160.607 743.593 162.412 740.052 Q164.241 736.487 164.241 729.38 Q164.241 722.251 162.412 718.709 Q160.607 715.144 156.973 715.144 M156.973 711.441 Q162.783 711.441 165.838 716.047 Q168.917 720.63 168.917 729.38 Q168.917 738.107 165.838 742.714 Q162.783 747.297 156.973 747.297 Q151.162 747.297 148.084 742.714 Q145.028 738.107 145.028 729.38 Q145.028 720.63 148.084 716.047 Q151.162 711.441 156.973 711.441 Z" fill="#000000" fill-rule="evenodd" fill-opacity="1" /><path clip-path="url(#clip260)" d="M169.462 716.018 L175.669 716.018 L175.669 694.596 L168.917 695.95 L168.917 692.489 L175.631 691.135 L179.431 691.135 L179.431 716.018 L185.637 716.018 L185.637 719.215 L169.462 719.215 L169.462 716.018 Z" fill="#000000" fill-rule="evenodd" fill-opacity="1" /><path clip-path="url(#clip260)" d="M116.511 235.621 L124.15 235.621 L124.15 209.256 L115.84 210.922 L115.84 206.663 L124.104 204.996 L128.78 204.996 L128.78 235.621 L136.419 235.621 L136.419 239.556 L116.511 239.556 L116.511 235.621 Z" fill="#000000" fill-rule="evenodd" fill-opacity="1" /><path clip-path="url(#clip260)" d="M155.863 208.075 Q152.252 208.075 150.423 211.64 Q148.618 215.181 148.618 222.311 Q148.618 229.418 150.423 232.982 Q152.252 236.524 155.863 236.524 Q159.497 236.524 161.303 232.982 Q163.131 229.418 163.131 222.311 Q163.131 215.181 161.303 211.64 Q159.497 208.075 155.863 208.075 M155.863 204.371 Q161.673 204.371 164.729 208.978 Q167.807 213.561 167.807 222.311 Q167.807 231.038 164.729 235.644 Q161.673 240.228 155.863 240.228 Q150.053 240.228 146.974 235.644 Q143.919 231.038 143.919 222.311 Q143.919 213.561 146.974 208.978 Q150.053 204.371 155.863 204.371 Z" fill="#000000" fill-rule="evenodd" fill-opacity="1" /><path clip-path="url(#clip260)" d="M172.378 208.949 L185.637 208.949 L185.637 212.146 L167.807 212.146 L167.807 208.949 Q169.97 206.711 173.694 202.949 Q177.437 199.169 178.396 198.078 Q180.22 196.028 180.935 194.617 Q181.669 193.188 181.669 191.815 Q181.669 189.577 180.089 188.166 Q178.528 186.755 176.008 186.755 Q174.221 186.755 172.227 187.376 Q170.252 187.997 167.995 189.257 L167.995 185.42 Q170.29 184.499 172.284 184.028 Q174.277 183.558 175.932 183.558 Q180.296 183.558 182.891 185.74 Q185.487 187.922 185.487 191.57 Q185.487 193.301 184.828 194.862 Q184.189 196.404 182.477 198.51 Q182.007 199.056 179.487 201.67 Q176.967 204.265 172.378 208.949 Z" fill="#000000" fill-rule="evenodd" fill-opacity="1" /><path clip-path="url(#clip260)" d="M16.4842 1034.96 L16.4842 1004.91 L21.895 1004.91 L21.895 1028.53 L35.9632 1028.53 L35.9632 1005.9 L41.3741 1005.9 L41.3741 1028.53 L58.5933 1028.53 L58.5933 1004.34 L64.0042 1004.34 L64.0042 1034.96 L16.4842 1034.96 Z" fill="#000000" fill-rule="evenodd" fill-opacity="1" /><path clip-path="url(#clip260)" d="M33.8307 973.37 Q33.2578 974.357 33.0032 975.535 Q32.7167 976.68 32.7167 978.081 Q32.7167 983.046 35.9632 985.72 Q39.1779 988.362 45.2253 988.362 L64.0042 988.362 L64.0042 994.25 L28.3562 994.25 L28.3562 988.362 L33.8944 988.362 Q30.6479 986.515 29.0883 983.555 Q27.4968 980.595 27.4968 976.362 Q27.4968 975.757 27.5923 975.025 Q27.656 974.293 27.8151 973.402 L33.8307 973.37 Z" fill="#000000" fill-rule="evenodd" fill-opacity="1" /><path clip-path="url(#clip260)" d="M33.8307 947.716 Q33.2578 948.703 33.0032 949.881 Q32.7167 951.027 32.7167 952.427 Q32.7167 957.392 35.9632 960.066 Q39.1779 962.708 45.2253 962.708 L64.0042 962.708 L64.0042 968.596 L28.3562 968.596 L28.3562 962.708 L33.8944 962.708 Q30.6479 960.862 29.0883 957.902 Q27.4968 954.942 27.4968 950.708 Q27.4968 950.104 27.5923 949.372 Q27.656 948.64 27.8151 947.748 L33.8307 947.716 Z" fill="#000000" fill-rule="evenodd" fill-opacity="1" /><path clip-path="url(#clip260)" d="M32.4621 929.192 Q32.4621 933.903 36.1542 936.64 Q39.8145 939.377 46.212 939.377 Q52.6095 939.377 56.3017 936.672 Q59.9619 933.935 59.9619 929.192 Q59.9619 924.513 56.2698 921.776 Q52.5777 919.039 46.212 919.039 Q39.8781 919.039 36.186 921.776 Q32.4621 924.513 32.4621 929.192 M27.4968 929.192 Q27.4968 921.553 32.4621 917.193 Q37.4273 912.832 46.212 912.832 Q54.9649 912.832 59.9619 917.193 Q64.9272 921.553 64.9272 929.192 Q64.9272 936.863 59.9619 941.223 Q54.9649 945.552 46.212 945.552 Q37.4273 945.552 32.4621 941.223 Q27.4968 936.863 27.4968 929.192 Z" fill="#000000" fill-rule="evenodd" fill-opacity="1" /><path clip-path="url(#clip260)" d="M33.8307 882.468 Q33.2578 883.455 33.0032 884.632 Q32.7167 885.778 32.7167 887.179 Q32.7167 892.144 35.9632 894.817 Q39.1779 897.459 45.2253 897.459 L64.0042 897.459 L64.0042 903.348 L28.3562 903.348 L28.3562 897.459 L33.8944 897.459 Q30.6479 895.613 29.0883 892.653 Q27.4968 889.693 27.4968 885.46 Q27.4968 884.855 27.5923 884.123 Q27.656 883.391 27.8151 882.5 L33.8307 882.468 Z" fill="#000000" fill-rule="evenodd" fill-opacity="1" /><path clip-path="url(#clip260)" d="M55.9197 875.975 L55.9197 869.259 L64.0042 869.259 L64.0042 875.975 L55.9197 875.975 M30.2977 875.975 L30.2977 869.259 L38.3822 869.259 L38.3822 875.975 L30.2977 875.975 Z" fill="#000000" fill-rule="evenodd" fill-opacity="1" /><path clip-path="url(#clip260)" d="M58.5933 828.423 L58.5933 805.984 L64.0042 805.984 L64.0042 836.157 L58.5933 836.157 Q54.8057 832.497 48.44 826.195 Q42.0425 819.861 40.1964 818.238 Q36.7271 815.151 34.34 813.941 Q31.921 812.7 29.5975 812.7 Q25.8099 812.7 23.4228 815.373 Q21.0356 818.015 21.0356 822.28 Q21.0356 825.304 22.086 828.678 Q23.1363 832.02 25.2688 835.839 L18.7758 835.839 Q17.2162 831.956 16.4205 828.582 Q15.6248 825.208 15.6248 822.408 Q15.6248 815.023 19.3169 810.631 Q23.009 806.239 29.1837 806.239 Q32.112 806.239 34.7537 807.353 Q37.3637 808.435 40.9285 811.331 Q41.8515 812.127 46.2757 816.392 Q50.668 820.657 58.5933 828.423 Z" fill="#000000" fill-rule="evenodd" fill-opacity="1" /><path clip-path="url(#clip260)" d="M43.5384 796.276 L43.5384 779.121 L48.7583 779.121 L48.7583 796.276 L43.5384 796.276 Z" fill="#000000" fill-rule="evenodd" fill-opacity="1" /><path clip-path="url(#clip260)" d="M42.4881 740.163 L64.0042 740.163 L64.0042 746.019 L42.679 746.019 Q37.6183 746.019 35.1038 747.992 Q32.5894 749.966 32.5894 753.913 Q32.5894 758.655 35.6131 761.392 Q38.6368 764.129 43.8567 764.129 L64.0042 764.129 L64.0042 770.018 L28.3562 770.018 L28.3562 764.129 L33.8944 764.129 Q30.6797 762.029 29.0883 759.196 Q27.4968 756.332 27.4968 752.608 Q27.4968 746.465 31.3163 743.314 Q35.1038 740.163 42.4881 740.163 Z" fill="#000000" fill-rule="evenodd" fill-opacity="1" /><path clip-path="url(#clip260)" d="M32.4621 714.668 Q32.4621 719.379 36.1542 722.116 Q39.8145 724.853 46.212 724.853 Q52.6095 724.853 56.3017 722.148 Q59.9619 719.41 59.9619 714.668 Q59.9619 709.989 56.2698 707.252 Q52.5777 704.515 46.212 704.515 Q39.8781 704.515 36.186 707.252 Q32.4621 709.989 32.4621 714.668 M27.4968 714.668 Q27.4968 707.029 32.4621 702.669 Q37.4273 698.308 46.212 698.308 Q54.9649 698.308 59.9619 702.669 Q64.9272 707.029 64.9272 714.668 Q64.9272 722.339 59.9619 726.699 Q54.9649 731.028 46.212 731.028 Q37.4273 731.028 32.4621 726.699 Q27.4968 722.339 27.4968 714.668 Z" fill="#000000" fill-rule="evenodd" fill-opacity="1" /><path clip-path="url(#clip260)" d="M33.8307 667.944 Q33.2578 668.93 33.0032 670.108 Q32.7167 671.254 32.7167 672.654 Q32.7167 677.62 35.9632 680.293 Q39.1779 682.935 45.2253 682.935 L64.0042 682.935 L64.0042 688.823 L28.3562 688.823 L28.3562 682.935 L33.8944 682.935 Q30.6479 681.089 29.0883 678.129 Q27.4968 675.169 27.4968 670.936 Q27.4968 670.331 27.5923 669.599 Q27.656 668.867 27.8151 667.975 L33.8307 667.944 Z" fill="#000000" fill-rule="evenodd" fill-opacity="1" /><path clip-path="url(#clip260)" d="M35.1993 635.192 Q31.2526 632.996 29.3747 629.94 Q27.4968 626.885 27.4968 622.747 Q27.4968 617.177 31.4117 614.153 Q35.2948 611.13 42.4881 611.13 L64.0042 611.13 L64.0042 617.018 L42.679 617.018 Q37.5546 617.018 35.072 618.832 Q32.5894 620.646 32.5894 624.37 Q32.5894 628.922 35.6131 631.564 Q38.6368 634.205 43.8567 634.205 L64.0042 634.205 L64.0042 640.094 L42.679 640.094 Q37.5228 640.094 35.072 641.908 Q32.5894 643.722 32.5894 647.51 Q32.5894 651.998 35.6449 654.639 Q38.6686 657.281 43.8567 657.281 L64.0042 657.281 L64.0042 663.169 L28.3562 663.169 L28.3562 657.281 L33.8944 657.281 Q30.616 655.276 29.0564 652.475 Q27.4968 649.674 27.4968 645.823 Q27.4968 641.94 29.4702 639.234 Q31.4436 636.497 35.1993 635.192 Z" fill="#000000" fill-rule="evenodd" fill-opacity="1" /><path clip-path="url(#clip260)" d="M14.5426 564.66 Q21.8632 568.925 29.0246 570.994 Q36.186 573.063 43.5384 573.063 Q50.8908 573.063 58.1159 570.994 Q65.3091 568.893 72.5979 564.66 L72.5979 569.753 Q65.1182 574.527 57.8931 576.914 Q50.668 579.269 43.5384 579.269 Q36.4406 579.269 29.2474 576.914 Q22.0542 574.559 14.5426 569.753 L14.5426 564.66 Z" fill="#000000" fill-rule="evenodd" fill-opacity="1" /><path clip-path="url(#clip260)" d="M16.4842 553.043 L16.4842 546.613 L58.5933 546.613 L58.5933 523.474 L64.0042 523.474 L64.0042 553.043 L16.4842 553.043 Z" fill="#000000" fill-rule="evenodd" fill-opacity="1" /><path clip-path="url(#clip260)" d="M32.4621 504.313 Q32.4621 509.024 36.1542 511.761 Q39.8145 514.498 46.212 514.498 Q52.6095 514.498 56.3017 511.793 Q59.9619 509.056 59.9619 504.313 Q59.9619 499.634 56.2698 496.897 Q52.5777 494.16 46.212 494.16 Q39.8781 494.16 36.186 496.897 Q32.4621 499.634 32.4621 504.313 M27.4968 504.313 Q27.4968 496.674 32.4621 492.314 Q37.4273 487.953 46.212 487.953 Q54.9649 487.953 59.9619 492.314 Q64.9272 496.674 64.9272 504.313 Q64.9272 511.984 59.9619 516.344 Q54.9649 520.673 46.212 520.673 Q37.4273 520.673 32.4621 516.344 Q27.4968 511.984 27.4968 504.313 Z" fill="#000000" fill-rule="evenodd" fill-opacity="1" /><path clip-path="url(#clip260)" d="M45.7664 454.788 Q39.4007 454.788 35.8996 457.43 Q32.3984 460.04 32.3984 464.782 Q32.3984 469.493 35.8996 472.135 Q39.4007 474.744 45.7664 474.744 Q52.1003 474.744 55.6014 472.135 Q59.1026 469.493 59.1026 464.782 Q59.1026 460.04 55.6014 457.43 Q52.1003 454.788 45.7664 454.788 M59.58 448.932 Q68.683 448.932 73.1071 452.974 Q77.5631 457.016 77.5631 465.355 Q77.5631 468.442 77.0857 471.18 Q76.6401 473.917 75.6852 476.495 L69.9879 476.495 Q71.3884 473.917 72.0568 471.402 Q72.7252 468.888 72.7252 466.278 Q72.7252 460.517 69.7015 457.653 Q66.7096 454.788 60.6303 454.788 L57.7339 454.788 Q60.885 456.602 62.4446 459.435 Q64.0042 462.268 64.0042 466.214 Q64.0042 472.771 59.0071 476.782 Q54.01 480.792 45.7664 480.792 Q37.491 480.792 32.4939 476.782 Q27.4968 472.771 27.4968 466.214 Q27.4968 462.268 29.0564 459.435 Q30.616 456.602 33.7671 454.788 L28.3562 454.788 L28.3562 448.932 L59.58 448.932 Z" fill="#000000" fill-rule="evenodd" fill-opacity="1" /><path clip-path="url(#clip260)" d="M14.5426 437.792 L14.5426 432.699 Q22.0542 427.925 29.2474 425.569 Q36.4406 423.182 43.5384 423.182 Q50.668 423.182 57.8931 425.569 Q65.1182 427.925 72.5979 432.699 L72.5979 437.792 Q65.3091 433.558 58.1159 431.489 Q50.8908 429.389 43.5384 429.389 Q36.186 429.389 29.0246 431.489 Q21.8632 433.558 14.5426 437.792 Z" fill="#000000" fill-rule="evenodd" fill-opacity="1" /><polyline clip-path="url(#clip262)" style="stroke:#0000ff; stroke-linecap:butt; stroke-linejoin:round; stroke-width:8; stroke-opacity:1; fill:none" points="
  281.952,441.505 616.125,900.387 980.217,989.574 1344.09,1171.29 1710.23,1368.95 
  "/>
<circle clip-path="url(#clip262)" cx="281.952" cy="441.505" r="18" fill="#ffffff" fill-rule="evenodd" fill-opacity="1" stroke="#000000" stroke-opacity="1" stroke-width="3.2"/>
<circle clip-path="url(#clip262)" cx="616.125" cy="900.387" r="18" fill="#ffffff" fill-rule="evenodd" fill-opacity="1" stroke="#000000" stroke-opacity="1" stroke-width="3.2"/>
<circle clip-path="url(#clip262)" cx="980.217" cy="989.574" r="18" fill="#ffffff" fill-rule="evenodd" fill-opacity="1" stroke="#000000" stroke-opacity="1" stroke-width="3.2"/>
<circle clip-path="url(#clip262)" cx="1344.09" cy="1171.29" r="18" fill="#ffffff" fill-rule="evenodd" fill-opacity="1" stroke="#000000" stroke-opacity="1" stroke-width="3.2"/>
<circle clip-path="url(#clip262)" cx="1710.23" cy="1368.95" r="18" fill="#ffffff" fill-rule="evenodd" fill-opacity="1" stroke="#000000" stroke-opacity="1" stroke-width="3.2"/>
<polyline clip-path="url(#clip262)" style="stroke:#0000ff; stroke-linecap:butt; stroke-linejoin:round; stroke-width:8; stroke-opacity:1; fill:none" points="
  586.377,594.835 854.342,793.567 1163.1,982.488 1493.95,1170.78 1801.11,1368.99 
  "/>
<path clip-path="url(#clip262)" d="M566.377 574.835 L566.377 614.835 L606.377 614.835 L606.377 574.835 L566.377 574.835 Z" fill="#ffffff" fill-rule="evenodd" fill-opacity="1" stroke="#000000" stroke-opacity="1" stroke-width="3.2"/>
<path clip-path="url(#clip262)" d="M834.342 773.567 L834.342 813.567 L874.342 813.567 L874.342 773.567 L834.342 773.567 Z" fill="#ffffff" fill-rule="evenodd" fill-opacity="1" stroke="#000000" stroke-opacity="1" stroke-width="3.2"/>
<path clip-path="url(#clip262)" d="M1143.1 962.488 L1143.1 1002.49 L1183.1 1002.49 L1183.1 962.488 L1143.1 962.488 Z" fill="#ffffff" fill-rule="evenodd" fill-opacity="1" stroke="#000000" stroke-opacity="1" stroke-width="3.2"/>
<path clip-path="url(#clip262)" d="M1473.95 1150.78 L1473.95 1190.78 L1513.95 1190.78 L1513.95 1150.78 L1473.95 1150.78 Z" fill="#ffffff" fill-rule="evenodd" fill-opacity="1" stroke="#000000" stroke-opacity="1" stroke-width="3.2"/>
<path clip-path="url(#clip262)" d="M1781.11 1348.99 L1781.11 1388.99 L1821.11 1388.99 L1821.11 1348.99 L1781.11 1348.99 Z" fill="#ffffff" fill-rule="evenodd" fill-opacity="1" stroke="#000000" stroke-opacity="1" stroke-width="3.2"/>
<polyline clip-path="url(#clip262)" style="stroke:#ff0000; stroke-linecap:butt; stroke-linejoin:round; stroke-width:8; stroke-opacity:1; fill:none" points="
  716.054,105.736 1079.43,137.263 1438.23,107.493 1801.46,85.838 
  "/>
<path clip-path="url(#clip262)" d="M732.054 105.736 L708.054 91.7362 L708.054 119.736 L732.054 105.736 Z" fill="#ffffff" fill-rule="evenodd" fill-opacity="1" stroke="#000000" stroke-opacity="1" stroke-width="3.2"/>
<path clip-path="url(#clip262)" d="M1095.43 137.263 L1071.43 123.263 L1071.43 151.263 L1095.43 137.263 Z" fill="#ffffff" fill-rule="evenodd" fill-opacity="1" stroke="#000000" stroke-opacity="1" stroke-width="3.2"/>
<path clip-path="url(#clip262)" d="M1454.23 107.493 L1430.23 93.4931 L1430.23 121.493 L1454.23 107.493 Z" fill="#ffffff" fill-rule="evenodd" fill-opacity="1" stroke="#000000" stroke-opacity="1" stroke-width="3.2"/>
<path clip-path="url(#clip262)" d="M1817.46 85.838 L1793.46 71.838 L1793.46 99.838 L1817.46 85.838 Z" fill="#ffffff" fill-rule="evenodd" fill-opacity="1" stroke="#000000" stroke-opacity="1" stroke-width="3.2"/>
<polyline clip-path="url(#clip262)" style="stroke:#ff0000; stroke-linecap:butt; stroke-linejoin:round; stroke-width:8; stroke-opacity:1; fill:none" points="
  714.432,445.701 1054.34,903.307 1407.04,992.835 1773.68,1174.59 2146.5,1372.26 
  "/>
<circle clip-path="url(#clip262)" cx="714.432" cy="445.701" r="18" fill="#ffffff" fill-rule="evenodd" fill-opacity="1" stroke="#000000" stroke-opacity="1" stroke-width="3.2"/>
<circle clip-path="url(#clip262)" cx="1054.34" cy="903.307" r="18" fill="#ffffff" fill-rule="evenodd" fill-opacity="1" stroke="#000000" stroke-opacity="1" stroke-width="3.2"/>
<circle clip-path="url(#clip262)" cx="1407.04" cy="992.835" r="18" fill="#ffffff" fill-rule="evenodd" fill-opacity="1" stroke="#000000" stroke-opacity="1" stroke-width="3.2"/>
<circle clip-path="url(#clip262)" cx="1773.68" cy="1174.59" r="18" fill="#ffffff" fill-rule="evenodd" fill-opacity="1" stroke="#000000" stroke-opacity="1" stroke-width="3.2"/>
<circle clip-path="url(#clip262)" cx="2146.5" cy="1372.26" r="18" fill="#ffffff" fill-rule="evenodd" fill-opacity="1" stroke="#000000" stroke-opacity="1" stroke-width="3.2"/>
<polyline clip-path="url(#clip262)" style="stroke:#ff0000; stroke-linecap:butt; stroke-linejoin:round; stroke-width:8; stroke-opacity:1; fill:none" points="
  1005.28,400.47 1340.42,314.405 1657.83,227.445 1961.83,151.476 2292.44,135.222 
  "/>
<path clip-path="url(#clip262)" d="M1005.28 380.47 L985.284 400.47 L1005.28 420.47 L1025.28 400.47 L1005.28 380.47 Z" fill="#ffffff" fill-rule="evenodd" fill-opacity="1" stroke="#000000" stroke-opacity="1" stroke-width="3.2"/>
<path clip-path="url(#clip262)" d="M1340.42 294.405 L1320.42 314.405 L1340.42 334.405 L1360.42 314.405 L1340.42 294.405 Z" fill="#ffffff" fill-rule="evenodd" fill-opacity="1" stroke="#000000" stroke-opacity="1" stroke-width="3.2"/>
<path clip-path="url(#clip262)" d="M1657.83 207.445 L1637.83 227.445 L1657.83 247.445 L1677.83 227.445 L1657.83 207.445 Z" fill="#ffffff" fill-rule="evenodd" fill-opacity="1" stroke="#000000" stroke-opacity="1" stroke-width="3.2"/>
<path clip-path="url(#clip262)" d="M1961.83 131.476 L1941.83 151.476 L1961.83 171.476 L1981.83 151.476 L1961.83 131.476 Z" fill="#ffffff" fill-rule="evenodd" fill-opacity="1" stroke="#000000" stroke-opacity="1" stroke-width="3.2"/>
<path clip-path="url(#clip262)" d="M2292.44 115.222 L2272.44 135.222 L2292.44 155.222 L2312.44 135.222 L2292.44 115.222 Z" fill="#ffffff" fill-rule="evenodd" fill-opacity="1" stroke="#000000" stroke-opacity="1" stroke-width="3.2"/>
<polyline clip-path="url(#clip262)" style="stroke:#ff0000; stroke-linecap:butt; stroke-linejoin:round; stroke-width:8; stroke-opacity:1; fill:none" points="
  1056.22,598.231 1336.54,796.846 1632.82,985.763 1950.54,1174.08 2265.23,1372.3 
  "/>
<path clip-path="url(#clip262)" d="M1036.22 578.231 L1036.22 618.231 L1076.22 618.231 L1076.22 578.231 L1036.22 578.231 Z" fill="#ffffff" fill-rule="evenodd" fill-opacity="1" stroke="#000000" stroke-opacity="1" stroke-width="3.2"/>
<path clip-path="url(#clip262)" d="M1316.54 776.846 L1316.54 816.846 L1356.54 816.846 L1356.54 776.846 L1316.54 776.846 Z" fill="#ffffff" fill-rule="evenodd" fill-opacity="1" stroke="#000000" stroke-opacity="1" stroke-width="3.2"/>
<path clip-path="url(#clip262)" d="M1612.82 965.763 L1612.82 1005.76 L1652.82 1005.76 L1652.82 965.763 L1612.82 965.763 Z" fill="#ffffff" fill-rule="evenodd" fill-opacity="1" stroke="#000000" stroke-opacity="1" stroke-width="3.2"/>
<path clip-path="url(#clip262)" d="M1930.54 1154.08 L1930.54 1194.08 L1970.54 1194.08 L1970.54 1154.08 L1930.54 1154.08 Z" fill="#ffffff" fill-rule="evenodd" fill-opacity="1" stroke="#000000" stroke-opacity="1" stroke-width="3.2"/>
<path clip-path="url(#clip262)" d="M2245.23 1352.3 L2245.23 1392.3 L2285.23 1392.3 L2285.23 1352.3 L2245.23 1352.3 Z" fill="#ffffff" fill-rule="evenodd" fill-opacity="1" stroke="#000000" stroke-opacity="1" stroke-width="3.2"/>
<path clip-path="url(#clip260)" d="
M1733.31 884.59 L2281.72 884.59 L2281.72 521.71 L1733.31 521.71  Z
  " fill="#ffffff" fill-rule="evenodd" fill-opacity="1"/>
<polyline clip-path="url(#clip260)" style="stroke:#000000; stroke-linecap:butt; stroke-linejoin:round; stroke-width:4; stroke-opacity:1; fill:none" points="
  1733.31,884.59 2281.72,884.59 2281.72,521.71 1733.31,521.71 1733.31,884.59 
  "/>
<polyline clip-path="url(#clip260)" style="stroke:#0000ff; stroke-linecap:butt; stroke-linejoin:round; stroke-width:4; stroke-opacity:1; fill:none" points="
  1756.99,573.55 1899.06,573.55 
  "/>
<circle clip-path="url(#clip260)" cx="1828.03" cy="573.55" r="23.04" fill="#ffffff" fill-rule="evenodd" fill-opacity="1" stroke="#000000" stroke-opacity="1" stroke-width="4.096"/>
<path clip-path="url(#clip260)" d="M1929.85 556.27 L1934.52 556.27 L1934.52 588.423 Q1934.52 594.673 1932.14 597.497 Q1929.78 600.321 1924.52 600.321 L1922.74 600.321 L1922.74 596.386 L1924.2 596.386 Q1927.3 596.386 1928.58 594.65 Q1929.85 592.914 1929.85 588.423 L1929.85 556.27 Z" fill="#000000" fill-rule="evenodd" fill-opacity="1" /><path clip-path="url(#clip260)" d="M1943.2 580.599 L1943.2 564.905 L1947.46 564.905 L1947.46 580.437 Q1947.46 584.117 1948.9 585.969 Q1950.33 587.798 1953.2 587.798 Q1956.65 587.798 1958.64 585.599 Q1960.66 583.4 1960.66 579.604 L1960.66 564.905 L1964.92 564.905 L1964.92 590.83 L1960.66 590.83 L1960.66 586.849 Q1959.11 589.21 1957.05 590.367 Q1955.01 591.502 1952.3 591.502 Q1947.83 591.502 1945.52 588.724 Q1943.2 585.946 1943.2 580.599 M1953.92 564.28 L1953.92 564.28 Z" fill="#000000" fill-rule="evenodd" fill-opacity="1" /><path clip-path="url(#clip260)" d="M1973.69 554.812 L1977.95 554.812 L1977.95 590.83 L1973.69 590.83 L1973.69 554.812 Z" fill="#000000" fill-rule="evenodd" fill-opacity="1" /><path clip-path="url(#clip260)" d="M1986.86 564.905 L1991.12 564.905 L1991.12 590.83 L1986.86 590.83 L1986.86 564.905 M1986.86 554.812 L1991.12 554.812 L1991.12 560.206 L1986.86 560.206 L1986.86 554.812 Z" fill="#000000" fill-rule="evenodd" fill-opacity="1" /><path clip-path="url(#clip260)" d="M2011.82 577.798 Q2006.65 577.798 2004.66 578.979 Q2002.67 580.159 2002.67 583.006 Q2002.67 585.275 2004.15 586.617 Q2005.66 587.937 2008.23 587.937 Q2011.77 587.937 2013.9 585.437 Q2016.05 582.914 2016.05 578.747 L2016.05 577.798 L2011.82 577.798 M2020.31 576.039 L2020.31 590.83 L2016.05 590.83 L2016.05 586.895 Q2014.59 589.256 2012.42 590.391 Q2010.24 591.502 2007.09 591.502 Q2003.11 591.502 2000.75 589.279 Q1998.41 587.034 1998.41 583.284 Q1998.41 578.909 2001.33 576.687 Q2004.27 574.465 2010.08 574.465 L2016.05 574.465 L2016.05 574.048 Q2016.05 571.108 2014.11 569.511 Q2012.19 567.891 2008.69 567.891 Q2006.47 567.891 2004.36 568.423 Q2002.26 568.955 2000.31 570.02 L2000.31 566.085 Q2002.65 565.182 2004.85 564.743 Q2007.05 564.28 2009.13 564.28 Q2014.76 564.28 2017.53 567.196 Q2020.31 570.113 2020.31 576.039 Z" fill="#000000" fill-rule="evenodd" fill-opacity="1" /><path clip-path="url(#clip260)" d="M2049.01 560.113 L2049.01 573.099 L2054.89 573.099 Q2058.16 573.099 2059.94 571.409 Q2061.72 569.719 2061.72 566.594 Q2061.72 563.493 2059.94 561.803 Q2058.16 560.113 2054.89 560.113 L2049.01 560.113 M2044.34 556.27 L2054.89 556.27 Q2060.7 556.27 2063.67 558.909 Q2066.65 561.525 2066.65 566.594 Q2066.65 571.71 2063.67 574.326 Q2060.7 576.942 2054.89 576.942 L2049.01 576.942 L2049.01 590.83 L2044.34 590.83 L2044.34 556.27 Z" fill="#000000" fill-rule="evenodd" fill-opacity="1" /><path clip-path="url(#clip260)" d="M2098.81 558.932 L2098.81 563.863 Q2096.44 561.664 2093.76 560.576 Q2091.1 559.488 2088.09 559.488 Q2082.16 559.488 2079.01 563.122 Q2075.87 566.733 2075.87 573.585 Q2075.87 580.414 2079.01 584.048 Q2082.16 587.659 2088.09 587.659 Q2091.1 587.659 2093.76 586.571 Q2096.44 585.483 2098.81 583.284 L2098.81 588.168 Q2096.35 589.835 2093.6 590.668 Q2090.87 591.502 2087.81 591.502 Q2079.96 591.502 2075.45 586.71 Q2070.94 581.895 2070.94 573.585 Q2070.94 565.252 2075.45 560.46 Q2079.96 555.645 2087.81 555.645 Q2090.91 555.645 2093.64 556.479 Q2096.4 557.289 2098.81 558.932 Z" fill="#000000" fill-rule="evenodd" fill-opacity="1" /><polyline clip-path="url(#clip260)" style="stroke:#0000ff; stroke-linecap:butt; stroke-linejoin:round; stroke-width:4; stroke-opacity:1; fill:none" points="
  1756.99,625.39 1899.06,625.39 
  "/>
<path clip-path="url(#clip260)" d="M1802.43 599.79 L1802.43 650.99 L1853.63 650.99 L1853.63 599.79 L1802.43 599.79 Z" fill="#ffffff" fill-rule="evenodd" fill-opacity="1" stroke="#000000" stroke-opacity="1" stroke-width="4.096"/>
<path clip-path="url(#clip260)" d="M1929.85 608.11 L1934.52 608.11 L1934.52 640.263 Q1934.52 646.513 1932.14 649.337 Q1929.78 652.161 1924.52 652.161 L1922.74 652.161 L1922.74 648.226 L1924.2 648.226 Q1927.3 648.226 1928.58 646.49 Q1929.85 644.754 1929.85 640.263 L1929.85 608.11 Z" fill="#000000" fill-rule="evenodd" fill-opacity="1" /><path clip-path="url(#clip260)" d="M1943.2 632.439 L1943.2 616.745 L1947.46 616.745 L1947.46 632.277 Q1947.46 635.957 1948.9 637.809 Q1950.33 639.638 1953.2 639.638 Q1956.65 639.638 1958.64 637.439 Q1960.66 635.24 1960.66 631.444 L1960.66 616.745 L1964.92 616.745 L1964.92 642.67 L1960.66 642.67 L1960.66 638.689 Q1959.11 641.05 1957.05 642.207 Q1955.01 643.342 1952.3 643.342 Q1947.83 643.342 1945.52 640.564 Q1943.2 637.786 1943.2 632.439 M1953.92 616.12 L1953.92 616.12 Z" fill="#000000" fill-rule="evenodd" fill-opacity="1" /><path clip-path="url(#clip260)" d="M1973.69 606.652 L1977.95 606.652 L1977.95 642.67 L1973.69 642.67 L1973.69 606.652 Z" fill="#000000" fill-rule="evenodd" fill-opacity="1" /><path clip-path="url(#clip260)" d="M1986.86 616.745 L1991.12 616.745 L1991.12 642.67 L1986.86 642.67 L1986.86 616.745 M1986.86 606.652 L1991.12 606.652 L1991.12 612.046 L1986.86 612.046 L1986.86 606.652 Z" fill="#000000" fill-rule="evenodd" fill-opacity="1" /><path clip-path="url(#clip260)" d="M2011.82 629.638 Q2006.65 629.638 2004.66 630.819 Q2002.67 631.999 2002.67 634.846 Q2002.67 637.115 2004.15 638.457 Q2005.66 639.777 2008.23 639.777 Q2011.77 639.777 2013.9 637.277 Q2016.05 634.754 2016.05 630.587 L2016.05 629.638 L2011.82 629.638 M2020.31 627.879 L2020.31 642.67 L2016.05 642.67 L2016.05 638.735 Q2014.59 641.096 2012.42 642.231 Q2010.24 643.342 2007.09 643.342 Q2003.11 643.342 2000.75 641.119 Q1998.41 638.874 1998.41 635.124 Q1998.41 630.749 2001.33 628.527 Q2004.27 626.305 2010.08 626.305 L2016.05 626.305 L2016.05 625.888 Q2016.05 622.948 2014.11 621.351 Q2012.19 619.731 2008.69 619.731 Q2006.47 619.731 2004.36 620.263 Q2002.26 620.795 2000.31 621.86 L2000.31 617.925 Q2002.65 617.022 2004.85 616.583 Q2007.05 616.12 2009.13 616.12 Q2014.76 616.12 2017.53 619.036 Q2020.31 621.953 2020.31 627.879 Z" fill="#000000" fill-rule="evenodd" fill-opacity="1" /><path clip-path="url(#clip260)" d="M2044.34 608.11 L2050.63 608.11 L2065.96 637.022 L2065.96 608.11 L2070.5 608.11 L2070.5 642.67 L2064.2 642.67 L2048.88 613.758 L2048.88 642.67 L2044.34 642.67 L2044.34 608.11 Z" fill="#000000" fill-rule="evenodd" fill-opacity="1" /><path clip-path="url(#clip260)" d="M2096.19 626.467 Q2097.69 626.976 2099.11 628.643 Q2100.54 630.309 2101.98 633.226 L2106.72 642.67 L2101.7 642.67 L2097.28 633.805 Q2095.56 630.332 2093.94 629.198 Q2092.35 628.064 2089.57 628.064 L2084.48 628.064 L2084.48 642.67 L2079.8 642.67 L2079.8 608.11 L2090.36 608.11 Q2096.28 608.11 2099.2 610.587 Q2102.12 613.064 2102.12 618.064 Q2102.12 621.328 2100.59 623.481 Q2099.08 625.633 2096.19 626.467 M2084.48 611.953 L2084.48 624.221 L2090.36 624.221 Q2093.74 624.221 2095.45 622.67 Q2097.19 621.096 2097.19 618.064 Q2097.19 615.032 2095.45 613.504 Q2093.74 611.953 2090.36 611.953 L2084.48 611.953 Z" fill="#000000" fill-rule="evenodd" fill-opacity="1" /><polyline clip-path="url(#clip260)" style="stroke:#ff0000; stroke-linecap:butt; stroke-linejoin:round; stroke-width:4; stroke-opacity:1; fill:none" points="
  1756.99,677.23 1899.06,677.23 
  "/>
<path clip-path="url(#clip260)" d="M1848.51 677.23 L1817.79 659.31 L1817.79 695.15 L1848.51 677.23 Z" fill="#ffffff" fill-rule="evenodd" fill-opacity="1" stroke="#000000" stroke-opacity="1" stroke-width="4.096"/>
<path clip-path="url(#clip260)" d="M1922.74 659.95 L1929.71 659.95 L1938.53 683.469 L1947.39 659.95 L1954.36 659.95 L1954.36 694.51 L1949.8 694.51 L1949.8 664.163 L1940.89 687.867 L1936.19 687.867 L1927.28 664.163 L1927.28 694.51 L1922.74 694.51 L1922.74 659.95 Z" fill="#000000" fill-rule="evenodd" fill-opacity="1" /><path clip-path="url(#clip260)" d="M1975.24 681.478 Q1970.08 681.478 1968.09 682.659 Q1966.1 683.839 1966.1 686.686 Q1966.1 688.955 1967.58 690.297 Q1969.08 691.617 1971.65 691.617 Q1975.2 691.617 1977.32 689.117 Q1979.48 686.594 1979.48 682.427 L1979.48 681.478 L1975.24 681.478 M1983.74 679.719 L1983.74 694.51 L1979.48 694.51 L1979.48 690.575 Q1978.02 692.936 1975.84 694.071 Q1973.67 695.182 1970.52 695.182 Q1966.54 695.182 1964.18 692.959 Q1961.84 690.714 1961.84 686.964 Q1961.84 682.589 1964.76 680.367 Q1967.7 678.145 1973.51 678.145 L1979.48 678.145 L1979.48 677.728 Q1979.48 674.788 1977.53 673.191 Q1975.61 671.571 1972.12 671.571 Q1969.89 671.571 1967.79 672.103 Q1965.68 672.635 1963.74 673.7 L1963.74 669.765 Q1966.07 668.862 1968.27 668.423 Q1970.47 667.96 1972.56 667.96 Q1978.18 667.96 1980.96 670.876 Q1983.74 673.793 1983.74 679.719 Z" fill="#000000" fill-rule="evenodd" fill-opacity="1" /><path clip-path="url(#clip260)" d="M1996.72 661.224 L1996.72 668.585 L2005.5 668.585 L2005.5 671.895 L1996.72 671.895 L1996.72 685.969 Q1996.72 689.14 1997.58 690.043 Q1998.46 690.946 2001.12 690.946 L2005.5 690.946 L2005.5 694.51 L2001.12 694.51 Q1996.19 694.51 1994.32 692.682 Q1992.44 690.83 1992.44 685.969 L1992.44 671.895 L1989.32 671.895 L1989.32 668.585 L1992.44 668.585 L1992.44 661.224 L1996.72 661.224 Z" fill="#000000" fill-rule="evenodd" fill-opacity="1" /><path clip-path="url(#clip260)" d="M2011.1 658.492 L2015.36 658.492 L2015.36 694.51 L2011.1 694.51 L2011.1 658.492 Z" fill="#000000" fill-rule="evenodd" fill-opacity="1" /><path clip-path="url(#clip260)" d="M2036.05 681.478 Q2030.89 681.478 2028.9 682.659 Q2026.91 683.839 2026.91 686.686 Q2026.91 688.955 2028.39 690.297 Q2029.89 691.617 2032.46 691.617 Q2036 691.617 2038.13 689.117 Q2040.29 686.594 2040.29 682.427 L2040.29 681.478 L2036.05 681.478 M2044.55 679.719 L2044.55 694.51 L2040.29 694.51 L2040.29 690.575 Q2038.83 692.936 2036.65 694.071 Q2034.48 695.182 2031.33 695.182 Q2027.35 695.182 2024.99 692.959 Q2022.65 690.714 2022.65 686.964 Q2022.65 682.589 2025.57 680.367 Q2028.51 678.145 2034.32 678.145 L2040.29 678.145 L2040.29 677.728 Q2040.29 674.788 2038.34 673.191 Q2036.42 671.571 2032.93 671.571 Q2030.7 671.571 2028.6 672.103 Q2026.49 672.635 2024.55 673.7 L2024.55 669.765 Q2026.88 668.862 2029.08 668.423 Q2031.28 667.96 2033.37 667.96 Q2038.99 667.96 2041.77 670.876 Q2044.55 673.793 2044.55 679.719 Z" fill="#000000" fill-rule="evenodd" fill-opacity="1" /><path clip-path="url(#clip260)" d="M2071.93 681.571 Q2071.93 676.872 2069.99 674.21 Q2068.07 671.524 2064.69 671.524 Q2061.31 671.524 2059.36 674.21 Q2057.44 676.872 2057.44 681.571 Q2057.44 686.27 2059.36 688.955 Q2061.31 691.617 2064.69 691.617 Q2068.07 691.617 2069.99 688.955 Q2071.93 686.27 2071.93 681.571 M2057.44 672.52 Q2058.78 670.205 2060.82 669.094 Q2062.88 667.96 2065.73 667.96 Q2070.45 667.96 2073.39 671.71 Q2076.35 675.46 2076.35 681.571 Q2076.35 687.682 2073.39 691.432 Q2070.45 695.182 2065.73 695.182 Q2062.88 695.182 2060.82 694.071 Q2058.78 692.936 2057.44 690.622 L2057.44 694.51 L2053.16 694.51 L2053.16 658.492 L2057.44 658.492 L2057.44 672.52 Z" fill="#000000" fill-rule="evenodd" fill-opacity="1" /><path clip-path="url(#clip260)" d="M2103.34 663.793 L2103.34 676.779 L2109.22 676.779 Q2112.49 676.779 2114.27 675.089 Q2116.05 673.399 2116.05 670.274 Q2116.05 667.173 2114.27 665.483 Q2112.49 663.793 2109.22 663.793 L2103.34 663.793 M2098.67 659.95 L2109.22 659.95 Q2115.03 659.95 2118 662.589 Q2120.98 665.205 2120.98 670.274 Q2120.98 675.39 2118 678.006 Q2115.03 680.622 2109.22 680.622 L2103.34 680.622 L2103.34 694.51 L2098.67 694.51 L2098.67 659.95 Z" fill="#000000" fill-rule="evenodd" fill-opacity="1" /><path clip-path="url(#clip260)" d="M2127.25 659.95 L2131.93 659.95 L2131.93 694.51 L2127.25 694.51 L2127.25 659.95 Z" fill="#000000" fill-rule="evenodd" fill-opacity="1" /><path clip-path="url(#clip260)" d="M2138.9 679.626 L2151.37 679.626 L2151.37 683.422 L2138.9 683.422 L2138.9 679.626 Z" fill="#000000" fill-rule="evenodd" fill-opacity="1" /><path clip-path="url(#clip260)" d="M2158.34 659.95 L2180.19 659.95 L2180.19 663.886 L2163.02 663.886 L2163.02 674.117 L2179.48 674.117 L2179.48 678.052 L2163.02 678.052 L2163.02 690.575 L2180.61 690.575 L2180.61 694.51 L2158.34 694.51 L2158.34 659.95 Z" fill="#000000" fill-rule="evenodd" fill-opacity="1" /><path clip-path="url(#clip260)" d="M2186.63 659.95 L2191.65 659.95 L2200.24 672.798 L2208.87 659.95 L2213.9 659.95 L2202.79 676.548 L2214.64 694.51 L2209.62 694.51 L2199.89 679.811 L2190.1 694.51 L2185.06 694.51 L2197.39 676.061 L2186.63 659.95 Z" fill="#000000" fill-rule="evenodd" fill-opacity="1" /><polyline clip-path="url(#clip260)" style="stroke:#ff0000; stroke-linecap:butt; stroke-linejoin:round; stroke-width:4; stroke-opacity:1; fill:none" points="
  1756.99,729.07 1899.06,729.07 
  "/>
<circle clip-path="url(#clip260)" cx="1828.03" cy="729.07" r="23.04" fill="#ffffff" fill-rule="evenodd" fill-opacity="1" stroke="#000000" stroke-opacity="1" stroke-width="4.096"/>
<path clip-path="url(#clip260)" d="M1922.74 711.79 L1929.71 711.79 L1938.53 735.309 L1947.39 711.79 L1954.36 711.79 L1954.36 746.35 L1949.8 746.35 L1949.8 716.003 L1940.89 739.707 L1936.19 739.707 L1927.28 716.003 L1927.28 746.35 L1922.74 746.35 L1922.74 711.79 Z" fill="#000000" fill-rule="evenodd" fill-opacity="1" /><path clip-path="url(#clip260)" d="M1975.24 733.318 Q1970.08 733.318 1968.09 734.499 Q1966.1 735.679 1966.1 738.526 Q1966.1 740.795 1967.58 742.137 Q1969.08 743.457 1971.65 743.457 Q1975.2 743.457 1977.32 740.957 Q1979.48 738.434 1979.48 734.267 L1979.48 733.318 L1975.24 733.318 M1983.74 731.559 L1983.74 746.35 L1979.48 746.35 L1979.48 742.415 Q1978.02 744.776 1975.84 745.911 Q1973.67 747.022 1970.52 747.022 Q1966.54 747.022 1964.18 744.799 Q1961.84 742.554 1961.84 738.804 Q1961.84 734.429 1964.76 732.207 Q1967.7 729.985 1973.51 729.985 L1979.48 729.985 L1979.48 729.568 Q1979.48 726.628 1977.53 725.031 Q1975.61 723.411 1972.12 723.411 Q1969.89 723.411 1967.79 723.943 Q1965.68 724.475 1963.74 725.54 L1963.74 721.605 Q1966.07 720.702 1968.27 720.263 Q1970.47 719.8 1972.56 719.8 Q1978.18 719.8 1980.96 722.716 Q1983.74 725.633 1983.74 731.559 Z" fill="#000000" fill-rule="evenodd" fill-opacity="1" /><path clip-path="url(#clip260)" d="M1996.72 713.064 L1996.72 720.425 L2005.5 720.425 L2005.5 723.735 L1996.72 723.735 L1996.72 737.809 Q1996.72 740.98 1997.58 741.883 Q1998.46 742.786 2001.12 742.786 L2005.5 742.786 L2005.5 746.35 L2001.12 746.35 Q1996.19 746.35 1994.32 744.522 Q1992.44 742.67 1992.44 737.809 L1992.44 723.735 L1989.32 723.735 L1989.32 720.425 L1992.44 720.425 L1992.44 713.064 L1996.72 713.064 Z" fill="#000000" fill-rule="evenodd" fill-opacity="1" /><path clip-path="url(#clip260)" d="M2011.1 710.332 L2015.36 710.332 L2015.36 746.35 L2011.1 746.35 L2011.1 710.332 Z" fill="#000000" fill-rule="evenodd" fill-opacity="1" /><path clip-path="url(#clip260)" d="M2036.05 733.318 Q2030.89 733.318 2028.9 734.499 Q2026.91 735.679 2026.91 738.526 Q2026.91 740.795 2028.39 742.137 Q2029.89 743.457 2032.46 743.457 Q2036 743.457 2038.13 740.957 Q2040.29 738.434 2040.29 734.267 L2040.29 733.318 L2036.05 733.318 M2044.55 731.559 L2044.55 746.35 L2040.29 746.35 L2040.29 742.415 Q2038.83 744.776 2036.65 745.911 Q2034.48 747.022 2031.33 747.022 Q2027.35 747.022 2024.99 744.799 Q2022.65 742.554 2022.65 738.804 Q2022.65 734.429 2025.57 732.207 Q2028.51 729.985 2034.32 729.985 L2040.29 729.985 L2040.29 729.568 Q2040.29 726.628 2038.34 725.031 Q2036.42 723.411 2032.93 723.411 Q2030.7 723.411 2028.6 723.943 Q2026.49 724.475 2024.55 725.54 L2024.55 721.605 Q2026.88 720.702 2029.08 720.263 Q2031.28 719.8 2033.37 719.8 Q2038.99 719.8 2041.77 722.716 Q2044.55 725.633 2044.55 731.559 Z" fill="#000000" fill-rule="evenodd" fill-opacity="1" /><path clip-path="url(#clip260)" d="M2071.93 733.411 Q2071.93 728.712 2069.99 726.05 Q2068.07 723.364 2064.69 723.364 Q2061.31 723.364 2059.36 726.05 Q2057.44 728.712 2057.44 733.411 Q2057.44 738.11 2059.36 740.795 Q2061.31 743.457 2064.69 743.457 Q2068.07 743.457 2069.99 740.795 Q2071.93 738.11 2071.93 733.411 M2057.44 724.36 Q2058.78 722.045 2060.82 720.934 Q2062.88 719.8 2065.73 719.8 Q2070.45 719.8 2073.39 723.55 Q2076.35 727.3 2076.35 733.411 Q2076.35 739.522 2073.39 743.272 Q2070.45 747.022 2065.73 747.022 Q2062.88 747.022 2060.82 745.911 Q2058.78 744.776 2057.44 742.462 L2057.44 746.35 L2053.16 746.35 L2053.16 710.332 L2057.44 710.332 L2057.44 724.36 Z" fill="#000000" fill-rule="evenodd" fill-opacity="1" /><path clip-path="url(#clip260)" d="M2103.34 715.633 L2103.34 728.619 L2109.22 728.619 Q2112.49 728.619 2114.27 726.929 Q2116.05 725.239 2116.05 722.114 Q2116.05 719.013 2114.27 717.323 Q2112.49 715.633 2109.22 715.633 L2103.34 715.633 M2098.67 711.79 L2109.22 711.79 Q2115.03 711.79 2118 714.429 Q2120.98 717.045 2120.98 722.114 Q2120.98 727.23 2118 729.846 Q2115.03 732.462 2109.22 732.462 L2103.34 732.462 L2103.34 746.35 L2098.67 746.35 L2098.67 711.79 Z" fill="#000000" fill-rule="evenodd" fill-opacity="1" /><path clip-path="url(#clip260)" d="M2127.25 711.79 L2131.93 711.79 L2131.93 746.35 L2127.25 746.35 L2127.25 711.79 Z" fill="#000000" fill-rule="evenodd" fill-opacity="1" /><path clip-path="url(#clip260)" d="M2138.9 731.466 L2151.37 731.466 L2151.37 735.262 L2138.9 735.262 L2138.9 731.466 Z" fill="#000000" fill-rule="evenodd" fill-opacity="1" /><path clip-path="url(#clip260)" d="M2163.02 715.633 L2163.02 728.619 L2168.9 728.619 Q2172.16 728.619 2173.94 726.929 Q2175.73 725.239 2175.73 722.114 Q2175.73 719.013 2173.94 717.323 Q2172.16 715.633 2168.9 715.633 L2163.02 715.633 M2158.34 711.79 L2168.9 711.79 Q2174.71 711.79 2177.67 714.429 Q2180.66 717.045 2180.66 722.114 Q2180.66 727.23 2177.67 729.846 Q2174.71 732.462 2168.9 732.462 L2163.02 732.462 L2163.02 746.35 L2158.34 746.35 L2158.34 711.79 Z" fill="#000000" fill-rule="evenodd" fill-opacity="1" /><path clip-path="url(#clip260)" d="M2212.81 714.452 L2212.81 719.383 Q2210.45 717.184 2207.76 716.096 Q2205.1 715.008 2202.09 715.008 Q2196.17 715.008 2193.02 718.642 Q2189.87 722.253 2189.87 729.105 Q2189.87 735.934 2193.02 739.568 Q2196.17 743.179 2202.09 743.179 Q2205.1 743.179 2207.76 742.091 Q2210.45 741.003 2212.81 738.804 L2212.81 743.688 Q2210.36 745.355 2207.6 746.188 Q2204.87 747.022 2201.81 747.022 Q2193.97 747.022 2189.45 742.23 Q2184.94 737.415 2184.94 729.105 Q2184.94 720.772 2189.45 715.98 Q2193.97 711.165 2201.81 711.165 Q2204.92 711.165 2207.65 711.999 Q2210.4 712.809 2212.81 714.452 Z" fill="#000000" fill-rule="evenodd" fill-opacity="1" /><polyline clip-path="url(#clip260)" style="stroke:#ff0000; stroke-linecap:butt; stroke-linejoin:round; stroke-width:4; stroke-opacity:1; fill:none" points="
  1756.99,780.91 1899.06,780.91 
  "/>
<path clip-path="url(#clip260)" d="M1828.03 755.31 L1802.43 780.91 L1828.03 806.51 L1853.63 780.91 L1828.03 755.31 Z" fill="#ffffff" fill-rule="evenodd" fill-opacity="1" stroke="#000000" stroke-opacity="1" stroke-width="4.096"/>
<path clip-path="url(#clip260)" d="M1922.74 763.63 L1929.71 763.63 L1938.53 787.149 L1947.39 763.63 L1954.36 763.63 L1954.36 798.19 L1949.8 798.19 L1949.8 767.843 L1940.89 791.547 L1936.19 791.547 L1927.28 767.843 L1927.28 798.19 L1922.74 798.19 L1922.74 763.63 Z" fill="#000000" fill-rule="evenodd" fill-opacity="1" /><path clip-path="url(#clip260)" d="M1975.24 785.158 Q1970.08 785.158 1968.09 786.339 Q1966.1 787.519 1966.1 790.366 Q1966.1 792.635 1967.58 793.977 Q1969.08 795.297 1971.65 795.297 Q1975.2 795.297 1977.32 792.797 Q1979.48 790.274 1979.48 786.107 L1979.48 785.158 L1975.24 785.158 M1983.74 783.399 L1983.74 798.19 L1979.48 798.19 L1979.48 794.255 Q1978.02 796.616 1975.84 797.751 Q1973.67 798.862 1970.52 798.862 Q1966.54 798.862 1964.18 796.639 Q1961.84 794.394 1961.84 790.644 Q1961.84 786.269 1964.76 784.047 Q1967.7 781.825 1973.51 781.825 L1979.48 781.825 L1979.48 781.408 Q1979.48 778.468 1977.53 776.871 Q1975.61 775.251 1972.12 775.251 Q1969.89 775.251 1967.79 775.783 Q1965.68 776.315 1963.74 777.38 L1963.74 773.445 Q1966.07 772.542 1968.27 772.103 Q1970.47 771.64 1972.56 771.64 Q1978.18 771.64 1980.96 774.556 Q1983.74 777.473 1983.74 783.399 Z" fill="#000000" fill-rule="evenodd" fill-opacity="1" /><path clip-path="url(#clip260)" d="M1996.72 764.904 L1996.72 772.265 L2005.5 772.265 L2005.5 775.575 L1996.72 775.575 L1996.72 789.649 Q1996.72 792.82 1997.58 793.723 Q1998.46 794.626 2001.12 794.626 L2005.5 794.626 L2005.5 798.19 L2001.12 798.19 Q1996.19 798.19 1994.32 796.362 Q1992.44 794.51 1992.44 789.649 L1992.44 775.575 L1989.32 775.575 L1989.32 772.265 L1992.44 772.265 L1992.44 764.904 L1996.72 764.904 Z" fill="#000000" fill-rule="evenodd" fill-opacity="1" /><path clip-path="url(#clip260)" d="M2011.1 762.172 L2015.36 762.172 L2015.36 798.19 L2011.1 798.19 L2011.1 762.172 Z" fill="#000000" fill-rule="evenodd" fill-opacity="1" /><path clip-path="url(#clip260)" d="M2036.05 785.158 Q2030.89 785.158 2028.9 786.339 Q2026.91 787.519 2026.91 790.366 Q2026.91 792.635 2028.39 793.977 Q2029.89 795.297 2032.46 795.297 Q2036 795.297 2038.13 792.797 Q2040.29 790.274 2040.29 786.107 L2040.29 785.158 L2036.05 785.158 M2044.55 783.399 L2044.55 798.19 L2040.29 798.19 L2040.29 794.255 Q2038.83 796.616 2036.65 797.751 Q2034.48 798.862 2031.33 798.862 Q2027.35 798.862 2024.99 796.639 Q2022.65 794.394 2022.65 790.644 Q2022.65 786.269 2025.57 784.047 Q2028.51 781.825 2034.32 781.825 L2040.29 781.825 L2040.29 781.408 Q2040.29 778.468 2038.34 776.871 Q2036.42 775.251 2032.93 775.251 Q2030.7 775.251 2028.6 775.783 Q2026.49 776.315 2024.55 777.38 L2024.55 773.445 Q2026.88 772.542 2029.08 772.103 Q2031.28 771.64 2033.37 771.64 Q2038.99 771.64 2041.77 774.556 Q2044.55 777.473 2044.55 783.399 Z" fill="#000000" fill-rule="evenodd" fill-opacity="1" /><path clip-path="url(#clip260)" d="M2071.93 785.251 Q2071.93 780.552 2069.99 777.89 Q2068.07 775.204 2064.69 775.204 Q2061.31 775.204 2059.36 777.89 Q2057.44 780.552 2057.44 785.251 Q2057.44 789.95 2059.36 792.635 Q2061.31 795.297 2064.69 795.297 Q2068.07 795.297 2069.99 792.635 Q2071.93 789.95 2071.93 785.251 M2057.44 776.2 Q2058.78 773.885 2060.82 772.774 Q2062.88 771.64 2065.73 771.64 Q2070.45 771.64 2073.39 775.39 Q2076.35 779.14 2076.35 785.251 Q2076.35 791.362 2073.39 795.112 Q2070.45 798.862 2065.73 798.862 Q2062.88 798.862 2060.82 797.751 Q2058.78 796.616 2057.44 794.302 L2057.44 798.19 L2053.16 798.19 L2053.16 762.172 L2057.44 762.172 L2057.44 776.2 Z" fill="#000000" fill-rule="evenodd" fill-opacity="1" /><path clip-path="url(#clip260)" d="M2103.34 767.473 L2103.34 780.459 L2109.22 780.459 Q2112.49 780.459 2114.27 778.769 Q2116.05 777.079 2116.05 773.954 Q2116.05 770.853 2114.27 769.163 Q2112.49 767.473 2109.22 767.473 L2103.34 767.473 M2098.67 763.63 L2109.22 763.63 Q2115.03 763.63 2118 766.269 Q2120.98 768.885 2120.98 773.954 Q2120.98 779.07 2118 781.686 Q2115.03 784.302 2109.22 784.302 L2103.34 784.302 L2103.34 798.19 L2098.67 798.19 L2098.67 763.63 Z" fill="#000000" fill-rule="evenodd" fill-opacity="1" /><path clip-path="url(#clip260)" d="M2127.25 763.63 L2131.93 763.63 L2131.93 798.19 L2127.25 798.19 L2127.25 763.63 Z" fill="#000000" fill-rule="evenodd" fill-opacity="1" /><path clip-path="url(#clip260)" d="M2138.9 783.306 L2151.37 783.306 L2151.37 787.102 L2138.9 787.102 L2138.9 783.306 Z" fill="#000000" fill-rule="evenodd" fill-opacity="1" /><path clip-path="url(#clip260)" d="M2158.34 763.63 L2163.02 763.63 L2163.02 798.19 L2158.34 798.19 L2158.34 763.63 Z" fill="#000000" fill-rule="evenodd" fill-opacity="1" /><path clip-path="url(#clip260)" d="M2172.32 763.63 L2179.29 763.63 L2188.11 787.149 L2196.98 763.63 L2203.94 763.63 L2203.94 798.19 L2199.38 798.19 L2199.38 767.843 L2190.47 791.547 L2185.77 791.547 L2176.86 767.843 L2176.86 798.19 L2172.32 798.19 L2172.32 763.63 Z" fill="#000000" fill-rule="evenodd" fill-opacity="1" /><path clip-path="url(#clip260)" d="M2214.45 794.255 L2222.09 794.255 L2222.09 767.89 L2213.78 769.556 L2213.78 765.297 L2222.05 763.63 L2226.72 763.63 L2226.72 794.255 L2234.36 794.255 L2234.36 798.19 L2214.45 798.19 L2214.45 794.255 Z" fill="#000000" fill-rule="evenodd" fill-opacity="1" /><polyline clip-path="url(#clip260)" style="stroke:#ff0000; stroke-linecap:butt; stroke-linejoin:round; stroke-width:4; stroke-opacity:1; fill:none" points="
  1756.99,832.75 1899.06,832.75 
  "/>
<path clip-path="url(#clip260)" d="M1802.43 807.15 L1802.43 858.35 L1853.63 858.35 L1853.63 807.15 L1802.43 807.15 Z" fill="#ffffff" fill-rule="evenodd" fill-opacity="1" stroke="#000000" stroke-opacity="1" stroke-width="4.096"/>
<path clip-path="url(#clip260)" d="M1922.74 815.47 L1929.71 815.47 L1938.53 838.989 L1947.39 815.47 L1954.36 815.47 L1954.36 850.03 L1949.8 850.03 L1949.8 819.683 L1940.89 843.387 L1936.19 843.387 L1927.28 819.683 L1927.28 850.03 L1922.74 850.03 L1922.74 815.47 Z" fill="#000000" fill-rule="evenodd" fill-opacity="1" /><path clip-path="url(#clip260)" d="M1975.24 836.998 Q1970.08 836.998 1968.09 838.179 Q1966.1 839.359 1966.1 842.206 Q1966.1 844.475 1967.58 845.817 Q1969.08 847.137 1971.65 847.137 Q1975.2 847.137 1977.32 844.637 Q1979.48 842.114 1979.48 837.947 L1979.48 836.998 L1975.24 836.998 M1983.74 835.239 L1983.74 850.03 L1979.48 850.03 L1979.48 846.095 Q1978.02 848.456 1975.84 849.591 Q1973.67 850.702 1970.52 850.702 Q1966.54 850.702 1964.18 848.479 Q1961.84 846.234 1961.84 842.484 Q1961.84 838.109 1964.76 835.887 Q1967.7 833.665 1973.51 833.665 L1979.48 833.665 L1979.48 833.248 Q1979.48 830.308 1977.53 828.711 Q1975.61 827.091 1972.12 827.091 Q1969.89 827.091 1967.79 827.623 Q1965.68 828.155 1963.74 829.22 L1963.74 825.285 Q1966.07 824.382 1968.27 823.943 Q1970.47 823.48 1972.56 823.48 Q1978.18 823.48 1980.96 826.396 Q1983.74 829.313 1983.74 835.239 Z" fill="#000000" fill-rule="evenodd" fill-opacity="1" /><path clip-path="url(#clip260)" d="M1996.72 816.744 L1996.72 824.105 L2005.5 824.105 L2005.5 827.415 L1996.72 827.415 L1996.72 841.489 Q1996.72 844.66 1997.58 845.563 Q1998.46 846.466 2001.12 846.466 L2005.5 846.466 L2005.5 850.03 L2001.12 850.03 Q1996.19 850.03 1994.32 848.202 Q1992.44 846.35 1992.44 841.489 L1992.44 827.415 L1989.32 827.415 L1989.32 824.105 L1992.44 824.105 L1992.44 816.744 L1996.72 816.744 Z" fill="#000000" fill-rule="evenodd" fill-opacity="1" /><path clip-path="url(#clip260)" d="M2011.1 814.012 L2015.36 814.012 L2015.36 850.03 L2011.1 850.03 L2011.1 814.012 Z" fill="#000000" fill-rule="evenodd" fill-opacity="1" /><path clip-path="url(#clip260)" d="M2036.05 836.998 Q2030.89 836.998 2028.9 838.179 Q2026.91 839.359 2026.91 842.206 Q2026.91 844.475 2028.39 845.817 Q2029.89 847.137 2032.46 847.137 Q2036 847.137 2038.13 844.637 Q2040.29 842.114 2040.29 837.947 L2040.29 836.998 L2036.05 836.998 M2044.55 835.239 L2044.55 850.03 L2040.29 850.03 L2040.29 846.095 Q2038.83 848.456 2036.65 849.591 Q2034.48 850.702 2031.33 850.702 Q2027.35 850.702 2024.99 848.479 Q2022.65 846.234 2022.65 842.484 Q2022.65 838.109 2025.57 835.887 Q2028.51 833.665 2034.32 833.665 L2040.29 833.665 L2040.29 833.248 Q2040.29 830.308 2038.34 828.711 Q2036.42 827.091 2032.93 827.091 Q2030.7 827.091 2028.6 827.623 Q2026.49 828.155 2024.55 829.22 L2024.55 825.285 Q2026.88 824.382 2029.08 823.943 Q2031.28 823.48 2033.37 823.48 Q2038.99 823.48 2041.77 826.396 Q2044.55 829.313 2044.55 835.239 Z" fill="#000000" fill-rule="evenodd" fill-opacity="1" /><path clip-path="url(#clip260)" d="M2071.93 837.091 Q2071.93 832.392 2069.99 829.73 Q2068.07 827.044 2064.69 827.044 Q2061.31 827.044 2059.36 829.73 Q2057.44 832.392 2057.44 837.091 Q2057.44 841.79 2059.36 844.475 Q2061.31 847.137 2064.69 847.137 Q2068.07 847.137 2069.99 844.475 Q2071.93 841.79 2071.93 837.091 M2057.44 828.04 Q2058.78 825.725 2060.82 824.614 Q2062.88 823.48 2065.73 823.48 Q2070.45 823.48 2073.39 827.23 Q2076.35 830.98 2076.35 837.091 Q2076.35 843.202 2073.39 846.952 Q2070.45 850.702 2065.73 850.702 Q2062.88 850.702 2060.82 849.591 Q2058.78 848.456 2057.44 846.142 L2057.44 850.03 L2053.16 850.03 L2053.16 814.012 L2057.44 814.012 L2057.44 828.04 Z" fill="#000000" fill-rule="evenodd" fill-opacity="1" /><path clip-path="url(#clip260)" d="M2103.34 819.313 L2103.34 832.299 L2109.22 832.299 Q2112.49 832.299 2114.27 830.609 Q2116.05 828.919 2116.05 825.794 Q2116.05 822.693 2114.27 821.003 Q2112.49 819.313 2109.22 819.313 L2103.34 819.313 M2098.67 815.47 L2109.22 815.47 Q2115.03 815.47 2118 818.109 Q2120.98 820.725 2120.98 825.794 Q2120.98 830.91 2118 833.526 Q2115.03 836.142 2109.22 836.142 L2103.34 836.142 L2103.34 850.03 L2098.67 850.03 L2098.67 815.47 Z" fill="#000000" fill-rule="evenodd" fill-opacity="1" /><path clip-path="url(#clip260)" d="M2127.25 815.47 L2131.93 815.47 L2131.93 850.03 L2127.25 850.03 L2127.25 815.47 Z" fill="#000000" fill-rule="evenodd" fill-opacity="1" /><path clip-path="url(#clip260)" d="M2138.9 835.146 L2151.37 835.146 L2151.37 838.942 L2138.9 838.942 L2138.9 835.146 Z" fill="#000000" fill-rule="evenodd" fill-opacity="1" /><path clip-path="url(#clip260)" d="M2158.34 815.47 L2163.02 815.47 L2163.02 850.03 L2158.34 850.03 L2158.34 815.47 Z" fill="#000000" fill-rule="evenodd" fill-opacity="1" /><path clip-path="url(#clip260)" d="M2172.32 815.47 L2179.29 815.47 L2188.11 838.989 L2196.98 815.47 L2203.94 815.47 L2203.94 850.03 L2199.38 850.03 L2199.38 819.683 L2190.47 843.387 L2185.77 843.387 L2176.86 819.683 L2176.86 850.03 L2172.32 850.03 L2172.32 815.47 Z" fill="#000000" fill-rule="evenodd" fill-opacity="1" /><path clip-path="url(#clip260)" d="M2217.67 846.095 L2233.99 846.095 L2233.99 850.03 L2212.05 850.03 L2212.05 846.095 Q2214.71 843.341 2219.29 838.711 Q2223.9 834.058 2225.08 832.716 Q2227.32 830.193 2228.2 828.456 Q2229.11 826.697 2229.11 825.007 Q2229.11 822.253 2227.16 820.517 Q2225.24 818.781 2222.14 818.781 Q2219.94 818.781 2217.49 819.544 Q2215.05 820.308 2212.28 821.859 L2212.28 817.137 Q2215.1 816.003 2217.55 815.424 Q2220.01 814.845 2222.05 814.845 Q2227.42 814.845 2230.61 817.531 Q2233.8 820.216 2233.8 824.706 Q2233.8 826.836 2232.99 828.757 Q2232.21 830.655 2230.1 833.248 Q2229.52 833.919 2226.42 837.137 Q2223.32 840.331 2217.67 846.095 Z" fill="#000000" fill-rule="evenodd" fill-opacity="1" /></svg>
