<?xml version="1.0" encoding="utf-8"?>
<svg xmlns="http://www.w3.org/2000/svg" xmlns:xlink="http://www.w3.org/1999/xlink" width="600" height="400" viewBox="0 0 2400 1600">
<defs>
  <clipPath id="clip660">
    <rect x="0" y="0" width="2400" height="1600"/>
  </clipPath>
</defs>
<path clip-path="url(#clip660)" d="
M0 1600 L2400 1600 L2400 0 L0 0  Z
  " fill="#ffffff" fill-rule="evenodd" fill-opacity="1"/>
<defs>
  <clipPath id="clip661">
    <rect x="480" y="0" width="1681" height="1600"/>
  </clipPath>
</defs>
<path clip-path="url(#clip660)" d="
M252.764 1410.9 L2352.76 1410.9 L2352.76 47.2441 L252.764 47.2441  Z
  " fill="#ffffff" fill-rule="evenodd" fill-opacity="1"/>
<defs>
  <clipPath id="clip662">
    <rect x="252" y="47" width="2101" height="1365"/>
  </clipPath>
</defs>
<polyline clip-path="url(#clip662)" style="stroke:#000000; stroke-linecap:butt; stroke-linejoin:round; stroke-width:2; stroke-opacity:0.1; fill:none" points="
  322.936,1410.9 322.936,47.2441 
  "/>
<polyline clip-path="url(#clip662)" style="stroke:#000000; stroke-linecap:butt; stroke-linejoin:round; stroke-width:2; stroke-opacity:0.1; fill:none" points="
  1480.28,1410.9 1480.28,47.2441 
  "/>
<polyline clip-path="url(#clip660)" style="stroke:#000000; stroke-linecap:butt; stroke-linejoin:round; stroke-width:4; stroke-opacity:1; fill:none" points="
  252.764,1410.9 2352.76,1410.9 
  "/>
<polyline clip-path="url(#clip660)" style="stroke:#000000; stroke-linecap:butt; stroke-linejoin:round; stroke-width:4; stroke-opacity:1; fill:none" points="
  252.764,47.2441 2352.76,47.2441 
  "/>
<polyline clip-path="url(#clip660)" style="stroke:#000000; stroke-linecap:butt; stroke-linejoin:round; stroke-width:4; stroke-opacity:1; fill:none" points="
  322.936,1410.9 322.936,1392 
  "/>
<polyline clip-path="url(#clip660)" style="stroke:#000000; stroke-linecap:butt; stroke-linejoin:round; stroke-width:4; stroke-opacity:1; fill:none" points="
  1480.28,1410.9 1480.28,1392 
  "/>
<path clip-path="url(#clip660)" d="M272.355 1485.02 L279.994 1485.02 L279.994 1458.66 L271.684 1460.32 L271.684 1456.06 L279.948 1454.4 L284.624 1454.4 L284.624 1485.02 L292.263 1485.02 L292.263 1488.96 L272.355 1488.96 L272.355 1485.02 Z" fill="#000000" fill-rule="evenodd" fill-opacity="1" /><path clip-path="url(#clip660)" d="M311.707 1457.48 Q308.096 1457.48 306.267 1461.04 Q304.462 1464.58 304.462 1471.71 Q304.462 1478.82 306.267 1482.38 Q308.096 1485.92 311.707 1485.92 Q315.341 1485.92 317.147 1482.38 Q318.975 1478.82 318.975 1471.71 Q318.975 1464.58 317.147 1461.04 Q315.341 1457.48 311.707 1457.48 M311.707 1453.77 Q317.517 1453.77 320.573 1458.38 Q323.651 1462.96 323.651 1471.71 Q323.651 1480.44 320.573 1485.04 Q317.517 1489.63 311.707 1489.63 Q305.897 1489.63 302.818 1485.04 Q299.762 1480.44 299.762 1471.71 Q299.762 1462.96 302.818 1458.38 Q305.897 1453.77 311.707 1453.77 Z" fill="#000000" fill-rule="evenodd" fill-opacity="1" /><path clip-path="url(#clip660)" d="M323.651 1447.87 L347.763 1447.87 L347.763 1451.07 L323.651 1451.07 L323.651 1447.87 Z" fill="#000000" fill-rule="evenodd" fill-opacity="1" /><path clip-path="url(#clip660)" d="M366.401 1436.78 L356.809 1451.77 L366.401 1451.77 L366.401 1436.78 M365.405 1433.47 L370.182 1433.47 L370.182 1451.77 L374.188 1451.77 L374.188 1454.93 L370.182 1454.93 L370.182 1461.55 L366.401 1461.55 L366.401 1454.93 L353.725 1454.93 L353.725 1451.26 L365.405 1433.47 Z" fill="#000000" fill-rule="evenodd" fill-opacity="1" /><path clip-path="url(#clip660)" d="M1430.17 1485.02 L1437.8 1485.02 L1437.8 1458.66 L1429.49 1460.32 L1429.49 1456.06 L1437.76 1454.4 L1442.43 1454.4 L1442.43 1485.02 L1450.07 1485.02 L1450.07 1488.96 L1430.17 1488.96 L1430.17 1485.02 Z" fill="#000000" fill-rule="evenodd" fill-opacity="1" /><path clip-path="url(#clip660)" d="M1469.52 1457.48 Q1465.91 1457.48 1464.08 1461.04 Q1462.27 1464.58 1462.27 1471.71 Q1462.27 1478.82 1464.08 1482.38 Q1465.91 1485.92 1469.52 1485.92 Q1473.15 1485.92 1474.96 1482.38 Q1476.79 1478.82 1476.79 1471.71 Q1476.79 1464.58 1474.96 1461.04 Q1473.15 1457.48 1469.52 1457.48 M1469.52 1453.77 Q1475.33 1453.77 1478.38 1458.38 Q1481.46 1462.96 1481.46 1471.71 Q1481.46 1480.44 1478.38 1485.04 Q1475.33 1489.63 1469.52 1489.63 Q1463.71 1489.63 1460.63 1485.04 Q1457.57 1480.44 1457.57 1471.71 Q1457.57 1462.96 1460.63 1458.38 Q1463.71 1453.77 1469.52 1453.77 Z" fill="#000000" fill-rule="evenodd" fill-opacity="1" /><path clip-path="url(#clip660)" d="M1481.46 1447.87 L1505.57 1447.87 L1505.57 1451.07 L1481.46 1451.07 L1481.46 1447.87 Z" fill="#000000" fill-rule="evenodd" fill-opacity="1" /><path clip-path="url(#clip660)" d="M1525.28 1446.41 Q1528.01 1446.99 1529.53 1448.83 Q1531.08 1450.68 1531.08 1453.38 Q1531.08 1457.54 1528.22 1459.82 Q1525.36 1462.09 1520.09 1462.09 Q1518.32 1462.09 1516.44 1461.73 Q1514.58 1461.4 1512.59 1460.7 L1512.59 1457.03 Q1514.17 1457.95 1516.05 1458.42 Q1517.93 1458.89 1519.98 1458.89 Q1523.55 1458.89 1525.41 1457.48 Q1527.3 1456.07 1527.3 1453.38 Q1527.3 1450.9 1525.55 1449.51 Q1523.82 1448.1 1520.71 1448.1 L1517.44 1448.1 L1517.44 1444.98 L1520.86 1444.98 Q1523.67 1444.98 1525.15 1443.87 Q1526.64 1442.74 1526.64 1440.63 Q1526.64 1438.47 1525.1 1437.32 Q1523.57 1436.16 1520.71 1436.16 Q1519.15 1436.16 1517.37 1436.49 Q1515.58 1436.83 1513.43 1437.55 L1513.43 1434.16 Q1515.6 1433.56 1517.48 1433.26 Q1519.38 1432.96 1521.05 1432.96 Q1525.38 1432.96 1527.9 1434.93 Q1530.42 1436.89 1530.42 1440.24 Q1530.42 1442.57 1529.08 1444.19 Q1527.75 1445.79 1525.28 1446.41 Z" fill="#000000" fill-rule="evenodd" fill-opacity="1" /><path clip-path="url(#clip660)" d="M915.2 1526.67 L945.246 1526.67 L945.246 1532.08 L921.629 1532.08 L921.629 1546.14 L944.259 1546.14 L944.259 1551.56 L921.629 1551.56 L921.629 1568.77 L945.819 1568.77 L945.819 1574.19 L915.2 1574.19 L915.2 1526.67 Z" fill="#000000" fill-rule="evenodd" fill-opacity="1" /><path clip-path="url(#clip660)" d="M985.764 1538.54 L972.873 1555.88 L986.432 1574.19 L979.525 1574.19 L969.149 1560.18 L958.773 1574.19 L951.866 1574.19 L965.712 1555.53 L953.044 1538.54 L959.951 1538.54 L969.404 1551.24 L978.857 1538.54 L985.764 1538.54 Z" fill="#000000" fill-rule="evenodd" fill-opacity="1" /><path clip-path="url(#clip660)" d="M1023.19 1554.9 L1023.19 1557.76 L996.267 1557.76 Q996.649 1563.81 999.896 1566.99 Q1003.17 1570.14 1009 1570.14 Q1012.37 1570.14 1015.52 1569.32 Q1018.71 1568.49 1021.83 1566.83 L1021.83 1572.37 Q1018.67 1573.71 1015.36 1574.41 Q1012.05 1575.11 1008.65 1575.11 Q1000.12 1575.11 995.121 1570.14 Q990.156 1565.18 990.156 1556.71 Q990.156 1547.96 994.867 1542.83 Q999.609 1537.68 1007.63 1537.68 Q1014.82 1537.68 1018.99 1542.33 Q1023.19 1546.94 1023.19 1554.9 M1017.34 1553.18 Q1017.27 1548.37 1014.63 1545.51 Q1012.02 1542.64 1007.69 1542.64 Q1002.79 1542.64 999.832 1545.41 Q996.904 1548.18 996.458 1553.21 L1017.34 1553.18 Z" fill="#000000" fill-rule="evenodd" fill-opacity="1" /><path clip-path="url(#clip660)" d="M1058.46 1539.91 L1058.46 1545.38 Q1055.98 1544.01 1053.46 1543.34 Q1050.98 1542.64 1048.43 1542.64 Q1042.74 1542.64 1039.59 1546.27 Q1036.43 1549.87 1036.43 1556.39 Q1036.43 1562.92 1039.59 1566.55 Q1042.74 1570.14 1048.43 1570.14 Q1050.98 1570.14 1053.46 1569.47 Q1055.98 1568.77 1058.46 1567.41 L1058.46 1572.82 Q1056.01 1573.96 1053.37 1574.54 Q1050.76 1575.11 1047.8 1575.11 Q1039.74 1575.11 1035 1570.05 Q1030.26 1564.99 1030.26 1556.39 Q1030.26 1547.67 1035.03 1542.68 Q1039.84 1537.68 1048.18 1537.68 Q1050.88 1537.68 1053.46 1538.25 Q1056.04 1538.79 1058.46 1539.91 Z" fill="#000000" fill-rule="evenodd" fill-opacity="1" /><path clip-path="url(#clip660)" d="M1068.04 1560.12 L1068.04 1538.54 L1073.9 1538.54 L1073.9 1559.89 Q1073.9 1564.96 1075.87 1567.5 Q1077.84 1570.02 1081.79 1570.02 Q1086.53 1570.02 1089.27 1566.99 Q1092.04 1563.97 1092.04 1558.75 L1092.04 1538.54 L1097.9 1538.54 L1097.9 1574.19 L1092.04 1574.19 L1092.04 1568.71 Q1089.91 1571.96 1087.07 1573.55 Q1084.27 1575.11 1080.55 1575.11 Q1074.41 1575.11 1071.22 1571.29 Q1068.04 1567.47 1068.04 1560.12 M1082.78 1537.68 L1082.78 1537.68 Z" fill="#000000" fill-rule="evenodd" fill-opacity="1" /><path clip-path="url(#clip660)" d="M1115.75 1528.42 L1115.75 1538.54 L1127.81 1538.54 L1127.81 1543.09 L1115.75 1543.09 L1115.75 1562.44 Q1115.75 1566.8 1116.93 1568.04 Q1118.14 1569.28 1121.8 1569.28 L1127.81 1569.28 L1127.81 1574.19 L1121.8 1574.19 Q1115.02 1574.19 1112.44 1571.67 Q1109.86 1569.12 1109.86 1562.44 L1109.86 1543.09 L1105.57 1543.09 L1105.57 1538.54 L1109.86 1538.54 L1109.86 1528.42 L1115.75 1528.42 Z" fill="#000000" fill-rule="evenodd" fill-opacity="1" /><path clip-path="url(#clip660)" d="M1135.52 1538.54 L1141.37 1538.54 L1141.37 1574.19 L1135.52 1574.19 L1135.52 1538.54 M1135.52 1524.66 L1141.37 1524.66 L1141.37 1532.08 L1135.52 1532.08 L1135.52 1524.66 Z" fill="#000000" fill-rule="evenodd" fill-opacity="1" /><path clip-path="url(#clip660)" d="M1167.44 1542.64 Q1162.73 1542.64 1159.99 1546.34 Q1157.26 1550 1157.26 1556.39 Q1157.26 1562.79 1159.96 1566.48 Q1162.7 1570.14 1167.44 1570.14 Q1172.12 1570.14 1174.86 1566.45 Q1177.59 1562.76 1177.59 1556.39 Q1177.59 1550.06 1174.86 1546.37 Q1172.12 1542.64 1167.44 1542.64 M1167.44 1537.68 Q1175.08 1537.68 1179.44 1542.64 Q1183.8 1547.61 1183.8 1556.39 Q1183.8 1565.15 1179.44 1570.14 Q1175.08 1575.11 1167.44 1575.11 Q1159.77 1575.11 1155.41 1570.14 Q1151.08 1565.15 1151.08 1556.39 Q1151.08 1547.61 1155.41 1542.64 Q1159.77 1537.68 1167.44 1537.68 Z" fill="#000000" fill-rule="evenodd" fill-opacity="1" /><path clip-path="url(#clip660)" d="M1223.14 1552.67 L1223.14 1574.19 L1217.28 1574.19 L1217.28 1552.86 Q1217.28 1547.8 1215.31 1545.29 Q1213.34 1542.77 1209.39 1542.77 Q1204.65 1542.77 1201.91 1545.79 Q1199.17 1548.82 1199.17 1554.04 L1199.17 1574.19 L1193.29 1574.19 L1193.29 1538.54 L1199.17 1538.54 L1199.17 1544.08 Q1201.27 1540.86 1204.11 1539.27 Q1206.97 1537.68 1210.7 1537.68 Q1216.84 1537.68 1219.99 1541.5 Q1223.14 1545.29 1223.14 1552.67 Z" fill="#000000" fill-rule="evenodd" fill-opacity="1" /><path clip-path="url(#clip660)" d="M1261.34 1528.42 L1261.34 1538.54 L1273.4 1538.54 L1273.4 1543.09 L1261.34 1543.09 L1261.34 1562.44 Q1261.34 1566.8 1262.51 1568.04 Q1263.72 1569.28 1267.38 1569.28 L1273.4 1569.28 L1273.4 1574.19 L1267.38 1574.19 Q1260.6 1574.19 1258.02 1571.67 Q1255.45 1569.12 1255.45 1562.44 L1255.45 1543.09 L1251.15 1543.09 L1251.15 1538.54 L1255.45 1538.54 L1255.45 1528.42 L1261.34 1528.42 Z" fill="#000000" fill-rule="evenodd" fill-opacity="1" /><path clip-path="url(#clip660)" d="M1281.1 1538.54 L1286.96 1538.54 L1286.96 1574.19 L1281.1 1574.19 L1281.1 1538.54 M1281.1 1524.66 L1286.96 1524.66 L1286.96 1532.08 L1281.1 1532.08 L1281.1 1524.66 Z" fill="#000000" fill-rule="evenodd" fill-opacity="1" /><path clip-path="url(#clip660)" d="M1326.97 1545.38 Q1329.16 1541.43 1332.22 1539.56 Q1335.27 1537.68 1339.41 1537.68 Q1344.98 1537.68 1348 1541.59 Q1351.03 1545.48 1351.03 1552.67 L1351.03 1574.19 L1345.14 1574.19 L1345.14 1552.86 Q1345.14 1547.74 1343.33 1545.25 Q1341.51 1542.77 1337.79 1542.77 Q1333.24 1542.77 1330.59 1545.79 Q1327.95 1548.82 1327.95 1554.04 L1327.95 1574.19 L1322.06 1574.19 L1322.06 1552.86 Q1322.06 1547.7 1320.25 1545.25 Q1318.44 1542.77 1314.65 1542.77 Q1310.16 1542.77 1307.52 1545.83 Q1304.88 1548.85 1304.88 1554.04 L1304.88 1574.19 L1298.99 1574.19 L1298.99 1538.54 L1304.88 1538.54 L1304.88 1544.08 Q1306.88 1540.8 1309.68 1539.24 Q1312.48 1537.68 1316.33 1537.68 Q1320.22 1537.68 1322.92 1539.65 Q1325.66 1541.62 1326.97 1545.38 Z" fill="#000000" fill-rule="evenodd" fill-opacity="1" /><path clip-path="url(#clip660)" d="M1393.2 1554.9 L1393.2 1557.76 L1366.27 1557.76 Q1366.66 1563.81 1369.9 1566.99 Q1373.18 1570.14 1379.01 1570.14 Q1382.38 1570.14 1385.53 1569.32 Q1388.71 1568.49 1391.83 1566.83 L1391.83 1572.37 Q1388.68 1573.71 1385.37 1574.41 Q1382.06 1575.11 1378.66 1575.11 Q1370.13 1575.11 1365.13 1570.14 Q1360.16 1565.18 1360.16 1556.71 Q1360.16 1547.96 1364.87 1542.83 Q1369.62 1537.68 1377.64 1537.68 Q1384.83 1537.68 1389 1542.33 Q1393.2 1546.94 1393.2 1554.9 M1387.34 1553.18 Q1387.28 1548.37 1384.64 1545.51 Q1382.03 1542.64 1377.7 1542.64 Q1372.8 1542.64 1369.84 1545.41 Q1366.91 1548.18 1366.46 1553.21 L1387.34 1553.18 Z" fill="#000000" fill-rule="evenodd" fill-opacity="1" /><path clip-path="url(#clip660)" d="M1437.6 1524.72 Q1433.34 1532.04 1431.27 1539.21 Q1429.2 1546.37 1429.2 1553.72 Q1429.2 1561.07 1431.27 1568.3 Q1433.37 1575.49 1437.6 1582.78 L1432.51 1582.78 Q1427.73 1575.3 1425.35 1568.07 Q1422.99 1560.85 1422.99 1553.72 Q1422.99 1546.62 1425.35 1539.43 Q1427.7 1532.24 1432.51 1524.72 L1437.6 1524.72 Z" fill="#000000" fill-rule="evenodd" fill-opacity="1" /><path clip-path="url(#clip660)" d="M1471.69 1539.59 L1471.69 1545.13 Q1469.21 1543.85 1466.53 1543.22 Q1463.86 1542.58 1461 1542.58 Q1456.63 1542.58 1454.44 1543.92 Q1452.27 1545.25 1452.27 1547.93 Q1452.27 1549.96 1453.83 1551.14 Q1455.39 1552.29 1460.1 1553.34 L1462.11 1553.78 Q1468.35 1555.12 1470.96 1557.57 Q1473.6 1559.99 1473.6 1564.35 Q1473.6 1569.32 1469.65 1572.21 Q1465.74 1575.11 1458.86 1575.11 Q1456 1575.11 1452.88 1574.54 Q1449.79 1573.99 1446.35 1572.88 L1446.35 1566.83 Q1449.6 1568.52 1452.75 1569.38 Q1455.9 1570.21 1458.99 1570.21 Q1463.13 1570.21 1465.36 1568.81 Q1467.58 1567.37 1467.58 1564.8 Q1467.58 1562.41 1465.96 1561.14 Q1464.37 1559.86 1458.93 1558.68 L1456.89 1558.21 Q1451.45 1557.06 1449.03 1554.71 Q1446.61 1552.32 1446.61 1548.18 Q1446.61 1543.15 1450.17 1540.42 Q1453.74 1537.68 1460.3 1537.68 Q1463.54 1537.68 1466.41 1538.16 Q1469.27 1538.63 1471.69 1539.59 Z" fill="#000000" fill-rule="evenodd" fill-opacity="1" /><path clip-path="url(#clip660)" d="M1508.58 1539.91 L1508.58 1545.38 Q1506.1 1544.01 1503.58 1543.34 Q1501.1 1542.64 1498.55 1542.64 Q1492.86 1542.64 1489.7 1546.27 Q1486.55 1549.87 1486.55 1556.39 Q1486.55 1562.92 1489.7 1566.55 Q1492.86 1570.14 1498.55 1570.14 Q1501.1 1570.14 1503.58 1569.47 Q1506.1 1568.77 1508.58 1567.41 L1508.58 1572.82 Q1506.13 1573.96 1503.49 1574.54 Q1500.88 1575.11 1497.92 1575.11 Q1489.86 1575.11 1485.12 1570.05 Q1480.38 1564.99 1480.38 1556.39 Q1480.38 1547.67 1485.15 1542.68 Q1489.96 1537.68 1498.3 1537.68 Q1501 1537.68 1503.58 1538.25 Q1506.16 1538.79 1508.58 1539.91 Z" fill="#000000" fill-rule="evenodd" fill-opacity="1" /><path clip-path="url(#clip660)" d="M1520.26 1566.1 L1526.98 1566.1 L1526.98 1571.58 L1521.76 1581.76 L1517.65 1581.76 L1520.26 1571.58 L1520.26 1566.1 Z" fill="#000000" fill-rule="evenodd" fill-opacity="1" /><path clip-path="url(#clip660)" d="M1560.46 1526.67 L1566.89 1526.67 L1566.89 1568.77 L1590.03 1568.77 L1590.03 1574.19 L1560.46 1574.19 L1560.46 1526.67 Z" fill="#000000" fill-rule="evenodd" fill-opacity="1" /><path clip-path="url(#clip660)" d="M1609.19 1542.64 Q1604.48 1542.64 1601.74 1546.34 Q1599 1550 1599 1556.39 Q1599 1562.79 1601.71 1566.48 Q1604.45 1570.14 1609.19 1570.14 Q1613.87 1570.14 1616.61 1566.45 Q1619.34 1562.76 1619.34 1556.39 Q1619.34 1550.06 1616.61 1546.37 Q1613.87 1542.64 1609.19 1542.64 M1609.19 1537.68 Q1616.83 1537.68 1621.19 1542.64 Q1625.55 1547.61 1625.55 1556.39 Q1625.55 1565.15 1621.19 1570.14 Q1616.83 1575.11 1609.19 1575.11 Q1601.52 1575.11 1597.16 1570.14 Q1592.83 1565.15 1592.83 1556.39 Q1592.83 1547.61 1597.16 1542.64 Q1601.52 1537.68 1609.19 1537.68 Z" fill="#000000" fill-rule="evenodd" fill-opacity="1" /><path clip-path="url(#clip660)" d="M1658.71 1555.95 Q1658.71 1549.58 1656.07 1546.08 Q1653.46 1542.58 1648.72 1542.58 Q1644.01 1542.58 1641.37 1546.08 Q1638.76 1549.58 1638.76 1555.95 Q1638.76 1562.28 1641.37 1565.78 Q1644.01 1569.28 1648.72 1569.28 Q1653.46 1569.28 1656.07 1565.78 Q1658.71 1562.28 1658.71 1555.95 M1664.57 1569.76 Q1664.57 1578.86 1660.53 1583.29 Q1656.49 1587.74 1648.15 1587.74 Q1645.06 1587.74 1642.32 1587.27 Q1639.59 1586.82 1637.01 1585.87 L1637.01 1580.17 Q1639.59 1581.57 1642.1 1582.24 Q1644.61 1582.91 1647.22 1582.91 Q1652.99 1582.91 1655.85 1579.88 Q1658.71 1576.89 1658.71 1570.81 L1658.71 1567.92 Q1656.9 1571.07 1654.07 1572.63 Q1651.23 1574.19 1647.29 1574.19 Q1640.73 1574.19 1636.72 1569.19 Q1632.71 1564.19 1632.71 1555.95 Q1632.71 1547.67 1636.72 1542.68 Q1640.73 1537.68 1647.29 1537.68 Q1651.23 1537.68 1654.07 1539.24 Q1656.9 1540.8 1658.71 1543.95 L1658.71 1538.54 L1664.57 1538.54 L1664.57 1569.76 Z" fill="#000000" fill-rule="evenodd" fill-opacity="1" /><path clip-path="url(#clip660)" d="M1675.71 1524.72 L1680.8 1524.72 Q1685.58 1532.24 1687.93 1539.43 Q1690.32 1546.62 1690.32 1553.72 Q1690.32 1560.85 1687.93 1568.07 Q1685.58 1575.3 1680.8 1582.78 L1675.71 1582.78 Q1679.94 1575.49 1682.01 1568.3 Q1684.11 1561.07 1684.11 1553.72 Q1684.11 1546.37 1682.01 1539.21 Q1679.94 1532.04 1675.71 1524.72 Z" fill="#000000" fill-rule="evenodd" fill-opacity="1" /><polyline clip-path="url(#clip662)" style="stroke:#000000; stroke-linecap:butt; stroke-linejoin:round; stroke-width:2; stroke-opacity:0.1; fill:none" points="
  252.764,1346.03 2352.76,1346.03 
  "/>
<polyline clip-path="url(#clip662)" style="stroke:#000000; stroke-linecap:butt; stroke-linejoin:round; stroke-width:2; stroke-opacity:0.1; fill:none" points="
  252.764,634.904 2352.76,634.904 
  "/>
<polyline clip-path="url(#clip660)" style="stroke:#000000; stroke-linecap:butt; stroke-linejoin:round; stroke-width:4; stroke-opacity:1; fill:none" points="
  252.764,1410.9 252.764,47.2441 
  "/>
<polyline clip-path="url(#clip660)" style="stroke:#000000; stroke-linecap:butt; stroke-linejoin:round; stroke-width:4; stroke-opacity:1; fill:none" points="
  2352.76,1410.9 2352.76,47.2441 
  "/>
<polyline clip-path="url(#clip660)" style="stroke:#000000; stroke-linecap:butt; stroke-linejoin:round; stroke-width:4; stroke-opacity:1; fill:none" points="
  252.764,1346.03 271.662,1346.03 
  "/>
<polyline clip-path="url(#clip660)" style="stroke:#000000; stroke-linecap:butt; stroke-linejoin:round; stroke-width:4; stroke-opacity:1; fill:none" points="
  252.764,634.904 271.662,634.904 
  "/>
<path clip-path="url(#clip660)" d="M114.931 1365.82 L122.57 1365.82 L122.57 1339.46 L114.26 1341.12 L114.26 1336.86 L122.524 1335.2 L127.2 1335.2 L127.2 1365.82 L134.839 1365.82 L134.839 1369.76 L114.931 1369.76 L114.931 1365.82 Z" fill="#000000" fill-rule="evenodd" fill-opacity="1" /><path clip-path="url(#clip660)" d="M154.283 1338.28 Q150.672 1338.28 148.843 1341.84 Q147.038 1345.38 147.038 1352.51 Q147.038 1359.62 148.843 1363.18 Q150.672 1366.72 154.283 1366.72 Q157.917 1366.72 159.723 1363.18 Q161.552 1359.62 161.552 1352.51 Q161.552 1345.38 159.723 1341.84 Q157.917 1338.28 154.283 1338.28 M154.283 1334.57 Q160.093 1334.57 163.149 1339.18 Q166.227 1343.76 166.227 1352.51 Q166.227 1361.24 163.149 1365.85 Q160.093 1370.43 154.283 1370.43 Q148.473 1370.43 145.394 1365.85 Q142.339 1361.24 142.339 1352.51 Q142.339 1343.76 145.394 1339.18 Q148.473 1334.57 154.283 1334.57 Z" fill="#000000" fill-rule="evenodd" fill-opacity="1" /><path clip-path="url(#clip660)" d="M166.227 1328.67 L190.339 1328.67 L190.339 1331.87 L166.227 1331.87 L166.227 1328.67 Z" fill="#000000" fill-rule="evenodd" fill-opacity="1" /><path clip-path="url(#clip660)" d="M208.978 1317.58 L199.386 1332.57 L208.978 1332.57 L208.978 1317.58 M207.981 1314.27 L212.758 1314.27 L212.758 1332.57 L216.764 1332.57 L216.764 1335.73 L212.758 1335.73 L212.758 1342.35 L208.978 1342.35 L208.978 1335.73 L196.301 1335.73 L196.301 1332.06 L207.981 1314.27 Z" fill="#000000" fill-rule="evenodd" fill-opacity="1" /><path clip-path="url(#clip660)" d="M116.624 654.697 L124.263 654.697 L124.263 628.331 L115.953 629.998 L115.953 625.738 L124.217 624.072 L128.893 624.072 L128.893 654.697 L136.531 654.697 L136.531 658.632 L116.624 658.632 L116.624 654.697 Z" fill="#000000" fill-rule="evenodd" fill-opacity="1" /><path clip-path="url(#clip660)" d="M155.976 627.15 Q152.365 627.15 150.536 630.715 Q148.73 634.257 148.73 641.386 Q148.73 648.493 150.536 652.058 Q152.365 655.599 155.976 655.599 Q159.61 655.599 161.416 652.058 Q163.244 648.493 163.244 641.386 Q163.244 634.257 161.416 630.715 Q159.61 627.15 155.976 627.15 M155.976 623.447 Q161.786 623.447 164.841 628.053 Q167.92 632.636 167.92 641.386 Q167.92 650.113 164.841 654.72 Q161.786 659.303 155.976 659.303 Q150.166 659.303 147.087 654.72 Q144.031 650.113 144.031 641.386 Q144.031 632.636 147.087 628.053 Q150.166 623.447 155.976 623.447 Z" fill="#000000" fill-rule="evenodd" fill-opacity="1" /><path clip-path="url(#clip660)" d="M167.92 617.548 L192.032 617.548 L192.032 620.745 L167.92 620.745 L167.92 617.548 Z" fill="#000000" fill-rule="evenodd" fill-opacity="1" /><path clip-path="url(#clip660)" d="M203.504 628.024 L216.764 628.024 L216.764 631.221 L198.934 631.221 L198.934 628.024 Q201.097 625.786 204.821 622.024 Q208.564 618.244 209.523 617.153 Q211.347 615.103 212.062 613.692 Q212.796 612.263 212.796 610.89 Q212.796 608.652 211.216 607.241 Q209.655 605.831 207.134 605.831 Q205.348 605.831 203.354 606.451 Q201.379 607.072 199.122 608.332 L199.122 604.495 Q201.417 603.574 203.41 603.104 Q205.404 602.634 207.059 602.634 Q211.423 602.634 214.018 604.815 Q216.613 606.997 216.613 610.646 Q216.613 612.376 215.955 613.937 Q215.316 615.479 213.604 617.586 Q213.134 618.131 210.614 620.745 Q208.094 623.341 203.504 628.024 Z" fill="#000000" fill-rule="evenodd" fill-opacity="1" /><path clip-path="url(#clip660)" d="M16.4842 1034.96 L16.4842 1004.91 L21.895 1004.91 L21.895 1028.53 L35.9632 1028.53 L35.9632 1005.9 L41.3741 1005.9 L41.3741 1028.53 L58.5933 1028.53 L58.5933 1004.34 L64.0042 1004.34 L64.0042 1034.96 L16.4842 1034.96 Z" fill="#000000" fill-rule="evenodd" fill-opacity="1" /><path clip-path="url(#clip660)" d="M33.8307 973.37 Q33.2578 974.357 33.0032 975.535 Q32.7167 976.68 32.7167 978.081 Q32.7167 983.046 35.9632 985.72 Q39.1779 988.362 45.2253 988.362 L64.0042 988.362 L64.0042 994.25 L28.3562 994.25 L28.3562 988.362 L33.8944 988.362 Q30.6479 986.515 29.0883 983.555 Q27.4968 980.595 27.4968 976.362 Q27.4968 975.757 27.5923 975.025 Q27.656 974.293 27.8151 973.402 L33.8307 973.37 Z" fill="#000000" fill-rule="evenodd" fill-opacity="1" /><path clip-path="url(#clip660)" d="M33.8307 947.716 Q33.2578 948.703 33.0032 949.881 Q32.7167 951.027 32.7167 952.427 Q32.7167 957.392 35.9632 960.066 Q39.1779 962.708 45.2253 962.708 L64.0042 962.708 L64.0042 968.596 L28.3562 968.596 L28.3562 962.708 L33.8944 962.708 Q30.6479 960.862 29.0883 957.902 Q27.4968 954.942 27.4968 950.708 Q27.4968 950.104 27.5923 949.372 Q27.656 948.64 27.8151 947.748 L33.8307 947.716 Z" fill="#000000" fill-rule="evenodd" fill-opacity="1" /><path clip-path="url(#clip660)" d="M32.4621 929.192 Q32.4621 933.903 36.1542 936.64 Q39.8145 939.377 46.212 939.377 Q52.6095 939.377 56.3017 936.672 Q59.9619 933.935 59.9619 929.192 Q59.9619 924.513 56.2698 921.776 Q52.5777 919.039 46.212 919.039 Q39.8781 919.039 36.186 921.776 Q32.4621 924.513 32.4621 929.192 M27.4968 929.192 Q27.4968 921.553 32.4621 917.193 Q37.4273 912.832 46.212 912.832 Q54.9649 912.832 59.9619 917.193 Q64.9272 921.553 64.9272 929.192 Q64.9272 936.863 59.9619 941.223 Q54.9649 945.552 46.212 945.552 Q37.4273 945.552 32.4621 941.223 Q27.4968 936.863 27.4968 929.192 Z" fill="#000000" fill-rule="evenodd" fill-opacity="1" /><path clip-path="url(#clip660)" d="M33.8307 882.468 Q33.2578 883.455 33.0032 884.632 Q32.7167 885.778 32.7167 887.179 Q32.7167 892.144 35.9632 894.817 Q39.1779 897.459 45.2253 897.459 L64.0042 897.459 L64.0042 903.348 L28.3562 903.348 L28.3562 897.459 L33.8944 897.459 Q30.6479 895.613 29.0883 892.653 Q27.4968 889.693 27.4968 885.46 Q27.4968 884.855 27.5923 884.123 Q27.656 883.391 27.8151 882.5 L33.8307 882.468 Z" fill="#000000" fill-rule="evenodd" fill-opacity="1" /><path clip-path="url(#clip660)" d="M55.9197 875.975 L55.9197 869.259 L64.0042 869.259 L64.0042 875.975 L55.9197 875.975 M30.2977 875.975 L30.2977 869.259 L38.3822 869.259 L38.3822 875.975 L30.2977 875.975 Z" fill="#000000" fill-rule="evenodd" fill-opacity="1" /><path clip-path="url(#clip660)" d="M58.5933 828.423 L58.5933 805.984 L64.0042 805.984 L64.0042 836.157 L58.5933 836.157 Q54.8057 832.497 48.44 826.195 Q42.0425 819.861 40.1964 818.238 Q36.7271 815.151 34.34 813.941 Q31.921 812.7 29.5975 812.7 Q25.8099 812.7 23.4228 815.373 Q21.0356 818.015 21.0356 822.28 Q21.0356 825.304 22.086 828.678 Q23.1363 832.02 25.2688 835.839 L18.7758 835.839 Q17.2162 831.956 16.4205 828.582 Q15.6248 825.208 15.6248 822.408 Q15.6248 815.023 19.3169 810.631 Q23.009 806.239 29.1837 806.239 Q32.112 806.239 34.7537 807.353 Q37.3637 808.435 40.9285 811.331 Q41.8515 812.127 46.2757 816.392 Q50.668 820.657 58.5933 828.423 Z" fill="#000000" fill-rule="evenodd" fill-opacity="1" /><path clip-path="url(#clip660)" d="M43.5384 796.276 L43.5384 779.121 L48.7583 779.121 L48.7583 796.276 L43.5384 796.276 Z" fill="#000000" fill-rule="evenodd" fill-opacity="1" /><path clip-path="url(#clip660)" d="M42.4881 740.163 L64.0042 740.163 L64.0042 746.019 L42.679 746.019 Q37.6183 746.019 35.1038 747.992 Q32.5894 749.966 32.5894 753.913 Q32.5894 758.655 35.6131 761.392 Q38.6368 764.129 43.8567 764.129 L64.0042 764.129 L64.0042 770.018 L28.3562 770.018 L28.3562 764.129 L33.8944 764.129 Q30.6797 762.029 29.0883 759.196 Q27.4968 756.332 27.4968 752.608 Q27.4968 746.465 31.3163 743.314 Q35.1038 740.163 42.4881 740.163 Z" fill="#000000" fill-rule="evenodd" fill-opacity="1" /><path clip-path="url(#clip660)" d="M32.4621 714.668 Q32.4621 719.379 36.1542 722.116 Q39.8145 724.853 46.212 724.853 Q52.6095 724.853 56.3017 722.148 Q59.9619 719.41 59.9619 714.668 Q59.9619 709.989 56.2698 707.252 Q52.5777 704.515 46.212 704.515 Q39.8781 704.515 36.186 707.252 Q32.4621 709.989 32.4621 714.668 M27.4968 714.668 Q27.4968 707.029 32.4621 702.669 Q37.4273 698.308 46.212 698.308 Q54.9649 698.308 59.9619 702.669 Q64.9272 707.029 64.9272 714.668 Q64.9272 722.339 59.9619 726.699 Q54.9649 731.028 46.212 731.028 Q37.4273 731.028 32.4621 726.699 Q27.4968 722.339 27.4968 714.668 Z" fill="#000000" fill-rule="evenodd" fill-opacity="1" /><path clip-path="url(#clip660)" d="M33.8307 667.944 Q33.2578 668.93 33.0032 670.108 Q32.7167 671.254 32.7167 672.654 Q32.7167 677.62 35.9632 680.293 Q39.1779 682.935 45.2253 682.935 L64.0042 682.935 L64.0042 688.823 L28.3562 688.823 L28.3562 682.935 L33.8944 682.935 Q30.6479 681.089 29.0883 678.129 Q27.4968 675.169 27.4968 670.936 Q27.4968 670.331 27.5923 669.599 Q27.656 668.867 27.8151 667.975 L33.8307 667.944 Z" fill="#000000" fill-rule="evenodd" fill-opacity="1" /><path clip-path="url(#clip660)" d="M35.1993 635.192 Q31.2526 632.996 29.3747 629.94 Q27.4968 626.885 27.4968 622.747 Q27.4968 617.177 31.4117 614.153 Q35.2948 611.13 42.4881 611.13 L64.0042 611.13 L64.0042 617.018 L42.679 617.018 Q37.5546 617.018 35.072 618.832 Q32.5894 620.646 32.5894 624.37 Q32.5894 628.922 35.6131 631.564 Q38.6368 634.205 43.8567 634.205 L64.0042 634.205 L64.0042 640.094 L42.679 640.094 Q37.5228 640.094 35.072 641.908 Q32.5894 643.722 32.5894 647.51 Q32.5894 651.998 35.6449 654.639 Q38.6686 657.281 43.8567 657.281 L64.0042 657.281 L64.0042 663.169 L28.3562 663.169 L28.3562 657.281 L33.8944 657.281 Q30.616 655.276 29.0564 652.475 Q27.4968 649.674 27.4968 645.823 Q27.4968 641.94 29.4702 639.234 Q31.4436 636.497 35.1993 635.192 Z" fill="#000000" fill-rule="evenodd" fill-opacity="1" /><path clip-path="url(#clip660)" d="M14.5426 564.66 Q21.8632 568.925 29.0246 570.994 Q36.186 573.063 43.5384 573.063 Q50.8908 573.063 58.1159 570.994 Q65.3091 568.893 72.5979 564.66 L72.5979 569.753 Q65.1182 574.527 57.8931 576.914 Q50.668 579.269 43.5384 579.269 Q36.4406 579.269 29.2474 576.914 Q22.0542 574.559 14.5426 569.753 L14.5426 564.66 Z" fill="#000000" fill-rule="evenodd" fill-opacity="1" /><path clip-path="url(#clip660)" d="M16.4842 553.043 L16.4842 546.613 L58.5933 546.613 L58.5933 523.474 L64.0042 523.474 L64.0042 553.043 L16.4842 553.043 Z" fill="#000000" fill-rule="evenodd" fill-opacity="1" /><path clip-path="url(#clip660)" d="M32.4621 504.313 Q32.4621 509.024 36.1542 511.761 Q39.8145 514.498 46.212 514.498 Q52.6095 514.498 56.3017 511.793 Q59.9619 509.056 59.9619 504.313 Q59.9619 499.634 56.2698 496.897 Q52.5777 494.16 46.212 494.16 Q39.8781 494.16 36.186 496.897 Q32.4621 499.634 32.4621 504.313 M27.4968 504.313 Q27.4968 496.674 32.4621 492.314 Q37.4273 487.953 46.212 487.953 Q54.9649 487.953 59.9619 492.314 Q64.9272 496.674 64.9272 504.313 Q64.9272 511.984 59.9619 516.344 Q54.9649 520.673 46.212 520.673 Q37.4273 520.673 32.4621 516.344 Q27.4968 511.984 27.4968 504.313 Z" fill="#000000" fill-rule="evenodd" fill-opacity="1" /><path clip-path="url(#clip660)" d="M45.7664 454.788 Q39.4007 454.788 35.8996 457.43 Q32.3984 460.04 32.3984 464.782 Q32.3984 469.493 35.8996 472.135 Q39.4007 474.744 45.7664 474.744 Q52.1003 474.744 55.6014 472.135 Q59.1026 469.493 59.1026 464.782 Q59.1026 460.04 55.6014 457.43 Q52.1003 454.788 45.7664 454.788 M59.58 448.932 Q68.683 448.932 73.1071 452.974 Q77.5631 457.016 77.5631 465.355 Q77.5631 468.442 77.0857 471.18 Q76.6401 473.917 75.6852 476.495 L69.9879 476.495 Q71.3884 473.917 72.0568 471.402 Q72.7252 468.888 72.7252 466.278 Q72.7252 460.517 69.7015 457.653 Q66.7096 454.788 60.6303 454.788 L57.7339 454.788 Q60.885 456.602 62.4446 459.435 Q64.0042 462.268 64.0042 466.214 Q64.0042 472.771 59.0071 476.782 Q54.01 480.792 45.7664 480.792 Q37.491 480.792 32.4939 476.782 Q27.4968 472.771 27.4968 466.214 Q27.4968 462.268 29.0564 459.435 Q30.616 456.602 33.7671 454.788 L28.3562 454.788 L28.3562 448.932 L59.58 448.932 Z" fill="#000000" fill-rule="evenodd" fill-opacity="1" /><path clip-path="url(#clip660)" d="M14.5426 437.792 L14.5426 432.699 Q22.0542 427.925 29.2474 425.569 Q36.4406 423.182 43.5384 423.182 Q50.668 423.182 57.8931 425.569 Q65.1182 427.925 72.5979 432.699 L72.5979 437.792 Q65.3091 433.558 58.1159 431.489 Q50.8908 429.389 43.5384 429.389 Q36.186 429.389 29.0246 431.489 Q21.8632 433.558 14.5426 437.792 Z" fill="#000000" fill-rule="evenodd" fill-opacity="1" /><polyline clip-path="url(#clip662)" style="stroke:#0000ff; stroke-linecap:butt; stroke-linejoin:round; stroke-width:8; stroke-opacity:1; fill:none" points="
  312.198,161.387 738.181,309.482 1105.57,444.516 1412.31,570.299 1733,690.076 2067.57,805.882 
  "/>
<circle clip-path="url(#clip662)" cx="312.198" cy="161.387" r="18" fill="#ffffff" fill-rule="evenodd" fill-opacity="1" stroke="#000000" stroke-opacity="1" stroke-width="3.2"/>
<circle clip-path="url(#clip662)" cx="738.181" cy="309.482" r="18" fill="#ffffff" fill-rule="evenodd" fill-opacity="1" stroke="#000000" stroke-opacity="1" stroke-width="3.2"/>
<circle clip-path="url(#clip662)" cx="1105.57" cy="444.516" r="18" fill="#ffffff" fill-rule="evenodd" fill-opacity="1" stroke="#000000" stroke-opacity="1" stroke-width="3.2"/>
<circle clip-path="url(#clip662)" cx="1412.31" cy="570.299" r="18" fill="#ffffff" fill-rule="evenodd" fill-opacity="1" stroke="#000000" stroke-opacity="1" stroke-width="3.2"/>
<circle clip-path="url(#clip662)" cx="1733" cy="690.076" r="18" fill="#ffffff" fill-rule="evenodd" fill-opacity="1" stroke="#000000" stroke-opacity="1" stroke-width="3.2"/>
<circle clip-path="url(#clip662)" cx="2067.57" cy="805.882" r="18" fill="#ffffff" fill-rule="evenodd" fill-opacity="1" stroke="#000000" stroke-opacity="1" stroke-width="3.2"/>
<polyline clip-path="url(#clip662)" style="stroke:#0000ff; stroke-linecap:butt; stroke-linejoin:round; stroke-width:8; stroke-opacity:1; fill:none" points="
  537.072,557.018 874.675,723.914 1187.25,888.697 1506.2,1050.65 1826.68,1211.25 2132.41,1372.3 
  "/>
<path clip-path="url(#clip662)" d="M517.072 537.018 L517.072 577.018 L557.072 577.018 L557.072 537.018 L517.072 537.018 Z" fill="#ffffff" fill-rule="evenodd" fill-opacity="1" stroke="#000000" stroke-opacity="1" stroke-width="3.2"/>
<path clip-path="url(#clip662)" d="M854.675 703.914 L854.675 743.914 L894.675 743.914 L894.675 703.914 L854.675 703.914 Z" fill="#ffffff" fill-rule="evenodd" fill-opacity="1" stroke="#000000" stroke-opacity="1" stroke-width="3.2"/>
<path clip-path="url(#clip662)" d="M1167.25 868.697 L1167.25 908.697 L1207.25 908.697 L1207.25 868.697 L1167.25 868.697 Z" fill="#ffffff" fill-rule="evenodd" fill-opacity="1" stroke="#000000" stroke-opacity="1" stroke-width="3.2"/>
<path clip-path="url(#clip662)" d="M1486.2 1030.65 L1486.2 1070.65 L1526.2 1070.65 L1526.2 1030.65 L1486.2 1030.65 Z" fill="#ffffff" fill-rule="evenodd" fill-opacity="1" stroke="#000000" stroke-opacity="1" stroke-width="3.2"/>
<path clip-path="url(#clip662)" d="M1806.68 1191.25 L1806.68 1231.25 L1846.68 1231.25 L1846.68 1191.25 L1806.68 1191.25 Z" fill="#ffffff" fill-rule="evenodd" fill-opacity="1" stroke="#000000" stroke-opacity="1" stroke-width="3.2"/>
<path clip-path="url(#clip662)" d="M2112.41 1352.3 L2112.41 1392.3 L2152.41 1392.3 L2152.41 1352.3 L2112.41 1352.3 Z" fill="#ffffff" fill-rule="evenodd" fill-opacity="1" stroke="#000000" stroke-opacity="1" stroke-width="3.2"/>
<polyline clip-path="url(#clip662)" style="stroke:#ff0000; stroke-linecap:butt; stroke-linejoin:round; stroke-width:8; stroke-opacity:1; fill:none" points="
  342.408,85.838 760.748,152.82 1063.72,214.959 1388.38,274.253 1730.71,331.716 2093.73,387.944 
  "/>
<path clip-path="url(#clip662)" d="M358.408 85.838 L334.408 71.838 L334.408 99.838 L358.408 85.838 Z" fill="#ffffff" fill-rule="evenodd" fill-opacity="1" stroke="#000000" stroke-opacity="1" stroke-width="3.2"/>
<path clip-path="url(#clip662)" d="M776.748 152.82 L752.748 138.82 L752.748 166.82 L776.748 152.82 Z" fill="#ffffff" fill-rule="evenodd" fill-opacity="1" stroke="#000000" stroke-opacity="1" stroke-width="3.2"/>
<path clip-path="url(#clip662)" d="M1079.72 214.959 L1055.72 200.959 L1055.72 228.959 L1079.72 214.959 Z" fill="#ffffff" fill-rule="evenodd" fill-opacity="1" stroke="#000000" stroke-opacity="1" stroke-width="3.2"/>
<path clip-path="url(#clip662)" d="M1404.38 274.253 L1380.38 260.253 L1380.38 288.253 L1404.38 274.253 Z" fill="#ffffff" fill-rule="evenodd" fill-opacity="1" stroke="#000000" stroke-opacity="1" stroke-width="3.2"/>
<path clip-path="url(#clip662)" d="M1746.71 331.716 L1722.71 317.716 L1722.71 345.716 L1746.71 331.716 Z" fill="#ffffff" fill-rule="evenodd" fill-opacity="1" stroke="#000000" stroke-opacity="1" stroke-width="3.2"/>
<path clip-path="url(#clip662)" d="M2109.73 387.944 L2085.73 373.944 L2085.73 401.944 L2109.73 387.944 Z" fill="#ffffff" fill-rule="evenodd" fill-opacity="1" stroke="#000000" stroke-opacity="1" stroke-width="3.2"/>
<polyline clip-path="url(#clip662)" style="stroke:#ff0000; stroke-linecap:butt; stroke-linejoin:round; stroke-width:8; stroke-opacity:1; fill:none" points="
  508.55,161.39 978.161,309.482 1268.68,444.515 1602.71,570.298 1933.51,690.076 2293.32,805.883 
  "/>
<circle clip-path="url(#clip662)" cx="508.55" cy="161.39" r="18" fill="#ffffff" fill-rule="evenodd" fill-opacity="1" stroke="#000000" stroke-opacity="1" stroke-width="3.2"/>
<circle clip-path="url(#clip662)" cx="978.161" cy="309.482" r="18" fill="#ffffff" fill-rule="evenodd" fill-opacity="1" stroke="#000000" stroke-opacity="1" stroke-width="3.2"/>
<circle clip-path="url(#clip662)" cx="1268.68" cy="444.515" r="18" fill="#ffffff" fill-rule="evenodd" fill-opacity="1" stroke="#000000" stroke-opacity="1" stroke-width="3.2"/>
<circle clip-path="url(#clip662)" cx="1602.71" cy="570.298" r="18" fill="#ffffff" fill-rule="evenodd" fill-opacity="1" stroke="#000000" stroke-opacity="1" stroke-width="3.2"/>
<circle clip-path="url(#clip662)" cx="1933.51" cy="690.076" r="18" fill="#ffffff" fill-rule="evenodd" fill-opacity="1" stroke="#000000" stroke-opacity="1" stroke-width="3.2"/>
<circle clip-path="url(#clip662)" cx="2293.32" cy="805.883" r="18" fill="#ffffff" fill-rule="evenodd" fill-opacity="1" stroke="#000000" stroke-opacity="1" stroke-width="3.2"/>
<polyline clip-path="url(#clip662)" style="stroke:#ff0000; stroke-linecap:butt; stroke-linejoin:round; stroke-width:8; stroke-opacity:1; fill:none" points="
  608.62,143.299 1018.33,196.497 1242.35,247.111 1567.63,297.541 1913.32,348.411 2258.65,399.847 
  "/>
<path clip-path="url(#clip662)" d="M608.62 123.299 L588.62 143.299 L608.62 163.299 L628.62 143.299 L608.62 123.299 Z" fill="#ffffff" fill-rule="evenodd" fill-opacity="1" stroke="#000000" stroke-opacity="1" stroke-width="3.2"/>
<path clip-path="url(#clip662)" d="M1018.33 176.497 L998.333 196.497 L1018.33 216.497 L1038.33 196.497 L1018.33 176.497 Z" fill="#ffffff" fill-rule="evenodd" fill-opacity="1" stroke="#000000" stroke-opacity="1" stroke-width="3.2"/>
<path clip-path="url(#clip662)" d="M1242.35 227.111 L1222.35 247.111 L1242.35 267.111 L1262.35 247.111 L1242.35 227.111 Z" fill="#ffffff" fill-rule="evenodd" fill-opacity="1" stroke="#000000" stroke-opacity="1" stroke-width="3.2"/>
<path clip-path="url(#clip662)" d="M1567.63 277.541 L1547.63 297.541 L1567.63 317.541 L1587.63 297.541 L1567.63 277.541 Z" fill="#ffffff" fill-rule="evenodd" fill-opacity="1" stroke="#000000" stroke-opacity="1" stroke-width="3.2"/>
<path clip-path="url(#clip662)" d="M1913.32 328.411 L1893.32 348.411 L1913.32 368.411 L1933.32 348.411 L1913.32 328.411 Z" fill="#ffffff" fill-rule="evenodd" fill-opacity="1" stroke="#000000" stroke-opacity="1" stroke-width="3.2"/>
<path clip-path="url(#clip662)" d="M2258.65 379.847 L2238.65 399.847 L2258.65 419.847 L2278.65 399.847 L2258.65 379.847 Z" fill="#ffffff" fill-rule="evenodd" fill-opacity="1" stroke="#000000" stroke-opacity="1" stroke-width="3.2"/>
<polyline clip-path="url(#clip662)" style="stroke:#ff0000; stroke-linecap:butt; stroke-linejoin:round; stroke-width:8; stroke-opacity:1; fill:none" points="
  535.175,557.014 947.691,723.913 1222.6,888.694 1548.69,1050.65 1889.62,1211.25 2216.32,1372.3 
  "/>
<path clip-path="url(#clip662)" d="M515.175 537.014 L515.175 577.014 L555.175 577.014 L555.175 537.014 L515.175 537.014 Z" fill="#ffffff" fill-rule="evenodd" fill-opacity="1" stroke="#000000" stroke-opacity="1" stroke-width="3.2"/>
<path clip-path="url(#clip662)" d="M927.691 703.913 L927.691 743.913 L967.691 743.913 L967.691 703.913 L927.691 703.913 Z" fill="#ffffff" fill-rule="evenodd" fill-opacity="1" stroke="#000000" stroke-opacity="1" stroke-width="3.2"/>
<path clip-path="url(#clip662)" d="M1202.6 868.694 L1202.6 908.694 L1242.6 908.694 L1242.6 868.694 L1202.6 868.694 Z" fill="#ffffff" fill-rule="evenodd" fill-opacity="1" stroke="#000000" stroke-opacity="1" stroke-width="3.2"/>
<path clip-path="url(#clip662)" d="M1528.69 1030.65 L1528.69 1070.65 L1568.69 1070.65 L1568.69 1030.65 L1528.69 1030.65 Z" fill="#ffffff" fill-rule="evenodd" fill-opacity="1" stroke="#000000" stroke-opacity="1" stroke-width="3.2"/>
<path clip-path="url(#clip662)" d="M1869.62 1191.25 L1869.62 1231.25 L1909.62 1231.25 L1909.62 1191.25 L1869.62 1191.25 Z" fill="#ffffff" fill-rule="evenodd" fill-opacity="1" stroke="#000000" stroke-opacity="1" stroke-width="3.2"/>
<path clip-path="url(#clip662)" d="M2196.32 1352.3 L2196.32 1392.3 L2236.32 1392.3 L2236.32 1352.3 L2196.32 1352.3 Z" fill="#ffffff" fill-rule="evenodd" fill-opacity="1" stroke="#000000" stroke-opacity="1" stroke-width="3.2"/>
<path clip-path="url(#clip660)" d="
M322.764 1365.44 L867.715 1365.44 L867.715 1002.56 L322.764 1002.56  Z
  " fill="#ffffff" fill-rule="evenodd" fill-opacity="1"/>
<polyline clip-path="url(#clip660)" style="stroke:#000000; stroke-linecap:butt; stroke-linejoin:round; stroke-width:4; stroke-opacity:1; fill:none" points="
  322.764,1365.44 867.715,1365.44 867.715,1002.56 322.764,1002.56 322.764,1365.44 
  "/>
<polyline clip-path="url(#clip660)" style="stroke:#0000ff; stroke-linecap:butt; stroke-linejoin:round; stroke-width:4; stroke-opacity:1; fill:none" points="
  346.097,1054.4 486.096,1054.4 
  "/>
<circle clip-path="url(#clip660)" cx="416.097" cy="1054.4" r="23.04" fill="#ffffff" fill-rule="evenodd" fill-opacity="1" stroke="#000000" stroke-opacity="1" stroke-width="4.096"/>
<path clip-path="url(#clip660)" d="M516.536 1037.12 L521.212 1037.12 L521.212 1069.27 Q521.212 1075.52 518.828 1078.35 Q516.467 1081.17 511.212 1081.17 L509.43 1081.17 L509.43 1077.24 L510.888 1077.24 Q513.99 1077.24 515.263 1075.5 Q516.536 1073.76 516.536 1069.27 L516.536 1037.12 Z" fill="#000000" fill-rule="evenodd" fill-opacity="1" /><path clip-path="url(#clip660)" d="M529.892 1061.45 L529.892 1045.76 L534.152 1045.76 L534.152 1061.29 Q534.152 1064.97 535.587 1066.82 Q537.022 1068.65 539.892 1068.65 Q543.341 1068.65 545.332 1066.45 Q547.346 1064.25 547.346 1060.45 L547.346 1045.76 L551.605 1045.76 L551.605 1071.68 L547.346 1071.68 L547.346 1067.7 Q545.795 1070.06 543.735 1071.22 Q541.698 1072.35 538.99 1072.35 Q534.522 1072.35 532.207 1069.58 Q529.892 1066.8 529.892 1061.45 M540.61 1045.13 L540.61 1045.13 Z" fill="#000000" fill-rule="evenodd" fill-opacity="1" /><path clip-path="url(#clip660)" d="M560.378 1035.66 L564.638 1035.66 L564.638 1071.68 L560.378 1071.68 L560.378 1035.66 Z" fill="#000000" fill-rule="evenodd" fill-opacity="1" /><path clip-path="url(#clip660)" d="M573.55 1045.76 L577.809 1045.76 L577.809 1071.68 L573.55 1071.68 L573.55 1045.76 M573.55 1035.66 L577.809 1035.66 L577.809 1041.06 L573.55 1041.06 L573.55 1035.66 Z" fill="#000000" fill-rule="evenodd" fill-opacity="1" /><path clip-path="url(#clip660)" d="M598.503 1058.65 Q593.341 1058.65 591.35 1059.83 Q589.36 1061.01 589.36 1063.86 Q589.36 1066.13 590.841 1067.47 Q592.346 1068.79 594.915 1068.79 Q598.457 1068.79 600.587 1066.29 Q602.739 1063.76 602.739 1059.6 L602.739 1058.65 L598.503 1058.65 M606.999 1056.89 L606.999 1071.68 L602.739 1071.68 L602.739 1067.75 Q601.281 1070.11 599.105 1071.24 Q596.929 1072.35 593.781 1072.35 Q589.8 1072.35 587.438 1070.13 Q585.101 1067.89 585.101 1064.14 Q585.101 1059.76 588.017 1057.54 Q590.957 1055.32 596.767 1055.32 L602.739 1055.32 L602.739 1054.9 Q602.739 1051.96 600.795 1050.36 Q598.874 1048.74 595.378 1048.74 Q593.156 1048.74 591.05 1049.27 Q588.943 1049.81 586.999 1050.87 L586.999 1046.94 Q589.337 1046.03 591.536 1045.59 Q593.735 1045.13 595.818 1045.13 Q601.443 1045.13 604.221 1048.05 Q606.999 1050.96 606.999 1056.89 Z" fill="#000000" fill-rule="evenodd" fill-opacity="1" /><path clip-path="url(#clip660)" d="M635.702 1040.96 L635.702 1053.95 L641.582 1053.95 Q644.846 1053.95 646.628 1052.26 Q648.41 1050.57 648.41 1047.45 Q648.41 1044.34 646.628 1042.65 Q644.846 1040.96 641.582 1040.96 L635.702 1040.96 M631.026 1037.12 L641.582 1037.12 Q647.392 1037.12 650.355 1039.76 Q653.341 1042.38 653.341 1047.45 Q653.341 1052.56 650.355 1055.18 Q647.392 1057.79 641.582 1057.79 L635.702 1057.79 L635.702 1071.68 L631.026 1071.68 L631.026 1037.12 Z" fill="#000000" fill-rule="evenodd" fill-opacity="1" /><path clip-path="url(#clip660)" d="M685.494 1039.78 L685.494 1044.71 Q683.132 1042.52 680.447 1041.43 Q677.785 1040.34 674.776 1040.34 Q668.85 1040.34 665.702 1043.97 Q662.554 1047.58 662.554 1054.44 Q662.554 1061.26 665.702 1064.9 Q668.85 1068.51 674.776 1068.51 Q677.785 1068.51 680.447 1067.42 Q683.132 1066.33 685.494 1064.14 L685.494 1069.02 Q683.04 1070.69 680.285 1071.52 Q677.554 1072.35 674.498 1072.35 Q666.651 1072.35 662.137 1067.56 Q657.623 1062.75 657.623 1054.44 Q657.623 1046.1 662.137 1041.31 Q666.651 1036.5 674.498 1036.5 Q677.6 1036.5 680.331 1037.33 Q683.086 1038.14 685.494 1039.78 Z" fill="#000000" fill-rule="evenodd" fill-opacity="1" /><polyline clip-path="url(#clip660)" style="stroke:#0000ff; stroke-linecap:butt; stroke-linejoin:round; stroke-width:4; stroke-opacity:1; fill:none" points="
  346.097,1106.24 486.096,1106.24 
  "/>
<path clip-path="url(#clip660)" d="M390.497 1080.64 L390.497 1131.84 L441.697 1131.84 L441.697 1080.64 L390.497 1080.64 Z" fill="#ffffff" fill-rule="evenodd" fill-opacity="1" stroke="#000000" stroke-opacity="1" stroke-width="4.096"/>
<path clip-path="url(#clip660)" d="M516.536 1088.96 L521.212 1088.96 L521.212 1121.11 Q521.212 1127.36 518.828 1130.19 Q516.467 1133.01 511.212 1133.01 L509.43 1133.01 L509.43 1129.08 L510.888 1129.08 Q513.99 1129.08 515.263 1127.34 Q516.536 1125.6 516.536 1121.11 L516.536 1088.96 Z" fill="#000000" fill-rule="evenodd" fill-opacity="1" /><path clip-path="url(#clip660)" d="M529.892 1113.29 L529.892 1097.6 L534.152 1097.6 L534.152 1113.13 Q534.152 1116.81 535.587 1118.66 Q537.022 1120.49 539.892 1120.49 Q543.341 1120.49 545.332 1118.29 Q547.346 1116.09 547.346 1112.29 L547.346 1097.6 L551.605 1097.6 L551.605 1123.52 L547.346 1123.52 L547.346 1119.54 Q545.795 1121.9 543.735 1123.06 Q541.698 1124.19 538.99 1124.19 Q534.522 1124.19 532.207 1121.42 Q529.892 1118.64 529.892 1113.29 M540.61 1096.97 L540.61 1096.97 Z" fill="#000000" fill-rule="evenodd" fill-opacity="1" /><path clip-path="url(#clip660)" d="M560.378 1087.5 L564.638 1087.5 L564.638 1123.52 L560.378 1123.52 L560.378 1087.5 Z" fill="#000000" fill-rule="evenodd" fill-opacity="1" /><path clip-path="url(#clip660)" d="M573.55 1097.6 L577.809 1097.6 L577.809 1123.52 L573.55 1123.52 L573.55 1097.6 M573.55 1087.5 L577.809 1087.5 L577.809 1092.9 L573.55 1092.9 L573.55 1087.5 Z" fill="#000000" fill-rule="evenodd" fill-opacity="1" /><path clip-path="url(#clip660)" d="M598.503 1110.49 Q593.341 1110.49 591.35 1111.67 Q589.36 1112.85 589.36 1115.7 Q589.36 1117.97 590.841 1119.31 Q592.346 1120.63 594.915 1120.63 Q598.457 1120.63 600.587 1118.13 Q602.739 1115.6 602.739 1111.44 L602.739 1110.49 L598.503 1110.49 M606.999 1108.73 L606.999 1123.52 L602.739 1123.52 L602.739 1119.59 Q601.281 1121.95 599.105 1123.08 Q596.929 1124.19 593.781 1124.19 Q589.8 1124.19 587.438 1121.97 Q585.101 1119.73 585.101 1115.98 Q585.101 1111.6 588.017 1109.38 Q590.957 1107.16 596.767 1107.16 L602.739 1107.16 L602.739 1106.74 Q602.739 1103.8 600.795 1102.2 Q598.874 1100.58 595.378 1100.58 Q593.156 1100.58 591.05 1101.11 Q588.943 1101.65 586.999 1102.71 L586.999 1098.78 Q589.337 1097.87 591.536 1097.43 Q593.735 1096.97 595.818 1096.97 Q601.443 1096.97 604.221 1099.89 Q606.999 1102.8 606.999 1108.73 Z" fill="#000000" fill-rule="evenodd" fill-opacity="1" /><path clip-path="url(#clip660)" d="M631.026 1088.96 L637.322 1088.96 L652.646 1117.87 L652.646 1088.96 L657.183 1088.96 L657.183 1123.52 L650.887 1123.52 L635.563 1094.61 L635.563 1123.52 L631.026 1123.52 L631.026 1088.96 Z" fill="#000000" fill-rule="evenodd" fill-opacity="1" /><path clip-path="url(#clip660)" d="M682.878 1107.32 Q684.382 1107.83 685.794 1109.49 Q687.23 1111.16 688.665 1114.08 L693.41 1123.52 L688.387 1123.52 L683.966 1114.66 Q682.253 1111.18 680.632 1110.05 Q679.035 1108.92 676.257 1108.92 L671.165 1108.92 L671.165 1123.52 L666.489 1123.52 L666.489 1088.96 L677.044 1088.96 Q682.97 1088.96 685.887 1091.44 Q688.804 1093.92 688.804 1098.92 Q688.804 1102.18 687.276 1104.33 Q685.771 1106.48 682.878 1107.32 M671.165 1092.8 L671.165 1105.07 L677.044 1105.07 Q680.424 1105.07 682.137 1103.52 Q683.873 1101.95 683.873 1098.92 Q683.873 1095.88 682.137 1094.36 Q680.424 1092.8 677.044 1092.8 L671.165 1092.8 Z" fill="#000000" fill-rule="evenodd" fill-opacity="1" /><polyline clip-path="url(#clip660)" style="stroke:#ff0000; stroke-linecap:butt; stroke-linejoin:round; stroke-width:4; stroke-opacity:1; fill:none" points="
  346.097,1158.08 486.096,1158.08 
  "/>
<path clip-path="url(#clip660)" d="M436.577 1158.08 L405.857 1140.16 L405.857 1176 L436.577 1158.08 Z" fill="#ffffff" fill-rule="evenodd" fill-opacity="1" stroke="#000000" stroke-opacity="1" stroke-width="4.096"/>
<path clip-path="url(#clip660)" d="M509.43 1140.8 L516.397 1140.8 L525.217 1164.32 L534.082 1140.8 L541.05 1140.8 L541.05 1175.36 L536.49 1175.36 L536.49 1145.01 L527.578 1168.72 L522.879 1168.72 L513.967 1145.01 L513.967 1175.36 L509.43 1175.36 L509.43 1140.8 Z" fill="#000000" fill-rule="evenodd" fill-opacity="1" /><path clip-path="url(#clip660)" d="M561.929 1162.33 Q556.767 1162.33 554.777 1163.51 Q552.786 1164.69 552.786 1167.54 Q552.786 1169.81 554.267 1171.15 Q555.772 1172.47 558.341 1172.47 Q561.883 1172.47 564.013 1169.97 Q566.165 1167.44 566.165 1163.28 L566.165 1162.33 L561.929 1162.33 M570.425 1160.57 L570.425 1175.36 L566.165 1175.36 L566.165 1171.43 Q564.707 1173.79 562.531 1174.92 Q560.355 1176.03 557.207 1176.03 Q553.226 1176.03 550.865 1173.81 Q548.527 1171.57 548.527 1167.82 Q548.527 1163.44 551.443 1161.22 Q554.383 1159 560.193 1159 L566.165 1159 L566.165 1158.58 Q566.165 1155.64 564.221 1154.04 Q562.3 1152.42 558.804 1152.42 Q556.582 1152.42 554.476 1152.95 Q552.369 1153.49 550.425 1154.55 L550.425 1150.62 Q552.763 1149.71 554.962 1149.27 Q557.161 1148.81 559.244 1148.81 Q564.869 1148.81 567.647 1151.73 Q570.425 1154.64 570.425 1160.57 Z" fill="#000000" fill-rule="evenodd" fill-opacity="1" /><path clip-path="url(#clip660)" d="M583.411 1142.07 L583.411 1149.44 L592.184 1149.44 L592.184 1152.75 L583.411 1152.75 L583.411 1166.82 Q583.411 1169.99 584.267 1170.89 Q585.147 1171.8 587.809 1171.8 L592.184 1171.8 L592.184 1175.36 L587.809 1175.36 Q582.878 1175.36 581.003 1173.53 Q579.128 1171.68 579.128 1166.82 L579.128 1152.75 L576.003 1152.75 L576.003 1149.44 L579.128 1149.44 L579.128 1142.07 L583.411 1142.07 Z" fill="#000000" fill-rule="evenodd" fill-opacity="1" /><path clip-path="url(#clip660)" d="M597.786 1139.34 L602.045 1139.34 L602.045 1175.36 L597.786 1175.36 L597.786 1139.34 Z" fill="#000000" fill-rule="evenodd" fill-opacity="1" /><path clip-path="url(#clip660)" d="M622.739 1162.33 Q617.577 1162.33 615.586 1163.51 Q613.596 1164.69 613.596 1167.54 Q613.596 1169.81 615.077 1171.15 Q616.582 1172.47 619.151 1172.47 Q622.693 1172.47 624.823 1169.97 Q626.975 1167.44 626.975 1163.28 L626.975 1162.33 L622.739 1162.33 M631.235 1160.57 L631.235 1175.36 L626.975 1175.36 L626.975 1171.43 Q625.517 1173.79 623.341 1174.92 Q621.165 1176.03 618.017 1176.03 Q614.036 1176.03 611.674 1173.81 Q609.337 1171.57 609.337 1167.82 Q609.337 1163.44 612.253 1161.22 Q615.193 1159 621.003 1159 L626.975 1159 L626.975 1158.58 Q626.975 1155.64 625.031 1154.04 Q623.11 1152.42 619.614 1152.42 Q617.392 1152.42 615.286 1152.95 Q613.179 1153.49 611.235 1154.55 L611.235 1150.62 Q613.573 1149.71 615.772 1149.27 Q617.971 1148.81 620.054 1148.81 Q625.679 1148.81 628.457 1151.73 Q631.235 1154.64 631.235 1160.57 Z" fill="#000000" fill-rule="evenodd" fill-opacity="1" /><path clip-path="url(#clip660)" d="M658.619 1162.42 Q658.619 1157.72 656.674 1155.06 Q654.753 1152.38 651.373 1152.38 Q647.994 1152.38 646.049 1155.06 Q644.128 1157.72 644.128 1162.42 Q644.128 1167.12 646.049 1169.81 Q647.994 1172.47 651.373 1172.47 Q654.753 1172.47 656.674 1169.81 Q658.619 1167.12 658.619 1162.42 M644.128 1153.37 Q645.471 1151.06 647.508 1149.95 Q649.568 1148.81 652.415 1148.81 Q657.137 1148.81 660.077 1152.56 Q663.04 1156.31 663.04 1162.42 Q663.04 1168.53 660.077 1172.28 Q657.137 1176.03 652.415 1176.03 Q649.568 1176.03 647.508 1174.92 Q645.471 1173.79 644.128 1171.47 L644.128 1175.36 L639.846 1175.36 L639.846 1139.34 L644.128 1139.34 L644.128 1153.37 Z" fill="#000000" fill-rule="evenodd" fill-opacity="1" /><path clip-path="url(#clip660)" d="M690.031 1144.64 L690.031 1157.63 L695.91 1157.63 Q699.174 1157.63 700.956 1155.94 Q702.739 1154.25 702.739 1151.13 Q702.739 1148.02 700.956 1146.33 Q699.174 1144.64 695.91 1144.64 L690.031 1144.64 M685.355 1140.8 L695.91 1140.8 Q701.72 1140.8 704.683 1143.44 Q707.669 1146.06 707.669 1151.13 Q707.669 1156.24 704.683 1158.86 Q701.72 1161.47 695.91 1161.47 L690.031 1161.47 L690.031 1175.36 L685.355 1175.36 L685.355 1140.8 Z" fill="#000000" fill-rule="evenodd" fill-opacity="1" /><path clip-path="url(#clip660)" d="M713.942 1140.8 L718.618 1140.8 L718.618 1175.36 L713.942 1175.36 L713.942 1140.8 Z" fill="#000000" fill-rule="evenodd" fill-opacity="1" /><path clip-path="url(#clip660)" d="M725.586 1160.48 L738.063 1160.48 L738.063 1164.27 L725.586 1164.27 L725.586 1160.48 Z" fill="#000000" fill-rule="evenodd" fill-opacity="1" /><path clip-path="url(#clip660)" d="M745.03 1140.8 L766.882 1140.8 L766.882 1144.74 L749.706 1144.74 L749.706 1154.97 L766.164 1154.97 L766.164 1158.9 L749.706 1158.9 L749.706 1171.43 L767.299 1171.43 L767.299 1175.36 L745.03 1175.36 L745.03 1140.8 Z" fill="#000000" fill-rule="evenodd" fill-opacity="1" /><path clip-path="url(#clip660)" d="M773.317 1140.8 L778.34 1140.8 L786.928 1153.65 L795.562 1140.8 L800.585 1140.8 L789.474 1157.4 L801.326 1175.36 L796.303 1175.36 L786.581 1160.66 L776.789 1175.36 L771.743 1175.36 L784.081 1156.91 L773.317 1140.8 Z" fill="#000000" fill-rule="evenodd" fill-opacity="1" /><polyline clip-path="url(#clip660)" style="stroke:#ff0000; stroke-linecap:butt; stroke-linejoin:round; stroke-width:4; stroke-opacity:1; fill:none" points="
  346.097,1209.92 486.096,1209.92 
  "/>
<circle clip-path="url(#clip660)" cx="416.097" cy="1209.92" r="23.04" fill="#ffffff" fill-rule="evenodd" fill-opacity="1" stroke="#000000" stroke-opacity="1" stroke-width="4.096"/>
<path clip-path="url(#clip660)" d="M509.43 1192.64 L516.397 1192.64 L525.217 1216.16 L534.082 1192.64 L541.05 1192.64 L541.05 1227.2 L536.49 1227.2 L536.49 1196.85 L527.578 1220.56 L522.879 1220.56 L513.967 1196.85 L513.967 1227.2 L509.43 1227.2 L509.43 1192.64 Z" fill="#000000" fill-rule="evenodd" fill-opacity="1" /><path clip-path="url(#clip660)" d="M561.929 1214.17 Q556.767 1214.17 554.777 1215.35 Q552.786 1216.53 552.786 1219.38 Q552.786 1221.65 554.267 1222.99 Q555.772 1224.31 558.341 1224.31 Q561.883 1224.31 564.013 1221.81 Q566.165 1219.28 566.165 1215.12 L566.165 1214.17 L561.929 1214.17 M570.425 1212.41 L570.425 1227.2 L566.165 1227.2 L566.165 1223.27 Q564.707 1225.63 562.531 1226.76 Q560.355 1227.87 557.207 1227.87 Q553.226 1227.87 550.865 1225.65 Q548.527 1223.41 548.527 1219.66 Q548.527 1215.28 551.443 1213.06 Q554.383 1210.84 560.193 1210.84 L566.165 1210.84 L566.165 1210.42 Q566.165 1207.48 564.221 1205.88 Q562.3 1204.26 558.804 1204.26 Q556.582 1204.26 554.476 1204.79 Q552.369 1205.33 550.425 1206.39 L550.425 1202.46 Q552.763 1201.55 554.962 1201.11 Q557.161 1200.65 559.244 1200.65 Q564.869 1200.65 567.647 1203.57 Q570.425 1206.48 570.425 1212.41 Z" fill="#000000" fill-rule="evenodd" fill-opacity="1" /><path clip-path="url(#clip660)" d="M583.411 1193.91 L583.411 1201.28 L592.184 1201.28 L592.184 1204.59 L583.411 1204.59 L583.411 1218.66 Q583.411 1221.83 584.267 1222.73 Q585.147 1223.64 587.809 1223.64 L592.184 1223.64 L592.184 1227.2 L587.809 1227.2 Q582.878 1227.2 581.003 1225.37 Q579.128 1223.52 579.128 1218.66 L579.128 1204.59 L576.003 1204.59 L576.003 1201.28 L579.128 1201.28 L579.128 1193.91 L583.411 1193.91 Z" fill="#000000" fill-rule="evenodd" fill-opacity="1" /><path clip-path="url(#clip660)" d="M597.786 1191.18 L602.045 1191.18 L602.045 1227.2 L597.786 1227.2 L597.786 1191.18 Z" fill="#000000" fill-rule="evenodd" fill-opacity="1" /><path clip-path="url(#clip660)" d="M622.739 1214.17 Q617.577 1214.17 615.586 1215.35 Q613.596 1216.53 613.596 1219.38 Q613.596 1221.65 615.077 1222.99 Q616.582 1224.31 619.151 1224.31 Q622.693 1224.31 624.823 1221.81 Q626.975 1219.28 626.975 1215.12 L626.975 1214.17 L622.739 1214.17 M631.235 1212.41 L631.235 1227.2 L626.975 1227.2 L626.975 1223.27 Q625.517 1225.63 623.341 1226.76 Q621.165 1227.87 618.017 1227.87 Q614.036 1227.87 611.674 1225.65 Q609.337 1223.41 609.337 1219.66 Q609.337 1215.28 612.253 1213.06 Q615.193 1210.84 621.003 1210.84 L626.975 1210.84 L626.975 1210.42 Q626.975 1207.48 625.031 1205.88 Q623.11 1204.26 619.614 1204.26 Q617.392 1204.26 615.286 1204.79 Q613.179 1205.33 611.235 1206.39 L611.235 1202.46 Q613.573 1201.55 615.772 1201.11 Q617.971 1200.65 620.054 1200.65 Q625.679 1200.65 628.457 1203.57 Q631.235 1206.48 631.235 1212.41 Z" fill="#000000" fill-rule="evenodd" fill-opacity="1" /><path clip-path="url(#clip660)" d="M658.619 1214.26 Q658.619 1209.56 656.674 1206.9 Q654.753 1204.22 651.373 1204.22 Q647.994 1204.22 646.049 1206.9 Q644.128 1209.56 644.128 1214.26 Q644.128 1218.96 646.049 1221.65 Q647.994 1224.31 651.373 1224.31 Q654.753 1224.31 656.674 1221.65 Q658.619 1218.96 658.619 1214.26 M644.128 1205.21 Q645.471 1202.9 647.508 1201.79 Q649.568 1200.65 652.415 1200.65 Q657.137 1200.65 660.077 1204.4 Q663.04 1208.15 663.04 1214.26 Q663.04 1220.37 660.077 1224.12 Q657.137 1227.87 652.415 1227.87 Q649.568 1227.87 647.508 1226.76 Q645.471 1225.63 644.128 1223.31 L644.128 1227.2 L639.846 1227.2 L639.846 1191.18 L644.128 1191.18 L644.128 1205.21 Z" fill="#000000" fill-rule="evenodd" fill-opacity="1" /><path clip-path="url(#clip660)" d="M690.031 1196.48 L690.031 1209.47 L695.91 1209.47 Q699.174 1209.47 700.956 1207.78 Q702.739 1206.09 702.739 1202.97 Q702.739 1199.86 700.956 1198.17 Q699.174 1196.48 695.91 1196.48 L690.031 1196.48 M685.355 1192.64 L695.91 1192.64 Q701.72 1192.64 704.683 1195.28 Q707.669 1197.9 707.669 1202.97 Q707.669 1208.08 704.683 1210.7 Q701.72 1213.31 695.91 1213.31 L690.031 1213.31 L690.031 1227.2 L685.355 1227.2 L685.355 1192.64 Z" fill="#000000" fill-rule="evenodd" fill-opacity="1" /><path clip-path="url(#clip660)" d="M713.942 1192.64 L718.618 1192.64 L718.618 1227.2 L713.942 1227.2 L713.942 1192.64 Z" fill="#000000" fill-rule="evenodd" fill-opacity="1" /><path clip-path="url(#clip660)" d="M725.586 1212.32 L738.063 1212.32 L738.063 1216.11 L725.586 1216.11 L725.586 1212.32 Z" fill="#000000" fill-rule="evenodd" fill-opacity="1" /><path clip-path="url(#clip660)" d="M749.706 1196.48 L749.706 1209.47 L755.586 1209.47 Q758.85 1209.47 760.632 1207.78 Q762.414 1206.09 762.414 1202.97 Q762.414 1199.86 760.632 1198.17 Q758.85 1196.48 755.586 1196.48 L749.706 1196.48 M745.03 1192.64 L755.586 1192.64 Q761.396 1192.64 764.359 1195.28 Q767.345 1197.9 767.345 1202.97 Q767.345 1208.08 764.359 1210.7 Q761.396 1213.31 755.586 1213.31 L749.706 1213.31 L749.706 1227.2 L745.03 1227.2 L745.03 1192.64 Z" fill="#000000" fill-rule="evenodd" fill-opacity="1" /><path clip-path="url(#clip660)" d="M799.498 1195.3 L799.498 1200.23 Q797.136 1198.04 794.451 1196.95 Q791.789 1195.86 788.78 1195.86 Q782.854 1195.86 779.706 1199.49 Q776.558 1203.1 776.558 1209.96 Q776.558 1216.78 779.706 1220.42 Q782.854 1224.03 788.78 1224.03 Q791.789 1224.03 794.451 1222.94 Q797.136 1221.85 799.498 1219.66 L799.498 1224.54 Q797.044 1226.21 794.289 1227.04 Q791.558 1227.87 788.502 1227.87 Q780.655 1227.87 776.141 1223.08 Q771.627 1218.27 771.627 1209.96 Q771.627 1201.62 776.141 1196.83 Q780.655 1192.02 788.502 1192.02 Q791.604 1192.02 794.336 1192.85 Q797.09 1193.66 799.498 1195.3 Z" fill="#000000" fill-rule="evenodd" fill-opacity="1" /><polyline clip-path="url(#clip660)" style="stroke:#ff0000; stroke-linecap:butt; stroke-linejoin:round; stroke-width:4; stroke-opacity:1; fill:none" points="
  346.097,1261.76 486.096,1261.76 
  "/>
<path clip-path="url(#clip660)" d="M416.097 1236.16 L390.497 1261.76 L416.097 1287.36 L441.697 1261.76 L416.097 1236.16 Z" fill="#ffffff" fill-rule="evenodd" fill-opacity="1" stroke="#000000" stroke-opacity="1" stroke-width="4.096"/>
<path clip-path="url(#clip660)" d="M509.43 1244.48 L516.397 1244.48 L525.217 1268 L534.082 1244.48 L541.05 1244.48 L541.05 1279.04 L536.49 1279.04 L536.49 1248.69 L527.578 1272.4 L522.879 1272.4 L513.967 1248.69 L513.967 1279.04 L509.43 1279.04 L509.43 1244.48 Z" fill="#000000" fill-rule="evenodd" fill-opacity="1" /><path clip-path="url(#clip660)" d="M561.929 1266.01 Q556.767 1266.01 554.777 1267.19 Q552.786 1268.37 552.786 1271.22 Q552.786 1273.49 554.267 1274.83 Q555.772 1276.15 558.341 1276.15 Q561.883 1276.15 564.013 1273.65 Q566.165 1271.12 566.165 1266.96 L566.165 1266.01 L561.929 1266.01 M570.425 1264.25 L570.425 1279.04 L566.165 1279.04 L566.165 1275.11 Q564.707 1277.47 562.531 1278.6 Q560.355 1279.71 557.207 1279.71 Q553.226 1279.71 550.865 1277.49 Q548.527 1275.25 548.527 1271.5 Q548.527 1267.12 551.443 1264.9 Q554.383 1262.68 560.193 1262.68 L566.165 1262.68 L566.165 1262.26 Q566.165 1259.32 564.221 1257.72 Q562.3 1256.1 558.804 1256.1 Q556.582 1256.1 554.476 1256.63 Q552.369 1257.17 550.425 1258.23 L550.425 1254.3 Q552.763 1253.39 554.962 1252.95 Q557.161 1252.49 559.244 1252.49 Q564.869 1252.49 567.647 1255.41 Q570.425 1258.32 570.425 1264.25 Z" fill="#000000" fill-rule="evenodd" fill-opacity="1" /><path clip-path="url(#clip660)" d="M583.411 1245.75 L583.411 1253.12 L592.184 1253.12 L592.184 1256.43 L583.411 1256.43 L583.411 1270.5 Q583.411 1273.67 584.267 1274.57 Q585.147 1275.48 587.809 1275.48 L592.184 1275.48 L592.184 1279.04 L587.809 1279.04 Q582.878 1279.04 581.003 1277.21 Q579.128 1275.36 579.128 1270.5 L579.128 1256.43 L576.003 1256.43 L576.003 1253.12 L579.128 1253.12 L579.128 1245.75 L583.411 1245.75 Z" fill="#000000" fill-rule="evenodd" fill-opacity="1" /><path clip-path="url(#clip660)" d="M597.786 1243.02 L602.045 1243.02 L602.045 1279.04 L597.786 1279.04 L597.786 1243.02 Z" fill="#000000" fill-rule="evenodd" fill-opacity="1" /><path clip-path="url(#clip660)" d="M622.739 1266.01 Q617.577 1266.01 615.586 1267.19 Q613.596 1268.37 613.596 1271.22 Q613.596 1273.49 615.077 1274.83 Q616.582 1276.15 619.151 1276.15 Q622.693 1276.15 624.823 1273.65 Q626.975 1271.12 626.975 1266.96 L626.975 1266.01 L622.739 1266.01 M631.235 1264.25 L631.235 1279.04 L626.975 1279.04 L626.975 1275.11 Q625.517 1277.47 623.341 1278.6 Q621.165 1279.71 618.017 1279.71 Q614.036 1279.71 611.674 1277.49 Q609.337 1275.25 609.337 1271.5 Q609.337 1267.12 612.253 1264.9 Q615.193 1262.68 621.003 1262.68 L626.975 1262.68 L626.975 1262.26 Q626.975 1259.32 625.031 1257.72 Q623.11 1256.1 619.614 1256.1 Q617.392 1256.1 615.286 1256.63 Q613.179 1257.17 611.235 1258.23 L611.235 1254.3 Q613.573 1253.39 615.772 1252.95 Q617.971 1252.49 620.054 1252.49 Q625.679 1252.49 628.457 1255.41 Q631.235 1258.32 631.235 1264.25 Z" fill="#000000" fill-rule="evenodd" fill-opacity="1" /><path clip-path="url(#clip660)" d="M658.619 1266.1 Q658.619 1261.4 656.674 1258.74 Q654.753 1256.06 651.373 1256.06 Q647.994 1256.06 646.049 1258.74 Q644.128 1261.4 644.128 1266.1 Q644.128 1270.8 646.049 1273.49 Q647.994 1276.15 651.373 1276.15 Q654.753 1276.15 656.674 1273.49 Q658.619 1270.8 658.619 1266.1 M644.128 1257.05 Q645.471 1254.74 647.508 1253.63 Q649.568 1252.49 652.415 1252.49 Q657.137 1252.49 660.077 1256.24 Q663.04 1259.99 663.04 1266.1 Q663.04 1272.21 660.077 1275.96 Q657.137 1279.71 652.415 1279.71 Q649.568 1279.71 647.508 1278.6 Q645.471 1277.47 644.128 1275.15 L644.128 1279.04 L639.846 1279.04 L639.846 1243.02 L644.128 1243.02 L644.128 1257.05 Z" fill="#000000" fill-rule="evenodd" fill-opacity="1" /><path clip-path="url(#clip660)" d="M690.031 1248.32 L690.031 1261.31 L695.91 1261.31 Q699.174 1261.31 700.956 1259.62 Q702.739 1257.93 702.739 1254.81 Q702.739 1251.7 700.956 1250.01 Q699.174 1248.32 695.91 1248.32 L690.031 1248.32 M685.355 1244.48 L695.91 1244.48 Q701.72 1244.48 704.683 1247.12 Q707.669 1249.74 707.669 1254.81 Q707.669 1259.92 704.683 1262.54 Q701.72 1265.15 695.91 1265.15 L690.031 1265.15 L690.031 1279.04 L685.355 1279.04 L685.355 1244.48 Z" fill="#000000" fill-rule="evenodd" fill-opacity="1" /><path clip-path="url(#clip660)" d="M713.942 1244.48 L718.618 1244.48 L718.618 1279.04 L713.942 1279.04 L713.942 1244.48 Z" fill="#000000" fill-rule="evenodd" fill-opacity="1" /><path clip-path="url(#clip660)" d="M725.586 1264.16 L738.063 1264.16 L738.063 1267.95 L725.586 1267.95 L725.586 1264.16 Z" fill="#000000" fill-rule="evenodd" fill-opacity="1" /><path clip-path="url(#clip660)" d="M745.03 1244.48 L749.706 1244.48 L749.706 1279.04 L745.03 1279.04 L745.03 1244.48 Z" fill="#000000" fill-rule="evenodd" fill-opacity="1" /><path clip-path="url(#clip660)" d="M759.012 1244.48 L765.979 1244.48 L774.799 1268 L783.664 1244.48 L790.632 1244.48 L790.632 1279.04 L786.072 1279.04 L786.072 1248.69 L777.16 1272.4 L772.461 1272.4 L763.549 1248.69 L763.549 1279.04 L759.012 1279.04 L759.012 1244.48 Z" fill="#000000" fill-rule="evenodd" fill-opacity="1" /><path clip-path="url(#clip660)" d="M801.141 1275.11 L808.78 1275.11 L808.78 1248.74 L800.47 1250.41 L800.47 1246.15 L808.734 1244.48 L813.409 1244.48 L813.409 1275.11 L821.048 1275.11 L821.048 1279.04 L801.141 1279.04 L801.141 1275.11 Z" fill="#000000" fill-rule="evenodd" fill-opacity="1" /><polyline clip-path="url(#clip660)" style="stroke:#ff0000; stroke-linecap:butt; stroke-linejoin:round; stroke-width:4; stroke-opacity:1; fill:none" points="
  346.097,1313.6 486.096,1313.6 
  "/>
<path clip-path="url(#clip660)" d="M390.497 1288 L390.497 1339.2 L441.697 1339.2 L441.697 1288 L390.497 1288 Z" fill="#ffffff" fill-rule="evenodd" fill-opacity="1" stroke="#000000" stroke-opacity="1" stroke-width="4.096"/>
<path clip-path="url(#clip660)" d="M509.43 1296.32 L516.397 1296.32 L525.217 1319.84 L534.082 1296.32 L541.05 1296.32 L541.05 1330.88 L536.49 1330.88 L536.49 1300.53 L527.578 1324.24 L522.879 1324.24 L513.967 1300.53 L513.967 1330.88 L509.43 1330.88 L509.43 1296.32 Z" fill="#000000" fill-rule="evenodd" fill-opacity="1" /><path clip-path="url(#clip660)" d="M561.929 1317.85 Q556.767 1317.85 554.777 1319.03 Q552.786 1320.21 552.786 1323.06 Q552.786 1325.33 554.267 1326.67 Q555.772 1327.99 558.341 1327.99 Q561.883 1327.99 564.013 1325.49 Q566.165 1322.96 566.165 1318.8 L566.165 1317.85 L561.929 1317.85 M570.425 1316.09 L570.425 1330.88 L566.165 1330.88 L566.165 1326.95 Q564.707 1329.31 562.531 1330.44 Q560.355 1331.55 557.207 1331.55 Q553.226 1331.55 550.865 1329.33 Q548.527 1327.09 548.527 1323.34 Q548.527 1318.96 551.443 1316.74 Q554.383 1314.52 560.193 1314.52 L566.165 1314.52 L566.165 1314.1 Q566.165 1311.16 564.221 1309.56 Q562.3 1307.94 558.804 1307.94 Q556.582 1307.94 554.476 1308.47 Q552.369 1309.01 550.425 1310.07 L550.425 1306.14 Q552.763 1305.23 554.962 1304.79 Q557.161 1304.33 559.244 1304.33 Q564.869 1304.33 567.647 1307.25 Q570.425 1310.16 570.425 1316.09 Z" fill="#000000" fill-rule="evenodd" fill-opacity="1" /><path clip-path="url(#clip660)" d="M583.411 1297.59 L583.411 1304.96 L592.184 1304.96 L592.184 1308.27 L583.411 1308.27 L583.411 1322.34 Q583.411 1325.51 584.267 1326.41 Q585.147 1327.32 587.809 1327.32 L592.184 1327.32 L592.184 1330.88 L587.809 1330.88 Q582.878 1330.88 581.003 1329.05 Q579.128 1327.2 579.128 1322.34 L579.128 1308.27 L576.003 1308.27 L576.003 1304.96 L579.128 1304.96 L579.128 1297.59 L583.411 1297.59 Z" fill="#000000" fill-rule="evenodd" fill-opacity="1" /><path clip-path="url(#clip660)" d="M597.786 1294.86 L602.045 1294.86 L602.045 1330.88 L597.786 1330.88 L597.786 1294.86 Z" fill="#000000" fill-rule="evenodd" fill-opacity="1" /><path clip-path="url(#clip660)" d="M622.739 1317.85 Q617.577 1317.85 615.586 1319.03 Q613.596 1320.21 613.596 1323.06 Q613.596 1325.33 615.077 1326.67 Q616.582 1327.99 619.151 1327.99 Q622.693 1327.99 624.823 1325.49 Q626.975 1322.96 626.975 1318.8 L626.975 1317.85 L622.739 1317.85 M631.235 1316.09 L631.235 1330.88 L626.975 1330.88 L626.975 1326.95 Q625.517 1329.31 623.341 1330.44 Q621.165 1331.55 618.017 1331.55 Q614.036 1331.55 611.674 1329.33 Q609.337 1327.09 609.337 1323.34 Q609.337 1318.96 612.253 1316.74 Q615.193 1314.52 621.003 1314.52 L626.975 1314.52 L626.975 1314.1 Q626.975 1311.16 625.031 1309.56 Q623.11 1307.94 619.614 1307.94 Q617.392 1307.94 615.286 1308.47 Q613.179 1309.01 611.235 1310.07 L611.235 1306.14 Q613.573 1305.23 615.772 1304.79 Q617.971 1304.33 620.054 1304.33 Q625.679 1304.33 628.457 1307.25 Q631.235 1310.16 631.235 1316.09 Z" fill="#000000" fill-rule="evenodd" fill-opacity="1" /><path clip-path="url(#clip660)" d="M658.619 1317.94 Q658.619 1313.24 656.674 1310.58 Q654.753 1307.9 651.373 1307.9 Q647.994 1307.9 646.049 1310.58 Q644.128 1313.24 644.128 1317.94 Q644.128 1322.64 646.049 1325.33 Q647.994 1327.99 651.373 1327.99 Q654.753 1327.99 656.674 1325.33 Q658.619 1322.64 658.619 1317.94 M644.128 1308.89 Q645.471 1306.58 647.508 1305.47 Q649.568 1304.33 652.415 1304.33 Q657.137 1304.33 660.077 1308.08 Q663.04 1311.83 663.04 1317.94 Q663.04 1324.05 660.077 1327.8 Q657.137 1331.55 652.415 1331.55 Q649.568 1331.55 647.508 1330.44 Q645.471 1329.31 644.128 1326.99 L644.128 1330.88 L639.846 1330.88 L639.846 1294.86 L644.128 1294.86 L644.128 1308.89 Z" fill="#000000" fill-rule="evenodd" fill-opacity="1" /><path clip-path="url(#clip660)" d="M690.031 1300.16 L690.031 1313.15 L695.91 1313.15 Q699.174 1313.15 700.956 1311.46 Q702.739 1309.77 702.739 1306.65 Q702.739 1303.54 700.956 1301.85 Q699.174 1300.16 695.91 1300.16 L690.031 1300.16 M685.355 1296.32 L695.91 1296.32 Q701.72 1296.32 704.683 1298.96 Q707.669 1301.58 707.669 1306.65 Q707.669 1311.76 704.683 1314.38 Q701.72 1316.99 695.91 1316.99 L690.031 1316.99 L690.031 1330.88 L685.355 1330.88 L685.355 1296.32 Z" fill="#000000" fill-rule="evenodd" fill-opacity="1" /><path clip-path="url(#clip660)" d="M713.942 1296.32 L718.618 1296.32 L718.618 1330.88 L713.942 1330.88 L713.942 1296.32 Z" fill="#000000" fill-rule="evenodd" fill-opacity="1" /><path clip-path="url(#clip660)" d="M725.586 1316 L738.063 1316 L738.063 1319.79 L725.586 1319.79 L725.586 1316 Z" fill="#000000" fill-rule="evenodd" fill-opacity="1" /><path clip-path="url(#clip660)" d="M745.03 1296.32 L749.706 1296.32 L749.706 1330.88 L745.03 1330.88 L745.03 1296.32 Z" fill="#000000" fill-rule="evenodd" fill-opacity="1" /><path clip-path="url(#clip660)" d="M759.012 1296.32 L765.979 1296.32 L774.799 1319.84 L783.664 1296.32 L790.632 1296.32 L790.632 1330.88 L786.072 1330.88 L786.072 1300.53 L777.16 1324.24 L772.461 1324.24 L763.549 1300.53 L763.549 1330.88 L759.012 1330.88 L759.012 1296.32 Z" fill="#000000" fill-rule="evenodd" fill-opacity="1" /><path clip-path="url(#clip660)" d="M804.359 1326.95 L820.678 1326.95 L820.678 1330.88 L798.734 1330.88 L798.734 1326.95 Q801.396 1324.19 805.979 1319.56 Q810.585 1314.91 811.766 1313.57 Q814.011 1311.04 814.891 1309.31 Q815.794 1307.55 815.794 1305.86 Q815.794 1303.1 813.849 1301.37 Q811.928 1299.63 808.826 1299.63 Q806.627 1299.63 804.173 1300.4 Q801.743 1301.16 798.965 1302.71 L798.965 1297.99 Q801.789 1296.85 804.243 1296.28 Q806.697 1295.7 808.734 1295.7 Q814.104 1295.7 817.298 1298.38 Q820.493 1301.07 820.493 1305.56 Q820.493 1307.69 819.683 1309.61 Q818.896 1311.51 816.789 1314.1 Q816.21 1314.77 813.109 1317.99 Q810.007 1321.18 804.359 1326.95 Z" fill="#000000" fill-rule="evenodd" fill-opacity="1" /></svg>
