<?xml version="1.0" encoding="utf-8"?>
<svg xmlns="http://www.w3.org/2000/svg" xmlns:xlink="http://www.w3.org/1999/xlink" width="600" height="400" viewBox="0 0 2400 1600">
<defs>
  <clipPath id="clip140">
    <rect x="0" y="0" width="2400" height="1600"/>
  </clipPath>
</defs>
<path clip-path="url(#clip140)" d="
M0 1600 L2400 1600 L2400 0 L0 0  Z
  " fill="#ffffff" fill-rule="evenodd" fill-opacity="1"/>
<defs>
  <clipPath id="clip141">
    <rect x="480" y="0" width="1681" height="1600"/>
  </clipPath>
</defs>
<path clip-path="url(#clip140)" d="
M251.842 1410.9 L2352.76 1410.9 L2352.76 47.2441 L251.842 47.2441  Z
  " fill="#ffffff" fill-rule="evenodd" fill-opacity="1"/>
<defs>
  <clipPath id="clip142">
    <rect x="251" y="47" width="2102" height="1365"/>
  </clipPath>
</defs>
<polyline clip-path="url(#clip142)" style="stroke:#000000; stroke-linecap:butt; stroke-linejoin:round; stroke-width:2; stroke-opacity:0.1; fill:none" points="
  915.553,1410.9 915.553,47.2441 
  "/>
<polyline clip-path="url(#clip142)" style="stroke:#000000; stroke-linecap:butt; stroke-linejoin:round; stroke-width:2; stroke-opacity:0.1; fill:none" points="
  1680.96,1410.9 1680.96,47.2441 
  "/>
<polyline clip-path="url(#clip140)" style="stroke:#000000; stroke-linecap:butt; stroke-linejoin:round; stroke-width:4; stroke-opacity:1; fill:none" points="
  251.842,1410.9 2352.76,1410.9 
  "/>
<polyline clip-path="url(#clip140)" style="stroke:#000000; stroke-linecap:butt; stroke-linejoin:round; stroke-width:4; stroke-opacity:1; fill:none" points="
  251.842,47.2441 2352.76,47.2441 
  "/>
<polyline clip-path="url(#clip140)" style="stroke:#000000; stroke-linecap:butt; stroke-linejoin:round; stroke-width:4; stroke-opacity:1; fill:none" points="
  915.553,1410.9 915.553,1392 
  "/>
<polyline clip-path="url(#clip140)" style="stroke:#000000; stroke-linecap:butt; stroke-linejoin:round; stroke-width:4; stroke-opacity:1; fill:none" points="
  1680.96,1410.9 1680.96,1392 
  "/>
<path clip-path="url(#clip140)" d="M865.819 1485.02 L873.458 1485.02 L873.458 1458.66 L865.148 1460.32 L865.148 1456.06 L873.411 1454.4 L878.087 1454.4 L878.087 1485.02 L885.726 1485.02 L885.726 1488.96 L865.819 1488.96 L865.819 1485.02 Z" fill="#000000" fill-rule="evenodd" fill-opacity="1" /><path clip-path="url(#clip140)" d="M905.171 1457.48 Q901.559 1457.48 899.731 1461.04 Q897.925 1464.58 897.925 1471.71 Q897.925 1478.82 899.731 1482.38 Q901.559 1485.92 905.171 1485.92 Q908.805 1485.92 910.61 1482.38 Q912.439 1478.82 912.439 1471.71 Q912.439 1464.58 910.61 1461.04 Q908.805 1457.48 905.171 1457.48 M905.171 1453.77 Q910.981 1453.77 914.036 1458.38 Q917.115 1462.96 917.115 1471.71 Q917.115 1480.44 914.036 1485.04 Q910.981 1489.63 905.171 1489.63 Q899.36 1489.63 896.282 1485.04 Q893.226 1480.44 893.226 1471.71 Q893.226 1462.96 896.282 1458.38 Q899.36 1453.77 905.171 1453.77 Z" fill="#000000" fill-rule="evenodd" fill-opacity="1" /><path clip-path="url(#clip140)" d="M917.115 1447.87 L941.226 1447.87 L941.226 1451.07 L917.115 1451.07 L917.115 1447.87 Z" fill="#000000" fill-rule="evenodd" fill-opacity="1" /><path clip-path="url(#clip140)" d="M952.699 1458.35 L965.959 1458.35 L965.959 1461.55 L948.129 1461.55 L948.129 1458.35 Q950.292 1456.11 954.016 1452.35 Q957.759 1448.57 958.718 1447.48 Q960.542 1445.43 961.257 1444.02 Q961.99 1442.59 961.99 1441.22 Q961.99 1438.98 960.41 1437.57 Q958.849 1436.16 956.329 1436.16 Q954.542 1436.16 952.549 1436.78 Q950.574 1437.4 948.317 1438.66 L948.317 1434.82 Q950.612 1433.9 952.605 1433.43 Q954.599 1432.96 956.254 1432.96 Q960.617 1432.96 963.213 1435.14 Q965.808 1437.32 965.808 1440.97 Q965.808 1442.7 965.15 1444.26 Q964.511 1445.8 962.799 1447.91 Q962.329 1448.46 959.809 1451.07 Q957.288 1453.67 952.699 1458.35 Z" fill="#000000" fill-rule="evenodd" fill-opacity="1" /><path clip-path="url(#clip140)" d="M1631.07 1485.02 L1638.71 1485.02 L1638.71 1458.66 L1630.4 1460.32 L1630.4 1456.06 L1638.66 1454.4 L1643.34 1454.4 L1643.34 1485.02 L1650.98 1485.02 L1650.98 1488.96 L1631.07 1488.96 L1631.07 1485.02 Z" fill="#000000" fill-rule="evenodd" fill-opacity="1" /><path clip-path="url(#clip140)" d="M1670.42 1457.48 Q1666.81 1457.48 1664.98 1461.04 Q1663.18 1464.58 1663.18 1471.71 Q1663.18 1478.82 1664.98 1482.38 Q1666.81 1485.92 1670.42 1485.92 Q1674.06 1485.92 1675.86 1482.38 Q1677.69 1478.82 1677.69 1471.71 Q1677.69 1464.58 1675.86 1461.04 Q1674.06 1457.48 1670.42 1457.48 M1670.42 1453.77 Q1676.23 1453.77 1679.29 1458.38 Q1682.37 1462.96 1682.37 1471.71 Q1682.37 1480.44 1679.29 1485.04 Q1676.23 1489.63 1670.42 1489.63 Q1664.61 1489.63 1661.54 1485.04 Q1658.48 1480.44 1658.48 1471.71 Q1658.48 1462.96 1661.54 1458.38 Q1664.61 1453.77 1670.42 1453.77 Z" fill="#000000" fill-rule="evenodd" fill-opacity="1" /><path clip-path="url(#clip140)" d="M1682.37 1447.87 L1706.48 1447.87 L1706.48 1451.07 L1682.37 1451.07 L1682.37 1447.87 Z" fill="#000000" fill-rule="evenodd" fill-opacity="1" /><path clip-path="url(#clip140)" d="M1715.34 1458.35 L1721.54 1458.35 L1721.54 1436.93 L1714.79 1438.28 L1714.79 1434.82 L1721.51 1433.47 L1725.31 1433.47 L1725.31 1458.35 L1731.51 1458.35 L1731.51 1461.55 L1715.34 1461.55 L1715.34 1458.35 Z" fill="#000000" fill-rule="evenodd" fill-opacity="1" /><path clip-path="url(#clip140)" d="M1075.62 1526.67 L1115.82 1526.67 L1115.82 1532.08 L1098.95 1532.08 L1098.95 1574.19 L1092.49 1574.19 L1092.49 1532.08 L1075.62 1532.08 L1075.62 1526.67 Z" fill="#000000" fill-rule="evenodd" fill-opacity="1" /><path clip-path="url(#clip140)" d="M1119.76 1538.54 L1125.62 1538.54 L1125.62 1574.19 L1119.76 1574.19 L1119.76 1538.54 M1119.76 1524.66 L1125.62 1524.66 L1125.62 1532.08 L1119.76 1532.08 L1119.76 1524.66 Z" fill="#000000" fill-rule="evenodd" fill-opacity="1" /><path clip-path="url(#clip140)" d="M1165.63 1545.38 Q1167.82 1541.43 1170.88 1539.56 Q1173.93 1537.68 1178.07 1537.68 Q1183.64 1537.68 1186.67 1541.59 Q1189.69 1545.48 1189.69 1552.67 L1189.69 1574.19 L1183.8 1574.19 L1183.8 1552.86 Q1183.8 1547.74 1181.99 1545.25 Q1180.17 1542.77 1176.45 1542.77 Q1171.9 1542.77 1169.26 1545.79 Q1166.61 1548.82 1166.61 1554.04 L1166.61 1574.19 L1160.73 1574.19 L1160.73 1552.86 Q1160.73 1547.7 1158.91 1545.25 Q1157.1 1542.77 1153.31 1542.77 Q1148.82 1542.77 1146.18 1545.83 Q1143.54 1548.85 1143.54 1554.04 L1143.54 1574.19 L1137.65 1574.19 L1137.65 1538.54 L1143.54 1538.54 L1143.54 1544.08 Q1145.54 1540.8 1148.34 1539.24 Q1151.15 1537.68 1155 1537.68 Q1158.88 1537.68 1161.59 1539.65 Q1164.32 1541.62 1165.63 1545.38 Z" fill="#000000" fill-rule="evenodd" fill-opacity="1" /><path clip-path="url(#clip140)" d="M1231.86 1554.9 L1231.86 1557.76 L1204.94 1557.76 Q1205.32 1563.81 1208.56 1566.99 Q1211.84 1570.14 1217.67 1570.14 Q1221.04 1570.14 1224.19 1569.32 Q1227.37 1568.49 1230.49 1566.83 L1230.49 1572.37 Q1227.34 1573.71 1224.03 1574.41 Q1220.72 1575.11 1217.32 1575.11 Q1208.79 1575.11 1203.79 1570.14 Q1198.82 1565.18 1198.82 1556.71 Q1198.82 1547.96 1203.54 1542.83 Q1208.28 1537.68 1216.3 1537.68 Q1223.49 1537.68 1227.66 1542.33 Q1231.86 1546.94 1231.86 1554.9 M1226.01 1553.18 Q1225.94 1548.37 1223.3 1545.51 Q1220.69 1542.64 1216.36 1542.64 Q1211.46 1542.64 1208.5 1545.41 Q1205.57 1548.18 1205.13 1553.21 L1226.01 1553.18 Z" fill="#000000" fill-rule="evenodd" fill-opacity="1" /><path clip-path="url(#clip140)" d="M1276.26 1524.72 Q1272 1532.04 1269.93 1539.21 Q1267.86 1546.37 1267.86 1553.72 Q1267.86 1561.07 1269.93 1568.3 Q1272.03 1575.49 1276.26 1582.78 L1271.17 1582.78 Q1266.4 1575.3 1264.01 1568.07 Q1261.65 1560.85 1261.65 1553.72 Q1261.65 1546.62 1264.01 1539.43 Q1266.36 1532.24 1271.17 1524.72 L1276.26 1524.72 Z" fill="#000000" fill-rule="evenodd" fill-opacity="1" /><path clip-path="url(#clip140)" d="M1310.35 1539.59 L1310.35 1545.13 Q1307.87 1543.85 1305.2 1543.22 Q1302.52 1542.58 1299.66 1542.58 Q1295.3 1542.58 1293.1 1543.92 Q1290.94 1545.25 1290.94 1547.93 Q1290.94 1549.96 1292.5 1551.14 Q1294.06 1552.29 1298.77 1553.34 L1300.77 1553.78 Q1307.01 1555.12 1309.62 1557.57 Q1312.26 1559.99 1312.26 1564.35 Q1312.26 1569.32 1308.31 1572.21 Q1304.4 1575.11 1297.52 1575.11 Q1294.66 1575.11 1291.54 1574.54 Q1288.45 1573.99 1285.02 1572.88 L1285.02 1566.83 Q1288.26 1568.52 1291.41 1569.38 Q1294.56 1570.21 1297.65 1570.21 Q1301.79 1570.21 1304.02 1568.81 Q1306.25 1567.37 1306.25 1564.8 Q1306.25 1562.41 1304.62 1561.14 Q1303.03 1559.86 1297.59 1558.68 L1295.55 1558.21 Q1290.11 1557.06 1287.69 1554.71 Q1285.27 1552.32 1285.27 1548.18 Q1285.27 1543.15 1288.84 1540.42 Q1292.4 1537.68 1298.96 1537.68 Q1302.2 1537.68 1305.07 1538.16 Q1307.93 1538.63 1310.35 1539.59 Z" fill="#000000" fill-rule="evenodd" fill-opacity="1" /><path clip-path="url(#clip140)" d="M1347.24 1539.91 L1347.24 1545.38 Q1344.76 1544.01 1342.24 1543.34 Q1339.76 1542.64 1337.22 1542.64 Q1331.52 1542.64 1328.37 1546.27 Q1325.22 1549.87 1325.22 1556.39 Q1325.22 1562.92 1328.37 1566.55 Q1331.52 1570.14 1337.22 1570.14 Q1339.76 1570.14 1342.24 1569.47 Q1344.76 1568.77 1347.24 1567.41 L1347.24 1572.82 Q1344.79 1573.96 1342.15 1574.54 Q1339.54 1575.11 1336.58 1575.11 Q1328.53 1575.11 1323.78 1570.05 Q1319.04 1564.99 1319.04 1556.39 Q1319.04 1547.67 1323.82 1542.68 Q1328.62 1537.68 1336.96 1537.68 Q1339.67 1537.68 1342.24 1538.25 Q1344.82 1538.79 1347.24 1539.91 Z" fill="#000000" fill-rule="evenodd" fill-opacity="1" /><path clip-path="url(#clip140)" d="M1358.92 1566.1 L1365.64 1566.1 L1365.64 1571.58 L1360.42 1581.76 L1356.31 1581.76 L1358.92 1571.58 L1358.92 1566.1 Z" fill="#000000" fill-rule="evenodd" fill-opacity="1" /><path clip-path="url(#clip140)" d="M1399.12 1526.67 L1405.55 1526.67 L1405.55 1568.77 L1428.69 1568.77 L1428.69 1574.19 L1399.12 1574.19 L1399.12 1526.67 Z" fill="#000000" fill-rule="evenodd" fill-opacity="1" /><path clip-path="url(#clip140)" d="M1447.85 1542.64 Q1443.14 1542.64 1440.4 1546.34 Q1437.67 1550 1437.67 1556.39 Q1437.67 1562.79 1440.37 1566.48 Q1443.11 1570.14 1447.85 1570.14 Q1452.53 1570.14 1455.27 1566.45 Q1458 1562.76 1458 1556.39 Q1458 1550.06 1455.27 1546.37 Q1452.53 1542.64 1447.85 1542.64 M1447.85 1537.68 Q1455.49 1537.68 1459.85 1542.64 Q1464.21 1547.61 1464.21 1556.39 Q1464.21 1565.15 1459.85 1570.14 Q1455.49 1575.11 1447.85 1575.11 Q1440.18 1575.11 1435.82 1570.14 Q1431.49 1565.15 1431.49 1556.39 Q1431.49 1547.61 1435.82 1542.64 Q1440.18 1537.68 1447.85 1537.68 Z" fill="#000000" fill-rule="evenodd" fill-opacity="1" /><path clip-path="url(#clip140)" d="M1497.38 1555.95 Q1497.38 1549.58 1494.73 1546.08 Q1492.12 1542.58 1487.38 1542.58 Q1482.67 1542.58 1480.03 1546.08 Q1477.42 1549.58 1477.42 1555.95 Q1477.42 1562.28 1480.03 1565.78 Q1482.67 1569.28 1487.38 1569.28 Q1492.12 1569.28 1494.73 1565.78 Q1497.38 1562.28 1497.38 1555.95 M1503.23 1569.76 Q1503.23 1578.86 1499.19 1583.29 Q1495.15 1587.74 1486.81 1587.74 Q1483.72 1587.74 1480.98 1587.27 Q1478.25 1586.82 1475.67 1585.87 L1475.67 1580.17 Q1478.25 1581.57 1480.76 1582.24 Q1483.28 1582.91 1485.89 1582.91 Q1491.65 1582.91 1494.51 1579.88 Q1497.38 1576.89 1497.38 1570.81 L1497.38 1567.92 Q1495.56 1571.07 1492.73 1572.63 Q1489.9 1574.19 1485.95 1574.19 Q1479.39 1574.19 1475.38 1569.19 Q1471.37 1564.19 1471.37 1555.95 Q1471.37 1547.67 1475.38 1542.68 Q1479.39 1537.68 1485.95 1537.68 Q1489.9 1537.68 1492.73 1539.24 Q1495.56 1540.8 1497.38 1543.95 L1497.38 1538.54 L1503.23 1538.54 L1503.23 1569.76 Z" fill="#000000" fill-rule="evenodd" fill-opacity="1" /><path clip-path="url(#clip140)" d="M1514.37 1524.72 L1519.47 1524.72 Q1524.24 1532.24 1526.59 1539.43 Q1528.98 1546.62 1528.98 1553.72 Q1528.98 1560.85 1526.59 1568.07 Q1524.24 1575.3 1519.47 1582.78 L1514.37 1582.78 Q1518.61 1575.49 1520.67 1568.3 Q1522.78 1561.07 1522.78 1553.72 Q1522.78 1546.37 1520.67 1539.21 Q1518.61 1532.04 1514.37 1524.72 Z" fill="#000000" fill-rule="evenodd" fill-opacity="1" /><polyline clip-path="url(#clip142)" style="stroke:#000000; stroke-linecap:butt; stroke-linejoin:round; stroke-width:2; stroke-opacity:0.1; fill:none" points="
  251.842,1097.74 2352.76,1097.74 
  "/>
<polyline clip-path="url(#clip142)" style="stroke:#000000; stroke-linecap:butt; stroke-linejoin:round; stroke-width:2; stroke-opacity:0.1; fill:none" points="
  251.842,457.79 2352.76,457.79 
  "/>
<polyline clip-path="url(#clip140)" style="stroke:#000000; stroke-linecap:butt; stroke-linejoin:round; stroke-width:4; stroke-opacity:1; fill:none" points="
  251.842,1410.9 251.842,47.2441 
  "/>
<polyline clip-path="url(#clip140)" style="stroke:#000000; stroke-linecap:butt; stroke-linejoin:round; stroke-width:4; stroke-opacity:1; fill:none" points="
  2352.76,1410.9 2352.76,47.2441 
  "/>
<polyline clip-path="url(#clip140)" style="stroke:#000000; stroke-linecap:butt; stroke-linejoin:round; stroke-width:4; stroke-opacity:1; fill:none" points="
  251.842,1097.74 270.74,1097.74 
  "/>
<polyline clip-path="url(#clip140)" style="stroke:#000000; stroke-linecap:butt; stroke-linejoin:round; stroke-width:4; stroke-opacity:1; fill:none" points="
  251.842,457.79 270.74,457.79 
  "/>
<path clip-path="url(#clip140)" d="M114.931 1117.54 L122.57 1117.54 L122.57 1091.17 L114.26 1092.84 L114.26 1088.58 L122.524 1086.91 L127.2 1086.91 L127.2 1117.54 L134.839 1117.54 L134.839 1121.47 L114.931 1121.47 L114.931 1117.54 Z" fill="#000000" fill-rule="evenodd" fill-opacity="1" /><path clip-path="url(#clip140)" d="M154.283 1089.99 Q150.672 1089.99 148.843 1093.56 Q147.038 1097.1 147.038 1104.23 Q147.038 1111.33 148.843 1114.9 Q150.672 1118.44 154.283 1118.44 Q157.917 1118.44 159.723 1114.9 Q161.552 1111.33 161.552 1104.23 Q161.552 1097.1 159.723 1093.56 Q157.917 1089.99 154.283 1089.99 M154.283 1086.29 Q160.093 1086.29 163.149 1090.89 Q166.227 1095.48 166.227 1104.23 Q166.227 1112.95 163.149 1117.56 Q160.093 1122.14 154.283 1122.14 Q148.473 1122.14 145.394 1117.56 Q142.339 1112.95 142.339 1104.23 Q142.339 1095.48 145.394 1090.89 Q148.473 1086.29 154.283 1086.29 Z" fill="#000000" fill-rule="evenodd" fill-opacity="1" /><path clip-path="url(#clip140)" d="M166.227 1080.39 L190.339 1080.39 L190.339 1083.59 L166.227 1083.59 L166.227 1080.39 Z" fill="#000000" fill-rule="evenodd" fill-opacity="1" /><path clip-path="url(#clip140)" d="M210.05 1078.92 Q212.777 1079.5 214.3 1081.35 Q215.842 1083.19 215.842 1085.9 Q215.842 1090.06 212.984 1092.33 Q210.125 1094.61 204.859 1094.61 Q203.091 1094.61 201.21 1094.25 Q199.348 1093.91 197.354 1093.22 L197.354 1089.55 Q198.934 1090.47 200.815 1090.94 Q202.696 1091.41 204.746 1091.41 Q208.319 1091.41 210.181 1090 Q212.062 1088.59 212.062 1085.9 Q212.062 1083.42 210.313 1082.02 Q208.583 1080.61 205.479 1080.61 L202.207 1080.61 L202.207 1077.49 L205.63 1077.49 Q208.432 1077.49 209.918 1076.38 Q211.404 1075.25 211.404 1073.15 Q211.404 1070.98 209.861 1069.84 Q208.338 1068.67 205.479 1068.67 Q203.918 1068.67 202.132 1069.01 Q200.345 1069.35 198.201 1070.06 L198.201 1066.68 Q200.364 1066.08 202.244 1065.78 Q204.144 1065.47 205.818 1065.47 Q210.144 1065.47 212.664 1067.45 Q215.184 1069.4 215.184 1072.75 Q215.184 1075.08 213.849 1076.7 Q212.513 1078.3 210.05 1078.92 Z" fill="#000000" fill-rule="evenodd" fill-opacity="1" /><path clip-path="url(#clip140)" d="M145.137 477.582 L152.776 477.582 L152.776 451.217 L144.465 452.883 L144.465 448.624 L152.729 446.957 L157.405 446.957 L157.405 477.582 L165.044 477.582 L165.044 481.517 L145.137 481.517 L145.137 477.582 Z" fill="#000000" fill-rule="evenodd" fill-opacity="1" /><path clip-path="url(#clip140)" d="M184.488 450.036 Q180.877 450.036 179.049 453.601 Q177.243 457.143 177.243 464.272 Q177.243 471.379 179.049 474.943 Q180.877 478.485 184.488 478.485 Q188.123 478.485 189.928 474.943 Q191.757 471.379 191.757 464.272 Q191.757 457.143 189.928 453.601 Q188.123 450.036 184.488 450.036 M184.488 446.332 Q190.299 446.332 193.354 450.939 Q196.433 455.522 196.433 464.272 Q196.433 472.999 193.354 477.605 Q190.299 482.189 184.488 482.189 Q178.678 482.189 175.6 477.605 Q172.544 472.999 172.544 464.272 Q172.544 455.522 175.6 450.939 Q178.678 446.332 184.488 446.332 Z" fill="#000000" fill-rule="evenodd" fill-opacity="1" /><path clip-path="url(#clip140)" d="M206.138 428.528 Q203.204 428.528 201.718 431.425 Q200.251 434.302 200.251 440.095 Q200.251 445.869 201.718 448.766 Q203.204 451.643 206.138 451.643 Q209.09 451.643 210.557 448.766 Q212.043 445.869 212.043 440.095 Q212.043 434.302 210.557 431.425 Q209.09 428.528 206.138 428.528 M206.138 425.519 Q210.858 425.519 213.341 429.262 Q215.842 432.986 215.842 440.095 Q215.842 447.186 213.341 450.928 Q210.858 454.652 206.138 454.652 Q201.417 454.652 198.915 450.928 Q196.433 447.186 196.433 440.095 Q196.433 432.986 198.915 429.262 Q201.417 425.519 206.138 425.519 Z" fill="#000000" fill-rule="evenodd" fill-opacity="1" /><path clip-path="url(#clip140)" d="M16.4842 1034.96 L16.4842 1004.91 L21.895 1004.91 L21.895 1028.53 L35.9632 1028.53 L35.9632 1005.9 L41.3741 1005.9 L41.3741 1028.53 L58.5933 1028.53 L58.5933 1004.34 L64.0042 1004.34 L64.0042 1034.96 L16.4842 1034.96 Z" fill="#000000" fill-rule="evenodd" fill-opacity="1" /><path clip-path="url(#clip140)" d="M33.8307 973.37 Q33.2578 974.357 33.0032 975.535 Q32.7167 976.68 32.7167 978.081 Q32.7167 983.046 35.9632 985.72 Q39.1779 988.362 45.2253 988.362 L64.0042 988.362 L64.0042 994.25 L28.3562 994.25 L28.3562 988.362 L33.8944 988.362 Q30.6479 986.515 29.0883 983.555 Q27.4968 980.595 27.4968 976.362 Q27.4968 975.757 27.5923 975.025 Q27.656 974.293 27.8151 973.402 L33.8307 973.37 Z" fill="#000000" fill-rule="evenodd" fill-opacity="1" /><path clip-path="url(#clip140)" d="M33.8307 947.716 Q33.2578 948.703 33.0032 949.881 Q32.7167 951.027 32.7167 952.427 Q32.7167 957.392 35.9632 960.066 Q39.1779 962.708 45.2253 962.708 L64.0042 962.708 L64.0042 968.596 L28.3562 968.596 L28.3562 962.708 L33.8944 962.708 Q30.6479 960.862 29.0883 957.902 Q27.4968 954.942 27.4968 950.708 Q27.4968 950.104 27.5923 949.372 Q27.656 948.64 27.8151 947.748 L33.8307 947.716 Z" fill="#000000" fill-rule="evenodd" fill-opacity="1" /><path clip-path="url(#clip140)" d="M32.4621 929.192 Q32.4621 933.903 36.1542 936.64 Q39.8145 939.377 46.212 939.377 Q52.6095 939.377 56.3017 936.672 Q59.9619 933.935 59.9619 929.192 Q59.9619 924.513 56.2698 921.776 Q52.5777 919.039 46.212 919.039 Q39.8781 919.039 36.186 921.776 Q32.4621 924.513 32.4621 929.192 M27.4968 929.192 Q27.4968 921.553 32.4621 917.193 Q37.4273 912.832 46.212 912.832 Q54.9649 912.832 59.9619 917.193 Q64.9272 921.553 64.9272 929.192 Q64.9272 936.863 59.9619 941.223 Q54.9649 945.552 46.212 945.552 Q37.4273 945.552 32.4621 941.223 Q27.4968 936.863 27.4968 929.192 Z" fill="#000000" fill-rule="evenodd" fill-opacity="1" /><path clip-path="url(#clip140)" d="M33.8307 882.468 Q33.2578 883.455 33.0032 884.632 Q32.7167 885.778 32.7167 887.179 Q32.7167 892.144 35.9632 894.817 Q39.1779 897.459 45.2253 897.459 L64.0042 897.459 L64.0042 903.348 L28.3562 903.348 L28.3562 897.459 L33.8944 897.459 Q30.6479 895.613 29.0883 892.653 Q27.4968 889.693 27.4968 885.46 Q27.4968 884.855 27.5923 884.123 Q27.656 883.391 27.8151 882.5 L33.8307 882.468 Z" fill="#000000" fill-rule="evenodd" fill-opacity="1" /><path clip-path="url(#clip140)" d="M55.9197 875.975 L55.9197 869.259 L64.0042 869.259 L64.0042 875.975 L55.9197 875.975 M30.2977 875.975 L30.2977 869.259 L38.3822 869.259 L38.3822 875.975 L30.2977 875.975 Z" fill="#000000" fill-rule="evenodd" fill-opacity="1" /><path clip-path="url(#clip140)" d="M58.5933 828.423 L58.5933 805.984 L64.0042 805.984 L64.0042 836.157 L58.5933 836.157 Q54.8057 832.497 48.44 826.195 Q42.0425 819.861 40.1964 818.238 Q36.7271 815.151 34.34 813.941 Q31.921 812.7 29.5975 812.7 Q25.8099 812.7 23.4228 815.373 Q21.0356 818.015 21.0356 822.28 Q21.0356 825.304 22.086 828.678 Q23.1363 832.02 25.2688 835.839 L18.7758 835.839 Q17.2162 831.956 16.4205 828.582 Q15.6248 825.208 15.6248 822.408 Q15.6248 815.023 19.3169 810.631 Q23.009 806.239 29.1837 806.239 Q32.112 806.239 34.7537 807.353 Q37.3637 808.435 40.9285 811.331 Q41.8515 812.127 46.2757 816.392 Q50.668 820.657 58.5933 828.423 Z" fill="#000000" fill-rule="evenodd" fill-opacity="1" /><path clip-path="url(#clip140)" d="M43.5384 796.276 L43.5384 779.121 L48.7583 779.121 L48.7583 796.276 L43.5384 796.276 Z" fill="#000000" fill-rule="evenodd" fill-opacity="1" /><path clip-path="url(#clip140)" d="M42.4881 740.163 L64.0042 740.163 L64.0042 746.019 L42.679 746.019 Q37.6183 746.019 35.1038 747.992 Q32.5894 749.966 32.5894 753.913 Q32.5894 758.655 35.6131 761.392 Q38.6368 764.129 43.8567 764.129 L64.0042 764.129 L64.0042 770.018 L28.3562 770.018 L28.3562 764.129 L33.8944 764.129 Q30.6797 762.029 29.0883 759.196 Q27.4968 756.332 27.4968 752.608 Q27.4968 746.465 31.3163 743.314 Q35.1038 740.163 42.4881 740.163 Z" fill="#000000" fill-rule="evenodd" fill-opacity="1" /><path clip-path="url(#clip140)" d="M32.4621 714.668 Q32.4621 719.379 36.1542 722.116 Q39.8145 724.853 46.212 724.853 Q52.6095 724.853 56.3017 722.148 Q59.9619 719.41 59.9619 714.668 Q59.9619 709.989 56.2698 707.252 Q52.5777 704.515 46.212 704.515 Q39.8781 704.515 36.186 707.252 Q32.4621 709.989 32.4621 714.668 M27.4968 714.668 Q27.4968 707.029 32.4621 702.669 Q37.4273 698.308 46.212 698.308 Q54.9649 698.308 59.9619 702.669 Q64.9272 707.029 64.9272 714.668 Q64.9272 722.339 59.9619 726.699 Q54.9649 731.028 46.212 731.028 Q37.4273 731.028 32.4621 726.699 Q27.4968 722.339 27.4968 714.668 Z" fill="#000000" fill-rule="evenodd" fill-opacity="1" /><path clip-path="url(#clip140)" d="M33.8307 667.944 Q33.2578 668.93 33.0032 670.108 Q32.7167 671.254 32.7167 672.654 Q32.7167 677.62 35.9632 680.293 Q39.1779 682.935 45.2253 682.935 L64.0042 682.935 L64.0042 688.823 L28.3562 688.823 L28.3562 682.935 L33.8944 682.935 Q30.6479 681.089 29.0883 678.129 Q27.4968 675.169 27.4968 670.936 Q27.4968 670.331 27.5923 669.599 Q27.656 668.867 27.8151 667.975 L33.8307 667.944 Z" fill="#000000" fill-rule="evenodd" fill-opacity="1" /><path clip-path="url(#clip140)" d="M35.1993 635.192 Q31.2526 632.996 29.3747 629.94 Q27.4968 626.885 27.4968 622.747 Q27.4968 617.177 31.4117 614.153 Q35.2948 611.13 42.4881 611.13 L64.0042 611.13 L64.0042 617.018 L42.679 617.018 Q37.5546 617.018 35.072 618.832 Q32.5894 620.646 32.5894 624.37 Q32.5894 628.922 35.6131 631.564 Q38.6368 634.205 43.8567 634.205 L64.0042 634.205 L64.0042 640.094 L42.679 640.094 Q37.5228 640.094 35.072 641.908 Q32.5894 643.722 32.5894 647.51 Q32.5894 651.998 35.6449 654.639 Q38.6686 657.281 43.8567 657.281 L64.0042 657.281 L64.0042 663.169 L28.3562 663.169 L28.3562 657.281 L33.8944 657.281 Q30.616 655.276 29.0564 652.475 Q27.4968 649.674 27.4968 645.823 Q27.4968 641.94 29.4702 639.234 Q31.4436 636.497 35.1993 635.192 Z" fill="#000000" fill-rule="evenodd" fill-opacity="1" /><path clip-path="url(#clip140)" d="M14.5426 564.66 Q21.8632 568.925 29.0246 570.994 Q36.186 573.063 43.5384 573.063 Q50.8908 573.063 58.1159 570.994 Q65.3091 568.893 72.5979 564.66 L72.5979 569.753 Q65.1182 574.527 57.8931 576.914 Q50.668 579.269 43.5384 579.269 Q36.4406 579.269 29.2474 576.914 Q22.0542 574.559 14.5426 569.753 L14.5426 564.66 Z" fill="#000000" fill-rule="evenodd" fill-opacity="1" /><path clip-path="url(#clip140)" d="M16.4842 553.043 L16.4842 546.613 L58.5933 546.613 L58.5933 523.474 L64.0042 523.474 L64.0042 553.043 L16.4842 553.043 Z" fill="#000000" fill-rule="evenodd" fill-opacity="1" /><path clip-path="url(#clip140)" d="M32.4621 504.313 Q32.4621 509.024 36.1542 511.761 Q39.8145 514.498 46.212 514.498 Q52.6095 514.498 56.3017 511.793 Q59.9619 509.056 59.9619 504.313 Q59.9619 499.634 56.2698 496.897 Q52.5777 494.16 46.212 494.16 Q39.8781 494.16 36.186 496.897 Q32.4621 499.634 32.4621 504.313 M27.4968 504.313 Q27.4968 496.674 32.4621 492.314 Q37.4273 487.953 46.212 487.953 Q54.9649 487.953 59.9619 492.314 Q64.9272 496.674 64.9272 504.313 Q64.9272 511.984 59.9619 516.344 Q54.9649 520.673 46.212 520.673 Q37.4273 520.673 32.4621 516.344 Q27.4968 511.984 27.4968 504.313 Z" fill="#000000" fill-rule="evenodd" fill-opacity="1" /><path clip-path="url(#clip140)" d="M45.7664 454.788 Q39.4007 454.788 35.8996 457.43 Q32.3984 460.04 32.3984 464.782 Q32.3984 469.493 35.8996 472.135 Q39.4007 474.744 45.7664 474.744 Q52.1003 474.744 55.6014 472.135 Q59.1026 469.493 59.1026 464.782 Q59.1026 460.04 55.6014 457.43 Q52.1003 454.788 45.7664 454.788 M59.58 448.932 Q68.683 448.932 73.1071 452.974 Q77.5631 457.016 77.5631 465.355 Q77.5631 468.442 77.0857 471.18 Q76.6401 473.917 75.6852 476.495 L69.9879 476.495 Q71.3884 473.917 72.0568 471.402 Q72.7252 468.888 72.7252 466.278 Q72.7252 460.517 69.7015 457.653 Q66.7096 454.788 60.6303 454.788 L57.7339 454.788 Q60.885 456.602 62.4446 459.435 Q64.0042 462.268 64.0042 466.214 Q64.0042 472.771 59.0071 476.782 Q54.01 480.792 45.7664 480.792 Q37.491 480.792 32.4939 476.782 Q27.4968 472.771 27.4968 466.214 Q27.4968 462.268 29.0564 459.435 Q30.616 456.602 33.7671 454.788 L28.3562 454.788 L28.3562 448.932 L59.58 448.932 Z" fill="#000000" fill-rule="evenodd" fill-opacity="1" /><path clip-path="url(#clip140)" d="M14.5426 437.792 L14.5426 432.699 Q22.0542 427.925 29.2474 425.569 Q36.4406 423.182 43.5384 423.182 Q50.668 423.182 57.8931 425.569 Q65.1182 427.925 72.5979 432.699 L72.5979 437.792 Q65.3091 433.558 58.1159 431.489 Q50.8908 429.389 43.5384 429.389 Q36.186 429.389 29.0246 431.489 Q21.8632 433.558 14.5426 437.792 Z" fill="#000000" fill-rule="evenodd" fill-opacity="1" /><polyline clip-path="url(#clip142)" style="stroke:#0000ff; stroke-linecap:butt; stroke-linejoin:round; stroke-width:8; stroke-opacity:1; fill:none" points="
  660.59,992.135 901.134,1061.02 1141.37,1130.37 1383.49,1200.12 1661.89,1270.44 1895.66,1342.01 
  "/>
<circle clip-path="url(#clip142)" cx="660.59" cy="992.135" r="18" fill="#ffffff" fill-rule="evenodd" fill-opacity="1" stroke="#000000" stroke-opacity="1" stroke-width="3.2"/>
<circle clip-path="url(#clip142)" cx="901.134" cy="1061.02" r="18" fill="#ffffff" fill-rule="evenodd" fill-opacity="1" stroke="#000000" stroke-opacity="1" stroke-width="3.2"/>
<circle clip-path="url(#clip142)" cx="1141.37" cy="1130.37" r="18" fill="#ffffff" fill-rule="evenodd" fill-opacity="1" stroke="#000000" stroke-opacity="1" stroke-width="3.2"/>
<circle clip-path="url(#clip142)" cx="1383.49" cy="1200.12" r="18" fill="#ffffff" fill-rule="evenodd" fill-opacity="1" stroke="#000000" stroke-opacity="1" stroke-width="3.2"/>
<circle clip-path="url(#clip142)" cx="1661.89" cy="1270.44" r="18" fill="#ffffff" fill-rule="evenodd" fill-opacity="1" stroke="#000000" stroke-opacity="1" stroke-width="3.2"/>
<circle clip-path="url(#clip142)" cx="1895.66" cy="1342.01" r="18" fill="#ffffff" fill-rule="evenodd" fill-opacity="1" stroke="#000000" stroke-opacity="1" stroke-width="3.2"/>
<polyline clip-path="url(#clip142)" style="stroke:#0000ff; stroke-linecap:butt; stroke-linejoin:round; stroke-width:8; stroke-opacity:1; fill:none" points="
  735.228,1019.14 950.518,1087.48 1166.53,1156.39 1410.14,1225.85 1660.75,1296.42 1882.46,1368.35 
  "/>
<path clip-path="url(#clip142)" d="M715.228 999.138 L715.228 1039.14 L755.228 1039.14 L755.228 999.138 L715.228 999.138 Z" fill="#ffffff" fill-rule="evenodd" fill-opacity="1" stroke="#000000" stroke-opacity="1" stroke-width="3.2"/>
<path clip-path="url(#clip142)" d="M930.518 1067.48 L930.518 1107.48 L970.518 1107.48 L970.518 1067.48 L930.518 1067.48 Z" fill="#ffffff" fill-rule="evenodd" fill-opacity="1" stroke="#000000" stroke-opacity="1" stroke-width="3.2"/>
<path clip-path="url(#clip142)" d="M1146.53 1136.39 L1146.53 1176.39 L1186.53 1176.39 L1186.53 1136.39 L1146.53 1136.39 Z" fill="#ffffff" fill-rule="evenodd" fill-opacity="1" stroke="#000000" stroke-opacity="1" stroke-width="3.2"/>
<path clip-path="url(#clip142)" d="M1390.14 1205.85 L1390.14 1245.85 L1430.14 1245.85 L1430.14 1205.85 L1390.14 1205.85 Z" fill="#ffffff" fill-rule="evenodd" fill-opacity="1" stroke="#000000" stroke-opacity="1" stroke-width="3.2"/>
<path clip-path="url(#clip142)" d="M1640.75 1276.42 L1640.75 1316.42 L1680.75 1316.42 L1680.75 1276.42 L1640.75 1276.42 Z" fill="#ffffff" fill-rule="evenodd" fill-opacity="1" stroke="#000000" stroke-opacity="1" stroke-width="3.2"/>
<path clip-path="url(#clip142)" d="M1862.46 1348.35 L1862.46 1388.35 L1902.46 1388.35 L1902.46 1348.35 L1862.46 1348.35 Z" fill="#ffffff" fill-rule="evenodd" fill-opacity="1" stroke="#000000" stroke-opacity="1" stroke-width="3.2"/>
<polyline clip-path="url(#clip142)" style="stroke:#ff0000; stroke-linecap:butt; stroke-linejoin:round; stroke-width:8; stroke-opacity:1; fill:none" points="
  1075.07,812.308 1316.85,845.959 1527.69,879.133 1771.98,911.961 2005.9,944.562 
  "/>
<path clip-path="url(#clip142)" d="M1091.07 812.308 L1067.07 798.308 L1067.07 826.308 L1091.07 812.308 Z" fill="#ffffff" fill-rule="evenodd" fill-opacity="1" stroke="#000000" stroke-opacity="1" stroke-width="3.2"/>
<path clip-path="url(#clip142)" d="M1332.85 845.959 L1308.85 831.959 L1308.85 859.959 L1332.85 845.959 Z" fill="#ffffff" fill-rule="evenodd" fill-opacity="1" stroke="#000000" stroke-opacity="1" stroke-width="3.2"/>
<path clip-path="url(#clip142)" d="M1543.69 879.133 L1519.69 865.133 L1519.69 893.133 L1543.69 879.133 Z" fill="#ffffff" fill-rule="evenodd" fill-opacity="1" stroke="#000000" stroke-opacity="1" stroke-width="3.2"/>
<path clip-path="url(#clip142)" d="M1787.98 911.961 L1763.98 897.961 L1763.98 925.961 L1787.98 911.961 Z" fill="#ffffff" fill-rule="evenodd" fill-opacity="1" stroke="#000000" stroke-opacity="1" stroke-width="3.2"/>
<path clip-path="url(#clip142)" d="M2021.9 944.562 L1997.9 930.562 L1997.9 958.562 L2021.9 944.562 Z" fill="#ffffff" fill-rule="evenodd" fill-opacity="1" stroke="#000000" stroke-opacity="1" stroke-width="3.2"/>
<polyline clip-path="url(#clip142)" style="stroke:#ff0000; stroke-linecap:butt; stroke-linejoin:round; stroke-width:8; stroke-opacity:1; fill:none" points="
  998.675,997.275 1216.38,1066.42 1446.81,1136 1667.98,1205.96 1915.05,1276.48 2127.67,1348.31 
  "/>
<circle clip-path="url(#clip142)" cx="998.675" cy="997.275" r="18" fill="#ffffff" fill-rule="evenodd" fill-opacity="1" stroke="#000000" stroke-opacity="1" stroke-width="3.2"/>
<circle clip-path="url(#clip142)" cx="1216.38" cy="1066.42" r="18" fill="#ffffff" fill-rule="evenodd" fill-opacity="1" stroke="#000000" stroke-opacity="1" stroke-width="3.2"/>
<circle clip-path="url(#clip142)" cx="1446.81" cy="1136" r="18" fill="#ffffff" fill-rule="evenodd" fill-opacity="1" stroke="#000000" stroke-opacity="1" stroke-width="3.2"/>
<circle clip-path="url(#clip142)" cx="1667.98" cy="1205.96" r="18" fill="#ffffff" fill-rule="evenodd" fill-opacity="1" stroke="#000000" stroke-opacity="1" stroke-width="3.2"/>
<circle clip-path="url(#clip142)" cx="1915.05" cy="1276.48" r="18" fill="#ffffff" fill-rule="evenodd" fill-opacity="1" stroke="#000000" stroke-opacity="1" stroke-width="3.2"/>
<circle clip-path="url(#clip142)" cx="2127.67" cy="1348.31" r="18" fill="#ffffff" fill-rule="evenodd" fill-opacity="1" stroke="#000000" stroke-opacity="1" stroke-width="3.2"/>
<polyline clip-path="url(#clip142)" style="stroke:#ff0000; stroke-linecap:butt; stroke-linejoin:round; stroke-width:8; stroke-opacity:1; fill:none" points="
  1039.29,792.135 1251.19,821.908 1469.62,852.425 1659.1,883.459 1912.88,914.836 2124.18,946.446 
  "/>
<path clip-path="url(#clip142)" d="M1039.29 772.135 L1019.29 792.135 L1039.29 812.135 L1059.29 792.135 L1039.29 772.135 Z" fill="#ffffff" fill-rule="evenodd" fill-opacity="1" stroke="#000000" stroke-opacity="1" stroke-width="3.2"/>
<path clip-path="url(#clip142)" d="M1251.19 801.908 L1231.19 821.908 L1251.19 841.908 L1271.19 821.908 L1251.19 801.908 Z" fill="#ffffff" fill-rule="evenodd" fill-opacity="1" stroke="#000000" stroke-opacity="1" stroke-width="3.2"/>
<path clip-path="url(#clip142)" d="M1469.62 832.425 L1449.62 852.425 L1469.62 872.425 L1489.62 852.425 L1469.62 832.425 Z" fill="#ffffff" fill-rule="evenodd" fill-opacity="1" stroke="#000000" stroke-opacity="1" stroke-width="3.2"/>
<path clip-path="url(#clip142)" d="M1659.1 863.459 L1639.1 883.459 L1659.1 903.459 L1679.1 883.459 L1659.1 863.459 Z" fill="#ffffff" fill-rule="evenodd" fill-opacity="1" stroke="#000000" stroke-opacity="1" stroke-width="3.2"/>
<path clip-path="url(#clip142)" d="M1912.88 894.836 L1892.88 914.836 L1912.88 934.836 L1932.88 914.836 L1912.88 894.836 Z" fill="#ffffff" fill-rule="evenodd" fill-opacity="1" stroke="#000000" stroke-opacity="1" stroke-width="3.2"/>
<path clip-path="url(#clip142)" d="M2124.18 926.446 L2104.18 946.446 L2124.18 966.446 L2144.18 946.446 L2124.18 926.446 Z" fill="#ffffff" fill-rule="evenodd" fill-opacity="1" stroke="#000000" stroke-opacity="1" stroke-width="3.2"/>
<polyline clip-path="url(#clip142)" style="stroke:#ff0000; stroke-linecap:butt; stroke-linejoin:round; stroke-width:8; stroke-opacity:1; fill:none" points="
  1011.87,1022.7 1233.93,1091.12 1452.6,1160.1 1658.79,1229.64 1896.01,1300.3 2122.15,1372.3 
  "/>
<path clip-path="url(#clip142)" d="M991.871 1002.7 L991.871 1042.7 L1031.87 1042.7 L1031.87 1002.7 L991.871 1002.7 Z" fill="#ffffff" fill-rule="evenodd" fill-opacity="1" stroke="#000000" stroke-opacity="1" stroke-width="3.2"/>
<path clip-path="url(#clip142)" d="M1213.93 1071.12 L1213.93 1111.12 L1253.93 1111.12 L1253.93 1071.12 L1213.93 1071.12 Z" fill="#ffffff" fill-rule="evenodd" fill-opacity="1" stroke="#000000" stroke-opacity="1" stroke-width="3.2"/>
<path clip-path="url(#clip142)" d="M1432.6 1140.1 L1432.6 1180.1 L1472.6 1180.1 L1472.6 1140.1 L1432.6 1140.1 Z" fill="#ffffff" fill-rule="evenodd" fill-opacity="1" stroke="#000000" stroke-opacity="1" stroke-width="3.2"/>
<path clip-path="url(#clip142)" d="M1638.79 1209.64 L1638.79 1249.64 L1678.79 1249.64 L1678.79 1209.64 L1638.79 1209.64 Z" fill="#ffffff" fill-rule="evenodd" fill-opacity="1" stroke="#000000" stroke-opacity="1" stroke-width="3.2"/>
<path clip-path="url(#clip142)" d="M1876.01 1280.3 L1876.01 1320.3 L1916.01 1320.3 L1916.01 1280.3 L1876.01 1280.3 Z" fill="#ffffff" fill-rule="evenodd" fill-opacity="1" stroke="#000000" stroke-opacity="1" stroke-width="3.2"/>
<path clip-path="url(#clip142)" d="M2102.15 1352.3 L2102.15 1392.3 L2142.15 1392.3 L2142.15 1352.3 L2102.15 1352.3 Z" fill="#ffffff" fill-rule="evenodd" fill-opacity="1" stroke="#000000" stroke-opacity="1" stroke-width="3.2"/>
<polyline clip-path="url(#clip142)" style="stroke:#800080; stroke-linecap:butt; stroke-linejoin:round; stroke-width:8; stroke-opacity:1; fill:none" points="
  311.302,734.266 627.722,765.86 979.898,797.686 1408.59,829.636 1833.88,861.654 2293.3,893.713 
  "/>
<path clip-path="url(#clip142)" d="M311.302 718.266 L307.542 729.082 L296.086 729.322 L305.222 736.25 L301.894 747.21 L311.302 740.666 L320.71 747.21 L317.382 736.25 L326.518 729.322 L315.062 729.082 L311.302 718.266 Z" fill="#ffffff" fill-rule="evenodd" fill-opacity="1" stroke="#000000" stroke-opacity="1" stroke-width="3.2"/>
<path clip-path="url(#clip142)" d="M627.722 749.86 L623.962 760.676 L612.506 760.916 L621.642 767.844 L618.314 778.804 L627.722 772.26 L637.13 778.804 L633.802 767.844 L642.938 760.916 L631.482 760.676 L627.722 749.86 Z" fill="#ffffff" fill-rule="evenodd" fill-opacity="1" stroke="#000000" stroke-opacity="1" stroke-width="3.2"/>
<path clip-path="url(#clip142)" d="M979.898 781.686 L976.138 792.502 L964.682 792.742 L973.818 799.67 L970.49 810.63 L979.898 804.086 L989.306 810.63 L985.978 799.67 L995.114 792.742 L983.658 792.502 L979.898 781.686 Z" fill="#ffffff" fill-rule="evenodd" fill-opacity="1" stroke="#000000" stroke-opacity="1" stroke-width="3.2"/>
<path clip-path="url(#clip142)" d="M1408.59 813.636 L1404.83 824.452 L1393.38 824.692 L1402.51 831.62 L1399.18 842.58 L1408.59 836.036 L1418 842.58 L1414.67 831.62 L1423.81 824.692 L1412.35 824.452 L1408.59 813.636 Z" fill="#ffffff" fill-rule="evenodd" fill-opacity="1" stroke="#000000" stroke-opacity="1" stroke-width="3.2"/>
<path clip-path="url(#clip142)" d="M1833.88 845.654 L1830.12 856.47 L1818.66 856.71 L1827.8 863.638 L1824.47 874.598 L1833.88 868.054 L1843.29 874.598 L1839.96 863.638 L1849.09 856.71 L1837.64 856.47 L1833.88 845.654 Z" fill="#ffffff" fill-rule="evenodd" fill-opacity="1" stroke="#000000" stroke-opacity="1" stroke-width="3.2"/>
<path clip-path="url(#clip142)" d="M2293.3 877.713 L2289.54 888.529 L2278.08 888.769 L2287.22 895.697 L2283.89 906.657 L2293.3 900.113 L2302.7 906.657 L2299.38 895.697 L2308.51 888.769 L2297.06 888.529 L2293.3 877.713 Z" fill="#ffffff" fill-rule="evenodd" fill-opacity="1" stroke="#000000" stroke-opacity="1" stroke-width="3.2"/>
<polyline clip-path="url(#clip142)" style="stroke:#800080; stroke-linecap:butt; stroke-linejoin:round; stroke-width:8; stroke-opacity:1; fill:none" points="
  870.856,992.135 1113.97,1061.02 1353.1,1130.37 1592.21,1200.12 1855.19,1270.44 2095.85,1342.01 
  "/>
<path clip-path="url(#clip142)" d="M870.856 972.135 L850.856 992.135 L870.856 1012.14 L890.856 992.135 L870.856 972.135 Z" fill="#ffffff" fill-rule="evenodd" fill-opacity="1" stroke="#000000" stroke-opacity="1" stroke-width="3.2"/>
<path clip-path="url(#clip142)" d="M1113.97 1041.02 L1093.97 1061.02 L1113.97 1081.02 L1133.97 1061.02 L1113.97 1041.02 Z" fill="#ffffff" fill-rule="evenodd" fill-opacity="1" stroke="#000000" stroke-opacity="1" stroke-width="3.2"/>
<path clip-path="url(#clip142)" d="M1353.1 1110.37 L1333.1 1130.37 L1353.1 1150.37 L1373.1 1130.37 L1353.1 1110.37 Z" fill="#ffffff" fill-rule="evenodd" fill-opacity="1" stroke="#000000" stroke-opacity="1" stroke-width="3.2"/>
<path clip-path="url(#clip142)" d="M1592.21 1180.12 L1572.21 1200.12 L1592.21 1220.12 L1612.21 1200.12 L1592.21 1180.12 Z" fill="#ffffff" fill-rule="evenodd" fill-opacity="1" stroke="#000000" stroke-opacity="1" stroke-width="3.2"/>
<path clip-path="url(#clip142)" d="M1855.19 1250.44 L1835.19 1270.44 L1855.19 1290.44 L1875.19 1270.44 L1855.19 1250.44 Z" fill="#ffffff" fill-rule="evenodd" fill-opacity="1" stroke="#000000" stroke-opacity="1" stroke-width="3.2"/>
<path clip-path="url(#clip142)" d="M2095.85 1322.01 L2075.85 1342.01 L2095.85 1362.01 L2115.85 1342.01 L2095.85 1322.01 Z" fill="#ffffff" fill-rule="evenodd" fill-opacity="1" stroke="#000000" stroke-opacity="1" stroke-width="3.2"/>
<polyline clip-path="url(#clip142)" style="stroke:#800080; stroke-linecap:butt; stroke-linejoin:round; stroke-width:8; stroke-opacity:1; fill:none" points="
  653.736,772.717 894.163,807.082 1133.67,840.783 1377.4,873.99 1614.7,906.846 1876.21,939.463 
  "/>
<path clip-path="url(#clip142)" d="M653.736 792.717 L636.416 782.717 L636.416 762.717 L653.736 752.717 L671.056 762.717 L671.056 782.717 Z" fill="#ffffff" fill-rule="evenodd" fill-opacity="1" stroke="#000000" stroke-opacity="1" stroke-width="3.2"/>
<path clip-path="url(#clip142)" d="M894.163 827.082 L876.843 817.082 L876.843 797.082 L894.163 787.082 L911.483 797.082 L911.483 817.082 Z" fill="#ffffff" fill-rule="evenodd" fill-opacity="1" stroke="#000000" stroke-opacity="1" stroke-width="3.2"/>
<path clip-path="url(#clip142)" d="M1133.67 860.783 L1116.35 850.783 L1116.35 830.783 L1133.67 820.783 L1150.99 830.783 L1150.99 850.783 Z" fill="#ffffff" fill-rule="evenodd" fill-opacity="1" stroke="#000000" stroke-opacity="1" stroke-width="3.2"/>
<path clip-path="url(#clip142)" d="M1377.4 893.99 L1360.08 883.99 L1360.08 863.99 L1377.4 853.99 L1394.72 863.99 L1394.72 883.99 Z" fill="#ffffff" fill-rule="evenodd" fill-opacity="1" stroke="#000000" stroke-opacity="1" stroke-width="3.2"/>
<path clip-path="url(#clip142)" d="M1614.7 926.846 L1597.38 916.846 L1597.38 896.846 L1614.7 886.846 L1632.02 896.846 L1632.02 916.846 Z" fill="#ffffff" fill-rule="evenodd" fill-opacity="1" stroke="#000000" stroke-opacity="1" stroke-width="3.2"/>
<path clip-path="url(#clip142)" d="M1876.21 959.463 L1858.89 949.463 L1858.89 929.463 L1876.21 919.463 L1893.53 929.463 L1893.53 949.463 Z" fill="#ffffff" fill-rule="evenodd" fill-opacity="1" stroke="#000000" stroke-opacity="1" stroke-width="3.2"/>
<polyline clip-path="url(#clip142)" style="stroke:#800080; stroke-linecap:butt; stroke-linejoin:round; stroke-width:8; stroke-opacity:1; fill:none" points="
  734.423,246.287 946.45,214.224 1167.27,182.14 1413.69,150.044 1663.14,117.943 2003.52,85.838 
  "/>
<line clip-path="url(#clip142)" x1="734.423" y1="246.287" x2="714.423" y2="226.287" style="stroke:#ffffff; stroke-width:3.2; stroke-opacity:1"/>
<line clip-path="url(#clip142)" x1="734.423" y1="246.287" x2="714.423" y2="266.287" style="stroke:#ffffff; stroke-width:3.2; stroke-opacity:1"/>
<line clip-path="url(#clip142)" x1="734.423" y1="246.287" x2="754.423" y2="266.287" style="stroke:#ffffff; stroke-width:3.2; stroke-opacity:1"/>
<line clip-path="url(#clip142)" x1="734.423" y1="246.287" x2="754.423" y2="226.287" style="stroke:#ffffff; stroke-width:3.2; stroke-opacity:1"/>
<line clip-path="url(#clip142)" x1="946.45" y1="214.224" x2="926.45" y2="194.224" style="stroke:#ffffff; stroke-width:3.2; stroke-opacity:1"/>
<line clip-path="url(#clip142)" x1="946.45" y1="214.224" x2="926.45" y2="234.224" style="stroke:#ffffff; stroke-width:3.2; stroke-opacity:1"/>
<line clip-path="url(#clip142)" x1="946.45" y1="214.224" x2="966.45" y2="234.224" style="stroke:#ffffff; stroke-width:3.2; stroke-opacity:1"/>
<line clip-path="url(#clip142)" x1="946.45" y1="214.224" x2="966.45" y2="194.224" style="stroke:#ffffff; stroke-width:3.2; stroke-opacity:1"/>
<line clip-path="url(#clip142)" x1="1167.27" y1="182.14" x2="1147.27" y2="162.14" style="stroke:#ffffff; stroke-width:3.2; stroke-opacity:1"/>
<line clip-path="url(#clip142)" x1="1167.27" y1="182.14" x2="1147.27" y2="202.14" style="stroke:#ffffff; stroke-width:3.2; stroke-opacity:1"/>
<line clip-path="url(#clip142)" x1="1167.27" y1="182.14" x2="1187.27" y2="202.14" style="stroke:#ffffff; stroke-width:3.2; stroke-opacity:1"/>
<line clip-path="url(#clip142)" x1="1167.27" y1="182.14" x2="1187.27" y2="162.14" style="stroke:#ffffff; stroke-width:3.2; stroke-opacity:1"/>
<line clip-path="url(#clip142)" x1="1413.69" y1="150.044" x2="1393.69" y2="130.044" style="stroke:#ffffff; stroke-width:3.2; stroke-opacity:1"/>
<line clip-path="url(#clip142)" x1="1413.69" y1="150.044" x2="1393.69" y2="170.044" style="stroke:#ffffff; stroke-width:3.2; stroke-opacity:1"/>
<line clip-path="url(#clip142)" x1="1413.69" y1="150.044" x2="1433.69" y2="170.044" style="stroke:#ffffff; stroke-width:3.2; stroke-opacity:1"/>
<line clip-path="url(#clip142)" x1="1413.69" y1="150.044" x2="1433.69" y2="130.044" style="stroke:#ffffff; stroke-width:3.2; stroke-opacity:1"/>
<line clip-path="url(#clip142)" x1="1663.14" y1="117.943" x2="1643.14" y2="97.9427" style="stroke:#ffffff; stroke-width:3.2; stroke-opacity:1"/>
<line clip-path="url(#clip142)" x1="1663.14" y1="117.943" x2="1643.14" y2="137.943" style="stroke:#ffffff; stroke-width:3.2; stroke-opacity:1"/>
<line clip-path="url(#clip142)" x1="1663.14" y1="117.943" x2="1683.14" y2="137.943" style="stroke:#ffffff; stroke-width:3.2; stroke-opacity:1"/>
<line clip-path="url(#clip142)" x1="1663.14" y1="117.943" x2="1683.14" y2="97.9427" style="stroke:#ffffff; stroke-width:3.2; stroke-opacity:1"/>
<line clip-path="url(#clip142)" x1="2003.52" y1="85.838" x2="1983.52" y2="65.838" style="stroke:#ffffff; stroke-width:3.2; stroke-opacity:1"/>
<line clip-path="url(#clip142)" x1="2003.52" y1="85.838" x2="1983.52" y2="105.838" style="stroke:#ffffff; stroke-width:3.2; stroke-opacity:1"/>
<line clip-path="url(#clip142)" x1="2003.52" y1="85.838" x2="2023.52" y2="105.838" style="stroke:#ffffff; stroke-width:3.2; stroke-opacity:1"/>
<line clip-path="url(#clip142)" x1="2003.52" y1="85.838" x2="2023.52" y2="65.838" style="stroke:#ffffff; stroke-width:3.2; stroke-opacity:1"/>
<polyline clip-path="url(#clip142)" style="stroke:#800080; stroke-linecap:butt; stroke-linejoin:round; stroke-width:8; stroke-opacity:1; fill:none" points="
  733.33,246.285 917.6,214.224 1169.43,182.14 1422.77,150.044 1662.98,117.943 1920.21,85.838 
  "/>
<path clip-path="url(#clip142)" d="M733.33 226.285 L713.33 266.285 L753.33 266.285 L733.33 226.285 Z" fill="#ffffff" fill-rule="evenodd" fill-opacity="1" stroke="#000000" stroke-opacity="1" stroke-width="3.2"/>
<path clip-path="url(#clip142)" d="M917.6 194.224 L897.6 234.224 L937.6 234.224 L917.6 194.224 Z" fill="#ffffff" fill-rule="evenodd" fill-opacity="1" stroke="#000000" stroke-opacity="1" stroke-width="3.2"/>
<path clip-path="url(#clip142)" d="M1169.43 162.14 L1149.43 202.14 L1189.43 202.14 L1169.43 162.14 Z" fill="#ffffff" fill-rule="evenodd" fill-opacity="1" stroke="#000000" stroke-opacity="1" stroke-width="3.2"/>
<path clip-path="url(#clip142)" d="M1422.77 130.044 L1402.77 170.044 L1442.77 170.044 L1422.77 130.044 Z" fill="#ffffff" fill-rule="evenodd" fill-opacity="1" stroke="#000000" stroke-opacity="1" stroke-width="3.2"/>
<path clip-path="url(#clip142)" d="M1662.98 97.9427 L1642.98 137.943 L1682.98 137.943 L1662.98 97.9427 Z" fill="#ffffff" fill-rule="evenodd" fill-opacity="1" stroke="#000000" stroke-opacity="1" stroke-width="3.2"/>
<path clip-path="url(#clip142)" d="M1920.21 65.838 L1900.21 105.838 L1940.21 105.838 L1920.21 65.838 Z" fill="#ffffff" fill-rule="evenodd" fill-opacity="1" stroke="#000000" stroke-opacity="1" stroke-width="3.2"/>
<polyline clip-path="url(#clip142)" style="stroke:#800080; stroke-linecap:butt; stroke-linejoin:round; stroke-width:8; stroke-opacity:1; fill:none" points="
  748.597,246.285 927.76,214.224 1182.04,182.14 1427.55,150.044 1675.34,117.943 1925.93,85.838 
  "/>
<path clip-path="url(#clip142)" d="M748.597 226.285 L729.577 240.105 L736.837 262.465 L760.357 262.465 L767.617 240.105 Z" fill="#ffffff" fill-rule="evenodd" fill-opacity="1" stroke="#000000" stroke-opacity="1" stroke-width="3.2"/>
<path clip-path="url(#clip142)" d="M927.76 194.224 L908.74 208.044 L916 230.404 L939.52 230.404 L946.78 208.044 Z" fill="#ffffff" fill-rule="evenodd" fill-opacity="1" stroke="#000000" stroke-opacity="1" stroke-width="3.2"/>
<path clip-path="url(#clip142)" d="M1182.04 162.14 L1163.02 175.96 L1170.28 198.32 L1193.8 198.32 L1201.06 175.96 Z" fill="#ffffff" fill-rule="evenodd" fill-opacity="1" stroke="#000000" stroke-opacity="1" stroke-width="3.2"/>
<path clip-path="url(#clip142)" d="M1427.55 130.044 L1408.53 143.864 L1415.79 166.224 L1439.31 166.224 L1446.57 143.864 Z" fill="#ffffff" fill-rule="evenodd" fill-opacity="1" stroke="#000000" stroke-opacity="1" stroke-width="3.2"/>
<path clip-path="url(#clip142)" d="M1675.34 97.9427 L1656.32 111.763 L1663.58 134.123 L1687.1 134.123 L1694.36 111.763 Z" fill="#ffffff" fill-rule="evenodd" fill-opacity="1" stroke="#000000" stroke-opacity="1" stroke-width="3.2"/>
<path clip-path="url(#clip142)" d="M1925.93 65.838 L1906.91 79.658 L1914.17 102.018 L1937.69 102.018 L1944.95 79.658 Z" fill="#ffffff" fill-rule="evenodd" fill-opacity="1" stroke="#000000" stroke-opacity="1" stroke-width="3.2"/>
</svg>
