<?xml version="1.0" encoding="utf-8"?>
<svg xmlns="http://www.w3.org/2000/svg" xmlns:xlink="http://www.w3.org/1999/xlink" width="600" height="400" viewBox="0 0 2400 1600">
<defs>
  <clipPath id="clip250">
    <rect x="0" y="0" width="2400" height="1600"/>
  </clipPath>
</defs>
<path clip-path="url(#clip250)" d="
M0 1600 L2400 1600 L2400 0 L0 0  Z
  " fill="#ffffff" fill-rule="evenodd" fill-opacity="1"/>
<defs>
  <clipPath id="clip251">
    <rect x="480" y="0" width="1681" height="1600"/>
  </clipPath>
</defs>
<path clip-path="url(#clip250)" d="
M252.764 1410.9 L2352.76 1410.9 L2352.76 47.2441 L252.764 47.2441  Z
  " fill="#ffffff" fill-rule="evenodd" fill-opacity="1"/>
<defs>
  <clipPath id="clip252">
    <rect x="252" y="47" width="2101" height="1365"/>
  </clipPath>
</defs>
<polyline clip-path="url(#clip252)" style="stroke:#000000; stroke-linecap:butt; stroke-linejoin:round; stroke-width:2; stroke-opacity:0.1; fill:none" points="
  533.083,1410.9 533.083,47.2441 
  "/>
<polyline clip-path="url(#clip252)" style="stroke:#000000; stroke-linecap:butt; stroke-linejoin:round; stroke-width:2; stroke-opacity:0.1; fill:none" points="
  1644.61,1410.9 1644.61,47.2441 
  "/>
<polyline clip-path="url(#clip250)" style="stroke:#000000; stroke-linecap:butt; stroke-linejoin:round; stroke-width:4; stroke-opacity:1; fill:none" points="
  252.764,1410.9 2352.76,1410.9 
  "/>
<polyline clip-path="url(#clip250)" style="stroke:#000000; stroke-linecap:butt; stroke-linejoin:round; stroke-width:4; stroke-opacity:1; fill:none" points="
  252.764,47.2441 2352.76,47.2441 
  "/>
<polyline clip-path="url(#clip250)" style="stroke:#000000; stroke-linecap:butt; stroke-linejoin:round; stroke-width:4; stroke-opacity:1; fill:none" points="
  533.083,1410.9 533.083,1392 
  "/>
<polyline clip-path="url(#clip250)" style="stroke:#000000; stroke-linecap:butt; stroke-linejoin:round; stroke-width:4; stroke-opacity:1; fill:none" points="
  1644.61,1410.9 1644.61,1392 
  "/>
<path clip-path="url(#clip250)" d="M483.349 1485.02 L490.988 1485.02 L490.988 1458.66 L482.678 1460.32 L482.678 1456.06 L490.941 1454.4 L495.617 1454.4 L495.617 1485.02 L503.256 1485.02 L503.256 1488.96 L483.349 1488.96 L483.349 1485.02 Z" fill="#000000" fill-rule="evenodd" fill-opacity="1" /><path clip-path="url(#clip250)" d="M522.701 1457.48 Q519.089 1457.48 517.261 1461.04 Q515.455 1464.58 515.455 1471.71 Q515.455 1478.82 517.261 1482.38 Q519.089 1485.92 522.701 1485.92 Q526.335 1485.92 528.14 1482.38 Q529.969 1478.82 529.969 1471.71 Q529.969 1464.58 528.14 1461.04 Q526.335 1457.48 522.701 1457.48 M522.701 1453.77 Q528.511 1453.77 531.566 1458.38 Q534.645 1462.96 534.645 1471.71 Q534.645 1480.44 531.566 1485.04 Q528.511 1489.63 522.701 1489.63 Q516.89 1489.63 513.812 1485.04 Q510.756 1480.44 510.756 1471.71 Q510.756 1462.96 513.812 1458.38 Q516.89 1453.77 522.701 1453.77 Z" fill="#000000" fill-rule="evenodd" fill-opacity="1" /><path clip-path="url(#clip250)" d="M534.645 1447.87 L558.757 1447.87 L558.757 1451.07 L534.645 1451.07 L534.645 1447.87 Z" fill="#000000" fill-rule="evenodd" fill-opacity="1" /><path clip-path="url(#clip250)" d="M570.229 1458.35 L583.489 1458.35 L583.489 1461.55 L565.659 1461.55 L565.659 1458.35 Q567.822 1456.11 571.546 1452.35 Q575.289 1448.57 576.248 1447.48 Q578.072 1445.43 578.787 1444.02 Q579.52 1442.59 579.52 1441.22 Q579.52 1438.98 577.94 1437.57 Q576.379 1436.16 573.859 1436.16 Q572.072 1436.16 570.079 1436.78 Q568.104 1437.4 565.847 1438.66 L565.847 1434.82 Q568.142 1433.9 570.135 1433.43 Q572.129 1432.96 573.784 1432.96 Q578.147 1432.96 580.743 1435.14 Q583.338 1437.32 583.338 1440.97 Q583.338 1442.7 582.68 1444.26 Q582.041 1445.8 580.329 1447.91 Q579.859 1448.46 577.339 1451.07 Q574.818 1453.67 570.229 1458.35 Z" fill="#000000" fill-rule="evenodd" fill-opacity="1" /><path clip-path="url(#clip250)" d="M1594.72 1485.02 L1602.36 1485.02 L1602.36 1458.66 L1594.05 1460.32 L1594.05 1456.06 L1602.31 1454.4 L1606.99 1454.4 L1606.99 1485.02 L1614.63 1485.02 L1614.63 1488.96 L1594.72 1488.96 L1594.72 1485.02 Z" fill="#000000" fill-rule="evenodd" fill-opacity="1" /><path clip-path="url(#clip250)" d="M1634.07 1457.48 Q1630.46 1457.48 1628.63 1461.04 Q1626.83 1464.58 1626.83 1471.71 Q1626.83 1478.82 1628.63 1482.38 Q1630.46 1485.92 1634.07 1485.92 Q1637.71 1485.92 1639.51 1482.38 Q1641.34 1478.82 1641.34 1471.71 Q1641.34 1464.58 1639.51 1461.04 Q1637.71 1457.48 1634.07 1457.48 M1634.07 1453.77 Q1639.88 1453.77 1642.94 1458.38 Q1646.02 1462.96 1646.02 1471.71 Q1646.02 1480.44 1642.94 1485.04 Q1639.88 1489.63 1634.07 1489.63 Q1628.26 1489.63 1625.18 1485.04 Q1622.13 1480.44 1622.13 1471.71 Q1622.13 1462.96 1625.18 1458.38 Q1628.26 1453.77 1634.07 1453.77 Z" fill="#000000" fill-rule="evenodd" fill-opacity="1" /><path clip-path="url(#clip250)" d="M1646.02 1447.87 L1670.13 1447.87 L1670.13 1451.07 L1646.02 1451.07 L1646.02 1447.87 Z" fill="#000000" fill-rule="evenodd" fill-opacity="1" /><path clip-path="url(#clip250)" d="M1678.99 1458.35 L1685.19 1458.35 L1685.19 1436.93 L1678.44 1438.28 L1678.44 1434.82 L1685.16 1433.47 L1688.95 1433.47 L1688.95 1458.35 L1695.16 1458.35 L1695.16 1461.55 L1678.99 1461.55 L1678.99 1458.35 Z" fill="#000000" fill-rule="evenodd" fill-opacity="1" /><path clip-path="url(#clip250)" d="M915.2 1526.67 L945.246 1526.67 L945.246 1532.08 L921.629 1532.08 L921.629 1546.14 L944.259 1546.14 L944.259 1551.56 L921.629 1551.56 L921.629 1568.77 L945.819 1568.77 L945.819 1574.19 L915.2 1574.19 L915.2 1526.67 Z" fill="#000000" fill-rule="evenodd" fill-opacity="1" /><path clip-path="url(#clip250)" d="M985.764 1538.54 L972.873 1555.88 L986.432 1574.19 L979.525 1574.19 L969.149 1560.18 L958.773 1574.19 L951.866 1574.19 L965.712 1555.53 L953.044 1538.54 L959.951 1538.54 L969.404 1551.24 L978.857 1538.54 L985.764 1538.54 Z" fill="#000000" fill-rule="evenodd" fill-opacity="1" /><path clip-path="url(#clip250)" d="M1023.19 1554.9 L1023.19 1557.76 L996.267 1557.76 Q996.649 1563.81 999.896 1566.99 Q1003.17 1570.14 1009 1570.14 Q1012.37 1570.14 1015.52 1569.32 Q1018.71 1568.49 1021.83 1566.83 L1021.83 1572.37 Q1018.67 1573.71 1015.36 1574.41 Q1012.05 1575.11 1008.65 1575.11 Q1000.12 1575.11 995.121 1570.14 Q990.156 1565.18 990.156 1556.71 Q990.156 1547.96 994.867 1542.83 Q999.609 1537.68 1007.63 1537.68 Q1014.82 1537.68 1018.99 1542.33 Q1023.19 1546.94 1023.19 1554.9 M1017.34 1553.18 Q1017.27 1548.37 1014.63 1545.51 Q1012.02 1542.64 1007.69 1542.64 Q1002.79 1542.64 999.832 1545.41 Q996.904 1548.18 996.458 1553.21 L1017.34 1553.18 Z" fill="#000000" fill-rule="evenodd" fill-opacity="1" /><path clip-path="url(#clip250)" d="M1058.46 1539.91 L1058.46 1545.38 Q1055.98 1544.01 1053.46 1543.34 Q1050.98 1542.64 1048.43 1542.64 Q1042.74 1542.64 1039.59 1546.27 Q1036.43 1549.87 1036.43 1556.39 Q1036.43 1562.92 1039.59 1566.55 Q1042.74 1570.14 1048.43 1570.14 Q1050.98 1570.14 1053.46 1569.47 Q1055.98 1568.77 1058.46 1567.41 L1058.46 1572.82 Q1056.01 1573.96 1053.37 1574.54 Q1050.76 1575.11 1047.8 1575.11 Q1039.74 1575.11 1035 1570.05 Q1030.26 1564.99 1030.26 1556.39 Q1030.26 1547.67 1035.03 1542.68 Q1039.84 1537.68 1048.18 1537.68 Q1050.88 1537.68 1053.46 1538.25 Q1056.04 1538.79 1058.46 1539.91 Z" fill="#000000" fill-rule="evenodd" fill-opacity="1" /><path clip-path="url(#clip250)" d="M1068.04 1560.12 L1068.04 1538.54 L1073.9 1538.54 L1073.9 1559.89 Q1073.9 1564.96 1075.87 1567.5 Q1077.84 1570.02 1081.79 1570.02 Q1086.53 1570.02 1089.27 1566.99 Q1092.04 1563.97 1092.04 1558.75 L1092.04 1538.54 L1097.9 1538.54 L1097.9 1574.19 L1092.04 1574.19 L1092.04 1568.71 Q1089.91 1571.96 1087.07 1573.55 Q1084.27 1575.11 1080.55 1575.11 Q1074.41 1575.11 1071.22 1571.29 Q1068.04 1567.47 1068.04 1560.12 M1082.78 1537.68 L1082.78 1537.68 Z" fill="#000000" fill-rule="evenodd" fill-opacity="1" /><path clip-path="url(#clip250)" d="M1115.75 1528.42 L1115.75 1538.54 L1127.81 1538.54 L1127.81 1543.09 L1115.75 1543.09 L1115.75 1562.44 Q1115.75 1566.8 1116.93 1568.04 Q1118.14 1569.28 1121.8 1569.28 L1127.81 1569.28 L1127.81 1574.19 L1121.8 1574.19 Q1115.02 1574.19 1112.44 1571.67 Q1109.86 1569.12 1109.86 1562.44 L1109.86 1543.09 L1105.57 1543.09 L1105.57 1538.54 L1109.86 1538.54 L1109.86 1528.42 L1115.75 1528.42 Z" fill="#000000" fill-rule="evenodd" fill-opacity="1" /><path clip-path="url(#clip250)" d="M1135.52 1538.54 L1141.37 1538.54 L1141.37 1574.19 L1135.52 1574.19 L1135.52 1538.54 M1135.52 1524.66 L1141.37 1524.66 L1141.37 1532.08 L1135.52 1532.08 L1135.52 1524.66 Z" fill="#000000" fill-rule="evenodd" fill-opacity="1" /><path clip-path="url(#clip250)" d="M1167.44 1542.64 Q1162.73 1542.64 1159.99 1546.34 Q1157.26 1550 1157.26 1556.39 Q1157.26 1562.79 1159.96 1566.48 Q1162.7 1570.14 1167.44 1570.14 Q1172.12 1570.14 1174.86 1566.45 Q1177.59 1562.76 1177.59 1556.39 Q1177.59 1550.06 1174.86 1546.37 Q1172.12 1542.64 1167.44 1542.64 M1167.44 1537.68 Q1175.08 1537.68 1179.44 1542.64 Q1183.8 1547.61 1183.8 1556.39 Q1183.8 1565.15 1179.44 1570.14 Q1175.08 1575.11 1167.44 1575.11 Q1159.77 1575.11 1155.41 1570.14 Q1151.08 1565.15 1151.08 1556.39 Q1151.08 1547.61 1155.41 1542.64 Q1159.77 1537.68 1167.44 1537.68 Z" fill="#000000" fill-rule="evenodd" fill-opacity="1" /><path clip-path="url(#clip250)" d="M1223.14 1552.67 L1223.14 1574.19 L1217.28 1574.19 L1217.28 1552.86 Q1217.28 1547.8 1215.31 1545.29 Q1213.34 1542.77 1209.39 1542.77 Q1204.65 1542.77 1201.91 1545.79 Q1199.17 1548.82 1199.17 1554.04 L1199.17 1574.19 L1193.29 1574.19 L1193.29 1538.54 L1199.17 1538.54 L1199.17 1544.08 Q1201.27 1540.86 1204.11 1539.27 Q1206.97 1537.68 1210.7 1537.68 Q1216.84 1537.68 1219.99 1541.5 Q1223.14 1545.29 1223.14 1552.67 Z" fill="#000000" fill-rule="evenodd" fill-opacity="1" /><path clip-path="url(#clip250)" d="M1261.34 1528.42 L1261.34 1538.54 L1273.4 1538.54 L1273.4 1543.09 L1261.34 1543.09 L1261.34 1562.44 Q1261.34 1566.8 1262.51 1568.04 Q1263.72 1569.28 1267.38 1569.28 L1273.4 1569.28 L1273.4 1574.19 L1267.38 1574.19 Q1260.6 1574.19 1258.02 1571.67 Q1255.45 1569.12 1255.45 1562.44 L1255.45 1543.09 L1251.15 1543.09 L1251.15 1538.54 L1255.45 1538.54 L1255.45 1528.42 L1261.34 1528.42 Z" fill="#000000" fill-rule="evenodd" fill-opacity="1" /><path clip-path="url(#clip250)" d="M1281.1 1538.54 L1286.96 1538.54 L1286.96 1574.19 L1281.1 1574.19 L1281.1 1538.54 M1281.1 1524.66 L1286.96 1524.66 L1286.96 1532.08 L1281.1 1532.08 L1281.1 1524.66 Z" fill="#000000" fill-rule="evenodd" fill-opacity="1" /><path clip-path="url(#clip250)" d="M1326.97 1545.38 Q1329.16 1541.43 1332.22 1539.56 Q1335.27 1537.68 1339.41 1537.68 Q1344.98 1537.68 1348 1541.59 Q1351.03 1545.48 1351.03 1552.67 L1351.03 1574.19 L1345.14 1574.19 L1345.14 1552.86 Q1345.14 1547.74 1343.33 1545.25 Q1341.51 1542.77 1337.79 1542.77 Q1333.24 1542.77 1330.59 1545.79 Q1327.95 1548.82 1327.95 1554.04 L1327.95 1574.19 L1322.06 1574.19 L1322.06 1552.86 Q1322.06 1547.7 1320.25 1545.25 Q1318.44 1542.77 1314.65 1542.77 Q1310.16 1542.77 1307.52 1545.83 Q1304.88 1548.85 1304.88 1554.04 L1304.88 1574.19 L1298.99 1574.19 L1298.99 1538.54 L1304.88 1538.54 L1304.88 1544.08 Q1306.88 1540.8 1309.68 1539.24 Q1312.48 1537.68 1316.33 1537.68 Q1320.22 1537.68 1322.92 1539.65 Q1325.66 1541.62 1326.97 1545.38 Z" fill="#000000" fill-rule="evenodd" fill-opacity="1" /><path clip-path="url(#clip250)" d="M1393.2 1554.9 L1393.2 1557.76 L1366.27 1557.76 Q1366.66 1563.81 1369.9 1566.99 Q1373.18 1570.14 1379.01 1570.14 Q1382.38 1570.14 1385.53 1569.32 Q1388.71 1568.49 1391.83 1566.83 L1391.83 1572.37 Q1388.68 1573.71 1385.37 1574.41 Q1382.06 1575.11 1378.66 1575.11 Q1370.13 1575.11 1365.13 1570.14 Q1360.16 1565.18 1360.16 1556.71 Q1360.16 1547.96 1364.87 1542.83 Q1369.62 1537.68 1377.64 1537.68 Q1384.83 1537.68 1389 1542.33 Q1393.2 1546.94 1393.2 1554.9 M1387.34 1553.18 Q1387.28 1548.37 1384.64 1545.51 Q1382.03 1542.64 1377.7 1542.64 Q1372.8 1542.64 1369.84 1545.41 Q1366.91 1548.18 1366.46 1553.21 L1387.34 1553.18 Z" fill="#000000" fill-rule="evenodd" fill-opacity="1" /><path clip-path="url(#clip250)" d="M1437.6 1524.72 Q1433.34 1532.04 1431.27 1539.21 Q1429.2 1546.37 1429.2 1553.72 Q1429.2 1561.07 1431.27 1568.3 Q1433.37 1575.49 1437.6 1582.78 L1432.51 1582.78 Q1427.73 1575.3 1425.35 1568.07 Q1422.99 1560.85 1422.99 1553.72 Q1422.99 1546.62 1425.35 1539.43 Q1427.7 1532.24 1432.51 1524.72 L1437.6 1524.72 Z" fill="#000000" fill-rule="evenodd" fill-opacity="1" /><path clip-path="url(#clip250)" d="M1471.69 1539.59 L1471.69 1545.13 Q1469.21 1543.85 1466.53 1543.22 Q1463.86 1542.58 1461 1542.58 Q1456.63 1542.58 1454.44 1543.92 Q1452.27 1545.25 1452.27 1547.93 Q1452.27 1549.96 1453.83 1551.14 Q1455.39 1552.29 1460.1 1553.34 L1462.11 1553.78 Q1468.35 1555.12 1470.96 1557.57 Q1473.6 1559.99 1473.6 1564.35 Q1473.6 1569.32 1469.65 1572.21 Q1465.74 1575.11 1458.86 1575.11 Q1456 1575.11 1452.88 1574.54 Q1449.79 1573.99 1446.35 1572.88 L1446.35 1566.83 Q1449.6 1568.52 1452.75 1569.38 Q1455.9 1570.21 1458.99 1570.21 Q1463.13 1570.21 1465.36 1568.81 Q1467.58 1567.37 1467.58 1564.8 Q1467.58 1562.41 1465.96 1561.14 Q1464.37 1559.86 1458.93 1558.68 L1456.89 1558.21 Q1451.45 1557.06 1449.03 1554.71 Q1446.61 1552.32 1446.61 1548.18 Q1446.61 1543.15 1450.17 1540.42 Q1453.74 1537.68 1460.3 1537.68 Q1463.54 1537.68 1466.41 1538.16 Q1469.27 1538.63 1471.69 1539.59 Z" fill="#000000" fill-rule="evenodd" fill-opacity="1" /><path clip-path="url(#clip250)" d="M1508.58 1539.91 L1508.58 1545.38 Q1506.1 1544.01 1503.58 1543.34 Q1501.1 1542.64 1498.55 1542.64 Q1492.86 1542.64 1489.7 1546.27 Q1486.55 1549.87 1486.55 1556.39 Q1486.55 1562.92 1489.7 1566.55 Q1492.86 1570.14 1498.55 1570.14 Q1501.1 1570.14 1503.58 1569.47 Q1506.1 1568.77 1508.58 1567.41 L1508.58 1572.82 Q1506.13 1573.96 1503.49 1574.54 Q1500.88 1575.11 1497.92 1575.11 Q1489.86 1575.11 1485.12 1570.05 Q1480.38 1564.99 1480.38 1556.39 Q1480.38 1547.67 1485.15 1542.68 Q1489.96 1537.68 1498.3 1537.68 Q1501 1537.68 1503.58 1538.25 Q1506.16 1538.79 1508.58 1539.91 Z" fill="#000000" fill-rule="evenodd" fill-opacity="1" /><path clip-path="url(#clip250)" d="M1520.26 1566.1 L1526.98 1566.1 L1526.98 1571.58 L1521.76 1581.76 L1517.65 1581.76 L1520.26 1571.58 L1520.26 1566.1 Z" fill="#000000" fill-rule="evenodd" fill-opacity="1" /><path clip-path="url(#clip250)" d="M1560.46 1526.67 L1566.89 1526.67 L1566.89 1568.77 L1590.03 1568.77 L1590.03 1574.19 L1560.46 1574.19 L1560.46 1526.67 Z" fill="#000000" fill-rule="evenodd" fill-opacity="1" /><path clip-path="url(#clip250)" d="M1609.19 1542.64 Q1604.48 1542.64 1601.74 1546.34 Q1599 1550 1599 1556.39 Q1599 1562.79 1601.71 1566.48 Q1604.45 1570.14 1609.19 1570.14 Q1613.87 1570.14 1616.61 1566.45 Q1619.34 1562.76 1619.34 1556.39 Q1619.34 1550.06 1616.61 1546.37 Q1613.87 1542.64 1609.19 1542.64 M1609.19 1537.68 Q1616.83 1537.68 1621.19 1542.64 Q1625.55 1547.61 1625.55 1556.39 Q1625.55 1565.15 1621.19 1570.14 Q1616.83 1575.11 1609.19 1575.11 Q1601.52 1575.11 1597.16 1570.14 Q1592.83 1565.15 1592.83 1556.39 Q1592.83 1547.61 1597.16 1542.64 Q1601.52 1537.68 1609.19 1537.68 Z" fill="#000000" fill-rule="evenodd" fill-opacity="1" /><path clip-path="url(#clip250)" d="M1658.71 1555.95 Q1658.71 1549.58 1656.07 1546.08 Q1653.46 1542.58 1648.72 1542.58 Q1644.01 1542.58 1641.37 1546.08 Q1638.76 1549.58 1638.76 1555.95 Q1638.76 1562.28 1641.37 1565.78 Q1644.01 1569.28 1648.72 1569.28 Q1653.46 1569.28 1656.07 1565.78 Q1658.71 1562.28 1658.71 1555.95 M1664.57 1569.76 Q1664.57 1578.86 1660.53 1583.29 Q1656.49 1587.74 1648.15 1587.74 Q1645.06 1587.74 1642.32 1587.27 Q1639.59 1586.82 1637.01 1585.87 L1637.01 1580.17 Q1639.59 1581.57 1642.1 1582.24 Q1644.61 1582.91 1647.22 1582.91 Q1652.99 1582.91 1655.85 1579.88 Q1658.71 1576.89 1658.71 1570.81 L1658.71 1567.92 Q1656.9 1571.07 1654.07 1572.63 Q1651.23 1574.19 1647.29 1574.19 Q1640.73 1574.19 1636.72 1569.19 Q1632.71 1564.19 1632.71 1555.95 Q1632.71 1547.67 1636.72 1542.68 Q1640.73 1537.68 1647.29 1537.68 Q1651.23 1537.68 1654.07 1539.24 Q1656.9 1540.8 1658.71 1543.95 L1658.71 1538.54 L1664.57 1538.54 L1664.57 1569.76 Z" fill="#000000" fill-rule="evenodd" fill-opacity="1" /><path clip-path="url(#clip250)" d="M1675.71 1524.72 L1680.8 1524.72 Q1685.58 1532.24 1687.93 1539.43 Q1690.32 1546.62 1690.32 1553.72 Q1690.32 1560.85 1687.93 1568.07 Q1685.58 1575.3 1680.8 1582.78 L1675.71 1582.78 Q1679.94 1575.49 1682.01 1568.3 Q1684.11 1561.07 1684.11 1553.72 Q1684.11 1546.37 1682.01 1539.21 Q1679.94 1532.04 1675.71 1524.72 Z" fill="#000000" fill-rule="evenodd" fill-opacity="1" /><polyline clip-path="url(#clip252)" style="stroke:#000000; stroke-linecap:butt; stroke-linejoin:round; stroke-width:2; stroke-opacity:0.1; fill:none" points="
  252.764,1236.51 2352.76,1236.51 
  "/>
<polyline clip-path="url(#clip252)" style="stroke:#000000; stroke-linecap:butt; stroke-linejoin:round; stroke-width:2; stroke-opacity:0.1; fill:none" points="
  252.764,763.498 2352.76,763.498 
  "/>
<polyline clip-path="url(#clip252)" style="stroke:#000000; stroke-linecap:butt; stroke-linejoin:round; stroke-width:2; stroke-opacity:0.1; fill:none" points="
  252.764,290.486 2352.76,290.486 
  "/>
<polyline clip-path="url(#clip250)" style="stroke:#000000; stroke-linecap:butt; stroke-linejoin:round; stroke-width:4; stroke-opacity:1; fill:none" points="
  252.764,1410.9 252.764,47.2441 
  "/>
<polyline clip-path="url(#clip250)" style="stroke:#000000; stroke-linecap:butt; stroke-linejoin:round; stroke-width:4; stroke-opacity:1; fill:none" points="
  2352.76,1410.9 2352.76,47.2441 
  "/>
<polyline clip-path="url(#clip250)" style="stroke:#000000; stroke-linecap:butt; stroke-linejoin:round; stroke-width:4; stroke-opacity:1; fill:none" points="
  252.764,1236.51 271.662,1236.51 
  "/>
<polyline clip-path="url(#clip250)" style="stroke:#000000; stroke-linecap:butt; stroke-linejoin:round; stroke-width:4; stroke-opacity:1; fill:none" points="
  252.764,763.498 271.662,763.498 
  "/>
<polyline clip-path="url(#clip250)" style="stroke:#000000; stroke-linecap:butt; stroke-linejoin:round; stroke-width:4; stroke-opacity:1; fill:none" points="
  252.764,290.486 271.662,290.486 
  "/>
<path clip-path="url(#clip250)" d="M114.931 1256.3 L122.57 1256.3 L122.57 1229.94 L114.26 1231.6 L114.26 1227.34 L122.524 1225.68 L127.2 1225.68 L127.2 1256.3 L134.839 1256.3 L134.839 1260.24 L114.931 1260.24 L114.931 1256.3 Z" fill="#000000" fill-rule="evenodd" fill-opacity="1" /><path clip-path="url(#clip250)" d="M154.283 1228.76 Q150.672 1228.76 148.843 1232.32 Q147.038 1235.86 147.038 1242.99 Q147.038 1250.1 148.843 1253.66 Q150.672 1257.21 154.283 1257.21 Q157.917 1257.21 159.723 1253.66 Q161.552 1250.1 161.552 1242.99 Q161.552 1235.86 159.723 1232.32 Q157.917 1228.76 154.283 1228.76 M154.283 1225.05 Q160.093 1225.05 163.149 1229.66 Q166.227 1234.24 166.227 1242.99 Q166.227 1251.72 163.149 1256.33 Q160.093 1260.91 154.283 1260.91 Q148.473 1260.91 145.394 1256.33 Q142.339 1251.72 142.339 1242.99 Q142.339 1234.24 145.394 1229.66 Q148.473 1225.05 154.283 1225.05 Z" fill="#000000" fill-rule="evenodd" fill-opacity="1" /><path clip-path="url(#clip250)" d="M166.227 1219.15 L190.339 1219.15 L190.339 1222.35 L166.227 1222.35 L166.227 1219.15 Z" fill="#000000" fill-rule="evenodd" fill-opacity="1" /><path clip-path="url(#clip250)" d="M208.978 1208.06 L199.386 1223.05 L208.978 1223.05 L208.978 1208.06 M207.981 1204.75 L212.758 1204.75 L212.758 1223.05 L216.764 1223.05 L216.764 1226.21 L212.758 1226.21 L212.758 1232.83 L208.978 1232.83 L208.978 1226.21 L196.301 1226.21 L196.301 1222.54 L207.981 1204.75 Z" fill="#000000" fill-rule="evenodd" fill-opacity="1" /><path clip-path="url(#clip250)" d="M115.853 783.29 L123.492 783.29 L123.492 756.925 L115.182 758.591 L115.182 754.332 L123.446 752.666 L128.121 752.666 L128.121 783.29 L135.76 783.29 L135.76 787.226 L115.853 787.226 L115.853 783.29 Z" fill="#000000" fill-rule="evenodd" fill-opacity="1" /><path clip-path="url(#clip250)" d="M155.205 755.744 Q151.594 755.744 149.765 759.309 Q147.959 762.851 147.959 769.98 Q147.959 777.087 149.765 780.652 Q151.594 784.193 155.205 784.193 Q158.839 784.193 160.644 780.652 Q162.473 777.087 162.473 769.98 Q162.473 762.851 160.644 759.309 Q158.839 755.744 155.205 755.744 M155.205 752.041 Q161.015 752.041 164.07 756.647 Q167.149 761.23 167.149 769.98 Q167.149 778.707 164.07 783.314 Q161.015 787.897 155.205 787.897 Q149.395 787.897 146.316 783.314 Q143.26 778.707 143.26 769.98 Q143.26 761.23 146.316 756.647 Q149.395 752.041 155.205 752.041 Z" fill="#000000" fill-rule="evenodd" fill-opacity="1" /><path clip-path="url(#clip250)" d="M167.149 746.142 L191.261 746.142 L191.261 749.339 L167.149 749.339 L167.149 746.142 Z" fill="#000000" fill-rule="evenodd" fill-opacity="1" /><path clip-path="url(#clip250)" d="M210.971 744.675 Q213.698 745.258 215.222 747.101 Q216.764 748.944 216.764 751.653 Q216.764 755.809 213.905 758.085 Q211.046 760.361 205.78 760.361 Q204.012 760.361 202.132 760.003 Q200.27 759.665 198.276 758.969 L198.276 755.301 Q199.856 756.223 201.737 756.693 Q203.617 757.163 205.667 757.163 Q209.241 757.163 211.103 755.753 Q212.984 754.342 212.984 751.653 Q212.984 749.17 211.234 747.778 Q209.504 746.368 206.401 746.368 L203.128 746.368 L203.128 743.246 L206.551 743.246 Q209.354 743.246 210.84 742.136 Q212.325 741.007 212.325 738.901 Q212.325 736.738 210.783 735.591 Q209.26 734.425 206.401 734.425 Q204.84 734.425 203.053 734.763 Q201.266 735.102 199.122 735.816 L199.122 732.431 Q201.285 731.829 203.166 731.528 Q205.066 731.227 206.739 731.227 Q211.065 731.227 213.585 733.202 Q216.106 735.158 216.106 738.506 Q216.106 740.838 214.77 742.456 Q213.435 744.054 210.971 744.675 Z" fill="#000000" fill-rule="evenodd" fill-opacity="1" /><path clip-path="url(#clip250)" d="M116.624 310.278 L124.263 310.278 L124.263 283.913 L115.953 285.58 L115.953 281.32 L124.217 279.654 L128.893 279.654 L128.893 310.278 L136.531 310.278 L136.531 314.214 L116.624 314.214 L116.624 310.278 Z" fill="#000000" fill-rule="evenodd" fill-opacity="1" /><path clip-path="url(#clip250)" d="M155.976 282.732 Q152.365 282.732 150.536 286.297 Q148.73 289.839 148.73 296.968 Q148.73 304.075 150.536 307.64 Q152.365 311.181 155.976 311.181 Q159.61 311.181 161.416 307.64 Q163.244 304.075 163.244 296.968 Q163.244 289.839 161.416 286.297 Q159.61 282.732 155.976 282.732 M155.976 279.029 Q161.786 279.029 164.841 283.635 Q167.92 288.218 167.92 296.968 Q167.92 305.695 164.841 310.302 Q161.786 314.885 155.976 314.885 Q150.166 314.885 147.087 310.302 Q144.031 305.695 144.031 296.968 Q144.031 288.218 147.087 283.635 Q150.166 279.029 155.976 279.029 Z" fill="#000000" fill-rule="evenodd" fill-opacity="1" /><path clip-path="url(#clip250)" d="M167.92 273.13 L192.032 273.13 L192.032 276.327 L167.92 276.327 L167.92 273.13 Z" fill="#000000" fill-rule="evenodd" fill-opacity="1" /><path clip-path="url(#clip250)" d="M203.504 283.606 L216.764 283.606 L216.764 286.803 L198.934 286.803 L198.934 283.606 Q201.097 281.368 204.821 277.606 Q208.564 273.826 209.523 272.735 Q211.347 270.685 212.062 269.274 Q212.796 267.845 212.796 266.472 Q212.796 264.234 211.216 262.823 Q209.655 261.413 207.134 261.413 Q205.348 261.413 203.354 262.033 Q201.379 262.654 199.122 263.914 L199.122 260.077 Q201.417 259.156 203.41 258.686 Q205.404 258.215 207.059 258.215 Q211.423 258.215 214.018 260.397 Q216.613 262.579 216.613 266.228 Q216.613 267.958 215.955 269.519 Q215.316 271.061 213.604 273.168 Q213.134 273.713 210.614 276.327 Q208.094 278.923 203.504 283.606 Z" fill="#000000" fill-rule="evenodd" fill-opacity="1" /><path clip-path="url(#clip250)" d="M16.4842 1034.96 L16.4842 1004.91 L21.895 1004.91 L21.895 1028.53 L35.9632 1028.53 L35.9632 1005.9 L41.3741 1005.9 L41.3741 1028.53 L58.5933 1028.53 L58.5933 1004.34 L64.0042 1004.34 L64.0042 1034.96 L16.4842 1034.96 Z" fill="#000000" fill-rule="evenodd" fill-opacity="1" /><path clip-path="url(#clip250)" d="M33.8307 973.37 Q33.2578 974.357 33.0032 975.535 Q32.7167 976.68 32.7167 978.081 Q32.7167 983.046 35.9632 985.72 Q39.1779 988.362 45.2253 988.362 L64.0042 988.362 L64.0042 994.25 L28.3562 994.25 L28.3562 988.362 L33.8944 988.362 Q30.6479 986.515 29.0883 983.555 Q27.4968 980.595 27.4968 976.362 Q27.4968 975.757 27.5923 975.025 Q27.656 974.293 27.8151 973.402 L33.8307 973.37 Z" fill="#000000" fill-rule="evenodd" fill-opacity="1" /><path clip-path="url(#clip250)" d="M33.8307 947.716 Q33.2578 948.703 33.0032 949.881 Q32.7167 951.027 32.7167 952.427 Q32.7167 957.392 35.9632 960.066 Q39.1779 962.708 45.2253 962.708 L64.0042 962.708 L64.0042 968.596 L28.3562 968.596 L28.3562 962.708 L33.8944 962.708 Q30.6479 960.862 29.0883 957.902 Q27.4968 954.942 27.4968 950.708 Q27.4968 950.104 27.5923 949.372 Q27.656 948.64 27.8151 947.748 L33.8307 947.716 Z" fill="#000000" fill-rule="evenodd" fill-opacity="1" /><path clip-path="url(#clip250)" d="M32.4621 929.192 Q32.4621 933.903 36.1542 936.64 Q39.8145 939.377 46.212 939.377 Q52.6095 939.377 56.3017 936.672 Q59.9619 933.935 59.9619 929.192 Q59.9619 924.513 56.2698 921.776 Q52.5777 919.039 46.212 919.039 Q39.8781 919.039 36.186 921.776 Q32.4621 924.513 32.4621 929.192 M27.4968 929.192 Q27.4968 921.553 32.4621 917.193 Q37.4273 912.832 46.212 912.832 Q54.9649 912.832 59.9619 917.193 Q64.9272 921.553 64.9272 929.192 Q64.9272 936.863 59.9619 941.223 Q54.9649 945.552 46.212 945.552 Q37.4273 945.552 32.4621 941.223 Q27.4968 936.863 27.4968 929.192 Z" fill="#000000" fill-rule="evenodd" fill-opacity="1" /><path clip-path="url(#clip250)" d="M33.8307 882.468 Q33.2578 883.455 33.0032 884.632 Q32.7167 885.778 32.7167 887.179 Q32.7167 892.144 35.9632 894.817 Q39.1779 897.459 45.2253 897.459 L64.0042 897.459 L64.0042 903.348 L28.3562 903.348 L28.3562 897.459 L33.8944 897.459 Q30.6479 895.613 29.0883 892.653 Q27.4968 889.693 27.4968 885.46 Q27.4968 884.855 27.5923 884.123 Q27.656 883.391 27.8151 882.5 L33.8307 882.468 Z" fill="#000000" fill-rule="evenodd" fill-opacity="1" /><path clip-path="url(#clip250)" d="M55.9197 875.975 L55.9197 869.259 L64.0042 869.259 L64.0042 875.975 L55.9197 875.975 M30.2977 875.975 L30.2977 869.259 L38.3822 869.259 L38.3822 875.975 L30.2977 875.975 Z" fill="#000000" fill-rule="evenodd" fill-opacity="1" /><path clip-path="url(#clip250)" d="M58.5933 828.423 L58.5933 805.984 L64.0042 805.984 L64.0042 836.157 L58.5933 836.157 Q54.8057 832.497 48.44 826.195 Q42.0425 819.861 40.1964 818.238 Q36.7271 815.151 34.34 813.941 Q31.921 812.7 29.5975 812.7 Q25.8099 812.7 23.4228 815.373 Q21.0356 818.015 21.0356 822.28 Q21.0356 825.304 22.086 828.678 Q23.1363 832.02 25.2688 835.839 L18.7758 835.839 Q17.2162 831.956 16.4205 828.582 Q15.6248 825.208 15.6248 822.408 Q15.6248 815.023 19.3169 810.631 Q23.009 806.239 29.1837 806.239 Q32.112 806.239 34.7537 807.353 Q37.3637 808.435 40.9285 811.331 Q41.8515 812.127 46.2757 816.392 Q50.668 820.657 58.5933 828.423 Z" fill="#000000" fill-rule="evenodd" fill-opacity="1" /><path clip-path="url(#clip250)" d="M43.5384 796.276 L43.5384 779.121 L48.7583 779.121 L48.7583 796.276 L43.5384 796.276 Z" fill="#000000" fill-rule="evenodd" fill-opacity="1" /><path clip-path="url(#clip250)" d="M42.4881 740.163 L64.0042 740.163 L64.0042 746.019 L42.679 746.019 Q37.6183 746.019 35.1038 747.992 Q32.5894 749.966 32.5894 753.913 Q32.5894 758.655 35.6131 761.392 Q38.6368 764.129 43.8567 764.129 L64.0042 764.129 L64.0042 770.018 L28.3562 770.018 L28.3562 764.129 L33.8944 764.129 Q30.6797 762.029 29.0883 759.196 Q27.4968 756.332 27.4968 752.608 Q27.4968 746.465 31.3163 743.314 Q35.1038 740.163 42.4881 740.163 Z" fill="#000000" fill-rule="evenodd" fill-opacity="1" /><path clip-path="url(#clip250)" d="M32.4621 714.668 Q32.4621 719.379 36.1542 722.116 Q39.8145 724.853 46.212 724.853 Q52.6095 724.853 56.3017 722.148 Q59.9619 719.41 59.9619 714.668 Q59.9619 709.989 56.2698 707.252 Q52.5777 704.515 46.212 704.515 Q39.8781 704.515 36.186 707.252 Q32.4621 709.989 32.4621 714.668 M27.4968 714.668 Q27.4968 707.029 32.4621 702.669 Q37.4273 698.308 46.212 698.308 Q54.9649 698.308 59.9619 702.669 Q64.9272 707.029 64.9272 714.668 Q64.9272 722.339 59.9619 726.699 Q54.9649 731.028 46.212 731.028 Q37.4273 731.028 32.4621 726.699 Q27.4968 722.339 27.4968 714.668 Z" fill="#000000" fill-rule="evenodd" fill-opacity="1" /><path clip-path="url(#clip250)" d="M33.8307 667.944 Q33.2578 668.93 33.0032 670.108 Q32.7167 671.254 32.7167 672.654 Q32.7167 677.62 35.9632 680.293 Q39.1779 682.935 45.2253 682.935 L64.0042 682.935 L64.0042 688.823 L28.3562 688.823 L28.3562 682.935 L33.8944 682.935 Q30.6479 681.089 29.0883 678.129 Q27.4968 675.169 27.4968 670.936 Q27.4968 670.331 27.5923 669.599 Q27.656 668.867 27.8151 667.975 L33.8307 667.944 Z" fill="#000000" fill-rule="evenodd" fill-opacity="1" /><path clip-path="url(#clip250)" d="M35.1993 635.192 Q31.2526 632.996 29.3747 629.94 Q27.4968 626.885 27.4968 622.747 Q27.4968 617.177 31.4117 614.153 Q35.2948 611.13 42.4881 611.13 L64.0042 611.13 L64.0042 617.018 L42.679 617.018 Q37.5546 617.018 35.072 618.832 Q32.5894 620.646 32.5894 624.37 Q32.5894 628.922 35.6131 631.564 Q38.6368 634.205 43.8567 634.205 L64.0042 634.205 L64.0042 640.094 L42.679 640.094 Q37.5228 640.094 35.072 641.908 Q32.5894 643.722 32.5894 647.51 Q32.5894 651.998 35.6449 654.639 Q38.6686 657.281 43.8567 657.281 L64.0042 657.281 L64.0042 663.169 L28.3562 663.169 L28.3562 657.281 L33.8944 657.281 Q30.616 655.276 29.0564 652.475 Q27.4968 649.674 27.4968 645.823 Q27.4968 641.94 29.4702 639.234 Q31.4436 636.497 35.1993 635.192 Z" fill="#000000" fill-rule="evenodd" fill-opacity="1" /><path clip-path="url(#clip250)" d="M14.5426 564.66 Q21.8632 568.925 29.0246 570.994 Q36.186 573.063 43.5384 573.063 Q50.8908 573.063 58.1159 570.994 Q65.3091 568.893 72.5979 564.66 L72.5979 569.753 Q65.1182 574.527 57.8931 576.914 Q50.668 579.269 43.5384 579.269 Q36.4406 579.269 29.2474 576.914 Q22.0542 574.559 14.5426 569.753 L14.5426 564.66 Z" fill="#000000" fill-rule="evenodd" fill-opacity="1" /><path clip-path="url(#clip250)" d="M16.4842 553.043 L16.4842 546.613 L58.5933 546.613 L58.5933 523.474 L64.0042 523.474 L64.0042 553.043 L16.4842 553.043 Z" fill="#000000" fill-rule="evenodd" fill-opacity="1" /><path clip-path="url(#clip250)" d="M32.4621 504.313 Q32.4621 509.024 36.1542 511.761 Q39.8145 514.498 46.212 514.498 Q52.6095 514.498 56.3017 511.793 Q59.9619 509.056 59.9619 504.313 Q59.9619 499.634 56.2698 496.897 Q52.5777 494.16 46.212 494.16 Q39.8781 494.16 36.186 496.897 Q32.4621 499.634 32.4621 504.313 M27.4968 504.313 Q27.4968 496.674 32.4621 492.314 Q37.4273 487.953 46.212 487.953 Q54.9649 487.953 59.9619 492.314 Q64.9272 496.674 64.9272 504.313 Q64.9272 511.984 59.9619 516.344 Q54.9649 520.673 46.212 520.673 Q37.4273 520.673 32.4621 516.344 Q27.4968 511.984 27.4968 504.313 Z" fill="#000000" fill-rule="evenodd" fill-opacity="1" /><path clip-path="url(#clip250)" d="M45.7664 454.788 Q39.4007 454.788 35.8996 457.43 Q32.3984 460.04 32.3984 464.782 Q32.3984 469.493 35.8996 472.135 Q39.4007 474.744 45.7664 474.744 Q52.1003 474.744 55.6014 472.135 Q59.1026 469.493 59.1026 464.782 Q59.1026 460.04 55.6014 457.43 Q52.1003 454.788 45.7664 454.788 M59.58 448.932 Q68.683 448.932 73.1071 452.974 Q77.5631 457.016 77.5631 465.355 Q77.5631 468.442 77.0857 471.18 Q76.6401 473.917 75.6852 476.495 L69.9879 476.495 Q71.3884 473.917 72.0568 471.402 Q72.7252 468.888 72.7252 466.278 Q72.7252 460.517 69.7015 457.653 Q66.7096 454.788 60.6303 454.788 L57.7339 454.788 Q60.885 456.602 62.4446 459.435 Q64.0042 462.268 64.0042 466.214 Q64.0042 472.771 59.0071 476.782 Q54.01 480.792 45.7664 480.792 Q37.491 480.792 32.4939 476.782 Q27.4968 472.771 27.4968 466.214 Q27.4968 462.268 29.0564 459.435 Q30.616 456.602 33.7671 454.788 L28.3562 454.788 L28.3562 448.932 L59.58 448.932 Z" fill="#000000" fill-rule="evenodd" fill-opacity="1" /><path clip-path="url(#clip250)" d="M14.5426 437.792 L14.5426 432.699 Q22.0542 427.925 29.2474 425.569 Q36.4406 423.182 43.5384 423.182 Q50.668 423.182 57.8931 425.569 Q65.1182 427.925 72.5979 432.699 L72.5979 437.792 Q65.3091 433.558 58.1159 431.489 Q50.8908 429.389 43.5384 429.389 Q36.186 429.389 29.0246 431.489 Q21.8632 433.558 14.5426 437.792 Z" fill="#000000" fill-rule="evenodd" fill-opacity="1" /><polyline clip-path="url(#clip252)" style="stroke:#0000ff; stroke-linecap:butt; stroke-linejoin:round; stroke-width:8; stroke-opacity:1; fill:none" points="
  312.198,529.32 636.155,682.073 980.949,835.842 1305.72,990.505 1669.66,1146.42 1964.06,1305.13 
  "/>
<circle clip-path="url(#clip252)" cx="312.198" cy="529.32" r="18" fill="#ffffff" fill-rule="evenodd" fill-opacity="1" stroke="#000000" stroke-opacity="1" stroke-width="3.2"/>
<circle clip-path="url(#clip252)" cx="636.155" cy="682.073" r="18" fill="#ffffff" fill-rule="evenodd" fill-opacity="1" stroke="#000000" stroke-opacity="1" stroke-width="3.2"/>
<circle clip-path="url(#clip252)" cx="980.949" cy="835.842" r="18" fill="#ffffff" fill-rule="evenodd" fill-opacity="1" stroke="#000000" stroke-opacity="1" stroke-width="3.2"/>
<circle clip-path="url(#clip252)" cx="1305.72" cy="990.505" r="18" fill="#ffffff" fill-rule="evenodd" fill-opacity="1" stroke="#000000" stroke-opacity="1" stroke-width="3.2"/>
<circle clip-path="url(#clip252)" cx="1669.66" cy="1146.42" r="18" fill="#ffffff" fill-rule="evenodd" fill-opacity="1" stroke="#000000" stroke-opacity="1" stroke-width="3.2"/>
<circle clip-path="url(#clip252)" cx="1964.06" cy="1305.13" r="18" fill="#ffffff" fill-rule="evenodd" fill-opacity="1" stroke="#000000" stroke-opacity="1" stroke-width="3.2"/>
<polyline clip-path="url(#clip252)" style="stroke:#0000ff; stroke-linecap:butt; stroke-linejoin:round; stroke-width:8; stroke-opacity:1; fill:none" points="
  332.482,589.195 685.52,740.745 992.915,893.528 1294.62,1047.55 1663.54,1204.05 1942.29,1363.54 
  "/>
<path clip-path="url(#clip252)" d="M312.482 569.195 L312.482 609.195 L352.482 609.195 L352.482 569.195 L312.482 569.195 Z" fill="#ffffff" fill-rule="evenodd" fill-opacity="1" stroke="#000000" stroke-opacity="1" stroke-width="3.2"/>
<path clip-path="url(#clip252)" d="M665.52 720.745 L665.52 760.745 L705.52 760.745 L705.52 720.745 L665.52 720.745 Z" fill="#ffffff" fill-rule="evenodd" fill-opacity="1" stroke="#000000" stroke-opacity="1" stroke-width="3.2"/>
<path clip-path="url(#clip252)" d="M972.915 873.528 L972.915 913.528 L1012.92 913.528 L1012.92 873.528 L972.915 873.528 Z" fill="#ffffff" fill-rule="evenodd" fill-opacity="1" stroke="#000000" stroke-opacity="1" stroke-width="3.2"/>
<path clip-path="url(#clip252)" d="M1274.62 1027.55 L1274.62 1067.55 L1314.62 1067.55 L1314.62 1027.55 L1274.62 1027.55 Z" fill="#ffffff" fill-rule="evenodd" fill-opacity="1" stroke="#000000" stroke-opacity="1" stroke-width="3.2"/>
<path clip-path="url(#clip252)" d="M1643.54 1184.05 L1643.54 1224.05 L1683.54 1224.05 L1683.54 1184.05 L1643.54 1184.05 Z" fill="#ffffff" fill-rule="evenodd" fill-opacity="1" stroke="#000000" stroke-opacity="1" stroke-width="3.2"/>
<path clip-path="url(#clip252)" d="M1922.29 1343.54 L1922.29 1383.54 L1962.29 1383.54 L1962.29 1343.54 L1922.29 1343.54 Z" fill="#ffffff" fill-rule="evenodd" fill-opacity="1" stroke="#000000" stroke-opacity="1" stroke-width="3.2"/>
<polyline clip-path="url(#clip252)" style="stroke:#ff0000; stroke-linecap:butt; stroke-linejoin:round; stroke-width:8; stroke-opacity:1; fill:none" points="
  764.74,130.571 1115.85,205.189 1422.03,278.749 1776.79,351.54 2116.49,423.831 
  "/>
<path clip-path="url(#clip252)" d="M780.74 130.571 L756.74 116.571 L756.74 144.571 L780.74 130.571 Z" fill="#ffffff" fill-rule="evenodd" fill-opacity="1" stroke="#000000" stroke-opacity="1" stroke-width="3.2"/>
<path clip-path="url(#clip252)" d="M1131.85 205.189 L1107.85 191.189 L1107.85 219.189 L1131.85 205.189 Z" fill="#ffffff" fill-rule="evenodd" fill-opacity="1" stroke="#000000" stroke-opacity="1" stroke-width="3.2"/>
<path clip-path="url(#clip252)" d="M1438.03 278.749 L1414.03 264.749 L1414.03 292.749 L1438.03 278.749 Z" fill="#ffffff" fill-rule="evenodd" fill-opacity="1" stroke="#000000" stroke-opacity="1" stroke-width="3.2"/>
<path clip-path="url(#clip252)" d="M1792.79 351.54 L1768.79 337.54 L1768.79 365.54 L1792.79 351.54 Z" fill="#ffffff" fill-rule="evenodd" fill-opacity="1" stroke="#000000" stroke-opacity="1" stroke-width="3.2"/>
<path clip-path="url(#clip252)" d="M2132.49 423.831 L2108.49 409.831 L2108.49 437.831 L2132.49 423.831 Z" fill="#ffffff" fill-rule="evenodd" fill-opacity="1" stroke="#000000" stroke-opacity="1" stroke-width="3.2"/>
<polyline clip-path="url(#clip252)" style="stroke:#ff0000; stroke-linecap:butt; stroke-linejoin:round; stroke-width:8; stroke-opacity:1; fill:none" points="
  653.793,540.717 969.946,694.04 1304.58,848.327 1625.75,1003.45 1984.56,1159.83 2293.32,1319.1 
  "/>
<circle clip-path="url(#clip252)" cx="653.793" cy="540.717" r="18" fill="#ffffff" fill-rule="evenodd" fill-opacity="1" stroke="#000000" stroke-opacity="1" stroke-width="3.2"/>
<circle clip-path="url(#clip252)" cx="969.946" cy="694.04" r="18" fill="#ffffff" fill-rule="evenodd" fill-opacity="1" stroke="#000000" stroke-opacity="1" stroke-width="3.2"/>
<circle clip-path="url(#clip252)" cx="1304.58" cy="848.327" r="18" fill="#ffffff" fill-rule="evenodd" fill-opacity="1" stroke="#000000" stroke-opacity="1" stroke-width="3.2"/>
<circle clip-path="url(#clip252)" cx="1625.75" cy="1003.45" r="18" fill="#ffffff" fill-rule="evenodd" fill-opacity="1" stroke="#000000" stroke-opacity="1" stroke-width="3.2"/>
<circle clip-path="url(#clip252)" cx="1984.56" cy="1159.83" r="18" fill="#ffffff" fill-rule="evenodd" fill-opacity="1" stroke="#000000" stroke-opacity="1" stroke-width="3.2"/>
<circle clip-path="url(#clip252)" cx="2293.32" cy="1319.1" r="18" fill="#ffffff" fill-rule="evenodd" fill-opacity="1" stroke="#000000" stroke-opacity="1" stroke-width="3.2"/>
<polyline clip-path="url(#clip252)" style="stroke:#ff0000; stroke-linecap:butt; stroke-linejoin:round; stroke-width:8; stroke-opacity:1; fill:none" points="
  712.78,85.838 1020.5,151.858 1337.7,219.525 1612.87,288.34 1981.4,357.915 2288.26,428.009 
  "/>
<path clip-path="url(#clip252)" d="M712.78 65.838 L692.78 85.838 L712.78 105.838 L732.78 85.838 L712.78 65.838 Z" fill="#ffffff" fill-rule="evenodd" fill-opacity="1" stroke="#000000" stroke-opacity="1" stroke-width="3.2"/>
<path clip-path="url(#clip252)" d="M1020.5 131.858 L1000.5 151.858 L1020.5 171.858 L1040.5 151.858 L1020.5 131.858 Z" fill="#ffffff" fill-rule="evenodd" fill-opacity="1" stroke="#000000" stroke-opacity="1" stroke-width="3.2"/>
<path clip-path="url(#clip252)" d="M1337.7 199.525 L1317.7 219.525 L1337.7 239.525 L1357.7 219.525 L1337.7 199.525 Z" fill="#ffffff" fill-rule="evenodd" fill-opacity="1" stroke="#000000" stroke-opacity="1" stroke-width="3.2"/>
<path clip-path="url(#clip252)" d="M1612.87 268.34 L1592.87 288.34 L1612.87 308.34 L1632.87 288.34 L1612.87 268.34 Z" fill="#ffffff" fill-rule="evenodd" fill-opacity="1" stroke="#000000" stroke-opacity="1" stroke-width="3.2"/>
<path clip-path="url(#clip252)" d="M1981.4 337.915 L1961.4 357.915 L1981.4 377.915 L2001.4 357.915 L1981.4 337.915 Z" fill="#ffffff" fill-rule="evenodd" fill-opacity="1" stroke="#000000" stroke-opacity="1" stroke-width="3.2"/>
<path clip-path="url(#clip252)" d="M2288.26 408.009 L2268.26 428.009 L2288.26 448.009 L2308.26 428.009 L2288.26 408.009 Z" fill="#ffffff" fill-rule="evenodd" fill-opacity="1" stroke="#000000" stroke-opacity="1" stroke-width="3.2"/>
<polyline clip-path="url(#clip252)" style="stroke:#ff0000; stroke-linecap:butt; stroke-linejoin:round; stroke-width:8; stroke-opacity:1; fill:none" points="
  672.956,597.094 995.429,748.813 1312.98,901.764 1612.41,1055.97 1956.9,1212.64 2285.31,1372.3 
  "/>
<path clip-path="url(#clip252)" d="M652.956 577.094 L652.956 617.094 L692.956 617.094 L692.956 577.094 L652.956 577.094 Z" fill="#ffffff" fill-rule="evenodd" fill-opacity="1" stroke="#000000" stroke-opacity="1" stroke-width="3.2"/>
<path clip-path="url(#clip252)" d="M975.429 728.813 L975.429 768.813 L1015.43 768.813 L1015.43 728.813 L975.429 728.813 Z" fill="#ffffff" fill-rule="evenodd" fill-opacity="1" stroke="#000000" stroke-opacity="1" stroke-width="3.2"/>
<path clip-path="url(#clip252)" d="M1292.98 881.764 L1292.98 921.764 L1332.98 921.764 L1332.98 881.764 L1292.98 881.764 Z" fill="#ffffff" fill-rule="evenodd" fill-opacity="1" stroke="#000000" stroke-opacity="1" stroke-width="3.2"/>
<path clip-path="url(#clip252)" d="M1592.41 1035.97 L1592.41 1075.97 L1632.41 1075.97 L1632.41 1035.97 L1592.41 1035.97 Z" fill="#ffffff" fill-rule="evenodd" fill-opacity="1" stroke="#000000" stroke-opacity="1" stroke-width="3.2"/>
<path clip-path="url(#clip252)" d="M1936.9 1192.64 L1936.9 1232.64 L1976.9 1232.64 L1976.9 1192.64 L1936.9 1192.64 Z" fill="#ffffff" fill-rule="evenodd" fill-opacity="1" stroke="#000000" stroke-opacity="1" stroke-width="3.2"/>
<path clip-path="url(#clip252)" d="M2265.31 1352.3 L2265.31 1392.3 L2305.31 1392.3 L2305.31 1352.3 L2265.31 1352.3 Z" fill="#ffffff" fill-rule="evenodd" fill-opacity="1" stroke="#000000" stroke-opacity="1" stroke-width="3.2"/>
<path clip-path="url(#clip250)" d="
M1737.81 884.59 L2282.76 884.59 L2282.76 521.71 L1737.81 521.71  Z
  " fill="#ffffff" fill-rule="evenodd" fill-opacity="1"/>
<polyline clip-path="url(#clip250)" style="stroke:#000000; stroke-linecap:butt; stroke-linejoin:round; stroke-width:4; stroke-opacity:1; fill:none" points="
  1737.81,884.59 2282.76,884.59 2282.76,521.71 1737.81,521.71 1737.81,884.59 
  "/>
<polyline clip-path="url(#clip250)" style="stroke:#0000ff; stroke-linecap:butt; stroke-linejoin:round; stroke-width:4; stroke-opacity:1; fill:none" points="
  1761.14,573.55 1901.14,573.55 
  "/>
<circle clip-path="url(#clip250)" cx="1831.14" cy="573.55" r="23.04" fill="#ffffff" fill-rule="evenodd" fill-opacity="1" stroke="#000000" stroke-opacity="1" stroke-width="4.096"/>
<path clip-path="url(#clip250)" d="M1931.58 556.27 L1936.25 556.27 L1936.25 588.423 Q1936.25 594.673 1933.87 597.497 Q1931.51 600.321 1926.25 600.321 L1924.47 600.321 L1924.47 596.386 L1925.93 596.386 Q1929.03 596.386 1930.3 594.65 Q1931.58 592.914 1931.58 588.423 L1931.58 556.27 Z" fill="#000000" fill-rule="evenodd" fill-opacity="1" /><path clip-path="url(#clip250)" d="M1944.93 580.599 L1944.93 564.905 L1949.19 564.905 L1949.19 580.437 Q1949.19 584.117 1950.63 585.969 Q1952.06 587.798 1954.93 587.798 Q1958.38 587.798 1960.37 585.599 Q1962.39 583.4 1962.39 579.604 L1962.39 564.905 L1966.65 564.905 L1966.65 590.83 L1962.39 590.83 L1962.39 586.849 Q1960.84 589.21 1958.78 590.367 Q1956.74 591.502 1954.03 591.502 Q1949.56 591.502 1947.25 588.724 Q1944.93 585.946 1944.93 580.599 M1955.65 564.28 L1955.65 564.28 Z" fill="#000000" fill-rule="evenodd" fill-opacity="1" /><path clip-path="url(#clip250)" d="M1975.42 554.812 L1979.68 554.812 L1979.68 590.83 L1975.42 590.83 L1975.42 554.812 Z" fill="#000000" fill-rule="evenodd" fill-opacity="1" /><path clip-path="url(#clip250)" d="M1988.59 564.905 L1992.85 564.905 L1992.85 590.83 L1988.59 590.83 L1988.59 564.905 M1988.59 554.812 L1992.85 554.812 L1992.85 560.206 L1988.59 560.206 L1988.59 554.812 Z" fill="#000000" fill-rule="evenodd" fill-opacity="1" /><path clip-path="url(#clip250)" d="M2013.54 577.798 Q2008.38 577.798 2006.39 578.979 Q2004.4 580.159 2004.4 583.006 Q2004.4 585.275 2005.88 586.617 Q2007.39 587.937 2009.96 587.937 Q2013.5 587.937 2015.63 585.437 Q2017.78 582.914 2017.78 578.747 L2017.78 577.798 L2013.54 577.798 M2022.04 576.039 L2022.04 590.83 L2017.78 590.83 L2017.78 586.895 Q2016.32 589.256 2014.15 590.391 Q2011.97 591.502 2008.82 591.502 Q2004.84 591.502 2002.48 589.279 Q2000.14 587.034 2000.14 583.284 Q2000.14 578.909 2003.06 576.687 Q2006 574.465 2011.81 574.465 L2017.78 574.465 L2017.78 574.048 Q2017.78 571.108 2015.84 569.511 Q2013.91 567.891 2010.42 567.891 Q2008.2 567.891 2006.09 568.423 Q2003.98 568.955 2002.04 570.02 L2002.04 566.085 Q2004.38 565.182 2006.58 564.743 Q2008.78 564.28 2010.86 564.28 Q2016.48 564.28 2019.26 567.196 Q2022.04 570.113 2022.04 576.039 Z" fill="#000000" fill-rule="evenodd" fill-opacity="1" /><path clip-path="url(#clip250)" d="M2050.74 560.113 L2050.74 573.099 L2056.62 573.099 Q2059.89 573.099 2061.67 571.409 Q2063.45 569.719 2063.45 566.594 Q2063.45 563.493 2061.67 561.803 Q2059.89 560.113 2056.62 560.113 L2050.74 560.113 M2046.07 556.27 L2056.62 556.27 Q2062.43 556.27 2065.4 558.909 Q2068.38 561.525 2068.38 566.594 Q2068.38 571.71 2065.4 574.326 Q2062.43 576.942 2056.62 576.942 L2050.74 576.942 L2050.74 590.83 L2046.07 590.83 L2046.07 556.27 Z" fill="#000000" fill-rule="evenodd" fill-opacity="1" /><path clip-path="url(#clip250)" d="M2100.53 558.932 L2100.53 563.863 Q2098.17 561.664 2095.49 560.576 Q2092.83 559.488 2089.82 559.488 Q2083.89 559.488 2080.74 563.122 Q2077.6 566.733 2077.6 573.585 Q2077.6 580.414 2080.74 584.048 Q2083.89 587.659 2089.82 587.659 Q2092.83 587.659 2095.49 586.571 Q2098.17 585.483 2100.53 583.284 L2100.53 588.168 Q2098.08 589.835 2095.33 590.668 Q2092.6 591.502 2089.54 591.502 Q2081.69 591.502 2077.18 586.71 Q2072.66 581.895 2072.66 573.585 Q2072.66 565.252 2077.18 560.46 Q2081.69 555.645 2089.54 555.645 Q2092.64 555.645 2095.37 556.479 Q2098.13 557.289 2100.53 558.932 Z" fill="#000000" fill-rule="evenodd" fill-opacity="1" /><polyline clip-path="url(#clip250)" style="stroke:#0000ff; stroke-linecap:butt; stroke-linejoin:round; stroke-width:4; stroke-opacity:1; fill:none" points="
  1761.14,625.39 1901.14,625.39 
  "/>
<path clip-path="url(#clip250)" d="M1805.54 599.79 L1805.54 650.99 L1856.74 650.99 L1856.74 599.79 L1805.54 599.79 Z" fill="#ffffff" fill-rule="evenodd" fill-opacity="1" stroke="#000000" stroke-opacity="1" stroke-width="4.096"/>
<path clip-path="url(#clip250)" d="M1931.58 608.11 L1936.25 608.11 L1936.25 640.263 Q1936.25 646.513 1933.87 649.337 Q1931.51 652.161 1926.25 652.161 L1924.47 652.161 L1924.47 648.226 L1925.93 648.226 Q1929.03 648.226 1930.3 646.49 Q1931.58 644.754 1931.58 640.263 L1931.58 608.11 Z" fill="#000000" fill-rule="evenodd" fill-opacity="1" /><path clip-path="url(#clip250)" d="M1944.93 632.439 L1944.93 616.745 L1949.19 616.745 L1949.19 632.277 Q1949.19 635.957 1950.63 637.809 Q1952.06 639.638 1954.93 639.638 Q1958.38 639.638 1960.37 637.439 Q1962.39 635.24 1962.39 631.444 L1962.39 616.745 L1966.65 616.745 L1966.65 642.67 L1962.39 642.67 L1962.39 638.689 Q1960.84 641.05 1958.78 642.207 Q1956.74 643.342 1954.03 643.342 Q1949.56 643.342 1947.25 640.564 Q1944.93 637.786 1944.93 632.439 M1955.65 616.12 L1955.65 616.12 Z" fill="#000000" fill-rule="evenodd" fill-opacity="1" /><path clip-path="url(#clip250)" d="M1975.42 606.652 L1979.68 606.652 L1979.68 642.67 L1975.42 642.67 L1975.42 606.652 Z" fill="#000000" fill-rule="evenodd" fill-opacity="1" /><path clip-path="url(#clip250)" d="M1988.59 616.745 L1992.85 616.745 L1992.85 642.67 L1988.59 642.67 L1988.59 616.745 M1988.59 606.652 L1992.85 606.652 L1992.85 612.046 L1988.59 612.046 L1988.59 606.652 Z" fill="#000000" fill-rule="evenodd" fill-opacity="1" /><path clip-path="url(#clip250)" d="M2013.54 629.638 Q2008.38 629.638 2006.39 630.819 Q2004.4 631.999 2004.4 634.846 Q2004.4 637.115 2005.88 638.457 Q2007.39 639.777 2009.96 639.777 Q2013.5 639.777 2015.63 637.277 Q2017.78 634.754 2017.78 630.587 L2017.78 629.638 L2013.54 629.638 M2022.04 627.879 L2022.04 642.67 L2017.78 642.67 L2017.78 638.735 Q2016.32 641.096 2014.15 642.231 Q2011.97 643.342 2008.82 643.342 Q2004.84 643.342 2002.48 641.119 Q2000.14 638.874 2000.14 635.124 Q2000.14 630.749 2003.06 628.527 Q2006 626.305 2011.81 626.305 L2017.78 626.305 L2017.78 625.888 Q2017.78 622.948 2015.84 621.351 Q2013.91 619.731 2010.42 619.731 Q2008.2 619.731 2006.09 620.263 Q2003.98 620.795 2002.04 621.86 L2002.04 617.925 Q2004.38 617.022 2006.58 616.583 Q2008.78 616.12 2010.86 616.12 Q2016.48 616.12 2019.26 619.036 Q2022.04 621.953 2022.04 627.879 Z" fill="#000000" fill-rule="evenodd" fill-opacity="1" /><path clip-path="url(#clip250)" d="M2046.07 608.11 L2052.36 608.11 L2067.69 637.022 L2067.69 608.11 L2072.22 608.11 L2072.22 642.67 L2065.93 642.67 L2050.6 613.758 L2050.6 642.67 L2046.07 642.67 L2046.07 608.11 Z" fill="#000000" fill-rule="evenodd" fill-opacity="1" /><path clip-path="url(#clip250)" d="M2097.92 626.467 Q2099.42 626.976 2100.84 628.643 Q2102.27 630.309 2103.71 633.226 L2108.45 642.67 L2103.43 642.67 L2099.01 633.805 Q2097.29 630.332 2095.67 629.198 Q2094.08 628.064 2091.3 628.064 L2086.21 628.064 L2086.21 642.67 L2081.53 642.67 L2081.53 608.11 L2092.09 608.11 Q2098.01 608.11 2100.93 610.587 Q2103.85 613.064 2103.85 618.064 Q2103.85 621.328 2102.32 623.481 Q2100.81 625.633 2097.92 626.467 M2086.21 611.953 L2086.21 624.221 L2092.09 624.221 Q2095.47 624.221 2097.18 622.67 Q2098.91 621.096 2098.91 618.064 Q2098.91 615.032 2097.18 613.504 Q2095.47 611.953 2092.09 611.953 L2086.21 611.953 Z" fill="#000000" fill-rule="evenodd" fill-opacity="1" /><polyline clip-path="url(#clip250)" style="stroke:#ff0000; stroke-linecap:butt; stroke-linejoin:round; stroke-width:4; stroke-opacity:1; fill:none" points="
  1761.14,677.23 1901.14,677.23 
  "/>
<path clip-path="url(#clip250)" d="M1851.62 677.23 L1820.9 659.31 L1820.9 695.15 L1851.62 677.23 Z" fill="#ffffff" fill-rule="evenodd" fill-opacity="1" stroke="#000000" stroke-opacity="1" stroke-width="4.096"/>
<path clip-path="url(#clip250)" d="M1924.47 659.95 L1931.44 659.95 L1940.26 683.469 L1949.12 659.95 L1956.09 659.95 L1956.09 694.51 L1951.53 694.51 L1951.53 664.163 L1942.62 687.867 L1937.92 687.867 L1929.01 664.163 L1929.01 694.51 L1924.47 694.51 L1924.47 659.95 Z" fill="#000000" fill-rule="evenodd" fill-opacity="1" /><path clip-path="url(#clip250)" d="M1976.97 681.478 Q1971.81 681.478 1969.82 682.659 Q1967.83 683.839 1967.83 686.686 Q1967.83 688.955 1969.31 690.297 Q1970.81 691.617 1973.38 691.617 Q1976.92 691.617 1979.05 689.117 Q1981.21 686.594 1981.21 682.427 L1981.21 681.478 L1976.97 681.478 M1985.47 679.719 L1985.47 694.51 L1981.21 694.51 L1981.21 690.575 Q1979.75 692.936 1977.57 694.071 Q1975.4 695.182 1972.25 695.182 Q1968.27 695.182 1965.91 692.959 Q1963.57 690.714 1963.57 686.964 Q1963.57 682.589 1966.48 680.367 Q1969.42 678.145 1975.23 678.145 L1981.21 678.145 L1981.21 677.728 Q1981.21 674.788 1979.26 673.191 Q1977.34 671.571 1973.85 671.571 Q1971.62 671.571 1969.52 672.103 Q1967.41 672.635 1965.47 673.7 L1965.47 669.765 Q1967.8 668.862 1970 668.423 Q1972.2 667.96 1974.29 667.96 Q1979.91 667.96 1982.69 670.876 Q1985.47 673.793 1985.47 679.719 Z" fill="#000000" fill-rule="evenodd" fill-opacity="1" /><path clip-path="url(#clip250)" d="M1998.45 661.224 L1998.45 668.585 L2007.23 668.585 L2007.23 671.895 L1998.45 671.895 L1998.45 685.969 Q1998.45 689.14 1999.31 690.043 Q2000.19 690.946 2002.85 690.946 L2007.23 690.946 L2007.23 694.51 L2002.85 694.51 Q1997.92 694.51 1996.04 692.682 Q1994.17 690.83 1994.17 685.969 L1994.17 671.895 L1991.04 671.895 L1991.04 668.585 L1994.17 668.585 L1994.17 661.224 L1998.45 661.224 Z" fill="#000000" fill-rule="evenodd" fill-opacity="1" /><path clip-path="url(#clip250)" d="M2012.83 658.492 L2017.09 658.492 L2017.09 694.51 L2012.83 694.51 L2012.83 658.492 Z" fill="#000000" fill-rule="evenodd" fill-opacity="1" /><path clip-path="url(#clip250)" d="M2037.78 681.478 Q2032.62 681.478 2030.63 682.659 Q2028.64 683.839 2028.64 686.686 Q2028.64 688.955 2030.12 690.297 Q2031.62 691.617 2034.19 691.617 Q2037.73 691.617 2039.86 689.117 Q2042.02 686.594 2042.02 682.427 L2042.02 681.478 L2037.78 681.478 M2046.28 679.719 L2046.28 694.51 L2042.02 694.51 L2042.02 690.575 Q2040.56 692.936 2038.38 694.071 Q2036.21 695.182 2033.06 695.182 Q2029.08 695.182 2026.72 692.959 Q2024.38 690.714 2024.38 686.964 Q2024.38 682.589 2027.29 680.367 Q2030.23 678.145 2036.04 678.145 L2042.02 678.145 L2042.02 677.728 Q2042.02 674.788 2040.07 673.191 Q2038.15 671.571 2034.66 671.571 Q2032.43 671.571 2030.33 672.103 Q2028.22 672.635 2026.28 673.7 L2026.28 669.765 Q2028.61 668.862 2030.81 668.423 Q2033.01 667.96 2035.1 667.96 Q2040.72 667.96 2043.5 670.876 Q2046.28 673.793 2046.28 679.719 Z" fill="#000000" fill-rule="evenodd" fill-opacity="1" /><path clip-path="url(#clip250)" d="M2073.66 681.571 Q2073.66 676.872 2071.72 674.21 Q2069.79 671.524 2066.41 671.524 Q2063.04 671.524 2061.09 674.21 Q2059.17 676.872 2059.17 681.571 Q2059.17 686.27 2061.09 688.955 Q2063.04 691.617 2066.41 691.617 Q2069.79 691.617 2071.72 688.955 Q2073.66 686.27 2073.66 681.571 M2059.17 672.52 Q2060.51 670.205 2062.55 669.094 Q2064.61 667.96 2067.46 667.96 Q2072.18 667.96 2075.12 671.71 Q2078.08 675.46 2078.08 681.571 Q2078.08 687.682 2075.12 691.432 Q2072.18 695.182 2067.46 695.182 Q2064.61 695.182 2062.55 694.071 Q2060.51 692.936 2059.17 690.622 L2059.17 694.51 L2054.89 694.51 L2054.89 658.492 L2059.17 658.492 L2059.17 672.52 Z" fill="#000000" fill-rule="evenodd" fill-opacity="1" /><path clip-path="url(#clip250)" d="M2105.07 663.793 L2105.07 676.779 L2110.95 676.779 Q2114.22 676.779 2116 675.089 Q2117.78 673.399 2117.78 670.274 Q2117.78 667.173 2116 665.483 Q2114.22 663.793 2110.95 663.793 L2105.07 663.793 M2100.4 659.95 L2110.95 659.95 Q2116.76 659.95 2119.72 662.589 Q2122.71 665.205 2122.71 670.274 Q2122.71 675.39 2119.72 678.006 Q2116.76 680.622 2110.95 680.622 L2105.07 680.622 L2105.07 694.51 L2100.4 694.51 L2100.4 659.95 Z" fill="#000000" fill-rule="evenodd" fill-opacity="1" /><path clip-path="url(#clip250)" d="M2128.98 659.95 L2133.66 659.95 L2133.66 694.51 L2128.98 694.51 L2128.98 659.95 Z" fill="#000000" fill-rule="evenodd" fill-opacity="1" /><path clip-path="url(#clip250)" d="M2140.63 679.626 L2153.1 679.626 L2153.1 683.422 L2140.63 683.422 L2140.63 679.626 Z" fill="#000000" fill-rule="evenodd" fill-opacity="1" /><path clip-path="url(#clip250)" d="M2160.07 659.95 L2181.92 659.95 L2181.92 663.886 L2164.75 663.886 L2164.75 674.117 L2181.21 674.117 L2181.21 678.052 L2164.75 678.052 L2164.75 690.575 L2182.34 690.575 L2182.34 694.51 L2160.07 694.51 L2160.07 659.95 Z" fill="#000000" fill-rule="evenodd" fill-opacity="1" /><path clip-path="url(#clip250)" d="M2188.36 659.95 L2193.38 659.95 L2201.97 672.798 L2210.6 659.95 L2215.63 659.95 L2204.52 676.548 L2216.37 694.51 L2211.34 694.51 L2201.62 679.811 L2191.83 694.51 L2186.78 694.51 L2199.12 676.061 L2188.36 659.95 Z" fill="#000000" fill-rule="evenodd" fill-opacity="1" /><polyline clip-path="url(#clip250)" style="stroke:#ff0000; stroke-linecap:butt; stroke-linejoin:round; stroke-width:4; stroke-opacity:1; fill:none" points="
  1761.14,729.07 1901.14,729.07 
  "/>
<circle clip-path="url(#clip250)" cx="1831.14" cy="729.07" r="23.04" fill="#ffffff" fill-rule="evenodd" fill-opacity="1" stroke="#000000" stroke-opacity="1" stroke-width="4.096"/>
<path clip-path="url(#clip250)" d="M1924.47 711.79 L1931.44 711.79 L1940.26 735.309 L1949.12 711.79 L1956.09 711.79 L1956.09 746.35 L1951.53 746.35 L1951.53 716.003 L1942.62 739.707 L1937.92 739.707 L1929.01 716.003 L1929.01 746.35 L1924.47 746.35 L1924.47 711.79 Z" fill="#000000" fill-rule="evenodd" fill-opacity="1" /><path clip-path="url(#clip250)" d="M1976.97 733.318 Q1971.81 733.318 1969.82 734.499 Q1967.83 735.679 1967.83 738.526 Q1967.83 740.795 1969.31 742.137 Q1970.81 743.457 1973.38 743.457 Q1976.92 743.457 1979.05 740.957 Q1981.21 738.434 1981.21 734.267 L1981.21 733.318 L1976.97 733.318 M1985.47 731.559 L1985.47 746.35 L1981.21 746.35 L1981.21 742.415 Q1979.75 744.776 1977.57 745.911 Q1975.4 747.022 1972.25 747.022 Q1968.27 747.022 1965.91 744.799 Q1963.57 742.554 1963.57 738.804 Q1963.57 734.429 1966.48 732.207 Q1969.42 729.985 1975.23 729.985 L1981.21 729.985 L1981.21 729.568 Q1981.21 726.628 1979.26 725.031 Q1977.34 723.411 1973.85 723.411 Q1971.62 723.411 1969.52 723.943 Q1967.41 724.475 1965.47 725.54 L1965.47 721.605 Q1967.8 720.702 1970 720.263 Q1972.2 719.8 1974.29 719.8 Q1979.91 719.8 1982.69 722.716 Q1985.47 725.633 1985.47 731.559 Z" fill="#000000" fill-rule="evenodd" fill-opacity="1" /><path clip-path="url(#clip250)" d="M1998.45 713.064 L1998.45 720.425 L2007.23 720.425 L2007.23 723.735 L1998.45 723.735 L1998.45 737.809 Q1998.45 740.98 1999.31 741.883 Q2000.19 742.786 2002.85 742.786 L2007.23 742.786 L2007.23 746.35 L2002.85 746.35 Q1997.92 746.35 1996.04 744.522 Q1994.17 742.67 1994.17 737.809 L1994.17 723.735 L1991.04 723.735 L1991.04 720.425 L1994.17 720.425 L1994.17 713.064 L1998.45 713.064 Z" fill="#000000" fill-rule="evenodd" fill-opacity="1" /><path clip-path="url(#clip250)" d="M2012.83 710.332 L2017.09 710.332 L2017.09 746.35 L2012.83 746.35 L2012.83 710.332 Z" fill="#000000" fill-rule="evenodd" fill-opacity="1" /><path clip-path="url(#clip250)" d="M2037.78 733.318 Q2032.62 733.318 2030.63 734.499 Q2028.64 735.679 2028.64 738.526 Q2028.64 740.795 2030.12 742.137 Q2031.62 743.457 2034.19 743.457 Q2037.73 743.457 2039.86 740.957 Q2042.02 738.434 2042.02 734.267 L2042.02 733.318 L2037.78 733.318 M2046.28 731.559 L2046.28 746.35 L2042.02 746.35 L2042.02 742.415 Q2040.56 744.776 2038.38 745.911 Q2036.21 747.022 2033.06 747.022 Q2029.08 747.022 2026.72 744.799 Q2024.38 742.554 2024.38 738.804 Q2024.38 734.429 2027.29 732.207 Q2030.23 729.985 2036.04 729.985 L2042.02 729.985 L2042.02 729.568 Q2042.02 726.628 2040.07 725.031 Q2038.15 723.411 2034.66 723.411 Q2032.43 723.411 2030.33 723.943 Q2028.22 724.475 2026.28 725.54 L2026.28 721.605 Q2028.61 720.702 2030.81 720.263 Q2033.01 719.8 2035.1 719.8 Q2040.72 719.8 2043.5 722.716 Q2046.28 725.633 2046.28 731.559 Z" fill="#000000" fill-rule="evenodd" fill-opacity="1" /><path clip-path="url(#clip250)" d="M2073.66 733.411 Q2073.66 728.712 2071.72 726.05 Q2069.79 723.364 2066.41 723.364 Q2063.04 723.364 2061.09 726.05 Q2059.17 728.712 2059.17 733.411 Q2059.17 738.11 2061.09 740.795 Q2063.04 743.457 2066.41 743.457 Q2069.79 743.457 2071.72 740.795 Q2073.66 738.11 2073.66 733.411 M2059.17 724.36 Q2060.51 722.045 2062.55 720.934 Q2064.61 719.8 2067.46 719.8 Q2072.18 719.8 2075.12 723.55 Q2078.08 727.3 2078.08 733.411 Q2078.08 739.522 2075.12 743.272 Q2072.18 747.022 2067.46 747.022 Q2064.61 747.022 2062.55 745.911 Q2060.51 744.776 2059.17 742.462 L2059.17 746.35 L2054.89 746.35 L2054.89 710.332 L2059.17 710.332 L2059.17 724.36 Z" fill="#000000" fill-rule="evenodd" fill-opacity="1" /><path clip-path="url(#clip250)" d="M2105.07 715.633 L2105.07 728.619 L2110.95 728.619 Q2114.22 728.619 2116 726.929 Q2117.78 725.239 2117.78 722.114 Q2117.78 719.013 2116 717.323 Q2114.22 715.633 2110.95 715.633 L2105.07 715.633 M2100.4 711.79 L2110.95 711.79 Q2116.76 711.79 2119.72 714.429 Q2122.71 717.045 2122.71 722.114 Q2122.71 727.23 2119.72 729.846 Q2116.76 732.462 2110.95 732.462 L2105.07 732.462 L2105.07 746.35 L2100.4 746.35 L2100.4 711.79 Z" fill="#000000" fill-rule="evenodd" fill-opacity="1" /><path clip-path="url(#clip250)" d="M2128.98 711.79 L2133.66 711.79 L2133.66 746.35 L2128.98 746.35 L2128.98 711.79 Z" fill="#000000" fill-rule="evenodd" fill-opacity="1" /><path clip-path="url(#clip250)" d="M2140.63 731.466 L2153.1 731.466 L2153.1 735.262 L2140.63 735.262 L2140.63 731.466 Z" fill="#000000" fill-rule="evenodd" fill-opacity="1" /><path clip-path="url(#clip250)" d="M2164.75 715.633 L2164.75 728.619 L2170.63 728.619 Q2173.89 728.619 2175.67 726.929 Q2177.46 725.239 2177.46 722.114 Q2177.46 719.013 2175.67 717.323 Q2173.89 715.633 2170.63 715.633 L2164.75 715.633 M2160.07 711.79 L2170.63 711.79 Q2176.44 711.79 2179.4 714.429 Q2182.39 717.045 2182.39 722.114 Q2182.39 727.23 2179.4 729.846 Q2176.44 732.462 2170.63 732.462 L2164.75 732.462 L2164.75 746.35 L2160.07 746.35 L2160.07 711.79 Z" fill="#000000" fill-rule="evenodd" fill-opacity="1" /><path clip-path="url(#clip250)" d="M2214.54 714.452 L2214.54 719.383 Q2212.18 717.184 2209.49 716.096 Q2206.83 715.008 2203.82 715.008 Q2197.9 715.008 2194.75 718.642 Q2191.6 722.253 2191.6 729.105 Q2191.6 735.934 2194.75 739.568 Q2197.9 743.179 2203.82 743.179 Q2206.83 743.179 2209.49 742.091 Q2212.18 741.003 2214.54 738.804 L2214.54 743.688 Q2212.09 745.355 2209.33 746.188 Q2206.6 747.022 2203.54 747.022 Q2195.7 747.022 2191.18 742.23 Q2186.67 737.415 2186.67 729.105 Q2186.67 720.772 2191.18 715.98 Q2195.7 711.165 2203.54 711.165 Q2206.65 711.165 2209.38 711.999 Q2212.13 712.809 2214.54 714.452 Z" fill="#000000" fill-rule="evenodd" fill-opacity="1" /><polyline clip-path="url(#clip250)" style="stroke:#ff0000; stroke-linecap:butt; stroke-linejoin:round; stroke-width:4; stroke-opacity:1; fill:none" points="
  1761.14,780.91 1901.14,780.91 
  "/>
<path clip-path="url(#clip250)" d="M1831.14 755.31 L1805.54 780.91 L1831.14 806.51 L1856.74 780.91 L1831.14 755.31 Z" fill="#ffffff" fill-rule="evenodd" fill-opacity="1" stroke="#000000" stroke-opacity="1" stroke-width="4.096"/>
<path clip-path="url(#clip250)" d="M1924.47 763.63 L1931.44 763.63 L1940.26 787.149 L1949.12 763.63 L1956.09 763.63 L1956.09 798.19 L1951.53 798.19 L1951.53 767.843 L1942.62 791.547 L1937.92 791.547 L1929.01 767.843 L1929.01 798.19 L1924.47 798.19 L1924.47 763.63 Z" fill="#000000" fill-rule="evenodd" fill-opacity="1" /><path clip-path="url(#clip250)" d="M1976.97 785.158 Q1971.81 785.158 1969.82 786.339 Q1967.83 787.519 1967.83 790.366 Q1967.83 792.635 1969.31 793.977 Q1970.81 795.297 1973.38 795.297 Q1976.92 795.297 1979.05 792.797 Q1981.21 790.274 1981.21 786.107 L1981.21 785.158 L1976.97 785.158 M1985.47 783.399 L1985.47 798.19 L1981.21 798.19 L1981.21 794.255 Q1979.75 796.616 1977.57 797.751 Q1975.4 798.862 1972.25 798.862 Q1968.27 798.862 1965.91 796.639 Q1963.57 794.394 1963.57 790.644 Q1963.57 786.269 1966.48 784.047 Q1969.42 781.825 1975.23 781.825 L1981.21 781.825 L1981.21 781.408 Q1981.21 778.468 1979.26 776.871 Q1977.34 775.251 1973.85 775.251 Q1971.62 775.251 1969.52 775.783 Q1967.41 776.315 1965.47 777.38 L1965.47 773.445 Q1967.8 772.542 1970 772.103 Q1972.2 771.64 1974.29 771.64 Q1979.91 771.64 1982.69 774.556 Q1985.47 777.473 1985.47 783.399 Z" fill="#000000" fill-rule="evenodd" fill-opacity="1" /><path clip-path="url(#clip250)" d="M1998.45 764.904 L1998.45 772.265 L2007.23 772.265 L2007.23 775.575 L1998.45 775.575 L1998.45 789.649 Q1998.45 792.82 1999.31 793.723 Q2000.19 794.626 2002.85 794.626 L2007.23 794.626 L2007.23 798.19 L2002.85 798.19 Q1997.92 798.19 1996.04 796.362 Q1994.17 794.51 1994.17 789.649 L1994.17 775.575 L1991.04 775.575 L1991.04 772.265 L1994.17 772.265 L1994.17 764.904 L1998.45 764.904 Z" fill="#000000" fill-rule="evenodd" fill-opacity="1" /><path clip-path="url(#clip250)" d="M2012.83 762.172 L2017.09 762.172 L2017.09 798.19 L2012.83 798.19 L2012.83 762.172 Z" fill="#000000" fill-rule="evenodd" fill-opacity="1" /><path clip-path="url(#clip250)" d="M2037.78 785.158 Q2032.62 785.158 2030.63 786.339 Q2028.64 787.519 2028.64 790.366 Q2028.64 792.635 2030.12 793.977 Q2031.62 795.297 2034.19 795.297 Q2037.73 795.297 2039.86 792.797 Q2042.02 790.274 2042.02 786.107 L2042.02 785.158 L2037.78 785.158 M2046.28 783.399 L2046.28 798.19 L2042.02 798.19 L2042.02 794.255 Q2040.56 796.616 2038.38 797.751 Q2036.21 798.862 2033.06 798.862 Q2029.08 798.862 2026.72 796.639 Q2024.38 794.394 2024.38 790.644 Q2024.38 786.269 2027.29 784.047 Q2030.23 781.825 2036.04 781.825 L2042.02 781.825 L2042.02 781.408 Q2042.02 778.468 2040.07 776.871 Q2038.15 775.251 2034.66 775.251 Q2032.43 775.251 2030.33 775.783 Q2028.22 776.315 2026.28 777.38 L2026.28 773.445 Q2028.61 772.542 2030.81 772.103 Q2033.01 771.64 2035.1 771.64 Q2040.72 771.64 2043.5 774.556 Q2046.28 777.473 2046.28 783.399 Z" fill="#000000" fill-rule="evenodd" fill-opacity="1" /><path clip-path="url(#clip250)" d="M2073.66 785.251 Q2073.66 780.552 2071.72 777.89 Q2069.79 775.204 2066.41 775.204 Q2063.04 775.204 2061.09 777.89 Q2059.17 780.552 2059.17 785.251 Q2059.17 789.95 2061.09 792.635 Q2063.04 795.297 2066.41 795.297 Q2069.79 795.297 2071.72 792.635 Q2073.66 789.95 2073.66 785.251 M2059.17 776.2 Q2060.51 773.885 2062.55 772.774 Q2064.61 771.64 2067.46 771.64 Q2072.18 771.64 2075.12 775.39 Q2078.08 779.14 2078.08 785.251 Q2078.08 791.362 2075.12 795.112 Q2072.18 798.862 2067.46 798.862 Q2064.61 798.862 2062.55 797.751 Q2060.51 796.616 2059.17 794.302 L2059.17 798.19 L2054.89 798.19 L2054.89 762.172 L2059.17 762.172 L2059.17 776.2 Z" fill="#000000" fill-rule="evenodd" fill-opacity="1" /><path clip-path="url(#clip250)" d="M2105.07 767.473 L2105.07 780.459 L2110.95 780.459 Q2114.22 780.459 2116 778.769 Q2117.78 777.079 2117.78 773.954 Q2117.78 770.853 2116 769.163 Q2114.22 767.473 2110.95 767.473 L2105.07 767.473 M2100.4 763.63 L2110.95 763.63 Q2116.76 763.63 2119.72 766.269 Q2122.71 768.885 2122.71 773.954 Q2122.71 779.07 2119.72 781.686 Q2116.76 784.302 2110.95 784.302 L2105.07 784.302 L2105.07 798.19 L2100.4 798.19 L2100.4 763.63 Z" fill="#000000" fill-rule="evenodd" fill-opacity="1" /><path clip-path="url(#clip250)" d="M2128.98 763.63 L2133.66 763.63 L2133.66 798.19 L2128.98 798.19 L2128.98 763.63 Z" fill="#000000" fill-rule="evenodd" fill-opacity="1" /><path clip-path="url(#clip250)" d="M2140.63 783.306 L2153.1 783.306 L2153.1 787.102 L2140.63 787.102 L2140.63 783.306 Z" fill="#000000" fill-rule="evenodd" fill-opacity="1" /><path clip-path="url(#clip250)" d="M2160.07 763.63 L2164.75 763.63 L2164.75 798.19 L2160.07 798.19 L2160.07 763.63 Z" fill="#000000" fill-rule="evenodd" fill-opacity="1" /><path clip-path="url(#clip250)" d="M2174.05 763.63 L2181.02 763.63 L2189.84 787.149 L2198.71 763.63 L2205.67 763.63 L2205.67 798.19 L2201.11 798.19 L2201.11 767.843 L2192.2 791.547 L2187.5 791.547 L2178.59 767.843 L2178.59 798.19 L2174.05 798.19 L2174.05 763.63 Z" fill="#000000" fill-rule="evenodd" fill-opacity="1" /><path clip-path="url(#clip250)" d="M2216.18 794.255 L2223.82 794.255 L2223.82 767.89 L2215.51 769.556 L2215.51 765.297 L2223.77 763.63 L2228.45 763.63 L2228.45 794.255 L2236.09 794.255 L2236.09 798.19 L2216.18 798.19 L2216.18 794.255 Z" fill="#000000" fill-rule="evenodd" fill-opacity="1" /><polyline clip-path="url(#clip250)" style="stroke:#ff0000; stroke-linecap:butt; stroke-linejoin:round; stroke-width:4; stroke-opacity:1; fill:none" points="
  1761.14,832.75 1901.14,832.75 
  "/>
<path clip-path="url(#clip250)" d="M1805.54 807.15 L1805.54 858.35 L1856.74 858.35 L1856.74 807.15 L1805.54 807.15 Z" fill="#ffffff" fill-rule="evenodd" fill-opacity="1" stroke="#000000" stroke-opacity="1" stroke-width="4.096"/>
<path clip-path="url(#clip250)" d="M1924.47 815.47 L1931.44 815.47 L1940.26 838.989 L1949.12 815.47 L1956.09 815.47 L1956.09 850.03 L1951.53 850.03 L1951.53 819.683 L1942.62 843.387 L1937.92 843.387 L1929.01 819.683 L1929.01 850.03 L1924.47 850.03 L1924.47 815.47 Z" fill="#000000" fill-rule="evenodd" fill-opacity="1" /><path clip-path="url(#clip250)" d="M1976.97 836.998 Q1971.81 836.998 1969.82 838.179 Q1967.83 839.359 1967.83 842.206 Q1967.83 844.475 1969.31 845.817 Q1970.81 847.137 1973.38 847.137 Q1976.92 847.137 1979.05 844.637 Q1981.21 842.114 1981.21 837.947 L1981.21 836.998 L1976.97 836.998 M1985.47 835.239 L1985.47 850.03 L1981.21 850.03 L1981.21 846.095 Q1979.75 848.456 1977.57 849.591 Q1975.4 850.702 1972.25 850.702 Q1968.27 850.702 1965.91 848.479 Q1963.57 846.234 1963.57 842.484 Q1963.57 838.109 1966.48 835.887 Q1969.42 833.665 1975.23 833.665 L1981.21 833.665 L1981.21 833.248 Q1981.21 830.308 1979.26 828.711 Q1977.34 827.091 1973.85 827.091 Q1971.62 827.091 1969.52 827.623 Q1967.41 828.155 1965.47 829.22 L1965.47 825.285 Q1967.8 824.382 1970 823.943 Q1972.2 823.48 1974.29 823.48 Q1979.91 823.48 1982.69 826.396 Q1985.47 829.313 1985.47 835.239 Z" fill="#000000" fill-rule="evenodd" fill-opacity="1" /><path clip-path="url(#clip250)" d="M1998.45 816.744 L1998.45 824.105 L2007.23 824.105 L2007.23 827.415 L1998.45 827.415 L1998.45 841.489 Q1998.45 844.66 1999.31 845.563 Q2000.19 846.466 2002.85 846.466 L2007.23 846.466 L2007.23 850.03 L2002.85 850.03 Q1997.92 850.03 1996.04 848.202 Q1994.17 846.35 1994.17 841.489 L1994.17 827.415 L1991.04 827.415 L1991.04 824.105 L1994.17 824.105 L1994.17 816.744 L1998.45 816.744 Z" fill="#000000" fill-rule="evenodd" fill-opacity="1" /><path clip-path="url(#clip250)" d="M2012.83 814.012 L2017.09 814.012 L2017.09 850.03 L2012.83 850.03 L2012.83 814.012 Z" fill="#000000" fill-rule="evenodd" fill-opacity="1" /><path clip-path="url(#clip250)" d="M2037.78 836.998 Q2032.62 836.998 2030.63 838.179 Q2028.64 839.359 2028.64 842.206 Q2028.64 844.475 2030.12 845.817 Q2031.62 847.137 2034.19 847.137 Q2037.73 847.137 2039.86 844.637 Q2042.02 842.114 2042.02 837.947 L2042.02 836.998 L2037.78 836.998 M2046.28 835.239 L2046.28 850.03 L2042.02 850.03 L2042.02 846.095 Q2040.56 848.456 2038.38 849.591 Q2036.21 850.702 2033.06 850.702 Q2029.08 850.702 2026.72 848.479 Q2024.38 846.234 2024.38 842.484 Q2024.38 838.109 2027.29 835.887 Q2030.23 833.665 2036.04 833.665 L2042.02 833.665 L2042.02 833.248 Q2042.02 830.308 2040.07 828.711 Q2038.15 827.091 2034.66 827.091 Q2032.43 827.091 2030.33 827.623 Q2028.22 828.155 2026.28 829.22 L2026.28 825.285 Q2028.61 824.382 2030.81 823.943 Q2033.01 823.48 2035.1 823.48 Q2040.72 823.48 2043.5 826.396 Q2046.28 829.313 2046.28 835.239 Z" fill="#000000" fill-rule="evenodd" fill-opacity="1" /><path clip-path="url(#clip250)" d="M2073.66 837.091 Q2073.66 832.392 2071.72 829.73 Q2069.79 827.044 2066.41 827.044 Q2063.04 827.044 2061.09 829.73 Q2059.17 832.392 2059.17 837.091 Q2059.17 841.79 2061.09 844.475 Q2063.04 847.137 2066.41 847.137 Q2069.79 847.137 2071.72 844.475 Q2073.66 841.79 2073.66 837.091 M2059.17 828.04 Q2060.51 825.725 2062.55 824.614 Q2064.61 823.48 2067.46 823.48 Q2072.18 823.48 2075.12 827.23 Q2078.08 830.98 2078.08 837.091 Q2078.08 843.202 2075.12 846.952 Q2072.18 850.702 2067.46 850.702 Q2064.61 850.702 2062.55 849.591 Q2060.51 848.456 2059.17 846.142 L2059.17 850.03 L2054.89 850.03 L2054.89 814.012 L2059.17 814.012 L2059.17 828.04 Z" fill="#000000" fill-rule="evenodd" fill-opacity="1" /><path clip-path="url(#clip250)" d="M2105.07 819.313 L2105.07 832.299 L2110.95 832.299 Q2114.22 832.299 2116 830.609 Q2117.78 828.919 2117.78 825.794 Q2117.78 822.693 2116 821.003 Q2114.22 819.313 2110.95 819.313 L2105.07 819.313 M2100.4 815.47 L2110.95 815.47 Q2116.76 815.47 2119.72 818.109 Q2122.71 820.725 2122.71 825.794 Q2122.71 830.91 2119.72 833.526 Q2116.76 836.142 2110.95 836.142 L2105.07 836.142 L2105.07 850.03 L2100.4 850.03 L2100.4 815.47 Z" fill="#000000" fill-rule="evenodd" fill-opacity="1" /><path clip-path="url(#clip250)" d="M2128.98 815.47 L2133.66 815.47 L2133.66 850.03 L2128.98 850.03 L2128.98 815.47 Z" fill="#000000" fill-rule="evenodd" fill-opacity="1" /><path clip-path="url(#clip250)" d="M2140.63 835.146 L2153.1 835.146 L2153.1 838.942 L2140.63 838.942 L2140.63 835.146 Z" fill="#000000" fill-rule="evenodd" fill-opacity="1" /><path clip-path="url(#clip250)" d="M2160.07 815.47 L2164.75 815.47 L2164.75 850.03 L2160.07 850.03 L2160.07 815.47 Z" fill="#000000" fill-rule="evenodd" fill-opacity="1" /><path clip-path="url(#clip250)" d="M2174.05 815.47 L2181.02 815.47 L2189.84 838.989 L2198.71 815.47 L2205.67 815.47 L2205.67 850.03 L2201.11 850.03 L2201.11 819.683 L2192.2 843.387 L2187.5 843.387 L2178.59 819.683 L2178.59 850.03 L2174.05 850.03 L2174.05 815.47 Z" fill="#000000" fill-rule="evenodd" fill-opacity="1" /><path clip-path="url(#clip250)" d="M2219.4 846.095 L2235.72 846.095 L2235.72 850.03 L2213.77 850.03 L2213.77 846.095 Q2216.44 843.341 2221.02 838.711 Q2225.63 834.058 2226.81 832.716 Q2229.05 830.193 2229.93 828.456 Q2230.84 826.697 2230.84 825.007 Q2230.84 822.253 2228.89 820.517 Q2226.97 818.781 2223.87 818.781 Q2221.67 818.781 2219.21 819.544 Q2216.78 820.308 2214.01 821.859 L2214.01 817.137 Q2216.83 816.003 2219.28 815.424 Q2221.74 814.845 2223.77 814.845 Q2229.15 814.845 2232.34 817.531 Q2235.53 820.216 2235.53 824.706 Q2235.53 826.836 2234.72 828.757 Q2233.94 830.655 2231.83 833.248 Q2231.25 833.919 2228.15 837.137 Q2225.05 840.331 2219.4 846.095 Z" fill="#000000" fill-rule="evenodd" fill-opacity="1" /></svg>
