<?xml version="1.0" encoding="utf-8"?>
<svg xmlns="http://www.w3.org/2000/svg" xmlns:xlink="http://www.w3.org/1999/xlink" width="600" height="400" viewBox="0 0 2400 1600">
<defs>
  <clipPath id="clip990">
    <rect x="0" y="0" width="2400" height="1600"/>
  </clipPath>
</defs>
<path clip-path="url(#clip990)" d="
M0 1600 L2400 1600 L2400 0 L0 0  Z
  " fill="#ffffff" fill-rule="evenodd" fill-opacity="1"/>
<defs>
  <clipPath id="clip991">
    <rect x="480" y="0" width="1681" height="1600"/>
  </clipPath>
</defs>
<path clip-path="url(#clip990)" d="
M251.842 1410.9 L2352.76 1410.9 L2352.76 47.2441 L251.842 47.2441  Z
  " fill="#ffffff" fill-rule="evenodd" fill-opacity="1"/>
<defs>
  <clipPath id="clip992">
    <rect x="251" y="47" width="2102" height="1365"/>
  </clipPath>
</defs>
<polyline clip-path="url(#clip992)" style="stroke:#000000; stroke-linecap:butt; stroke-linejoin:round; stroke-width:2; stroke-opacity:0.1; fill:none" points="
  801.31,1410.9 801.31,47.2441 
  "/>
<polyline clip-path="url(#clip992)" style="stroke:#000000; stroke-linecap:butt; stroke-linejoin:round; stroke-width:2; stroke-opacity:0.1; fill:none" points="
  1538.17,1410.9 1538.17,47.2441 
  "/>
<polyline clip-path="url(#clip992)" style="stroke:#000000; stroke-linecap:butt; stroke-linejoin:round; stroke-width:2; stroke-opacity:0.1; fill:none" points="
  2275.03,1410.9 2275.03,47.2441 
  "/>
<polyline clip-path="url(#clip990)" style="stroke:#000000; stroke-linecap:butt; stroke-linejoin:round; stroke-width:4; stroke-opacity:1; fill:none" points="
  251.842,1410.9 2352.76,1410.9 
  "/>
<polyline clip-path="url(#clip990)" style="stroke:#000000; stroke-linecap:butt; stroke-linejoin:round; stroke-width:4; stroke-opacity:1; fill:none" points="
  251.842,47.2441 2352.76,47.2441 
  "/>
<polyline clip-path="url(#clip990)" style="stroke:#000000; stroke-linecap:butt; stroke-linejoin:round; stroke-width:4; stroke-opacity:1; fill:none" points="
  801.31,1410.9 801.31,1392 
  "/>
<polyline clip-path="url(#clip990)" style="stroke:#000000; stroke-linecap:butt; stroke-linejoin:round; stroke-width:4; stroke-opacity:1; fill:none" points="
  1538.17,1410.9 1538.17,1392 
  "/>
<polyline clip-path="url(#clip990)" style="stroke:#000000; stroke-linecap:butt; stroke-linejoin:round; stroke-width:4; stroke-opacity:1; fill:none" points="
  2275.03,1410.9 2275.03,1392 
  "/>
<path clip-path="url(#clip990)" d="M751.575 1485.02 L759.214 1485.02 L759.214 1458.66 L750.904 1460.32 L750.904 1456.06 L759.168 1454.4 L763.844 1454.4 L763.844 1485.02 L771.483 1485.02 L771.483 1488.96 L751.575 1488.96 L751.575 1485.02 Z" fill="#000000" fill-rule="evenodd" fill-opacity="1" /><path clip-path="url(#clip990)" d="M790.927 1457.48 Q787.316 1457.48 785.487 1461.04 Q783.682 1464.58 783.682 1471.71 Q783.682 1478.82 785.487 1482.38 Q787.316 1485.92 790.927 1485.92 Q794.561 1485.92 796.367 1482.38 Q798.195 1478.82 798.195 1471.71 Q798.195 1464.58 796.367 1461.04 Q794.561 1457.48 790.927 1457.48 M790.927 1453.77 Q796.737 1453.77 799.793 1458.38 Q802.871 1462.96 802.871 1471.71 Q802.871 1480.44 799.793 1485.04 Q796.737 1489.63 790.927 1489.63 Q785.117 1489.63 782.038 1485.04 Q778.983 1480.44 778.983 1471.71 Q778.983 1462.96 782.038 1458.38 Q785.117 1453.77 790.927 1453.77 Z" fill="#000000" fill-rule="evenodd" fill-opacity="1" /><path clip-path="url(#clip990)" d="M802.871 1447.87 L826.983 1447.87 L826.983 1451.07 L802.871 1451.07 L802.871 1447.87 Z" fill="#000000" fill-rule="evenodd" fill-opacity="1" /><path clip-path="url(#clip990)" d="M838.456 1458.35 L851.715 1458.35 L851.715 1461.55 L833.885 1461.55 L833.885 1458.35 Q836.048 1456.11 839.772 1452.35 Q843.515 1448.57 844.474 1447.48 Q846.299 1445.43 847.013 1444.02 Q847.747 1442.59 847.747 1441.22 Q847.747 1438.98 846.167 1437.57 Q844.606 1436.16 842.086 1436.16 Q840.299 1436.16 838.305 1436.78 Q836.33 1437.4 834.073 1438.66 L834.073 1434.82 Q836.368 1433.9 838.362 1433.43 Q840.355 1432.96 842.01 1432.96 Q846.374 1432.96 848.969 1435.14 Q851.565 1437.32 851.565 1440.97 Q851.565 1442.7 850.906 1444.26 Q850.267 1445.8 848.555 1447.91 Q848.085 1448.46 845.565 1451.07 Q843.045 1453.67 838.456 1458.35 Z" fill="#000000" fill-rule="evenodd" fill-opacity="1" /><path clip-path="url(#clip990)" d="M1488.28 1485.02 L1495.92 1485.02 L1495.92 1458.66 L1487.61 1460.32 L1487.61 1456.06 L1495.88 1454.4 L1500.55 1454.4 L1500.55 1485.02 L1508.19 1485.02 L1508.19 1488.96 L1488.28 1488.96 L1488.28 1485.02 Z" fill="#000000" fill-rule="evenodd" fill-opacity="1" /><path clip-path="url(#clip990)" d="M1527.64 1457.48 Q1524.02 1457.48 1522.2 1461.04 Q1520.39 1464.58 1520.39 1471.71 Q1520.39 1478.82 1522.2 1482.38 Q1524.02 1485.92 1527.64 1485.92 Q1531.27 1485.92 1533.08 1482.38 Q1534.9 1478.82 1534.9 1471.71 Q1534.9 1464.58 1533.08 1461.04 Q1531.27 1457.48 1527.64 1457.48 M1527.64 1453.77 Q1533.45 1453.77 1536.5 1458.38 Q1539.58 1462.96 1539.58 1471.71 Q1539.58 1480.44 1536.5 1485.04 Q1533.45 1489.63 1527.64 1489.63 Q1521.83 1489.63 1518.75 1485.04 Q1515.69 1480.44 1515.69 1471.71 Q1515.69 1462.96 1518.75 1458.38 Q1521.83 1453.77 1527.64 1453.77 Z" fill="#000000" fill-rule="evenodd" fill-opacity="1" /><path clip-path="url(#clip990)" d="M1539.58 1447.87 L1563.69 1447.87 L1563.69 1451.07 L1539.58 1451.07 L1539.58 1447.87 Z" fill="#000000" fill-rule="evenodd" fill-opacity="1" /><path clip-path="url(#clip990)" d="M1572.55 1458.35 L1578.76 1458.35 L1578.76 1436.93 L1572 1438.28 L1572 1434.82 L1578.72 1433.47 L1582.52 1433.47 L1582.52 1458.35 L1588.72 1458.35 L1588.72 1461.55 L1572.55 1461.55 L1572.55 1458.35 Z" fill="#000000" fill-rule="evenodd" fill-opacity="1" /><path clip-path="url(#clip990)" d="M2240.01 1485.02 L2247.65 1485.02 L2247.65 1458.66 L2239.34 1460.32 L2239.34 1456.06 L2247.6 1454.4 L2252.28 1454.4 L2252.28 1485.02 L2259.92 1485.02 L2259.92 1488.96 L2240.01 1488.96 L2240.01 1485.02 Z" fill="#000000" fill-rule="evenodd" fill-opacity="1" /><path clip-path="url(#clip990)" d="M2279.36 1457.48 Q2275.75 1457.48 2273.92 1461.04 Q2272.12 1464.58 2272.12 1471.71 Q2272.12 1478.82 2273.92 1482.38 Q2275.75 1485.92 2279.36 1485.92 Q2283 1485.92 2284.8 1482.38 Q2286.63 1478.82 2286.63 1471.71 Q2286.63 1464.58 2284.8 1461.04 Q2283 1457.48 2279.36 1457.48 M2279.36 1453.77 Q2285.17 1453.77 2288.23 1458.38 Q2291.31 1462.96 2291.31 1471.71 Q2291.31 1480.44 2288.23 1485.04 Q2285.17 1489.63 2279.36 1489.63 Q2273.55 1489.63 2270.47 1485.04 Q2267.42 1480.44 2267.42 1471.71 Q2267.42 1462.96 2270.47 1458.38 Q2273.55 1453.77 2279.36 1453.77 Z" fill="#000000" fill-rule="evenodd" fill-opacity="1" /><path clip-path="url(#clip990)" d="M2301.01 1435.97 Q2298.08 1435.97 2296.59 1438.86 Q2295.12 1441.74 2295.12 1447.53 Q2295.12 1453.31 2296.59 1456.2 Q2298.08 1459.08 2301.01 1459.08 Q2303.96 1459.08 2305.43 1456.2 Q2306.92 1453.31 2306.92 1447.53 Q2306.92 1441.74 2305.43 1438.86 Q2303.96 1435.97 2301.01 1435.97 M2301.01 1432.96 Q2305.73 1432.96 2308.21 1436.7 Q2310.72 1440.43 2310.72 1447.53 Q2310.72 1454.62 2308.21 1458.37 Q2305.73 1462.09 2301.01 1462.09 Q2296.29 1462.09 2293.79 1458.37 Q2291.31 1454.62 2291.31 1447.53 Q2291.31 1440.43 2293.79 1436.7 Q2296.29 1432.96 2301.01 1432.96 Z" fill="#000000" fill-rule="evenodd" fill-opacity="1" /><path clip-path="url(#clip990)" d="M914.739 1526.67 L944.785 1526.67 L944.785 1532.08 L921.168 1532.08 L921.168 1546.14 L943.798 1546.14 L943.798 1551.56 L921.168 1551.56 L921.168 1568.77 L945.358 1568.77 L945.358 1574.19 L914.739 1574.19 L914.739 1526.67 Z" fill="#000000" fill-rule="evenodd" fill-opacity="1" /><path clip-path="url(#clip990)" d="M985.303 1538.54 L972.412 1555.88 L985.971 1574.19 L979.064 1574.19 L968.688 1560.18 L958.312 1574.19 L951.405 1574.19 L965.251 1555.53 L952.583 1538.54 L959.49 1538.54 L968.943 1551.24 L978.396 1538.54 L985.303 1538.54 Z" fill="#000000" fill-rule="evenodd" fill-opacity="1" /><path clip-path="url(#clip990)" d="M1022.73 1554.9 L1022.73 1557.76 L995.806 1557.76 Q996.188 1563.81 999.435 1566.99 Q1002.71 1570.14 1008.54 1570.14 Q1011.91 1570.14 1015.06 1569.32 Q1018.25 1568.49 1021.36 1566.83 L1021.36 1572.37 Q1018.21 1573.71 1014.9 1574.41 Q1011.59 1575.11 1008.19 1575.11 Q999.658 1575.11 994.66 1570.14 Q989.695 1565.18 989.695 1556.71 Q989.695 1547.96 994.406 1542.83 Q999.148 1537.68 1007.17 1537.68 Q1014.36 1537.68 1018.53 1542.33 Q1022.73 1546.94 1022.73 1554.9 M1016.88 1553.18 Q1016.81 1548.37 1014.17 1545.51 Q1011.56 1542.64 1007.23 1542.64 Q1002.33 1542.64 999.371 1545.41 Q996.443 1548.18 995.997 1553.21 L1016.88 1553.18 Z" fill="#000000" fill-rule="evenodd" fill-opacity="1" /><path clip-path="url(#clip990)" d="M1058 1539.91 L1058 1545.38 Q1055.52 1544.01 1053 1543.34 Q1050.52 1542.64 1047.97 1542.64 Q1042.28 1542.64 1039.12 1546.27 Q1035.97 1549.87 1035.97 1556.39 Q1035.97 1562.92 1039.12 1566.55 Q1042.28 1570.14 1047.97 1570.14 Q1050.52 1570.14 1053 1569.47 Q1055.52 1568.77 1058 1567.41 L1058 1572.82 Q1055.55 1573.96 1052.91 1574.54 Q1050.3 1575.11 1047.34 1575.11 Q1039.28 1575.11 1034.54 1570.05 Q1029.8 1564.99 1029.8 1556.39 Q1029.8 1547.67 1034.57 1542.68 Q1039.38 1537.68 1047.72 1537.68 Q1050.42 1537.68 1053 1538.25 Q1055.58 1538.79 1058 1539.91 Z" fill="#000000" fill-rule="evenodd" fill-opacity="1" /><path clip-path="url(#clip990)" d="M1067.58 1560.12 L1067.58 1538.54 L1073.44 1538.54 L1073.44 1559.89 Q1073.44 1564.96 1075.41 1567.5 Q1077.38 1570.02 1081.33 1570.02 Q1086.07 1570.02 1088.81 1566.99 Q1091.58 1563.97 1091.58 1558.75 L1091.58 1538.54 L1097.43 1538.54 L1097.43 1574.19 L1091.58 1574.19 L1091.58 1568.71 Q1089.45 1571.96 1086.61 1573.55 Q1083.81 1575.11 1080.09 1575.11 Q1073.95 1575.11 1070.76 1571.29 Q1067.58 1567.47 1067.58 1560.12 M1082.32 1537.68 L1082.32 1537.68 Z" fill="#000000" fill-rule="evenodd" fill-opacity="1" /><path clip-path="url(#clip990)" d="M1115.29 1528.42 L1115.29 1538.54 L1127.35 1538.54 L1127.35 1543.09 L1115.29 1543.09 L1115.29 1562.44 Q1115.29 1566.8 1116.47 1568.04 Q1117.68 1569.28 1121.34 1569.28 L1127.35 1569.28 L1127.35 1574.19 L1121.34 1574.19 Q1114.56 1574.19 1111.98 1571.67 Q1109.4 1569.12 1109.4 1562.44 L1109.4 1543.09 L1105.11 1543.09 L1105.11 1538.54 L1109.4 1538.54 L1109.4 1528.42 L1115.29 1528.42 Z" fill="#000000" fill-rule="evenodd" fill-opacity="1" /><path clip-path="url(#clip990)" d="M1135.06 1538.54 L1140.91 1538.54 L1140.91 1574.19 L1135.06 1574.19 L1135.06 1538.54 M1135.06 1524.66 L1140.91 1524.66 L1140.91 1532.08 L1135.06 1532.08 L1135.06 1524.66 Z" fill="#000000" fill-rule="evenodd" fill-opacity="1" /><path clip-path="url(#clip990)" d="M1166.98 1542.64 Q1162.27 1542.64 1159.53 1546.34 Q1156.79 1550 1156.79 1556.39 Q1156.79 1562.79 1159.5 1566.48 Q1162.24 1570.14 1166.98 1570.14 Q1171.66 1570.14 1174.4 1566.45 Q1177.13 1562.76 1177.13 1556.39 Q1177.13 1550.06 1174.4 1546.37 Q1171.66 1542.64 1166.98 1542.64 M1166.98 1537.68 Q1174.62 1537.68 1178.98 1542.64 Q1183.34 1547.61 1183.34 1556.39 Q1183.34 1565.15 1178.98 1570.14 Q1174.62 1575.11 1166.98 1575.11 Q1159.31 1575.11 1154.95 1570.14 Q1150.62 1565.15 1150.62 1556.39 Q1150.62 1547.61 1154.95 1542.64 Q1159.31 1537.68 1166.98 1537.68 Z" fill="#000000" fill-rule="evenodd" fill-opacity="1" /><path clip-path="url(#clip990)" d="M1222.68 1552.67 L1222.68 1574.19 L1216.82 1574.19 L1216.82 1552.86 Q1216.82 1547.8 1214.85 1545.29 Q1212.88 1542.77 1208.93 1542.77 Q1204.19 1542.77 1201.45 1545.79 Q1198.71 1548.82 1198.71 1554.04 L1198.71 1574.19 L1192.82 1574.19 L1192.82 1538.54 L1198.71 1538.54 L1198.71 1544.08 Q1200.81 1540.86 1203.65 1539.27 Q1206.51 1537.68 1210.24 1537.68 Q1216.38 1537.68 1219.53 1541.5 Q1222.68 1545.29 1222.68 1552.67 Z" fill="#000000" fill-rule="evenodd" fill-opacity="1" /><path clip-path="url(#clip990)" d="M1260.87 1528.42 L1260.87 1538.54 L1272.94 1538.54 L1272.94 1543.09 L1260.87 1543.09 L1260.87 1562.44 Q1260.87 1566.8 1262.05 1568.04 Q1263.26 1569.28 1266.92 1569.28 L1272.94 1569.28 L1272.94 1574.19 L1266.92 1574.19 Q1260.14 1574.19 1257.56 1571.67 Q1254.99 1569.12 1254.99 1562.44 L1254.99 1543.09 L1250.69 1543.09 L1250.69 1538.54 L1254.99 1538.54 L1254.99 1528.42 L1260.87 1528.42 Z" fill="#000000" fill-rule="evenodd" fill-opacity="1" /><path clip-path="url(#clip990)" d="M1280.64 1538.54 L1286.5 1538.54 L1286.5 1574.19 L1280.64 1574.19 L1280.64 1538.54 M1280.64 1524.66 L1286.5 1524.66 L1286.5 1532.08 L1280.64 1532.08 L1280.64 1524.66 Z" fill="#000000" fill-rule="evenodd" fill-opacity="1" /><path clip-path="url(#clip990)" d="M1326.5 1545.38 Q1328.7 1541.43 1331.76 1539.56 Q1334.81 1537.68 1338.95 1537.68 Q1344.52 1537.68 1347.54 1541.59 Q1350.57 1545.48 1350.57 1552.67 L1350.57 1574.19 L1344.68 1574.19 L1344.68 1552.86 Q1344.68 1547.74 1342.86 1545.25 Q1341.05 1542.77 1337.33 1542.77 Q1332.77 1542.77 1330.13 1545.79 Q1327.49 1548.82 1327.49 1554.04 L1327.49 1574.19 L1321.6 1574.19 L1321.6 1552.86 Q1321.6 1547.7 1319.79 1545.25 Q1317.97 1542.77 1314.19 1542.77 Q1309.7 1542.77 1307.06 1545.83 Q1304.42 1548.85 1304.42 1554.04 L1304.42 1574.19 L1298.53 1574.19 L1298.53 1538.54 L1304.42 1538.54 L1304.42 1544.08 Q1306.42 1540.8 1309.22 1539.24 Q1312.02 1537.68 1315.87 1537.68 Q1319.76 1537.68 1322.46 1539.65 Q1325.2 1541.62 1326.5 1545.38 Z" fill="#000000" fill-rule="evenodd" fill-opacity="1" /><path clip-path="url(#clip990)" d="M1392.74 1554.9 L1392.74 1557.76 L1365.81 1557.76 Q1366.19 1563.81 1369.44 1566.99 Q1372.72 1570.14 1378.54 1570.14 Q1381.92 1570.14 1385.07 1569.32 Q1388.25 1568.49 1391.37 1566.83 L1391.37 1572.37 Q1388.22 1573.71 1384.91 1574.41 Q1381.6 1575.11 1378.19 1575.11 Q1369.66 1575.11 1364.67 1570.14 Q1359.7 1565.18 1359.7 1556.71 Q1359.7 1547.96 1364.41 1542.83 Q1369.15 1537.68 1377.18 1537.68 Q1384.37 1537.68 1388.54 1542.33 Q1392.74 1546.94 1392.74 1554.9 M1386.88 1553.18 Q1386.82 1548.37 1384.18 1545.51 Q1381.57 1542.64 1377.24 1542.64 Q1372.34 1542.64 1369.38 1545.41 Q1366.45 1548.18 1366 1553.21 L1386.88 1553.18 Z" fill="#000000" fill-rule="evenodd" fill-opacity="1" /><path clip-path="url(#clip990)" d="M1437.14 1524.72 Q1432.88 1532.04 1430.81 1539.21 Q1428.74 1546.37 1428.74 1553.72 Q1428.74 1561.07 1430.81 1568.3 Q1432.91 1575.49 1437.14 1582.78 L1432.05 1582.78 Q1427.27 1575.3 1424.89 1568.07 Q1422.53 1560.85 1422.53 1553.72 Q1422.53 1546.62 1424.89 1539.43 Q1427.24 1532.24 1432.05 1524.72 L1437.14 1524.72 Z" fill="#000000" fill-rule="evenodd" fill-opacity="1" /><path clip-path="url(#clip990)" d="M1471.23 1539.59 L1471.23 1545.13 Q1468.75 1543.85 1466.07 1543.22 Q1463.4 1542.58 1460.53 1542.58 Q1456.17 1542.58 1453.98 1543.92 Q1451.81 1545.25 1451.81 1547.93 Q1451.81 1549.96 1453.37 1551.14 Q1454.93 1552.29 1459.64 1553.34 L1461.65 1553.78 Q1467.89 1555.12 1470.5 1557.57 Q1473.14 1559.99 1473.14 1564.35 Q1473.14 1569.32 1469.19 1572.21 Q1465.28 1575.11 1458.4 1575.11 Q1455.54 1575.11 1452.42 1574.54 Q1449.33 1573.99 1445.89 1572.88 L1445.89 1566.83 Q1449.14 1568.52 1452.29 1569.38 Q1455.44 1570.21 1458.53 1570.21 Q1462.67 1570.21 1464.9 1568.81 Q1467.12 1567.37 1467.12 1564.8 Q1467.12 1562.41 1465.5 1561.14 Q1463.91 1559.86 1458.47 1558.68 L1456.43 1558.21 Q1450.99 1557.06 1448.57 1554.71 Q1446.15 1552.32 1446.15 1548.18 Q1446.15 1543.15 1449.71 1540.42 Q1453.28 1537.68 1459.83 1537.68 Q1463.08 1537.68 1465.95 1538.16 Q1468.81 1538.63 1471.23 1539.59 Z" fill="#000000" fill-rule="evenodd" fill-opacity="1" /><path clip-path="url(#clip990)" d="M1508.12 1539.91 L1508.12 1545.38 Q1505.64 1544.01 1503.12 1543.34 Q1500.64 1542.64 1498.09 1542.64 Q1492.4 1542.64 1489.24 1546.27 Q1486.09 1549.87 1486.09 1556.39 Q1486.09 1562.92 1489.24 1566.55 Q1492.4 1570.14 1498.09 1570.14 Q1500.64 1570.14 1503.12 1569.47 Q1505.64 1568.77 1508.12 1567.41 L1508.12 1572.82 Q1505.67 1573.96 1503.03 1574.54 Q1500.42 1575.11 1497.46 1575.11 Q1489.4 1575.11 1484.66 1570.05 Q1479.92 1564.99 1479.92 1556.39 Q1479.92 1547.67 1484.69 1542.68 Q1489.5 1537.68 1497.84 1537.68 Q1500.54 1537.68 1503.12 1538.25 Q1505.7 1538.79 1508.12 1539.91 Z" fill="#000000" fill-rule="evenodd" fill-opacity="1" /><path clip-path="url(#clip990)" d="M1519.8 1566.1 L1526.52 1566.1 L1526.52 1571.58 L1521.3 1581.76 L1517.19 1581.76 L1519.8 1571.58 L1519.8 1566.1 Z" fill="#000000" fill-rule="evenodd" fill-opacity="1" /><path clip-path="url(#clip990)" d="M1560 1526.67 L1566.43 1526.67 L1566.43 1568.77 L1589.57 1568.77 L1589.57 1574.19 L1560 1574.19 L1560 1526.67 Z" fill="#000000" fill-rule="evenodd" fill-opacity="1" /><path clip-path="url(#clip990)" d="M1608.73 1542.64 Q1604.02 1542.64 1601.28 1546.34 Q1598.54 1550 1598.54 1556.39 Q1598.54 1562.79 1601.25 1566.48 Q1603.99 1570.14 1608.73 1570.14 Q1613.41 1570.14 1616.14 1566.45 Q1618.88 1562.76 1618.88 1556.39 Q1618.88 1550.06 1616.14 1546.37 Q1613.41 1542.64 1608.73 1542.64 M1608.73 1537.68 Q1616.37 1537.68 1620.73 1542.64 Q1625.09 1547.61 1625.09 1556.39 Q1625.09 1565.15 1620.73 1570.14 Q1616.37 1575.11 1608.73 1575.11 Q1601.06 1575.11 1596.7 1570.14 Q1592.37 1565.15 1592.37 1556.39 Q1592.37 1547.61 1596.7 1542.64 Q1601.06 1537.68 1608.73 1537.68 Z" fill="#000000" fill-rule="evenodd" fill-opacity="1" /><path clip-path="url(#clip990)" d="M1658.25 1555.95 Q1658.25 1549.58 1655.61 1546.08 Q1653 1542.58 1648.26 1542.58 Q1643.55 1542.58 1640.91 1546.08 Q1638.3 1549.58 1638.3 1555.95 Q1638.3 1562.28 1640.91 1565.78 Q1643.55 1569.28 1648.26 1569.28 Q1653 1569.28 1655.61 1565.78 Q1658.25 1562.28 1658.25 1555.95 M1664.11 1569.76 Q1664.11 1578.86 1660.07 1583.29 Q1656.03 1587.74 1647.69 1587.74 Q1644.6 1587.74 1641.86 1587.27 Q1639.12 1586.82 1636.55 1585.87 L1636.55 1580.17 Q1639.12 1581.57 1641.64 1582.24 Q1644.15 1582.91 1646.76 1582.91 Q1652.52 1582.91 1655.39 1579.88 Q1658.25 1576.89 1658.25 1570.81 L1658.25 1567.92 Q1656.44 1571.07 1653.61 1572.63 Q1650.77 1574.19 1646.83 1574.19 Q1640.27 1574.19 1636.26 1569.19 Q1632.25 1564.19 1632.25 1555.95 Q1632.25 1547.67 1636.26 1542.68 Q1640.27 1537.68 1646.83 1537.68 Q1650.77 1537.68 1653.61 1539.24 Q1656.44 1540.8 1658.25 1543.95 L1658.25 1538.54 L1664.11 1538.54 L1664.11 1569.76 Z" fill="#000000" fill-rule="evenodd" fill-opacity="1" /><path clip-path="url(#clip990)" d="M1675.25 1524.72 L1680.34 1524.72 Q1685.12 1532.24 1687.47 1539.43 Q1689.86 1546.62 1689.86 1553.72 Q1689.86 1560.85 1687.47 1568.07 Q1685.12 1575.3 1680.34 1582.78 L1675.25 1582.78 Q1679.48 1575.49 1681.55 1568.3 Q1683.65 1561.07 1683.65 1553.72 Q1683.65 1546.37 1681.55 1539.21 Q1679.48 1532.04 1675.25 1524.72 Z" fill="#000000" fill-rule="evenodd" fill-opacity="1" /><polyline clip-path="url(#clip992)" style="stroke:#000000; stroke-linecap:butt; stroke-linejoin:round; stroke-width:2; stroke-opacity:0.1; fill:none" points="
  251.842,1097.74 2352.76,1097.74 
  "/>
<polyline clip-path="url(#clip992)" style="stroke:#000000; stroke-linecap:butt; stroke-linejoin:round; stroke-width:2; stroke-opacity:0.1; fill:none" points="
  251.842,457.79 2352.76,457.79 
  "/>
<polyline clip-path="url(#clip990)" style="stroke:#000000; stroke-linecap:butt; stroke-linejoin:round; stroke-width:4; stroke-opacity:1; fill:none" points="
  251.842,1410.9 251.842,47.2441 
  "/>
<polyline clip-path="url(#clip990)" style="stroke:#000000; stroke-linecap:butt; stroke-linejoin:round; stroke-width:4; stroke-opacity:1; fill:none" points="
  2352.76,1410.9 2352.76,47.2441 
  "/>
<polyline clip-path="url(#clip990)" style="stroke:#000000; stroke-linecap:butt; stroke-linejoin:round; stroke-width:4; stroke-opacity:1; fill:none" points="
  251.842,1097.74 270.74,1097.74 
  "/>
<polyline clip-path="url(#clip990)" style="stroke:#000000; stroke-linecap:butt; stroke-linejoin:round; stroke-width:4; stroke-opacity:1; fill:none" points="
  251.842,457.79 270.74,457.79 
  "/>
<path clip-path="url(#clip990)" d="M114.931 1117.54 L122.57 1117.54 L122.57 1091.17 L114.26 1092.84 L114.26 1088.58 L122.524 1086.91 L127.2 1086.91 L127.2 1117.54 L134.839 1117.54 L134.839 1121.47 L114.931 1121.47 L114.931 1117.54 Z" fill="#000000" fill-rule="evenodd" fill-opacity="1" /><path clip-path="url(#clip990)" d="M154.283 1089.99 Q150.672 1089.99 148.843 1093.56 Q147.038 1097.1 147.038 1104.23 Q147.038 1111.33 148.843 1114.9 Q150.672 1118.44 154.283 1118.44 Q157.917 1118.44 159.723 1114.9 Q161.552 1111.33 161.552 1104.23 Q161.552 1097.1 159.723 1093.56 Q157.917 1089.99 154.283 1089.99 M154.283 1086.29 Q160.093 1086.29 163.149 1090.89 Q166.227 1095.48 166.227 1104.23 Q166.227 1112.95 163.149 1117.56 Q160.093 1122.14 154.283 1122.14 Q148.473 1122.14 145.394 1117.56 Q142.339 1112.95 142.339 1104.23 Q142.339 1095.48 145.394 1090.89 Q148.473 1086.29 154.283 1086.29 Z" fill="#000000" fill-rule="evenodd" fill-opacity="1" /><path clip-path="url(#clip990)" d="M166.227 1080.39 L190.339 1080.39 L190.339 1083.59 L166.227 1083.59 L166.227 1080.39 Z" fill="#000000" fill-rule="evenodd" fill-opacity="1" /><path clip-path="url(#clip990)" d="M210.05 1078.92 Q212.777 1079.5 214.3 1081.35 Q215.842 1083.19 215.842 1085.9 Q215.842 1090.06 212.984 1092.33 Q210.125 1094.61 204.859 1094.61 Q203.091 1094.61 201.21 1094.25 Q199.348 1093.91 197.354 1093.22 L197.354 1089.55 Q198.934 1090.47 200.815 1090.94 Q202.696 1091.41 204.746 1091.41 Q208.319 1091.41 210.181 1090 Q212.062 1088.59 212.062 1085.9 Q212.062 1083.42 210.313 1082.02 Q208.583 1080.61 205.479 1080.61 L202.207 1080.61 L202.207 1077.49 L205.63 1077.49 Q208.432 1077.49 209.918 1076.38 Q211.404 1075.25 211.404 1073.15 Q211.404 1070.98 209.861 1069.84 Q208.338 1068.67 205.479 1068.67 Q203.918 1068.67 202.132 1069.01 Q200.345 1069.35 198.201 1070.06 L198.201 1066.68 Q200.364 1066.08 202.244 1065.78 Q204.144 1065.47 205.818 1065.47 Q210.144 1065.47 212.664 1067.45 Q215.184 1069.4 215.184 1072.75 Q215.184 1075.08 213.849 1076.7 Q212.513 1078.3 210.05 1078.92 Z" fill="#000000" fill-rule="evenodd" fill-opacity="1" /><path clip-path="url(#clip990)" d="M145.137 477.582 L152.776 477.582 L152.776 451.217 L144.465 452.883 L144.465 448.624 L152.729 446.957 L157.405 446.957 L157.405 477.582 L165.044 477.582 L165.044 481.517 L145.137 481.517 L145.137 477.582 Z" fill="#000000" fill-rule="evenodd" fill-opacity="1" /><path clip-path="url(#clip990)" d="M184.488 450.036 Q180.877 450.036 179.049 453.601 Q177.243 457.143 177.243 464.272 Q177.243 471.379 179.049 474.943 Q180.877 478.485 184.488 478.485 Q188.123 478.485 189.928 474.943 Q191.757 471.379 191.757 464.272 Q191.757 457.143 189.928 453.601 Q188.123 450.036 184.488 450.036 M184.488 446.332 Q190.299 446.332 193.354 450.939 Q196.433 455.522 196.433 464.272 Q196.433 472.999 193.354 477.605 Q190.299 482.189 184.488 482.189 Q178.678 482.189 175.6 477.605 Q172.544 472.999 172.544 464.272 Q172.544 455.522 175.6 450.939 Q178.678 446.332 184.488 446.332 Z" fill="#000000" fill-rule="evenodd" fill-opacity="1" /><path clip-path="url(#clip990)" d="M206.138 428.528 Q203.204 428.528 201.718 431.425 Q200.251 434.302 200.251 440.095 Q200.251 445.869 201.718 448.766 Q203.204 451.643 206.138 451.643 Q209.09 451.643 210.557 448.766 Q212.043 445.869 212.043 440.095 Q212.043 434.302 210.557 431.425 Q209.09 428.528 206.138 428.528 M206.138 425.519 Q210.858 425.519 213.341 429.262 Q215.842 432.986 215.842 440.095 Q215.842 447.186 213.341 450.928 Q210.858 454.652 206.138 454.652 Q201.417 454.652 198.915 450.928 Q196.433 447.186 196.433 440.095 Q196.433 432.986 198.915 429.262 Q201.417 425.519 206.138 425.519 Z" fill="#000000" fill-rule="evenodd" fill-opacity="1" /><path clip-path="url(#clip990)" d="M16.4842 1034.96 L16.4842 1004.91 L21.895 1004.91 L21.895 1028.53 L35.9632 1028.53 L35.9632 1005.9 L41.3741 1005.9 L41.3741 1028.53 L58.5933 1028.53 L58.5933 1004.34 L64.0042 1004.34 L64.0042 1034.96 L16.4842 1034.96 Z" fill="#000000" fill-rule="evenodd" fill-opacity="1" /><path clip-path="url(#clip990)" d="M33.8307 973.37 Q33.2578 974.357 33.0032 975.535 Q32.7167 976.68 32.7167 978.081 Q32.7167 983.046 35.9632 985.72 Q39.1779 988.362 45.2253 988.362 L64.0042 988.362 L64.0042 994.25 L28.3562 994.25 L28.3562 988.362 L33.8944 988.362 Q30.6479 986.515 29.0883 983.555 Q27.4968 980.595 27.4968 976.362 Q27.4968 975.757 27.5923 975.025 Q27.656 974.293 27.8151 973.402 L33.8307 973.37 Z" fill="#000000" fill-rule="evenodd" fill-opacity="1" /><path clip-path="url(#clip990)" d="M33.8307 947.716 Q33.2578 948.703 33.0032 949.881 Q32.7167 951.027 32.7167 952.427 Q32.7167 957.392 35.9632 960.066 Q39.1779 962.708 45.2253 962.708 L64.0042 962.708 L64.0042 968.596 L28.3562 968.596 L28.3562 962.708 L33.8944 962.708 Q30.6479 960.862 29.0883 957.902 Q27.4968 954.942 27.4968 950.708 Q27.4968 950.104 27.5923 949.372 Q27.656 948.64 27.8151 947.748 L33.8307 947.716 Z" fill="#000000" fill-rule="evenodd" fill-opacity="1" /><path clip-path="url(#clip990)" d="M32.4621 929.192 Q32.4621 933.903 36.1542 936.64 Q39.8145 939.377 46.212 939.377 Q52.6095 939.377 56.3017 936.672 Q59.9619 933.935 59.9619 929.192 Q59.9619 924.513 56.2698 921.776 Q52.5777 919.039 46.212 919.039 Q39.8781 919.039 36.186 921.776 Q32.4621 924.513 32.4621 929.192 M27.4968 929.192 Q27.4968 921.553 32.4621 917.193 Q37.4273 912.832 46.212 912.832 Q54.9649 912.832 59.9619 917.193 Q64.9272 921.553 64.9272 929.192 Q64.9272 936.863 59.9619 941.223 Q54.9649 945.552 46.212 945.552 Q37.4273 945.552 32.4621 941.223 Q27.4968 936.863 27.4968 929.192 Z" fill="#000000" fill-rule="evenodd" fill-opacity="1" /><path clip-path="url(#clip990)" d="M33.8307 882.468 Q33.2578 883.455 33.0032 884.632 Q32.7167 885.778 32.7167 887.179 Q32.7167 892.144 35.9632 894.817 Q39.1779 897.459 45.2253 897.459 L64.0042 897.459 L64.0042 903.348 L28.3562 903.348 L28.3562 897.459 L33.8944 897.459 Q30.6479 895.613 29.0883 892.653 Q27.4968 889.693 27.4968 885.46 Q27.4968 884.855 27.5923 884.123 Q27.656 883.391 27.8151 882.5 L33.8307 882.468 Z" fill="#000000" fill-rule="evenodd" fill-opacity="1" /><path clip-path="url(#clip990)" d="M55.9197 875.975 L55.9197 869.259 L64.0042 869.259 L64.0042 875.975 L55.9197 875.975 M30.2977 875.975 L30.2977 869.259 L38.3822 869.259 L38.3822 875.975 L30.2977 875.975 Z" fill="#000000" fill-rule="evenodd" fill-opacity="1" /><path clip-path="url(#clip990)" d="M58.5933 828.423 L58.5933 805.984 L64.0042 805.984 L64.0042 836.157 L58.5933 836.157 Q54.8057 832.497 48.44 826.195 Q42.0425 819.861 40.1964 818.238 Q36.7271 815.151 34.34 813.941 Q31.921 812.7 29.5975 812.7 Q25.8099 812.7 23.4228 815.373 Q21.0356 818.015 21.0356 822.28 Q21.0356 825.304 22.086 828.678 Q23.1363 832.02 25.2688 835.839 L18.7758 835.839 Q17.2162 831.956 16.4205 828.582 Q15.6248 825.208 15.6248 822.408 Q15.6248 815.023 19.3169 810.631 Q23.009 806.239 29.1837 806.239 Q32.112 806.239 34.7537 807.353 Q37.3637 808.435 40.9285 811.331 Q41.8515 812.127 46.2757 816.392 Q50.668 820.657 58.5933 828.423 Z" fill="#000000" fill-rule="evenodd" fill-opacity="1" /><path clip-path="url(#clip990)" d="M43.5384 796.276 L43.5384 779.121 L48.7583 779.121 L48.7583 796.276 L43.5384 796.276 Z" fill="#000000" fill-rule="evenodd" fill-opacity="1" /><path clip-path="url(#clip990)" d="M42.4881 740.163 L64.0042 740.163 L64.0042 746.019 L42.679 746.019 Q37.6183 746.019 35.1038 747.992 Q32.5894 749.966 32.5894 753.913 Q32.5894 758.655 35.6131 761.392 Q38.6368 764.129 43.8567 764.129 L64.0042 764.129 L64.0042 770.018 L28.3562 770.018 L28.3562 764.129 L33.8944 764.129 Q30.6797 762.029 29.0883 759.196 Q27.4968 756.332 27.4968 752.608 Q27.4968 746.465 31.3163 743.314 Q35.1038 740.163 42.4881 740.163 Z" fill="#000000" fill-rule="evenodd" fill-opacity="1" /><path clip-path="url(#clip990)" d="M32.4621 714.668 Q32.4621 719.379 36.1542 722.116 Q39.8145 724.853 46.212 724.853 Q52.6095 724.853 56.3017 722.148 Q59.9619 719.41 59.9619 714.668 Q59.9619 709.989 56.2698 707.252 Q52.5777 704.515 46.212 704.515 Q39.8781 704.515 36.186 707.252 Q32.4621 709.989 32.4621 714.668 M27.4968 714.668 Q27.4968 707.029 32.4621 702.669 Q37.4273 698.308 46.212 698.308 Q54.9649 698.308 59.9619 702.669 Q64.9272 707.029 64.9272 714.668 Q64.9272 722.339 59.9619 726.699 Q54.9649 731.028 46.212 731.028 Q37.4273 731.028 32.4621 726.699 Q27.4968 722.339 27.4968 714.668 Z" fill="#000000" fill-rule="evenodd" fill-opacity="1" /><path clip-path="url(#clip990)" d="M33.8307 667.944 Q33.2578 668.93 33.0032 670.108 Q32.7167 671.254 32.7167 672.654 Q32.7167 677.62 35.9632 680.293 Q39.1779 682.935 45.2253 682.935 L64.0042 682.935 L64.0042 688.823 L28.3562 688.823 L28.3562 682.935 L33.8944 682.935 Q30.6479 681.089 29.0883 678.129 Q27.4968 675.169 27.4968 670.936 Q27.4968 670.331 27.5923 669.599 Q27.656 668.867 27.8151 667.975 L33.8307 667.944 Z" fill="#000000" fill-rule="evenodd" fill-opacity="1" /><path clip-path="url(#clip990)" d="M35.1993 635.192 Q31.2526 632.996 29.3747 629.94 Q27.4968 626.885 27.4968 622.747 Q27.4968 617.177 31.4117 614.153 Q35.2948 611.13 42.4881 611.13 L64.0042 611.13 L64.0042 617.018 L42.679 617.018 Q37.5546 617.018 35.072 618.832 Q32.5894 620.646 32.5894 624.37 Q32.5894 628.922 35.6131 631.564 Q38.6368 634.205 43.8567 634.205 L64.0042 634.205 L64.0042 640.094 L42.679 640.094 Q37.5228 640.094 35.072 641.908 Q32.5894 643.722 32.5894 647.51 Q32.5894 651.998 35.6449 654.639 Q38.6686 657.281 43.8567 657.281 L64.0042 657.281 L64.0042 663.169 L28.3562 663.169 L28.3562 657.281 L33.8944 657.281 Q30.616 655.276 29.0564 652.475 Q27.4968 649.674 27.4968 645.823 Q27.4968 641.94 29.4702 639.234 Q31.4436 636.497 35.1993 635.192 Z" fill="#000000" fill-rule="evenodd" fill-opacity="1" /><path clip-path="url(#clip990)" d="M14.5426 564.66 Q21.8632 568.925 29.0246 570.994 Q36.186 573.063 43.5384 573.063 Q50.8908 573.063 58.1159 570.994 Q65.3091 568.893 72.5979 564.66 L72.5979 569.753 Q65.1182 574.527 57.8931 576.914 Q50.668 579.269 43.5384 579.269 Q36.4406 579.269 29.2474 576.914 Q22.0542 574.559 14.5426 569.753 L14.5426 564.66 Z" fill="#000000" fill-rule="evenodd" fill-opacity="1" /><path clip-path="url(#clip990)" d="M16.4842 553.043 L16.4842 546.613 L58.5933 546.613 L58.5933 523.474 L64.0042 523.474 L64.0042 553.043 L16.4842 553.043 Z" fill="#000000" fill-rule="evenodd" fill-opacity="1" /><path clip-path="url(#clip990)" d="M32.4621 504.313 Q32.4621 509.024 36.1542 511.761 Q39.8145 514.498 46.212 514.498 Q52.6095 514.498 56.3017 511.793 Q59.9619 509.056 59.9619 504.313 Q59.9619 499.634 56.2698 496.897 Q52.5777 494.16 46.212 494.16 Q39.8781 494.16 36.186 496.897 Q32.4621 499.634 32.4621 504.313 M27.4968 504.313 Q27.4968 496.674 32.4621 492.314 Q37.4273 487.953 46.212 487.953 Q54.9649 487.953 59.9619 492.314 Q64.9272 496.674 64.9272 504.313 Q64.9272 511.984 59.9619 516.344 Q54.9649 520.673 46.212 520.673 Q37.4273 520.673 32.4621 516.344 Q27.4968 511.984 27.4968 504.313 Z" fill="#000000" fill-rule="evenodd" fill-opacity="1" /><path clip-path="url(#clip990)" d="M45.7664 454.788 Q39.4007 454.788 35.8996 457.43 Q32.3984 460.04 32.3984 464.782 Q32.3984 469.493 35.8996 472.135 Q39.4007 474.744 45.7664 474.744 Q52.1003 474.744 55.6014 472.135 Q59.1026 469.493 59.1026 464.782 Q59.1026 460.04 55.6014 457.43 Q52.1003 454.788 45.7664 454.788 M59.58 448.932 Q68.683 448.932 73.1071 452.974 Q77.5631 457.016 77.5631 465.355 Q77.5631 468.442 77.0857 471.18 Q76.6401 473.917 75.6852 476.495 L69.9879 476.495 Q71.3884 473.917 72.0568 471.402 Q72.7252 468.888 72.7252 466.278 Q72.7252 460.517 69.7015 457.653 Q66.7096 454.788 60.6303 454.788 L57.7339 454.788 Q60.885 456.602 62.4446 459.435 Q64.0042 462.268 64.0042 466.214 Q64.0042 472.771 59.0071 476.782 Q54.01 480.792 45.7664 480.792 Q37.491 480.792 32.4939 476.782 Q27.4968 472.771 27.4968 466.214 Q27.4968 462.268 29.0564 459.435 Q30.616 456.602 33.7671 454.788 L28.3562 454.788 L28.3562 448.932 L59.58 448.932 Z" fill="#000000" fill-rule="evenodd" fill-opacity="1" /><path clip-path="url(#clip990)" d="M14.5426 437.792 L14.5426 432.699 Q22.0542 427.925 29.2474 425.569 Q36.4406 423.182 43.5384 423.182 Q50.668 423.182 57.8931 425.569 Q65.1182 427.925 72.5979 432.699 L72.5979 437.792 Q65.3091 433.558 58.1159 431.489 Q50.8908 429.389 43.5384 429.389 Q36.186 429.389 29.0246 431.489 Q21.8632 433.558 14.5426 437.792 Z" fill="#000000" fill-rule="evenodd" fill-opacity="1" /><polyline clip-path="url(#clip992)" style="stroke:#0000ff; stroke-linecap:butt; stroke-linejoin:round; stroke-width:8; stroke-opacity:1; fill:none" points="
  644.522,992.135 873.135,1061.02 1123.76,1130.37 1334.39,1200.12 1535.92,1270.44 1752.83,1342.01 
  "/>
<circle clip-path="url(#clip992)" cx="644.522" cy="992.135" r="18" fill="#ffffff" fill-rule="evenodd" fill-opacity="1" stroke="#000000" stroke-opacity="1" stroke-width="3.2"/>
<circle clip-path="url(#clip992)" cx="873.135" cy="1061.02" r="18" fill="#ffffff" fill-rule="evenodd" fill-opacity="1" stroke="#000000" stroke-opacity="1" stroke-width="3.2"/>
<circle clip-path="url(#clip992)" cx="1123.76" cy="1130.37" r="18" fill="#ffffff" fill-rule="evenodd" fill-opacity="1" stroke="#000000" stroke-opacity="1" stroke-width="3.2"/>
<circle clip-path="url(#clip992)" cx="1334.39" cy="1200.12" r="18" fill="#ffffff" fill-rule="evenodd" fill-opacity="1" stroke="#000000" stroke-opacity="1" stroke-width="3.2"/>
<circle clip-path="url(#clip992)" cx="1535.92" cy="1270.44" r="18" fill="#ffffff" fill-rule="evenodd" fill-opacity="1" stroke="#000000" stroke-opacity="1" stroke-width="3.2"/>
<circle clip-path="url(#clip992)" cx="1752.83" cy="1342.01" r="18" fill="#ffffff" fill-rule="evenodd" fill-opacity="1" stroke="#000000" stroke-opacity="1" stroke-width="3.2"/>
<polyline clip-path="url(#clip992)" style="stroke:#0000ff; stroke-linecap:butt; stroke-linejoin:round; stroke-width:8; stroke-opacity:1; fill:none" points="
  670.087,1019.14 886.309,1087.48 1098.79,1156.39 1326.59,1225.85 1517.09,1296.42 1762.54,1368.35 
  "/>
<path clip-path="url(#clip992)" d="M650.087 999.138 L650.087 1039.14 L690.087 1039.14 L690.087 999.138 L650.087 999.138 Z" fill="#ffffff" fill-rule="evenodd" fill-opacity="1" stroke="#000000" stroke-opacity="1" stroke-width="3.2"/>
<path clip-path="url(#clip992)" d="M866.309 1067.48 L866.309 1107.48 L906.309 1107.48 L906.309 1067.48 L866.309 1067.48 Z" fill="#ffffff" fill-rule="evenodd" fill-opacity="1" stroke="#000000" stroke-opacity="1" stroke-width="3.2"/>
<path clip-path="url(#clip992)" d="M1078.79 1136.39 L1078.79 1176.39 L1118.79 1176.39 L1118.79 1136.39 L1078.79 1136.39 Z" fill="#ffffff" fill-rule="evenodd" fill-opacity="1" stroke="#000000" stroke-opacity="1" stroke-width="3.2"/>
<path clip-path="url(#clip992)" d="M1306.59 1205.85 L1306.59 1245.85 L1346.59 1245.85 L1346.59 1205.85 L1306.59 1205.85 Z" fill="#ffffff" fill-rule="evenodd" fill-opacity="1" stroke="#000000" stroke-opacity="1" stroke-width="3.2"/>
<path clip-path="url(#clip992)" d="M1497.09 1276.42 L1497.09 1316.42 L1537.09 1316.42 L1537.09 1276.42 L1497.09 1276.42 Z" fill="#ffffff" fill-rule="evenodd" fill-opacity="1" stroke="#000000" stroke-opacity="1" stroke-width="3.2"/>
<path clip-path="url(#clip992)" d="M1742.54 1348.35 L1742.54 1388.35 L1782.54 1388.35 L1782.54 1348.35 L1742.54 1348.35 Z" fill="#ffffff" fill-rule="evenodd" fill-opacity="1" stroke="#000000" stroke-opacity="1" stroke-width="3.2"/>
<polyline clip-path="url(#clip992)" style="stroke:#ff0000; stroke-linecap:butt; stroke-linejoin:round; stroke-width:8; stroke-opacity:1; fill:none" points="
  954.882,812.308 1187.64,845.959 1390.62,879.133 1625.8,911.961 1850.99,944.562 
  "/>
<path clip-path="url(#clip992)" d="M970.882 812.308 L946.882 798.308 L946.882 826.308 L970.882 812.308 Z" fill="#ffffff" fill-rule="evenodd" fill-opacity="1" stroke="#000000" stroke-opacity="1" stroke-width="3.2"/>
<path clip-path="url(#clip992)" d="M1203.64 845.959 L1179.64 831.959 L1179.64 859.959 L1203.64 845.959 Z" fill="#ffffff" fill-rule="evenodd" fill-opacity="1" stroke="#000000" stroke-opacity="1" stroke-width="3.2"/>
<path clip-path="url(#clip992)" d="M1406.62 879.133 L1382.62 865.133 L1382.62 893.133 L1406.62 879.133 Z" fill="#ffffff" fill-rule="evenodd" fill-opacity="1" stroke="#000000" stroke-opacity="1" stroke-width="3.2"/>
<path clip-path="url(#clip992)" d="M1641.8 911.961 L1617.8 897.961 L1617.8 925.961 L1641.8 911.961 Z" fill="#ffffff" fill-rule="evenodd" fill-opacity="1" stroke="#000000" stroke-opacity="1" stroke-width="3.2"/>
<path clip-path="url(#clip992)" d="M1866.99 944.562 L1842.99 930.562 L1842.99 958.562 L1866.99 944.562 Z" fill="#ffffff" fill-rule="evenodd" fill-opacity="1" stroke="#000000" stroke-opacity="1" stroke-width="3.2"/>
<polyline clip-path="url(#clip992)" style="stroke:#ff0000; stroke-linecap:butt; stroke-linejoin:round; stroke-width:8; stroke-opacity:1; fill:none" points="
  881.332,997.275 1090.92,1066.42 1312.75,1136 1525.67,1205.96 1763.53,1276.48 1968.22,1348.31 
  "/>
<circle clip-path="url(#clip992)" cx="881.332" cy="997.275" r="18" fill="#ffffff" fill-rule="evenodd" fill-opacity="1" stroke="#000000" stroke-opacity="1" stroke-width="3.2"/>
<circle clip-path="url(#clip992)" cx="1090.92" cy="1066.42" r="18" fill="#ffffff" fill-rule="evenodd" fill-opacity="1" stroke="#000000" stroke-opacity="1" stroke-width="3.2"/>
<circle clip-path="url(#clip992)" cx="1312.75" cy="1136" r="18" fill="#ffffff" fill-rule="evenodd" fill-opacity="1" stroke="#000000" stroke-opacity="1" stroke-width="3.2"/>
<circle clip-path="url(#clip992)" cx="1525.67" cy="1205.96" r="18" fill="#ffffff" fill-rule="evenodd" fill-opacity="1" stroke="#000000" stroke-opacity="1" stroke-width="3.2"/>
<circle clip-path="url(#clip992)" cx="1763.53" cy="1276.48" r="18" fill="#ffffff" fill-rule="evenodd" fill-opacity="1" stroke="#000000" stroke-opacity="1" stroke-width="3.2"/>
<circle clip-path="url(#clip992)" cx="1968.22" cy="1348.31" r="18" fill="#ffffff" fill-rule="evenodd" fill-opacity="1" stroke="#000000" stroke-opacity="1" stroke-width="3.2"/>
<polyline clip-path="url(#clip992)" style="stroke:#ff0000; stroke-linecap:butt; stroke-linejoin:round; stroke-width:8; stroke-opacity:1; fill:none" points="
  920.436,792.135 1124.43,821.908 1334.71,852.425 1517.13,883.459 1761.44,914.836 1964.86,946.446 
  "/>
<path clip-path="url(#clip992)" d="M920.436 772.135 L900.436 792.135 L920.436 812.135 L940.436 792.135 L920.436 772.135 Z" fill="#ffffff" fill-rule="evenodd" fill-opacity="1" stroke="#000000" stroke-opacity="1" stroke-width="3.2"/>
<path clip-path="url(#clip992)" d="M1124.43 801.908 L1104.43 821.908 L1124.43 841.908 L1144.43 821.908 L1124.43 801.908 Z" fill="#ffffff" fill-rule="evenodd" fill-opacity="1" stroke="#000000" stroke-opacity="1" stroke-width="3.2"/>
<path clip-path="url(#clip992)" d="M1334.71 832.425 L1314.71 852.425 L1334.71 872.425 L1354.71 852.425 L1334.71 832.425 Z" fill="#ffffff" fill-rule="evenodd" fill-opacity="1" stroke="#000000" stroke-opacity="1" stroke-width="3.2"/>
<path clip-path="url(#clip992)" d="M1517.13 863.459 L1497.13 883.459 L1517.13 903.459 L1537.13 883.459 L1517.13 863.459 Z" fill="#ffffff" fill-rule="evenodd" fill-opacity="1" stroke="#000000" stroke-opacity="1" stroke-width="3.2"/>
<path clip-path="url(#clip992)" d="M1761.44 894.836 L1741.44 914.836 L1761.44 934.836 L1781.44 914.836 L1761.44 894.836 Z" fill="#ffffff" fill-rule="evenodd" fill-opacity="1" stroke="#000000" stroke-opacity="1" stroke-width="3.2"/>
<path clip-path="url(#clip992)" d="M1964.86 926.446 L1944.86 946.446 L1964.86 966.446 L1984.86 946.446 L1964.86 926.446 Z" fill="#ffffff" fill-rule="evenodd" fill-opacity="1" stroke="#000000" stroke-opacity="1" stroke-width="3.2"/>
<polyline clip-path="url(#clip992)" style="stroke:#ff0000; stroke-linecap:butt; stroke-linejoin:round; stroke-width:8; stroke-opacity:1; fill:none" points="
  894.035,1022.7 1107.81,1091.12 1318.32,1160.1 1516.82,1229.64 1745.2,1300.3 1962.91,1372.3 
  "/>
<path clip-path="url(#clip992)" d="M874.035 1002.7 L874.035 1042.7 L914.035 1042.7 L914.035 1002.7 L874.035 1002.7 Z" fill="#ffffff" fill-rule="evenodd" fill-opacity="1" stroke="#000000" stroke-opacity="1" stroke-width="3.2"/>
<path clip-path="url(#clip992)" d="M1087.81 1071.12 L1087.81 1111.12 L1127.81 1111.12 L1127.81 1071.12 L1087.81 1071.12 Z" fill="#ffffff" fill-rule="evenodd" fill-opacity="1" stroke="#000000" stroke-opacity="1" stroke-width="3.2"/>
<path clip-path="url(#clip992)" d="M1298.32 1140.1 L1298.32 1180.1 L1338.32 1180.1 L1338.32 1140.1 L1298.32 1140.1 Z" fill="#ffffff" fill-rule="evenodd" fill-opacity="1" stroke="#000000" stroke-opacity="1" stroke-width="3.2"/>
<path clip-path="url(#clip992)" d="M1496.82 1209.64 L1496.82 1249.64 L1536.82 1249.64 L1536.82 1209.64 L1496.82 1209.64 Z" fill="#ffffff" fill-rule="evenodd" fill-opacity="1" stroke="#000000" stroke-opacity="1" stroke-width="3.2"/>
<path clip-path="url(#clip992)" d="M1725.2 1280.3 L1725.2 1320.3 L1765.2 1320.3 L1765.2 1280.3 L1725.2 1280.3 Z" fill="#ffffff" fill-rule="evenodd" fill-opacity="1" stroke="#000000" stroke-opacity="1" stroke-width="3.2"/>
<path clip-path="url(#clip992)" d="M1942.91 1352.3 L1942.91 1392.3 L1982.91 1392.3 L1982.91 1352.3 L1942.91 1352.3 Z" fill="#ffffff" fill-rule="evenodd" fill-opacity="1" stroke="#000000" stroke-opacity="1" stroke-width="3.2"/>
<polyline clip-path="url(#clip992)" style="stroke:#808080; stroke-linecap:butt; stroke-linejoin:round; stroke-width:8; stroke-opacity:1; fill:none" points="
  311.302,734.266 645.585,765.86 975.921,797.686 1348.78,829.636 1729.91,861.654 2293.3,893.713 
  "/>
<path clip-path="url(#clip992)" d="M311.302 718.266 L307.542 729.082 L296.086 729.322 L305.222 736.25 L301.894 747.21 L311.302 740.666 L320.71 747.21 L317.382 736.25 L326.518 729.322 L315.062 729.082 L311.302 718.266 Z" fill="#ffffff" fill-rule="evenodd" fill-opacity="1" stroke="#000000" stroke-opacity="1" stroke-width="3.2"/>
<path clip-path="url(#clip992)" d="M645.585 749.86 L641.825 760.676 L630.369 760.916 L639.505 767.844 L636.177 778.804 L645.585 772.26 L654.993 778.804 L651.665 767.844 L660.801 760.916 L649.345 760.676 L645.585 749.86 Z" fill="#ffffff" fill-rule="evenodd" fill-opacity="1" stroke="#000000" stroke-opacity="1" stroke-width="3.2"/>
<path clip-path="url(#clip992)" d="M975.921 781.686 L972.161 792.502 L960.705 792.742 L969.841 799.67 L966.513 810.63 L975.921 804.086 L985.329 810.63 L982.001 799.67 L991.137 792.742 L979.681 792.502 L975.921 781.686 Z" fill="#ffffff" fill-rule="evenodd" fill-opacity="1" stroke="#000000" stroke-opacity="1" stroke-width="3.2"/>
<path clip-path="url(#clip992)" d="M1348.78 813.636 L1345.02 824.452 L1333.56 824.692 L1342.7 831.62 L1339.37 842.58 L1348.78 836.036 L1358.19 842.58 L1354.86 831.62 L1364 824.692 L1352.54 824.452 L1348.78 813.636 Z" fill="#ffffff" fill-rule="evenodd" fill-opacity="1" stroke="#000000" stroke-opacity="1" stroke-width="3.2"/>
<path clip-path="url(#clip992)" d="M1729.91 845.654 L1726.15 856.47 L1714.7 856.71 L1723.83 863.638 L1720.51 874.598 L1729.91 868.054 L1739.32 874.598 L1735.99 863.638 L1745.13 856.71 L1733.67 856.47 L1729.91 845.654 Z" fill="#ffffff" fill-rule="evenodd" fill-opacity="1" stroke="#000000" stroke-opacity="1" stroke-width="3.2"/>
<path clip-path="url(#clip992)" d="M2293.3 877.713 L2289.54 888.529 L2278.08 888.769 L2287.22 895.697 L2283.89 906.657 L2293.3 900.113 L2302.7 906.657 L2299.38 895.697 L2308.51 888.769 L2297.06 888.529 L2293.3 877.713 Z" fill="#ffffff" fill-rule="evenodd" fill-opacity="1" stroke="#000000" stroke-opacity="1" stroke-width="3.2"/>
<polyline clip-path="url(#clip992)" style="stroke:#808080; stroke-linecap:butt; stroke-linejoin:round; stroke-width:8; stroke-opacity:1; fill:none" points="
  818.478,992.135 1053.92,1061.02 1294.48,1130.37 1494.84,1200.12 1717.86,1270.44 1985.57,1342.01 
  "/>
<circle clip-path="url(#clip992)" cx="818.478" cy="992.135" r="18" fill="#ffffff" fill-rule="evenodd" fill-opacity="1" stroke="#000000" stroke-opacity="1" stroke-width="3.2"/>
<circle clip-path="url(#clip992)" cx="1053.92" cy="1061.02" r="18" fill="#ffffff" fill-rule="evenodd" fill-opacity="1" stroke="#000000" stroke-opacity="1" stroke-width="3.2"/>
<circle clip-path="url(#clip992)" cx="1294.48" cy="1130.37" r="18" fill="#ffffff" fill-rule="evenodd" fill-opacity="1" stroke="#000000" stroke-opacity="1" stroke-width="3.2"/>
<circle clip-path="url(#clip992)" cx="1494.84" cy="1200.12" r="18" fill="#ffffff" fill-rule="evenodd" fill-opacity="1" stroke="#000000" stroke-opacity="1" stroke-width="3.2"/>
<circle clip-path="url(#clip992)" cx="1717.86" cy="1270.44" r="18" fill="#ffffff" fill-rule="evenodd" fill-opacity="1" stroke="#000000" stroke-opacity="1" stroke-width="3.2"/>
<circle clip-path="url(#clip992)" cx="1985.57" cy="1342.01" r="18" fill="#ffffff" fill-rule="evenodd" fill-opacity="1" stroke="#000000" stroke-opacity="1" stroke-width="3.2"/>
<polyline clip-path="url(#clip992)" style="stroke:#808080; stroke-linecap:butt; stroke-linejoin:round; stroke-width:8; stroke-opacity:1; fill:none" points="
  597.483,772.717 859.17,807.082 1078.35,840.783 1298.18,873.99 1513.64,906.846 1744.42,939.463 
  "/>
<path clip-path="url(#clip992)" d="M597.483 792.717 L580.163 782.717 L580.163 762.717 L597.483 752.717 L614.803 762.717 L614.803 782.717 Z" fill="#ffffff" fill-rule="evenodd" fill-opacity="1" stroke="#000000" stroke-opacity="1" stroke-width="3.2"/>
<path clip-path="url(#clip992)" d="M859.17 827.082 L841.85 817.082 L841.85 797.082 L859.17 787.082 L876.49 797.082 L876.49 817.082 Z" fill="#ffffff" fill-rule="evenodd" fill-opacity="1" stroke="#000000" stroke-opacity="1" stroke-width="3.2"/>
<path clip-path="url(#clip992)" d="M1078.35 860.783 L1061.03 850.783 L1061.03 830.783 L1078.35 820.783 L1095.67 830.783 L1095.67 850.783 Z" fill="#ffffff" fill-rule="evenodd" fill-opacity="1" stroke="#000000" stroke-opacity="1" stroke-width="3.2"/>
<path clip-path="url(#clip992)" d="M1298.18 893.99 L1280.86 883.99 L1280.86 863.99 L1298.18 853.99 L1315.5 863.99 L1315.5 883.99 Z" fill="#ffffff" fill-rule="evenodd" fill-opacity="1" stroke="#000000" stroke-opacity="1" stroke-width="3.2"/>
<path clip-path="url(#clip992)" d="M1513.64 926.846 L1496.32 916.846 L1496.32 896.846 L1513.64 886.846 L1530.96 896.846 L1530.96 916.846 Z" fill="#ffffff" fill-rule="evenodd" fill-opacity="1" stroke="#000000" stroke-opacity="1" stroke-width="3.2"/>
<path clip-path="url(#clip992)" d="M1744.42 959.463 L1727.1 949.463 L1727.1 929.463 L1744.42 919.463 L1761.74 929.463 L1761.74 949.463 Z" fill="#ffffff" fill-rule="evenodd" fill-opacity="1" stroke="#000000" stroke-opacity="1" stroke-width="3.2"/>
<polyline clip-path="url(#clip992)" style="stroke:#808080; stroke-linecap:butt; stroke-linejoin:round; stroke-width:8; stroke-opacity:1; fill:none" points="
  645.141,246.287 893.355,214.224 1422.47,182.14 1342.3,150.044 1577.33,117.943 1857.98,85.838 
  "/>
<path clip-path="url(#clip992)" d="M645.141 226.287 L625.141 266.287 L665.141 266.287 L645.141 226.287 Z" fill="#ffffff" fill-rule="evenodd" fill-opacity="1" stroke="#000000" stroke-opacity="1" stroke-width="3.2"/>
<path clip-path="url(#clip992)" d="M893.355 194.224 L873.355 234.224 L913.355 234.224 L893.355 194.224 Z" fill="#ffffff" fill-rule="evenodd" fill-opacity="1" stroke="#000000" stroke-opacity="1" stroke-width="3.2"/>
<path clip-path="url(#clip992)" d="M1422.47 162.14 L1402.47 202.14 L1442.47 202.14 L1422.47 162.14 Z" fill="#ffffff" fill-rule="evenodd" fill-opacity="1" stroke="#000000" stroke-opacity="1" stroke-width="3.2"/>
<path clip-path="url(#clip992)" d="M1342.3 130.044 L1322.3 170.044 L1362.3 170.044 L1342.3 130.044 Z" fill="#ffffff" fill-rule="evenodd" fill-opacity="1" stroke="#000000" stroke-opacity="1" stroke-width="3.2"/>
<path clip-path="url(#clip992)" d="M1577.33 97.9427 L1557.33 137.943 L1597.33 137.943 L1577.33 97.9427 Z" fill="#ffffff" fill-rule="evenodd" fill-opacity="1" stroke="#000000" stroke-opacity="1" stroke-width="3.2"/>
<path clip-path="url(#clip992)" d="M1857.98 65.838 L1837.98 105.838 L1877.98 105.838 L1857.98 65.838 Z" fill="#ffffff" fill-rule="evenodd" fill-opacity="1" stroke="#000000" stroke-opacity="1" stroke-width="3.2"/>
<polyline clip-path="url(#clip992)" style="stroke:#808080; stroke-linecap:butt; stroke-linejoin:round; stroke-width:8; stroke-opacity:1; fill:none" points="
  650.084,246.285 908.52,214.224 1425.97,182.14 1348.35,150.044 1573.4,117.943 1859.22,85.838 
  "/>
<path clip-path="url(#clip992)" d="M670.084 226.285 L630.084 226.285 L650.084 266.285 L670.084 226.285 Z" fill="#ffffff" fill-rule="evenodd" fill-opacity="1" stroke="#000000" stroke-opacity="1" stroke-width="3.2"/>
<path clip-path="url(#clip992)" d="M928.52 194.224 L888.52 194.224 L908.52 234.224 L928.52 194.224 Z" fill="#ffffff" fill-rule="evenodd" fill-opacity="1" stroke="#000000" stroke-opacity="1" stroke-width="3.2"/>
<path clip-path="url(#clip992)" d="M1445.97 162.14 L1405.97 162.14 L1425.97 202.14 L1445.97 162.14 Z" fill="#ffffff" fill-rule="evenodd" fill-opacity="1" stroke="#000000" stroke-opacity="1" stroke-width="3.2"/>
<path clip-path="url(#clip992)" d="M1368.35 130.044 L1328.35 130.044 L1348.35 170.044 L1368.35 130.044 Z" fill="#ffffff" fill-rule="evenodd" fill-opacity="1" stroke="#000000" stroke-opacity="1" stroke-width="3.2"/>
<path clip-path="url(#clip992)" d="M1593.4 97.9427 L1553.4 97.9427 L1573.4 137.943 L1593.4 97.9427 Z" fill="#ffffff" fill-rule="evenodd" fill-opacity="1" stroke="#000000" stroke-opacity="1" stroke-width="3.2"/>
<path clip-path="url(#clip992)" d="M1879.22 65.838 L1839.22 65.838 L1859.22 105.838 L1879.22 65.838 Z" fill="#ffffff" fill-rule="evenodd" fill-opacity="1" stroke="#000000" stroke-opacity="1" stroke-width="3.2"/>
<polyline clip-path="url(#clip992)" style="stroke:#808080; stroke-linecap:butt; stroke-linejoin:round; stroke-width:8; stroke-opacity:1; fill:none" points="
  672.706,246.285 1034.99,214.224 1448.9,182.14 1356.02,150.044 1585.08,117.943 1867.29,85.838 
  "/>
<path clip-path="url(#clip992)" d="M672.706 226.285 L653.686 240.105 L660.946 262.465 L684.466 262.465 L691.726 240.105 Z" fill="#ffffff" fill-rule="evenodd" fill-opacity="1" stroke="#000000" stroke-opacity="1" stroke-width="3.2"/>
<path clip-path="url(#clip992)" d="M1034.99 194.224 L1015.97 208.044 L1023.23 230.404 L1046.75 230.404 L1054.01 208.044 Z" fill="#ffffff" fill-rule="evenodd" fill-opacity="1" stroke="#000000" stroke-opacity="1" stroke-width="3.2"/>
<path clip-path="url(#clip992)" d="M1448.9 162.14 L1429.88 175.96 L1437.14 198.32 L1460.66 198.32 L1467.92 175.96 Z" fill="#ffffff" fill-rule="evenodd" fill-opacity="1" stroke="#000000" stroke-opacity="1" stroke-width="3.2"/>
<path clip-path="url(#clip992)" d="M1356.02 130.044 L1337 143.864 L1344.26 166.224 L1367.78 166.224 L1375.04 143.864 Z" fill="#ffffff" fill-rule="evenodd" fill-opacity="1" stroke="#000000" stroke-opacity="1" stroke-width="3.2"/>
<path clip-path="url(#clip992)" d="M1585.08 97.9427 L1566.06 111.763 L1573.32 134.123 L1596.84 134.123 L1604.1 111.763 Z" fill="#ffffff" fill-rule="evenodd" fill-opacity="1" stroke="#000000" stroke-opacity="1" stroke-width="3.2"/>
<path clip-path="url(#clip992)" d="M1867.29 65.838 L1848.27 79.658 L1855.53 102.018 L1879.05 102.018 L1886.31 79.658 Z" fill="#ffffff" fill-rule="evenodd" fill-opacity="1" stroke="#000000" stroke-opacity="1" stroke-width="3.2"/>
</svg>
