<?xml version="1.0" encoding="utf-8"?>
<svg xmlns="http://www.w3.org/2000/svg" xmlns:xlink="http://www.w3.org/1999/xlink" width="600" height="400" viewBox="0 0 2400 1600">
<defs>
  <clipPath id="clip140">
    <rect x="0" y="0" width="2400" height="1600"/>
  </clipPath>
</defs>
<path clip-path="url(#clip140)" d="
M0 1600 L2400 1600 L2400 0 L0 0  Z
  " fill="#ffffff" fill-rule="evenodd" fill-opacity="1"/>
<defs>
  <clipPath id="clip141">
    <rect x="480" y="0" width="1681" height="1600"/>
  </clipPath>
</defs>
<path clip-path="url(#clip140)" d="
M251.372 1410.9 L2352.76 1410.9 L2352.76 47.2441 L251.372 47.2441  Z
  " fill="#ffffff" fill-rule="evenodd" fill-opacity="1"/>
<defs>
  <clipPath id="clip142">
    <rect x="251" y="47" width="2102" height="1365"/>
  </clipPath>
</defs>
<polyline clip-path="url(#clip142)" style="stroke:#000000; stroke-linecap:butt; stroke-linejoin:round; stroke-width:2; stroke-opacity:0.1; fill:none" points="
  715.777,1410.9 715.777,47.2441 
  "/>
<polyline clip-path="url(#clip142)" style="stroke:#000000; stroke-linecap:butt; stroke-linejoin:round; stroke-width:2; stroke-opacity:0.1; fill:none" points="
  1834.3,1410.9 1834.3,47.2441 
  "/>
<polyline clip-path="url(#clip140)" style="stroke:#000000; stroke-linecap:butt; stroke-linejoin:round; stroke-width:4; stroke-opacity:1; fill:none" points="
  251.372,1410.9 2352.76,1410.9 
  "/>
<polyline clip-path="url(#clip140)" style="stroke:#000000; stroke-linecap:butt; stroke-linejoin:round; stroke-width:4; stroke-opacity:1; fill:none" points="
  251.372,47.2441 2352.76,47.2441 
  "/>
<polyline clip-path="url(#clip140)" style="stroke:#000000; stroke-linecap:butt; stroke-linejoin:round; stroke-width:4; stroke-opacity:1; fill:none" points="
  715.777,1410.9 715.777,1392 
  "/>
<polyline clip-path="url(#clip140)" style="stroke:#000000; stroke-linecap:butt; stroke-linejoin:round; stroke-width:4; stroke-opacity:1; fill:none" points="
  1834.3,1410.9 1834.3,1392 
  "/>
<path clip-path="url(#clip140)" d="M665.657 1485.02 L673.296 1485.02 L673.296 1458.66 L664.986 1460.32 L664.986 1456.06 L673.25 1454.4 L677.925 1454.4 L677.925 1485.02 L685.564 1485.02 L685.564 1488.96 L665.657 1488.96 L665.657 1485.02 Z" fill="#000000" fill-rule="evenodd" fill-opacity="1" /><path clip-path="url(#clip140)" d="M705.009 1457.48 Q701.398 1457.48 699.569 1461.04 Q697.763 1464.58 697.763 1471.71 Q697.763 1478.82 699.569 1482.38 Q701.398 1485.92 705.009 1485.92 Q708.643 1485.92 710.448 1482.38 Q712.277 1478.82 712.277 1471.71 Q712.277 1464.58 710.448 1461.04 Q708.643 1457.48 705.009 1457.48 M705.009 1453.77 Q710.819 1453.77 713.874 1458.38 Q716.953 1462.96 716.953 1471.71 Q716.953 1480.44 713.874 1485.04 Q710.819 1489.63 705.009 1489.63 Q699.198 1489.63 696.12 1485.04 Q693.064 1480.44 693.064 1471.71 Q693.064 1462.96 696.12 1458.38 Q699.198 1453.77 705.009 1453.77 Z" fill="#000000" fill-rule="evenodd" fill-opacity="1" /><path clip-path="url(#clip140)" d="M716.953 1447.87 L741.065 1447.87 L741.065 1451.07 L716.953 1451.07 L716.953 1447.87 Z" fill="#000000" fill-rule="evenodd" fill-opacity="1" /><path clip-path="url(#clip140)" d="M760.775 1446.41 Q763.502 1446.99 765.026 1448.83 Q766.568 1450.68 766.568 1453.38 Q766.568 1457.54 763.709 1459.82 Q760.85 1462.09 755.584 1462.09 Q753.816 1462.09 751.935 1461.73 Q750.073 1461.4 748.08 1460.7 L748.08 1457.03 Q749.66 1457.95 751.54 1458.42 Q753.421 1458.89 755.471 1458.89 Q759.045 1458.89 760.907 1457.48 Q762.788 1456.07 762.788 1453.38 Q762.788 1450.9 761.038 1449.51 Q759.308 1448.1 756.205 1448.1 L752.932 1448.1 L752.932 1444.98 L756.355 1444.98 Q759.158 1444.98 760.643 1443.87 Q762.129 1442.74 762.129 1440.63 Q762.129 1438.47 760.587 1437.32 Q759.064 1436.16 756.205 1436.16 Q754.644 1436.16 752.857 1436.49 Q751.07 1436.83 748.926 1437.55 L748.926 1434.16 Q751.089 1433.56 752.97 1433.26 Q754.869 1432.96 756.543 1432.96 Q760.869 1432.96 763.389 1434.93 Q765.91 1436.89 765.91 1440.24 Q765.91 1442.57 764.574 1444.19 Q763.239 1445.79 760.775 1446.41 Z" fill="#000000" fill-rule="evenodd" fill-opacity="1" /><path clip-path="url(#clip140)" d="M1784.56 1485.02 L1792.2 1485.02 L1792.2 1458.66 L1783.89 1460.32 L1783.89 1456.06 L1792.15 1454.4 L1796.83 1454.4 L1796.83 1485.02 L1804.47 1485.02 L1804.47 1488.96 L1784.56 1488.96 L1784.56 1485.02 Z" fill="#000000" fill-rule="evenodd" fill-opacity="1" /><path clip-path="url(#clip140)" d="M1823.91 1457.48 Q1820.3 1457.48 1818.47 1461.04 Q1816.67 1464.58 1816.67 1471.71 Q1816.67 1478.82 1818.47 1482.38 Q1820.3 1485.92 1823.91 1485.92 Q1827.55 1485.92 1829.35 1482.38 Q1831.18 1478.82 1831.18 1471.71 Q1831.18 1464.58 1829.35 1461.04 Q1827.55 1457.48 1823.91 1457.48 M1823.91 1453.77 Q1829.72 1453.77 1832.78 1458.38 Q1835.86 1462.96 1835.86 1471.71 Q1835.86 1480.44 1832.78 1485.04 Q1829.72 1489.63 1823.91 1489.63 Q1818.1 1489.63 1815.02 1485.04 Q1811.97 1480.44 1811.97 1471.71 Q1811.97 1462.96 1815.02 1458.38 Q1818.1 1453.77 1823.91 1453.77 Z" fill="#000000" fill-rule="evenodd" fill-opacity="1" /><path clip-path="url(#clip140)" d="M1835.86 1447.87 L1859.97 1447.87 L1859.97 1451.07 L1835.86 1451.07 L1835.86 1447.87 Z" fill="#000000" fill-rule="evenodd" fill-opacity="1" /><path clip-path="url(#clip140)" d="M1871.44 1458.35 L1884.7 1458.35 L1884.7 1461.55 L1866.87 1461.55 L1866.87 1458.35 Q1869.03 1456.11 1872.76 1452.35 Q1876.5 1448.57 1877.46 1447.48 Q1879.28 1445.43 1880 1444.02 Q1880.73 1442.59 1880.73 1441.22 Q1880.73 1438.98 1879.15 1437.57 Q1877.59 1436.16 1875.07 1436.16 Q1873.29 1436.16 1871.29 1436.78 Q1869.32 1437.4 1867.06 1438.66 L1867.06 1434.82 Q1869.35 1433.9 1871.35 1433.43 Q1873.34 1432.96 1875 1432.96 Q1879.36 1432.96 1881.96 1435.14 Q1884.55 1437.32 1884.55 1440.97 Q1884.55 1442.7 1883.89 1444.26 Q1883.25 1445.8 1881.54 1447.91 Q1881.07 1448.46 1878.55 1451.07 Q1876.03 1453.67 1871.44 1458.35 Z" fill="#000000" fill-rule="evenodd" fill-opacity="1" /><path clip-path="url(#clip140)" d="M914.504 1526.67 L944.55 1526.67 L944.55 1532.08 L920.933 1532.08 L920.933 1546.14 L943.563 1546.14 L943.563 1551.56 L920.933 1551.56 L920.933 1568.77 L945.123 1568.77 L945.123 1574.19 L914.504 1574.19 L914.504 1526.67 Z" fill="#000000" fill-rule="evenodd" fill-opacity="1" /><path clip-path="url(#clip140)" d="M985.068 1538.54 L972.177 1555.88 L985.736 1574.19 L978.829 1574.19 L968.453 1560.18 L958.077 1574.19 L951.17 1574.19 L965.016 1555.53 L952.348 1538.54 L959.255 1538.54 L968.708 1551.24 L978.161 1538.54 L985.068 1538.54 Z" fill="#000000" fill-rule="evenodd" fill-opacity="1" /><path clip-path="url(#clip140)" d="M1022.5 1554.9 L1022.5 1557.76 L995.571 1557.76 Q995.953 1563.81 999.2 1566.99 Q1002.48 1570.14 1008.3 1570.14 Q1011.68 1570.14 1014.83 1569.32 Q1018.01 1568.49 1021.13 1566.83 L1021.13 1572.37 Q1017.98 1573.71 1014.67 1574.41 Q1011.36 1575.11 1007.95 1575.11 Q999.422 1575.11 994.425 1570.14 Q989.46 1565.18 989.46 1556.71 Q989.46 1547.96 994.171 1542.83 Q998.913 1537.68 1006.93 1537.68 Q1014.13 1537.68 1018.3 1542.33 Q1022.5 1546.94 1022.5 1554.9 M1016.64 1553.18 Q1016.58 1548.37 1013.94 1545.51 Q1011.33 1542.64 1007 1542.64 Q1002.1 1542.64 999.136 1545.41 Q996.208 1548.18 995.762 1553.21 L1016.64 1553.18 Z" fill="#000000" fill-rule="evenodd" fill-opacity="1" /><path clip-path="url(#clip140)" d="M1057.76 1539.91 L1057.76 1545.38 Q1055.28 1544.01 1052.77 1543.34 Q1050.28 1542.64 1047.74 1542.64 Q1042.04 1542.64 1038.89 1546.27 Q1035.74 1549.87 1035.74 1556.39 Q1035.74 1562.92 1038.89 1566.55 Q1042.04 1570.14 1047.74 1570.14 Q1050.28 1570.14 1052.77 1569.47 Q1055.28 1568.77 1057.76 1567.41 L1057.76 1572.82 Q1055.31 1573.96 1052.67 1574.54 Q1050.06 1575.11 1047.1 1575.11 Q1039.05 1575.11 1034.31 1570.05 Q1029.56 1564.99 1029.56 1556.39 Q1029.56 1547.67 1034.34 1542.68 Q1039.14 1537.68 1047.48 1537.68 Q1050.19 1537.68 1052.77 1538.25 Q1055.35 1538.79 1057.76 1539.91 Z" fill="#000000" fill-rule="evenodd" fill-opacity="1" /><path clip-path="url(#clip140)" d="M1067.34 1560.12 L1067.34 1538.54 L1073.2 1538.54 L1073.2 1559.89 Q1073.2 1564.96 1075.17 1567.5 Q1077.15 1570.02 1081.09 1570.02 Q1085.84 1570.02 1088.57 1566.99 Q1091.34 1563.97 1091.34 1558.75 L1091.34 1538.54 L1097.2 1538.54 L1097.2 1574.19 L1091.34 1574.19 L1091.34 1568.71 Q1089.21 1571.96 1086.38 1573.55 Q1083.58 1575.11 1079.85 1575.11 Q1073.71 1575.11 1070.53 1571.29 Q1067.34 1567.47 1067.34 1560.12 M1082.08 1537.68 L1082.08 1537.68 Z" fill="#000000" fill-rule="evenodd" fill-opacity="1" /><path clip-path="url(#clip140)" d="M1115.06 1528.42 L1115.06 1538.54 L1127.12 1538.54 L1127.12 1543.09 L1115.06 1543.09 L1115.06 1562.44 Q1115.06 1566.8 1116.23 1568.04 Q1117.44 1569.28 1121.1 1569.28 L1127.12 1569.28 L1127.12 1574.19 L1121.1 1574.19 Q1114.32 1574.19 1111.75 1571.67 Q1109.17 1569.12 1109.17 1562.44 L1109.17 1543.09 L1104.87 1543.09 L1104.87 1538.54 L1109.17 1538.54 L1109.17 1528.42 L1115.06 1528.42 Z" fill="#000000" fill-rule="evenodd" fill-opacity="1" /><path clip-path="url(#clip140)" d="M1134.82 1538.54 L1140.68 1538.54 L1140.68 1574.19 L1134.82 1574.19 L1134.82 1538.54 M1134.82 1524.66 L1140.68 1524.66 L1140.68 1532.08 L1134.82 1532.08 L1134.82 1524.66 Z" fill="#000000" fill-rule="evenodd" fill-opacity="1" /><path clip-path="url(#clip140)" d="M1166.75 1542.64 Q1162.03 1542.64 1159.3 1546.34 Q1156.56 1550 1156.56 1556.39 Q1156.56 1562.79 1159.27 1566.48 Q1162 1570.14 1166.75 1570.14 Q1171.42 1570.14 1174.16 1566.45 Q1176.9 1562.76 1176.9 1556.39 Q1176.9 1550.06 1174.16 1546.37 Q1171.42 1542.64 1166.75 1542.64 M1166.75 1537.68 Q1174.38 1537.68 1178.74 1542.64 Q1183.1 1547.61 1183.1 1556.39 Q1183.1 1565.15 1178.74 1570.14 Q1174.38 1575.11 1166.75 1575.11 Q1159.07 1575.11 1154.71 1570.14 Q1150.39 1565.15 1150.39 1556.39 Q1150.39 1547.61 1154.71 1542.64 Q1159.07 1537.68 1166.75 1537.68 Z" fill="#000000" fill-rule="evenodd" fill-opacity="1" /><path clip-path="url(#clip140)" d="M1222.44 1552.67 L1222.44 1574.19 L1216.59 1574.19 L1216.59 1552.86 Q1216.59 1547.8 1214.62 1545.29 Q1212.64 1542.77 1208.7 1542.77 Q1203.95 1542.77 1201.22 1545.79 Q1198.48 1548.82 1198.48 1554.04 L1198.48 1574.19 L1192.59 1574.19 L1192.59 1538.54 L1198.48 1538.54 L1198.48 1544.08 Q1200.58 1540.86 1203.41 1539.27 Q1206.28 1537.68 1210 1537.68 Q1216.14 1537.68 1219.29 1541.5 Q1222.44 1545.29 1222.44 1552.67 Z" fill="#000000" fill-rule="evenodd" fill-opacity="1" /><path clip-path="url(#clip140)" d="M1260.64 1528.42 L1260.64 1538.54 L1272.7 1538.54 L1272.7 1543.09 L1260.64 1543.09 L1260.64 1562.44 Q1260.64 1566.8 1261.82 1568.04 Q1263.03 1569.28 1266.69 1569.28 L1272.7 1569.28 L1272.7 1574.19 L1266.69 1574.19 Q1259.91 1574.19 1257.33 1571.67 Q1254.75 1569.12 1254.75 1562.44 L1254.75 1543.09 L1250.45 1543.09 L1250.45 1538.54 L1254.75 1538.54 L1254.75 1528.42 L1260.64 1528.42 Z" fill="#000000" fill-rule="evenodd" fill-opacity="1" /><path clip-path="url(#clip140)" d="M1280.4 1538.54 L1286.26 1538.54 L1286.26 1574.19 L1280.4 1574.19 L1280.4 1538.54 M1280.4 1524.66 L1286.26 1524.66 L1286.26 1532.08 L1280.4 1532.08 L1280.4 1524.66 Z" fill="#000000" fill-rule="evenodd" fill-opacity="1" /><path clip-path="url(#clip140)" d="M1326.27 1545.38 Q1328.47 1541.43 1331.52 1539.56 Q1334.58 1537.68 1338.71 1537.68 Q1344.28 1537.68 1347.31 1541.59 Q1350.33 1545.48 1350.33 1552.67 L1350.33 1574.19 L1344.44 1574.19 L1344.44 1552.86 Q1344.44 1547.74 1342.63 1545.25 Q1340.82 1542.77 1337.09 1542.77 Q1332.54 1542.77 1329.9 1545.79 Q1327.26 1548.82 1327.26 1554.04 L1327.26 1574.19 L1321.37 1574.19 L1321.37 1552.86 Q1321.37 1547.7 1319.55 1545.25 Q1317.74 1542.77 1313.95 1542.77 Q1309.46 1542.77 1306.82 1545.83 Q1304.18 1548.85 1304.18 1554.04 L1304.18 1574.19 L1298.29 1574.19 L1298.29 1538.54 L1304.18 1538.54 L1304.18 1544.08 Q1306.19 1540.8 1308.99 1539.24 Q1311.79 1537.68 1315.64 1537.68 Q1319.52 1537.68 1322.23 1539.65 Q1324.96 1541.62 1326.27 1545.38 Z" fill="#000000" fill-rule="evenodd" fill-opacity="1" /><path clip-path="url(#clip140)" d="M1392.5 1554.9 L1392.5 1557.76 L1365.58 1557.76 Q1365.96 1563.81 1369.21 1566.99 Q1372.48 1570.14 1378.31 1570.14 Q1381.68 1570.14 1384.83 1569.32 Q1388.02 1568.49 1391.14 1566.83 L1391.14 1572.37 Q1387.99 1573.71 1384.67 1574.41 Q1381.36 1575.11 1377.96 1575.11 Q1369.43 1575.11 1364.43 1570.14 Q1359.47 1565.18 1359.47 1556.71 Q1359.47 1547.96 1364.18 1542.83 Q1368.92 1537.68 1376.94 1537.68 Q1384.13 1537.68 1388.3 1542.33 Q1392.5 1546.94 1392.5 1554.9 M1386.65 1553.18 Q1386.58 1548.37 1383.94 1545.51 Q1381.33 1542.64 1377 1542.64 Q1372.1 1542.64 1369.14 1545.41 Q1366.21 1548.18 1365.77 1553.21 L1386.65 1553.18 Z" fill="#000000" fill-rule="evenodd" fill-opacity="1" /><path clip-path="url(#clip140)" d="M1436.91 1524.72 Q1432.64 1532.04 1430.57 1539.21 Q1428.5 1546.37 1428.5 1553.72 Q1428.5 1561.07 1430.57 1568.3 Q1432.67 1575.49 1436.91 1582.78 L1431.81 1582.78 Q1427.04 1575.3 1424.65 1568.07 Q1422.3 1560.85 1422.3 1553.72 Q1422.3 1546.62 1424.65 1539.43 Q1427.01 1532.24 1431.81 1524.72 L1436.91 1524.72 Z" fill="#000000" fill-rule="evenodd" fill-opacity="1" /><path clip-path="url(#clip140)" d="M1470.99 1539.59 L1470.99 1545.13 Q1468.51 1543.85 1465.84 1543.22 Q1463.16 1542.58 1460.3 1542.58 Q1455.94 1542.58 1453.74 1543.92 Q1451.58 1545.25 1451.58 1547.93 Q1451.58 1549.96 1453.14 1551.14 Q1454.7 1552.29 1459.41 1553.34 L1461.41 1553.78 Q1467.65 1555.12 1470.26 1557.57 Q1472.9 1559.99 1472.9 1564.35 Q1472.9 1569.32 1468.96 1572.21 Q1465.04 1575.11 1458.17 1575.11 Q1455.3 1575.11 1452.18 1574.54 Q1449.1 1573.99 1445.66 1572.88 L1445.66 1566.83 Q1448.9 1568.52 1452.06 1569.38 Q1455.21 1570.21 1458.29 1570.21 Q1462.43 1570.21 1464.66 1568.81 Q1466.89 1567.37 1466.89 1564.8 Q1466.89 1562.41 1465.26 1561.14 Q1463.67 1559.86 1458.23 1558.68 L1456.19 1558.21 Q1450.75 1557.06 1448.33 1554.71 Q1445.91 1552.32 1445.91 1548.18 Q1445.91 1543.15 1449.48 1540.42 Q1453.04 1537.68 1459.6 1537.68 Q1462.85 1537.68 1465.71 1538.16 Q1468.58 1538.63 1470.99 1539.59 Z" fill="#000000" fill-rule="evenodd" fill-opacity="1" /><path clip-path="url(#clip140)" d="M1507.88 1539.91 L1507.88 1545.38 Q1505.4 1544.01 1502.89 1543.34 Q1500.4 1542.64 1497.86 1542.64 Q1492.16 1542.64 1489.01 1546.27 Q1485.86 1549.87 1485.86 1556.39 Q1485.86 1562.92 1489.01 1566.55 Q1492.16 1570.14 1497.86 1570.14 Q1500.4 1570.14 1502.89 1569.47 Q1505.4 1568.77 1507.88 1567.41 L1507.88 1572.82 Q1505.43 1573.96 1502.79 1574.54 Q1500.18 1575.11 1497.22 1575.11 Q1489.17 1575.11 1484.43 1570.05 Q1479.68 1564.99 1479.68 1556.39 Q1479.68 1547.67 1484.46 1542.68 Q1489.26 1537.68 1497.6 1537.68 Q1500.31 1537.68 1502.89 1538.25 Q1505.46 1538.79 1507.88 1539.91 Z" fill="#000000" fill-rule="evenodd" fill-opacity="1" /><path clip-path="url(#clip140)" d="M1519.56 1566.1 L1526.28 1566.1 L1526.28 1571.58 L1521.06 1581.76 L1516.95 1581.76 L1519.56 1571.58 L1519.56 1566.1 Z" fill="#000000" fill-rule="evenodd" fill-opacity="1" /><path clip-path="url(#clip140)" d="M1559.76 1526.67 L1566.19 1526.67 L1566.19 1568.77 L1589.33 1568.77 L1589.33 1574.19 L1559.76 1574.19 L1559.76 1526.67 Z" fill="#000000" fill-rule="evenodd" fill-opacity="1" /><path clip-path="url(#clip140)" d="M1608.49 1542.64 Q1603.78 1542.64 1601.05 1546.34 Q1598.31 1550 1598.31 1556.39 Q1598.31 1562.79 1601.01 1566.48 Q1603.75 1570.14 1608.49 1570.14 Q1613.17 1570.14 1615.91 1566.45 Q1618.65 1562.76 1618.65 1556.39 Q1618.65 1550.06 1615.91 1546.37 Q1613.17 1542.64 1608.49 1542.64 M1608.49 1537.68 Q1616.13 1537.68 1620.49 1542.64 Q1624.85 1547.61 1624.85 1556.39 Q1624.85 1565.15 1620.49 1570.14 Q1616.13 1575.11 1608.49 1575.11 Q1600.82 1575.11 1596.46 1570.14 Q1592.13 1565.15 1592.13 1556.39 Q1592.13 1547.61 1596.46 1542.64 Q1600.82 1537.68 1608.49 1537.68 Z" fill="#000000" fill-rule="evenodd" fill-opacity="1" /><path clip-path="url(#clip140)" d="M1658.02 1555.95 Q1658.02 1549.58 1655.38 1546.08 Q1652.77 1542.58 1648.02 1542.58 Q1643.31 1542.58 1640.67 1546.08 Q1638.06 1549.58 1638.06 1555.95 Q1638.06 1562.28 1640.67 1565.78 Q1643.31 1569.28 1648.02 1569.28 Q1652.77 1569.28 1655.38 1565.78 Q1658.02 1562.28 1658.02 1555.95 M1663.87 1569.76 Q1663.87 1578.86 1659.83 1583.29 Q1655.79 1587.74 1647.45 1587.74 Q1644.36 1587.74 1641.63 1587.27 Q1638.89 1586.82 1636.31 1585.87 L1636.31 1580.17 Q1638.89 1581.57 1641.4 1582.24 Q1643.92 1582.91 1646.53 1582.91 Q1652.29 1582.91 1655.15 1579.88 Q1658.02 1576.89 1658.02 1570.81 L1658.02 1567.92 Q1656.2 1571.07 1653.37 1572.63 Q1650.54 1574.19 1646.59 1574.19 Q1640.04 1574.19 1636.02 1569.19 Q1632.01 1564.19 1632.01 1555.95 Q1632.01 1547.67 1636.02 1542.68 Q1640.04 1537.68 1646.59 1537.68 Q1650.54 1537.68 1653.37 1539.24 Q1656.2 1540.8 1658.02 1543.95 L1658.02 1538.54 L1663.87 1538.54 L1663.87 1569.76 Z" fill="#000000" fill-rule="evenodd" fill-opacity="1" /><path clip-path="url(#clip140)" d="M1675.01 1524.72 L1680.11 1524.72 Q1684.88 1532.24 1687.24 1539.43 Q1689.62 1546.62 1689.62 1553.72 Q1689.62 1560.85 1687.24 1568.07 Q1684.88 1575.3 1680.11 1582.78 L1675.01 1582.78 Q1679.25 1575.49 1681.32 1568.3 Q1683.42 1561.07 1683.42 1553.72 Q1683.42 1546.37 1681.32 1539.21 Q1679.25 1532.04 1675.01 1524.72 Z" fill="#000000" fill-rule="evenodd" fill-opacity="1" /><polyline clip-path="url(#clip142)" style="stroke:#000000; stroke-linecap:butt; stroke-linejoin:round; stroke-width:2; stroke-opacity:0.1; fill:none" points="
  251.372,1033.43 2352.76,1033.43 
  "/>
<polyline clip-path="url(#clip142)" style="stroke:#000000; stroke-linecap:butt; stroke-linejoin:round; stroke-width:2; stroke-opacity:0.1; fill:none" points="
  251.372,492.448 2352.76,492.448 
  "/>
<polyline clip-path="url(#clip140)" style="stroke:#000000; stroke-linecap:butt; stroke-linejoin:round; stroke-width:4; stroke-opacity:1; fill:none" points="
  251.372,1410.9 251.372,47.2441 
  "/>
<polyline clip-path="url(#clip140)" style="stroke:#000000; stroke-linecap:butt; stroke-linejoin:round; stroke-width:4; stroke-opacity:1; fill:none" points="
  2352.76,1410.9 2352.76,47.2441 
  "/>
<polyline clip-path="url(#clip140)" style="stroke:#000000; stroke-linecap:butt; stroke-linejoin:round; stroke-width:4; stroke-opacity:1; fill:none" points="
  251.372,1033.43 270.27,1033.43 
  "/>
<polyline clip-path="url(#clip140)" style="stroke:#000000; stroke-linecap:butt; stroke-linejoin:round; stroke-width:4; stroke-opacity:1; fill:none" points="
  251.372,492.448 270.27,492.448 
  "/>
<path clip-path="url(#clip140)" d="M115.232 1053.22 L122.871 1053.22 L122.871 1026.86 L114.561 1028.52 L114.561 1024.27 L122.825 1022.6 L127.501 1022.6 L127.501 1053.22 L135.14 1053.22 L135.14 1057.16 L115.232 1057.16 L115.232 1053.22 Z" fill="#000000" fill-rule="evenodd" fill-opacity="1" /><path clip-path="url(#clip140)" d="M154.584 1025.68 Q150.973 1025.68 149.144 1029.24 Q147.339 1032.78 147.339 1039.91 Q147.339 1047.02 149.144 1050.58 Q150.973 1054.13 154.584 1054.13 Q158.218 1054.13 160.024 1050.58 Q161.852 1047.02 161.852 1039.91 Q161.852 1032.78 160.024 1029.24 Q158.218 1025.68 154.584 1025.68 M154.584 1021.97 Q160.394 1021.97 163.45 1026.58 Q166.528 1031.16 166.528 1039.91 Q166.528 1048.64 163.45 1053.25 Q160.394 1057.83 154.584 1057.83 Q148.774 1057.83 145.695 1053.25 Q142.64 1048.64 142.64 1039.91 Q142.64 1031.16 145.695 1026.58 Q148.774 1021.97 154.584 1021.97 Z" fill="#000000" fill-rule="evenodd" fill-opacity="1" /><path clip-path="url(#clip140)" d="M166.528 1016.08 L190.64 1016.08 L190.64 1019.27 L166.528 1019.27 L166.528 1016.08 Z" fill="#000000" fill-rule="evenodd" fill-opacity="1" /><path clip-path="url(#clip140)" d="M202.113 1026.55 L215.372 1026.55 L215.372 1029.75 L197.542 1029.75 L197.542 1026.55 Q199.705 1024.31 203.429 1020.55 Q207.172 1016.77 208.131 1015.68 Q209.956 1013.63 210.67 1012.22 Q211.404 1010.79 211.404 1009.42 Q211.404 1007.18 209.824 1005.77 Q208.263 1004.36 205.743 1004.36 Q203.956 1004.36 201.962 1004.98 Q199.987 1005.6 197.73 1006.86 L197.73 1003.02 Q200.025 1002.1 202.019 1001.63 Q204.012 1001.16 205.667 1001.16 Q210.031 1001.16 212.626 1003.34 Q215.222 1005.52 215.222 1009.17 Q215.222 1010.9 214.563 1012.46 Q213.924 1014.01 212.212 1016.11 Q211.742 1016.66 209.222 1019.27 Q206.702 1021.87 202.113 1026.55 Z" fill="#000000" fill-rule="evenodd" fill-opacity="1" /><path clip-path="url(#clip140)" d="M114.931 512.241 L122.57 512.241 L122.57 485.875 L114.26 487.542 L114.26 483.283 L122.524 481.616 L127.2 481.616 L127.2 512.241 L134.839 512.241 L134.839 516.176 L114.931 516.176 L114.931 512.241 Z" fill="#000000" fill-rule="evenodd" fill-opacity="1" /><path clip-path="url(#clip140)" d="M154.283 484.695 Q150.672 484.695 148.843 488.259 Q147.038 491.801 147.038 498.931 Q147.038 506.037 148.843 509.602 Q150.672 513.144 154.283 513.144 Q157.917 513.144 159.723 509.602 Q161.552 506.037 161.552 498.931 Q161.552 491.801 159.723 488.259 Q157.917 484.695 154.283 484.695 M154.283 480.991 Q160.093 480.991 163.149 485.597 Q166.227 490.181 166.227 498.931 Q166.227 507.657 163.149 512.264 Q160.093 516.847 154.283 516.847 Q148.473 516.847 145.394 512.264 Q142.339 507.657 142.339 498.931 Q142.339 490.181 145.394 485.597 Q148.473 480.991 154.283 480.991 Z" fill="#000000" fill-rule="evenodd" fill-opacity="1" /><path clip-path="url(#clip140)" d="M166.227 475.092 L190.339 475.092 L190.339 478.29 L166.227 478.29 L166.227 475.092 Z" fill="#000000" fill-rule="evenodd" fill-opacity="1" /><path clip-path="url(#clip140)" d="M199.197 485.568 L205.404 485.568 L205.404 464.146 L198.652 465.5 L198.652 462.04 L205.366 460.686 L209.166 460.686 L209.166 485.568 L215.372 485.568 L215.372 488.766 L199.197 488.766 L199.197 485.568 Z" fill="#000000" fill-rule="evenodd" fill-opacity="1" /><path clip-path="url(#clip140)" d="M16.4842 1034.96 L16.4842 1004.91 L21.895 1004.91 L21.895 1028.53 L35.9632 1028.53 L35.9632 1005.9 L41.3741 1005.9 L41.3741 1028.53 L58.5933 1028.53 L58.5933 1004.34 L64.0042 1004.34 L64.0042 1034.96 L16.4842 1034.96 Z" fill="#000000" fill-rule="evenodd" fill-opacity="1" /><path clip-path="url(#clip140)" d="M33.8307 973.37 Q33.2578 974.357 33.0032 975.535 Q32.7167 976.68 32.7167 978.081 Q32.7167 983.046 35.9632 985.72 Q39.1779 988.362 45.2253 988.362 L64.0042 988.362 L64.0042 994.25 L28.3562 994.25 L28.3562 988.362 L33.8944 988.362 Q30.6479 986.515 29.0883 983.555 Q27.4968 980.595 27.4968 976.362 Q27.4968 975.757 27.5923 975.025 Q27.656 974.293 27.8151 973.402 L33.8307 973.37 Z" fill="#000000" fill-rule="evenodd" fill-opacity="1" /><path clip-path="url(#clip140)" d="M33.8307 947.716 Q33.2578 948.703 33.0032 949.881 Q32.7167 951.027 32.7167 952.427 Q32.7167 957.392 35.9632 960.066 Q39.1779 962.708 45.2253 962.708 L64.0042 962.708 L64.0042 968.596 L28.3562 968.596 L28.3562 962.708 L33.8944 962.708 Q30.6479 960.862 29.0883 957.902 Q27.4968 954.942 27.4968 950.708 Q27.4968 950.104 27.5923 949.372 Q27.656 948.64 27.8151 947.748 L33.8307 947.716 Z" fill="#000000" fill-rule="evenodd" fill-opacity="1" /><path clip-path="url(#clip140)" d="M32.4621 929.192 Q32.4621 933.903 36.1542 936.64 Q39.8145 939.377 46.212 939.377 Q52.6095 939.377 56.3017 936.672 Q59.9619 933.935 59.9619 929.192 Q59.9619 924.513 56.2698 921.776 Q52.5777 919.039 46.212 919.039 Q39.8781 919.039 36.186 921.776 Q32.4621 924.513 32.4621 929.192 M27.4968 929.192 Q27.4968 921.553 32.4621 917.193 Q37.4273 912.832 46.212 912.832 Q54.9649 912.832 59.9619 917.193 Q64.9272 921.553 64.9272 929.192 Q64.9272 936.863 59.9619 941.223 Q54.9649 945.552 46.212 945.552 Q37.4273 945.552 32.4621 941.223 Q27.4968 936.863 27.4968 929.192 Z" fill="#000000" fill-rule="evenodd" fill-opacity="1" /><path clip-path="url(#clip140)" d="M33.8307 882.468 Q33.2578 883.455 33.0032 884.632 Q32.7167 885.778 32.7167 887.179 Q32.7167 892.144 35.9632 894.817 Q39.1779 897.459 45.2253 897.459 L64.0042 897.459 L64.0042 903.348 L28.3562 903.348 L28.3562 897.459 L33.8944 897.459 Q30.6479 895.613 29.0883 892.653 Q27.4968 889.693 27.4968 885.46 Q27.4968 884.855 27.5923 884.123 Q27.656 883.391 27.8151 882.5 L33.8307 882.468 Z" fill="#000000" fill-rule="evenodd" fill-opacity="1" /><path clip-path="url(#clip140)" d="M55.9197 875.975 L55.9197 869.259 L64.0042 869.259 L64.0042 875.975 L55.9197 875.975 M30.2977 875.975 L30.2977 869.259 L38.3822 869.259 L38.3822 875.975 L30.2977 875.975 Z" fill="#000000" fill-rule="evenodd" fill-opacity="1" /><path clip-path="url(#clip140)" d="M58.5933 828.423 L58.5933 805.984 L64.0042 805.984 L64.0042 836.157 L58.5933 836.157 Q54.8057 832.497 48.44 826.195 Q42.0425 819.861 40.1964 818.238 Q36.7271 815.151 34.34 813.941 Q31.921 812.7 29.5975 812.7 Q25.8099 812.7 23.4228 815.373 Q21.0356 818.015 21.0356 822.28 Q21.0356 825.304 22.086 828.678 Q23.1363 832.02 25.2688 835.839 L18.7758 835.839 Q17.2162 831.956 16.4205 828.582 Q15.6248 825.208 15.6248 822.408 Q15.6248 815.023 19.3169 810.631 Q23.009 806.239 29.1837 806.239 Q32.112 806.239 34.7537 807.353 Q37.3637 808.435 40.9285 811.331 Q41.8515 812.127 46.2757 816.392 Q50.668 820.657 58.5933 828.423 Z" fill="#000000" fill-rule="evenodd" fill-opacity="1" /><path clip-path="url(#clip140)" d="M43.5384 796.276 L43.5384 779.121 L48.7583 779.121 L48.7583 796.276 L43.5384 796.276 Z" fill="#000000" fill-rule="evenodd" fill-opacity="1" /><path clip-path="url(#clip140)" d="M42.4881 740.163 L64.0042 740.163 L64.0042 746.019 L42.679 746.019 Q37.6183 746.019 35.1038 747.992 Q32.5894 749.966 32.5894 753.913 Q32.5894 758.655 35.6131 761.392 Q38.6368 764.129 43.8567 764.129 L64.0042 764.129 L64.0042 770.018 L28.3562 770.018 L28.3562 764.129 L33.8944 764.129 Q30.6797 762.029 29.0883 759.196 Q27.4968 756.332 27.4968 752.608 Q27.4968 746.465 31.3163 743.314 Q35.1038 740.163 42.4881 740.163 Z" fill="#000000" fill-rule="evenodd" fill-opacity="1" /><path clip-path="url(#clip140)" d="M32.4621 714.668 Q32.4621 719.379 36.1542 722.116 Q39.8145 724.853 46.212 724.853 Q52.6095 724.853 56.3017 722.148 Q59.9619 719.41 59.9619 714.668 Q59.9619 709.989 56.2698 707.252 Q52.5777 704.515 46.212 704.515 Q39.8781 704.515 36.186 707.252 Q32.4621 709.989 32.4621 714.668 M27.4968 714.668 Q27.4968 707.029 32.4621 702.669 Q37.4273 698.308 46.212 698.308 Q54.9649 698.308 59.9619 702.669 Q64.9272 707.029 64.9272 714.668 Q64.9272 722.339 59.9619 726.699 Q54.9649 731.028 46.212 731.028 Q37.4273 731.028 32.4621 726.699 Q27.4968 722.339 27.4968 714.668 Z" fill="#000000" fill-rule="evenodd" fill-opacity="1" /><path clip-path="url(#clip140)" d="M33.8307 667.944 Q33.2578 668.93 33.0032 670.108 Q32.7167 671.254 32.7167 672.654 Q32.7167 677.62 35.9632 680.293 Q39.1779 682.935 45.2253 682.935 L64.0042 682.935 L64.0042 688.823 L28.3562 688.823 L28.3562 682.935 L33.8944 682.935 Q30.6479 681.089 29.0883 678.129 Q27.4968 675.169 27.4968 670.936 Q27.4968 670.331 27.5923 669.599 Q27.656 668.867 27.8151 667.975 L33.8307 667.944 Z" fill="#000000" fill-rule="evenodd" fill-opacity="1" /><path clip-path="url(#clip140)" d="M35.1993 635.192 Q31.2526 632.996 29.3747 629.94 Q27.4968 626.885 27.4968 622.747 Q27.4968 617.177 31.4117 614.153 Q35.2948 611.13 42.4881 611.13 L64.0042 611.13 L64.0042 617.018 L42.679 617.018 Q37.5546 617.018 35.072 618.832 Q32.5894 620.646 32.5894 624.37 Q32.5894 628.922 35.6131 631.564 Q38.6368 634.205 43.8567 634.205 L64.0042 634.205 L64.0042 640.094 L42.679 640.094 Q37.5228 640.094 35.072 641.908 Q32.5894 643.722 32.5894 647.51 Q32.5894 651.998 35.6449 654.639 Q38.6686 657.281 43.8567 657.281 L64.0042 657.281 L64.0042 663.169 L28.3562 663.169 L28.3562 657.281 L33.8944 657.281 Q30.616 655.276 29.0564 652.475 Q27.4968 649.674 27.4968 645.823 Q27.4968 641.94 29.4702 639.234 Q31.4436 636.497 35.1993 635.192 Z" fill="#000000" fill-rule="evenodd" fill-opacity="1" /><path clip-path="url(#clip140)" d="M14.5426 564.66 Q21.8632 568.925 29.0246 570.994 Q36.186 573.063 43.5384 573.063 Q50.8908 573.063 58.1159 570.994 Q65.3091 568.893 72.5979 564.66 L72.5979 569.753 Q65.1182 574.527 57.8931 576.914 Q50.668 579.269 43.5384 579.269 Q36.4406 579.269 29.2474 576.914 Q22.0542 574.559 14.5426 569.753 L14.5426 564.66 Z" fill="#000000" fill-rule="evenodd" fill-opacity="1" /><path clip-path="url(#clip140)" d="M16.4842 553.043 L16.4842 546.613 L58.5933 546.613 L58.5933 523.474 L64.0042 523.474 L64.0042 553.043 L16.4842 553.043 Z" fill="#000000" fill-rule="evenodd" fill-opacity="1" /><path clip-path="url(#clip140)" d="M32.4621 504.313 Q32.4621 509.024 36.1542 511.761 Q39.8145 514.498 46.212 514.498 Q52.6095 514.498 56.3017 511.793 Q59.9619 509.056 59.9619 504.313 Q59.9619 499.634 56.2698 496.897 Q52.5777 494.16 46.212 494.16 Q39.8781 494.16 36.186 496.897 Q32.4621 499.634 32.4621 504.313 M27.4968 504.313 Q27.4968 496.674 32.4621 492.314 Q37.4273 487.953 46.212 487.953 Q54.9649 487.953 59.9619 492.314 Q64.9272 496.674 64.9272 504.313 Q64.9272 511.984 59.9619 516.344 Q54.9649 520.673 46.212 520.673 Q37.4273 520.673 32.4621 516.344 Q27.4968 511.984 27.4968 504.313 Z" fill="#000000" fill-rule="evenodd" fill-opacity="1" /><path clip-path="url(#clip140)" d="M45.7664 454.788 Q39.4007 454.788 35.8996 457.43 Q32.3984 460.04 32.3984 464.782 Q32.3984 469.493 35.8996 472.135 Q39.4007 474.744 45.7664 474.744 Q52.1003 474.744 55.6014 472.135 Q59.1026 469.493 59.1026 464.782 Q59.1026 460.04 55.6014 457.43 Q52.1003 454.788 45.7664 454.788 M59.58 448.932 Q68.683 448.932 73.1071 452.974 Q77.5631 457.016 77.5631 465.355 Q77.5631 468.442 77.0857 471.18 Q76.6401 473.917 75.6852 476.495 L69.9879 476.495 Q71.3884 473.917 72.0568 471.402 Q72.7252 468.888 72.7252 466.278 Q72.7252 460.517 69.7015 457.653 Q66.7096 454.788 60.6303 454.788 L57.7339 454.788 Q60.885 456.602 62.4446 459.435 Q64.0042 462.268 64.0042 466.214 Q64.0042 472.771 59.0071 476.782 Q54.01 480.792 45.7664 480.792 Q37.491 480.792 32.4939 476.782 Q27.4968 472.771 27.4968 466.214 Q27.4968 462.268 29.0564 459.435 Q30.616 456.602 33.7671 454.788 L28.3562 454.788 L28.3562 448.932 L59.58 448.932 Z" fill="#000000" fill-rule="evenodd" fill-opacity="1" /><path clip-path="url(#clip140)" d="M14.5426 437.792 L14.5426 432.699 Q22.0542 427.925 29.2474 425.569 Q36.4406 423.182 43.5384 423.182 Q50.668 423.182 57.8931 425.569 Q65.1182 427.925 72.5979 432.699 L72.5979 437.792 Q65.3091 433.558 58.1159 431.489 Q50.8908 429.389 43.5384 429.389 Q36.186 429.389 29.0246 431.489 Q21.8632 433.558 14.5426 437.792 Z" fill="#000000" fill-rule="evenodd" fill-opacity="1" /><polyline clip-path="url(#clip142)" style="stroke:#0000ff; stroke-linecap:butt; stroke-linejoin:round; stroke-width:8; stroke-opacity:1; fill:none" points="
  793.542,387.033 1119.77,728.817 1444.4,958.439 1774.78,1166.74 2108.83,1372.17 
  "/>
<circle clip-path="url(#clip142)" cx="793.542" cy="387.033" r="18" fill="#ffffff" fill-rule="evenodd" fill-opacity="1" stroke="#000000" stroke-opacity="1" stroke-width="3.2"/>
<circle clip-path="url(#clip142)" cx="1119.77" cy="728.817" r="18" fill="#ffffff" fill-rule="evenodd" fill-opacity="1" stroke="#000000" stroke-opacity="1" stroke-width="3.2"/>
<circle clip-path="url(#clip142)" cx="1444.4" cy="958.439" r="18" fill="#ffffff" fill-rule="evenodd" fill-opacity="1" stroke="#000000" stroke-opacity="1" stroke-width="3.2"/>
<circle clip-path="url(#clip142)" cx="1774.78" cy="1166.74" r="18" fill="#ffffff" fill-rule="evenodd" fill-opacity="1" stroke="#000000" stroke-opacity="1" stroke-width="3.2"/>
<circle clip-path="url(#clip142)" cx="2108.83" cy="1372.17" r="18" fill="#ffffff" fill-rule="evenodd" fill-opacity="1" stroke="#000000" stroke-opacity="1" stroke-width="3.2"/>
<polyline clip-path="url(#clip142)" style="stroke:#0000ff; stroke-linecap:butt; stroke-linejoin:round; stroke-width:8; stroke-opacity:1; fill:none" points="
  310.845,384.568 638.246,564.64 965.45,761.099 1297.13,963.43 1625.48,1167.54 1970.44,1372.3 
  "/>
<path clip-path="url(#clip142)" d="M290.845 364.568 L290.845 404.568 L330.845 404.568 L330.845 364.568 L290.845 364.568 Z" fill="#ffffff" fill-rule="evenodd" fill-opacity="1" stroke="#000000" stroke-opacity="1" stroke-width="3.2"/>
<path clip-path="url(#clip142)" d="M618.246 544.64 L618.246 584.64 L658.246 584.64 L658.246 544.64 L618.246 544.64 Z" fill="#ffffff" fill-rule="evenodd" fill-opacity="1" stroke="#000000" stroke-opacity="1" stroke-width="3.2"/>
<path clip-path="url(#clip142)" d="M945.45 741.099 L945.45 781.099 L985.45 781.099 L985.45 741.099 L945.45 741.099 Z" fill="#ffffff" fill-rule="evenodd" fill-opacity="1" stroke="#000000" stroke-opacity="1" stroke-width="3.2"/>
<path clip-path="url(#clip142)" d="M1277.13 943.43 L1277.13 983.43 L1317.13 983.43 L1317.13 943.43 L1277.13 943.43 Z" fill="#ffffff" fill-rule="evenodd" fill-opacity="1" stroke="#000000" stroke-opacity="1" stroke-width="3.2"/>
<path clip-path="url(#clip142)" d="M1605.48 1147.54 L1605.48 1187.54 L1645.48 1187.54 L1645.48 1147.54 L1605.48 1147.54 Z" fill="#ffffff" fill-rule="evenodd" fill-opacity="1" stroke="#000000" stroke-opacity="1" stroke-width="3.2"/>
<path clip-path="url(#clip142)" d="M1950.44 1352.3 L1950.44 1392.3 L1990.44 1392.3 L1990.44 1352.3 L1950.44 1352.3 Z" fill="#ffffff" fill-rule="evenodd" fill-opacity="1" stroke="#000000" stroke-opacity="1" stroke-width="3.2"/>
<polyline clip-path="url(#clip142)" style="stroke:#ff0000; stroke-linecap:butt; stroke-linejoin:round; stroke-width:8; stroke-opacity:1; fill:none" points="
  757.556,85.838 1061.11,289.725 1389.9,426.503 1773.24,538.878 2049.43,646.53 
  "/>
<path clip-path="url(#clip142)" d="M773.556 85.838 L749.556 71.838 L749.556 99.838 L773.556 85.838 Z" fill="#ffffff" fill-rule="evenodd" fill-opacity="1" stroke="#000000" stroke-opacity="1" stroke-width="3.2"/>
<path clip-path="url(#clip142)" d="M1077.11 289.725 L1053.11 275.725 L1053.11 303.725 L1077.11 289.725 Z" fill="#ffffff" fill-rule="evenodd" fill-opacity="1" stroke="#000000" stroke-opacity="1" stroke-width="3.2"/>
<path clip-path="url(#clip142)" d="M1405.9 426.503 L1381.9 412.503 L1381.9 440.503 L1405.9 426.503 Z" fill="#ffffff" fill-rule="evenodd" fill-opacity="1" stroke="#000000" stroke-opacity="1" stroke-width="3.2"/>
<path clip-path="url(#clip142)" d="M1789.24 538.878 L1765.24 524.878 L1765.24 552.878 L1789.24 538.878 Z" fill="#ffffff" fill-rule="evenodd" fill-opacity="1" stroke="#000000" stroke-opacity="1" stroke-width="3.2"/>
<path clip-path="url(#clip142)" d="M2065.43 646.53 L2041.43 632.53 L2041.43 660.53 L2065.43 646.53 Z" fill="#ffffff" fill-rule="evenodd" fill-opacity="1" stroke="#000000" stroke-opacity="1" stroke-width="3.2"/>
<polyline clip-path="url(#clip142)" style="stroke:#ff0000; stroke-linecap:butt; stroke-linejoin:round; stroke-width:8; stroke-opacity:1; fill:none" points="
  968.602,395.947 1309.22,749.061 1639.89,980.288 1992.22,1039.2 2293.28,950.29 
  "/>
<circle clip-path="url(#clip142)" cx="968.602" cy="395.947" r="18" fill="#ffffff" fill-rule="evenodd" fill-opacity="1" stroke="#000000" stroke-opacity="1" stroke-width="3.2"/>
<circle clip-path="url(#clip142)" cx="1309.22" cy="749.061" r="18" fill="#ffffff" fill-rule="evenodd" fill-opacity="1" stroke="#000000" stroke-opacity="1" stroke-width="3.2"/>
<circle clip-path="url(#clip142)" cx="1639.89" cy="980.288" r="18" fill="#ffffff" fill-rule="evenodd" fill-opacity="1" stroke="#000000" stroke-opacity="1" stroke-width="3.2"/>
<circle clip-path="url(#clip142)" cx="1992.22" cy="1039.2" r="18" fill="#ffffff" fill-rule="evenodd" fill-opacity="1" stroke="#000000" stroke-opacity="1" stroke-width="3.2"/>
<circle clip-path="url(#clip142)" cx="2293.28" cy="950.29" r="18" fill="#ffffff" fill-rule="evenodd" fill-opacity="1" stroke="#000000" stroke-opacity="1" stroke-width="3.2"/>
<polyline clip-path="url(#clip142)" style="stroke:#ff0000; stroke-linecap:butt; stroke-linejoin:round; stroke-width:8; stroke-opacity:1; fill:none" points="
  445.178,396.828 762.434,400.645 1202.89,440.159 1465.34,493.667 1798.25,552.635 2116.19,605.272 
  "/>
<path clip-path="url(#clip142)" d="M445.178 376.828 L425.178 396.828 L445.178 416.828 L465.178 396.828 L445.178 376.828 Z" fill="#ffffff" fill-rule="evenodd" fill-opacity="1" stroke="#000000" stroke-opacity="1" stroke-width="3.2"/>
<path clip-path="url(#clip142)" d="M762.434 380.645 L742.434 400.645 L762.434 420.645 L782.434 400.645 L762.434 380.645 Z" fill="#ffffff" fill-rule="evenodd" fill-opacity="1" stroke="#000000" stroke-opacity="1" stroke-width="3.2"/>
<path clip-path="url(#clip142)" d="M1202.89 420.159 L1182.89 440.159 L1202.89 460.159 L1222.89 440.159 L1202.89 420.159 Z" fill="#ffffff" fill-rule="evenodd" fill-opacity="1" stroke="#000000" stroke-opacity="1" stroke-width="3.2"/>
<path clip-path="url(#clip142)" d="M1465.34 473.667 L1445.34 493.667 L1465.34 513.667 L1485.34 493.667 L1465.34 473.667 Z" fill="#ffffff" fill-rule="evenodd" fill-opacity="1" stroke="#000000" stroke-opacity="1" stroke-width="3.2"/>
<path clip-path="url(#clip142)" d="M1798.25 532.635 L1778.25 552.635 L1798.25 572.635 L1818.25 552.635 L1798.25 532.635 Z" fill="#ffffff" fill-rule="evenodd" fill-opacity="1" stroke="#000000" stroke-opacity="1" stroke-width="3.2"/>
<path clip-path="url(#clip142)" d="M2116.19 585.272 L2096.19 605.272 L2116.19 625.272 L2136.19 605.272 L2116.19 585.272 Z" fill="#ffffff" fill-rule="evenodd" fill-opacity="1" stroke="#000000" stroke-opacity="1" stroke-width="3.2"/>
<polyline clip-path="url(#clip142)" style="stroke:#ff0000; stroke-linecap:butt; stroke-linejoin:round; stroke-width:8; stroke-opacity:1; fill:none" points="
  476.773,385.207 735.675,583.57 1127.05,783.727 1438.22,984.381 1766.3,1039.2 2087.29,950.28 
  "/>
<path clip-path="url(#clip142)" d="M456.773 365.207 L456.773 405.207 L496.773 405.207 L496.773 365.207 L456.773 365.207 Z" fill="#ffffff" fill-rule="evenodd" fill-opacity="1" stroke="#000000" stroke-opacity="1" stroke-width="3.2"/>
<path clip-path="url(#clip142)" d="M715.675 563.57 L715.675 603.57 L755.675 603.57 L755.675 563.57 L715.675 563.57 Z" fill="#ffffff" fill-rule="evenodd" fill-opacity="1" stroke="#000000" stroke-opacity="1" stroke-width="3.2"/>
<path clip-path="url(#clip142)" d="M1107.05 763.727 L1107.05 803.727 L1147.05 803.727 L1147.05 763.727 L1107.05 763.727 Z" fill="#ffffff" fill-rule="evenodd" fill-opacity="1" stroke="#000000" stroke-opacity="1" stroke-width="3.2"/>
<path clip-path="url(#clip142)" d="M1418.22 964.381 L1418.22 1004.38 L1458.22 1004.38 L1458.22 964.381 L1418.22 964.381 Z" fill="#ffffff" fill-rule="evenodd" fill-opacity="1" stroke="#000000" stroke-opacity="1" stroke-width="3.2"/>
<path clip-path="url(#clip142)" d="M1746.3 1019.2 L1746.3 1059.2 L1786.3 1059.2 L1786.3 1019.2 L1746.3 1019.2 Z" fill="#ffffff" fill-rule="evenodd" fill-opacity="1" stroke="#000000" stroke-opacity="1" stroke-width="3.2"/>
<path clip-path="url(#clip142)" d="M2067.29 930.28 L2067.29 970.28 L2107.29 970.28 L2107.29 930.28 L2067.29 930.28 Z" fill="#ffffff" fill-rule="evenodd" fill-opacity="1" stroke="#000000" stroke-opacity="1" stroke-width="3.2"/>
<path clip-path="url(#clip140)" d="
M1737.6 455.579 L2282.71 455.579 L2282.71 92.6992 L1737.6 92.6992  Z
  " fill="#ffffff" fill-rule="evenodd" fill-opacity="1"/>
<polyline clip-path="url(#clip140)" style="stroke:#000000; stroke-linecap:butt; stroke-linejoin:round; stroke-width:4; stroke-opacity:1; fill:none" points="
  1737.6,455.579 2282.71,455.579 2282.71,92.6992 1737.6,92.6992 1737.6,455.579 
  "/>
<polyline clip-path="url(#clip140)" style="stroke:#0000ff; stroke-linecap:butt; stroke-linejoin:round; stroke-width:4; stroke-opacity:1; fill:none" points="
  1760.95,144.539 1901.04,144.539 
  "/>
<circle clip-path="url(#clip140)" cx="1831" cy="144.539" r="23.04" fill="#ffffff" fill-rule="evenodd" fill-opacity="1" stroke="#000000" stroke-opacity="1" stroke-width="4.096"/>
<path clip-path="url(#clip140)" d="M1931.5 127.259 L1936.18 127.259 L1936.18 159.412 Q1936.18 165.662 1933.79 168.486 Q1931.43 171.31 1926.18 171.31 L1924.39 171.31 L1924.39 167.375 L1925.85 167.375 Q1928.95 167.375 1930.23 165.639 Q1931.5 163.903 1931.5 159.412 L1931.5 127.259 Z" fill="#000000" fill-rule="evenodd" fill-opacity="1" /><path clip-path="url(#clip140)" d="M1944.86 151.588 L1944.86 135.893 L1949.12 135.893 L1949.12 151.426 Q1949.12 155.106 1950.55 156.958 Q1951.99 158.787 1954.86 158.787 Q1958.31 158.787 1960.3 156.588 Q1962.31 154.389 1962.31 150.592 L1962.31 135.893 L1966.57 135.893 L1966.57 161.819 L1962.31 161.819 L1962.31 157.838 Q1960.76 160.199 1958.7 161.356 Q1956.66 162.49 1953.95 162.49 Q1949.49 162.49 1947.17 159.713 Q1944.86 156.935 1944.86 151.588 M1955.57 135.268 L1955.57 135.268 Z" fill="#000000" fill-rule="evenodd" fill-opacity="1" /><path clip-path="url(#clip140)" d="M1975.34 125.801 L1979.6 125.801 L1979.6 161.819 L1975.34 161.819 L1975.34 125.801 Z" fill="#000000" fill-rule="evenodd" fill-opacity="1" /><path clip-path="url(#clip140)" d="M1988.51 135.893 L1992.77 135.893 L1992.77 161.819 L1988.51 161.819 L1988.51 135.893 M1988.51 125.801 L1992.77 125.801 L1992.77 131.194 L1988.51 131.194 L1988.51 125.801 Z" fill="#000000" fill-rule="evenodd" fill-opacity="1" /><path clip-path="url(#clip140)" d="M2013.47 148.787 Q2008.31 148.787 2006.31 149.967 Q2004.32 151.148 2004.32 153.995 Q2004.32 156.264 2005.81 157.606 Q2007.31 158.926 2009.88 158.926 Q2013.42 158.926 2015.55 156.426 Q2017.7 153.903 2017.7 149.736 L2017.7 148.787 L2013.47 148.787 M2021.96 147.028 L2021.96 161.819 L2017.7 161.819 L2017.7 157.884 Q2016.25 160.245 2014.07 161.379 Q2011.89 162.49 2008.75 162.49 Q2004.76 162.49 2002.4 160.268 Q2000.06 158.023 2000.06 154.273 Q2000.06 149.898 2002.98 147.676 Q2005.92 145.454 2011.73 145.454 L2017.7 145.454 L2017.7 145.037 Q2017.7 142.097 2015.76 140.5 Q2013.84 138.879 2010.34 138.879 Q2008.12 138.879 2006.01 139.412 Q2003.91 139.944 2001.96 141.009 L2001.96 137.074 Q2004.3 136.171 2006.5 135.731 Q2008.7 135.268 2010.78 135.268 Q2016.41 135.268 2019.18 138.185 Q2021.96 141.102 2021.96 147.028 Z" fill="#000000" fill-rule="evenodd" fill-opacity="1" /><path clip-path="url(#clip140)" d="M2050.67 131.102 L2050.67 144.088 L2056.55 144.088 Q2059.81 144.088 2061.59 142.398 Q2063.37 140.708 2063.37 137.583 Q2063.37 134.481 2061.59 132.792 Q2059.81 131.102 2056.55 131.102 L2050.67 131.102 M2045.99 127.259 L2056.55 127.259 Q2062.36 127.259 2065.32 129.898 Q2068.3 132.514 2068.3 137.583 Q2068.3 142.699 2065.32 145.315 Q2062.36 147.93 2056.55 147.93 L2050.67 147.93 L2050.67 161.819 L2045.99 161.819 L2045.99 127.259 Z" fill="#000000" fill-rule="evenodd" fill-opacity="1" /><path clip-path="url(#clip140)" d="M2100.46 129.921 L2100.46 134.852 Q2098.1 132.653 2095.41 131.565 Q2092.75 130.477 2089.74 130.477 Q2083.81 130.477 2080.67 134.111 Q2077.52 137.722 2077.52 144.574 Q2077.52 151.403 2080.67 155.037 Q2083.81 158.648 2089.74 158.648 Q2092.75 158.648 2095.41 157.56 Q2098.1 156.472 2100.46 154.273 L2100.46 159.157 Q2098 160.824 2095.25 161.657 Q2092.52 162.49 2089.46 162.49 Q2081.62 162.49 2077.1 157.699 Q2072.59 152.884 2072.59 144.574 Q2072.59 136.241 2077.1 131.449 Q2081.62 126.634 2089.46 126.634 Q2092.56 126.634 2095.3 127.468 Q2098.05 128.278 2100.46 129.921 Z" fill="#000000" fill-rule="evenodd" fill-opacity="1" /><polyline clip-path="url(#clip140)" style="stroke:#0000ff; stroke-linecap:butt; stroke-linejoin:round; stroke-width:4; stroke-opacity:1; fill:none" points="
  1760.95,196.379 1901.04,196.379 
  "/>
<path clip-path="url(#clip140)" d="M1805.4 170.779 L1805.4 221.979 L1856.6 221.979 L1856.6 170.779 L1805.4 170.779 Z" fill="#ffffff" fill-rule="evenodd" fill-opacity="1" stroke="#000000" stroke-opacity="1" stroke-width="4.096"/>
<path clip-path="url(#clip140)" d="M1931.5 179.099 L1936.18 179.099 L1936.18 211.252 Q1936.18 217.502 1933.79 220.326 Q1931.43 223.15 1926.18 223.15 L1924.39 223.15 L1924.39 219.215 L1925.85 219.215 Q1928.95 219.215 1930.23 217.479 Q1931.5 215.743 1931.5 211.252 L1931.5 179.099 Z" fill="#000000" fill-rule="evenodd" fill-opacity="1" /><path clip-path="url(#clip140)" d="M1944.86 203.428 L1944.86 187.733 L1949.12 187.733 L1949.12 203.266 Q1949.12 206.946 1950.55 208.798 Q1951.99 210.627 1954.86 210.627 Q1958.31 210.627 1960.3 208.428 Q1962.31 206.229 1962.31 202.432 L1962.31 187.733 L1966.57 187.733 L1966.57 213.659 L1962.31 213.659 L1962.31 209.678 Q1960.76 212.039 1958.7 213.196 Q1956.66 214.33 1953.95 214.33 Q1949.49 214.33 1947.17 211.553 Q1944.86 208.775 1944.86 203.428 M1955.57 187.108 L1955.57 187.108 Z" fill="#000000" fill-rule="evenodd" fill-opacity="1" /><path clip-path="url(#clip140)" d="M1975.34 177.641 L1979.6 177.641 L1979.6 213.659 L1975.34 213.659 L1975.34 177.641 Z" fill="#000000" fill-rule="evenodd" fill-opacity="1" /><path clip-path="url(#clip140)" d="M1988.51 187.733 L1992.77 187.733 L1992.77 213.659 L1988.51 213.659 L1988.51 187.733 M1988.51 177.641 L1992.77 177.641 L1992.77 183.034 L1988.51 183.034 L1988.51 177.641 Z" fill="#000000" fill-rule="evenodd" fill-opacity="1" /><path clip-path="url(#clip140)" d="M2013.47 200.627 Q2008.31 200.627 2006.31 201.807 Q2004.32 202.988 2004.32 205.835 Q2004.32 208.104 2005.81 209.446 Q2007.31 210.766 2009.88 210.766 Q2013.42 210.766 2015.55 208.266 Q2017.7 205.743 2017.7 201.576 L2017.7 200.627 L2013.47 200.627 M2021.96 198.868 L2021.96 213.659 L2017.7 213.659 L2017.7 209.724 Q2016.25 212.085 2014.07 213.219 Q2011.89 214.33 2008.75 214.33 Q2004.76 214.33 2002.4 212.108 Q2000.06 209.863 2000.06 206.113 Q2000.06 201.738 2002.98 199.516 Q2005.92 197.294 2011.73 197.294 L2017.7 197.294 L2017.7 196.877 Q2017.7 193.937 2015.76 192.34 Q2013.84 190.719 2010.34 190.719 Q2008.12 190.719 2006.01 191.252 Q2003.91 191.784 2001.96 192.849 L2001.96 188.914 Q2004.3 188.011 2006.5 187.571 Q2008.7 187.108 2010.78 187.108 Q2016.41 187.108 2019.18 190.025 Q2021.96 192.942 2021.96 198.868 Z" fill="#000000" fill-rule="evenodd" fill-opacity="1" /><path clip-path="url(#clip140)" d="M2045.99 179.099 L2052.29 179.099 L2067.61 208.011 L2067.61 179.099 L2072.15 179.099 L2072.15 213.659 L2065.85 213.659 L2050.53 184.747 L2050.53 213.659 L2045.99 213.659 L2045.99 179.099 Z" fill="#000000" fill-rule="evenodd" fill-opacity="1" /><path clip-path="url(#clip140)" d="M2097.84 197.456 Q2099.35 197.965 2100.76 199.631 Q2102.19 201.298 2103.63 204.215 L2108.37 213.659 L2103.35 213.659 L2098.93 204.793 Q2097.22 201.321 2095.6 200.187 Q2094 199.053 2091.22 199.053 L2086.13 199.053 L2086.13 213.659 L2081.45 213.659 L2081.45 179.099 L2092.01 179.099 Q2097.93 179.099 2100.85 181.576 Q2103.77 184.053 2103.77 189.053 Q2103.77 192.317 2102.24 194.469 Q2100.74 196.622 2097.84 197.456 M2086.13 182.942 L2086.13 195.21 L2092.01 195.21 Q2095.39 195.21 2097.1 193.659 Q2098.84 192.085 2098.84 189.053 Q2098.84 186.02 2097.1 184.493 Q2095.39 182.942 2092.01 182.942 L2086.13 182.942 Z" fill="#000000" fill-rule="evenodd" fill-opacity="1" /><polyline clip-path="url(#clip140)" style="stroke:#ff0000; stroke-linecap:butt; stroke-linejoin:round; stroke-width:4; stroke-opacity:1; fill:none" points="
  1760.95,248.219 1901.04,248.219 
  "/>
<path clip-path="url(#clip140)" d="M1851.48 248.219 L1820.76 230.299 L1820.76 266.139 L1851.48 248.219 Z" fill="#ffffff" fill-rule="evenodd" fill-opacity="1" stroke="#000000" stroke-opacity="1" stroke-width="4.096"/>
<path clip-path="url(#clip140)" d="M1924.39 230.939 L1931.36 230.939 L1940.18 254.458 L1949.05 230.939 L1956.01 230.939 L1956.01 265.499 L1951.45 265.499 L1951.45 235.152 L1942.54 258.856 L1937.84 258.856 L1928.93 235.152 L1928.93 265.499 L1924.39 265.499 L1924.39 230.939 Z" fill="#000000" fill-rule="evenodd" fill-opacity="1" /><path clip-path="url(#clip140)" d="M1976.89 252.467 Q1971.73 252.467 1969.74 253.647 Q1967.75 254.828 1967.75 257.675 Q1967.75 259.944 1969.23 261.286 Q1970.74 262.606 1973.31 262.606 Q1976.85 262.606 1978.98 260.106 Q1981.13 257.583 1981.13 253.416 L1981.13 252.467 L1976.89 252.467 M1985.39 250.708 L1985.39 265.499 L1981.13 265.499 L1981.13 261.564 Q1979.67 263.925 1977.5 265.059 Q1975.32 266.17 1972.17 266.17 Q1968.19 266.17 1965.83 263.948 Q1963.49 261.703 1963.49 257.953 Q1963.49 253.578 1966.41 251.356 Q1969.35 249.134 1975.16 249.134 L1981.13 249.134 L1981.13 248.717 Q1981.13 245.777 1979.19 244.18 Q1977.26 242.559 1973.77 242.559 Q1971.55 242.559 1969.44 243.092 Q1967.33 243.624 1965.39 244.689 L1965.39 240.754 Q1967.73 239.851 1969.93 239.411 Q1972.12 238.948 1974.21 238.948 Q1979.83 238.948 1982.61 241.865 Q1985.39 244.782 1985.39 250.708 Z" fill="#000000" fill-rule="evenodd" fill-opacity="1" /><path clip-path="url(#clip140)" d="M1998.37 232.212 L1998.37 239.573 L2007.15 239.573 L2007.15 242.884 L1998.37 242.884 L1998.37 256.958 Q1998.37 260.129 1999.23 261.032 Q2000.11 261.934 2002.77 261.934 L2007.15 261.934 L2007.15 265.499 L2002.77 265.499 Q1997.84 265.499 1995.97 263.67 Q1994.09 261.819 1994.09 256.958 L1994.09 242.884 L1990.97 242.884 L1990.97 239.573 L1994.09 239.573 L1994.09 232.212 L1998.37 232.212 Z" fill="#000000" fill-rule="evenodd" fill-opacity="1" /><path clip-path="url(#clip140)" d="M2012.75 229.481 L2017.01 229.481 L2017.01 265.499 L2012.75 265.499 L2012.75 229.481 Z" fill="#000000" fill-rule="evenodd" fill-opacity="1" /><path clip-path="url(#clip140)" d="M2037.7 252.467 Q2032.54 252.467 2030.55 253.647 Q2028.56 254.828 2028.56 257.675 Q2028.56 259.944 2030.04 261.286 Q2031.55 262.606 2034.12 262.606 Q2037.66 262.606 2039.79 260.106 Q2041.94 257.583 2041.94 253.416 L2041.94 252.467 L2037.7 252.467 M2046.2 250.708 L2046.2 265.499 L2041.94 265.499 L2041.94 261.564 Q2040.48 263.925 2038.31 265.059 Q2036.13 266.17 2032.98 266.17 Q2029 266.17 2026.64 263.948 Q2024.3 261.703 2024.3 257.953 Q2024.3 253.578 2027.22 251.356 Q2030.16 249.134 2035.97 249.134 L2041.94 249.134 L2041.94 248.717 Q2041.94 245.777 2039.99 244.18 Q2038.07 242.559 2034.58 242.559 Q2032.36 242.559 2030.25 243.092 Q2028.14 243.624 2026.2 244.689 L2026.2 240.754 Q2028.54 239.851 2030.74 239.411 Q2032.93 238.948 2035.02 238.948 Q2040.64 238.948 2043.42 241.865 Q2046.2 244.782 2046.2 250.708 Z" fill="#000000" fill-rule="evenodd" fill-opacity="1" /><path clip-path="url(#clip140)" d="M2073.58 252.559 Q2073.58 247.86 2071.64 245.198 Q2069.72 242.513 2066.34 242.513 Q2062.96 242.513 2061.01 245.198 Q2059.09 247.86 2059.09 252.559 Q2059.09 257.258 2061.01 259.944 Q2062.96 262.606 2066.34 262.606 Q2069.72 262.606 2071.64 259.944 Q2073.58 257.258 2073.58 252.559 M2059.09 243.509 Q2060.43 241.194 2062.47 240.083 Q2064.53 238.948 2067.38 238.948 Q2072.1 238.948 2075.04 242.698 Q2078 246.448 2078 252.559 Q2078 258.671 2075.04 262.42 Q2072.1 266.17 2067.38 266.17 Q2064.53 266.17 2062.47 265.059 Q2060.43 263.925 2059.09 261.61 L2059.09 265.499 L2054.81 265.499 L2054.81 229.481 L2059.09 229.481 L2059.09 243.509 Z" fill="#000000" fill-rule="evenodd" fill-opacity="1" /><path clip-path="url(#clip140)" d="M2104.99 234.782 L2104.99 247.768 L2110.87 247.768 Q2114.14 247.768 2115.92 246.078 Q2117.7 244.388 2117.7 241.263 Q2117.7 238.161 2115.92 236.472 Q2114.14 234.782 2110.87 234.782 L2104.99 234.782 M2100.32 230.939 L2110.87 230.939 Q2116.68 230.939 2119.65 233.578 Q2122.63 236.194 2122.63 241.263 Q2122.63 246.379 2119.65 248.995 Q2116.68 251.61 2110.87 251.61 L2104.99 251.61 L2104.99 265.499 L2100.32 265.499 L2100.32 230.939 Z" fill="#000000" fill-rule="evenodd" fill-opacity="1" /><path clip-path="url(#clip140)" d="M2128.91 230.939 L2133.58 230.939 L2133.58 265.499 L2128.91 265.499 L2128.91 230.939 Z" fill="#000000" fill-rule="evenodd" fill-opacity="1" /><path clip-path="url(#clip140)" d="M2140.55 250.615 L2153.03 250.615 L2153.03 254.411 L2140.55 254.411 L2140.55 250.615 Z" fill="#000000" fill-rule="evenodd" fill-opacity="1" /><path clip-path="url(#clip140)" d="M2159.99 230.939 L2181.85 230.939 L2181.85 234.874 L2164.67 234.874 L2164.67 245.106 L2181.13 245.106 L2181.13 249.041 L2164.67 249.041 L2164.67 261.564 L2182.26 261.564 L2182.26 265.499 L2159.99 265.499 L2159.99 230.939 Z" fill="#000000" fill-rule="evenodd" fill-opacity="1" /><path clip-path="url(#clip140)" d="M2188.28 230.939 L2193.3 230.939 L2201.89 243.786 L2210.53 230.939 L2215.55 230.939 L2204.44 247.536 L2216.29 265.499 L2211.27 265.499 L2201.54 250.8 L2191.75 265.499 L2186.71 265.499 L2199.04 247.05 L2188.28 230.939 Z" fill="#000000" fill-rule="evenodd" fill-opacity="1" /><polyline clip-path="url(#clip140)" style="stroke:#ff0000; stroke-linecap:butt; stroke-linejoin:round; stroke-width:4; stroke-opacity:1; fill:none" points="
  1760.95,300.059 1901.04,300.059 
  "/>
<circle clip-path="url(#clip140)" cx="1831" cy="300.059" r="23.04" fill="#ffffff" fill-rule="evenodd" fill-opacity="1" stroke="#000000" stroke-opacity="1" stroke-width="4.096"/>
<path clip-path="url(#clip140)" d="M1924.39 282.779 L1931.36 282.779 L1940.18 306.298 L1949.05 282.779 L1956.01 282.779 L1956.01 317.339 L1951.45 317.339 L1951.45 286.992 L1942.54 310.696 L1937.84 310.696 L1928.93 286.992 L1928.93 317.339 L1924.39 317.339 L1924.39 282.779 Z" fill="#000000" fill-rule="evenodd" fill-opacity="1" /><path clip-path="url(#clip140)" d="M1976.89 304.307 Q1971.73 304.307 1969.74 305.487 Q1967.75 306.668 1967.75 309.515 Q1967.75 311.784 1969.23 313.126 Q1970.74 314.446 1973.31 314.446 Q1976.85 314.446 1978.98 311.946 Q1981.13 309.423 1981.13 305.256 L1981.13 304.307 L1976.89 304.307 M1985.39 302.548 L1985.39 317.339 L1981.13 317.339 L1981.13 313.404 Q1979.67 315.765 1977.5 316.899 Q1975.32 318.01 1972.17 318.01 Q1968.19 318.01 1965.83 315.788 Q1963.49 313.543 1963.49 309.793 Q1963.49 305.418 1966.41 303.196 Q1969.35 300.974 1975.16 300.974 L1981.13 300.974 L1981.13 300.557 Q1981.13 297.617 1979.19 296.02 Q1977.26 294.399 1973.77 294.399 Q1971.55 294.399 1969.44 294.932 Q1967.33 295.464 1965.39 296.529 L1965.39 292.594 Q1967.73 291.691 1969.93 291.251 Q1972.12 290.788 1974.21 290.788 Q1979.83 290.788 1982.61 293.705 Q1985.39 296.622 1985.39 302.548 Z" fill="#000000" fill-rule="evenodd" fill-opacity="1" /><path clip-path="url(#clip140)" d="M1998.37 284.052 L1998.37 291.413 L2007.15 291.413 L2007.15 294.724 L1998.37 294.724 L1998.37 308.798 Q1998.37 311.969 1999.23 312.872 Q2000.11 313.774 2002.77 313.774 L2007.15 313.774 L2007.15 317.339 L2002.77 317.339 Q1997.84 317.339 1995.97 315.51 Q1994.09 313.659 1994.09 308.798 L1994.09 294.724 L1990.97 294.724 L1990.97 291.413 L1994.09 291.413 L1994.09 284.052 L1998.37 284.052 Z" fill="#000000" fill-rule="evenodd" fill-opacity="1" /><path clip-path="url(#clip140)" d="M2012.75 281.321 L2017.01 281.321 L2017.01 317.339 L2012.75 317.339 L2012.75 281.321 Z" fill="#000000" fill-rule="evenodd" fill-opacity="1" /><path clip-path="url(#clip140)" d="M2037.7 304.307 Q2032.54 304.307 2030.55 305.487 Q2028.56 306.668 2028.56 309.515 Q2028.56 311.784 2030.04 313.126 Q2031.55 314.446 2034.12 314.446 Q2037.66 314.446 2039.79 311.946 Q2041.94 309.423 2041.94 305.256 L2041.94 304.307 L2037.7 304.307 M2046.2 302.548 L2046.2 317.339 L2041.94 317.339 L2041.94 313.404 Q2040.48 315.765 2038.31 316.899 Q2036.13 318.01 2032.98 318.01 Q2029 318.01 2026.64 315.788 Q2024.3 313.543 2024.3 309.793 Q2024.3 305.418 2027.22 303.196 Q2030.16 300.974 2035.97 300.974 L2041.94 300.974 L2041.94 300.557 Q2041.94 297.617 2039.99 296.02 Q2038.07 294.399 2034.58 294.399 Q2032.36 294.399 2030.25 294.932 Q2028.14 295.464 2026.2 296.529 L2026.2 292.594 Q2028.54 291.691 2030.74 291.251 Q2032.93 290.788 2035.02 290.788 Q2040.64 290.788 2043.42 293.705 Q2046.2 296.622 2046.2 302.548 Z" fill="#000000" fill-rule="evenodd" fill-opacity="1" /><path clip-path="url(#clip140)" d="M2073.58 304.399 Q2073.58 299.7 2071.64 297.038 Q2069.72 294.353 2066.34 294.353 Q2062.96 294.353 2061.01 297.038 Q2059.09 299.7 2059.09 304.399 Q2059.09 309.098 2061.01 311.784 Q2062.96 314.446 2066.34 314.446 Q2069.72 314.446 2071.64 311.784 Q2073.58 309.098 2073.58 304.399 M2059.09 295.349 Q2060.43 293.034 2062.47 291.923 Q2064.53 290.788 2067.38 290.788 Q2072.1 290.788 2075.04 294.538 Q2078 298.288 2078 304.399 Q2078 310.511 2075.04 314.26 Q2072.1 318.01 2067.38 318.01 Q2064.53 318.01 2062.47 316.899 Q2060.43 315.765 2059.09 313.45 L2059.09 317.339 L2054.81 317.339 L2054.81 281.321 L2059.09 281.321 L2059.09 295.349 Z" fill="#000000" fill-rule="evenodd" fill-opacity="1" /><path clip-path="url(#clip140)" d="M2104.99 286.622 L2104.99 299.608 L2110.87 299.608 Q2114.14 299.608 2115.92 297.918 Q2117.7 296.228 2117.7 293.103 Q2117.7 290.001 2115.92 288.312 Q2114.14 286.622 2110.87 286.622 L2104.99 286.622 M2100.32 282.779 L2110.87 282.779 Q2116.68 282.779 2119.65 285.418 Q2122.63 288.034 2122.63 293.103 Q2122.63 298.219 2119.65 300.835 Q2116.68 303.45 2110.87 303.45 L2104.99 303.45 L2104.99 317.339 L2100.32 317.339 L2100.32 282.779 Z" fill="#000000" fill-rule="evenodd" fill-opacity="1" /><path clip-path="url(#clip140)" d="M2128.91 282.779 L2133.58 282.779 L2133.58 317.339 L2128.91 317.339 L2128.91 282.779 Z" fill="#000000" fill-rule="evenodd" fill-opacity="1" /><path clip-path="url(#clip140)" d="M2140.55 302.455 L2153.03 302.455 L2153.03 306.251 L2140.55 306.251 L2140.55 302.455 Z" fill="#000000" fill-rule="evenodd" fill-opacity="1" /><path clip-path="url(#clip140)" d="M2164.67 286.622 L2164.67 299.608 L2170.55 299.608 Q2173.81 299.608 2175.6 297.918 Q2177.38 296.228 2177.38 293.103 Q2177.38 290.001 2175.6 288.312 Q2173.81 286.622 2170.55 286.622 L2164.67 286.622 M2159.99 282.779 L2170.55 282.779 Q2176.36 282.779 2179.32 285.418 Q2182.31 288.034 2182.31 293.103 Q2182.31 298.219 2179.32 300.835 Q2176.36 303.45 2170.55 303.45 L2164.67 303.45 L2164.67 317.339 L2159.99 317.339 L2159.99 282.779 Z" fill="#000000" fill-rule="evenodd" fill-opacity="1" /><path clip-path="url(#clip140)" d="M2214.46 285.441 L2214.46 290.372 Q2212.1 288.173 2209.42 287.085 Q2206.75 285.997 2203.74 285.997 Q2197.82 285.997 2194.67 289.631 Q2191.52 293.242 2191.52 300.094 Q2191.52 306.923 2194.67 310.557 Q2197.82 314.168 2203.74 314.168 Q2206.75 314.168 2209.42 313.08 Q2212.1 311.992 2214.46 309.793 L2214.46 314.677 Q2212.01 316.344 2209.25 317.177 Q2206.52 318.01 2203.47 318.01 Q2195.62 318.01 2191.11 313.219 Q2186.59 308.404 2186.59 300.094 Q2186.59 291.761 2191.11 286.969 Q2195.62 282.154 2203.47 282.154 Q2206.57 282.154 2209.3 282.988 Q2212.05 283.798 2214.46 285.441 Z" fill="#000000" fill-rule="evenodd" fill-opacity="1" /><polyline clip-path="url(#clip140)" style="stroke:#ff0000; stroke-linecap:butt; stroke-linejoin:round; stroke-width:4; stroke-opacity:1; fill:none" points="
  1760.95,351.899 1901.04,351.899 
  "/>
<path clip-path="url(#clip140)" d="M1831 326.299 L1805.4 351.899 L1831 377.499 L1856.6 351.899 L1831 326.299 Z" fill="#ffffff" fill-rule="evenodd" fill-opacity="1" stroke="#000000" stroke-opacity="1" stroke-width="4.096"/>
<path clip-path="url(#clip140)" d="M1924.39 334.619 L1931.36 334.619 L1940.18 358.138 L1949.05 334.619 L1956.01 334.619 L1956.01 369.179 L1951.45 369.179 L1951.45 338.832 L1942.54 362.536 L1937.84 362.536 L1928.93 338.832 L1928.93 369.179 L1924.39 369.179 L1924.39 334.619 Z" fill="#000000" fill-rule="evenodd" fill-opacity="1" /><path clip-path="url(#clip140)" d="M1976.89 356.147 Q1971.73 356.147 1969.74 357.327 Q1967.75 358.508 1967.75 361.355 Q1967.75 363.624 1969.23 364.966 Q1970.74 366.286 1973.31 366.286 Q1976.85 366.286 1978.98 363.786 Q1981.13 361.263 1981.13 357.096 L1981.13 356.147 L1976.89 356.147 M1985.39 354.388 L1985.39 369.179 L1981.13 369.179 L1981.13 365.244 Q1979.67 367.605 1977.5 368.739 Q1975.32 369.85 1972.17 369.85 Q1968.19 369.85 1965.83 367.628 Q1963.49 365.383 1963.49 361.633 Q1963.49 357.258 1966.41 355.036 Q1969.35 352.814 1975.16 352.814 L1981.13 352.814 L1981.13 352.397 Q1981.13 349.457 1979.19 347.86 Q1977.26 346.239 1973.77 346.239 Q1971.55 346.239 1969.44 346.772 Q1967.33 347.304 1965.39 348.369 L1965.39 344.434 Q1967.73 343.531 1969.93 343.091 Q1972.12 342.628 1974.21 342.628 Q1979.83 342.628 1982.61 345.545 Q1985.39 348.462 1985.39 354.388 Z" fill="#000000" fill-rule="evenodd" fill-opacity="1" /><path clip-path="url(#clip140)" d="M1998.37 335.892 L1998.37 343.253 L2007.15 343.253 L2007.15 346.564 L1998.37 346.564 L1998.37 360.638 Q1998.37 363.809 1999.23 364.712 Q2000.11 365.614 2002.77 365.614 L2007.15 365.614 L2007.15 369.179 L2002.77 369.179 Q1997.84 369.179 1995.97 367.35 Q1994.09 365.499 1994.09 360.638 L1994.09 346.564 L1990.97 346.564 L1990.97 343.253 L1994.09 343.253 L1994.09 335.892 L1998.37 335.892 Z" fill="#000000" fill-rule="evenodd" fill-opacity="1" /><path clip-path="url(#clip140)" d="M2012.75 333.161 L2017.01 333.161 L2017.01 369.179 L2012.75 369.179 L2012.75 333.161 Z" fill="#000000" fill-rule="evenodd" fill-opacity="1" /><path clip-path="url(#clip140)" d="M2037.7 356.147 Q2032.54 356.147 2030.55 357.327 Q2028.56 358.508 2028.56 361.355 Q2028.56 363.624 2030.04 364.966 Q2031.55 366.286 2034.12 366.286 Q2037.66 366.286 2039.79 363.786 Q2041.94 361.263 2041.94 357.096 L2041.94 356.147 L2037.7 356.147 M2046.2 354.388 L2046.2 369.179 L2041.94 369.179 L2041.94 365.244 Q2040.48 367.605 2038.31 368.739 Q2036.13 369.85 2032.98 369.85 Q2029 369.85 2026.64 367.628 Q2024.3 365.383 2024.3 361.633 Q2024.3 357.258 2027.22 355.036 Q2030.16 352.814 2035.97 352.814 L2041.94 352.814 L2041.94 352.397 Q2041.94 349.457 2039.99 347.86 Q2038.07 346.239 2034.58 346.239 Q2032.36 346.239 2030.25 346.772 Q2028.14 347.304 2026.2 348.369 L2026.2 344.434 Q2028.54 343.531 2030.74 343.091 Q2032.93 342.628 2035.02 342.628 Q2040.64 342.628 2043.42 345.545 Q2046.2 348.462 2046.2 354.388 Z" fill="#000000" fill-rule="evenodd" fill-opacity="1" /><path clip-path="url(#clip140)" d="M2073.58 356.239 Q2073.58 351.54 2071.64 348.878 Q2069.72 346.193 2066.34 346.193 Q2062.96 346.193 2061.01 348.878 Q2059.09 351.54 2059.09 356.239 Q2059.09 360.938 2061.01 363.624 Q2062.96 366.286 2066.34 366.286 Q2069.72 366.286 2071.64 363.624 Q2073.58 360.938 2073.58 356.239 M2059.09 347.189 Q2060.43 344.874 2062.47 343.763 Q2064.53 342.628 2067.38 342.628 Q2072.1 342.628 2075.04 346.378 Q2078 350.128 2078 356.239 Q2078 362.351 2075.04 366.1 Q2072.1 369.85 2067.38 369.85 Q2064.53 369.85 2062.47 368.739 Q2060.43 367.605 2059.09 365.29 L2059.09 369.179 L2054.81 369.179 L2054.81 333.161 L2059.09 333.161 L2059.09 347.189 Z" fill="#000000" fill-rule="evenodd" fill-opacity="1" /><path clip-path="url(#clip140)" d="M2104.99 338.462 L2104.99 351.448 L2110.87 351.448 Q2114.14 351.448 2115.92 349.758 Q2117.7 348.068 2117.7 344.943 Q2117.7 341.841 2115.92 340.152 Q2114.14 338.462 2110.87 338.462 L2104.99 338.462 M2100.32 334.619 L2110.87 334.619 Q2116.68 334.619 2119.65 337.258 Q2122.63 339.874 2122.63 344.943 Q2122.63 350.059 2119.65 352.675 Q2116.68 355.29 2110.87 355.29 L2104.99 355.29 L2104.99 369.179 L2100.32 369.179 L2100.32 334.619 Z" fill="#000000" fill-rule="evenodd" fill-opacity="1" /><path clip-path="url(#clip140)" d="M2128.91 334.619 L2133.58 334.619 L2133.58 369.179 L2128.91 369.179 L2128.91 334.619 Z" fill="#000000" fill-rule="evenodd" fill-opacity="1" /><path clip-path="url(#clip140)" d="M2140.55 354.295 L2153.03 354.295 L2153.03 358.091 L2140.55 358.091 L2140.55 354.295 Z" fill="#000000" fill-rule="evenodd" fill-opacity="1" /><path clip-path="url(#clip140)" d="M2159.99 334.619 L2164.67 334.619 L2164.67 369.179 L2159.99 369.179 L2159.99 334.619 Z" fill="#000000" fill-rule="evenodd" fill-opacity="1" /><path clip-path="url(#clip140)" d="M2173.98 334.619 L2180.94 334.619 L2189.76 358.138 L2198.63 334.619 L2205.6 334.619 L2205.6 369.179 L2201.04 369.179 L2201.04 338.832 L2192.12 362.536 L2187.42 362.536 L2178.51 338.832 L2178.51 369.179 L2173.98 369.179 L2173.98 334.619 Z" fill="#000000" fill-rule="evenodd" fill-opacity="1" /><path clip-path="url(#clip140)" d="M2216.11 365.244 L2223.74 365.244 L2223.74 338.878 L2215.43 340.545 L2215.43 336.286 L2223.7 334.619 L2228.37 334.619 L2228.37 365.244 L2236.01 365.244 L2236.01 369.179 L2216.11 369.179 L2216.11 365.244 Z" fill="#000000" fill-rule="evenodd" fill-opacity="1" /><polyline clip-path="url(#clip140)" style="stroke:#ff0000; stroke-linecap:butt; stroke-linejoin:round; stroke-width:4; stroke-opacity:1; fill:none" points="
  1760.95,403.739 1901.04,403.739 
  "/>
<path clip-path="url(#clip140)" d="M1805.4 378.139 L1805.4 429.339 L1856.6 429.339 L1856.6 378.139 L1805.4 378.139 Z" fill="#ffffff" fill-rule="evenodd" fill-opacity="1" stroke="#000000" stroke-opacity="1" stroke-width="4.096"/>
<path clip-path="url(#clip140)" d="M1924.39 386.459 L1931.36 386.459 L1940.18 409.978 L1949.05 386.459 L1956.01 386.459 L1956.01 421.019 L1951.45 421.019 L1951.45 390.672 L1942.54 414.376 L1937.84 414.376 L1928.93 390.672 L1928.93 421.019 L1924.39 421.019 L1924.39 386.459 Z" fill="#000000" fill-rule="evenodd" fill-opacity="1" /><path clip-path="url(#clip140)" d="M1976.89 407.987 Q1971.73 407.987 1969.74 409.167 Q1967.75 410.348 1967.75 413.195 Q1967.75 415.464 1969.23 416.806 Q1970.74 418.126 1973.31 418.126 Q1976.85 418.126 1978.98 415.626 Q1981.13 413.103 1981.13 408.936 L1981.13 407.987 L1976.89 407.987 M1985.39 406.228 L1985.39 421.019 L1981.13 421.019 L1981.13 417.084 Q1979.67 419.445 1977.5 420.579 Q1975.32 421.69 1972.17 421.69 Q1968.19 421.69 1965.83 419.468 Q1963.49 417.223 1963.49 413.473 Q1963.49 409.098 1966.41 406.876 Q1969.35 404.654 1975.16 404.654 L1981.13 404.654 L1981.13 404.237 Q1981.13 401.297 1979.19 399.7 Q1977.26 398.079 1973.77 398.079 Q1971.55 398.079 1969.44 398.612 Q1967.33 399.144 1965.39 400.209 L1965.39 396.274 Q1967.73 395.371 1969.93 394.931 Q1972.12 394.468 1974.21 394.468 Q1979.83 394.468 1982.61 397.385 Q1985.39 400.302 1985.39 406.228 Z" fill="#000000" fill-rule="evenodd" fill-opacity="1" /><path clip-path="url(#clip140)" d="M1998.37 387.732 L1998.37 395.093 L2007.15 395.093 L2007.15 398.404 L1998.37 398.404 L1998.37 412.478 Q1998.37 415.649 1999.23 416.552 Q2000.11 417.454 2002.77 417.454 L2007.15 417.454 L2007.15 421.019 L2002.77 421.019 Q1997.84 421.019 1995.97 419.19 Q1994.09 417.339 1994.09 412.478 L1994.09 398.404 L1990.97 398.404 L1990.97 395.093 L1994.09 395.093 L1994.09 387.732 L1998.37 387.732 Z" fill="#000000" fill-rule="evenodd" fill-opacity="1" /><path clip-path="url(#clip140)" d="M2012.75 385.001 L2017.01 385.001 L2017.01 421.019 L2012.75 421.019 L2012.75 385.001 Z" fill="#000000" fill-rule="evenodd" fill-opacity="1" /><path clip-path="url(#clip140)" d="M2037.7 407.987 Q2032.54 407.987 2030.55 409.167 Q2028.56 410.348 2028.56 413.195 Q2028.56 415.464 2030.04 416.806 Q2031.55 418.126 2034.12 418.126 Q2037.66 418.126 2039.79 415.626 Q2041.94 413.103 2041.94 408.936 L2041.94 407.987 L2037.7 407.987 M2046.2 406.228 L2046.2 421.019 L2041.94 421.019 L2041.94 417.084 Q2040.48 419.445 2038.31 420.579 Q2036.13 421.69 2032.98 421.69 Q2029 421.69 2026.64 419.468 Q2024.3 417.223 2024.3 413.473 Q2024.3 409.098 2027.22 406.876 Q2030.16 404.654 2035.97 404.654 L2041.94 404.654 L2041.94 404.237 Q2041.94 401.297 2039.99 399.7 Q2038.07 398.079 2034.58 398.079 Q2032.36 398.079 2030.25 398.612 Q2028.14 399.144 2026.2 400.209 L2026.2 396.274 Q2028.54 395.371 2030.74 394.931 Q2032.93 394.468 2035.02 394.468 Q2040.64 394.468 2043.42 397.385 Q2046.2 400.302 2046.2 406.228 Z" fill="#000000" fill-rule="evenodd" fill-opacity="1" /><path clip-path="url(#clip140)" d="M2073.58 408.079 Q2073.58 403.38 2071.64 400.718 Q2069.72 398.033 2066.34 398.033 Q2062.96 398.033 2061.01 400.718 Q2059.09 403.38 2059.09 408.079 Q2059.09 412.778 2061.01 415.464 Q2062.96 418.126 2066.34 418.126 Q2069.72 418.126 2071.64 415.464 Q2073.58 412.778 2073.58 408.079 M2059.09 399.029 Q2060.43 396.714 2062.47 395.603 Q2064.53 394.468 2067.38 394.468 Q2072.1 394.468 2075.04 398.218 Q2078 401.968 2078 408.079 Q2078 414.191 2075.04 417.94 Q2072.1 421.69 2067.38 421.69 Q2064.53 421.69 2062.47 420.579 Q2060.43 419.445 2059.09 417.13 L2059.09 421.019 L2054.81 421.019 L2054.81 385.001 L2059.09 385.001 L2059.09 399.029 Z" fill="#000000" fill-rule="evenodd" fill-opacity="1" /><path clip-path="url(#clip140)" d="M2104.99 390.302 L2104.99 403.288 L2110.87 403.288 Q2114.14 403.288 2115.92 401.598 Q2117.7 399.908 2117.7 396.783 Q2117.7 393.681 2115.92 391.992 Q2114.14 390.302 2110.87 390.302 L2104.99 390.302 M2100.32 386.459 L2110.87 386.459 Q2116.68 386.459 2119.65 389.098 Q2122.63 391.714 2122.63 396.783 Q2122.63 401.899 2119.65 404.515 Q2116.68 407.13 2110.87 407.13 L2104.99 407.13 L2104.99 421.019 L2100.32 421.019 L2100.32 386.459 Z" fill="#000000" fill-rule="evenodd" fill-opacity="1" /><path clip-path="url(#clip140)" d="M2128.91 386.459 L2133.58 386.459 L2133.58 421.019 L2128.91 421.019 L2128.91 386.459 Z" fill="#000000" fill-rule="evenodd" fill-opacity="1" /><path clip-path="url(#clip140)" d="M2140.55 406.135 L2153.03 406.135 L2153.03 409.931 L2140.55 409.931 L2140.55 406.135 Z" fill="#000000" fill-rule="evenodd" fill-opacity="1" /><path clip-path="url(#clip140)" d="M2159.99 386.459 L2164.67 386.459 L2164.67 421.019 L2159.99 421.019 L2159.99 386.459 Z" fill="#000000" fill-rule="evenodd" fill-opacity="1" /><path clip-path="url(#clip140)" d="M2173.98 386.459 L2180.94 386.459 L2189.76 409.978 L2198.63 386.459 L2205.6 386.459 L2205.6 421.019 L2201.04 421.019 L2201.04 390.672 L2192.12 414.376 L2187.42 414.376 L2178.51 390.672 L2178.51 421.019 L2173.98 421.019 L2173.98 386.459 Z" fill="#000000" fill-rule="evenodd" fill-opacity="1" /><path clip-path="url(#clip140)" d="M2219.32 417.084 L2235.64 417.084 L2235.64 421.019 L2213.7 421.019 L2213.7 417.084 Q2216.36 414.329 2220.94 409.7 Q2225.55 405.047 2226.73 403.704 Q2228.98 401.181 2229.85 399.445 Q2230.76 397.686 2230.76 395.996 Q2230.76 393.242 2228.81 391.505 Q2226.89 389.769 2223.79 389.769 Q2221.59 389.769 2219.14 390.533 Q2216.71 391.297 2213.93 392.848 L2213.93 388.126 Q2216.75 386.992 2219.21 386.413 Q2221.66 385.834 2223.7 385.834 Q2229.07 385.834 2232.26 388.519 Q2235.46 391.205 2235.46 395.695 Q2235.46 397.825 2234.65 399.746 Q2233.86 401.644 2231.75 404.237 Q2231.17 404.908 2228.07 408.126 Q2224.97 411.32 2219.32 417.084 Z" fill="#000000" fill-rule="evenodd" fill-opacity="1" /></svg>
