<?xml version="1.0" encoding="utf-8"?>
<svg xmlns="http://www.w3.org/2000/svg" xmlns:xlink="http://www.w3.org/1999/xlink" width="600" height="400" viewBox="0 0 2400 1600">
<defs>
  <clipPath id="clip060">
    <rect x="0" y="0" width="2400" height="1600"/>
  </clipPath>
</defs>
<path clip-path="url(#clip060)" d="
M0 1600 L2400 1600 L2400 0 L0 0  Z
  " fill="#ffffff" fill-rule="evenodd" fill-opacity="1"/>
<defs>
  <clipPath id="clip061">
    <rect x="480" y="0" width="1681" height="1600"/>
  </clipPath>
</defs>
<path clip-path="url(#clip060)" d="
M249.542 1423.18 L2352.76 1423.18 L2352.76 47.2441 L249.542 47.2441  Z
  " fill="#ffffff" fill-rule="evenodd" fill-opacity="1"/>
<defs>
  <clipPath id="clip062">
    <rect x="249" y="47" width="2104" height="1377"/>
  </clipPath>
</defs>
<polyline clip-path="url(#clip062)" style="stroke:#000000; stroke-linecap:butt; stroke-linejoin:round; stroke-width:2; stroke-opacity:0.1; fill:none" points="
  252.418,1423.18 252.418,47.2441 
  "/>
<polyline clip-path="url(#clip062)" style="stroke:#000000; stroke-linecap:butt; stroke-linejoin:round; stroke-width:2; stroke-opacity:0.1; fill:none" points="
  885.385,1423.18 885.385,47.2441 
  "/>
<polyline clip-path="url(#clip062)" style="stroke:#000000; stroke-linecap:butt; stroke-linejoin:round; stroke-width:2; stroke-opacity:0.1; fill:none" points="
  1518.35,1423.18 1518.35,47.2441 
  "/>
<polyline clip-path="url(#clip062)" style="stroke:#000000; stroke-linecap:butt; stroke-linejoin:round; stroke-width:2; stroke-opacity:0.1; fill:none" points="
  2151.32,1423.18 2151.32,47.2441 
  "/>
<polyline clip-path="url(#clip060)" style="stroke:#000000; stroke-linecap:butt; stroke-linejoin:round; stroke-width:4; stroke-opacity:1; fill:none" points="
  249.542,1423.18 2352.76,1423.18 
  "/>
<polyline clip-path="url(#clip060)" style="stroke:#000000; stroke-linecap:butt; stroke-linejoin:round; stroke-width:4; stroke-opacity:1; fill:none" points="
  249.542,47.2441 2352.76,47.2441 
  "/>
<polyline clip-path="url(#clip060)" style="stroke:#000000; stroke-linecap:butt; stroke-linejoin:round; stroke-width:4; stroke-opacity:1; fill:none" points="
  252.418,1423.18 252.418,1404.28 
  "/>
<polyline clip-path="url(#clip060)" style="stroke:#000000; stroke-linecap:butt; stroke-linejoin:round; stroke-width:4; stroke-opacity:1; fill:none" points="
  885.385,1423.18 885.385,1404.28 
  "/>
<polyline clip-path="url(#clip060)" style="stroke:#000000; stroke-linecap:butt; stroke-linejoin:round; stroke-width:4; stroke-opacity:1; fill:none" points="
  1518.35,1423.18 1518.35,1404.28 
  "/>
<polyline clip-path="url(#clip060)" style="stroke:#000000; stroke-linecap:butt; stroke-linejoin:round; stroke-width:4; stroke-opacity:1; fill:none" points="
  2151.32,1423.18 2151.32,1404.28 
  "/>
<path clip-path="url(#clip060)" d="M199.64 1454.1 Q196.029 1454.1 194.2 1457.66 Q192.395 1461.2 192.395 1468.33 Q192.395 1475.44 194.2 1479.01 Q196.029 1482.55 199.64 1482.55 Q203.275 1482.55 205.08 1479.01 Q206.909 1475.44 206.909 1468.33 Q206.909 1461.2 205.08 1457.66 Q203.275 1454.1 199.64 1454.1 M199.64 1450.39 Q205.45 1450.39 208.506 1455 Q211.585 1459.58 211.585 1468.33 Q211.585 1477.06 208.506 1481.67 Q205.45 1486.25 199.64 1486.25 Q193.83 1486.25 190.751 1481.67 Q187.696 1477.06 187.696 1468.33 Q187.696 1459.58 190.751 1455 Q193.83 1450.39 199.64 1450.39 Z" fill="#000000" fill-rule="evenodd" fill-opacity="1" /><path clip-path="url(#clip060)" d="M219.802 1479.7 L224.686 1479.7 L224.686 1485.58 L219.802 1485.58 L219.802 1479.7 Z" fill="#000000" fill-rule="evenodd" fill-opacity="1" /><path clip-path="url(#clip060)" d="M244.872 1454.1 Q241.26 1454.1 239.432 1457.66 Q237.626 1461.2 237.626 1468.33 Q237.626 1475.44 239.432 1479.01 Q241.26 1482.55 244.872 1482.55 Q248.506 1482.55 250.311 1479.01 Q252.14 1475.44 252.14 1468.33 Q252.14 1461.2 250.311 1457.66 Q248.506 1454.1 244.872 1454.1 M244.872 1450.39 Q250.682 1450.39 253.737 1455 Q256.816 1459.58 256.816 1468.33 Q256.816 1477.06 253.737 1481.67 Q250.682 1486.25 244.872 1486.25 Q239.061 1486.25 235.983 1481.67 Q232.927 1477.06 232.927 1468.33 Q232.927 1459.58 235.983 1455 Q239.061 1450.39 244.872 1450.39 Z" fill="#000000" fill-rule="evenodd" fill-opacity="1" /><path clip-path="url(#clip060)" d="M275.033 1454.1 Q271.422 1454.1 269.594 1457.66 Q267.788 1461.2 267.788 1468.33 Q267.788 1475.44 269.594 1479.01 Q271.422 1482.55 275.033 1482.55 Q278.668 1482.55 280.473 1479.01 Q282.302 1475.44 282.302 1468.33 Q282.302 1461.2 280.473 1457.66 Q278.668 1454.1 275.033 1454.1 M275.033 1450.39 Q280.844 1450.39 283.899 1455 Q286.978 1459.58 286.978 1468.33 Q286.978 1477.06 283.899 1481.67 Q280.844 1486.25 275.033 1486.25 Q269.223 1486.25 266.145 1481.67 Q263.089 1477.06 263.089 1468.33 Q263.089 1459.58 266.145 1455 Q269.223 1450.39 275.033 1450.39 Z" fill="#000000" fill-rule="evenodd" fill-opacity="1" /><path clip-path="url(#clip060)" d="M305.195 1454.1 Q301.584 1454.1 299.755 1457.66 Q297.95 1461.2 297.95 1468.33 Q297.95 1475.44 299.755 1479.01 Q301.584 1482.55 305.195 1482.55 Q308.83 1482.55 310.635 1479.01 Q312.464 1475.44 312.464 1468.33 Q312.464 1461.2 310.635 1457.66 Q308.83 1454.1 305.195 1454.1 M305.195 1450.39 Q311.005 1450.39 314.061 1455 Q317.14 1459.58 317.14 1468.33 Q317.14 1477.06 314.061 1481.67 Q311.005 1486.25 305.195 1486.25 Q299.385 1486.25 296.306 1481.67 Q293.251 1477.06 293.251 1468.33 Q293.251 1459.58 296.306 1455 Q299.385 1450.39 305.195 1450.39 Z" fill="#000000" fill-rule="evenodd" fill-opacity="1" /><path clip-path="url(#clip060)" d="M833.105 1454.1 Q829.494 1454.1 827.665 1457.66 Q825.86 1461.2 825.86 1468.33 Q825.86 1475.44 827.665 1479.01 Q829.494 1482.55 833.105 1482.55 Q836.74 1482.55 838.545 1479.01 Q840.374 1475.44 840.374 1468.33 Q840.374 1461.2 838.545 1457.66 Q836.74 1454.1 833.105 1454.1 M833.105 1450.39 Q838.915 1450.39 841.971 1455 Q845.05 1459.58 845.05 1468.33 Q845.05 1477.06 841.971 1481.67 Q838.915 1486.25 833.105 1486.25 Q827.295 1486.25 824.216 1481.67 Q821.161 1477.06 821.161 1468.33 Q821.161 1459.58 824.216 1455 Q827.295 1450.39 833.105 1450.39 Z" fill="#000000" fill-rule="evenodd" fill-opacity="1" /><path clip-path="url(#clip060)" d="M853.267 1479.7 L858.151 1479.7 L858.151 1485.58 L853.267 1485.58 L853.267 1479.7 Z" fill="#000000" fill-rule="evenodd" fill-opacity="1" /><path clip-path="url(#clip060)" d="M878.337 1454.1 Q874.725 1454.1 872.897 1457.66 Q871.091 1461.2 871.091 1468.33 Q871.091 1475.44 872.897 1479.01 Q874.725 1482.55 878.337 1482.55 Q881.971 1482.55 883.776 1479.01 Q885.605 1475.44 885.605 1468.33 Q885.605 1461.2 883.776 1457.66 Q881.971 1454.1 878.337 1454.1 M878.337 1450.39 Q884.147 1450.39 887.202 1455 Q890.281 1459.58 890.281 1468.33 Q890.281 1477.06 887.202 1481.67 Q884.147 1486.25 878.337 1486.25 Q872.526 1486.25 869.448 1481.67 Q866.392 1477.06 866.392 1468.33 Q866.392 1459.58 869.448 1455 Q872.526 1450.39 878.337 1450.39 Z" fill="#000000" fill-rule="evenodd" fill-opacity="1" /><path clip-path="url(#clip060)" d="M908.498 1454.1 Q904.887 1454.1 903.059 1457.66 Q901.253 1461.2 901.253 1468.33 Q901.253 1475.44 903.059 1479.01 Q904.887 1482.55 908.498 1482.55 Q912.133 1482.55 913.938 1479.01 Q915.767 1475.44 915.767 1468.33 Q915.767 1461.2 913.938 1457.66 Q912.133 1454.1 908.498 1454.1 M908.498 1450.39 Q914.309 1450.39 917.364 1455 Q920.443 1459.58 920.443 1468.33 Q920.443 1477.06 917.364 1481.67 Q914.309 1486.25 908.498 1486.25 Q902.688 1486.25 899.61 1481.67 Q896.554 1477.06 896.554 1468.33 Q896.554 1459.58 899.61 1455 Q902.688 1450.39 908.498 1450.39 Z" fill="#000000" fill-rule="evenodd" fill-opacity="1" /><path clip-path="url(#clip060)" d="M928.707 1451.02 L947.063 1451.02 L947.063 1454.96 L932.989 1454.96 L932.989 1463.43 Q934.008 1463.08 935.026 1462.92 Q936.045 1462.73 937.063 1462.73 Q942.85 1462.73 946.23 1465.9 Q949.609 1469.08 949.609 1474.49 Q949.609 1480.07 946.137 1483.17 Q942.665 1486.25 936.345 1486.25 Q934.17 1486.25 931.901 1485.88 Q929.656 1485.51 927.248 1484.77 L927.248 1480.07 Q929.332 1481.2 931.554 1481.76 Q933.776 1482.32 936.253 1482.32 Q940.257 1482.32 942.595 1480.21 Q944.933 1478.1 944.933 1474.49 Q944.933 1470.88 942.595 1468.77 Q940.257 1466.67 936.253 1466.67 Q934.378 1466.67 932.503 1467.08 Q930.651 1467.5 928.707 1468.38 L928.707 1451.02 Z" fill="#000000" fill-rule="evenodd" fill-opacity="1" /><path clip-path="url(#clip060)" d="M1465.57 1454.1 Q1461.96 1454.1 1460.14 1457.66 Q1458.33 1461.2 1458.33 1468.33 Q1458.33 1475.44 1460.14 1479.01 Q1461.96 1482.55 1465.57 1482.55 Q1469.21 1482.55 1471.01 1479.01 Q1472.84 1475.44 1472.84 1468.33 Q1472.84 1461.2 1471.01 1457.66 Q1469.21 1454.1 1465.57 1454.1 M1465.57 1450.39 Q1471.39 1450.39 1474.44 1455 Q1477.52 1459.58 1477.52 1468.33 Q1477.52 1477.06 1474.44 1481.67 Q1471.39 1486.25 1465.57 1486.25 Q1459.76 1486.25 1456.69 1481.67 Q1453.63 1477.06 1453.63 1468.33 Q1453.63 1459.58 1456.69 1455 Q1459.76 1450.39 1465.57 1450.39 Z" fill="#000000" fill-rule="evenodd" fill-opacity="1" /><path clip-path="url(#clip060)" d="M1485.74 1479.7 L1490.62 1479.7 L1490.62 1485.58 L1485.74 1485.58 L1485.74 1479.7 Z" fill="#000000" fill-rule="evenodd" fill-opacity="1" /><path clip-path="url(#clip060)" d="M1510.81 1454.1 Q1507.2 1454.1 1505.37 1457.66 Q1503.56 1461.2 1503.56 1468.33 Q1503.56 1475.44 1505.37 1479.01 Q1507.2 1482.55 1510.81 1482.55 Q1514.44 1482.55 1516.25 1479.01 Q1518.07 1475.44 1518.07 1468.33 Q1518.07 1461.2 1516.25 1457.66 Q1514.44 1454.1 1510.81 1454.1 M1510.81 1450.39 Q1516.62 1450.39 1519.67 1455 Q1522.75 1459.58 1522.75 1468.33 Q1522.75 1477.06 1519.67 1481.67 Q1516.62 1486.25 1510.81 1486.25 Q1505 1486.25 1501.92 1481.67 Q1498.86 1477.06 1498.86 1468.33 Q1498.86 1459.58 1501.92 1455 Q1505 1450.39 1510.81 1450.39 Z" fill="#000000" fill-rule="evenodd" fill-opacity="1" /><path clip-path="url(#clip060)" d="M1531.78 1481.64 L1539.42 1481.64 L1539.42 1455.28 L1531.11 1456.95 L1531.11 1452.69 L1539.37 1451.02 L1544.05 1451.02 L1544.05 1481.64 L1551.69 1481.64 L1551.69 1485.58 L1531.78 1485.58 L1531.78 1481.64 Z" fill="#000000" fill-rule="evenodd" fill-opacity="1" /><path clip-path="url(#clip060)" d="M1571.13 1454.1 Q1567.52 1454.1 1565.69 1457.66 Q1563.88 1461.2 1563.88 1468.33 Q1563.88 1475.44 1565.69 1479.01 Q1567.52 1482.55 1571.13 1482.55 Q1574.76 1482.55 1576.57 1479.01 Q1578.4 1475.44 1578.4 1468.33 Q1578.4 1461.2 1576.57 1457.66 Q1574.76 1454.1 1571.13 1454.1 M1571.13 1450.39 Q1576.94 1450.39 1580 1455 Q1583.07 1459.58 1583.07 1468.33 Q1583.07 1477.06 1580 1481.67 Q1576.94 1486.25 1571.13 1486.25 Q1565.32 1486.25 1562.24 1481.67 Q1559.19 1477.06 1559.19 1468.33 Q1559.19 1459.58 1562.24 1455 Q1565.32 1450.39 1571.13 1450.39 Z" fill="#000000" fill-rule="evenodd" fill-opacity="1" /><path clip-path="url(#clip060)" d="M2099.04 1454.1 Q2095.43 1454.1 2093.6 1457.66 Q2091.79 1461.2 2091.79 1468.33 Q2091.79 1475.44 2093.6 1479.01 Q2095.43 1482.55 2099.04 1482.55 Q2102.67 1482.55 2104.48 1479.01 Q2106.31 1475.44 2106.31 1468.33 Q2106.31 1461.2 2104.48 1457.66 Q2102.67 1454.1 2099.04 1454.1 M2099.04 1450.39 Q2104.85 1450.39 2107.91 1455 Q2110.98 1459.58 2110.98 1468.33 Q2110.98 1477.06 2107.91 1481.67 Q2104.85 1486.25 2099.04 1486.25 Q2093.23 1486.25 2090.15 1481.67 Q2087.1 1477.06 2087.1 1468.33 Q2087.1 1459.58 2090.15 1455 Q2093.23 1450.39 2099.04 1450.39 Z" fill="#000000" fill-rule="evenodd" fill-opacity="1" /><path clip-path="url(#clip060)" d="M2119.2 1479.7 L2124.09 1479.7 L2124.09 1485.58 L2119.2 1485.58 L2119.2 1479.7 Z" fill="#000000" fill-rule="evenodd" fill-opacity="1" /><path clip-path="url(#clip060)" d="M2144.27 1454.1 Q2140.66 1454.1 2138.83 1457.66 Q2137.03 1461.2 2137.03 1468.33 Q2137.03 1475.44 2138.83 1479.01 Q2140.66 1482.55 2144.27 1482.55 Q2147.91 1482.55 2149.71 1479.01 Q2151.54 1475.44 2151.54 1468.33 Q2151.54 1461.2 2149.71 1457.66 Q2147.91 1454.1 2144.27 1454.1 M2144.27 1450.39 Q2150.08 1450.39 2153.14 1455 Q2156.22 1459.58 2156.22 1468.33 Q2156.22 1477.06 2153.14 1481.67 Q2150.08 1486.25 2144.27 1486.25 Q2138.46 1486.25 2135.38 1481.67 Q2132.33 1477.06 2132.33 1468.33 Q2132.33 1459.58 2135.38 1455 Q2138.46 1450.39 2144.27 1450.39 Z" fill="#000000" fill-rule="evenodd" fill-opacity="1" /><path clip-path="url(#clip060)" d="M2165.24 1481.64 L2172.88 1481.64 L2172.88 1455.28 L2164.57 1456.95 L2164.57 1452.69 L2172.84 1451.02 L2177.51 1451.02 L2177.51 1481.64 L2185.15 1481.64 L2185.15 1485.58 L2165.24 1485.58 L2165.24 1481.64 Z" fill="#000000" fill-rule="evenodd" fill-opacity="1" /><path clip-path="url(#clip060)" d="M2194.64 1451.02 L2213 1451.02 L2213 1454.96 L2198.92 1454.96 L2198.92 1463.43 Q2199.94 1463.08 2200.96 1462.92 Q2201.98 1462.73 2203 1462.73 Q2208.78 1462.73 2212.16 1465.9 Q2215.54 1469.08 2215.54 1474.49 Q2215.54 1480.07 2212.07 1483.17 Q2208.6 1486.25 2202.28 1486.25 Q2200.1 1486.25 2197.84 1485.88 Q2195.59 1485.51 2193.18 1484.77 L2193.18 1480.07 Q2195.27 1481.2 2197.49 1481.76 Q2199.71 1482.32 2202.19 1482.32 Q2206.19 1482.32 2208.53 1480.21 Q2210.87 1478.1 2210.87 1474.49 Q2210.87 1470.88 2208.53 1468.77 Q2206.19 1466.67 2202.19 1466.67 Q2200.31 1466.67 2198.44 1467.08 Q2196.59 1467.5 2194.64 1468.38 L2194.64 1451.02 Z" fill="#000000" fill-rule="evenodd" fill-opacity="1" /><path clip-path="url(#clip060)" d="M992.524 1520.52 L1022.57 1520.52 L1022.57 1525.93 L998.953 1525.93 L998.953 1540 L1021.58 1540 L1021.58 1545.41 L998.953 1545.41 L998.953 1562.63 L1023.14 1562.63 L1023.14 1568.04 L992.524 1568.04 L992.524 1520.52 Z" fill="#000000" fill-rule="evenodd" fill-opacity="1" /><path clip-path="url(#clip060)" d="M1063.09 1532.4 L1050.2 1549.74 L1063.76 1568.04 L1056.85 1568.04 L1046.47 1554.04 L1036.1 1568.04 L1029.19 1568.04 L1043.04 1549.39 L1030.37 1532.4 L1037.27 1532.4 L1046.73 1545.1 L1056.18 1532.4 L1063.09 1532.4 Z" fill="#000000" fill-rule="evenodd" fill-opacity="1" /><path clip-path="url(#clip060)" d="M1100.52 1548.76 L1100.52 1551.62 L1073.59 1551.62 Q1073.97 1557.67 1077.22 1560.85 Q1080.5 1564 1086.32 1564 Q1089.7 1564 1092.85 1563.17 Q1096.03 1562.35 1099.15 1560.69 L1099.15 1566.23 Q1096 1567.57 1092.69 1568.27 Q1089.38 1568.97 1085.97 1568.97 Q1077.44 1568.97 1072.45 1564 Q1067.48 1559.04 1067.48 1550.57 Q1067.48 1541.82 1072.19 1536.69 Q1076.93 1531.54 1084.95 1531.54 Q1092.15 1531.54 1096.32 1536.18 Q1100.52 1540.8 1100.52 1548.76 M1094.66 1547.04 Q1094.6 1542.23 1091.96 1539.37 Q1089.35 1536.5 1085.02 1536.5 Q1080.12 1536.5 1077.16 1539.27 Q1074.23 1542.04 1073.78 1547.07 L1094.66 1547.04 Z" fill="#000000" fill-rule="evenodd" fill-opacity="1" /><path clip-path="url(#clip060)" d="M1135.78 1533.76 L1135.78 1539.24 Q1133.3 1537.87 1130.79 1537.2 Q1128.3 1536.5 1125.76 1536.5 Q1120.06 1536.5 1116.91 1540.13 Q1113.76 1543.73 1113.76 1550.25 Q1113.76 1556.78 1116.91 1560.4 Q1120.06 1564 1125.76 1564 Q1128.3 1564 1130.79 1563.33 Q1133.3 1562.63 1135.78 1561.26 L1135.78 1566.68 Q1133.33 1567.82 1130.69 1568.39 Q1128.08 1568.97 1125.12 1568.97 Q1117.07 1568.97 1112.33 1563.91 Q1107.58 1558.85 1107.58 1550.25 Q1107.58 1541.53 1112.36 1536.53 Q1117.16 1531.54 1125.5 1531.54 Q1128.21 1531.54 1130.79 1532.11 Q1133.36 1532.65 1135.78 1533.76 Z" fill="#000000" fill-rule="evenodd" fill-opacity="1" /><path clip-path="url(#clip060)" d="M1145.36 1553.98 L1145.36 1532.4 L1151.22 1532.4 L1151.22 1553.75 Q1151.22 1558.81 1153.19 1561.36 Q1155.17 1563.87 1159.11 1563.87 Q1163.86 1563.87 1166.59 1560.85 Q1169.36 1557.83 1169.36 1552.61 L1169.36 1532.4 L1175.22 1532.4 L1175.22 1568.04 L1169.36 1568.04 L1169.36 1562.57 Q1167.23 1565.82 1164.4 1567.41 Q1161.6 1568.97 1157.87 1568.97 Q1151.73 1568.97 1148.55 1565.15 Q1145.36 1561.33 1145.36 1553.98 M1160.1 1531.54 L1160.1 1531.54 Z" fill="#000000" fill-rule="evenodd" fill-opacity="1" /><path clip-path="url(#clip060)" d="M1193.08 1522.27 L1193.08 1532.4 L1205.14 1532.4 L1205.14 1536.95 L1193.08 1536.95 L1193.08 1556.3 Q1193.08 1560.66 1194.25 1561.9 Q1195.46 1563.14 1199.12 1563.14 L1205.14 1563.14 L1205.14 1568.04 L1199.12 1568.04 Q1192.34 1568.04 1189.77 1565.53 Q1187.19 1562.98 1187.19 1556.3 L1187.19 1536.95 L1182.89 1536.95 L1182.89 1532.4 L1187.19 1532.4 L1187.19 1522.27 L1193.08 1522.27 Z" fill="#000000" fill-rule="evenodd" fill-opacity="1" /><path clip-path="url(#clip060)" d="M1212.84 1532.4 L1218.7 1532.4 L1218.7 1568.04 L1212.84 1568.04 L1212.84 1532.4 M1212.84 1518.52 L1218.7 1518.52 L1218.7 1525.93 L1212.84 1525.93 L1212.84 1518.52 Z" fill="#000000" fill-rule="evenodd" fill-opacity="1" /><path clip-path="url(#clip060)" d="M1244.76 1536.5 Q1240.05 1536.5 1237.32 1540.19 Q1234.58 1543.85 1234.58 1550.25 Q1234.58 1556.65 1237.29 1560.34 Q1240.02 1564 1244.76 1564 Q1249.44 1564 1252.18 1560.31 Q1254.92 1556.62 1254.92 1550.25 Q1254.92 1543.92 1252.18 1540.23 Q1249.44 1536.5 1244.76 1536.5 M1244.76 1531.54 Q1252.4 1531.54 1256.76 1536.5 Q1261.12 1541.47 1261.12 1550.25 Q1261.12 1559 1256.76 1564 Q1252.4 1568.97 1244.76 1568.97 Q1237.09 1568.97 1232.73 1564 Q1228.4 1559 1228.4 1550.25 Q1228.4 1541.47 1232.73 1536.5 Q1237.09 1531.54 1244.76 1531.54 Z" fill="#000000" fill-rule="evenodd" fill-opacity="1" /><path clip-path="url(#clip060)" d="M1300.46 1546.53 L1300.46 1568.04 L1294.61 1568.04 L1294.61 1546.72 Q1294.61 1541.66 1292.63 1539.14 Q1290.66 1536.63 1286.71 1536.63 Q1281.97 1536.63 1279.24 1539.65 Q1276.5 1542.68 1276.5 1547.9 L1276.5 1568.04 L1270.61 1568.04 L1270.61 1532.4 L1276.5 1532.4 L1276.5 1537.93 Q1278.6 1534.72 1281.43 1533.13 Q1284.3 1531.54 1288.02 1531.54 Q1294.16 1531.54 1297.31 1535.36 Q1300.46 1539.14 1300.46 1546.53 Z" fill="#000000" fill-rule="evenodd" fill-opacity="1" /><path clip-path="url(#clip060)" d="M1338.66 1522.27 L1338.66 1532.4 L1350.72 1532.4 L1350.72 1536.95 L1338.66 1536.95 L1338.66 1556.3 Q1338.66 1560.66 1339.84 1561.9 Q1341.05 1563.14 1344.71 1563.14 L1350.72 1563.14 L1350.72 1568.04 L1344.71 1568.04 Q1337.93 1568.04 1335.35 1565.53 Q1332.77 1562.98 1332.77 1556.3 L1332.77 1536.95 L1328.47 1536.95 L1328.47 1532.4 L1332.77 1532.4 L1332.77 1522.27 L1338.66 1522.27 Z" fill="#000000" fill-rule="evenodd" fill-opacity="1" /><path clip-path="url(#clip060)" d="M1358.42 1532.4 L1364.28 1532.4 L1364.28 1568.04 L1358.42 1568.04 L1358.42 1532.4 M1358.42 1518.52 L1364.28 1518.52 L1364.28 1525.93 L1358.42 1525.93 L1358.42 1518.52 Z" fill="#000000" fill-rule="evenodd" fill-opacity="1" /><path clip-path="url(#clip060)" d="M1404.29 1539.24 Q1406.49 1535.29 1409.54 1533.41 Q1412.6 1531.54 1416.73 1531.54 Q1422.3 1531.54 1425.33 1535.45 Q1428.35 1539.33 1428.35 1546.53 L1428.35 1568.04 L1422.46 1568.04 L1422.46 1546.72 Q1422.46 1541.59 1420.65 1539.11 Q1418.83 1536.63 1415.11 1536.63 Q1410.56 1536.63 1407.92 1539.65 Q1405.28 1542.68 1405.28 1547.9 L1405.28 1568.04 L1399.39 1568.04 L1399.39 1546.72 Q1399.39 1541.56 1397.57 1539.11 Q1395.76 1536.63 1391.97 1536.63 Q1387.48 1536.63 1384.84 1539.68 Q1382.2 1542.71 1382.2 1547.9 L1382.2 1568.04 L1376.31 1568.04 L1376.31 1532.4 L1382.2 1532.4 L1382.2 1537.93 Q1384.21 1534.66 1387.01 1533.1 Q1389.81 1531.54 1393.66 1531.54 Q1397.54 1531.54 1400.25 1533.51 Q1402.98 1535.48 1404.29 1539.24 Z" fill="#000000" fill-rule="evenodd" fill-opacity="1" /><path clip-path="url(#clip060)" d="M1470.52 1548.76 L1470.52 1551.62 L1443.6 1551.62 Q1443.98 1557.67 1447.23 1560.85 Q1450.5 1564 1456.33 1564 Q1459.7 1564 1462.85 1563.17 Q1466.04 1562.35 1469.16 1560.69 L1469.16 1566.23 Q1466 1567.57 1462.69 1568.27 Q1459.38 1568.97 1455.98 1568.97 Q1447.45 1568.97 1442.45 1564 Q1437.49 1559.04 1437.49 1550.57 Q1437.49 1541.82 1442.2 1536.69 Q1446.94 1531.54 1454.96 1531.54 Q1462.15 1531.54 1466.32 1536.18 Q1470.52 1540.8 1470.52 1548.76 M1464.67 1547.04 Q1464.6 1542.23 1461.96 1539.37 Q1459.35 1536.5 1455.02 1536.5 Q1450.12 1536.5 1447.16 1539.27 Q1444.23 1542.04 1443.79 1547.07 L1464.67 1547.04 Z" fill="#000000" fill-rule="evenodd" fill-opacity="1" /><path clip-path="url(#clip060)" d="M1514.93 1518.58 Q1510.66 1525.9 1508.59 1533.06 Q1506.52 1540.23 1506.52 1547.58 Q1506.52 1554.93 1508.59 1562.16 Q1510.69 1569.35 1514.93 1576.64 L1509.83 1576.64 Q1505.06 1569.16 1502.67 1561.93 Q1500.32 1554.71 1500.32 1547.58 Q1500.32 1540.48 1502.67 1533.29 Q1505.03 1526.09 1509.83 1518.58 L1514.93 1518.58 Z" fill="#000000" fill-rule="evenodd" fill-opacity="1" /><path clip-path="url(#clip060)" d="M1549.01 1533.45 L1549.01 1538.98 Q1546.53 1537.71 1543.86 1537.07 Q1541.18 1536.44 1538.32 1536.44 Q1533.96 1536.44 1531.76 1537.77 Q1529.6 1539.11 1529.6 1541.79 Q1529.6 1543.82 1531.16 1545 Q1532.72 1546.15 1537.43 1547.2 L1539.43 1547.64 Q1545.67 1548.98 1548.28 1551.43 Q1550.92 1553.85 1550.92 1558.21 Q1550.92 1563.17 1546.98 1566.07 Q1543.06 1568.97 1536.19 1568.97 Q1533.32 1568.97 1530.2 1568.39 Q1527.12 1567.85 1523.68 1566.74 L1523.68 1560.69 Q1526.92 1562.38 1530.08 1563.24 Q1533.23 1564.07 1536.31 1564.07 Q1540.45 1564.07 1542.68 1562.66 Q1544.91 1561.23 1544.91 1558.65 Q1544.91 1556.27 1543.28 1554.99 Q1541.69 1553.72 1536.25 1552.54 L1534.21 1552.07 Q1528.77 1550.92 1526.35 1548.56 Q1523.93 1546.18 1523.93 1542.04 Q1523.93 1537.01 1527.5 1534.27 Q1531.06 1531.54 1537.62 1531.54 Q1540.87 1531.54 1543.73 1532.01 Q1546.59 1532.49 1549.01 1533.45 Z" fill="#000000" fill-rule="evenodd" fill-opacity="1" /><path clip-path="url(#clip060)" d="M1585.9 1533.76 L1585.9 1539.24 Q1583.42 1537.87 1580.91 1537.2 Q1578.42 1536.5 1575.88 1536.5 Q1570.18 1536.5 1567.03 1540.13 Q1563.88 1543.73 1563.88 1550.25 Q1563.88 1556.78 1567.03 1560.4 Q1570.18 1564 1575.88 1564 Q1578.42 1564 1580.91 1563.33 Q1583.42 1562.63 1585.9 1561.26 L1585.9 1566.68 Q1583.45 1567.82 1580.81 1568.39 Q1578.2 1568.97 1575.24 1568.97 Q1567.19 1568.97 1562.45 1563.91 Q1557.7 1558.85 1557.7 1550.25 Q1557.7 1541.53 1562.48 1536.53 Q1567.28 1531.54 1575.62 1531.54 Q1578.33 1531.54 1580.91 1532.11 Q1583.48 1532.65 1585.9 1533.76 Z" fill="#000000" fill-rule="evenodd" fill-opacity="1" /><path clip-path="url(#clip060)" d="M1595.17 1518.58 L1600.26 1518.58 Q1605.03 1526.09 1607.39 1533.29 Q1609.77 1540.48 1609.77 1547.58 Q1609.77 1554.71 1607.39 1561.93 Q1605.03 1569.16 1600.26 1576.64 L1595.17 1576.64 Q1599.4 1569.35 1601.47 1562.16 Q1603.57 1554.93 1603.57 1547.58 Q1603.57 1540.23 1601.47 1533.06 Q1599.4 1525.9 1595.17 1518.58 Z" fill="#000000" fill-rule="evenodd" fill-opacity="1" /><polyline clip-path="url(#clip062)" style="stroke:#000000; stroke-linecap:butt; stroke-linejoin:round; stroke-width:2; stroke-opacity:0.1; fill:none" points="
  249.542,1402.25 2352.76,1402.25 
  "/>
<polyline clip-path="url(#clip062)" style="stroke:#000000; stroke-linecap:butt; stroke-linejoin:round; stroke-width:2; stroke-opacity:0.1; fill:none" points="
  249.542,986.501 2352.76,986.501 
  "/>
<polyline clip-path="url(#clip062)" style="stroke:#000000; stroke-linecap:butt; stroke-linejoin:round; stroke-width:2; stroke-opacity:0.1; fill:none" points="
  249.542,570.751 2352.76,570.751 
  "/>
<polyline clip-path="url(#clip062)" style="stroke:#000000; stroke-linecap:butt; stroke-linejoin:round; stroke-width:2; stroke-opacity:0.1; fill:none" points="
  249.542,155.001 2352.76,155.001 
  "/>
<polyline clip-path="url(#clip060)" style="stroke:#000000; stroke-linecap:butt; stroke-linejoin:round; stroke-width:4; stroke-opacity:1; fill:none" points="
  249.542,1423.18 249.542,47.2441 
  "/>
<polyline clip-path="url(#clip060)" style="stroke:#000000; stroke-linecap:butt; stroke-linejoin:round; stroke-width:4; stroke-opacity:1; fill:none" points="
  2352.76,1423.18 2352.76,47.2441 
  "/>
<polyline clip-path="url(#clip060)" style="stroke:#000000; stroke-linecap:butt; stroke-linejoin:round; stroke-width:4; stroke-opacity:1; fill:none" points="
  249.542,1402.25 268.44,1402.25 
  "/>
<polyline clip-path="url(#clip060)" style="stroke:#000000; stroke-linecap:butt; stroke-linejoin:round; stroke-width:4; stroke-opacity:1; fill:none" points="
  249.542,986.501 268.44,986.501 
  "/>
<polyline clip-path="url(#clip060)" style="stroke:#000000; stroke-linecap:butt; stroke-linejoin:round; stroke-width:4; stroke-opacity:1; fill:none" points="
  249.542,570.751 268.44,570.751 
  "/>
<polyline clip-path="url(#clip060)" style="stroke:#000000; stroke-linecap:butt; stroke-linejoin:round; stroke-width:4; stroke-opacity:1; fill:none" points="
  249.542,155.001 268.44,155.001 
  "/>
<path clip-path="url(#clip060)" d="M126.205 1388.05 Q122.593 1388.05 120.765 1391.61 Q118.959 1395.16 118.959 1402.29 Q118.959 1409.39 120.765 1412.96 Q122.593 1416.5 126.205 1416.5 Q129.839 1416.5 131.644 1412.96 Q133.473 1409.39 133.473 1402.29 Q133.473 1395.16 131.644 1391.61 Q129.839 1388.05 126.205 1388.05 M126.205 1384.35 Q132.015 1384.35 135.07 1388.95 Q138.149 1393.54 138.149 1402.29 Q138.149 1411.01 135.07 1415.62 Q132.015 1420.2 126.205 1420.2 Q120.394 1420.2 117.316 1415.62 Q114.26 1411.01 114.26 1402.29 Q114.26 1393.54 117.316 1388.95 Q120.394 1384.35 126.205 1384.35 Z" fill="#000000" fill-rule="evenodd" fill-opacity="1" /><path clip-path="url(#clip060)" d="M146.366 1413.65 L151.251 1413.65 L151.251 1419.53 L146.366 1419.53 L146.366 1413.65 Z" fill="#000000" fill-rule="evenodd" fill-opacity="1" /><path clip-path="url(#clip060)" d="M171.436 1388.05 Q167.825 1388.05 165.996 1391.61 Q164.19 1395.16 164.19 1402.29 Q164.19 1409.39 165.996 1412.96 Q167.825 1416.5 171.436 1416.5 Q175.07 1416.5 176.876 1412.96 Q178.704 1409.39 178.704 1402.29 Q178.704 1395.16 176.876 1391.61 Q175.07 1388.05 171.436 1388.05 M171.436 1384.35 Q177.246 1384.35 180.301 1388.95 Q183.38 1393.54 183.38 1402.29 Q183.38 1411.01 180.301 1415.62 Q177.246 1420.2 171.436 1420.2 Q165.626 1420.2 162.547 1415.62 Q159.491 1411.01 159.491 1402.29 Q159.491 1393.54 162.547 1388.95 Q165.626 1384.35 171.436 1384.35 Z" fill="#000000" fill-rule="evenodd" fill-opacity="1" /><path clip-path="url(#clip060)" d="M201.598 1388.05 Q197.987 1388.05 196.158 1391.61 Q194.352 1395.16 194.352 1402.29 Q194.352 1409.39 196.158 1412.96 Q197.987 1416.5 201.598 1416.5 Q205.232 1416.5 207.037 1412.96 Q208.866 1409.39 208.866 1402.29 Q208.866 1395.16 207.037 1391.61 Q205.232 1388.05 201.598 1388.05 M201.598 1384.35 Q207.408 1384.35 210.463 1388.95 Q213.542 1393.54 213.542 1402.29 Q213.542 1411.01 210.463 1415.62 Q207.408 1420.2 201.598 1420.2 Q195.787 1420.2 192.709 1415.62 Q189.653 1411.01 189.653 1402.29 Q189.653 1393.54 192.709 1388.95 Q195.787 1384.35 201.598 1384.35 Z" fill="#000000" fill-rule="evenodd" fill-opacity="1" /><path clip-path="url(#clip060)" d="M127.2 972.3 Q123.589 972.3 121.76 975.865 Q119.955 979.406 119.955 986.536 Q119.955 993.642 121.76 997.207 Q123.589 1000.75 127.2 1000.75 Q130.834 1000.75 132.64 997.207 Q134.468 993.642 134.468 986.536 Q134.468 979.406 132.64 975.865 Q130.834 972.3 127.2 972.3 M127.2 968.596 Q133.01 968.596 136.066 973.203 Q139.144 977.786 139.144 986.536 Q139.144 995.263 136.066 999.869 Q133.01 1004.45 127.2 1004.45 Q121.39 1004.45 118.311 999.869 Q115.256 995.263 115.256 986.536 Q115.256 977.786 118.311 973.203 Q121.39 968.596 127.2 968.596 Z" fill="#000000" fill-rule="evenodd" fill-opacity="1" /><path clip-path="url(#clip060)" d="M147.362 997.902 L152.246 997.902 L152.246 1003.78 L147.362 1003.78 L147.362 997.902 Z" fill="#000000" fill-rule="evenodd" fill-opacity="1" /><path clip-path="url(#clip060)" d="M172.431 972.3 Q168.82 972.3 166.991 975.865 Q165.186 979.406 165.186 986.536 Q165.186 993.642 166.991 997.207 Q168.82 1000.75 172.431 1000.75 Q176.065 1000.75 177.871 997.207 Q179.7 993.642 179.7 986.536 Q179.7 979.406 177.871 975.865 Q176.065 972.3 172.431 972.3 M172.431 968.596 Q178.241 968.596 181.297 973.203 Q184.376 977.786 184.376 986.536 Q184.376 995.263 181.297 999.869 Q178.241 1004.45 172.431 1004.45 Q166.621 1004.45 163.542 999.869 Q160.487 995.263 160.487 986.536 Q160.487 977.786 163.542 973.203 Q166.621 968.596 172.431 968.596 Z" fill="#000000" fill-rule="evenodd" fill-opacity="1" /><path clip-path="url(#clip060)" d="M192.639 969.221 L210.996 969.221 L210.996 973.156 L196.922 973.156 L196.922 981.628 Q197.94 981.281 198.959 981.119 Q199.977 980.934 200.996 980.934 Q206.783 980.934 210.162 984.105 Q213.542 987.277 213.542 992.693 Q213.542 998.272 210.07 1001.37 Q206.598 1004.45 200.278 1004.45 Q198.102 1004.45 195.834 1004.08 Q193.588 1003.71 191.181 1002.97 L191.181 998.272 Q193.264 999.406 195.487 999.962 Q197.709 1000.52 200.186 1000.52 Q204.19 1000.52 206.528 998.411 Q208.866 996.304 208.866 992.693 Q208.866 989.082 206.528 986.976 Q204.19 984.869 200.186 984.869 Q198.311 984.869 196.436 985.286 Q194.584 985.703 192.639 986.582 L192.639 969.221 Z" fill="#000000" fill-rule="evenodd" fill-opacity="1" /><path clip-path="url(#clip060)" d="M126.205 556.55 Q122.593 556.55 120.765 560.115 Q118.959 563.656 118.959 570.786 Q118.959 577.892 120.765 581.457 Q122.593 584.999 126.205 584.999 Q129.839 584.999 131.644 581.457 Q133.473 577.892 133.473 570.786 Q133.473 563.656 131.644 560.115 Q129.839 556.55 126.205 556.55 M126.205 552.846 Q132.015 552.846 135.07 557.453 Q138.149 562.036 138.149 570.786 Q138.149 579.513 135.07 584.119 Q132.015 588.703 126.205 588.703 Q120.394 588.703 117.316 584.119 Q114.26 579.513 114.26 570.786 Q114.26 562.036 117.316 557.453 Q120.394 552.846 126.205 552.846 Z" fill="#000000" fill-rule="evenodd" fill-opacity="1" /><path clip-path="url(#clip060)" d="M146.366 582.152 L151.251 582.152 L151.251 588.031 L146.366 588.031 L146.366 582.152 Z" fill="#000000" fill-rule="evenodd" fill-opacity="1" /><path clip-path="url(#clip060)" d="M162.246 584.096 L169.885 584.096 L169.885 557.73 L161.575 559.397 L161.575 555.138 L169.839 553.471 L174.514 553.471 L174.514 584.096 L182.153 584.096 L182.153 588.031 L162.246 588.031 L162.246 584.096 Z" fill="#000000" fill-rule="evenodd" fill-opacity="1" /><path clip-path="url(#clip060)" d="M201.598 556.55 Q197.987 556.55 196.158 560.115 Q194.352 563.656 194.352 570.786 Q194.352 577.892 196.158 581.457 Q197.987 584.999 201.598 584.999 Q205.232 584.999 207.037 581.457 Q208.866 577.892 208.866 570.786 Q208.866 563.656 207.037 560.115 Q205.232 556.55 201.598 556.55 M201.598 552.846 Q207.408 552.846 210.463 557.453 Q213.542 562.036 213.542 570.786 Q213.542 579.513 210.463 584.119 Q207.408 588.703 201.598 588.703 Q195.787 588.703 192.709 584.119 Q189.653 579.513 189.653 570.786 Q189.653 562.036 192.709 557.453 Q195.787 552.846 201.598 552.846 Z" fill="#000000" fill-rule="evenodd" fill-opacity="1" /><path clip-path="url(#clip060)" d="M127.2 140.8 Q123.589 140.8 121.76 144.365 Q119.955 147.906 119.955 155.036 Q119.955 162.143 121.76 165.707 Q123.589 169.249 127.2 169.249 Q130.834 169.249 132.64 165.707 Q134.468 162.143 134.468 155.036 Q134.468 147.906 132.64 144.365 Q130.834 140.8 127.2 140.8 M127.2 137.096 Q133.01 137.096 136.066 141.703 Q139.144 146.286 139.144 155.036 Q139.144 163.763 136.066 168.369 Q133.01 172.953 127.2 172.953 Q121.39 172.953 118.311 168.369 Q115.256 163.763 115.256 155.036 Q115.256 146.286 118.311 141.703 Q121.39 137.096 127.2 137.096 Z" fill="#000000" fill-rule="evenodd" fill-opacity="1" /><path clip-path="url(#clip060)" d="M147.362 166.402 L152.246 166.402 L152.246 172.281 L147.362 172.281 L147.362 166.402 Z" fill="#000000" fill-rule="evenodd" fill-opacity="1" /><path clip-path="url(#clip060)" d="M163.241 168.346 L170.88 168.346 L170.88 141.981 L162.57 143.647 L162.57 139.388 L170.834 137.721 L175.51 137.721 L175.51 168.346 L183.149 168.346 L183.149 172.281 L163.241 172.281 L163.241 168.346 Z" fill="#000000" fill-rule="evenodd" fill-opacity="1" /><path clip-path="url(#clip060)" d="M192.639 137.721 L210.996 137.721 L210.996 141.657 L196.922 141.657 L196.922 150.129 Q197.94 149.781 198.959 149.619 Q199.977 149.434 200.996 149.434 Q206.783 149.434 210.162 152.606 Q213.542 155.777 213.542 161.193 Q213.542 166.772 210.07 169.874 Q206.598 172.953 200.278 172.953 Q198.102 172.953 195.834 172.582 Q193.588 172.212 191.181 171.471 L191.181 166.772 Q193.264 167.906 195.487 168.462 Q197.709 169.017 200.186 169.017 Q204.19 169.017 206.528 166.911 Q208.866 164.805 208.866 161.193 Q208.866 157.582 206.528 155.476 Q204.19 153.369 200.186 153.369 Q198.311 153.369 196.436 153.786 Q194.584 154.203 192.639 155.082 L192.639 137.721 Z" fill="#000000" fill-rule="evenodd" fill-opacity="1" /><path clip-path="url(#clip060)" d="M16.4842 947.126 L16.4842 917.08 L21.895 917.08 L21.895 940.697 L35.9632 940.697 L35.9632 918.067 L41.3741 918.067 L41.3741 940.697 L58.5933 940.697 L58.5933 916.507 L64.0042 916.507 L64.0042 947.126 L16.4842 947.126 Z" fill="#000000" fill-rule="evenodd" fill-opacity="1" /><path clip-path="url(#clip060)" d="M33.8307 885.538 Q33.2578 886.525 33.0032 887.702 Q32.7167 888.848 32.7167 890.249 Q32.7167 895.214 35.9632 897.888 Q39.1779 900.529 45.2253 900.529 L64.0042 900.529 L64.0042 906.418 L28.3562 906.418 L28.3562 900.529 L33.8944 900.529 Q30.6479 898.683 29.0883 895.723 Q27.4968 892.763 27.4968 888.53 Q27.4968 887.925 27.5923 887.193 Q27.656 886.461 27.8151 885.57 L33.8307 885.538 Z" fill="#000000" fill-rule="evenodd" fill-opacity="1" /><path clip-path="url(#clip060)" d="M33.8307 859.884 Q33.2578 860.871 33.0032 862.049 Q32.7167 863.195 32.7167 864.595 Q32.7167 869.56 35.9632 872.234 Q39.1779 874.876 45.2253 874.876 L64.0042 874.876 L64.0042 880.764 L28.3562 880.764 L28.3562 874.876 L33.8944 874.876 Q30.6479 873.03 29.0883 870.069 Q27.4968 867.109 27.4968 862.876 Q27.4968 862.271 27.5923 861.539 Q27.656 860.807 27.8151 859.916 L33.8307 859.884 Z" fill="#000000" fill-rule="evenodd" fill-opacity="1" /><path clip-path="url(#clip060)" d="M32.4621 841.36 Q32.4621 846.071 36.1542 848.808 Q39.8145 851.545 46.212 851.545 Q52.6095 851.545 56.3017 848.84 Q59.9619 846.103 59.9619 841.36 Q59.9619 836.681 56.2698 833.944 Q52.5777 831.207 46.212 831.207 Q39.8781 831.207 36.186 833.944 Q32.4621 836.681 32.4621 841.36 M27.4968 841.36 Q27.4968 833.721 32.4621 829.361 Q37.4273 825 46.212 825 Q54.9649 825 59.9619 829.361 Q64.9272 833.721 64.9272 841.36 Q64.9272 849.031 59.9619 853.391 Q54.9649 857.72 46.212 857.72 Q37.4273 857.72 32.4621 853.391 Q27.4968 849.031 27.4968 841.36 Z" fill="#000000" fill-rule="evenodd" fill-opacity="1" /><path clip-path="url(#clip060)" d="M33.8307 794.636 Q33.2578 795.623 33.0032 796.8 Q32.7167 797.946 32.7167 799.346 Q32.7167 804.312 35.9632 806.985 Q39.1779 809.627 45.2253 809.627 L64.0042 809.627 L64.0042 815.515 L28.3562 815.515 L28.3562 809.627 L33.8944 809.627 Q30.6479 807.781 29.0883 804.821 Q27.4968 801.861 27.4968 797.628 Q27.4968 797.023 27.5923 796.291 Q27.656 795.559 27.8151 794.668 L33.8307 794.636 Z" fill="#000000" fill-rule="evenodd" fill-opacity="1" /><path clip-path="url(#clip060)" d="M55.9197 788.143 L55.9197 781.427 L64.0042 781.427 L64.0042 788.143 L55.9197 788.143 M30.2977 788.143 L30.2977 781.427 L38.3822 781.427 L38.3822 788.143 L30.2977 788.143 Z" fill="#000000" fill-rule="evenodd" fill-opacity="1" /><path clip-path="url(#clip060)" d="M58.5933 740.591 L58.5933 718.152 L64.0042 718.152 L64.0042 748.325 L58.5933 748.325 Q54.8057 744.665 48.44 738.363 Q42.0425 732.029 40.1964 730.406 Q36.7271 727.318 34.34 726.109 Q31.921 724.868 29.5975 724.868 Q25.8099 724.868 23.4228 727.541 Q21.0356 730.183 21.0356 734.448 Q21.0356 737.472 22.086 740.846 Q23.1363 744.188 25.2688 748.007 L18.7758 748.007 Q17.2162 744.124 16.4205 740.75 Q15.6248 737.376 15.6248 734.575 Q15.6248 727.191 19.3169 722.799 Q23.009 718.407 29.1837 718.407 Q32.112 718.407 34.7537 719.521 Q37.3637 720.603 40.9285 723.499 Q41.8515 724.295 46.2757 728.56 Q50.668 732.825 58.5933 740.591 Z" fill="#000000" fill-rule="evenodd" fill-opacity="1" /><path clip-path="url(#clip060)" d="M43.5384 708.444 L43.5384 691.289 L48.7583 691.289 L48.7583 708.444 L43.5384 708.444 Z" fill="#000000" fill-rule="evenodd" fill-opacity="1" /><path clip-path="url(#clip060)" d="M42.4881 652.33 L64.0042 652.33 L64.0042 658.187 L42.679 658.187 Q37.6183 658.187 35.1038 660.16 Q32.5894 662.134 32.5894 666.08 Q32.5894 670.823 35.6131 673.56 Q38.6368 676.297 43.8567 676.297 L64.0042 676.297 L64.0042 682.186 L28.3562 682.186 L28.3562 676.297 L33.8944 676.297 Q30.6797 674.197 29.0883 671.364 Q27.4968 668.499 27.4968 664.775 Q27.4968 658.633 31.3163 655.481 Q35.1038 652.33 42.4881 652.33 Z" fill="#000000" fill-rule="evenodd" fill-opacity="1" /><path clip-path="url(#clip060)" d="M32.4621 626.836 Q32.4621 631.546 36.1542 634.284 Q39.8145 637.021 46.212 637.021 Q52.6095 637.021 56.3017 634.316 Q59.9619 631.578 59.9619 626.836 Q59.9619 622.157 56.2698 619.42 Q52.5777 616.683 46.212 616.683 Q39.8781 616.683 36.186 619.42 Q32.4621 622.157 32.4621 626.836 M27.4968 626.836 Q27.4968 619.197 32.4621 614.836 Q37.4273 610.476 46.212 610.476 Q54.9649 610.476 59.9619 614.836 Q64.9272 619.197 64.9272 626.836 Q64.9272 634.506 59.9619 638.867 Q54.9649 643.196 46.212 643.196 Q37.4273 643.196 32.4621 638.867 Q27.4968 634.506 27.4968 626.836 Z" fill="#000000" fill-rule="evenodd" fill-opacity="1" /><path clip-path="url(#clip060)" d="M33.8307 580.112 Q33.2578 581.098 33.0032 582.276 Q32.7167 583.422 32.7167 584.822 Q32.7167 589.787 35.9632 592.461 Q39.1779 595.103 45.2253 595.103 L64.0042 595.103 L64.0042 600.991 L28.3562 600.991 L28.3562 595.103 L33.8944 595.103 Q30.6479 593.257 29.0883 590.297 Q27.4968 587.337 27.4968 583.103 Q27.4968 582.499 27.5923 581.767 Q27.656 581.035 27.8151 580.143 L33.8307 580.112 Z" fill="#000000" fill-rule="evenodd" fill-opacity="1" /><path clip-path="url(#clip060)" d="M35.1993 547.36 Q31.2526 545.164 29.3747 542.108 Q27.4968 539.053 27.4968 534.915 Q27.4968 529.345 31.4117 526.321 Q35.2948 523.298 42.4881 523.298 L64.0042 523.298 L64.0042 529.186 L42.679 529.186 Q37.5546 529.186 35.072 531 Q32.5894 532.814 32.5894 536.538 Q32.5894 541.09 35.6131 543.732 Q38.6368 546.373 43.8567 546.373 L64.0042 546.373 L64.0042 552.262 L42.679 552.262 Q37.5228 552.262 35.072 554.076 Q32.5894 555.89 32.5894 559.678 Q32.5894 564.165 35.6449 566.807 Q38.6686 569.449 43.8567 569.449 L64.0042 569.449 L64.0042 575.337 L28.3562 575.337 L28.3562 569.449 L33.8944 569.449 Q30.616 567.444 29.0564 564.643 Q27.4968 561.842 27.4968 557.991 Q27.4968 554.108 29.4702 551.402 Q31.4436 548.665 35.1993 547.36 Z" fill="#000000" fill-rule="evenodd" fill-opacity="1" /><polyline clip-path="url(#clip062)" style="stroke:#0000ff; stroke-linecap:butt; stroke-linejoin:round; stroke-width:8; stroke-opacity:1; fill:none" points="
  309.067,86.1857 363.422,790.722 470.592,1137.24 730.84,1290.24 1190.05,1355.26 2011.48,1382.6 
  "/>
<path clip-path="url(#clip062)" d="M289.067 66.1857 L289.067 106.186 L329.067 106.186 L329.067 66.1857 L289.067 66.1857 Z" fill="#ffffff" fill-rule="evenodd" fill-opacity="1" stroke="#000000" stroke-opacity="1" stroke-width="3.2"/>
<path clip-path="url(#clip062)" d="M343.422 770.722 L343.422 810.722 L383.422 810.722 L383.422 770.722 L343.422 770.722 Z" fill="#ffffff" fill-rule="evenodd" fill-opacity="1" stroke="#000000" stroke-opacity="1" stroke-width="3.2"/>
<path clip-path="url(#clip062)" d="M450.592 1117.24 L450.592 1157.24 L490.592 1157.24 L490.592 1117.24 L450.592 1117.24 Z" fill="#ffffff" fill-rule="evenodd" fill-opacity="1" stroke="#000000" stroke-opacity="1" stroke-width="3.2"/>
<path clip-path="url(#clip062)" d="M710.84 1270.24 L710.84 1310.24 L750.84 1310.24 L750.84 1270.24 L710.84 1270.24 Z" fill="#ffffff" fill-rule="evenodd" fill-opacity="1" stroke="#000000" stroke-opacity="1" stroke-width="3.2"/>
<path clip-path="url(#clip062)" d="M1170.05 1335.26 L1170.05 1375.26 L1210.05 1375.26 L1210.05 1335.26 L1170.05 1335.26 Z" fill="#ffffff" fill-rule="evenodd" fill-opacity="1" stroke="#000000" stroke-opacity="1" stroke-width="3.2"/>
<path clip-path="url(#clip062)" d="M1991.48 1362.6 L1991.48 1402.6 L2031.48 1402.6 L2031.48 1362.6 L1991.48 1362.6 Z" fill="#ffffff" fill-rule="evenodd" fill-opacity="1" stroke="#000000" stroke-opacity="1" stroke-width="3.2"/>
<polyline clip-path="url(#clip062)" style="stroke:#ff0000; stroke-linecap:butt; stroke-linejoin:round; stroke-width:8; stroke-opacity:1; fill:none" points="
  317.917,86.2363 383.923,790.941 510.39,1137.66 774.211,1290.95 1305.27,1356.37 2293.23,1384.24 
  "/>
<path clip-path="url(#clip062)" d="M297.917 66.2363 L297.917 106.236 L337.917 106.236 L337.917 66.2363 L297.917 66.2363 Z" fill="#ffffff" fill-rule="evenodd" fill-opacity="1" stroke="#000000" stroke-opacity="1" stroke-width="3.2"/>
<path clip-path="url(#clip062)" d="M363.923 770.941 L363.923 810.941 L403.923 810.941 L403.923 770.941 L363.923 770.941 Z" fill="#ffffff" fill-rule="evenodd" fill-opacity="1" stroke="#000000" stroke-opacity="1" stroke-width="3.2"/>
<path clip-path="url(#clip062)" d="M490.39 1117.66 L490.39 1157.66 L530.39 1157.66 L530.39 1117.66 L490.39 1117.66 Z" fill="#ffffff" fill-rule="evenodd" fill-opacity="1" stroke="#000000" stroke-opacity="1" stroke-width="3.2"/>
<path clip-path="url(#clip062)" d="M754.211 1270.95 L754.211 1310.95 L794.211 1310.95 L794.211 1270.95 L754.211 1270.95 Z" fill="#ffffff" fill-rule="evenodd" fill-opacity="1" stroke="#000000" stroke-opacity="1" stroke-width="3.2"/>
<path clip-path="url(#clip062)" d="M1285.27 1336.37 L1285.27 1376.37 L1325.27 1376.37 L1325.27 1336.37 L1285.27 1336.37 Z" fill="#ffffff" fill-rule="evenodd" fill-opacity="1" stroke="#000000" stroke-opacity="1" stroke-width="3.2"/>
<path clip-path="url(#clip062)" d="M2273.23 1364.24 L2273.23 1404.24 L2313.23 1404.24 L2313.23 1364.24 L2273.23 1364.24 Z" fill="#ffffff" fill-rule="evenodd" fill-opacity="1" stroke="#000000" stroke-opacity="1" stroke-width="3.2"/>
<path clip-path="url(#clip060)" d="
M1737.71 787.052 L2282.65 787.052 L2282.65 631.532 L1737.71 631.532  Z
  " fill="#ffffff" fill-rule="evenodd" fill-opacity="1"/>
<polyline clip-path="url(#clip060)" style="stroke:#000000; stroke-linecap:butt; stroke-linejoin:round; stroke-width:4; stroke-opacity:1; fill:none" points="
  1737.71,787.052 2282.65,787.052 2282.65,631.532 1737.71,631.532 1737.71,787.052 
  "/>
<polyline clip-path="url(#clip060)" style="stroke:#0000ff; stroke-linecap:butt; stroke-linejoin:round; stroke-width:4; stroke-opacity:1; fill:none" points="
  1761.08,683.372 1901.29,683.372 
  "/>
<path clip-path="url(#clip060)" d="M1805.59 657.772 L1805.59 708.972 L1856.79 708.972 L1856.79 657.772 L1805.59 657.772 Z" fill="#ffffff" fill-rule="evenodd" fill-opacity="1" stroke="#000000" stroke-opacity="1" stroke-width="4.096"/>
<path clip-path="url(#clip060)" d="M1931.77 666.092 L1936.44 666.092 L1936.44 698.245 Q1936.44 704.495 1934.06 707.319 Q1931.7 710.143 1926.44 710.143 L1924.66 710.143 L1924.66 706.207 L1926.12 706.207 Q1929.22 706.207 1930.5 704.471 Q1931.77 702.735 1931.77 698.245 L1931.77 666.092 Z" fill="#000000" fill-rule="evenodd" fill-opacity="1" /><path clip-path="url(#clip060)" d="M1945.13 690.421 L1945.13 674.726 L1949.38 674.726 L1949.38 690.259 Q1949.38 693.939 1950.82 695.791 Q1952.25 697.62 1955.13 697.62 Q1958.57 697.62 1960.56 695.421 Q1962.58 693.221 1962.58 689.425 L1962.58 674.726 L1966.84 674.726 L1966.84 700.652 L1962.58 700.652 L1962.58 696.671 Q1961.03 699.032 1958.97 700.189 Q1956.93 701.323 1954.22 701.323 Q1949.75 701.323 1947.44 698.545 Q1945.13 695.768 1945.13 690.421 M1955.84 674.101 L1955.84 674.101 Z" fill="#000000" fill-rule="evenodd" fill-opacity="1" /><path clip-path="url(#clip060)" d="M1975.61 664.634 L1979.87 664.634 L1979.87 700.652 L1975.61 700.652 L1975.61 664.634 Z" fill="#000000" fill-rule="evenodd" fill-opacity="1" /><path clip-path="url(#clip060)" d="M1988.78 674.726 L1993.04 674.726 L1993.04 700.652 L1988.78 700.652 L1988.78 674.726 M1988.78 664.634 L1993.04 664.634 L1993.04 670.027 L1988.78 670.027 L1988.78 664.634 Z" fill="#000000" fill-rule="evenodd" fill-opacity="1" /><path clip-path="url(#clip060)" d="M2013.74 687.62 Q2008.57 687.62 2006.58 688.8 Q2004.59 689.981 2004.59 692.828 Q2004.59 695.096 2006.07 696.439 Q2007.58 697.758 2010.15 697.758 Q2013.69 697.758 2015.82 695.258 Q2017.97 692.735 2017.97 688.569 L2017.97 687.62 L2013.74 687.62 M2022.23 685.86 L2022.23 700.652 L2017.97 700.652 L2017.97 696.717 Q2016.51 699.078 2014.34 700.212 Q2012.16 701.323 2009.01 701.323 Q2005.03 701.323 2002.67 699.101 Q2000.33 696.856 2000.33 693.106 Q2000.33 688.731 2003.25 686.509 Q2006.19 684.286 2012 684.286 L2017.97 684.286 L2017.97 683.87 Q2017.97 680.93 2016.03 679.333 Q2014.11 677.712 2010.61 677.712 Q2008.39 677.712 2006.28 678.245 Q2004.18 678.777 2002.23 679.842 L2002.23 675.907 Q2004.57 675.004 2006.77 674.564 Q2008.97 674.101 2011.05 674.101 Q2016.68 674.101 2019.45 677.018 Q2022.23 679.934 2022.23 685.86 Z" fill="#000000" fill-rule="evenodd" fill-opacity="1" /><path clip-path="url(#clip060)" d="M2046.26 666.092 L2052.56 666.092 L2067.88 695.004 L2067.88 666.092 L2072.42 666.092 L2072.42 700.652 L2066.12 700.652 L2050.8 671.74 L2050.8 700.652 L2046.26 700.652 L2046.26 666.092 Z" fill="#000000" fill-rule="evenodd" fill-opacity="1" /><path clip-path="url(#clip060)" d="M2098.11 684.448 Q2099.62 684.958 2101.03 686.624 Q2102.46 688.291 2103.9 691.208 L2108.64 700.652 L2103.62 700.652 L2099.2 691.786 Q2097.49 688.314 2095.87 687.18 Q2094.27 686.046 2091.49 686.046 L2086.4 686.046 L2086.4 700.652 L2081.72 700.652 L2081.72 666.092 L2092.28 666.092 Q2098.2 666.092 2101.12 668.569 Q2104.04 671.046 2104.04 676.046 Q2104.04 679.309 2102.51 681.462 Q2101 683.615 2098.11 684.448 M2086.4 669.935 L2086.4 682.203 L2092.28 682.203 Q2095.66 682.203 2097.37 680.652 Q2099.11 679.078 2099.11 676.046 Q2099.11 673.013 2097.37 671.485 Q2095.66 669.935 2092.28 669.935 L2086.4 669.935 Z" fill="#000000" fill-rule="evenodd" fill-opacity="1" /><polyline clip-path="url(#clip060)" style="stroke:#ff0000; stroke-linecap:butt; stroke-linejoin:round; stroke-width:4; stroke-opacity:1; fill:none" points="
  1761.08,735.212 1901.29,735.212 
  "/>
<path clip-path="url(#clip060)" d="M1805.59 709.612 L1805.59 760.812 L1856.79 760.812 L1856.79 709.612 L1805.59 709.612 Z" fill="#ffffff" fill-rule="evenodd" fill-opacity="1" stroke="#000000" stroke-opacity="1" stroke-width="4.096"/>
<path clip-path="url(#clip060)" d="M1924.66 717.932 L1931.63 717.932 L1940.45 741.45 L1949.32 717.932 L1956.28 717.932 L1956.28 752.492 L1951.72 752.492 L1951.72 722.145 L1942.81 745.848 L1938.11 745.848 L1929.2 722.145 L1929.2 752.492 L1924.66 752.492 L1924.66 717.932 Z" fill="#000000" fill-rule="evenodd" fill-opacity="1" /><path clip-path="url(#clip060)" d="M1977.16 739.46 Q1972 739.46 1970.01 740.64 Q1968.02 741.821 1968.02 744.668 Q1968.02 746.936 1969.5 748.279 Q1971 749.598 1973.57 749.598 Q1977.12 749.598 1979.25 747.098 Q1981.4 744.575 1981.4 740.409 L1981.4 739.46 L1977.16 739.46 M1985.66 737.7 L1985.66 752.492 L1981.4 752.492 L1981.4 748.557 Q1979.94 750.918 1977.76 752.052 Q1975.59 753.163 1972.44 753.163 Q1968.46 753.163 1966.1 750.941 Q1963.76 748.696 1963.76 744.946 Q1963.76 740.571 1966.68 738.349 Q1969.62 736.126 1975.43 736.126 L1981.4 736.126 L1981.4 735.71 Q1981.4 732.77 1979.45 731.173 Q1977.53 729.552 1974.04 729.552 Q1971.81 729.552 1969.71 730.085 Q1967.6 730.617 1965.66 731.682 L1965.66 727.747 Q1968 726.844 1970.19 726.404 Q1972.39 725.941 1974.48 725.941 Q1980.1 725.941 1982.88 728.858 Q1985.66 731.774 1985.66 737.7 Z" fill="#000000" fill-rule="evenodd" fill-opacity="1" /><path clip-path="url(#clip060)" d="M1998.64 719.205 L1998.64 726.566 L2007.42 726.566 L2007.42 729.876 L1998.64 729.876 L1998.64 743.95 Q1998.64 747.122 1999.5 748.024 Q2000.38 748.927 2003.04 748.927 L2007.42 748.927 L2007.42 752.492 L2003.04 752.492 Q1998.11 752.492 1996.24 750.663 Q1994.36 748.811 1994.36 743.95 L1994.36 729.876 L1991.24 729.876 L1991.24 726.566 L1994.36 726.566 L1994.36 719.205 L1998.64 719.205 Z" fill="#000000" fill-rule="evenodd" fill-opacity="1" /><path clip-path="url(#clip060)" d="M2013.02 716.474 L2017.28 716.474 L2017.28 752.492 L2013.02 752.492 L2013.02 716.474 Z" fill="#000000" fill-rule="evenodd" fill-opacity="1" /><path clip-path="url(#clip060)" d="M2037.97 739.46 Q2032.81 739.46 2030.82 740.64 Q2028.83 741.821 2028.83 744.668 Q2028.83 746.936 2030.31 748.279 Q2031.81 749.598 2034.38 749.598 Q2037.93 749.598 2040.06 747.098 Q2042.21 744.575 2042.21 740.409 L2042.21 739.46 L2037.97 739.46 M2046.47 737.7 L2046.47 752.492 L2042.21 752.492 L2042.21 748.557 Q2040.75 750.918 2038.57 752.052 Q2036.4 753.163 2033.25 753.163 Q2029.27 753.163 2026.91 750.941 Q2024.57 748.696 2024.57 744.946 Q2024.57 740.571 2027.49 738.349 Q2030.43 736.126 2036.24 736.126 L2042.21 736.126 L2042.21 735.71 Q2042.21 732.77 2040.26 731.173 Q2038.34 729.552 2034.85 729.552 Q2032.62 729.552 2030.52 730.085 Q2028.41 730.617 2026.47 731.682 L2026.47 727.747 Q2028.81 726.844 2031 726.404 Q2033.2 725.941 2035.29 725.941 Q2040.91 725.941 2043.69 728.858 Q2046.47 731.774 2046.47 737.7 Z" fill="#000000" fill-rule="evenodd" fill-opacity="1" /><path clip-path="url(#clip060)" d="M2073.85 739.552 Q2073.85 734.853 2071.91 732.191 Q2069.99 729.506 2066.61 729.506 Q2063.23 729.506 2061.28 732.191 Q2059.36 734.853 2059.36 739.552 Q2059.36 744.251 2061.28 746.936 Q2063.23 749.598 2066.61 749.598 Q2069.99 749.598 2071.91 746.936 Q2073.85 744.251 2073.85 739.552 M2059.36 730.501 Q2060.7 728.187 2062.74 727.075 Q2064.8 725.941 2067.65 725.941 Q2072.37 725.941 2075.31 729.691 Q2078.27 733.441 2078.27 739.552 Q2078.27 745.663 2075.31 749.413 Q2072.37 753.163 2067.65 753.163 Q2064.8 753.163 2062.74 752.052 Q2060.7 750.918 2059.36 748.603 L2059.36 752.492 L2055.08 752.492 L2055.08 716.474 L2059.36 716.474 L2059.36 730.501 Z" fill="#000000" fill-rule="evenodd" fill-opacity="1" /><path clip-path="url(#clip060)" d="M2105.26 721.775 L2105.26 734.761 L2111.14 734.761 Q2114.41 734.761 2116.19 733.071 Q2117.97 731.381 2117.97 728.256 Q2117.97 725.154 2116.19 723.464 Q2114.41 721.775 2111.14 721.775 L2105.26 721.775 M2100.59 717.932 L2111.14 717.932 Q2116.95 717.932 2119.92 720.571 Q2122.9 723.187 2122.9 728.256 Q2122.9 733.372 2119.92 735.987 Q2116.95 738.603 2111.14 738.603 L2105.26 738.603 L2105.26 752.492 L2100.59 752.492 L2100.59 717.932 Z" fill="#000000" fill-rule="evenodd" fill-opacity="1" /><path clip-path="url(#clip060)" d="M2129.18 717.932 L2133.85 717.932 L2133.85 752.492 L2129.18 752.492 L2129.18 717.932 Z" fill="#000000" fill-rule="evenodd" fill-opacity="1" /><path clip-path="url(#clip060)" d="M2140.82 737.608 L2153.3 737.608 L2153.3 741.404 L2140.82 741.404 L2140.82 737.608 Z" fill="#000000" fill-rule="evenodd" fill-opacity="1" /><path clip-path="url(#clip060)" d="M2160.26 717.932 L2164.94 717.932 L2164.94 752.492 L2160.26 752.492 L2160.26 717.932 Z" fill="#000000" fill-rule="evenodd" fill-opacity="1" /><path clip-path="url(#clip060)" d="M2174.24 717.932 L2181.21 717.932 L2190.03 741.45 L2198.9 717.932 L2205.86 717.932 L2205.86 752.492 L2201.3 752.492 L2201.3 722.145 L2192.39 745.848 L2187.69 745.848 L2178.78 722.145 L2178.78 752.492 L2174.24 752.492 L2174.24 717.932 Z" fill="#000000" fill-rule="evenodd" fill-opacity="1" /><path clip-path="url(#clip060)" d="M2219.59 748.557 L2235.91 748.557 L2235.91 752.492 L2213.97 752.492 L2213.97 748.557 Q2216.63 745.802 2221.21 741.173 Q2225.82 736.52 2227 735.177 Q2229.24 732.654 2230.12 730.918 Q2231.03 729.159 2231.03 727.469 Q2231.03 724.714 2229.08 722.978 Q2227.16 721.242 2224.06 721.242 Q2221.86 721.242 2219.41 722.006 Q2216.98 722.77 2214.2 724.321 L2214.2 719.599 Q2217.02 718.464 2219.48 717.886 Q2221.93 717.307 2223.97 717.307 Q2229.34 717.307 2232.53 719.992 Q2235.73 722.677 2235.73 727.168 Q2235.73 729.298 2234.92 731.219 Q2234.13 733.117 2232.02 735.71 Q2231.44 736.381 2228.34 739.599 Q2225.24 742.793 2219.59 748.557 Z" fill="#000000" fill-rule="evenodd" fill-opacity="1" /></svg>
