<?xml version="1.0" encoding="utf-8"?>
<svg xmlns="http://www.w3.org/2000/svg" xmlns:xlink="http://www.w3.org/1999/xlink" width="600" height="400" viewBox="0 0 2400 1600">
<defs>
  <clipPath id="clip960">
    <rect x="0" y="0" width="2400" height="1600"/>
  </clipPath>
</defs>
<path clip-path="url(#clip960)" d="
M0 1600 L2400 1600 L2400 0 L0 0  Z
  " fill="#ffffff" fill-rule="evenodd" fill-opacity="1"/>
<defs>
  <clipPath id="clip961">
    <rect x="480" y="0" width="1681" height="1600"/>
  </clipPath>
</defs>
<path clip-path="url(#clip960)" d="
M244.451 1410.9 L2352.76 1410.9 L2352.76 47.2441 L244.451 47.2441  Z
  " fill="#ffffff" fill-rule="evenodd" fill-opacity="1"/>
<defs>
  <clipPath id="clip962">
    <rect x="244" y="47" width="2109" height="1365"/>
  </clipPath>
</defs>
<polyline clip-path="url(#clip962)" style="stroke:#000000; stroke-linecap:butt; stroke-linejoin:round; stroke-width:2; stroke-opacity:0.1; fill:none" points="
  701.284,1410.9 701.284,47.2441 
  "/>
<polyline clip-path="url(#clip962)" style="stroke:#000000; stroke-linecap:butt; stroke-linejoin:round; stroke-width:2; stroke-opacity:0.1; fill:none" points="
  1838.58,1410.9 1838.58,47.2441 
  "/>
<polyline clip-path="url(#clip960)" style="stroke:#000000; stroke-linecap:butt; stroke-linejoin:round; stroke-width:4; stroke-opacity:1; fill:none" points="
  244.451,1410.9 2352.76,1410.9 
  "/>
<polyline clip-path="url(#clip960)" style="stroke:#000000; stroke-linecap:butt; stroke-linejoin:round; stroke-width:4; stroke-opacity:1; fill:none" points="
  244.451,47.2441 2352.76,47.2441 
  "/>
<polyline clip-path="url(#clip960)" style="stroke:#000000; stroke-linecap:butt; stroke-linejoin:round; stroke-width:4; stroke-opacity:1; fill:none" points="
  701.284,1410.9 701.284,1392 
  "/>
<polyline clip-path="url(#clip960)" style="stroke:#000000; stroke-linecap:butt; stroke-linejoin:round; stroke-width:4; stroke-opacity:1; fill:none" points="
  1838.58,1410.9 1838.58,1392 
  "/>
<path clip-path="url(#clip960)" d="M651.164 1485.02 L658.803 1485.02 L658.803 1458.66 L650.492 1460.32 L650.492 1456.06 L658.756 1454.4 L663.432 1454.4 L663.432 1485.02 L671.071 1485.02 L671.071 1488.96 L651.164 1488.96 L651.164 1485.02 Z" fill="#000000" fill-rule="evenodd" fill-opacity="1" /><path clip-path="url(#clip960)" d="M690.515 1457.48 Q686.904 1457.48 685.076 1461.04 Q683.27 1464.58 683.27 1471.71 Q683.27 1478.82 685.076 1482.38 Q686.904 1485.92 690.515 1485.92 Q694.15 1485.92 695.955 1482.38 Q697.784 1478.82 697.784 1471.71 Q697.784 1464.58 695.955 1461.04 Q694.15 1457.48 690.515 1457.48 M690.515 1453.77 Q696.326 1453.77 699.381 1458.38 Q702.46 1462.96 702.46 1471.71 Q702.46 1480.44 699.381 1485.04 Q696.326 1489.63 690.515 1489.63 Q684.705 1489.63 681.627 1485.04 Q678.571 1480.44 678.571 1471.71 Q678.571 1462.96 681.627 1458.38 Q684.705 1453.77 690.515 1453.77 Z" fill="#000000" fill-rule="evenodd" fill-opacity="1" /><path clip-path="url(#clip960)" d="M702.46 1447.87 L726.571 1447.87 L726.571 1451.07 L702.46 1451.07 L702.46 1447.87 Z" fill="#000000" fill-rule="evenodd" fill-opacity="1" /><path clip-path="url(#clip960)" d="M746.282 1446.41 Q749.009 1446.99 750.532 1448.83 Q752.075 1450.68 752.075 1453.38 Q752.075 1457.54 749.216 1459.82 Q746.357 1462.09 741.091 1462.09 Q739.323 1462.09 737.442 1461.73 Q735.58 1461.4 733.587 1460.7 L733.587 1457.03 Q735.166 1457.95 737.047 1458.42 Q738.928 1458.89 740.978 1458.89 Q744.552 1458.89 746.414 1457.48 Q748.294 1456.07 748.294 1453.38 Q748.294 1450.9 746.545 1449.51 Q744.815 1448.1 741.712 1448.1 L738.439 1448.1 L738.439 1444.98 L741.862 1444.98 Q744.664 1444.98 746.15 1443.87 Q747.636 1442.74 747.636 1440.63 Q747.636 1438.47 746.094 1437.32 Q744.57 1436.16 741.712 1436.16 Q740.151 1436.16 738.364 1436.49 Q736.577 1436.83 734.433 1437.55 L734.433 1434.16 Q736.596 1433.56 738.477 1433.26 Q740.376 1432.96 742.05 1432.96 Q746.376 1432.96 748.896 1434.93 Q751.416 1436.89 751.416 1440.24 Q751.416 1442.57 750.081 1444.19 Q748.746 1445.79 746.282 1446.41 Z" fill="#000000" fill-rule="evenodd" fill-opacity="1" /><path clip-path="url(#clip960)" d="M1788.84 1485.02 L1796.48 1485.02 L1796.48 1458.66 L1788.17 1460.32 L1788.17 1456.06 L1796.44 1454.4 L1801.11 1454.4 L1801.11 1485.02 L1808.75 1485.02 L1808.75 1488.96 L1788.84 1488.96 L1788.84 1485.02 Z" fill="#000000" fill-rule="evenodd" fill-opacity="1" /><path clip-path="url(#clip960)" d="M1828.2 1457.48 Q1824.59 1457.48 1822.76 1461.04 Q1820.95 1464.58 1820.95 1471.71 Q1820.95 1478.82 1822.76 1482.38 Q1824.59 1485.92 1828.2 1485.92 Q1831.83 1485.92 1833.64 1482.38 Q1835.46 1478.82 1835.46 1471.71 Q1835.46 1464.58 1833.64 1461.04 Q1831.83 1457.48 1828.2 1457.48 M1828.2 1453.77 Q1834.01 1453.77 1837.06 1458.38 Q1840.14 1462.96 1840.14 1471.71 Q1840.14 1480.44 1837.06 1485.04 Q1834.01 1489.63 1828.2 1489.63 Q1822.39 1489.63 1819.31 1485.04 Q1816.25 1480.44 1816.25 1471.71 Q1816.25 1462.96 1819.31 1458.38 Q1822.39 1453.77 1828.2 1453.77 Z" fill="#000000" fill-rule="evenodd" fill-opacity="1" /><path clip-path="url(#clip960)" d="M1840.14 1447.87 L1864.25 1447.87 L1864.25 1451.07 L1840.14 1451.07 L1840.14 1447.87 Z" fill="#000000" fill-rule="evenodd" fill-opacity="1" /><path clip-path="url(#clip960)" d="M1875.73 1458.35 L1888.98 1458.35 L1888.98 1461.55 L1871.15 1461.55 L1871.15 1458.35 Q1873.32 1456.11 1877.04 1452.35 Q1880.78 1448.57 1881.74 1447.48 Q1883.57 1445.43 1884.28 1444.02 Q1885.02 1442.59 1885.02 1441.22 Q1885.02 1438.98 1883.44 1437.57 Q1881.88 1436.16 1879.36 1436.16 Q1877.57 1436.16 1875.57 1436.78 Q1873.6 1437.4 1871.34 1438.66 L1871.34 1434.82 Q1873.64 1433.9 1875.63 1433.43 Q1877.62 1432.96 1879.28 1432.96 Q1883.64 1432.96 1886.24 1435.14 Q1888.83 1437.32 1888.83 1440.97 Q1888.83 1442.7 1888.18 1444.26 Q1887.54 1445.8 1885.82 1447.91 Q1885.35 1448.46 1882.83 1451.07 Q1880.31 1453.67 1875.73 1458.35 Z" fill="#000000" fill-rule="evenodd" fill-opacity="1" /><path clip-path="url(#clip960)" d="M911.043 1526.67 L941.089 1526.67 L941.089 1532.08 L917.473 1532.08 L917.473 1546.14 L940.103 1546.14 L940.103 1551.56 L917.473 1551.56 L917.473 1568.77 L941.662 1568.77 L941.662 1574.19 L911.043 1574.19 L911.043 1526.67 Z" fill="#000000" fill-rule="evenodd" fill-opacity="1" /><path clip-path="url(#clip960)" d="M981.607 1538.54 L968.717 1555.88 L982.276 1574.19 L975.369 1574.19 L964.993 1560.18 L954.617 1574.19 L947.71 1574.19 L961.555 1555.53 L948.887 1538.54 L955.794 1538.54 L965.247 1551.24 L974.7 1538.54 L981.607 1538.54 Z" fill="#000000" fill-rule="evenodd" fill-opacity="1" /><path clip-path="url(#clip960)" d="M1019.04 1554.9 L1019.04 1557.76 L992.111 1557.76 Q992.492 1563.81 995.739 1566.99 Q999.017 1570.14 1004.84 1570.14 Q1008.22 1570.14 1011.37 1569.32 Q1014.55 1568.49 1017.67 1566.83 L1017.67 1572.37 Q1014.52 1573.71 1011.21 1574.41 Q1007.9 1575.11 1004.49 1575.11 Q995.962 1575.11 990.965 1570.14 Q985.999 1565.18 985.999 1556.71 Q985.999 1547.96 990.71 1542.83 Q995.453 1537.68 1003.47 1537.68 Q1010.67 1537.68 1014.84 1542.33 Q1019.04 1546.94 1019.04 1554.9 M1013.18 1553.18 Q1013.12 1548.37 1010.48 1545.51 Q1007.87 1542.64 1003.54 1542.64 Q998.635 1542.64 995.675 1545.41 Q992.747 1548.18 992.302 1553.21 L1013.18 1553.18 Z" fill="#000000" fill-rule="evenodd" fill-opacity="1" /><path clip-path="url(#clip960)" d="M1054.3 1539.91 L1054.3 1545.38 Q1051.82 1544.01 1049.31 1543.34 Q1046.82 1542.64 1044.28 1542.64 Q1038.58 1542.64 1035.43 1546.27 Q1032.28 1549.87 1032.28 1556.39 Q1032.28 1562.92 1035.43 1566.55 Q1038.58 1570.14 1044.28 1570.14 Q1046.82 1570.14 1049.31 1569.47 Q1051.82 1568.77 1054.3 1567.41 L1054.3 1572.82 Q1051.85 1573.96 1049.21 1574.54 Q1046.6 1575.11 1043.64 1575.11 Q1035.59 1575.11 1030.85 1570.05 Q1026.1 1564.99 1026.1 1556.39 Q1026.1 1547.67 1030.88 1542.68 Q1035.68 1537.68 1044.02 1537.68 Q1046.73 1537.68 1049.31 1538.25 Q1051.88 1538.79 1054.3 1539.91 Z" fill="#000000" fill-rule="evenodd" fill-opacity="1" /><path clip-path="url(#clip960)" d="M1063.88 1560.12 L1063.88 1538.54 L1069.74 1538.54 L1069.74 1559.89 Q1069.74 1564.96 1071.71 1567.5 Q1073.69 1570.02 1077.63 1570.02 Q1082.38 1570.02 1085.11 1566.99 Q1087.88 1563.97 1087.88 1558.75 L1087.88 1538.54 L1093.74 1538.54 L1093.74 1574.19 L1087.88 1574.19 L1087.88 1568.71 Q1085.75 1571.96 1082.92 1573.55 Q1080.12 1575.11 1076.39 1575.11 Q1070.25 1575.11 1067.07 1571.29 Q1063.88 1567.47 1063.88 1560.12 M1078.62 1537.68 L1078.62 1537.68 Z" fill="#000000" fill-rule="evenodd" fill-opacity="1" /><path clip-path="url(#clip960)" d="M1111.59 1528.42 L1111.59 1538.54 L1123.66 1538.54 L1123.66 1543.09 L1111.59 1543.09 L1111.59 1562.44 Q1111.59 1566.8 1112.77 1568.04 Q1113.98 1569.28 1117.64 1569.28 L1123.66 1569.28 L1123.66 1574.19 L1117.64 1574.19 Q1110.86 1574.19 1108.28 1571.67 Q1105.71 1569.12 1105.71 1562.44 L1105.71 1543.09 L1101.41 1543.09 L1101.41 1538.54 L1105.71 1538.54 L1105.71 1528.42 L1111.59 1528.42 Z" fill="#000000" fill-rule="evenodd" fill-opacity="1" /><path clip-path="url(#clip960)" d="M1131.36 1538.54 L1137.22 1538.54 L1137.22 1574.19 L1131.36 1574.19 L1131.36 1538.54 M1131.36 1524.66 L1137.22 1524.66 L1137.22 1532.08 L1131.36 1532.08 L1131.36 1524.66 Z" fill="#000000" fill-rule="evenodd" fill-opacity="1" /><path clip-path="url(#clip960)" d="M1163.28 1542.64 Q1158.57 1542.64 1155.84 1546.34 Q1153.1 1550 1153.1 1556.39 Q1153.1 1562.79 1155.8 1566.48 Q1158.54 1570.14 1163.28 1570.14 Q1167.96 1570.14 1170.7 1566.45 Q1173.44 1562.76 1173.44 1556.39 Q1173.44 1550.06 1170.7 1546.37 Q1167.96 1542.64 1163.28 1542.64 M1163.28 1537.68 Q1170.92 1537.68 1175.28 1542.64 Q1179.64 1547.61 1179.64 1556.39 Q1179.64 1565.15 1175.28 1570.14 Q1170.92 1575.11 1163.28 1575.11 Q1155.61 1575.11 1151.25 1570.14 Q1146.92 1565.15 1146.92 1556.39 Q1146.92 1547.61 1151.25 1542.64 Q1155.61 1537.68 1163.28 1537.68 Z" fill="#000000" fill-rule="evenodd" fill-opacity="1" /><path clip-path="url(#clip960)" d="M1218.98 1552.67 L1218.98 1574.19 L1213.13 1574.19 L1213.13 1552.86 Q1213.13 1547.8 1211.15 1545.29 Q1209.18 1542.77 1205.23 1542.77 Q1200.49 1542.77 1197.75 1545.79 Q1195.02 1548.82 1195.02 1554.04 L1195.02 1574.19 L1189.13 1574.19 L1189.13 1538.54 L1195.02 1538.54 L1195.02 1544.08 Q1197.12 1540.86 1199.95 1539.27 Q1202.82 1537.68 1206.54 1537.68 Q1212.68 1537.68 1215.83 1541.5 Q1218.98 1545.29 1218.98 1552.67 Z" fill="#000000" fill-rule="evenodd" fill-opacity="1" /><path clip-path="url(#clip960)" d="M1257.18 1528.42 L1257.18 1538.54 L1269.24 1538.54 L1269.24 1543.09 L1257.18 1543.09 L1257.18 1562.44 Q1257.18 1566.8 1258.36 1568.04 Q1259.57 1569.28 1263.23 1569.28 L1269.24 1569.28 L1269.24 1574.19 L1263.23 1574.19 Q1256.45 1574.19 1253.87 1571.67 Q1251.29 1569.12 1251.29 1562.44 L1251.29 1543.09 L1246.99 1543.09 L1246.99 1538.54 L1251.29 1538.54 L1251.29 1528.42 L1257.18 1528.42 Z" fill="#000000" fill-rule="evenodd" fill-opacity="1" /><path clip-path="url(#clip960)" d="M1276.94 1538.54 L1282.8 1538.54 L1282.8 1574.19 L1276.94 1574.19 L1276.94 1538.54 M1276.94 1524.66 L1282.8 1524.66 L1282.8 1532.08 L1276.94 1532.08 L1276.94 1524.66 Z" fill="#000000" fill-rule="evenodd" fill-opacity="1" /><path clip-path="url(#clip960)" d="M1322.81 1545.38 Q1325.01 1541.43 1328.06 1539.56 Q1331.12 1537.68 1335.25 1537.68 Q1340.82 1537.68 1343.85 1541.59 Q1346.87 1545.48 1346.87 1552.67 L1346.87 1574.19 L1340.98 1574.19 L1340.98 1552.86 Q1340.98 1547.74 1339.17 1545.25 Q1337.35 1542.77 1333.63 1542.77 Q1329.08 1542.77 1326.44 1545.79 Q1323.8 1548.82 1323.8 1554.04 L1323.8 1574.19 L1317.91 1574.19 L1317.91 1552.86 Q1317.91 1547.7 1316.09 1545.25 Q1314.28 1542.77 1310.49 1542.77 Q1306 1542.77 1303.36 1545.83 Q1300.72 1548.85 1300.72 1554.04 L1300.72 1574.19 L1294.83 1574.19 L1294.83 1538.54 L1300.72 1538.54 L1300.72 1544.08 Q1302.73 1540.8 1305.53 1539.24 Q1308.33 1537.68 1312.18 1537.68 Q1316.06 1537.68 1318.77 1539.65 Q1321.5 1541.62 1322.81 1545.38 Z" fill="#000000" fill-rule="evenodd" fill-opacity="1" /><path clip-path="url(#clip960)" d="M1389.04 1554.9 L1389.04 1557.76 L1362.12 1557.76 Q1362.5 1563.81 1365.75 1566.99 Q1369.02 1570.14 1374.85 1570.14 Q1378.22 1570.14 1381.37 1569.32 Q1384.56 1568.49 1387.68 1566.83 L1387.68 1572.37 Q1384.52 1573.71 1381.21 1574.41 Q1377.9 1575.11 1374.5 1575.11 Q1365.97 1575.11 1360.97 1570.14 Q1356.01 1565.18 1356.01 1556.71 Q1356.01 1547.96 1360.72 1542.83 Q1365.46 1537.68 1373.48 1537.68 Q1380.67 1537.68 1384.84 1542.33 Q1389.04 1546.94 1389.04 1554.9 M1383.19 1553.18 Q1383.12 1548.37 1380.48 1545.51 Q1377.87 1542.64 1373.54 1542.64 Q1368.64 1542.64 1365.68 1545.41 Q1362.75 1548.18 1362.31 1553.21 L1383.19 1553.18 Z" fill="#000000" fill-rule="evenodd" fill-opacity="1" /><path clip-path="url(#clip960)" d="M1433.44 1524.72 Q1429.18 1532.04 1427.11 1539.21 Q1425.04 1546.37 1425.04 1553.72 Q1425.04 1561.07 1427.11 1568.3 Q1429.21 1575.49 1433.44 1582.78 L1428.35 1582.78 Q1423.58 1575.3 1421.19 1568.07 Q1418.84 1560.85 1418.84 1553.72 Q1418.84 1546.62 1421.19 1539.43 Q1423.55 1532.24 1428.35 1524.72 L1433.44 1524.72 Z" fill="#000000" fill-rule="evenodd" fill-opacity="1" /><path clip-path="url(#clip960)" d="M1467.53 1539.59 L1467.53 1545.13 Q1465.05 1543.85 1462.38 1543.22 Q1459.7 1542.58 1456.84 1542.58 Q1452.48 1542.58 1450.28 1543.92 Q1448.12 1545.25 1448.12 1547.93 Q1448.12 1549.96 1449.68 1551.14 Q1451.24 1552.29 1455.95 1553.34 L1457.95 1553.78 Q1464.19 1555.12 1466.8 1557.57 Q1469.44 1559.99 1469.44 1564.35 Q1469.44 1569.32 1465.5 1572.21 Q1461.58 1575.11 1454.71 1575.11 Q1451.84 1575.11 1448.72 1574.54 Q1445.64 1573.99 1442.2 1572.88 L1442.2 1566.83 Q1445.44 1568.52 1448.6 1569.38 Q1451.75 1570.21 1454.83 1570.21 Q1458.97 1570.21 1461.2 1568.81 Q1463.43 1567.37 1463.43 1564.8 Q1463.43 1562.41 1461.8 1561.14 Q1460.21 1559.86 1454.77 1558.68 L1452.73 1558.21 Q1447.29 1557.06 1444.87 1554.71 Q1442.45 1552.32 1442.45 1548.18 Q1442.45 1543.15 1446.02 1540.42 Q1449.58 1537.68 1456.14 1537.68 Q1459.39 1537.68 1462.25 1538.16 Q1465.11 1538.63 1467.53 1539.59 Z" fill="#000000" fill-rule="evenodd" fill-opacity="1" /><path clip-path="url(#clip960)" d="M1504.42 1539.91 L1504.42 1545.38 Q1501.94 1544.01 1499.43 1543.34 Q1496.94 1542.64 1494.4 1542.64 Q1488.7 1542.64 1485.55 1546.27 Q1482.4 1549.87 1482.4 1556.39 Q1482.4 1562.92 1485.55 1566.55 Q1488.7 1570.14 1494.4 1570.14 Q1496.94 1570.14 1499.43 1569.47 Q1501.94 1568.77 1504.42 1567.41 L1504.42 1572.82 Q1501.97 1573.96 1499.33 1574.54 Q1496.72 1575.11 1493.76 1575.11 Q1485.71 1575.11 1480.96 1570.05 Q1476.22 1564.99 1476.22 1556.39 Q1476.22 1547.67 1481 1542.68 Q1485.8 1537.68 1494.14 1537.68 Q1496.85 1537.68 1499.43 1538.25 Q1502 1538.79 1504.42 1539.91 Z" fill="#000000" fill-rule="evenodd" fill-opacity="1" /><path clip-path="url(#clip960)" d="M1516.1 1566.1 L1522.82 1566.1 L1522.82 1571.58 L1517.6 1581.76 L1513.49 1581.76 L1516.1 1571.58 L1516.1 1566.1 Z" fill="#000000" fill-rule="evenodd" fill-opacity="1" /><path clip-path="url(#clip960)" d="M1556.3 1526.67 L1562.73 1526.67 L1562.73 1568.77 L1585.87 1568.77 L1585.87 1574.19 L1556.3 1574.19 L1556.3 1526.67 Z" fill="#000000" fill-rule="evenodd" fill-opacity="1" /><path clip-path="url(#clip960)" d="M1605.03 1542.64 Q1600.32 1542.64 1597.58 1546.34 Q1594.85 1550 1594.85 1556.39 Q1594.85 1562.79 1597.55 1566.48 Q1600.29 1570.14 1605.03 1570.14 Q1609.71 1570.14 1612.45 1566.45 Q1615.19 1562.76 1615.19 1556.39 Q1615.19 1550.06 1612.45 1546.37 Q1609.71 1542.64 1605.03 1542.64 M1605.03 1537.68 Q1612.67 1537.68 1617.03 1542.64 Q1621.39 1547.61 1621.39 1556.39 Q1621.39 1565.15 1617.03 1570.14 Q1612.67 1575.11 1605.03 1575.11 Q1597.36 1575.11 1593 1570.14 Q1588.67 1565.15 1588.67 1556.39 Q1588.67 1547.61 1593 1542.64 Q1597.36 1537.68 1605.03 1537.68 Z" fill="#000000" fill-rule="evenodd" fill-opacity="1" /><path clip-path="url(#clip960)" d="M1654.56 1555.95 Q1654.56 1549.58 1651.92 1546.08 Q1649.31 1542.58 1644.56 1542.58 Q1639.85 1542.58 1637.21 1546.08 Q1634.6 1549.58 1634.6 1555.95 Q1634.6 1562.28 1637.21 1565.78 Q1639.85 1569.28 1644.56 1569.28 Q1649.31 1569.28 1651.92 1565.78 Q1654.56 1562.28 1654.56 1555.95 M1660.41 1569.76 Q1660.41 1578.86 1656.37 1583.29 Q1652.33 1587.74 1643.99 1587.74 Q1640.9 1587.74 1638.17 1587.27 Q1635.43 1586.82 1632.85 1585.87 L1632.85 1580.17 Q1635.43 1581.57 1637.94 1582.24 Q1640.46 1582.91 1643.07 1582.91 Q1648.83 1582.91 1651.69 1579.88 Q1654.56 1576.89 1654.56 1570.81 L1654.56 1567.92 Q1652.74 1571.07 1649.91 1572.63 Q1647.08 1574.19 1643.13 1574.19 Q1636.57 1574.19 1632.56 1569.19 Q1628.55 1564.19 1628.55 1555.95 Q1628.55 1547.67 1632.56 1542.68 Q1636.57 1537.68 1643.13 1537.68 Q1647.08 1537.68 1649.91 1539.24 Q1652.74 1540.8 1654.56 1543.95 L1654.56 1538.54 L1660.41 1538.54 L1660.41 1569.76 Z" fill="#000000" fill-rule="evenodd" fill-opacity="1" /><path clip-path="url(#clip960)" d="M1671.55 1524.72 L1676.65 1524.72 Q1681.42 1532.24 1683.78 1539.43 Q1686.16 1546.62 1686.16 1553.72 Q1686.16 1560.85 1683.78 1568.07 Q1681.42 1575.3 1676.65 1582.78 L1671.55 1582.78 Q1675.79 1575.49 1677.86 1568.3 Q1679.96 1561.07 1679.96 1553.72 Q1679.96 1546.37 1677.86 1539.21 Q1675.79 1532.04 1671.55 1524.72 Z" fill="#000000" fill-rule="evenodd" fill-opacity="1" /><polyline clip-path="url(#clip962)" style="stroke:#000000; stroke-linecap:butt; stroke-linejoin:round; stroke-width:2; stroke-opacity:0.1; fill:none" points="
  244.451,1157.31 2352.76,1157.31 
  "/>
<polyline clip-path="url(#clip962)" style="stroke:#000000; stroke-linecap:butt; stroke-linejoin:round; stroke-width:2; stroke-opacity:0.1; fill:none" points="
  244.451,753.831 2352.76,753.831 
  "/>
<polyline clip-path="url(#clip962)" style="stroke:#000000; stroke-linecap:butt; stroke-linejoin:round; stroke-width:2; stroke-opacity:0.1; fill:none" points="
  244.451,350.354 2352.76,350.354 
  "/>
<polyline clip-path="url(#clip960)" style="stroke:#000000; stroke-linecap:butt; stroke-linejoin:round; stroke-width:4; stroke-opacity:1; fill:none" points="
  244.451,1410.9 244.451,47.2441 
  "/>
<polyline clip-path="url(#clip960)" style="stroke:#000000; stroke-linecap:butt; stroke-linejoin:round; stroke-width:4; stroke-opacity:1; fill:none" points="
  2352.76,1410.9 2352.76,47.2441 
  "/>
<polyline clip-path="url(#clip960)" style="stroke:#000000; stroke-linecap:butt; stroke-linejoin:round; stroke-width:4; stroke-opacity:1; fill:none" points="
  244.451,1157.31 263.349,1157.31 
  "/>
<polyline clip-path="url(#clip960)" style="stroke:#000000; stroke-linecap:butt; stroke-linejoin:round; stroke-width:4; stroke-opacity:1; fill:none" points="
  244.451,753.831 263.349,753.831 
  "/>
<polyline clip-path="url(#clip960)" style="stroke:#000000; stroke-linecap:butt; stroke-linejoin:round; stroke-width:4; stroke-opacity:1; fill:none" points="
  244.451,350.354 263.349,350.354 
  "/>
<path clip-path="url(#clip960)" d="M137.745 1177.1 L145.384 1177.1 L145.384 1150.73 L137.074 1152.4 L137.074 1148.14 L145.338 1146.48 L150.014 1146.48 L150.014 1177.1 L157.653 1177.1 L157.653 1181.04 L137.745 1181.04 L137.745 1177.1 Z" fill="#000000" fill-rule="evenodd" fill-opacity="1" /><path clip-path="url(#clip960)" d="M177.097 1149.55 Q173.486 1149.55 171.657 1153.12 Q169.852 1156.66 169.852 1163.79 Q169.852 1170.9 171.657 1174.46 Q173.486 1178 177.097 1178 Q180.731 1178 182.537 1174.46 Q184.365 1170.9 184.365 1163.79 Q184.365 1156.66 182.537 1153.12 Q180.731 1149.55 177.097 1149.55 M177.097 1145.85 Q182.907 1145.85 185.963 1150.46 Q189.041 1155.04 189.041 1163.79 Q189.041 1172.52 185.963 1177.12 Q182.907 1181.71 177.097 1181.71 Q171.287 1181.71 168.208 1177.12 Q165.153 1172.52 165.153 1163.79 Q165.153 1155.04 168.208 1150.46 Q171.287 1145.85 177.097 1145.85 Z" fill="#000000" fill-rule="evenodd" fill-opacity="1" /><path clip-path="url(#clip960)" d="M198.746 1128.05 Q195.812 1128.05 194.326 1130.94 Q192.859 1133.82 192.859 1139.61 Q192.859 1145.39 194.326 1148.28 Q195.812 1151.16 198.746 1151.16 Q201.699 1151.16 203.166 1148.28 Q204.652 1145.39 204.652 1139.61 Q204.652 1133.82 203.166 1130.94 Q201.699 1128.05 198.746 1128.05 M198.746 1125.04 Q203.467 1125.04 205.949 1128.78 Q208.451 1132.5 208.451 1139.61 Q208.451 1146.7 205.949 1150.45 Q203.467 1154.17 198.746 1154.17 Q194.025 1154.17 191.524 1150.45 Q189.041 1146.7 189.041 1139.61 Q189.041 1132.5 191.524 1128.78 Q194.025 1125.04 198.746 1125.04 Z" fill="#000000" fill-rule="evenodd" fill-opacity="1" /><path clip-path="url(#clip960)" d="M138.987 773.623 L146.625 773.623 L146.625 747.257 L138.315 748.924 L138.315 744.665 L146.579 742.998 L151.255 742.998 L151.255 773.623 L158.894 773.623 L158.894 777.558 L138.987 777.558 L138.987 773.623 Z" fill="#000000" fill-rule="evenodd" fill-opacity="1" /><path clip-path="url(#clip960)" d="M178.338 746.077 Q174.727 746.077 172.898 749.642 Q171.093 753.183 171.093 760.313 Q171.093 767.419 172.898 770.984 Q174.727 774.526 178.338 774.526 Q181.972 774.526 183.778 770.984 Q185.607 767.419 185.607 760.313 Q185.607 753.183 183.778 749.642 Q181.972 746.077 178.338 746.077 M178.338 742.373 Q184.148 742.373 187.204 746.98 Q190.283 751.563 190.283 760.313 Q190.283 769.04 187.204 773.646 Q184.148 778.229 178.338 778.229 Q172.528 778.229 169.449 773.646 Q166.394 769.04 166.394 760.313 Q166.394 751.563 169.449 746.98 Q172.528 742.373 178.338 742.373 Z" fill="#000000" fill-rule="evenodd" fill-opacity="1" /><path clip-path="url(#clip960)" d="M191.467 722.068 L206.382 722.068 L206.382 725.265 L194.947 725.265 L194.947 732.149 Q195.774 731.867 196.602 731.735 Q197.43 731.585 198.257 731.585 Q202.959 731.585 205.705 734.161 Q208.451 736.738 208.451 741.139 Q208.451 745.672 205.63 748.192 Q202.809 750.693 197.674 750.693 Q195.906 750.693 194.063 750.392 Q192.239 750.091 190.283 749.49 L190.283 745.672 Q191.975 746.593 193.781 747.045 Q195.586 747.496 197.599 747.496 Q200.853 747.496 202.752 745.784 Q204.652 744.073 204.652 741.139 Q204.652 738.205 202.752 736.493 Q200.853 734.782 197.599 734.782 Q196.075 734.782 194.552 735.12 Q193.047 735.459 191.467 736.174 L191.467 722.068 Z" fill="#000000" fill-rule="evenodd" fill-opacity="1" /><path clip-path="url(#clip960)" d="M114.931 370.146 L122.57 370.146 L122.57 343.781 L114.26 345.447 L114.26 341.188 L122.524 339.521 L127.2 339.521 L127.2 370.146 L134.839 370.146 L134.839 374.081 L114.931 374.081 L114.931 370.146 Z" fill="#000000" fill-rule="evenodd" fill-opacity="1" /><path clip-path="url(#clip960)" d="M154.283 342.6 Q150.672 342.6 148.843 346.165 Q147.038 349.706 147.038 356.836 Q147.038 363.942 148.843 367.507 Q150.672 371.049 154.283 371.049 Q157.917 371.049 159.723 367.507 Q161.552 363.942 161.552 356.836 Q161.552 349.706 159.723 346.165 Q157.917 342.6 154.283 342.6 M154.283 338.896 Q160.093 338.896 163.149 343.503 Q166.227 348.086 166.227 356.836 Q166.227 365.563 163.149 370.169 Q160.093 374.753 154.283 374.753 Q148.473 374.753 145.394 370.169 Q142.339 365.563 142.339 356.836 Q142.339 348.086 145.394 343.503 Q148.473 338.896 154.283 338.896 Z" fill="#000000" fill-rule="evenodd" fill-opacity="1" /><path clip-path="url(#clip960)" d="M166.773 343.474 L172.979 343.474 L172.979 322.052 L166.227 323.406 L166.227 319.945 L172.942 318.591 L176.741 318.591 L176.741 343.474 L182.948 343.474 L182.948 346.671 L166.773 346.671 L166.773 343.474 Z" fill="#000000" fill-rule="evenodd" fill-opacity="1" /><path clip-path="url(#clip960)" d="M198.746 321.092 Q195.812 321.092 194.326 323.989 Q192.859 326.866 192.859 332.659 Q192.859 338.433 194.326 341.329 Q195.812 344.207 198.746 344.207 Q201.699 344.207 203.166 341.329 Q204.652 338.433 204.652 332.659 Q204.652 326.866 203.166 323.989 Q201.699 321.092 198.746 321.092 M198.746 318.083 Q203.467 318.083 205.949 321.826 Q208.451 325.55 208.451 332.659 Q208.451 339.75 205.949 343.492 Q203.467 347.216 198.746 347.216 Q194.025 347.216 191.524 343.492 Q189.041 339.75 189.041 332.659 Q189.041 325.55 191.524 321.826 Q194.025 318.083 198.746 318.083 Z" fill="#000000" fill-rule="evenodd" fill-opacity="1" /><path clip-path="url(#clip960)" d="M16.4842 1034.96 L16.4842 1004.91 L21.895 1004.91 L21.895 1028.53 L35.9632 1028.53 L35.9632 1005.9 L41.3741 1005.9 L41.3741 1028.53 L58.5933 1028.53 L58.5933 1004.34 L64.0042 1004.34 L64.0042 1034.96 L16.4842 1034.96 Z" fill="#000000" fill-rule="evenodd" fill-opacity="1" /><path clip-path="url(#clip960)" d="M33.8307 973.37 Q33.2578 974.357 33.0032 975.535 Q32.7167 976.68 32.7167 978.081 Q32.7167 983.046 35.9632 985.72 Q39.1779 988.362 45.2253 988.362 L64.0042 988.362 L64.0042 994.25 L28.3562 994.25 L28.3562 988.362 L33.8944 988.362 Q30.6479 986.515 29.0883 983.555 Q27.4968 980.595 27.4968 976.362 Q27.4968 975.757 27.5923 975.025 Q27.656 974.293 27.8151 973.402 L33.8307 973.37 Z" fill="#000000" fill-rule="evenodd" fill-opacity="1" /><path clip-path="url(#clip960)" d="M33.8307 947.716 Q33.2578 948.703 33.0032 949.881 Q32.7167 951.027 32.7167 952.427 Q32.7167 957.392 35.9632 960.066 Q39.1779 962.708 45.2253 962.708 L64.0042 962.708 L64.0042 968.596 L28.3562 968.596 L28.3562 962.708 L33.8944 962.708 Q30.6479 960.862 29.0883 957.902 Q27.4968 954.942 27.4968 950.708 Q27.4968 950.104 27.5923 949.372 Q27.656 948.64 27.8151 947.748 L33.8307 947.716 Z" fill="#000000" fill-rule="evenodd" fill-opacity="1" /><path clip-path="url(#clip960)" d="M32.4621 929.192 Q32.4621 933.903 36.1542 936.64 Q39.8145 939.377 46.212 939.377 Q52.6095 939.377 56.3017 936.672 Q59.9619 933.935 59.9619 929.192 Q59.9619 924.513 56.2698 921.776 Q52.5777 919.039 46.212 919.039 Q39.8781 919.039 36.186 921.776 Q32.4621 924.513 32.4621 929.192 M27.4968 929.192 Q27.4968 921.553 32.4621 917.193 Q37.4273 912.832 46.212 912.832 Q54.9649 912.832 59.9619 917.193 Q64.9272 921.553 64.9272 929.192 Q64.9272 936.863 59.9619 941.223 Q54.9649 945.552 46.212 945.552 Q37.4273 945.552 32.4621 941.223 Q27.4968 936.863 27.4968 929.192 Z" fill="#000000" fill-rule="evenodd" fill-opacity="1" /><path clip-path="url(#clip960)" d="M33.8307 882.468 Q33.2578 883.455 33.0032 884.632 Q32.7167 885.778 32.7167 887.179 Q32.7167 892.144 35.9632 894.817 Q39.1779 897.459 45.2253 897.459 L64.0042 897.459 L64.0042 903.348 L28.3562 903.348 L28.3562 897.459 L33.8944 897.459 Q30.6479 895.613 29.0883 892.653 Q27.4968 889.693 27.4968 885.46 Q27.4968 884.855 27.5923 884.123 Q27.656 883.391 27.8151 882.5 L33.8307 882.468 Z" fill="#000000" fill-rule="evenodd" fill-opacity="1" /><path clip-path="url(#clip960)" d="M55.9197 875.975 L55.9197 869.259 L64.0042 869.259 L64.0042 875.975 L55.9197 875.975 M30.2977 875.975 L30.2977 869.259 L38.3822 869.259 L38.3822 875.975 L30.2977 875.975 Z" fill="#000000" fill-rule="evenodd" fill-opacity="1" /><path clip-path="url(#clip960)" d="M58.5933 828.423 L58.5933 805.984 L64.0042 805.984 L64.0042 836.157 L58.5933 836.157 Q54.8057 832.497 48.44 826.195 Q42.0425 819.861 40.1964 818.238 Q36.7271 815.151 34.34 813.941 Q31.921 812.7 29.5975 812.7 Q25.8099 812.7 23.4228 815.373 Q21.0356 818.015 21.0356 822.28 Q21.0356 825.304 22.086 828.678 Q23.1363 832.02 25.2688 835.839 L18.7758 835.839 Q17.2162 831.956 16.4205 828.582 Q15.6248 825.208 15.6248 822.408 Q15.6248 815.023 19.3169 810.631 Q23.009 806.239 29.1837 806.239 Q32.112 806.239 34.7537 807.353 Q37.3637 808.435 40.9285 811.331 Q41.8515 812.127 46.2757 816.392 Q50.668 820.657 58.5933 828.423 Z" fill="#000000" fill-rule="evenodd" fill-opacity="1" /><path clip-path="url(#clip960)" d="M43.5384 796.276 L43.5384 779.121 L48.7583 779.121 L48.7583 796.276 L43.5384 796.276 Z" fill="#000000" fill-rule="evenodd" fill-opacity="1" /><path clip-path="url(#clip960)" d="M42.4881 740.163 L64.0042 740.163 L64.0042 746.019 L42.679 746.019 Q37.6183 746.019 35.1038 747.992 Q32.5894 749.966 32.5894 753.913 Q32.5894 758.655 35.6131 761.392 Q38.6368 764.129 43.8567 764.129 L64.0042 764.129 L64.0042 770.018 L28.3562 770.018 L28.3562 764.129 L33.8944 764.129 Q30.6797 762.029 29.0883 759.196 Q27.4968 756.332 27.4968 752.608 Q27.4968 746.465 31.3163 743.314 Q35.1038 740.163 42.4881 740.163 Z" fill="#000000" fill-rule="evenodd" fill-opacity="1" /><path clip-path="url(#clip960)" d="M32.4621 714.668 Q32.4621 719.379 36.1542 722.116 Q39.8145 724.853 46.212 724.853 Q52.6095 724.853 56.3017 722.148 Q59.9619 719.41 59.9619 714.668 Q59.9619 709.989 56.2698 707.252 Q52.5777 704.515 46.212 704.515 Q39.8781 704.515 36.186 707.252 Q32.4621 709.989 32.4621 714.668 M27.4968 714.668 Q27.4968 707.029 32.4621 702.669 Q37.4273 698.308 46.212 698.308 Q54.9649 698.308 59.9619 702.669 Q64.9272 707.029 64.9272 714.668 Q64.9272 722.339 59.9619 726.699 Q54.9649 731.028 46.212 731.028 Q37.4273 731.028 32.4621 726.699 Q27.4968 722.339 27.4968 714.668 Z" fill="#000000" fill-rule="evenodd" fill-opacity="1" /><path clip-path="url(#clip960)" d="M33.8307 667.944 Q33.2578 668.93 33.0032 670.108 Q32.7167 671.254 32.7167 672.654 Q32.7167 677.62 35.9632 680.293 Q39.1779 682.935 45.2253 682.935 L64.0042 682.935 L64.0042 688.823 L28.3562 688.823 L28.3562 682.935 L33.8944 682.935 Q30.6479 681.089 29.0883 678.129 Q27.4968 675.169 27.4968 670.936 Q27.4968 670.331 27.5923 669.599 Q27.656 668.867 27.8151 667.975 L33.8307 667.944 Z" fill="#000000" fill-rule="evenodd" fill-opacity="1" /><path clip-path="url(#clip960)" d="M35.1993 635.192 Q31.2526 632.996 29.3747 629.94 Q27.4968 626.885 27.4968 622.747 Q27.4968 617.177 31.4117 614.153 Q35.2948 611.13 42.4881 611.13 L64.0042 611.13 L64.0042 617.018 L42.679 617.018 Q37.5546 617.018 35.072 618.832 Q32.5894 620.646 32.5894 624.37 Q32.5894 628.922 35.6131 631.564 Q38.6368 634.205 43.8567 634.205 L64.0042 634.205 L64.0042 640.094 L42.679 640.094 Q37.5228 640.094 35.072 641.908 Q32.5894 643.722 32.5894 647.51 Q32.5894 651.998 35.6449 654.639 Q38.6686 657.281 43.8567 657.281 L64.0042 657.281 L64.0042 663.169 L28.3562 663.169 L28.3562 657.281 L33.8944 657.281 Q30.616 655.276 29.0564 652.475 Q27.4968 649.674 27.4968 645.823 Q27.4968 641.94 29.4702 639.234 Q31.4436 636.497 35.1993 635.192 Z" fill="#000000" fill-rule="evenodd" fill-opacity="1" /><path clip-path="url(#clip960)" d="M14.5426 564.66 Q21.8632 568.925 29.0246 570.994 Q36.186 573.063 43.5384 573.063 Q50.8908 573.063 58.1159 570.994 Q65.3091 568.893 72.5979 564.66 L72.5979 569.753 Q65.1182 574.527 57.8931 576.914 Q50.668 579.269 43.5384 579.269 Q36.4406 579.269 29.2474 576.914 Q22.0542 574.559 14.5426 569.753 L14.5426 564.66 Z" fill="#000000" fill-rule="evenodd" fill-opacity="1" /><path clip-path="url(#clip960)" d="M16.4842 553.043 L16.4842 546.613 L58.5933 546.613 L58.5933 523.474 L64.0042 523.474 L64.0042 553.043 L16.4842 553.043 Z" fill="#000000" fill-rule="evenodd" fill-opacity="1" /><path clip-path="url(#clip960)" d="M32.4621 504.313 Q32.4621 509.024 36.1542 511.761 Q39.8145 514.498 46.212 514.498 Q52.6095 514.498 56.3017 511.793 Q59.9619 509.056 59.9619 504.313 Q59.9619 499.634 56.2698 496.897 Q52.5777 494.16 46.212 494.16 Q39.8781 494.16 36.186 496.897 Q32.4621 499.634 32.4621 504.313 M27.4968 504.313 Q27.4968 496.674 32.4621 492.314 Q37.4273 487.953 46.212 487.953 Q54.9649 487.953 59.9619 492.314 Q64.9272 496.674 64.9272 504.313 Q64.9272 511.984 59.9619 516.344 Q54.9649 520.673 46.212 520.673 Q37.4273 520.673 32.4621 516.344 Q27.4968 511.984 27.4968 504.313 Z" fill="#000000" fill-rule="evenodd" fill-opacity="1" /><path clip-path="url(#clip960)" d="M45.7664 454.788 Q39.4007 454.788 35.8996 457.43 Q32.3984 460.04 32.3984 464.782 Q32.3984 469.493 35.8996 472.135 Q39.4007 474.744 45.7664 474.744 Q52.1003 474.744 55.6014 472.135 Q59.1026 469.493 59.1026 464.782 Q59.1026 460.04 55.6014 457.43 Q52.1003 454.788 45.7664 454.788 M59.58 448.932 Q68.683 448.932 73.1071 452.974 Q77.5631 457.016 77.5631 465.355 Q77.5631 468.442 77.0857 471.18 Q76.6401 473.917 75.6852 476.495 L69.9879 476.495 Q71.3884 473.917 72.0568 471.402 Q72.7252 468.888 72.7252 466.278 Q72.7252 460.517 69.7015 457.653 Q66.7096 454.788 60.6303 454.788 L57.7339 454.788 Q60.885 456.602 62.4446 459.435 Q64.0042 462.268 64.0042 466.214 Q64.0042 472.771 59.0071 476.782 Q54.01 480.792 45.7664 480.792 Q37.491 480.792 32.4939 476.782 Q27.4968 472.771 27.4968 466.214 Q27.4968 462.268 29.0564 459.435 Q30.616 456.602 33.7671 454.788 L28.3562 454.788 L28.3562 448.932 L59.58 448.932 Z" fill="#000000" fill-rule="evenodd" fill-opacity="1" /><path clip-path="url(#clip960)" d="M14.5426 437.792 L14.5426 432.699 Q22.0542 427.925 29.2474 425.569 Q36.4406 423.182 43.5384 423.182 Q50.668 423.182 57.8931 425.569 Q65.1182 427.925 72.5979 432.699 L72.5979 437.792 Q65.3091 433.558 58.1159 431.489 Q50.8908 429.389 43.5384 429.389 Q36.186 429.389 29.0246 431.489 Q21.8632 433.558 14.5426 437.792 Z" fill="#000000" fill-rule="evenodd" fill-opacity="1" /><polyline clip-path="url(#clip962)" style="stroke:#0000ff; stroke-linecap:butt; stroke-linejoin:round; stroke-width:8; stroke-opacity:1; fill:none" points="
  514.503,85.8385 793.151,1222.28 1125.16,1273.26 1450.07,1307.51 1854.47,1338.58 2182.55,1369.23 
  "/>
<circle clip-path="url(#clip962)" cx="514.503" cy="85.8385" r="18" fill="#ffffff" fill-rule="evenodd" fill-opacity="1" stroke="#000000" stroke-opacity="1" stroke-width="3.2"/>
<circle clip-path="url(#clip962)" cx="793.151" cy="1222.28" r="18" fill="#ffffff" fill-rule="evenodd" fill-opacity="1" stroke="#000000" stroke-opacity="1" stroke-width="3.2"/>
<circle clip-path="url(#clip962)" cx="1125.16" cy="1273.26" r="18" fill="#ffffff" fill-rule="evenodd" fill-opacity="1" stroke="#000000" stroke-opacity="1" stroke-width="3.2"/>
<circle clip-path="url(#clip962)" cx="1450.07" cy="1307.51" r="18" fill="#ffffff" fill-rule="evenodd" fill-opacity="1" stroke="#000000" stroke-opacity="1" stroke-width="3.2"/>
<circle clip-path="url(#clip962)" cx="1854.47" cy="1338.58" r="18" fill="#ffffff" fill-rule="evenodd" fill-opacity="1" stroke="#000000" stroke-opacity="1" stroke-width="3.2"/>
<circle clip-path="url(#clip962)" cx="2182.55" cy="1369.23" r="18" fill="#ffffff" fill-rule="evenodd" fill-opacity="1" stroke="#000000" stroke-opacity="1" stroke-width="3.2"/>
<polyline clip-path="url(#clip962)" style="stroke:#0000ff; stroke-linecap:butt; stroke-linejoin:round; stroke-width:8; stroke-opacity:1; fill:none" points="
  304.12,1221.91 636.377,1248.77 970.132,1278.08 1357.96,1308.26 1690.3,1338.7 2001.06,1369.25 
  "/>
<path clip-path="url(#clip962)" d="M284.12 1201.91 L284.12 1241.91 L324.12 1241.91 L324.12 1201.91 L284.12 1201.91 Z" fill="#ffffff" fill-rule="evenodd" fill-opacity="1" stroke="#000000" stroke-opacity="1" stroke-width="3.2"/>
<path clip-path="url(#clip962)" d="M616.377 1228.77 L616.377 1268.77 L656.377 1268.77 L656.377 1228.77 L616.377 1228.77 Z" fill="#ffffff" fill-rule="evenodd" fill-opacity="1" stroke="#000000" stroke-opacity="1" stroke-width="3.2"/>
<path clip-path="url(#clip962)" d="M950.132 1258.08 L950.132 1298.08 L990.132 1298.08 L990.132 1258.08 L950.132 1258.08 Z" fill="#ffffff" fill-rule="evenodd" fill-opacity="1" stroke="#000000" stroke-opacity="1" stroke-width="3.2"/>
<path clip-path="url(#clip962)" d="M1337.96 1288.26 L1337.96 1328.26 L1377.96 1328.26 L1377.96 1288.26 L1337.96 1288.26 Z" fill="#ffffff" fill-rule="evenodd" fill-opacity="1" stroke="#000000" stroke-opacity="1" stroke-width="3.2"/>
<path clip-path="url(#clip962)" d="M1670.3 1318.7 L1670.3 1358.7 L1710.3 1358.7 L1710.3 1318.7 L1670.3 1318.7 Z" fill="#ffffff" fill-rule="evenodd" fill-opacity="1" stroke="#000000" stroke-opacity="1" stroke-width="3.2"/>
<path clip-path="url(#clip962)" d="M1981.06 1349.25 L1981.06 1389.25 L2021.06 1389.25 L2021.06 1349.25 L1981.06 1349.25 Z" fill="#ffffff" fill-rule="evenodd" fill-opacity="1" stroke="#000000" stroke-opacity="1" stroke-width="3.2"/>
<polyline clip-path="url(#clip962)" style="stroke:#ff0000; stroke-linecap:butt; stroke-linejoin:round; stroke-width:8; stroke-opacity:1; fill:none" points="
  475.343,716.19 660.314,1177.02 1001.33,1207.4 1329.8,1227.22 1688.98,1243.04 2019.64,1257.04 
  "/>
<path clip-path="url(#clip962)" d="M491.343 716.19 L467.343 702.19 L467.343 730.19 L491.343 716.19 Z" fill="#ffffff" fill-rule="evenodd" fill-opacity="1" stroke="#000000" stroke-opacity="1" stroke-width="3.2"/>
<path clip-path="url(#clip962)" d="M676.314 1177.02 L652.314 1163.02 L652.314 1191.02 L676.314 1177.02 Z" fill="#ffffff" fill-rule="evenodd" fill-opacity="1" stroke="#000000" stroke-opacity="1" stroke-width="3.2"/>
<path clip-path="url(#clip962)" d="M1017.33 1207.4 L993.331 1193.4 L993.331 1221.4 L1017.33 1207.4 Z" fill="#ffffff" fill-rule="evenodd" fill-opacity="1" stroke="#000000" stroke-opacity="1" stroke-width="3.2"/>
<path clip-path="url(#clip962)" d="M1345.8 1227.22 L1321.8 1213.22 L1321.8 1241.22 L1345.8 1227.22 Z" fill="#ffffff" fill-rule="evenodd" fill-opacity="1" stroke="#000000" stroke-opacity="1" stroke-width="3.2"/>
<path clip-path="url(#clip962)" d="M1704.98 1243.04 L1680.98 1229.04 L1680.98 1257.04 L1704.98 1243.04 Z" fill="#ffffff" fill-rule="evenodd" fill-opacity="1" stroke="#000000" stroke-opacity="1" stroke-width="3.2"/>
<path clip-path="url(#clip962)" d="M2035.64 1257.04 L2011.64 1243.04 L2011.64 1271.04 L2035.64 1257.04 Z" fill="#ffffff" fill-rule="evenodd" fill-opacity="1" stroke="#000000" stroke-opacity="1" stroke-width="3.2"/>
<polyline clip-path="url(#clip962)" style="stroke:#ff0000; stroke-linecap:butt; stroke-linejoin:round; stroke-width:8; stroke-opacity:1; fill:none" points="
  574.634,85.838 919.592,1222.28 1253.98,1273.31 1565.49,1307.73 1932.04,1339.41 2293.09,1372.28 
  "/>
<circle clip-path="url(#clip962)" cx="574.634" cy="85.838" r="18" fill="#ffffff" fill-rule="evenodd" fill-opacity="1" stroke="#000000" stroke-opacity="1" stroke-width="3.2"/>
<circle clip-path="url(#clip962)" cx="919.592" cy="1222.28" r="18" fill="#ffffff" fill-rule="evenodd" fill-opacity="1" stroke="#000000" stroke-opacity="1" stroke-width="3.2"/>
<circle clip-path="url(#clip962)" cx="1253.98" cy="1273.31" r="18" fill="#ffffff" fill-rule="evenodd" fill-opacity="1" stroke="#000000" stroke-opacity="1" stroke-width="3.2"/>
<circle clip-path="url(#clip962)" cx="1565.49" cy="1307.73" r="18" fill="#ffffff" fill-rule="evenodd" fill-opacity="1" stroke="#000000" stroke-opacity="1" stroke-width="3.2"/>
<circle clip-path="url(#clip962)" cx="1932.04" cy="1339.41" r="18" fill="#ffffff" fill-rule="evenodd" fill-opacity="1" stroke="#000000" stroke-opacity="1" stroke-width="3.2"/>
<circle clip-path="url(#clip962)" cx="2293.09" cy="1372.28" r="18" fill="#ffffff" fill-rule="evenodd" fill-opacity="1" stroke="#000000" stroke-opacity="1" stroke-width="3.2"/>
<polyline clip-path="url(#clip962)" style="stroke:#ff0000; stroke-linecap:butt; stroke-linejoin:round; stroke-width:8; stroke-opacity:1; fill:none" points="
  410.38,1223.84 990.725,1225.41 1077.48,1231.39 1391.38,1239.91 1756.08,1249.86 2070.82,1260.66 
  "/>
<path clip-path="url(#clip962)" d="M410.38 1203.84 L390.38 1223.84 L410.38 1243.84 L430.38 1223.84 L410.38 1203.84 Z" fill="#ffffff" fill-rule="evenodd" fill-opacity="1" stroke="#000000" stroke-opacity="1" stroke-width="3.2"/>
<path clip-path="url(#clip962)" d="M990.725 1205.41 L970.725 1225.41 L990.725 1245.41 L1010.72 1225.41 L990.725 1205.41 Z" fill="#ffffff" fill-rule="evenodd" fill-opacity="1" stroke="#000000" stroke-opacity="1" stroke-width="3.2"/>
<path clip-path="url(#clip962)" d="M1077.48 1211.39 L1057.48 1231.39 L1077.48 1251.39 L1097.48 1231.39 L1077.48 1211.39 Z" fill="#ffffff" fill-rule="evenodd" fill-opacity="1" stroke="#000000" stroke-opacity="1" stroke-width="3.2"/>
<path clip-path="url(#clip962)" d="M1391.38 1219.91 L1371.38 1239.91 L1391.38 1259.91 L1411.38 1239.91 L1391.38 1219.91 Z" fill="#ffffff" fill-rule="evenodd" fill-opacity="1" stroke="#000000" stroke-opacity="1" stroke-width="3.2"/>
<path clip-path="url(#clip962)" d="M1756.08 1229.86 L1736.08 1249.86 L1756.08 1269.86 L1776.08 1249.86 L1756.08 1229.86 Z" fill="#ffffff" fill-rule="evenodd" fill-opacity="1" stroke="#000000" stroke-opacity="1" stroke-width="3.2"/>
<path clip-path="url(#clip962)" d="M2070.82 1240.66 L2050.82 1260.66 L2070.82 1280.66 L2090.82 1260.66 L2070.82 1240.66 Z" fill="#ffffff" fill-rule="evenodd" fill-opacity="1" stroke="#000000" stroke-opacity="1" stroke-width="3.2"/>
<polyline clip-path="url(#clip962)" style="stroke:#ff0000; stroke-linecap:butt; stroke-linejoin:round; stroke-width:8; stroke-opacity:1; fill:none" points="
  375.82,1221.91 720.085,1248.78 1052.89,1278.13 1400.82,1308.48 1747.55,1339.54 2074.45,1372.3 
  "/>
<path clip-path="url(#clip962)" d="M355.82 1201.91 L355.82 1241.91 L395.82 1241.91 L395.82 1201.91 L355.82 1201.91 Z" fill="#ffffff" fill-rule="evenodd" fill-opacity="1" stroke="#000000" stroke-opacity="1" stroke-width="3.2"/>
<path clip-path="url(#clip962)" d="M700.085 1228.78 L700.085 1268.78 L740.085 1268.78 L740.085 1228.78 L700.085 1228.78 Z" fill="#ffffff" fill-rule="evenodd" fill-opacity="1" stroke="#000000" stroke-opacity="1" stroke-width="3.2"/>
<path clip-path="url(#clip962)" d="M1032.89 1258.13 L1032.89 1298.13 L1072.89 1298.13 L1072.89 1258.13 L1032.89 1258.13 Z" fill="#ffffff" fill-rule="evenodd" fill-opacity="1" stroke="#000000" stroke-opacity="1" stroke-width="3.2"/>
<path clip-path="url(#clip962)" d="M1380.82 1288.48 L1380.82 1328.48 L1420.82 1328.48 L1420.82 1288.48 L1380.82 1288.48 Z" fill="#ffffff" fill-rule="evenodd" fill-opacity="1" stroke="#000000" stroke-opacity="1" stroke-width="3.2"/>
<path clip-path="url(#clip962)" d="M1727.55 1319.54 L1727.55 1359.54 L1767.55 1359.54 L1767.55 1319.54 L1727.55 1319.54 Z" fill="#ffffff" fill-rule="evenodd" fill-opacity="1" stroke="#000000" stroke-opacity="1" stroke-width="3.2"/>
<path clip-path="url(#clip962)" d="M2054.45 1352.3 L2054.45 1392.3 L2094.45 1392.3 L2094.45 1352.3 L2054.45 1352.3 Z" fill="#ffffff" fill-rule="evenodd" fill-opacity="1" stroke="#000000" stroke-opacity="1" stroke-width="3.2"/>
<path clip-path="url(#clip960)" d="
M1736.6 884.59 L2282.48 884.59 L2282.48 521.71 L1736.6 521.71  Z
  " fill="#ffffff" fill-rule="evenodd" fill-opacity="1"/>
<polyline clip-path="url(#clip960)" style="stroke:#000000; stroke-linecap:butt; stroke-linejoin:round; stroke-width:4; stroke-opacity:1; fill:none" points="
  1736.6,884.59 2282.48,884.59 2282.48,521.71 1736.6,521.71 1736.6,884.59 
  "/>
<polyline clip-path="url(#clip960)" style="stroke:#0000ff; stroke-linecap:butt; stroke-linejoin:round; stroke-width:4; stroke-opacity:1; fill:none" points="
  1760.03,573.55 1900.58,573.55 
  "/>
<circle clip-path="url(#clip960)" cx="1830.31" cy="573.55" r="23.04" fill="#ffffff" fill-rule="evenodd" fill-opacity="1" stroke="#000000" stroke-opacity="1" stroke-width="4.096"/>
<path clip-path="url(#clip960)" d="M1931.12 556.27 L1935.79 556.27 L1935.79 588.423 Q1935.79 594.673 1933.41 597.497 Q1931.05 600.321 1925.79 600.321 L1924.01 600.321 L1924.01 596.386 L1925.47 596.386 Q1928.57 596.386 1929.84 594.65 Q1931.12 592.914 1931.12 588.423 L1931.12 556.27 Z" fill="#000000" fill-rule="evenodd" fill-opacity="1" /><path clip-path="url(#clip960)" d="M1944.47 580.599 L1944.47 564.905 L1948.73 564.905 L1948.73 580.437 Q1948.73 584.117 1950.17 585.969 Q1951.6 587.798 1954.47 587.798 Q1957.92 587.798 1959.91 585.599 Q1961.93 583.4 1961.93 579.604 L1961.93 564.905 L1966.18 564.905 L1966.18 590.83 L1961.93 590.83 L1961.93 586.849 Q1960.37 589.21 1958.31 590.367 Q1956.28 591.502 1953.57 591.502 Q1949.1 591.502 1946.79 588.724 Q1944.47 585.946 1944.47 580.599 M1955.19 564.28 L1955.19 564.28 Z" fill="#000000" fill-rule="evenodd" fill-opacity="1" /><path clip-path="url(#clip960)" d="M1974.96 554.812 L1979.22 554.812 L1979.22 590.83 L1974.96 590.83 L1974.96 554.812 Z" fill="#000000" fill-rule="evenodd" fill-opacity="1" /><path clip-path="url(#clip960)" d="M1988.13 564.905 L1992.39 564.905 L1992.39 590.83 L1988.13 590.83 L1988.13 564.905 M1988.13 554.812 L1992.39 554.812 L1992.39 560.206 L1988.13 560.206 L1988.13 554.812 Z" fill="#000000" fill-rule="evenodd" fill-opacity="1" /><path clip-path="url(#clip960)" d="M2013.08 577.798 Q2007.92 577.798 2005.93 578.979 Q2003.94 580.159 2003.94 583.006 Q2003.94 585.275 2005.42 586.617 Q2006.93 587.937 2009.49 587.937 Q2013.04 587.937 2015.17 585.437 Q2017.32 582.914 2017.32 578.747 L2017.32 577.798 L2013.08 577.798 M2021.58 576.039 L2021.58 590.83 L2017.32 590.83 L2017.32 586.895 Q2015.86 589.256 2013.68 590.391 Q2011.51 591.502 2008.36 591.502 Q2004.38 591.502 2002.02 589.279 Q1999.68 587.034 1999.68 583.284 Q1999.68 578.909 2002.6 576.687 Q2005.54 574.465 2011.35 574.465 L2017.32 574.465 L2017.32 574.048 Q2017.32 571.108 2015.37 569.511 Q2013.45 567.891 2009.96 567.891 Q2007.74 567.891 2005.63 568.423 Q2003.52 568.955 2001.58 570.02 L2001.58 566.085 Q2003.92 565.182 2006.12 564.743 Q2008.31 564.28 2010.4 564.28 Q2016.02 564.28 2018.8 567.196 Q2021.58 570.113 2021.58 576.039 Z" fill="#000000" fill-rule="evenodd" fill-opacity="1" /><path clip-path="url(#clip960)" d="M2050.28 560.113 L2050.28 573.099 L2056.16 573.099 Q2059.43 573.099 2061.21 571.409 Q2062.99 569.719 2062.99 566.594 Q2062.99 563.493 2061.21 561.803 Q2059.43 560.113 2056.16 560.113 L2050.28 560.113 M2045.61 556.27 L2056.16 556.27 Q2061.97 556.27 2064.93 558.909 Q2067.92 561.525 2067.92 566.594 Q2067.92 571.71 2064.93 574.326 Q2061.97 576.942 2056.16 576.942 L2050.28 576.942 L2050.28 590.83 L2045.61 590.83 L2045.61 556.27 Z" fill="#000000" fill-rule="evenodd" fill-opacity="1" /><path clip-path="url(#clip960)" d="M2100.07 558.932 L2100.07 563.863 Q2097.71 561.664 2095.03 560.576 Q2092.36 559.488 2089.36 559.488 Q2083.43 559.488 2080.28 563.122 Q2077.13 566.733 2077.13 573.585 Q2077.13 580.414 2080.28 584.048 Q2083.43 587.659 2089.36 587.659 Q2092.36 587.659 2095.03 586.571 Q2097.71 585.483 2100.07 583.284 L2100.07 588.168 Q2097.62 589.835 2094.86 590.668 Q2092.13 591.502 2089.08 591.502 Q2081.23 591.502 2076.72 586.71 Q2072.2 581.895 2072.2 573.585 Q2072.2 565.252 2076.72 560.46 Q2081.23 555.645 2089.08 555.645 Q2092.18 555.645 2094.91 556.479 Q2097.67 557.289 2100.07 558.932 Z" fill="#000000" fill-rule="evenodd" fill-opacity="1" /><polyline clip-path="url(#clip960)" style="stroke:#0000ff; stroke-linecap:butt; stroke-linejoin:round; stroke-width:4; stroke-opacity:1; fill:none" points="
  1760.03,625.39 1900.58,625.39 
  "/>
<path clip-path="url(#clip960)" d="M1804.71 599.79 L1804.71 650.99 L1855.91 650.99 L1855.91 599.79 L1804.71 599.79 Z" fill="#ffffff" fill-rule="evenodd" fill-opacity="1" stroke="#000000" stroke-opacity="1" stroke-width="4.096"/>
<path clip-path="url(#clip960)" d="M1931.12 608.11 L1935.79 608.11 L1935.79 640.263 Q1935.79 646.513 1933.41 649.337 Q1931.05 652.161 1925.79 652.161 L1924.01 652.161 L1924.01 648.226 L1925.47 648.226 Q1928.57 648.226 1929.84 646.49 Q1931.12 644.754 1931.12 640.263 L1931.12 608.11 Z" fill="#000000" fill-rule="evenodd" fill-opacity="1" /><path clip-path="url(#clip960)" d="M1944.47 632.439 L1944.47 616.745 L1948.73 616.745 L1948.73 632.277 Q1948.73 635.957 1950.17 637.809 Q1951.6 639.638 1954.47 639.638 Q1957.92 639.638 1959.91 637.439 Q1961.93 635.24 1961.93 631.444 L1961.93 616.745 L1966.18 616.745 L1966.18 642.67 L1961.93 642.67 L1961.93 638.689 Q1960.37 641.05 1958.31 642.207 Q1956.28 643.342 1953.57 643.342 Q1949.1 643.342 1946.79 640.564 Q1944.47 637.786 1944.47 632.439 M1955.19 616.12 L1955.19 616.12 Z" fill="#000000" fill-rule="evenodd" fill-opacity="1" /><path clip-path="url(#clip960)" d="M1974.96 606.652 L1979.22 606.652 L1979.22 642.67 L1974.96 642.67 L1974.96 606.652 Z" fill="#000000" fill-rule="evenodd" fill-opacity="1" /><path clip-path="url(#clip960)" d="M1988.13 616.745 L1992.39 616.745 L1992.39 642.67 L1988.13 642.67 L1988.13 616.745 M1988.13 606.652 L1992.39 606.652 L1992.39 612.046 L1988.13 612.046 L1988.13 606.652 Z" fill="#000000" fill-rule="evenodd" fill-opacity="1" /><path clip-path="url(#clip960)" d="M2013.08 629.638 Q2007.92 629.638 2005.93 630.819 Q2003.94 631.999 2003.94 634.846 Q2003.94 637.115 2005.42 638.457 Q2006.93 639.777 2009.49 639.777 Q2013.04 639.777 2015.17 637.277 Q2017.32 634.754 2017.32 630.587 L2017.32 629.638 L2013.08 629.638 M2021.58 627.879 L2021.58 642.67 L2017.32 642.67 L2017.32 638.735 Q2015.86 641.096 2013.68 642.231 Q2011.51 643.342 2008.36 643.342 Q2004.38 643.342 2002.02 641.119 Q1999.68 638.874 1999.68 635.124 Q1999.68 630.749 2002.6 628.527 Q2005.54 626.305 2011.35 626.305 L2017.32 626.305 L2017.32 625.888 Q2017.32 622.948 2015.37 621.351 Q2013.45 619.731 2009.96 619.731 Q2007.74 619.731 2005.63 620.263 Q2003.52 620.795 2001.58 621.86 L2001.58 617.925 Q2003.92 617.022 2006.12 616.583 Q2008.31 616.12 2010.4 616.12 Q2016.02 616.12 2018.8 619.036 Q2021.58 621.953 2021.58 627.879 Z" fill="#000000" fill-rule="evenodd" fill-opacity="1" /><path clip-path="url(#clip960)" d="M2045.61 608.11 L2051.9 608.11 L2067.23 637.022 L2067.23 608.11 L2071.76 608.11 L2071.76 642.67 L2065.47 642.67 L2050.14 613.758 L2050.14 642.67 L2045.61 642.67 L2045.61 608.11 Z" fill="#000000" fill-rule="evenodd" fill-opacity="1" /><path clip-path="url(#clip960)" d="M2097.46 626.467 Q2098.96 626.976 2100.37 628.643 Q2101.81 630.309 2103.24 633.226 L2107.99 642.67 L2102.97 642.67 L2098.55 633.805 Q2096.83 630.332 2095.21 629.198 Q2093.61 628.064 2090.84 628.064 L2085.74 628.064 L2085.74 642.67 L2081.07 642.67 L2081.07 608.11 L2091.62 608.11 Q2097.55 608.11 2100.47 610.587 Q2103.38 613.064 2103.38 618.064 Q2103.38 621.328 2101.86 623.481 Q2100.35 625.633 2097.46 626.467 M2085.74 611.953 L2085.74 624.221 L2091.62 624.221 Q2095 624.221 2096.72 622.67 Q2098.45 621.096 2098.45 618.064 Q2098.45 615.032 2096.72 613.504 Q2095 611.953 2091.62 611.953 L2085.74 611.953 Z" fill="#000000" fill-rule="evenodd" fill-opacity="1" /><polyline clip-path="url(#clip960)" style="stroke:#ff0000; stroke-linecap:butt; stroke-linejoin:round; stroke-width:4; stroke-opacity:1; fill:none" points="
  1760.03,677.23 1900.58,677.23 
  "/>
<path clip-path="url(#clip960)" d="M1850.79 677.23 L1820.07 659.31 L1820.07 695.15 L1850.79 677.23 Z" fill="#ffffff" fill-rule="evenodd" fill-opacity="1" stroke="#000000" stroke-opacity="1" stroke-width="4.096"/>
<path clip-path="url(#clip960)" d="M1924.01 659.95 L1930.98 659.95 L1939.8 683.469 L1948.66 659.95 L1955.63 659.95 L1955.63 694.51 L1951.07 694.51 L1951.07 664.163 L1942.16 687.867 L1937.46 687.867 L1928.55 664.163 L1928.55 694.51 L1924.01 694.51 L1924.01 659.95 Z" fill="#000000" fill-rule="evenodd" fill-opacity="1" /><path clip-path="url(#clip960)" d="M1976.51 681.478 Q1971.35 681.478 1969.36 682.659 Q1967.37 683.839 1967.37 686.686 Q1967.37 688.955 1968.85 690.297 Q1970.35 691.617 1972.92 691.617 Q1976.46 691.617 1978.59 689.117 Q1980.74 686.594 1980.74 682.427 L1980.74 681.478 L1976.51 681.478 M1985 679.719 L1985 694.51 L1980.74 694.51 L1980.74 690.575 Q1979.29 692.936 1977.11 694.071 Q1974.93 695.182 1971.79 695.182 Q1967.81 695.182 1965.44 692.959 Q1963.11 690.714 1963.11 686.964 Q1963.11 682.589 1966.02 680.367 Q1968.96 678.145 1974.77 678.145 L1980.74 678.145 L1980.74 677.728 Q1980.74 674.788 1978.8 673.191 Q1976.88 671.571 1973.38 671.571 Q1971.16 671.571 1969.06 672.103 Q1966.95 672.635 1965 673.7 L1965 669.765 Q1967.34 668.862 1969.54 668.423 Q1971.74 667.96 1973.82 667.96 Q1979.45 667.96 1982.23 670.876 Q1985 673.793 1985 679.719 Z" fill="#000000" fill-rule="evenodd" fill-opacity="1" /><path clip-path="url(#clip960)" d="M1997.99 661.224 L1997.99 668.585 L2006.76 668.585 L2006.76 671.895 L1997.99 671.895 L1997.99 685.969 Q1997.99 689.14 1998.85 690.043 Q1999.73 690.946 2002.39 690.946 L2006.76 690.946 L2006.76 694.51 L2002.39 694.51 Q1997.46 694.51 1995.58 692.682 Q1993.71 690.83 1993.71 685.969 L1993.71 671.895 L1990.58 671.895 L1990.58 668.585 L1993.71 668.585 L1993.71 661.224 L1997.99 661.224 Z" fill="#000000" fill-rule="evenodd" fill-opacity="1" /><path clip-path="url(#clip960)" d="M2012.37 658.492 L2016.62 658.492 L2016.62 694.51 L2012.37 694.51 L2012.37 658.492 Z" fill="#000000" fill-rule="evenodd" fill-opacity="1" /><path clip-path="url(#clip960)" d="M2037.32 681.478 Q2032.16 681.478 2030.17 682.659 Q2028.18 683.839 2028.18 686.686 Q2028.18 688.955 2029.66 690.297 Q2031.16 691.617 2033.73 691.617 Q2037.27 691.617 2039.4 689.117 Q2041.55 686.594 2041.55 682.427 L2041.55 681.478 L2037.32 681.478 M2045.81 679.719 L2045.81 694.51 L2041.55 694.51 L2041.55 690.575 Q2040.1 692.936 2037.92 694.071 Q2035.74 695.182 2032.6 695.182 Q2028.62 695.182 2026.25 692.959 Q2023.92 690.714 2023.92 686.964 Q2023.92 682.589 2026.83 680.367 Q2029.77 678.145 2035.58 678.145 L2041.55 678.145 L2041.55 677.728 Q2041.55 674.788 2039.61 673.191 Q2037.69 671.571 2034.19 671.571 Q2031.97 671.571 2029.87 672.103 Q2027.76 672.635 2025.81 673.7 L2025.81 669.765 Q2028.15 668.862 2030.35 668.423 Q2032.55 667.96 2034.63 667.96 Q2040.26 667.96 2043.04 670.876 Q2045.81 673.793 2045.81 679.719 Z" fill="#000000" fill-rule="evenodd" fill-opacity="1" /><path clip-path="url(#clip960)" d="M2073.2 681.571 Q2073.2 676.872 2071.25 674.21 Q2069.33 671.524 2065.95 671.524 Q2062.57 671.524 2060.63 674.21 Q2058.71 676.872 2058.71 681.571 Q2058.71 686.27 2060.63 688.955 Q2062.57 691.617 2065.95 691.617 Q2069.33 691.617 2071.25 688.955 Q2073.2 686.27 2073.2 681.571 M2058.71 672.52 Q2060.05 670.205 2062.09 669.094 Q2064.15 667.96 2066.99 667.96 Q2071.72 667.96 2074.66 671.71 Q2077.62 675.46 2077.62 681.571 Q2077.62 687.682 2074.66 691.432 Q2071.72 695.182 2066.99 695.182 Q2064.15 695.182 2062.09 694.071 Q2060.05 692.936 2058.71 690.622 L2058.71 694.51 L2054.43 694.51 L2054.43 658.492 L2058.71 658.492 L2058.71 672.52 Z" fill="#000000" fill-rule="evenodd" fill-opacity="1" /><path clip-path="url(#clip960)" d="M2104.61 663.793 L2104.61 676.779 L2110.49 676.779 Q2113.75 676.779 2115.54 675.089 Q2117.32 673.399 2117.32 670.274 Q2117.32 667.173 2115.54 665.483 Q2113.75 663.793 2110.49 663.793 L2104.61 663.793 M2099.93 659.95 L2110.49 659.95 Q2116.3 659.95 2119.26 662.589 Q2122.25 665.205 2122.25 670.274 Q2122.25 675.39 2119.26 678.006 Q2116.3 680.622 2110.49 680.622 L2104.61 680.622 L2104.61 694.51 L2099.93 694.51 L2099.93 659.95 Z" fill="#000000" fill-rule="evenodd" fill-opacity="1" /><path clip-path="url(#clip960)" d="M2128.52 659.95 L2133.2 659.95 L2133.2 694.51 L2128.52 694.51 L2128.52 659.95 Z" fill="#000000" fill-rule="evenodd" fill-opacity="1" /><path clip-path="url(#clip960)" d="M2140.17 679.626 L2152.64 679.626 L2152.64 683.422 L2140.17 683.422 L2140.17 679.626 Z" fill="#000000" fill-rule="evenodd" fill-opacity="1" /><path clip-path="url(#clip960)" d="M2159.61 659.95 L2181.46 659.95 L2181.46 663.886 L2164.29 663.886 L2164.29 674.117 L2180.74 674.117 L2180.74 678.052 L2164.29 678.052 L2164.29 690.575 L2181.88 690.575 L2181.88 694.51 L2159.61 694.51 L2159.61 659.95 Z" fill="#000000" fill-rule="evenodd" fill-opacity="1" /><path clip-path="url(#clip960)" d="M2187.9 659.95 L2192.92 659.95 L2201.51 672.798 L2210.14 659.95 L2215.16 659.95 L2204.05 676.548 L2215.91 694.51 L2210.88 694.51 L2201.16 679.811 L2191.37 694.51 L2186.32 694.51 L2198.66 676.061 L2187.9 659.95 Z" fill="#000000" fill-rule="evenodd" fill-opacity="1" /><polyline clip-path="url(#clip960)" style="stroke:#ff0000; stroke-linecap:butt; stroke-linejoin:round; stroke-width:4; stroke-opacity:1; fill:none" points="
  1760.03,729.07 1900.58,729.07 
  "/>
<circle clip-path="url(#clip960)" cx="1830.31" cy="729.07" r="23.04" fill="#ffffff" fill-rule="evenodd" fill-opacity="1" stroke="#000000" stroke-opacity="1" stroke-width="4.096"/>
<path clip-path="url(#clip960)" d="M1924.01 711.79 L1930.98 711.79 L1939.8 735.309 L1948.66 711.79 L1955.63 711.79 L1955.63 746.35 L1951.07 746.35 L1951.07 716.003 L1942.16 739.707 L1937.46 739.707 L1928.55 716.003 L1928.55 746.35 L1924.01 746.35 L1924.01 711.79 Z" fill="#000000" fill-rule="evenodd" fill-opacity="1" /><path clip-path="url(#clip960)" d="M1976.51 733.318 Q1971.35 733.318 1969.36 734.499 Q1967.37 735.679 1967.37 738.526 Q1967.37 740.795 1968.85 742.137 Q1970.35 743.457 1972.92 743.457 Q1976.46 743.457 1978.59 740.957 Q1980.74 738.434 1980.74 734.267 L1980.74 733.318 L1976.51 733.318 M1985 731.559 L1985 746.35 L1980.74 746.35 L1980.74 742.415 Q1979.29 744.776 1977.11 745.911 Q1974.93 747.022 1971.79 747.022 Q1967.81 747.022 1965.44 744.799 Q1963.11 742.554 1963.11 738.804 Q1963.11 734.429 1966.02 732.207 Q1968.96 729.985 1974.77 729.985 L1980.74 729.985 L1980.74 729.568 Q1980.74 726.628 1978.8 725.031 Q1976.88 723.411 1973.38 723.411 Q1971.16 723.411 1969.06 723.943 Q1966.95 724.475 1965 725.54 L1965 721.605 Q1967.34 720.702 1969.54 720.263 Q1971.74 719.8 1973.82 719.8 Q1979.45 719.8 1982.23 722.716 Q1985 725.633 1985 731.559 Z" fill="#000000" fill-rule="evenodd" fill-opacity="1" /><path clip-path="url(#clip960)" d="M1997.99 713.064 L1997.99 720.425 L2006.76 720.425 L2006.76 723.735 L1997.99 723.735 L1997.99 737.809 Q1997.99 740.98 1998.85 741.883 Q1999.73 742.786 2002.39 742.786 L2006.76 742.786 L2006.76 746.35 L2002.39 746.35 Q1997.46 746.35 1995.58 744.522 Q1993.71 742.67 1993.71 737.809 L1993.71 723.735 L1990.58 723.735 L1990.58 720.425 L1993.71 720.425 L1993.71 713.064 L1997.99 713.064 Z" fill="#000000" fill-rule="evenodd" fill-opacity="1" /><path clip-path="url(#clip960)" d="M2012.37 710.332 L2016.62 710.332 L2016.62 746.35 L2012.37 746.35 L2012.37 710.332 Z" fill="#000000" fill-rule="evenodd" fill-opacity="1" /><path clip-path="url(#clip960)" d="M2037.32 733.318 Q2032.16 733.318 2030.17 734.499 Q2028.18 735.679 2028.18 738.526 Q2028.18 740.795 2029.66 742.137 Q2031.16 743.457 2033.73 743.457 Q2037.27 743.457 2039.4 740.957 Q2041.55 738.434 2041.55 734.267 L2041.55 733.318 L2037.32 733.318 M2045.81 731.559 L2045.81 746.35 L2041.55 746.35 L2041.55 742.415 Q2040.1 744.776 2037.92 745.911 Q2035.74 747.022 2032.6 747.022 Q2028.62 747.022 2026.25 744.799 Q2023.92 742.554 2023.92 738.804 Q2023.92 734.429 2026.83 732.207 Q2029.77 729.985 2035.58 729.985 L2041.55 729.985 L2041.55 729.568 Q2041.55 726.628 2039.61 725.031 Q2037.69 723.411 2034.19 723.411 Q2031.97 723.411 2029.87 723.943 Q2027.76 724.475 2025.81 725.54 L2025.81 721.605 Q2028.15 720.702 2030.35 720.263 Q2032.55 719.8 2034.63 719.8 Q2040.26 719.8 2043.04 722.716 Q2045.81 725.633 2045.81 731.559 Z" fill="#000000" fill-rule="evenodd" fill-opacity="1" /><path clip-path="url(#clip960)" d="M2073.2 733.411 Q2073.2 728.712 2071.25 726.05 Q2069.33 723.364 2065.95 723.364 Q2062.57 723.364 2060.63 726.05 Q2058.71 728.712 2058.71 733.411 Q2058.71 738.11 2060.63 740.795 Q2062.57 743.457 2065.95 743.457 Q2069.33 743.457 2071.25 740.795 Q2073.2 738.11 2073.2 733.411 M2058.71 724.36 Q2060.05 722.045 2062.09 720.934 Q2064.15 719.8 2066.99 719.8 Q2071.72 719.8 2074.66 723.55 Q2077.62 727.3 2077.62 733.411 Q2077.62 739.522 2074.66 743.272 Q2071.72 747.022 2066.99 747.022 Q2064.15 747.022 2062.09 745.911 Q2060.05 744.776 2058.71 742.462 L2058.71 746.35 L2054.43 746.35 L2054.43 710.332 L2058.71 710.332 L2058.71 724.36 Z" fill="#000000" fill-rule="evenodd" fill-opacity="1" /><path clip-path="url(#clip960)" d="M2104.61 715.633 L2104.61 728.619 L2110.49 728.619 Q2113.75 728.619 2115.54 726.929 Q2117.32 725.239 2117.32 722.114 Q2117.32 719.013 2115.54 717.323 Q2113.75 715.633 2110.49 715.633 L2104.61 715.633 M2099.93 711.79 L2110.49 711.79 Q2116.3 711.79 2119.26 714.429 Q2122.25 717.045 2122.25 722.114 Q2122.25 727.23 2119.26 729.846 Q2116.3 732.462 2110.49 732.462 L2104.61 732.462 L2104.61 746.35 L2099.93 746.35 L2099.93 711.79 Z" fill="#000000" fill-rule="evenodd" fill-opacity="1" /><path clip-path="url(#clip960)" d="M2128.52 711.79 L2133.2 711.79 L2133.2 746.35 L2128.52 746.35 L2128.52 711.79 Z" fill="#000000" fill-rule="evenodd" fill-opacity="1" /><path clip-path="url(#clip960)" d="M2140.17 731.466 L2152.64 731.466 L2152.64 735.262 L2140.17 735.262 L2140.17 731.466 Z" fill="#000000" fill-rule="evenodd" fill-opacity="1" /><path clip-path="url(#clip960)" d="M2164.29 715.633 L2164.29 728.619 L2170.17 728.619 Q2173.43 728.619 2175.21 726.929 Q2176.99 725.239 2176.99 722.114 Q2176.99 719.013 2175.21 717.323 Q2173.43 715.633 2170.17 715.633 L2164.29 715.633 M2159.61 711.79 L2170.17 711.79 Q2175.98 711.79 2178.94 714.429 Q2181.92 717.045 2181.92 722.114 Q2181.92 727.23 2178.94 729.846 Q2175.98 732.462 2170.17 732.462 L2164.29 732.462 L2164.29 746.35 L2159.61 746.35 L2159.61 711.79 Z" fill="#000000" fill-rule="evenodd" fill-opacity="1" /><path clip-path="url(#clip960)" d="M2214.08 714.452 L2214.08 719.383 Q2211.72 717.184 2209.03 716.096 Q2206.37 715.008 2203.36 715.008 Q2197.43 715.008 2194.29 718.642 Q2191.14 722.253 2191.14 729.105 Q2191.14 735.934 2194.29 739.568 Q2197.43 743.179 2203.36 743.179 Q2206.37 743.179 2209.03 742.091 Q2211.72 741.003 2214.08 738.804 L2214.08 743.688 Q2211.62 745.355 2208.87 746.188 Q2206.14 747.022 2203.08 747.022 Q2195.23 747.022 2190.72 742.23 Q2186.21 737.415 2186.21 729.105 Q2186.21 720.772 2190.72 715.98 Q2195.23 711.165 2203.08 711.165 Q2206.18 711.165 2208.92 711.999 Q2211.67 712.809 2214.08 714.452 Z" fill="#000000" fill-rule="evenodd" fill-opacity="1" /><polyline clip-path="url(#clip960)" style="stroke:#ff0000; stroke-linecap:butt; stroke-linejoin:round; stroke-width:4; stroke-opacity:1; fill:none" points="
  1760.03,780.91 1900.58,780.91 
  "/>
<path clip-path="url(#clip960)" d="M1830.31 755.31 L1804.71 780.91 L1830.31 806.51 L1855.91 780.91 L1830.31 755.31 Z" fill="#ffffff" fill-rule="evenodd" fill-opacity="1" stroke="#000000" stroke-opacity="1" stroke-width="4.096"/>
<path clip-path="url(#clip960)" d="M1924.01 763.63 L1930.98 763.63 L1939.8 787.149 L1948.66 763.63 L1955.63 763.63 L1955.63 798.19 L1951.07 798.19 L1951.07 767.843 L1942.16 791.547 L1937.46 791.547 L1928.55 767.843 L1928.55 798.19 L1924.01 798.19 L1924.01 763.63 Z" fill="#000000" fill-rule="evenodd" fill-opacity="1" /><path clip-path="url(#clip960)" d="M1976.51 785.158 Q1971.35 785.158 1969.36 786.339 Q1967.37 787.519 1967.37 790.366 Q1967.37 792.635 1968.85 793.977 Q1970.35 795.297 1972.92 795.297 Q1976.46 795.297 1978.59 792.797 Q1980.74 790.274 1980.74 786.107 L1980.74 785.158 L1976.51 785.158 M1985 783.399 L1985 798.19 L1980.74 798.19 L1980.74 794.255 Q1979.29 796.616 1977.11 797.751 Q1974.93 798.862 1971.79 798.862 Q1967.81 798.862 1965.44 796.639 Q1963.11 794.394 1963.11 790.644 Q1963.11 786.269 1966.02 784.047 Q1968.96 781.825 1974.77 781.825 L1980.74 781.825 L1980.74 781.408 Q1980.74 778.468 1978.8 776.871 Q1976.88 775.251 1973.38 775.251 Q1971.16 775.251 1969.06 775.783 Q1966.95 776.315 1965 777.38 L1965 773.445 Q1967.34 772.542 1969.54 772.103 Q1971.74 771.64 1973.82 771.64 Q1979.45 771.64 1982.23 774.556 Q1985 777.473 1985 783.399 Z" fill="#000000" fill-rule="evenodd" fill-opacity="1" /><path clip-path="url(#clip960)" d="M1997.99 764.904 L1997.99 772.265 L2006.76 772.265 L2006.76 775.575 L1997.99 775.575 L1997.99 789.649 Q1997.99 792.82 1998.85 793.723 Q1999.73 794.626 2002.39 794.626 L2006.76 794.626 L2006.76 798.19 L2002.39 798.19 Q1997.46 798.19 1995.58 796.362 Q1993.71 794.51 1993.71 789.649 L1993.71 775.575 L1990.58 775.575 L1990.58 772.265 L1993.71 772.265 L1993.71 764.904 L1997.99 764.904 Z" fill="#000000" fill-rule="evenodd" fill-opacity="1" /><path clip-path="url(#clip960)" d="M2012.37 762.172 L2016.62 762.172 L2016.62 798.19 L2012.37 798.19 L2012.37 762.172 Z" fill="#000000" fill-rule="evenodd" fill-opacity="1" /><path clip-path="url(#clip960)" d="M2037.32 785.158 Q2032.16 785.158 2030.17 786.339 Q2028.18 787.519 2028.18 790.366 Q2028.18 792.635 2029.66 793.977 Q2031.16 795.297 2033.73 795.297 Q2037.27 795.297 2039.4 792.797 Q2041.55 790.274 2041.55 786.107 L2041.55 785.158 L2037.32 785.158 M2045.81 783.399 L2045.81 798.19 L2041.55 798.19 L2041.55 794.255 Q2040.1 796.616 2037.92 797.751 Q2035.74 798.862 2032.6 798.862 Q2028.62 798.862 2026.25 796.639 Q2023.92 794.394 2023.92 790.644 Q2023.92 786.269 2026.83 784.047 Q2029.77 781.825 2035.58 781.825 L2041.55 781.825 L2041.55 781.408 Q2041.55 778.468 2039.61 776.871 Q2037.69 775.251 2034.19 775.251 Q2031.97 775.251 2029.87 775.783 Q2027.76 776.315 2025.81 777.38 L2025.81 773.445 Q2028.15 772.542 2030.35 772.103 Q2032.55 771.64 2034.63 771.64 Q2040.26 771.64 2043.04 774.556 Q2045.81 777.473 2045.81 783.399 Z" fill="#000000" fill-rule="evenodd" fill-opacity="1" /><path clip-path="url(#clip960)" d="M2073.2 785.251 Q2073.2 780.552 2071.25 777.89 Q2069.33 775.204 2065.95 775.204 Q2062.57 775.204 2060.63 777.89 Q2058.71 780.552 2058.71 785.251 Q2058.71 789.95 2060.63 792.635 Q2062.57 795.297 2065.95 795.297 Q2069.33 795.297 2071.25 792.635 Q2073.2 789.95 2073.2 785.251 M2058.71 776.2 Q2060.05 773.885 2062.09 772.774 Q2064.15 771.64 2066.99 771.64 Q2071.72 771.64 2074.66 775.39 Q2077.62 779.14 2077.62 785.251 Q2077.62 791.362 2074.66 795.112 Q2071.72 798.862 2066.99 798.862 Q2064.15 798.862 2062.09 797.751 Q2060.05 796.616 2058.71 794.302 L2058.71 798.19 L2054.43 798.19 L2054.43 762.172 L2058.71 762.172 L2058.71 776.2 Z" fill="#000000" fill-rule="evenodd" fill-opacity="1" /><path clip-path="url(#clip960)" d="M2104.61 767.473 L2104.61 780.459 L2110.49 780.459 Q2113.75 780.459 2115.54 778.769 Q2117.32 777.079 2117.32 773.954 Q2117.32 770.853 2115.54 769.163 Q2113.75 767.473 2110.49 767.473 L2104.61 767.473 M2099.93 763.63 L2110.49 763.63 Q2116.3 763.63 2119.26 766.269 Q2122.25 768.885 2122.25 773.954 Q2122.25 779.07 2119.26 781.686 Q2116.3 784.302 2110.49 784.302 L2104.61 784.302 L2104.61 798.19 L2099.93 798.19 L2099.93 763.63 Z" fill="#000000" fill-rule="evenodd" fill-opacity="1" /><path clip-path="url(#clip960)" d="M2128.52 763.63 L2133.2 763.63 L2133.2 798.19 L2128.52 798.19 L2128.52 763.63 Z" fill="#000000" fill-rule="evenodd" fill-opacity="1" /><path clip-path="url(#clip960)" d="M2140.17 783.306 L2152.64 783.306 L2152.64 787.102 L2140.17 787.102 L2140.17 783.306 Z" fill="#000000" fill-rule="evenodd" fill-opacity="1" /><path clip-path="url(#clip960)" d="M2159.61 763.63 L2164.29 763.63 L2164.29 798.19 L2159.61 798.19 L2159.61 763.63 Z" fill="#000000" fill-rule="evenodd" fill-opacity="1" /><path clip-path="url(#clip960)" d="M2173.59 763.63 L2180.56 763.63 L2189.38 787.149 L2198.24 763.63 L2205.21 763.63 L2205.21 798.19 L2200.65 798.19 L2200.65 767.843 L2191.74 791.547 L2187.04 791.547 L2178.13 767.843 L2178.13 798.19 L2173.59 798.19 L2173.59 763.63 Z" fill="#000000" fill-rule="evenodd" fill-opacity="1" /><path clip-path="url(#clip960)" d="M2215.72 794.255 L2223.36 794.255 L2223.36 767.89 L2215.05 769.556 L2215.05 765.297 L2223.31 763.63 L2227.99 763.63 L2227.99 794.255 L2235.63 794.255 L2235.63 798.19 L2215.72 798.19 L2215.72 794.255 Z" fill="#000000" fill-rule="evenodd" fill-opacity="1" /><polyline clip-path="url(#clip960)" style="stroke:#ff0000; stroke-linecap:butt; stroke-linejoin:round; stroke-width:4; stroke-opacity:1; fill:none" points="
  1760.03,832.75 1900.58,832.75 
  "/>
<path clip-path="url(#clip960)" d="M1804.71 807.15 L1804.71 858.35 L1855.91 858.35 L1855.91 807.15 L1804.71 807.15 Z" fill="#ffffff" fill-rule="evenodd" fill-opacity="1" stroke="#000000" stroke-opacity="1" stroke-width="4.096"/>
<path clip-path="url(#clip960)" d="M1924.01 815.47 L1930.98 815.47 L1939.8 838.989 L1948.66 815.47 L1955.63 815.47 L1955.63 850.03 L1951.07 850.03 L1951.07 819.683 L1942.16 843.387 L1937.46 843.387 L1928.55 819.683 L1928.55 850.03 L1924.01 850.03 L1924.01 815.47 Z" fill="#000000" fill-rule="evenodd" fill-opacity="1" /><path clip-path="url(#clip960)" d="M1976.51 836.998 Q1971.35 836.998 1969.36 838.179 Q1967.37 839.359 1967.37 842.206 Q1967.37 844.475 1968.85 845.817 Q1970.35 847.137 1972.92 847.137 Q1976.46 847.137 1978.59 844.637 Q1980.74 842.114 1980.74 837.947 L1980.74 836.998 L1976.51 836.998 M1985 835.239 L1985 850.03 L1980.74 850.03 L1980.74 846.095 Q1979.29 848.456 1977.11 849.591 Q1974.93 850.702 1971.79 850.702 Q1967.81 850.702 1965.44 848.479 Q1963.11 846.234 1963.11 842.484 Q1963.11 838.109 1966.02 835.887 Q1968.96 833.665 1974.77 833.665 L1980.74 833.665 L1980.74 833.248 Q1980.74 830.308 1978.8 828.711 Q1976.88 827.091 1973.38 827.091 Q1971.16 827.091 1969.06 827.623 Q1966.95 828.155 1965 829.22 L1965 825.285 Q1967.34 824.382 1969.54 823.943 Q1971.74 823.48 1973.82 823.48 Q1979.45 823.48 1982.23 826.396 Q1985 829.313 1985 835.239 Z" fill="#000000" fill-rule="evenodd" fill-opacity="1" /><path clip-path="url(#clip960)" d="M1997.99 816.744 L1997.99 824.105 L2006.76 824.105 L2006.76 827.415 L1997.99 827.415 L1997.99 841.489 Q1997.99 844.66 1998.85 845.563 Q1999.73 846.466 2002.39 846.466 L2006.76 846.466 L2006.76 850.03 L2002.39 850.03 Q1997.46 850.03 1995.58 848.202 Q1993.71 846.35 1993.71 841.489 L1993.71 827.415 L1990.58 827.415 L1990.58 824.105 L1993.71 824.105 L1993.71 816.744 L1997.99 816.744 Z" fill="#000000" fill-rule="evenodd" fill-opacity="1" /><path clip-path="url(#clip960)" d="M2012.37 814.012 L2016.62 814.012 L2016.62 850.03 L2012.37 850.03 L2012.37 814.012 Z" fill="#000000" fill-rule="evenodd" fill-opacity="1" /><path clip-path="url(#clip960)" d="M2037.32 836.998 Q2032.16 836.998 2030.17 838.179 Q2028.18 839.359 2028.18 842.206 Q2028.18 844.475 2029.66 845.817 Q2031.16 847.137 2033.73 847.137 Q2037.27 847.137 2039.4 844.637 Q2041.55 842.114 2041.55 837.947 L2041.55 836.998 L2037.32 836.998 M2045.81 835.239 L2045.81 850.03 L2041.55 850.03 L2041.55 846.095 Q2040.1 848.456 2037.92 849.591 Q2035.74 850.702 2032.6 850.702 Q2028.62 850.702 2026.25 848.479 Q2023.92 846.234 2023.92 842.484 Q2023.92 838.109 2026.83 835.887 Q2029.77 833.665 2035.58 833.665 L2041.55 833.665 L2041.55 833.248 Q2041.55 830.308 2039.61 828.711 Q2037.69 827.091 2034.19 827.091 Q2031.97 827.091 2029.87 827.623 Q2027.76 828.155 2025.81 829.22 L2025.81 825.285 Q2028.15 824.382 2030.35 823.943 Q2032.55 823.48 2034.63 823.48 Q2040.26 823.48 2043.04 826.396 Q2045.81 829.313 2045.81 835.239 Z" fill="#000000" fill-rule="evenodd" fill-opacity="1" /><path clip-path="url(#clip960)" d="M2073.2 837.091 Q2073.2 832.392 2071.25 829.73 Q2069.33 827.044 2065.95 827.044 Q2062.57 827.044 2060.63 829.73 Q2058.71 832.392 2058.71 837.091 Q2058.71 841.79 2060.63 844.475 Q2062.57 847.137 2065.95 847.137 Q2069.33 847.137 2071.25 844.475 Q2073.2 841.79 2073.2 837.091 M2058.71 828.04 Q2060.05 825.725 2062.09 824.614 Q2064.15 823.48 2066.99 823.48 Q2071.72 823.48 2074.66 827.23 Q2077.62 830.98 2077.62 837.091 Q2077.62 843.202 2074.66 846.952 Q2071.72 850.702 2066.99 850.702 Q2064.15 850.702 2062.09 849.591 Q2060.05 848.456 2058.71 846.142 L2058.71 850.03 L2054.43 850.03 L2054.43 814.012 L2058.71 814.012 L2058.71 828.04 Z" fill="#000000" fill-rule="evenodd" fill-opacity="1" /><path clip-path="url(#clip960)" d="M2104.61 819.313 L2104.61 832.299 L2110.49 832.299 Q2113.75 832.299 2115.54 830.609 Q2117.32 828.919 2117.32 825.794 Q2117.32 822.693 2115.54 821.003 Q2113.75 819.313 2110.49 819.313 L2104.61 819.313 M2099.93 815.47 L2110.49 815.47 Q2116.3 815.47 2119.26 818.109 Q2122.25 820.725 2122.25 825.794 Q2122.25 830.91 2119.26 833.526 Q2116.3 836.142 2110.49 836.142 L2104.61 836.142 L2104.61 850.03 L2099.93 850.03 L2099.93 815.47 Z" fill="#000000" fill-rule="evenodd" fill-opacity="1" /><path clip-path="url(#clip960)" d="M2128.52 815.47 L2133.2 815.47 L2133.2 850.03 L2128.52 850.03 L2128.52 815.47 Z" fill="#000000" fill-rule="evenodd" fill-opacity="1" /><path clip-path="url(#clip960)" d="M2140.17 835.146 L2152.64 835.146 L2152.64 838.942 L2140.17 838.942 L2140.17 835.146 Z" fill="#000000" fill-rule="evenodd" fill-opacity="1" /><path clip-path="url(#clip960)" d="M2159.61 815.47 L2164.29 815.47 L2164.29 850.03 L2159.61 850.03 L2159.61 815.47 Z" fill="#000000" fill-rule="evenodd" fill-opacity="1" /><path clip-path="url(#clip960)" d="M2173.59 815.47 L2180.56 815.47 L2189.38 838.989 L2198.24 815.47 L2205.21 815.47 L2205.21 850.03 L2200.65 850.03 L2200.65 819.683 L2191.74 843.387 L2187.04 843.387 L2178.13 819.683 L2178.13 850.03 L2173.59 850.03 L2173.59 815.47 Z" fill="#000000" fill-rule="evenodd" fill-opacity="1" /><path clip-path="url(#clip960)" d="M2218.94 846.095 L2235.26 846.095 L2235.26 850.03 L2213.31 850.03 L2213.31 846.095 Q2215.98 843.341 2220.56 838.711 Q2225.16 834.058 2226.35 832.716 Q2228.59 830.193 2229.47 828.456 Q2230.37 826.697 2230.37 825.007 Q2230.37 822.253 2228.43 820.517 Q2226.51 818.781 2223.41 818.781 Q2221.21 818.781 2218.75 819.544 Q2216.32 820.308 2213.54 821.859 L2213.54 817.137 Q2216.37 816.003 2218.82 815.424 Q2221.28 814.845 2223.31 814.845 Q2228.68 814.845 2231.88 817.531 Q2235.07 820.216 2235.07 824.706 Q2235.07 826.836 2234.26 828.757 Q2233.48 830.655 2231.37 833.248 Q2230.79 833.919 2227.69 837.137 Q2224.59 840.331 2218.94 846.095 Z" fill="#000000" fill-rule="evenodd" fill-opacity="1" /></svg>
