<?xml version="1.0" encoding="utf-8"?>
<svg xmlns="http://www.w3.org/2000/svg" xmlns:xlink="http://www.w3.org/1999/xlink" width="600" height="400" viewBox="0 0 2400 1600">
<defs>
  <clipPath id="clip860">
    <rect x="0" y="0" width="2400" height="1600"/>
  </clipPath>
</defs>
<path clip-path="url(#clip860)" d="
M0 1600 L2400 1600 L2400 0 L0 0  Z
  " fill="#ffffff" fill-rule="evenodd" fill-opacity="1"/>
<defs>
  <clipPath id="clip861">
    <rect x="480" y="0" width="1681" height="1600"/>
  </clipPath>
</defs>
<path clip-path="url(#clip860)" d="
M186.274 1486.45 L2352.76 1486.45 L2352.76 47.2441 L186.274 47.2441  Z
  " fill="#ffffff" fill-rule="evenodd" fill-opacity="1"/>
<defs>
  <clipPath id="clip862">
    <rect x="186" y="47" width="2167" height="1440"/>
  </clipPath>
</defs>
<polyline clip-path="url(#clip862)" style="stroke:#000000; stroke-linecap:butt; stroke-linejoin:round; stroke-width:2; stroke-opacity:0.1; fill:none" points="
  199.335,1486.45 199.335,47.2441 
  "/>
<polyline clip-path="url(#clip862)" style="stroke:#000000; stroke-linecap:butt; stroke-linejoin:round; stroke-width:2; stroke-opacity:0.1; fill:none" points="
  848.211,1486.45 848.211,47.2441 
  "/>
<polyline clip-path="url(#clip862)" style="stroke:#000000; stroke-linecap:butt; stroke-linejoin:round; stroke-width:2; stroke-opacity:0.1; fill:none" points="
  1497.09,1486.45 1497.09,47.2441 
  "/>
<polyline clip-path="url(#clip862)" style="stroke:#000000; stroke-linecap:butt; stroke-linejoin:round; stroke-width:2; stroke-opacity:0.1; fill:none" points="
  2145.96,1486.45 2145.96,47.2441 
  "/>
<polyline clip-path="url(#clip860)" style="stroke:#000000; stroke-linecap:butt; stroke-linejoin:round; stroke-width:4; stroke-opacity:1; fill:none" points="
  186.274,1486.45 2352.76,1486.45 
  "/>
<polyline clip-path="url(#clip860)" style="stroke:#000000; stroke-linecap:butt; stroke-linejoin:round; stroke-width:4; stroke-opacity:1; fill:none" points="
  199.335,1486.45 199.335,1467.55 
  "/>
<polyline clip-path="url(#clip860)" style="stroke:#000000; stroke-linecap:butt; stroke-linejoin:round; stroke-width:4; stroke-opacity:1; fill:none" points="
  848.211,1486.45 848.211,1467.55 
  "/>
<polyline clip-path="url(#clip860)" style="stroke:#000000; stroke-linecap:butt; stroke-linejoin:round; stroke-width:4; stroke-opacity:1; fill:none" points="
  1497.09,1486.45 1497.09,1467.55 
  "/>
<polyline clip-path="url(#clip860)" style="stroke:#000000; stroke-linecap:butt; stroke-linejoin:round; stroke-width:4; stroke-opacity:1; fill:none" points="
  2145.96,1486.45 2145.96,1467.55 
  "/>
<path clip-path="url(#clip860)" d="M146.558 1517.37 Q142.947 1517.37 141.118 1520.93 Q139.313 1524.47 139.313 1531.6 Q139.313 1538.71 141.118 1542.27 Q142.947 1545.82 146.558 1545.82 Q150.192 1545.82 151.998 1542.27 Q153.826 1538.71 153.826 1531.6 Q153.826 1524.47 151.998 1520.93 Q150.192 1517.37 146.558 1517.37 M146.558 1513.66 Q152.368 1513.66 155.424 1518.27 Q158.502 1522.85 158.502 1531.6 Q158.502 1540.33 155.424 1544.94 Q152.368 1549.52 146.558 1549.52 Q140.748 1549.52 137.669 1544.94 Q134.614 1540.33 134.614 1531.6 Q134.614 1522.85 137.669 1518.27 Q140.748 1513.66 146.558 1513.66 Z" fill="#000000" fill-rule="evenodd" fill-opacity="1" /><path clip-path="url(#clip860)" d="M166.72 1542.97 L171.604 1542.97 L171.604 1548.85 L166.72 1548.85 L166.72 1542.97 Z" fill="#000000" fill-rule="evenodd" fill-opacity="1" /><path clip-path="url(#clip860)" d="M191.789 1517.37 Q188.178 1517.37 186.349 1520.93 Q184.544 1524.47 184.544 1531.6 Q184.544 1538.71 186.349 1542.27 Q188.178 1545.82 191.789 1545.82 Q195.423 1545.82 197.229 1542.27 Q199.058 1538.71 199.058 1531.6 Q199.058 1524.47 197.229 1520.93 Q195.423 1517.37 191.789 1517.37 M191.789 1513.66 Q197.599 1513.66 200.655 1518.27 Q203.734 1522.85 203.734 1531.6 Q203.734 1540.33 200.655 1544.94 Q197.599 1549.52 191.789 1549.52 Q185.979 1549.52 182.9 1544.94 Q179.845 1540.33 179.845 1531.6 Q179.845 1522.85 182.9 1518.27 Q185.979 1513.66 191.789 1513.66 Z" fill="#000000" fill-rule="evenodd" fill-opacity="1" /><path clip-path="url(#clip860)" d="M221.951 1517.37 Q218.34 1517.37 216.511 1520.93 Q214.706 1524.47 214.706 1531.6 Q214.706 1538.71 216.511 1542.27 Q218.34 1545.82 221.951 1545.82 Q225.585 1545.82 227.391 1542.27 Q229.22 1538.71 229.22 1531.6 Q229.22 1524.47 227.391 1520.93 Q225.585 1517.37 221.951 1517.37 M221.951 1513.66 Q227.761 1513.66 230.817 1518.27 Q233.895 1522.85 233.895 1531.6 Q233.895 1540.33 230.817 1544.94 Q227.761 1549.52 221.951 1549.52 Q216.141 1549.52 213.062 1544.94 Q210.007 1540.33 210.007 1531.6 Q210.007 1522.85 213.062 1518.27 Q216.141 1513.66 221.951 1513.66 Z" fill="#000000" fill-rule="evenodd" fill-opacity="1" /><path clip-path="url(#clip860)" d="M252.113 1517.37 Q248.502 1517.37 246.673 1520.93 Q244.868 1524.47 244.868 1531.6 Q244.868 1538.71 246.673 1542.27 Q248.502 1545.82 252.113 1545.82 Q255.747 1545.82 257.553 1542.27 Q259.381 1538.71 259.381 1531.6 Q259.381 1524.47 257.553 1520.93 Q255.747 1517.37 252.113 1517.37 M252.113 1513.66 Q257.923 1513.66 260.979 1518.27 Q264.057 1522.85 264.057 1531.6 Q264.057 1540.33 260.979 1544.94 Q257.923 1549.52 252.113 1549.52 Q246.303 1549.52 243.224 1544.94 Q240.169 1540.33 240.169 1531.6 Q240.169 1522.85 243.224 1518.27 Q246.303 1513.66 252.113 1513.66 Z" fill="#000000" fill-rule="evenodd" fill-opacity="1" /><path clip-path="url(#clip860)" d="M795.931 1517.37 Q792.32 1517.37 790.492 1520.93 Q788.686 1524.47 788.686 1531.6 Q788.686 1538.71 790.492 1542.27 Q792.32 1545.82 795.931 1545.82 Q799.566 1545.82 801.371 1542.27 Q803.2 1538.71 803.2 1531.6 Q803.2 1524.47 801.371 1520.93 Q799.566 1517.37 795.931 1517.37 M795.931 1513.66 Q801.741 1513.66 804.797 1518.27 Q807.876 1522.85 807.876 1531.6 Q807.876 1540.33 804.797 1544.94 Q801.741 1549.52 795.931 1549.52 Q790.121 1549.52 787.042 1544.94 Q783.987 1540.33 783.987 1531.6 Q783.987 1522.85 787.042 1518.27 Q790.121 1513.66 795.931 1513.66 Z" fill="#000000" fill-rule="evenodd" fill-opacity="1" /><path clip-path="url(#clip860)" d="M816.093 1542.97 L820.978 1542.97 L820.978 1548.85 L816.093 1548.85 L816.093 1542.97 Z" fill="#000000" fill-rule="evenodd" fill-opacity="1" /><path clip-path="url(#clip860)" d="M841.163 1517.37 Q837.551 1517.37 835.723 1520.93 Q833.917 1524.47 833.917 1531.6 Q833.917 1538.71 835.723 1542.27 Q837.551 1545.82 841.163 1545.82 Q844.797 1545.82 846.602 1542.27 Q848.431 1538.71 848.431 1531.6 Q848.431 1524.47 846.602 1520.93 Q844.797 1517.37 841.163 1517.37 M841.163 1513.66 Q846.973 1513.66 850.028 1518.27 Q853.107 1522.85 853.107 1531.6 Q853.107 1540.33 850.028 1544.94 Q846.973 1549.52 841.163 1549.52 Q835.352 1549.52 832.274 1544.94 Q829.218 1540.33 829.218 1531.6 Q829.218 1522.85 832.274 1518.27 Q835.352 1513.66 841.163 1513.66 Z" fill="#000000" fill-rule="evenodd" fill-opacity="1" /><path clip-path="url(#clip860)" d="M871.324 1517.37 Q867.713 1517.37 865.885 1520.93 Q864.079 1524.47 864.079 1531.6 Q864.079 1538.71 865.885 1542.27 Q867.713 1545.82 871.324 1545.82 Q874.959 1545.82 876.764 1542.27 Q878.593 1538.71 878.593 1531.6 Q878.593 1524.47 876.764 1520.93 Q874.959 1517.37 871.324 1517.37 M871.324 1513.66 Q877.135 1513.66 880.19 1518.27 Q883.269 1522.85 883.269 1531.6 Q883.269 1540.33 880.19 1544.94 Q877.135 1549.52 871.324 1549.52 Q865.514 1549.52 862.436 1544.94 Q859.38 1540.33 859.38 1531.6 Q859.38 1522.85 862.436 1518.27 Q865.514 1513.66 871.324 1513.66 Z" fill="#000000" fill-rule="evenodd" fill-opacity="1" /><path clip-path="url(#clip860)" d="M891.533 1514.29 L909.889 1514.29 L909.889 1518.22 L895.815 1518.22 L895.815 1526.7 Q896.834 1526.35 897.852 1526.19 Q898.871 1526 899.889 1526 Q905.676 1526 909.056 1529.17 Q912.435 1532.34 912.435 1537.76 Q912.435 1543.34 908.963 1546.44 Q905.491 1549.52 899.172 1549.52 Q896.996 1549.52 894.727 1549.15 Q892.482 1548.78 890.074 1548.04 L890.074 1543.34 Q892.158 1544.47 894.38 1545.03 Q896.602 1545.58 899.079 1545.58 Q903.084 1545.58 905.421 1543.48 Q907.759 1541.37 907.759 1537.76 Q907.759 1534.15 905.421 1532.04 Q903.084 1529.94 899.079 1529.94 Q897.204 1529.94 895.329 1530.35 Q893.477 1530.77 891.533 1531.65 L891.533 1514.29 Z" fill="#000000" fill-rule="evenodd" fill-opacity="1" /><path clip-path="url(#clip860)" d="M1444.31 1517.37 Q1440.7 1517.37 1438.87 1520.93 Q1437.06 1524.47 1437.06 1531.6 Q1437.06 1538.71 1438.87 1542.27 Q1440.7 1545.82 1444.31 1545.82 Q1447.94 1545.82 1449.75 1542.27 Q1451.58 1538.71 1451.58 1531.6 Q1451.58 1524.47 1449.75 1520.93 Q1447.94 1517.37 1444.31 1517.37 M1444.31 1513.66 Q1450.12 1513.66 1453.18 1518.27 Q1456.25 1522.85 1456.25 1531.6 Q1456.25 1540.33 1453.18 1544.94 Q1450.12 1549.52 1444.31 1549.52 Q1438.5 1549.52 1435.42 1544.94 Q1432.36 1540.33 1432.36 1531.6 Q1432.36 1522.85 1435.42 1518.27 Q1438.5 1513.66 1444.31 1513.66 Z" fill="#000000" fill-rule="evenodd" fill-opacity="1" /><path clip-path="url(#clip860)" d="M1464.47 1542.97 L1469.36 1542.97 L1469.36 1548.85 L1464.47 1548.85 L1464.47 1542.97 Z" fill="#000000" fill-rule="evenodd" fill-opacity="1" /><path clip-path="url(#clip860)" d="M1489.54 1517.37 Q1485.93 1517.37 1484.1 1520.93 Q1482.3 1524.47 1482.3 1531.6 Q1482.3 1538.71 1484.1 1542.27 Q1485.93 1545.82 1489.54 1545.82 Q1493.17 1545.82 1494.98 1542.27 Q1496.81 1538.71 1496.81 1531.6 Q1496.81 1524.47 1494.98 1520.93 Q1493.17 1517.37 1489.54 1517.37 M1489.54 1513.66 Q1495.35 1513.66 1498.41 1518.27 Q1501.48 1522.85 1501.48 1531.6 Q1501.48 1540.33 1498.41 1544.94 Q1495.35 1549.52 1489.54 1549.52 Q1483.73 1549.52 1480.65 1544.94 Q1477.6 1540.33 1477.6 1531.6 Q1477.6 1522.85 1480.65 1518.27 Q1483.73 1513.66 1489.54 1513.66 Z" fill="#000000" fill-rule="evenodd" fill-opacity="1" /><path clip-path="url(#clip860)" d="M1510.51 1544.91 L1518.15 1544.91 L1518.15 1518.55 L1509.84 1520.21 L1509.84 1515.95 L1518.11 1514.29 L1522.78 1514.29 L1522.78 1544.91 L1530.42 1544.91 L1530.42 1548.85 L1510.51 1548.85 L1510.51 1544.91 Z" fill="#000000" fill-rule="evenodd" fill-opacity="1" /><path clip-path="url(#clip860)" d="M1549.86 1517.37 Q1546.25 1517.37 1544.42 1520.93 Q1542.62 1524.47 1542.62 1531.6 Q1542.62 1538.71 1544.42 1542.27 Q1546.25 1545.82 1549.86 1545.82 Q1553.5 1545.82 1555.3 1542.27 Q1557.13 1538.71 1557.13 1531.6 Q1557.13 1524.47 1555.3 1520.93 Q1553.5 1517.37 1549.86 1517.37 M1549.86 1513.66 Q1555.67 1513.66 1558.73 1518.27 Q1561.81 1522.85 1561.81 1531.6 Q1561.81 1540.33 1558.73 1544.94 Q1555.67 1549.52 1549.86 1549.52 Q1544.05 1549.52 1540.98 1544.94 Q1537.92 1540.33 1537.92 1531.6 Q1537.92 1522.85 1540.98 1518.27 Q1544.05 1513.66 1549.86 1513.66 Z" fill="#000000" fill-rule="evenodd" fill-opacity="1" /><path clip-path="url(#clip860)" d="M2093.68 1517.37 Q2090.07 1517.37 2088.24 1520.93 Q2086.44 1524.47 2086.44 1531.6 Q2086.44 1538.71 2088.24 1542.27 Q2090.07 1545.82 2093.68 1545.82 Q2097.32 1545.82 2099.12 1542.27 Q2100.95 1538.71 2100.95 1531.6 Q2100.95 1524.47 2099.12 1520.93 Q2097.32 1517.37 2093.68 1517.37 M2093.68 1513.66 Q2099.49 1513.66 2102.55 1518.27 Q2105.63 1522.85 2105.63 1531.6 Q2105.63 1540.33 2102.55 1544.94 Q2099.49 1549.52 2093.68 1549.52 Q2087.87 1549.52 2084.79 1544.94 Q2081.74 1540.33 2081.74 1531.6 Q2081.74 1522.85 2084.79 1518.27 Q2087.87 1513.66 2093.68 1513.66 Z" fill="#000000" fill-rule="evenodd" fill-opacity="1" /><path clip-path="url(#clip860)" d="M2113.84 1542.97 L2118.73 1542.97 L2118.73 1548.85 L2113.84 1548.85 L2113.84 1542.97 Z" fill="#000000" fill-rule="evenodd" fill-opacity="1" /><path clip-path="url(#clip860)" d="M2138.91 1517.37 Q2135.3 1517.37 2133.47 1520.93 Q2131.67 1524.47 2131.67 1531.6 Q2131.67 1538.71 2133.47 1542.27 Q2135.3 1545.82 2138.91 1545.82 Q2142.55 1545.82 2144.35 1542.27 Q2146.18 1538.71 2146.18 1531.6 Q2146.18 1524.47 2144.35 1520.93 Q2142.55 1517.37 2138.91 1517.37 M2138.91 1513.66 Q2144.72 1513.66 2147.78 1518.27 Q2150.86 1522.85 2150.86 1531.6 Q2150.86 1540.33 2147.78 1544.94 Q2144.72 1549.52 2138.91 1549.52 Q2133.1 1549.52 2130.03 1544.94 Q2126.97 1540.33 2126.97 1531.6 Q2126.97 1522.85 2130.03 1518.27 Q2133.1 1513.66 2138.91 1513.66 Z" fill="#000000" fill-rule="evenodd" fill-opacity="1" /><path clip-path="url(#clip860)" d="M2159.89 1544.91 L2167.52 1544.91 L2167.52 1518.55 L2159.21 1520.21 L2159.21 1515.95 L2167.48 1514.29 L2172.15 1514.29 L2172.15 1544.91 L2179.79 1544.91 L2179.79 1548.85 L2159.89 1548.85 L2159.89 1544.91 Z" fill="#000000" fill-rule="evenodd" fill-opacity="1" /><path clip-path="url(#clip860)" d="M2189.28 1514.29 L2207.64 1514.29 L2207.64 1518.22 L2193.57 1518.22 L2193.57 1526.7 Q2194.58 1526.35 2195.6 1526.19 Q2196.62 1526 2197.64 1526 Q2203.43 1526 2206.81 1529.17 Q2210.19 1532.34 2210.19 1537.76 Q2210.19 1543.34 2206.71 1546.44 Q2203.24 1549.52 2196.92 1549.52 Q2194.75 1549.52 2192.48 1549.15 Q2190.23 1548.78 2187.83 1548.04 L2187.83 1543.34 Q2189.91 1544.47 2192.13 1545.03 Q2194.35 1545.58 2196.83 1545.58 Q2200.83 1545.58 2203.17 1543.48 Q2205.51 1541.37 2205.51 1537.76 Q2205.51 1534.15 2203.17 1532.04 Q2200.83 1529.94 2196.83 1529.94 Q2194.96 1529.94 2193.08 1530.35 Q2191.23 1530.77 2189.28 1531.65 L2189.28 1514.29 Z" fill="#000000" fill-rule="evenodd" fill-opacity="1" /><polyline clip-path="url(#clip862)" style="stroke:#000000; stroke-linecap:butt; stroke-linejoin:round; stroke-width:2; stroke-opacity:0.1; fill:none" points="
  186.274,1464.56 2352.76,1464.56 
  "/>
<polyline clip-path="url(#clip862)" style="stroke:#000000; stroke-linecap:butt; stroke-linejoin:round; stroke-width:2; stroke-opacity:0.1; fill:none" points="
  186.274,1029.67 2352.76,1029.67 
  "/>
<polyline clip-path="url(#clip862)" style="stroke:#000000; stroke-linecap:butt; stroke-linejoin:round; stroke-width:2; stroke-opacity:0.1; fill:none" points="
  186.274,594.79 2352.76,594.79 
  "/>
<polyline clip-path="url(#clip862)" style="stroke:#000000; stroke-linecap:butt; stroke-linejoin:round; stroke-width:2; stroke-opacity:0.1; fill:none" points="
  186.274,159.906 2352.76,159.906 
  "/>
<polyline clip-path="url(#clip860)" style="stroke:#000000; stroke-linecap:butt; stroke-linejoin:round; stroke-width:4; stroke-opacity:1; fill:none" points="
  186.274,1486.45 186.274,47.2441 
  "/>
<polyline clip-path="url(#clip860)" style="stroke:#000000; stroke-linecap:butt; stroke-linejoin:round; stroke-width:4; stroke-opacity:1; fill:none" points="
  186.274,1464.56 205.172,1464.56 
  "/>
<polyline clip-path="url(#clip860)" style="stroke:#000000; stroke-linecap:butt; stroke-linejoin:round; stroke-width:4; stroke-opacity:1; fill:none" points="
  186.274,1029.67 205.172,1029.67 
  "/>
<polyline clip-path="url(#clip860)" style="stroke:#000000; stroke-linecap:butt; stroke-linejoin:round; stroke-width:4; stroke-opacity:1; fill:none" points="
  186.274,594.79 205.172,594.79 
  "/>
<polyline clip-path="url(#clip860)" style="stroke:#000000; stroke-linecap:butt; stroke-linejoin:round; stroke-width:4; stroke-opacity:1; fill:none" points="
  186.274,159.906 205.172,159.906 
  "/>
<path clip-path="url(#clip860)" d="M62.9365 1450.36 Q59.3254 1450.36 57.4967 1453.92 Q55.6912 1457.46 55.6912 1464.59 Q55.6912 1471.7 57.4967 1475.26 Q59.3254 1478.81 62.9365 1478.81 Q66.5707 1478.81 68.3763 1475.26 Q70.205 1471.7 70.205 1464.59 Q70.205 1457.46 68.3763 1453.92 Q66.5707 1450.36 62.9365 1450.36 M62.9365 1446.65 Q68.7467 1446.65 71.8022 1451.26 Q74.8809 1455.84 74.8809 1464.59 Q74.8809 1473.32 71.8022 1477.93 Q68.7467 1482.51 62.9365 1482.51 Q57.1264 1482.51 54.0477 1477.93 Q50.9921 1473.32 50.9921 1464.59 Q50.9921 1455.84 54.0477 1451.26 Q57.1264 1446.65 62.9365 1446.65 Z" fill="#000000" fill-rule="evenodd" fill-opacity="1" /><path clip-path="url(#clip860)" d="M83.0984 1475.96 L87.9827 1475.96 L87.9827 1481.84 L83.0984 1481.84 L83.0984 1475.96 Z" fill="#000000" fill-rule="evenodd" fill-opacity="1" /><path clip-path="url(#clip860)" d="M108.168 1450.36 Q104.557 1450.36 102.728 1453.92 Q100.922 1457.46 100.922 1464.59 Q100.922 1471.7 102.728 1475.26 Q104.557 1478.81 108.168 1478.81 Q111.802 1478.81 113.608 1475.26 Q115.436 1471.7 115.436 1464.59 Q115.436 1457.46 113.608 1453.92 Q111.802 1450.36 108.168 1450.36 M108.168 1446.65 Q113.978 1446.65 117.033 1451.26 Q120.112 1455.84 120.112 1464.59 Q120.112 1473.32 117.033 1477.93 Q113.978 1482.51 108.168 1482.51 Q102.358 1482.51 99.2789 1477.93 Q96.2234 1473.32 96.2234 1464.59 Q96.2234 1455.84 99.2789 1451.26 Q102.358 1446.65 108.168 1446.65 Z" fill="#000000" fill-rule="evenodd" fill-opacity="1" /><path clip-path="url(#clip860)" d="M138.33 1450.36 Q134.719 1450.36 132.89 1453.92 Q131.084 1457.46 131.084 1464.59 Q131.084 1471.7 132.89 1475.26 Q134.719 1478.81 138.33 1478.81 Q141.964 1478.81 143.769 1475.26 Q145.598 1471.7 145.598 1464.59 Q145.598 1457.46 143.769 1453.92 Q141.964 1450.36 138.33 1450.36 M138.33 1446.65 Q144.14 1446.65 147.195 1451.26 Q150.274 1455.84 150.274 1464.59 Q150.274 1473.32 147.195 1477.93 Q144.14 1482.51 138.33 1482.51 Q132.519 1482.51 129.441 1477.93 Q126.385 1473.32 126.385 1464.59 Q126.385 1455.84 129.441 1451.26 Q132.519 1446.65 138.33 1446.65 Z" fill="#000000" fill-rule="evenodd" fill-opacity="1" /><path clip-path="url(#clip860)" d="M63.9319 1015.47 Q60.3208 1015.47 58.4921 1019.04 Q56.6865 1022.58 56.6865 1029.71 Q56.6865 1036.81 58.4921 1040.38 Q60.3208 1043.92 63.9319 1043.92 Q67.5661 1043.92 69.3717 1040.38 Q71.2004 1036.81 71.2004 1029.71 Q71.2004 1022.58 69.3717 1019.04 Q67.5661 1015.47 63.9319 1015.47 M63.9319 1011.77 Q69.742 1011.77 72.7976 1016.38 Q75.8763 1020.96 75.8763 1029.71 Q75.8763 1038.44 72.7976 1043.04 Q69.742 1047.62 63.9319 1047.62 Q58.1217 1047.62 55.043 1043.04 Q51.9875 1038.44 51.9875 1029.71 Q51.9875 1020.96 55.043 1016.38 Q58.1217 1011.77 63.9319 1011.77 Z" fill="#000000" fill-rule="evenodd" fill-opacity="1" /><path clip-path="url(#clip860)" d="M84.0938 1041.07 L88.978 1041.07 L88.978 1046.95 L84.0938 1046.95 L84.0938 1041.07 Z" fill="#000000" fill-rule="evenodd" fill-opacity="1" /><path clip-path="url(#clip860)" d="M109.163 1015.47 Q105.552 1015.47 103.723 1019.04 Q101.918 1022.58 101.918 1029.71 Q101.918 1036.81 103.723 1040.38 Q105.552 1043.92 109.163 1043.92 Q112.797 1043.92 114.603 1040.38 Q116.432 1036.81 116.432 1029.71 Q116.432 1022.58 114.603 1019.04 Q112.797 1015.47 109.163 1015.47 M109.163 1011.77 Q114.973 1011.77 118.029 1016.38 Q121.107 1020.96 121.107 1029.71 Q121.107 1038.44 118.029 1043.04 Q114.973 1047.62 109.163 1047.62 Q103.353 1047.62 100.274 1043.04 Q97.2187 1038.44 97.2187 1029.71 Q97.2187 1020.96 100.274 1016.38 Q103.353 1011.77 109.163 1011.77 Z" fill="#000000" fill-rule="evenodd" fill-opacity="1" /><path clip-path="url(#clip860)" d="M129.371 1012.39 L147.728 1012.39 L147.728 1016.33 L133.654 1016.33 L133.654 1024.8 Q134.672 1024.45 135.691 1024.29 Q136.709 1024.11 137.728 1024.11 Q143.515 1024.11 146.894 1027.28 Q150.274 1030.45 150.274 1035.87 Q150.274 1041.44 146.802 1044.55 Q143.33 1047.62 137.01 1047.62 Q134.834 1047.62 132.566 1047.25 Q130.32 1046.88 127.913 1046.14 L127.913 1041.44 Q129.996 1042.58 132.219 1043.13 Q134.441 1043.69 136.918 1043.69 Q140.922 1043.69 143.26 1041.58 Q145.598 1039.48 145.598 1035.87 Q145.598 1032.25 143.26 1030.15 Q140.922 1028.04 136.918 1028.04 Q135.043 1028.04 133.168 1028.46 Q131.316 1028.88 129.371 1029.75 L129.371 1012.39 Z" fill="#000000" fill-rule="evenodd" fill-opacity="1" /><path clip-path="url(#clip860)" d="M62.9365 580.589 Q59.3254 580.589 57.4967 584.153 Q55.6912 587.695 55.6912 594.825 Q55.6912 601.931 57.4967 605.496 Q59.3254 609.037 62.9365 609.037 Q66.5707 609.037 68.3763 605.496 Q70.205 601.931 70.205 594.825 Q70.205 587.695 68.3763 584.153 Q66.5707 580.589 62.9365 580.589 M62.9365 576.885 Q68.7467 576.885 71.8022 581.491 Q74.8809 586.075 74.8809 594.825 Q74.8809 603.551 71.8022 608.158 Q68.7467 612.741 62.9365 612.741 Q57.1264 612.741 54.0477 608.158 Q50.9921 603.551 50.9921 594.825 Q50.9921 586.075 54.0477 581.491 Q57.1264 576.885 62.9365 576.885 Z" fill="#000000" fill-rule="evenodd" fill-opacity="1" /><path clip-path="url(#clip860)" d="M83.0984 606.19 L87.9827 606.19 L87.9827 612.07 L83.0984 612.07 L83.0984 606.19 Z" fill="#000000" fill-rule="evenodd" fill-opacity="1" /><path clip-path="url(#clip860)" d="M98.978 608.135 L106.617 608.135 L106.617 581.769 L98.3067 583.436 L98.3067 579.177 L106.571 577.51 L111.246 577.51 L111.246 608.135 L118.885 608.135 L118.885 612.07 L98.978 612.07 L98.978 608.135 Z" fill="#000000" fill-rule="evenodd" fill-opacity="1" /><path clip-path="url(#clip860)" d="M138.33 580.589 Q134.719 580.589 132.89 584.153 Q131.084 587.695 131.084 594.825 Q131.084 601.931 132.89 605.496 Q134.719 609.037 138.33 609.037 Q141.964 609.037 143.769 605.496 Q145.598 601.931 145.598 594.825 Q145.598 587.695 143.769 584.153 Q141.964 580.589 138.33 580.589 M138.33 576.885 Q144.14 576.885 147.195 581.491 Q150.274 586.075 150.274 594.825 Q150.274 603.551 147.195 608.158 Q144.14 612.741 138.33 612.741 Q132.519 612.741 129.441 608.158 Q126.385 603.551 126.385 594.825 Q126.385 586.075 129.441 581.491 Q132.519 576.885 138.33 576.885 Z" fill="#000000" fill-rule="evenodd" fill-opacity="1" /><path clip-path="url(#clip860)" d="M63.9319 145.705 Q60.3208 145.705 58.4921 149.27 Q56.6865 152.811 56.6865 159.941 Q56.6865 167.047 58.4921 170.612 Q60.3208 174.154 63.9319 174.154 Q67.5661 174.154 69.3717 170.612 Q71.2004 167.047 71.2004 159.941 Q71.2004 152.811 69.3717 149.27 Q67.5661 145.705 63.9319 145.705 M63.9319 142.001 Q69.742 142.001 72.7976 146.608 Q75.8763 151.191 75.8763 159.941 Q75.8763 168.668 72.7976 173.274 Q69.742 177.857 63.9319 177.857 Q58.1217 177.857 55.043 173.274 Q51.9875 168.668 51.9875 159.941 Q51.9875 151.191 55.043 146.608 Q58.1217 142.001 63.9319 142.001 Z" fill="#000000" fill-rule="evenodd" fill-opacity="1" /><path clip-path="url(#clip860)" d="M84.0938 171.306 L88.978 171.306 L88.978 177.186 L84.0938 177.186 L84.0938 171.306 Z" fill="#000000" fill-rule="evenodd" fill-opacity="1" /><path clip-path="url(#clip860)" d="M99.9733 173.251 L107.612 173.251 L107.612 146.885 L99.3021 148.552 L99.3021 144.293 L107.566 142.626 L112.242 142.626 L112.242 173.251 L119.881 173.251 L119.881 177.186 L99.9733 177.186 L99.9733 173.251 Z" fill="#000000" fill-rule="evenodd" fill-opacity="1" /><path clip-path="url(#clip860)" d="M129.371 142.626 L147.728 142.626 L147.728 146.561 L133.654 146.561 L133.654 155.033 Q134.672 154.686 135.691 154.524 Q136.709 154.339 137.728 154.339 Q143.515 154.339 146.894 157.51 Q150.274 160.682 150.274 166.098 Q150.274 171.677 146.802 174.779 Q143.33 177.857 137.01 177.857 Q134.834 177.857 132.566 177.487 Q130.32 177.117 127.913 176.376 L127.913 171.677 Q129.996 172.811 132.219 173.367 Q134.441 173.922 136.918 173.922 Q140.922 173.922 143.26 171.816 Q145.598 169.709 145.598 166.098 Q145.598 162.487 143.26 160.381 Q140.922 158.274 136.918 158.274 Q135.043 158.274 133.168 158.691 Q131.316 159.107 129.371 159.987 L129.371 142.626 Z" fill="#000000" fill-rule="evenodd" fill-opacity="1" /><polyline clip-path="url(#clip862)" style="stroke:#0000ff; stroke-linecap:butt; stroke-linejoin:round; stroke-width:8; stroke-opacity:1; fill:none" points="
  247.59,88.0097 293.188,825.11 383.713,1187.79 568.082,1348.14 940.658,1416.56 1681.74,1445.72 
  "/>
<path clip-path="url(#clip862)" d="M227.59 68.0097 L227.59 108.01 L267.59 108.01 L267.59 68.0097 L227.59 68.0097 Z" fill="#ffffff" fill-rule="evenodd" fill-opacity="1" stroke="#000000" stroke-opacity="1" stroke-width="3.2"/>
<path clip-path="url(#clip862)" d="M273.188 805.11 L273.188 845.11 L313.188 845.11 L313.188 805.11 L273.188 805.11 Z" fill="#ffffff" fill-rule="evenodd" fill-opacity="1" stroke="#000000" stroke-opacity="1" stroke-width="3.2"/>
<path clip-path="url(#clip862)" d="M363.713 1167.79 L363.713 1207.79 L403.713 1207.79 L403.713 1167.79 L363.713 1167.79 Z" fill="#ffffff" fill-rule="evenodd" fill-opacity="1" stroke="#000000" stroke-opacity="1" stroke-width="3.2"/>
<path clip-path="url(#clip862)" d="M548.082 1328.14 L548.082 1368.14 L588.082 1368.14 L588.082 1328.14 L548.082 1328.14 Z" fill="#ffffff" fill-rule="evenodd" fill-opacity="1" stroke="#000000" stroke-opacity="1" stroke-width="3.2"/>
<path clip-path="url(#clip862)" d="M920.658 1396.56 L920.658 1436.56 L960.658 1436.56 L960.658 1396.56 L920.658 1396.56 Z" fill="#ffffff" fill-rule="evenodd" fill-opacity="1" stroke="#000000" stroke-opacity="1" stroke-width="3.2"/>
<path clip-path="url(#clip862)" d="M1661.74 1425.72 L1661.74 1465.72 L1701.74 1465.72 L1701.74 1425.72 L1661.74 1425.72 Z" fill="#ffffff" fill-rule="evenodd" fill-opacity="1" stroke="#000000" stroke-opacity="1" stroke-width="3.2"/>
<polyline clip-path="url(#clip862)" style="stroke:#ff0000; stroke-linecap:butt; stroke-linejoin:round; stroke-width:8; stroke-opacity:1; fill:none" points="
  266.481,87.9763 334.146,825.113 463.791,1187.79 734.243,1348.14 1278.65,1416.56 2291.44,1445.72 
  "/>
<path clip-path="url(#clip862)" d="M246.481 67.9763 L246.481 107.976 L286.481 107.976 L286.481 67.9763 L246.481 67.9763 Z" fill="#ffffff" fill-rule="evenodd" fill-opacity="1" stroke="#000000" stroke-opacity="1" stroke-width="3.2"/>
<path clip-path="url(#clip862)" d="M314.146 805.113 L314.146 845.113 L354.146 845.113 L354.146 805.113 L314.146 805.113 Z" fill="#ffffff" fill-rule="evenodd" fill-opacity="1" stroke="#000000" stroke-opacity="1" stroke-width="3.2"/>
<path clip-path="url(#clip862)" d="M443.791 1167.79 L443.791 1207.79 L483.791 1207.79 L483.791 1167.79 L443.791 1167.79 Z" fill="#ffffff" fill-rule="evenodd" fill-opacity="1" stroke="#000000" stroke-opacity="1" stroke-width="3.2"/>
<path clip-path="url(#clip862)" d="M714.243 1328.14 L714.243 1368.14 L754.243 1368.14 L754.243 1328.14 L714.243 1328.14 Z" fill="#ffffff" fill-rule="evenodd" fill-opacity="1" stroke="#000000" stroke-opacity="1" stroke-width="3.2"/>
<path clip-path="url(#clip862)" d="M1258.65 1396.56 L1258.65 1436.56 L1298.65 1436.56 L1298.65 1396.56 L1258.65 1396.56 Z" fill="#ffffff" fill-rule="evenodd" fill-opacity="1" stroke="#000000" stroke-opacity="1" stroke-width="3.2"/>
<path clip-path="url(#clip862)" d="M2271.44 1425.72 L2271.44 1465.72 L2311.44 1465.72 L2311.44 1425.72 L2271.44 1425.72 Z" fill="#ffffff" fill-rule="evenodd" fill-opacity="1" stroke="#000000" stroke-opacity="1" stroke-width="3.2"/>
<path clip-path="url(#clip860)" d="
M1453.62 250.738 L2280.54 250.738 L2280.54 95.2176 L1453.62 95.2176  Z
  " fill="#ffffff" fill-rule="evenodd" fill-opacity="1"/>
<polyline clip-path="url(#clip860)" style="stroke:#000000; stroke-linecap:butt; stroke-linejoin:round; stroke-width:4; stroke-opacity:1; fill:none" points="
  1453.62,250.738 2280.54,250.738 2280.54,95.2176 1453.62,95.2176 1453.62,250.738 
  "/>
<polyline clip-path="url(#clip860)" style="stroke:#0000ff; stroke-linecap:butt; stroke-linejoin:round; stroke-width:4; stroke-opacity:1; fill:none" points="
  1477.69,147.058 1622.12,147.058 
  "/>
<path clip-path="url(#clip860)" d="M1524.31 121.458 L1524.31 172.658 L1575.51 172.658 L1575.51 121.458 L1524.31 121.458 Z" fill="#ffffff" fill-rule="evenodd" fill-opacity="1" stroke="#000000" stroke-opacity="1" stroke-width="4.096"/>
<path clip-path="url(#clip860)" d="M1653.3 129.778 L1657.98 129.778 L1657.98 161.93 Q1657.98 168.18 1655.59 171.004 Q1653.23 173.828 1647.98 173.828 L1646.2 173.828 L1646.2 169.893 L1647.65 169.893 Q1650.76 169.893 1652.03 168.157 Q1653.3 166.421 1653.3 161.93 L1653.3 129.778 Z" fill="#000000" fill-rule="evenodd" fill-opacity="1" /><path clip-path="url(#clip860)" d="M1666.66 154.106 L1666.66 138.412 L1670.92 138.412 L1670.92 153.944 Q1670.92 157.625 1672.35 159.476 Q1673.79 161.305 1676.66 161.305 Q1680.11 161.305 1682.1 159.106 Q1684.11 156.907 1684.11 153.111 L1684.11 138.412 L1688.37 138.412 L1688.37 164.338 L1684.11 164.338 L1684.11 160.356 Q1682.56 162.717 1680.5 163.875 Q1678.46 165.009 1675.76 165.009 Q1671.29 165.009 1668.97 162.231 Q1666.66 159.453 1666.66 154.106 M1677.38 137.787 L1677.38 137.787 Z" fill="#000000" fill-rule="evenodd" fill-opacity="1" /><path clip-path="url(#clip860)" d="M1697.14 128.319 L1701.4 128.319 L1701.4 164.338 L1697.14 164.338 L1697.14 128.319 Z" fill="#000000" fill-rule="evenodd" fill-opacity="1" /><path clip-path="url(#clip860)" d="M1710.32 138.412 L1714.57 138.412 L1714.57 164.338 L1710.32 164.338 L1710.32 138.412 M1710.32 128.319 L1714.57 128.319 L1714.57 133.713 L1710.32 133.713 L1710.32 128.319 Z" fill="#000000" fill-rule="evenodd" fill-opacity="1" /><path clip-path="url(#clip860)" d="M1735.27 151.305 Q1730.11 151.305 1728.12 152.486 Q1726.13 153.666 1726.13 156.514 Q1726.13 158.782 1727.61 160.125 Q1729.11 161.444 1731.68 161.444 Q1735.22 161.444 1737.35 158.944 Q1739.5 156.421 1739.5 152.254 L1739.5 151.305 L1735.27 151.305 M1743.76 149.546 L1743.76 164.338 L1739.5 164.338 L1739.5 160.402 Q1738.05 162.763 1735.87 163.898 Q1733.69 165.009 1730.55 165.009 Q1726.57 165.009 1724.2 162.787 Q1721.87 160.541 1721.87 156.791 Q1721.87 152.416 1724.78 150.194 Q1727.72 147.972 1733.53 147.972 L1739.5 147.972 L1739.5 147.555 Q1739.5 144.615 1737.56 143.018 Q1735.64 141.398 1732.14 141.398 Q1729.92 141.398 1727.82 141.93 Q1725.71 142.463 1723.76 143.527 L1723.76 139.592 Q1726.1 138.69 1728.3 138.25 Q1730.5 137.787 1732.58 137.787 Q1738.21 137.787 1740.99 140.703 Q1743.76 143.62 1743.76 149.546 Z" fill="#000000" fill-rule="evenodd" fill-opacity="1" /><path clip-path="url(#clip860)" d="M1767.79 129.778 L1774.09 129.778 L1789.41 158.689 L1789.41 129.778 L1793.95 129.778 L1793.95 164.338 L1787.65 164.338 L1772.33 135.426 L1772.33 164.338 L1767.79 164.338 L1767.79 129.778 Z" fill="#000000" fill-rule="evenodd" fill-opacity="1" /><path clip-path="url(#clip860)" d="M1819.64 148.134 Q1821.15 148.643 1822.56 150.31 Q1824 151.977 1825.43 154.893 L1830.18 164.338 L1825.15 164.338 L1820.73 155.472 Q1819.02 152 1817.4 150.865 Q1815.8 149.731 1813.02 149.731 L1807.93 149.731 L1807.93 164.338 L1803.25 164.338 L1803.25 129.778 L1813.81 129.778 Q1819.74 129.778 1822.65 132.254 Q1825.57 134.731 1825.57 139.731 Q1825.57 142.995 1824.04 145.148 Q1822.54 147.301 1819.64 148.134 M1807.93 133.62 L1807.93 145.889 L1813.81 145.889 Q1817.19 145.889 1818.9 144.338 Q1820.64 142.764 1820.64 139.731 Q1820.64 136.699 1818.9 135.171 Q1817.19 133.62 1813.81 133.62 L1807.93 133.62 Z" fill="#000000" fill-rule="evenodd" fill-opacity="1" /><path clip-path="url(#clip860)" d="M1861.31 128.366 Q1858.21 133.69 1856.7 138.898 Q1855.2 144.106 1855.2 149.453 Q1855.2 154.801 1856.7 160.055 Q1858.23 165.287 1861.31 170.588 L1857.61 170.588 Q1854.13 165.148 1852.4 159.893 Q1850.68 154.639 1850.68 149.453 Q1850.68 144.291 1852.4 139.06 Q1854.11 133.828 1857.61 128.366 L1861.31 128.366 Z" fill="#000000" fill-rule="evenodd" fill-opacity="1" /><path clip-path="url(#clip860)" d="M1869.76 129.778 L1889.62 129.778 L1889.62 133.713 L1874.43 133.713 L1874.43 143.898 L1888.14 143.898 L1888.14 147.833 L1874.43 147.833 L1874.43 164.338 L1869.76 164.338 L1869.76 129.778 Z" fill="#000000" fill-rule="evenodd" fill-opacity="1" /><path clip-path="url(#clip860)" d="M1913.9 142.347 L1913.9 128.319 L1918.16 128.319 L1918.16 164.338 L1913.9 164.338 L1913.9 160.449 Q1912.56 162.763 1910.5 163.898 Q1908.46 165.009 1905.59 165.009 Q1900.89 165.009 1897.93 161.259 Q1894.99 157.509 1894.99 151.398 Q1894.99 145.287 1897.93 141.537 Q1900.89 137.787 1905.59 137.787 Q1908.46 137.787 1910.5 138.921 Q1912.56 140.032 1913.9 142.347 M1899.39 151.398 Q1899.39 156.097 1901.31 158.782 Q1903.25 161.444 1906.63 161.444 Q1910.01 161.444 1911.96 158.782 Q1913.9 156.097 1913.9 151.398 Q1913.9 146.699 1911.96 144.037 Q1910.01 141.352 1906.63 141.352 Q1903.25 141.352 1901.31 144.037 Q1899.39 146.699 1899.39 151.398 Z" fill="#000000" fill-rule="evenodd" fill-opacity="1" /><path clip-path="url(#clip860)" d="M1949.11 150.31 L1949.11 152.393 L1929.53 152.393 Q1929.8 156.791 1932.17 159.106 Q1934.55 161.398 1938.79 161.398 Q1941.24 161.398 1943.53 160.796 Q1945.85 160.194 1948.11 158.99 L1948.11 163.018 Q1945.82 163.99 1943.42 164.5 Q1941.01 165.009 1938.53 165.009 Q1932.33 165.009 1928.69 161.398 Q1925.08 157.787 1925.08 151.629 Q1925.08 145.264 1928.51 141.537 Q1931.96 137.787 1937.79 137.787 Q1943.02 137.787 1946.05 141.166 Q1949.11 144.523 1949.11 150.31 M1944.85 149.06 Q1944.8 145.565 1942.88 143.481 Q1940.99 141.398 1937.84 141.398 Q1934.27 141.398 1932.12 143.412 Q1929.99 145.426 1929.67 149.083 L1944.85 149.06 Z" fill="#000000" fill-rule="evenodd" fill-opacity="1" /><path clip-path="url(#clip860)" d="M1977 130.912 L1977 135.472 Q1974.34 134.199 1971.98 133.574 Q1969.62 132.949 1967.42 132.949 Q1963.6 132.949 1961.52 134.43 Q1959.46 135.912 1959.46 138.643 Q1959.46 140.935 1960.82 142.115 Q1962.21 143.273 1966.05 143.99 L1968.88 144.569 Q1974.11 145.565 1976.59 148.088 Q1979.09 150.588 1979.09 154.801 Q1979.09 159.824 1975.71 162.416 Q1972.35 165.009 1965.85 165.009 Q1963.39 165.009 1960.61 164.453 Q1957.86 163.898 1954.9 162.81 L1954.9 157.995 Q1957.74 159.592 1960.48 160.402 Q1963.21 161.213 1965.85 161.213 Q1969.85 161.213 1972.03 159.639 Q1974.2 158.064 1974.2 155.148 Q1974.2 152.602 1972.63 151.166 Q1971.08 149.731 1967.51 149.014 L1964.67 148.458 Q1959.43 147.416 1957.1 145.194 Q1954.76 142.972 1954.76 139.014 Q1954.76 134.43 1957.98 131.791 Q1961.22 129.153 1966.89 129.153 Q1969.32 129.153 1971.84 129.592 Q1974.36 130.032 1977 130.912 Z" fill="#000000" fill-rule="evenodd" fill-opacity="1" /><path clip-path="url(#clip860)" d="M1996.24 141.398 Q1992.81 141.398 1990.82 144.083 Q1988.83 146.745 1988.83 151.398 Q1988.83 156.051 1990.8 158.736 Q1992.79 161.398 1996.24 161.398 Q1999.64 161.398 2001.63 158.713 Q2003.62 156.027 2003.62 151.398 Q2003.62 146.791 2001.63 144.106 Q1999.64 141.398 1996.24 141.398 M1996.24 137.787 Q2001.8 137.787 2004.97 141.398 Q2008.14 145.009 2008.14 151.398 Q2008.14 157.764 2004.97 161.398 Q2001.8 165.009 1996.24 165.009 Q1990.66 165.009 1987.49 161.398 Q1984.34 157.764 1984.34 151.398 Q1984.34 145.009 1987.49 141.398 Q1990.66 137.787 1996.24 137.787 Z" fill="#000000" fill-rule="evenodd" fill-opacity="1" /><path clip-path="url(#clip860)" d="M2015.2 128.319 L2019.46 128.319 L2019.46 164.338 L2015.2 164.338 L2015.2 128.319 Z" fill="#000000" fill-rule="evenodd" fill-opacity="1" /><path clip-path="url(#clip860)" d="M2025.31 138.412 L2029.83 138.412 L2037.93 160.171 L2046.03 138.412 L2050.54 138.412 L2040.82 164.338 L2035.04 164.338 L2025.31 138.412 Z" fill="#000000" fill-rule="evenodd" fill-opacity="1" /><path clip-path="url(#clip860)" d="M2078.6 150.31 L2078.6 152.393 L2059.02 152.393 Q2059.29 156.791 2061.66 159.106 Q2064.04 161.398 2068.28 161.398 Q2070.73 161.398 2073.02 160.796 Q2075.34 160.194 2077.6 158.99 L2077.6 163.018 Q2075.31 163.99 2072.91 164.5 Q2070.5 165.009 2068.02 165.009 Q2061.82 165.009 2058.18 161.398 Q2054.57 157.787 2054.57 151.629 Q2054.57 145.264 2058 141.537 Q2061.45 137.787 2067.28 137.787 Q2072.51 137.787 2075.54 141.166 Q2078.6 144.523 2078.6 150.31 M2074.34 149.06 Q2074.29 145.565 2072.37 143.481 Q2070.48 141.398 2067.33 141.398 Q2063.76 141.398 2061.61 143.412 Q2059.48 145.426 2059.16 149.083 L2074.34 149.06 Z" fill="#000000" fill-rule="evenodd" fill-opacity="1" /><path clip-path="url(#clip860)" d="M2100.61 142.393 Q2099.9 141.977 2099.04 141.791 Q2098.21 141.583 2097.19 141.583 Q2093.58 141.583 2091.63 143.944 Q2089.71 146.282 2089.71 150.68 L2089.71 164.338 L2085.43 164.338 L2085.43 138.412 L2089.71 138.412 L2089.71 142.44 Q2091.05 140.078 2093.21 138.944 Q2095.36 137.787 2098.44 137.787 Q2098.88 137.787 2099.41 137.856 Q2099.94 137.903 2100.59 138.018 L2100.61 142.393 Z" fill="#000000" fill-rule="evenodd" fill-opacity="1" /><path clip-path="url(#clip860)" d="M2101.33 158.458 L2106.22 158.458 L2106.22 164.338 L2101.33 164.338 L2101.33 158.458 Z" fill="#000000" fill-rule="evenodd" fill-opacity="1" /><path clip-path="url(#clip860)" d="M2115.8 138.412 L2120.06 138.412 L2120.06 164.801 Q2120.06 169.754 2118.16 171.976 Q2116.29 174.199 2112.1 174.199 L2110.48 174.199 L2110.48 170.588 L2111.61 170.588 Q2114.04 170.588 2114.92 169.453 Q2115.8 168.342 2115.8 164.801 L2115.8 138.412 M2115.8 128.319 L2120.06 128.319 L2120.06 133.713 L2115.8 133.713 L2115.8 128.319 Z" fill="#000000" fill-rule="evenodd" fill-opacity="1" /><path clip-path="url(#clip860)" d="M2128.97 128.319 L2133.23 128.319 L2133.23 164.338 L2128.97 164.338 L2128.97 128.319 Z" fill="#000000" fill-rule="evenodd" fill-opacity="1" /><path clip-path="url(#clip860)" d="M2141.47 128.366 L2145.17 128.366 Q2148.65 133.828 2150.36 139.06 Q2152.1 144.291 2152.1 149.453 Q2152.1 154.639 2150.36 159.893 Q2148.65 165.148 2145.17 170.588 L2141.47 170.588 Q2144.55 165.287 2146.05 160.055 Q2147.58 154.801 2147.58 149.453 Q2147.58 144.106 2146.05 138.898 Q2144.55 133.69 2141.47 128.366 Z" fill="#000000" fill-rule="evenodd" fill-opacity="1" /><polyline clip-path="url(#clip860)" style="stroke:#ff0000; stroke-linecap:butt; stroke-linejoin:round; stroke-width:4; stroke-opacity:1; fill:none" points="
  1477.69,198.898 1622.12,198.898 
  "/>
<path clip-path="url(#clip860)" d="M1524.31 173.298 L1524.31 224.498 L1575.51 224.498 L1575.51 173.298 L1524.31 173.298 Z" fill="#ffffff" fill-rule="evenodd" fill-opacity="1" stroke="#000000" stroke-opacity="1" stroke-width="4.096"/>
<path clip-path="url(#clip860)" d="M1646.2 181.618 L1653.16 181.618 L1661.98 205.136 L1670.85 181.618 L1677.82 181.618 L1677.82 216.178 L1673.26 216.178 L1673.26 185.83 L1664.34 209.534 L1659.64 209.534 L1650.73 185.83 L1650.73 216.178 L1646.2 216.178 L1646.2 181.618 Z" fill="#000000" fill-rule="evenodd" fill-opacity="1" /><path clip-path="url(#clip860)" d="M1698.69 203.145 Q1693.53 203.145 1691.54 204.326 Q1689.55 205.506 1689.55 208.354 Q1689.55 210.622 1691.03 211.965 Q1692.54 213.284 1695.11 213.284 Q1698.65 213.284 1700.78 210.784 Q1702.93 208.261 1702.93 204.094 L1702.93 203.145 L1698.69 203.145 M1707.19 201.386 L1707.19 216.178 L1702.93 216.178 L1702.93 212.242 Q1701.47 214.603 1699.3 215.738 Q1697.12 216.849 1693.97 216.849 Q1689.99 216.849 1687.63 214.627 Q1685.29 212.381 1685.29 208.631 Q1685.29 204.256 1688.21 202.034 Q1691.15 199.812 1696.96 199.812 L1702.93 199.812 L1702.93 199.395 Q1702.93 196.455 1700.99 194.858 Q1699.07 193.238 1695.57 193.238 Q1693.35 193.238 1691.24 193.77 Q1689.13 194.303 1687.19 195.367 L1687.19 191.432 Q1689.53 190.53 1691.73 190.09 Q1693.93 189.627 1696.01 189.627 Q1701.63 189.627 1704.41 192.543 Q1707.19 195.46 1707.19 201.386 Z" fill="#000000" fill-rule="evenodd" fill-opacity="1" /><path clip-path="url(#clip860)" d="M1720.18 182.891 L1720.18 190.252 L1728.95 190.252 L1728.95 193.562 L1720.18 193.562 L1720.18 207.636 Q1720.18 210.807 1721.03 211.71 Q1721.91 212.613 1724.57 212.613 L1728.95 212.613 L1728.95 216.178 L1724.57 216.178 Q1719.64 216.178 1717.77 214.349 Q1715.89 212.497 1715.89 207.636 L1715.89 193.562 L1712.77 193.562 L1712.77 190.252 L1715.89 190.252 L1715.89 182.891 L1720.18 182.891 Z" fill="#000000" fill-rule="evenodd" fill-opacity="1" /><path clip-path="url(#clip860)" d="M1734.55 180.159 L1738.81 180.159 L1738.81 216.178 L1734.55 216.178 L1734.55 180.159 Z" fill="#000000" fill-rule="evenodd" fill-opacity="1" /><path clip-path="url(#clip860)" d="M1759.5 203.145 Q1754.34 203.145 1752.35 204.326 Q1750.36 205.506 1750.36 208.354 Q1750.36 210.622 1751.84 211.965 Q1753.35 213.284 1755.92 213.284 Q1759.46 213.284 1761.59 210.784 Q1763.74 208.261 1763.74 204.094 L1763.74 203.145 L1759.5 203.145 M1768 201.386 L1768 216.178 L1763.74 216.178 L1763.74 212.242 Q1762.28 214.603 1760.11 215.738 Q1757.93 216.849 1754.78 216.849 Q1750.8 216.849 1748.44 214.627 Q1746.1 212.381 1746.1 208.631 Q1746.1 204.256 1749.02 202.034 Q1751.96 199.812 1757.77 199.812 L1763.74 199.812 L1763.74 199.395 Q1763.74 196.455 1761.8 194.858 Q1759.88 193.238 1756.38 193.238 Q1754.16 193.238 1752.05 193.77 Q1749.94 194.303 1748 195.367 L1748 191.432 Q1750.34 190.53 1752.54 190.09 Q1754.74 189.627 1756.82 189.627 Q1762.44 189.627 1765.22 192.543 Q1768 195.46 1768 201.386 Z" fill="#000000" fill-rule="evenodd" fill-opacity="1" /><path clip-path="url(#clip860)" d="M1795.38 203.238 Q1795.38 198.539 1793.44 195.877 Q1791.52 193.192 1788.14 193.192 Q1784.76 193.192 1782.81 195.877 Q1780.89 198.539 1780.89 203.238 Q1780.89 207.937 1782.81 210.622 Q1784.76 213.284 1788.14 213.284 Q1791.52 213.284 1793.44 210.622 Q1795.38 207.937 1795.38 203.238 M1780.89 194.187 Q1782.24 191.872 1784.27 190.761 Q1786.33 189.627 1789.18 189.627 Q1793.9 189.627 1796.84 193.377 Q1799.81 197.127 1799.81 203.238 Q1799.81 209.349 1796.84 213.099 Q1793.9 216.849 1789.18 216.849 Q1786.33 216.849 1784.27 215.738 Q1782.24 214.603 1780.89 212.289 L1780.89 216.178 L1776.61 216.178 L1776.61 180.159 L1780.89 180.159 L1780.89 194.187 Z" fill="#000000" fill-rule="evenodd" fill-opacity="1" /><path clip-path="url(#clip860)" d="M1826.8 185.46 L1826.8 198.446 L1832.68 198.446 Q1835.94 198.446 1837.72 196.756 Q1839.5 195.067 1839.5 191.942 Q1839.5 188.84 1837.72 187.15 Q1835.94 185.46 1832.68 185.46 L1826.8 185.46 M1822.12 181.618 L1832.68 181.618 Q1838.49 181.618 1841.45 184.256 Q1844.43 186.872 1844.43 191.942 Q1844.43 197.057 1841.45 199.673 Q1838.49 202.289 1832.68 202.289 L1826.8 202.289 L1826.8 216.178 L1822.12 216.178 L1822.12 181.618 Z" fill="#000000" fill-rule="evenodd" fill-opacity="1" /><path clip-path="url(#clip860)" d="M1850.71 181.618 L1855.38 181.618 L1855.38 216.178 L1850.71 216.178 L1850.71 181.618 Z" fill="#000000" fill-rule="evenodd" fill-opacity="1" /><path clip-path="url(#clip860)" d="M1862.35 201.293 L1874.83 201.293 L1874.83 205.09 L1862.35 205.09 L1862.35 201.293 Z" fill="#000000" fill-rule="evenodd" fill-opacity="1" /><path clip-path="url(#clip860)" d="M1881.8 181.618 L1886.47 181.618 L1886.47 216.178 L1881.8 216.178 L1881.8 181.618 Z" fill="#000000" fill-rule="evenodd" fill-opacity="1" /><path clip-path="url(#clip860)" d="M1895.78 181.618 L1902.74 181.618 L1911.56 205.136 L1920.43 181.618 L1927.4 181.618 L1927.4 216.178 L1922.84 216.178 L1922.84 185.83 L1913.93 209.534 L1909.23 209.534 L1900.31 185.83 L1900.31 216.178 L1895.78 216.178 L1895.78 181.618 Z" fill="#000000" fill-rule="evenodd" fill-opacity="1" /><path clip-path="url(#clip860)" d="M1941.12 212.242 L1957.44 212.242 L1957.44 216.178 L1935.5 216.178 L1935.5 212.242 Q1938.16 209.488 1942.74 204.858 Q1947.35 200.205 1948.53 198.863 Q1950.78 196.34 1951.66 194.604 Q1952.56 192.844 1952.56 191.155 Q1952.56 188.4 1950.61 186.664 Q1948.69 184.928 1945.59 184.928 Q1943.39 184.928 1940.94 185.692 Q1938.51 186.455 1935.73 188.006 L1935.73 183.284 Q1938.55 182.15 1941.01 181.571 Q1943.46 180.993 1945.5 180.993 Q1950.87 180.993 1954.06 183.678 Q1957.26 186.363 1957.26 190.854 Q1957.26 192.983 1956.45 194.905 Q1955.66 196.803 1953.55 199.395 Q1952.98 200.067 1949.87 203.284 Q1946.77 206.479 1941.12 212.242 Z" fill="#000000" fill-rule="evenodd" fill-opacity="1" /><path clip-path="url(#clip860)" d="M1991.96 180.206 Q1988.86 185.53 1987.35 190.738 Q1985.85 195.946 1985.85 201.293 Q1985.85 206.641 1987.35 211.895 Q1988.88 217.127 1991.96 222.428 L1988.25 222.428 Q1984.78 216.988 1983.05 211.733 Q1981.33 206.479 1981.33 201.293 Q1981.33 196.131 1983.05 190.9 Q1984.76 185.668 1988.25 180.206 L1991.96 180.206 Z" fill="#000000" fill-rule="evenodd" fill-opacity="1" /><path clip-path="url(#clip860)" d="M2023.97 211.247 L2023.97 201.965 L2016.33 201.965 L2016.33 198.122 L2028.6 198.122 L2028.6 212.96 Q2025.89 214.881 2022.63 215.877 Q2019.36 216.849 2015.66 216.849 Q2007.56 216.849 2002.98 212.127 Q1998.42 207.381 1998.42 198.932 Q1998.42 190.46 2002.98 185.738 Q2007.56 180.993 2015.66 180.993 Q2019.04 180.993 2022.07 181.826 Q2025.13 182.659 2027.7 184.28 L2027.7 189.256 Q2025.11 187.057 2022.19 185.946 Q2019.27 184.835 2016.05 184.835 Q2009.71 184.835 2006.52 188.377 Q2003.35 191.918 2003.35 198.932 Q2003.35 205.923 2006.52 209.465 Q2009.71 213.006 2016.05 213.006 Q2018.53 213.006 2020.48 212.59 Q2022.42 212.15 2023.97 211.247 Z" fill="#000000" fill-rule="evenodd" fill-opacity="1" /><path clip-path="url(#clip860)" d="M2048.74 203.145 Q2043.58 203.145 2041.59 204.326 Q2039.6 205.506 2039.6 208.354 Q2039.6 210.622 2041.08 211.965 Q2042.58 213.284 2045.15 213.284 Q2048.69 213.284 2050.82 210.784 Q2052.98 208.261 2052.98 204.094 L2052.98 203.145 L2048.74 203.145 M2057.23 201.386 L2057.23 216.178 L2052.98 216.178 L2052.98 212.242 Q2051.52 214.603 2049.34 215.738 Q2047.17 216.849 2044.02 216.849 Q2040.04 216.849 2037.67 214.627 Q2035.34 212.381 2035.34 208.631 Q2035.34 204.256 2038.25 202.034 Q2041.19 199.812 2047 199.812 L2052.98 199.812 L2052.98 199.395 Q2052.98 196.455 2051.03 194.858 Q2049.11 193.238 2045.61 193.238 Q2043.39 193.238 2041.29 193.77 Q2039.18 194.303 2037.23 195.367 L2037.23 191.432 Q2039.57 190.53 2041.77 190.09 Q2043.97 189.627 2046.05 189.627 Q2051.68 189.627 2054.46 192.543 Q2057.23 195.46 2057.23 201.386 Z" fill="#000000" fill-rule="evenodd" fill-opacity="1" /><path clip-path="url(#clip860)" d="M2081.03 194.233 Q2080.31 193.817 2079.46 193.631 Q2078.62 193.423 2077.6 193.423 Q2073.99 193.423 2072.05 195.784 Q2070.13 198.122 2070.13 202.52 L2070.13 216.178 L2065.85 216.178 L2065.85 190.252 L2070.13 190.252 L2070.13 194.28 Q2071.47 191.918 2073.62 190.784 Q2075.78 189.627 2078.85 189.627 Q2079.29 189.627 2079.83 189.696 Q2080.36 189.743 2081.01 189.858 L2081.03 194.233 Z" fill="#000000" fill-rule="evenodd" fill-opacity="1" /><path clip-path="url(#clip860)" d="M2099.69 194.233 Q2098.97 193.817 2098.11 193.631 Q2097.28 193.423 2096.26 193.423 Q2092.65 193.423 2090.71 195.784 Q2088.79 198.122 2088.79 202.52 L2088.79 216.178 L2084.5 216.178 L2084.5 190.252 L2088.79 190.252 L2088.79 194.28 Q2090.13 191.918 2092.28 190.784 Q2094.43 189.627 2097.51 189.627 Q2097.95 189.627 2098.48 189.696 Q2099.02 189.743 2099.67 189.858 L2099.69 194.233 Z" fill="#000000" fill-rule="evenodd" fill-opacity="1" /><path clip-path="url(#clip860)" d="M2115.94 203.145 Q2110.78 203.145 2108.79 204.326 Q2106.79 205.506 2106.79 208.354 Q2106.79 210.622 2108.28 211.965 Q2109.78 213.284 2112.35 213.284 Q2115.89 213.284 2118.02 210.784 Q2120.17 208.261 2120.17 204.094 L2120.17 203.145 L2115.94 203.145 M2124.43 201.386 L2124.43 216.178 L2120.17 216.178 L2120.17 212.242 Q2118.72 214.603 2116.54 215.738 Q2114.36 216.849 2111.22 216.849 Q2107.23 216.849 2104.87 214.627 Q2102.54 212.381 2102.54 208.631 Q2102.54 204.256 2105.45 202.034 Q2108.39 199.812 2114.2 199.812 L2120.17 199.812 L2120.17 199.395 Q2120.17 196.455 2118.23 194.858 Q2116.31 193.238 2112.81 193.238 Q2110.59 193.238 2108.48 193.77 Q2106.38 194.303 2104.43 195.367 L2104.43 191.432 Q2106.77 190.53 2108.97 190.09 Q2111.17 189.627 2113.25 189.627 Q2118.88 189.627 2121.66 192.543 Q2124.43 195.46 2124.43 201.386 Z" fill="#000000" fill-rule="evenodd" fill-opacity="1" /><path clip-path="url(#clip860)" d="M2137.33 212.289 L2137.33 226.039 L2133.04 226.039 L2133.04 190.252 L2137.33 190.252 L2137.33 194.187 Q2138.67 191.872 2140.71 190.761 Q2142.77 189.627 2145.61 189.627 Q2150.34 189.627 2153.28 193.377 Q2156.24 197.127 2156.24 203.238 Q2156.24 209.349 2153.28 213.099 Q2150.34 216.849 2145.61 216.849 Q2142.77 216.849 2140.71 215.738 Q2138.67 214.603 2137.33 212.289 M2151.82 203.238 Q2151.82 198.539 2149.87 195.877 Q2147.95 193.192 2144.57 193.192 Q2141.19 193.192 2139.25 195.877 Q2137.33 198.539 2137.33 203.238 Q2137.33 207.937 2139.25 210.622 Q2141.19 213.284 2144.57 213.284 Q2147.95 213.284 2149.87 210.622 Q2151.82 207.937 2151.82 203.238 Z" fill="#000000" fill-rule="evenodd" fill-opacity="1" /><path clip-path="url(#clip860)" d="M2167.42 212.289 L2167.42 226.039 L2163.14 226.039 L2163.14 190.252 L2167.42 190.252 L2167.42 194.187 Q2168.76 191.872 2170.8 190.761 Q2172.86 189.627 2175.71 189.627 Q2180.43 189.627 2183.37 193.377 Q2186.33 197.127 2186.33 203.238 Q2186.33 209.349 2183.37 213.099 Q2180.43 216.849 2175.71 216.849 Q2172.86 216.849 2170.8 215.738 Q2168.76 214.603 2167.42 212.289 M2181.91 203.238 Q2181.91 198.539 2179.97 195.877 Q2178.04 193.192 2174.66 193.192 Q2171.29 193.192 2169.34 195.877 Q2167.42 198.539 2167.42 203.238 Q2167.42 207.937 2169.34 210.622 Q2171.29 213.284 2174.66 213.284 Q2178.04 213.284 2179.97 210.622 Q2181.91 207.937 2181.91 203.238 Z" fill="#000000" fill-rule="evenodd" fill-opacity="1" /><path clip-path="url(#clip860)" d="M2205.17 203.145 Q2200.01 203.145 2198.02 204.326 Q2196.03 205.506 2196.03 208.354 Q2196.03 210.622 2197.51 211.965 Q2199.02 213.284 2201.59 213.284 Q2205.13 213.284 2207.26 210.784 Q2209.41 208.261 2209.41 204.094 L2209.41 203.145 L2205.17 203.145 M2213.67 201.386 L2213.67 216.178 L2209.41 216.178 L2209.41 212.242 Q2207.95 214.603 2205.78 215.738 Q2203.6 216.849 2200.45 216.849 Q2196.47 216.849 2194.11 214.627 Q2191.77 212.381 2191.77 208.631 Q2191.77 204.256 2194.69 202.034 Q2197.63 199.812 2203.44 199.812 L2209.41 199.812 L2209.41 199.395 Q2209.41 196.455 2207.47 194.858 Q2205.54 193.238 2202.05 193.238 Q2199.83 193.238 2197.72 193.77 Q2195.61 194.303 2193.67 195.367 L2193.67 191.432 Q2196.01 190.53 2198.21 190.09 Q2200.41 189.627 2202.49 189.627 Q2208.11 189.627 2210.89 192.543 Q2213.67 195.46 2213.67 201.386 Z" fill="#000000" fill-rule="evenodd" fill-opacity="1" /><path clip-path="url(#clip860)" d="M2221.77 180.206 L2225.47 180.206 Q2228.95 185.668 2230.66 190.9 Q2232.4 196.131 2232.4 201.293 Q2232.4 206.479 2230.66 211.733 Q2228.95 216.988 2225.47 222.428 L2221.77 222.428 Q2224.85 217.127 2226.35 211.895 Q2227.88 206.641 2227.88 201.293 Q2227.88 195.946 2226.35 190.738 Q2224.85 185.53 2221.77 180.206 Z" fill="#000000" fill-rule="evenodd" fill-opacity="1" /></svg>
