<?xml version="1.0" encoding="utf-8"?>
<svg xmlns="http://www.w3.org/2000/svg" xmlns:xlink="http://www.w3.org/1999/xlink" width="600" height="400" viewBox="0 0 2400 1600">
<defs>
  <clipPath id="clip220">
    <rect x="0" y="0" width="2400" height="1600"/>
  </clipPath>
</defs>
<path clip-path="url(#clip220)" d="
M0 1600 L2400 1600 L2400 0 L0 0  Z
  " fill="#ffffff" fill-rule="evenodd" fill-opacity="1"/>
<defs>
  <clipPath id="clip221">
    <rect x="480" y="0" width="1681" height="1600"/>
  </clipPath>
</defs>
<path clip-path="url(#clip220)" d="
M202.227 1423.18 L2352.76 1423.18 L2352.76 47.2441 L202.227 47.2441  Z
  " fill="#ffffff" fill-rule="evenodd" fill-opacity="1"/>
<defs>
  <clipPath id="clip222">
    <rect x="202" y="47" width="2152" height="1377"/>
  </clipPath>
</defs>
<polyline clip-path="url(#clip222)" style="stroke:#000000; stroke-linecap:butt; stroke-linejoin:round; stroke-width:2; stroke-opacity:0.1; fill:none" points="
  263.091,1423.18 263.091,47.2441 
  "/>
<polyline clip-path="url(#clip222)" style="stroke:#000000; stroke-linecap:butt; stroke-linejoin:round; stroke-width:2; stroke-opacity:0.1; fill:none" points="
  601.445,1423.18 601.445,47.2441 
  "/>
<polyline clip-path="url(#clip222)" style="stroke:#000000; stroke-linecap:butt; stroke-linejoin:round; stroke-width:2; stroke-opacity:0.1; fill:none" points="
  939.799,1423.18 939.799,47.2441 
  "/>
<polyline clip-path="url(#clip222)" style="stroke:#000000; stroke-linecap:butt; stroke-linejoin:round; stroke-width:2; stroke-opacity:0.1; fill:none" points="
  1278.15,1423.18 1278.15,47.2441 
  "/>
<polyline clip-path="url(#clip222)" style="stroke:#000000; stroke-linecap:butt; stroke-linejoin:round; stroke-width:2; stroke-opacity:0.1; fill:none" points="
  1616.51,1423.18 1616.51,47.2441 
  "/>
<polyline clip-path="url(#clip222)" style="stroke:#000000; stroke-linecap:butt; stroke-linejoin:round; stroke-width:2; stroke-opacity:0.1; fill:none" points="
  1954.86,1423.18 1954.86,47.2441 
  "/>
<polyline clip-path="url(#clip222)" style="stroke:#000000; stroke-linecap:butt; stroke-linejoin:round; stroke-width:2; stroke-opacity:0.1; fill:none" points="
  2293.21,1423.18 2293.21,47.2441 
  "/>
<polyline clip-path="url(#clip220)" style="stroke:#000000; stroke-linecap:butt; stroke-linejoin:round; stroke-width:4; stroke-opacity:1; fill:none" points="
  202.227,1423.18 2352.76,1423.18 
  "/>
<polyline clip-path="url(#clip220)" style="stroke:#000000; stroke-linecap:butt; stroke-linejoin:round; stroke-width:4; stroke-opacity:1; fill:none" points="
  202.227,47.2441 2352.76,47.2441 
  "/>
<polyline clip-path="url(#clip220)" style="stroke:#000000; stroke-linecap:butt; stroke-linejoin:round; stroke-width:4; stroke-opacity:1; fill:none" points="
  263.091,1423.18 263.091,1404.28 
  "/>
<polyline clip-path="url(#clip220)" style="stroke:#000000; stroke-linecap:butt; stroke-linejoin:round; stroke-width:4; stroke-opacity:1; fill:none" points="
  601.445,1423.18 601.445,1404.28 
  "/>
<polyline clip-path="url(#clip220)" style="stroke:#000000; stroke-linecap:butt; stroke-linejoin:round; stroke-width:4; stroke-opacity:1; fill:none" points="
  939.799,1423.18 939.799,1404.28 
  "/>
<polyline clip-path="url(#clip220)" style="stroke:#000000; stroke-linecap:butt; stroke-linejoin:round; stroke-width:4; stroke-opacity:1; fill:none" points="
  1278.15,1423.18 1278.15,1404.28 
  "/>
<polyline clip-path="url(#clip220)" style="stroke:#000000; stroke-linecap:butt; stroke-linejoin:round; stroke-width:4; stroke-opacity:1; fill:none" points="
  1616.51,1423.18 1616.51,1404.28 
  "/>
<polyline clip-path="url(#clip220)" style="stroke:#000000; stroke-linecap:butt; stroke-linejoin:round; stroke-width:4; stroke-opacity:1; fill:none" points="
  1954.86,1423.18 1954.86,1404.28 
  "/>
<polyline clip-path="url(#clip220)" style="stroke:#000000; stroke-linecap:butt; stroke-linejoin:round; stroke-width:4; stroke-opacity:1; fill:none" points="
  2293.21,1423.18 2293.21,1404.28 
  "/>
<path clip-path="url(#clip220)" d="M263.091 1454.1 Q259.48 1454.1 257.652 1457.66 Q255.846 1461.2 255.846 1468.33 Q255.846 1475.44 257.652 1479.01 Q259.48 1482.55 263.091 1482.55 Q266.726 1482.55 268.531 1479.01 Q270.36 1475.44 270.36 1468.33 Q270.36 1461.2 268.531 1457.66 Q266.726 1454.1 263.091 1454.1 M263.091 1450.39 Q268.902 1450.39 271.957 1455 Q275.036 1459.58 275.036 1468.33 Q275.036 1477.06 271.957 1481.67 Q268.902 1486.25 263.091 1486.25 Q257.281 1486.25 254.203 1481.67 Q251.147 1477.06 251.147 1468.33 Q251.147 1459.58 254.203 1455 Q257.281 1450.39 263.091 1450.39 Z" fill="#000000" fill-rule="evenodd" fill-opacity="1" /><path clip-path="url(#clip220)" d="M576.133 1481.64 L583.772 1481.64 L583.772 1455.28 L575.462 1456.95 L575.462 1452.69 L583.725 1451.02 L588.401 1451.02 L588.401 1481.64 L596.04 1481.64 L596.04 1485.58 L576.133 1485.58 L576.133 1481.64 Z" fill="#000000" fill-rule="evenodd" fill-opacity="1" /><path clip-path="url(#clip220)" d="M615.484 1454.1 Q611.873 1454.1 610.045 1457.66 Q608.239 1461.2 608.239 1468.33 Q608.239 1475.44 610.045 1479.01 Q611.873 1482.55 615.484 1482.55 Q619.119 1482.55 620.924 1479.01 Q622.753 1475.44 622.753 1468.33 Q622.753 1461.2 620.924 1457.66 Q619.119 1454.1 615.484 1454.1 M615.484 1450.39 Q621.295 1450.39 624.35 1455 Q627.429 1459.58 627.429 1468.33 Q627.429 1477.06 624.35 1481.67 Q621.295 1486.25 615.484 1486.25 Q609.674 1486.25 606.596 1481.67 Q603.54 1477.06 603.54 1468.33 Q603.54 1459.58 606.596 1455 Q609.674 1450.39 615.484 1450.39 Z" fill="#000000" fill-rule="evenodd" fill-opacity="1" /><path clip-path="url(#clip220)" d="M918.572 1481.64 L934.891 1481.64 L934.891 1485.58 L912.947 1485.58 L912.947 1481.64 Q915.609 1478.89 920.192 1474.26 Q924.799 1469.61 925.979 1468.27 Q928.225 1465.74 929.104 1464.01 Q930.007 1462.25 930.007 1460.56 Q930.007 1457.8 928.063 1456.07 Q926.142 1454.33 923.04 1454.33 Q920.841 1454.33 918.387 1455.09 Q915.956 1455.86 913.179 1457.41 L913.179 1452.69 Q916.003 1451.55 918.456 1450.97 Q920.91 1450.39 922.947 1450.39 Q928.317 1450.39 931.512 1453.08 Q934.706 1455.77 934.706 1460.26 Q934.706 1462.39 933.896 1464.31 Q933.109 1466.2 931.003 1468.8 Q930.424 1469.47 927.322 1472.69 Q924.22 1475.88 918.572 1481.64 Z" fill="#000000" fill-rule="evenodd" fill-opacity="1" /><path clip-path="url(#clip220)" d="M954.706 1454.1 Q951.095 1454.1 949.266 1457.66 Q947.461 1461.2 947.461 1468.33 Q947.461 1475.44 949.266 1479.01 Q951.095 1482.55 954.706 1482.55 Q958.34 1482.55 960.146 1479.01 Q961.975 1475.44 961.975 1468.33 Q961.975 1461.2 960.146 1457.66 Q958.34 1454.1 954.706 1454.1 M954.706 1450.39 Q960.516 1450.39 963.572 1455 Q966.651 1459.58 966.651 1468.33 Q966.651 1477.06 963.572 1481.67 Q960.516 1486.25 954.706 1486.25 Q948.896 1486.25 945.817 1481.67 Q942.762 1477.06 942.762 1468.33 Q942.762 1459.58 945.817 1455 Q948.896 1450.39 954.706 1450.39 Z" fill="#000000" fill-rule="evenodd" fill-opacity="1" /><path clip-path="url(#clip220)" d="M1267 1466.95 Q1270.35 1467.66 1272.23 1469.93 Q1274.12 1472.2 1274.12 1475.53 Q1274.12 1480.65 1270.61 1483.45 Q1267.09 1486.25 1260.61 1486.25 Q1258.43 1486.25 1256.12 1485.81 Q1253.82 1485.39 1251.37 1484.54 L1251.37 1480.02 Q1253.31 1481.16 1255.63 1481.74 Q1257.94 1482.32 1260.47 1482.32 Q1264.87 1482.32 1267.16 1480.58 Q1269.47 1478.84 1269.47 1475.53 Q1269.47 1472.48 1267.32 1470.77 Q1265.19 1469.03 1261.37 1469.03 L1257.34 1469.03 L1257.34 1465.19 L1261.56 1465.19 Q1265 1465.19 1266.83 1463.82 Q1268.66 1462.43 1268.66 1459.84 Q1268.66 1457.18 1266.76 1455.77 Q1264.89 1454.33 1261.37 1454.33 Q1259.45 1454.33 1257.25 1454.75 Q1255.05 1455.16 1252.41 1456.04 L1252.41 1451.88 Q1255.07 1451.14 1257.39 1450.77 Q1259.73 1450.39 1261.79 1450.39 Q1267.11 1450.39 1270.21 1452.83 Q1273.31 1455.23 1273.31 1459.35 Q1273.31 1462.22 1271.67 1464.21 Q1270.03 1466.18 1267 1466.95 Z" fill="#000000" fill-rule="evenodd" fill-opacity="1" /><path clip-path="url(#clip220)" d="M1292.99 1454.1 Q1289.38 1454.1 1287.55 1457.66 Q1285.75 1461.2 1285.75 1468.33 Q1285.75 1475.44 1287.55 1479.01 Q1289.38 1482.55 1292.99 1482.55 Q1296.62 1482.55 1298.43 1479.01 Q1300.26 1475.44 1300.26 1468.33 Q1300.26 1461.2 1298.43 1457.66 Q1296.62 1454.1 1292.99 1454.1 M1292.99 1450.39 Q1298.8 1450.39 1301.86 1455 Q1304.93 1459.58 1304.93 1468.33 Q1304.93 1477.06 1301.86 1481.67 Q1298.8 1486.25 1292.99 1486.25 Q1287.18 1486.25 1284.1 1481.67 Q1281.05 1477.06 1281.05 1468.33 Q1281.05 1459.58 1284.1 1455 Q1287.18 1450.39 1292.99 1450.39 Z" fill="#000000" fill-rule="evenodd" fill-opacity="1" /><path clip-path="url(#clip220)" d="M1604.68 1455.09 L1592.87 1473.54 L1604.68 1473.54 L1604.68 1455.09 M1603.45 1451.02 L1609.33 1451.02 L1609.33 1473.54 L1614.26 1473.54 L1614.26 1477.43 L1609.33 1477.43 L1609.33 1485.58 L1604.68 1485.58 L1604.68 1477.43 L1589.08 1477.43 L1589.08 1472.92 L1603.45 1451.02 Z" fill="#000000" fill-rule="evenodd" fill-opacity="1" /><path clip-path="url(#clip220)" d="M1631.99 1454.1 Q1628.38 1454.1 1626.55 1457.66 Q1624.75 1461.2 1624.75 1468.33 Q1624.75 1475.44 1626.55 1479.01 Q1628.38 1482.55 1631.99 1482.55 Q1635.63 1482.55 1637.43 1479.01 Q1639.26 1475.44 1639.26 1468.33 Q1639.26 1461.2 1637.43 1457.66 Q1635.63 1454.1 1631.99 1454.1 M1631.99 1450.39 Q1637.8 1450.39 1640.86 1455 Q1643.94 1459.58 1643.94 1468.33 Q1643.94 1477.06 1640.86 1481.67 Q1637.8 1486.25 1631.99 1486.25 Q1626.18 1486.25 1623.1 1481.67 Q1620.05 1477.06 1620.05 1468.33 Q1620.05 1459.58 1623.1 1455 Q1626.18 1450.39 1631.99 1450.39 Z" fill="#000000" fill-rule="evenodd" fill-opacity="1" /><path clip-path="url(#clip220)" d="M1929.56 1451.02 L1947.92 1451.02 L1947.92 1454.96 L1933.84 1454.96 L1933.84 1463.43 Q1934.86 1463.08 1935.88 1462.92 Q1936.9 1462.73 1937.92 1462.73 Q1943.7 1462.73 1947.08 1465.9 Q1950.46 1469.08 1950.46 1474.49 Q1950.46 1480.07 1946.99 1483.17 Q1943.52 1486.25 1937.2 1486.25 Q1935.02 1486.25 1932.75 1485.88 Q1930.51 1485.51 1928.1 1484.77 L1928.1 1480.07 Q1930.18 1481.2 1932.41 1481.76 Q1934.63 1482.32 1937.11 1482.32 Q1941.11 1482.32 1943.45 1480.21 Q1945.79 1478.1 1945.79 1474.49 Q1945.79 1470.88 1943.45 1468.77 Q1941.11 1466.67 1937.11 1466.67 Q1935.23 1466.67 1933.36 1467.08 Q1931.5 1467.5 1929.56 1468.38 L1929.56 1451.02 Z" fill="#000000" fill-rule="evenodd" fill-opacity="1" /><path clip-path="url(#clip220)" d="M1969.67 1454.1 Q1966.06 1454.1 1964.23 1457.66 Q1962.43 1461.2 1962.43 1468.33 Q1962.43 1475.44 1964.23 1479.01 Q1966.06 1482.55 1969.67 1482.55 Q1973.31 1482.55 1975.11 1479.01 Q1976.94 1475.44 1976.94 1468.33 Q1976.94 1461.2 1975.11 1457.66 Q1973.31 1454.1 1969.67 1454.1 M1969.67 1450.39 Q1975.48 1450.39 1978.54 1455 Q1981.62 1459.58 1981.62 1468.33 Q1981.62 1477.06 1978.54 1481.67 Q1975.48 1486.25 1969.67 1486.25 Q1963.86 1486.25 1960.79 1481.67 Q1957.73 1477.06 1957.73 1468.33 Q1957.73 1459.58 1960.79 1455 Q1963.86 1450.39 1969.67 1450.39 Z" fill="#000000" fill-rule="evenodd" fill-opacity="1" /><path clip-path="url(#clip220)" d="M2278.62 1466.44 Q2275.47 1466.44 2273.62 1468.59 Q2271.79 1470.74 2271.79 1474.49 Q2271.79 1478.22 2273.62 1480.39 Q2275.47 1482.55 2278.62 1482.55 Q2281.77 1482.55 2283.6 1480.39 Q2285.45 1478.22 2285.45 1474.49 Q2285.45 1470.74 2283.6 1468.59 Q2281.77 1466.44 2278.62 1466.44 M2287.9 1451.78 L2287.9 1456.04 Q2286.14 1455.21 2284.34 1454.77 Q2282.55 1454.33 2280.79 1454.33 Q2276.17 1454.33 2273.71 1457.45 Q2271.28 1460.58 2270.93 1466.9 Q2272.3 1464.89 2274.36 1463.82 Q2276.42 1462.73 2278.9 1462.73 Q2284.1 1462.73 2287.11 1465.9 Q2290.15 1469.05 2290.15 1474.49 Q2290.15 1479.82 2287 1483.03 Q2283.85 1486.25 2278.62 1486.25 Q2272.62 1486.25 2269.45 1481.67 Q2266.28 1477.06 2266.28 1468.33 Q2266.28 1460.14 2270.17 1455.28 Q2274.06 1450.39 2280.61 1450.39 Q2282.37 1450.39 2284.15 1450.74 Q2285.96 1451.09 2287.9 1451.78 Z" fill="#000000" fill-rule="evenodd" fill-opacity="1" /><path clip-path="url(#clip220)" d="M2308.2 1454.1 Q2304.59 1454.1 2302.76 1457.66 Q2300.96 1461.2 2300.96 1468.33 Q2300.96 1475.44 2302.76 1479.01 Q2304.59 1482.55 2308.2 1482.55 Q2311.84 1482.55 2313.64 1479.01 Q2315.47 1475.44 2315.47 1468.33 Q2315.47 1461.2 2313.64 1457.66 Q2311.84 1454.1 2308.2 1454.1 M2308.2 1450.39 Q2314.01 1450.39 2317.07 1455 Q2320.15 1459.58 2320.15 1468.33 Q2320.15 1477.06 2317.07 1481.67 Q2314.01 1486.25 2308.2 1486.25 Q2302.39 1486.25 2299.31 1481.67 Q2296.26 1477.06 2296.26 1468.33 Q2296.26 1459.58 2299.31 1455 Q2302.39 1450.39 2308.2 1450.39 Z" fill="#000000" fill-rule="evenodd" fill-opacity="1" /><path clip-path="url(#clip220)" d="M1199.37 1520.52 L1239.57 1520.52 L1239.57 1525.93 L1222.7 1525.93 L1222.7 1568.04 L1216.24 1568.04 L1216.24 1525.93 L1199.37 1525.93 L1199.37 1520.52 Z" fill="#000000" fill-rule="evenodd" fill-opacity="1" /><path clip-path="url(#clip220)" d="M1243.51 1532.4 L1249.37 1532.4 L1249.37 1568.04 L1243.51 1568.04 L1243.51 1532.4 M1243.51 1518.52 L1249.37 1518.52 L1249.37 1525.93 L1243.51 1525.93 L1243.51 1518.52 Z" fill="#000000" fill-rule="evenodd" fill-opacity="1" /><path clip-path="url(#clip220)" d="M1289.38 1539.24 Q1291.58 1535.29 1294.63 1533.41 Q1297.69 1531.54 1301.82 1531.54 Q1307.39 1531.54 1310.42 1535.45 Q1313.44 1539.33 1313.44 1546.53 L1313.44 1568.04 L1307.55 1568.04 L1307.55 1546.72 Q1307.55 1541.59 1305.74 1539.11 Q1303.93 1536.63 1300.2 1536.63 Q1295.65 1536.63 1293.01 1539.65 Q1290.37 1542.68 1290.37 1547.9 L1290.37 1568.04 L1284.48 1568.04 L1284.48 1546.72 Q1284.48 1541.56 1282.66 1539.11 Q1280.85 1536.63 1277.06 1536.63 Q1272.57 1536.63 1269.93 1539.68 Q1267.29 1542.71 1267.29 1547.9 L1267.29 1568.04 L1261.4 1568.04 L1261.4 1532.4 L1267.29 1532.4 L1267.29 1537.93 Q1269.3 1534.66 1272.1 1533.1 Q1274.9 1531.54 1278.75 1531.54 Q1282.63 1531.54 1285.34 1533.51 Q1288.07 1535.48 1289.38 1539.24 Z" fill="#000000" fill-rule="evenodd" fill-opacity="1" /><path clip-path="url(#clip220)" d="M1355.61 1548.76 L1355.61 1551.62 L1328.69 1551.62 Q1329.07 1557.67 1332.32 1560.85 Q1335.59 1564 1341.42 1564 Q1344.79 1564 1347.94 1563.17 Q1351.13 1562.35 1354.25 1560.69 L1354.25 1566.23 Q1351.1 1567.57 1347.79 1568.27 Q1344.47 1568.97 1341.07 1568.97 Q1332.54 1568.97 1327.54 1564 Q1322.58 1559.04 1322.58 1550.57 Q1322.58 1541.82 1327.29 1536.69 Q1332.03 1531.54 1340.05 1531.54 Q1347.24 1531.54 1351.41 1536.18 Q1355.61 1540.8 1355.61 1548.76 M1349.76 1547.04 Q1349.69 1542.23 1347.05 1539.37 Q1344.44 1536.5 1340.11 1536.5 Q1335.21 1536.5 1332.25 1539.27 Q1329.32 1542.04 1328.88 1547.07 L1349.76 1547.04 Z" fill="#000000" fill-rule="evenodd" fill-opacity="1" /><polyline clip-path="url(#clip222)" style="stroke:#000000; stroke-linecap:butt; stroke-linejoin:round; stroke-width:2; stroke-opacity:0.1; fill:none" points="
  202.227,1384.24 2352.76,1384.24 
  "/>
<polyline clip-path="url(#clip222)" style="stroke:#000000; stroke-linecap:butt; stroke-linejoin:round; stroke-width:2; stroke-opacity:0.1; fill:none" points="
  202.227,1189.61 2352.76,1189.61 
  "/>
<polyline clip-path="url(#clip222)" style="stroke:#000000; stroke-linecap:butt; stroke-linejoin:round; stroke-width:2; stroke-opacity:0.1; fill:none" points="
  202.227,994.973 2352.76,994.973 
  "/>
<polyline clip-path="url(#clip222)" style="stroke:#000000; stroke-linecap:butt; stroke-linejoin:round; stroke-width:2; stroke-opacity:0.1; fill:none" points="
  202.227,800.338 2352.76,800.338 
  "/>
<polyline clip-path="url(#clip222)" style="stroke:#000000; stroke-linecap:butt; stroke-linejoin:round; stroke-width:2; stroke-opacity:0.1; fill:none" points="
  202.227,605.703 2352.76,605.703 
  "/>
<polyline clip-path="url(#clip222)" style="stroke:#000000; stroke-linecap:butt; stroke-linejoin:round; stroke-width:2; stroke-opacity:0.1; fill:none" points="
  202.227,411.068 2352.76,411.068 
  "/>
<polyline clip-path="url(#clip222)" style="stroke:#000000; stroke-linecap:butt; stroke-linejoin:round; stroke-width:2; stroke-opacity:0.1; fill:none" points="
  202.227,216.434 2352.76,216.434 
  "/>
<polyline clip-path="url(#clip220)" style="stroke:#000000; stroke-linecap:butt; stroke-linejoin:round; stroke-width:4; stroke-opacity:1; fill:none" points="
  202.227,1423.18 202.227,47.2441 
  "/>
<polyline clip-path="url(#clip220)" style="stroke:#000000; stroke-linecap:butt; stroke-linejoin:round; stroke-width:4; stroke-opacity:1; fill:none" points="
  2352.76,1423.18 2352.76,47.2441 
  "/>
<polyline clip-path="url(#clip220)" style="stroke:#000000; stroke-linecap:butt; stroke-linejoin:round; stroke-width:4; stroke-opacity:1; fill:none" points="
  202.227,1384.24 221.125,1384.24 
  "/>
<polyline clip-path="url(#clip220)" style="stroke:#000000; stroke-linecap:butt; stroke-linejoin:round; stroke-width:4; stroke-opacity:1; fill:none" points="
  202.227,1189.61 221.125,1189.61 
  "/>
<polyline clip-path="url(#clip220)" style="stroke:#000000; stroke-linecap:butt; stroke-linejoin:round; stroke-width:4; stroke-opacity:1; fill:none" points="
  202.227,994.973 221.125,994.973 
  "/>
<polyline clip-path="url(#clip220)" style="stroke:#000000; stroke-linecap:butt; stroke-linejoin:round; stroke-width:4; stroke-opacity:1; fill:none" points="
  202.227,800.338 221.125,800.338 
  "/>
<polyline clip-path="url(#clip220)" style="stroke:#000000; stroke-linecap:butt; stroke-linejoin:round; stroke-width:4; stroke-opacity:1; fill:none" points="
  202.227,605.703 221.125,605.703 
  "/>
<polyline clip-path="url(#clip220)" style="stroke:#000000; stroke-linecap:butt; stroke-linejoin:round; stroke-width:4; stroke-opacity:1; fill:none" points="
  202.227,411.068 221.125,411.068 
  "/>
<polyline clip-path="url(#clip220)" style="stroke:#000000; stroke-linecap:butt; stroke-linejoin:round; stroke-width:4; stroke-opacity:1; fill:none" points="
  202.227,216.434 221.125,216.434 
  "/>
<path clip-path="url(#clip220)" d="M154.283 1370.04 Q150.672 1370.04 148.843 1373.61 Q147.038 1377.15 147.038 1384.28 Q147.038 1391.38 148.843 1394.95 Q150.672 1398.49 154.283 1398.49 Q157.917 1398.49 159.723 1394.95 Q161.552 1391.38 161.552 1384.28 Q161.552 1377.15 159.723 1373.61 Q157.917 1370.04 154.283 1370.04 M154.283 1366.34 Q160.093 1366.34 163.149 1370.94 Q166.227 1375.53 166.227 1384.28 Q166.227 1393 163.149 1397.61 Q160.093 1402.19 154.283 1402.19 Q148.473 1402.19 145.394 1397.61 Q142.339 1393 142.339 1384.28 Q142.339 1375.53 145.394 1370.94 Q148.473 1366.34 154.283 1366.34 Z" fill="#000000" fill-rule="evenodd" fill-opacity="1" /><path clip-path="url(#clip220)" d="M149.908 1202.95 L166.227 1202.95 L166.227 1206.89 L144.283 1206.89 L144.283 1202.95 Q146.945 1200.2 151.528 1195.57 Q156.135 1190.92 157.315 1189.57 Q159.561 1187.05 160.44 1185.31 Q161.343 1183.55 161.343 1181.86 Q161.343 1179.11 159.399 1177.37 Q157.478 1175.64 154.376 1175.64 Q152.177 1175.64 149.723 1176.4 Q147.292 1177.17 144.515 1178.72 L144.515 1173.99 Q147.339 1172.86 149.792 1172.28 Q152.246 1171.7 154.283 1171.7 Q159.653 1171.7 162.848 1174.39 Q166.042 1177.07 166.042 1181.56 Q166.042 1183.69 165.232 1185.61 Q164.445 1187.51 162.339 1190.11 Q161.76 1190.78 158.658 1193.99 Q155.556 1197.19 149.908 1202.95 Z" fill="#000000" fill-rule="evenodd" fill-opacity="1" /><path clip-path="url(#clip220)" d="M156.644 981.767 L144.839 1000.22 L156.644 1000.22 L156.644 981.767 M155.417 977.693 L161.297 977.693 L161.297 1000.22 L166.227 1000.22 L166.227 1004.1 L161.297 1004.1 L161.297 1012.25 L156.644 1012.25 L156.644 1004.1 L141.042 1004.1 L141.042 999.591 L155.417 977.693 Z" fill="#000000" fill-rule="evenodd" fill-opacity="1" /><path clip-path="url(#clip220)" d="M154.7 798.474 Q151.552 798.474 149.7 800.627 Q147.871 802.78 147.871 806.53 Q147.871 810.257 149.7 812.433 Q151.552 814.585 154.7 814.585 Q157.848 814.585 159.677 812.433 Q161.528 810.257 161.528 806.53 Q161.528 802.78 159.677 800.627 Q157.848 798.474 154.7 798.474 M163.982 783.822 L163.982 788.081 Q162.223 787.248 160.417 786.808 Q158.635 786.368 156.876 786.368 Q152.246 786.368 149.792 789.493 Q147.362 792.618 147.015 798.937 Q148.38 796.924 150.441 795.859 Q152.501 794.771 154.978 794.771 Q160.186 794.771 163.195 797.942 Q166.227 801.09 166.227 806.53 Q166.227 811.854 163.079 815.072 Q159.931 818.289 154.7 818.289 Q148.704 818.289 145.533 813.706 Q142.362 809.099 142.362 800.373 Q142.362 792.178 146.251 787.317 Q150.14 782.433 156.69 782.433 Q158.45 782.433 160.232 782.78 Q162.038 783.127 163.982 783.822 Z" fill="#000000" fill-rule="evenodd" fill-opacity="1" /><path clip-path="url(#clip220)" d="M154.376 606.571 Q151.042 606.571 149.121 608.354 Q147.223 610.136 147.223 613.261 Q147.223 616.386 149.121 618.168 Q151.042 619.951 154.376 619.951 Q157.709 619.951 159.63 618.168 Q161.552 616.363 161.552 613.261 Q161.552 610.136 159.63 608.354 Q157.732 606.571 154.376 606.571 M149.7 604.58 Q146.691 603.84 145.001 601.78 Q143.334 599.719 143.334 596.756 Q143.334 592.613 146.274 590.206 Q149.237 587.798 154.376 587.798 Q159.538 587.798 162.477 590.206 Q165.417 592.613 165.417 596.756 Q165.417 599.719 163.727 601.78 Q162.061 603.84 159.075 604.58 Q162.454 605.368 164.329 607.659 Q166.227 609.951 166.227 613.261 Q166.227 618.284 163.149 620.969 Q160.093 623.654 154.376 623.654 Q148.658 623.654 145.579 620.969 Q142.524 618.284 142.524 613.261 Q142.524 609.951 144.422 607.659 Q146.32 605.368 149.7 604.58 M147.987 597.196 Q147.987 599.881 149.653 601.386 Q151.343 602.891 154.376 602.891 Q157.385 602.891 159.075 601.386 Q160.788 599.881 160.788 597.196 Q160.788 594.511 159.075 593.006 Q157.385 591.502 154.376 591.502 Q151.343 591.502 149.653 593.006 Q147.987 594.511 147.987 597.196 Z" fill="#000000" fill-rule="evenodd" fill-opacity="1" /><path clip-path="url(#clip220)" d="M114.931 424.413 L122.57 424.413 L122.57 398.048 L114.26 399.714 L114.26 395.455 L122.524 393.788 L127.2 393.788 L127.2 424.413 L134.839 424.413 L134.839 428.348 L114.931 428.348 L114.931 424.413 Z" fill="#000000" fill-rule="evenodd" fill-opacity="1" /><path clip-path="url(#clip220)" d="M154.283 396.867 Q150.672 396.867 148.843 400.432 Q147.038 403.974 147.038 411.103 Q147.038 418.21 148.843 421.774 Q150.672 425.316 154.283 425.316 Q157.917 425.316 159.723 421.774 Q161.552 418.21 161.552 411.103 Q161.552 403.974 159.723 400.432 Q157.917 396.867 154.283 396.867 M154.283 393.163 Q160.093 393.163 163.149 397.77 Q166.227 402.353 166.227 411.103 Q166.227 419.83 163.149 424.436 Q160.093 429.02 154.283 429.02 Q148.473 429.02 145.394 424.436 Q142.339 419.83 142.339 411.103 Q142.339 402.353 145.394 397.77 Q148.473 393.163 154.283 393.163 Z" fill="#000000" fill-rule="evenodd" fill-opacity="1" /><path clip-path="url(#clip220)" d="M116.529 229.779 L124.168 229.779 L124.168 203.413 L115.857 205.08 L115.857 200.82 L124.121 199.154 L128.797 199.154 L128.797 229.779 L136.436 229.779 L136.436 233.714 L116.529 233.714 L116.529 229.779 Z" fill="#000000" fill-rule="evenodd" fill-opacity="1" /><path clip-path="url(#clip220)" d="M149.908 229.779 L166.227 229.779 L166.227 233.714 L144.283 233.714 L144.283 229.779 Q146.945 227.024 151.528 222.394 Q156.135 217.742 157.315 216.399 Q159.561 213.876 160.44 212.14 Q161.343 210.38 161.343 208.691 Q161.343 205.936 159.399 204.2 Q157.478 202.464 154.376 202.464 Q152.177 202.464 149.723 203.228 Q147.292 203.992 144.515 205.543 L144.515 200.82 Q147.339 199.686 149.792 199.107 Q152.246 198.529 154.283 198.529 Q159.653 198.529 162.848 201.214 Q166.042 203.899 166.042 208.39 Q166.042 210.519 165.232 212.441 Q164.445 214.339 162.339 216.931 Q161.76 217.603 158.658 220.82 Q155.556 224.015 149.908 229.779 Z" fill="#000000" fill-rule="evenodd" fill-opacity="1" /><path clip-path="url(#clip220)" d="M22.818 1069.05 L46.4666 1077.77 L46.4666 1060.29 L22.818 1069.05 M16.4842 1072.67 L16.4842 1065.39 L64.0042 1047.27 L64.0042 1053.96 L51.8138 1058.29 L51.8138 1079.71 L64.0042 1084.04 L64.0042 1090.82 L16.4842 1072.67 Z" fill="#000000" fill-rule="evenodd" fill-opacity="1" /><path clip-path="url(#clip220)" d="M46.212 1015 Q39.7508 1015 36.0905 1017.67 Q32.3984 1020.32 32.3984 1024.96 Q32.3984 1029.61 36.0905 1032.28 Q39.7508 1034.93 46.212 1034.93 Q52.6732 1034.93 56.3653 1032.28 Q60.0256 1029.61 60.0256 1024.96 Q60.0256 1020.32 56.3653 1017.67 Q52.6732 1015 46.212 1015 M33.7671 1034.93 Q30.5842 1033.08 29.0564 1030.28 Q27.4968 1027.45 27.4968 1023.53 Q27.4968 1017.04 32.6531 1013 Q37.8093 1008.92 46.212 1008.92 Q54.6147 1008.92 59.771 1013 Q64.9272 1017.04 64.9272 1023.53 Q64.9272 1027.45 63.3994 1030.28 Q61.8398 1033.08 58.657 1034.93 L64.0042 1034.93 L64.0042 1040.81 L14.479 1040.81 L14.479 1034.93 L33.7671 1034.93 Z" fill="#000000" fill-rule="evenodd" fill-opacity="1" /><path clip-path="url(#clip220)" d="M49.9359 999.818 L28.3562 999.818 L28.3562 993.962 L49.7131 993.962 Q54.7739 993.962 57.3202 991.989 Q59.8346 990.015 59.8346 986.069 Q59.8346 981.326 56.8109 978.589 Q53.7872 975.82 48.5673 975.82 L28.3562 975.82 L28.3562 969.963 L64.0042 969.963 L64.0042 975.82 L58.5296 975.82 Q61.7762 977.952 63.3676 980.785 Q64.9272 983.586 64.9272 987.31 Q64.9272 993.453 61.1078 996.636 Q57.2883 999.818 49.9359 999.818 M27.4968 985.082 L27.4968 985.082 Z" fill="#000000" fill-rule="evenodd" fill-opacity="1" /><path clip-path="url(#clip220)" d="M42.4881 928.268 L64.0042 928.268 L64.0042 934.124 L42.679 934.124 Q37.6183 934.124 35.1038 936.098 Q32.5894 938.071 32.5894 942.018 Q32.5894 946.76 35.6131 949.498 Q38.6368 952.235 43.8567 952.235 L64.0042 952.235 L64.0042 958.123 L28.3562 958.123 L28.3562 952.235 L33.8944 952.235 Q30.6797 950.134 29.0883 947.301 Q27.4968 944.437 27.4968 940.713 Q27.4968 934.57 31.3163 931.419 Q35.1038 928.268 42.4881 928.268 Z" fill="#000000" fill-rule="evenodd" fill-opacity="1" /><path clip-path="url(#clip220)" d="M33.7671 893.129 L14.479 893.129 L14.479 887.273 L64.0042 887.273 L64.0042 893.129 L58.657 893.129 Q61.8398 894.975 63.3994 897.808 Q64.9272 900.609 64.9272 904.556 Q64.9272 911.017 59.771 915.091 Q54.6147 919.133 46.212 919.133 Q37.8093 919.133 32.6531 915.091 Q27.4968 911.017 27.4968 904.556 Q27.4968 900.609 29.0564 897.808 Q30.5842 894.975 33.7671 893.129 M46.212 913.086 Q52.6732 913.086 56.3653 910.444 Q60.0256 907.77 60.0256 903.123 Q60.0256 898.476 56.3653 895.803 Q52.6732 893.129 46.212 893.129 Q39.7508 893.129 36.0905 895.803 Q32.3984 898.476 32.3984 903.123 Q32.3984 907.77 36.0905 910.444 Q39.7508 913.086 46.212 913.086 Z" fill="#000000" fill-rule="evenodd" fill-opacity="1" /><path clip-path="url(#clip220)" d="M46.0847 859.009 Q46.0847 866.107 47.7079 868.844 Q49.3312 871.581 53.2461 871.581 Q56.3653 871.581 58.2114 869.544 Q60.0256 867.475 60.0256 863.942 Q60.0256 859.073 56.5881 856.144 Q53.1188 853.184 47.3897 853.184 L46.0847 853.184 L46.0847 859.009 M43.6657 847.328 L64.0042 847.328 L64.0042 853.184 L58.5933 853.184 Q61.8398 855.19 63.3994 858.182 Q64.9272 861.173 64.9272 865.502 Q64.9272 870.977 61.8716 874.223 Q58.7843 877.438 53.6281 877.438 Q47.6125 877.438 44.5569 873.427 Q41.5014 869.385 41.5014 861.396 L41.5014 853.184 L40.9285 853.184 Q36.8862 853.184 34.6901 855.858 Q32.4621 858.5 32.4621 863.306 Q32.4621 866.361 33.1941 869.258 Q33.9262 872.154 35.3903 874.828 L29.9795 874.828 Q28.7381 871.613 28.1334 868.589 Q27.4968 865.566 27.4968 862.701 Q27.4968 854.967 31.5072 851.147 Q35.5176 847.328 43.6657 847.328 Z" fill="#000000" fill-rule="evenodd" fill-opacity="1" /><path clip-path="url(#clip220)" d="M42.4881 805.633 L64.0042 805.633 L64.0042 811.489 L42.679 811.489 Q37.6183 811.489 35.1038 813.462 Q32.5894 815.436 32.5894 819.383 Q32.5894 824.125 35.6131 826.862 Q38.6368 829.599 43.8567 829.599 L64.0042 829.599 L64.0042 835.488 L28.3562 835.488 L28.3562 829.599 L33.8944 829.599 Q30.6797 827.499 29.0883 824.666 Q27.4968 821.801 27.4968 818.078 Q27.4968 811.935 31.3163 808.784 Q35.1038 805.633 42.4881 805.633 Z" fill="#000000" fill-rule="evenodd" fill-opacity="1" /><path clip-path="url(#clip220)" d="M29.7248 768.298 L35.1993 768.298 Q33.8307 770.78 33.1623 773.295 Q32.4621 775.777 32.4621 778.324 Q32.4621 784.021 36.0905 787.172 Q39.6872 790.323 46.212 790.323 Q52.7369 790.323 56.3653 787.172 Q59.9619 784.021 59.9619 778.324 Q59.9619 775.777 59.2935 773.295 Q58.5933 770.78 57.2247 768.298 L62.6355 768.298 Q63.7814 770.749 64.3543 773.39 Q64.9272 776 64.9272 778.96 Q64.9272 787.013 59.8664 791.755 Q54.8057 796.498 46.212 796.498 Q37.491 796.498 32.4939 791.724 Q27.4968 786.917 27.4968 778.578 Q27.4968 775.873 28.0697 773.295 Q28.6108 770.717 29.7248 768.298 Z" fill="#000000" fill-rule="evenodd" fill-opacity="1" /><path clip-path="url(#clip220)" d="M44.7161 727.621 L47.5806 727.621 L47.5806 754.548 Q53.6281 754.166 56.8109 750.919 Q59.9619 747.641 59.9619 741.816 Q59.9619 738.443 59.1344 735.292 Q58.3069 732.109 56.6518 728.989 L62.1899 728.989 Q63.5267 732.141 64.227 735.451 Q64.9272 738.761 64.9272 742.167 Q64.9272 750.697 59.9619 755.694 Q54.9967 760.659 46.5303 760.659 Q37.7774 760.659 32.6531 755.948 Q27.4968 751.206 27.4968 743.185 Q27.4968 735.992 32.1438 731.822 Q36.7589 727.621 44.7161 727.621 M42.9973 733.477 Q38.1912 733.541 35.3266 736.183 Q32.4621 738.793 32.4621 743.121 Q32.4621 748.023 35.2312 750.983 Q38.0002 753.911 43.0292 754.357 L42.9973 733.477 Z" fill="#000000" fill-rule="evenodd" fill-opacity="1" /><path clip-path="url(#clip220)" d="M32.4621 683.475 Q32.4621 688.185 36.1542 690.923 Q39.8145 693.66 46.212 693.66 Q52.6095 693.66 56.3017 690.954 Q59.9619 688.217 59.9619 683.475 Q59.9619 678.796 56.2698 676.059 Q52.5777 673.321 46.212 673.321 Q39.8781 673.321 36.186 676.059 Q32.4621 678.796 32.4621 683.475 M27.4968 683.475 Q27.4968 675.836 32.4621 671.475 Q37.4273 667.115 46.212 667.115 Q54.9649 667.115 59.9619 671.475 Q64.9272 675.836 64.9272 683.475 Q64.9272 691.145 59.9619 695.506 Q54.9649 699.835 46.212 699.835 Q37.4273 699.835 32.4621 695.506 Q27.4968 691.145 27.4968 683.475 Z" fill="#000000" fill-rule="evenodd" fill-opacity="1" /><path clip-path="url(#clip220)" d="M14.479 639.36 L19.3487 639.36 L19.3487 644.962 Q19.3487 648.113 20.6219 649.355 Q21.895 650.564 25.2052 650.564 L28.3562 650.564 L28.3562 640.92 L32.9077 640.92 L32.9077 650.564 L64.0042 650.564 L64.0042 656.452 L32.9077 656.452 L32.9077 662.054 L28.3562 662.054 L28.3562 656.452 L25.8736 656.452 Q19.9216 656.452 17.2162 653.683 Q14.479 650.914 14.479 644.899 L14.479 639.36 Z" fill="#000000" fill-rule="evenodd" fill-opacity="1" /><path clip-path="url(#clip220)" d="M29.4065 591.013 L34.9447 591.013 Q33.6716 593.495 33.035 596.169 Q32.3984 598.843 32.3984 601.707 Q32.3984 606.068 33.7352 608.264 Q35.072 610.428 37.7456 610.428 Q39.7826 610.428 40.9603 608.869 Q42.1061 607.309 43.1565 602.598 L43.6021 600.593 Q44.9389 594.355 47.3897 591.745 Q49.8086 589.103 54.1691 589.103 Q59.1344 589.103 62.0308 593.05 Q64.9272 596.965 64.9272 603.84 Q64.9272 606.704 64.3543 609.823 Q63.8132 612.911 62.6992 616.348 L56.6518 616.348 Q58.3387 613.102 59.198 609.951 Q60.0256 606.8 60.0256 603.712 Q60.0256 599.575 58.6251 597.347 Q57.1929 595.119 54.6147 595.119 Q52.2276 595.119 50.9545 596.742 Q49.6813 598.333 48.5037 603.776 L48.0262 605.813 Q46.8804 611.256 44.5251 613.675 Q42.138 616.094 38.0002 616.094 Q32.9713 616.094 30.2341 612.529 Q27.4968 608.964 27.4968 602.407 Q27.4968 599.161 27.9743 596.296 Q28.4517 593.432 29.4065 591.013 Z" fill="#000000" fill-rule="evenodd" fill-opacity="1" /><path clip-path="url(#clip220)" d="M58.657 574.112 L77.5631 574.112 L77.5631 580 L28.3562 580 L28.3562 574.112 L33.7671 574.112 Q30.5842 572.266 29.0564 569.465 Q27.4968 566.632 27.4968 562.717 Q27.4968 556.224 32.6531 552.182 Q37.8093 548.108 46.212 548.108 Q54.6147 548.108 59.771 552.182 Q64.9272 556.224 64.9272 562.717 Q64.9272 566.632 63.3994 569.465 Q61.8398 572.266 58.657 574.112 M46.212 554.187 Q39.7508 554.187 36.0905 556.861 Q32.3984 559.503 32.3984 564.15 Q32.3984 568.796 36.0905 571.47 Q39.7508 574.112 46.212 574.112 Q52.6732 574.112 56.3653 571.47 Q60.0256 568.796 60.0256 564.15 Q60.0256 559.503 56.3653 556.861 Q52.6732 554.187 46.212 554.187 Z" fill="#000000" fill-rule="evenodd" fill-opacity="1" /><path clip-path="url(#clip220)" d="M44.7161 507.908 L47.5806 507.908 L47.5806 534.835 Q53.6281 534.453 56.8109 531.207 Q59.9619 527.929 59.9619 522.104 Q59.9619 518.73 59.1344 515.579 Q58.3069 512.396 56.6518 509.277 L62.1899 509.277 Q63.5267 512.428 64.227 515.738 Q64.9272 519.048 64.9272 522.454 Q64.9272 530.984 59.9619 535.981 Q54.9967 540.947 46.5303 540.947 Q37.7774 540.947 32.6531 536.236 Q27.4968 531.493 27.4968 523.473 Q27.4968 516.279 32.1438 512.11 Q36.7589 507.908 44.7161 507.908 M42.9973 513.765 Q38.1912 513.829 35.3266 516.47 Q32.4621 519.08 32.4621 523.409 Q32.4621 528.311 35.2312 531.271 Q38.0002 534.199 43.0292 534.644 L42.9973 513.765 Z" fill="#000000" fill-rule="evenodd" fill-opacity="1" /><path clip-path="url(#clip220)" d="M29.7248 472.642 L35.1993 472.642 Q33.8307 475.125 33.1623 477.64 Q32.4621 480.122 32.4621 482.668 Q32.4621 488.366 36.0905 491.517 Q39.6872 494.668 46.212 494.668 Q52.7369 494.668 56.3653 491.517 Q59.9619 488.366 59.9619 482.668 Q59.9619 480.122 59.2935 477.64 Q58.5933 475.125 57.2247 472.642 L62.6355 472.642 Q63.7814 475.093 64.3543 477.735 Q64.9272 480.345 64.9272 483.305 Q64.9272 491.358 59.8664 496.1 Q54.8057 500.843 46.212 500.843 Q37.491 500.843 32.4939 496.068 Q27.4968 491.262 27.4968 482.923 Q27.4968 480.218 28.0697 477.64 Q28.6108 475.061 29.7248 472.642 Z" fill="#000000" fill-rule="evenodd" fill-opacity="1" /><path clip-path="url(#clip220)" d="M28.3562 462.457 L28.3562 456.601 L64.0042 456.601 L64.0042 462.457 L28.3562 462.457 M14.479 462.457 L14.479 456.601 L21.895 456.601 L21.895 462.457 L14.479 462.457 Z" fill="#000000" fill-rule="evenodd" fill-opacity="1" /><path clip-path="url(#clip220)" d="M44.7161 413.855 L47.5806 413.855 L47.5806 440.782 Q53.6281 440.4 56.8109 437.154 Q59.9619 433.875 59.9619 428.051 Q59.9619 424.677 59.1344 421.526 Q58.3069 418.343 56.6518 415.224 L62.1899 415.224 Q63.5267 418.375 64.227 421.685 Q64.9272 424.995 64.9272 428.401 Q64.9272 436.931 59.9619 441.928 Q54.9967 446.893 46.5303 446.893 Q37.7774 446.893 32.6531 442.183 Q27.4968 437.44 27.4968 429.419 Q27.4968 422.226 32.1438 418.057 Q36.7589 413.855 44.7161 413.855 M42.9973 419.712 Q38.1912 419.775 35.3266 422.417 Q32.4621 425.027 32.4621 429.356 Q32.4621 434.257 35.2312 437.217 Q38.0002 440.146 43.0292 440.591 L42.9973 419.712 Z" fill="#000000" fill-rule="evenodd" fill-opacity="1" /><path clip-path="url(#clip220)" d="M29.4065 381.517 L34.9447 381.517 Q33.6716 384 33.035 386.674 Q32.3984 389.347 32.3984 392.212 Q32.3984 396.572 33.7352 398.768 Q35.072 400.933 37.7456 400.933 Q39.7826 400.933 40.9603 399.373 Q42.1061 397.814 43.1565 393.103 L43.6021 391.098 Q44.9389 384.859 47.3897 382.249 Q49.8086 379.608 54.1691 379.608 Q59.1344 379.608 62.0308 383.554 Q64.9272 387.469 64.9272 394.344 Q64.9272 397.209 64.3543 400.328 Q63.8132 403.415 62.6992 406.853 L56.6518 406.853 Q58.3387 403.606 59.198 400.455 Q60.0256 397.304 60.0256 394.217 Q60.0256 390.079 58.6251 387.851 Q57.1929 385.623 54.6147 385.623 Q52.2276 385.623 50.9545 387.247 Q49.6813 388.838 48.5037 394.281 L48.0262 396.318 Q46.8804 401.76 44.5251 404.179 Q42.138 406.598 38.0002 406.598 Q32.9713 406.598 30.2341 403.033 Q27.4968 399.469 27.4968 392.912 Q27.4968 389.665 27.9743 386.801 Q28.4517 383.936 29.4065 381.517 Z" fill="#000000" fill-rule="evenodd" fill-opacity="1" /><polyline clip-path="url(#clip222)" style="stroke:#009af9; stroke-linecap:butt; stroke-linejoin:round; stroke-width:12; stroke-opacity:1; fill:none" points="
  263.091,1286.92 266.396,1308.3 269.7,1342.56 273.004,1368.8 276.308,1379.8 279.613,1383.03 282.917,1383.88 286.221,1384.12 289.525,1384.19 292.83,1384.22 
  296.134,1384.23 299.438,1384.23 302.742,1384.24 306.047,1384.24 309.351,1384.24 312.655,1384.24 315.959,1384.24 319.263,1384.24 322.568,1384.24 325.872,1384.24 
  329.176,1384.24 332.48,1384.24 335.785,1384.24 339.089,1384.24 342.393,1384.23 345.697,1384.23 349.002,1384.23 352.306,1384.23 355.61,1384.23 358.914,1384.22 
  362.219,1384.22 365.523,1384.21 368.827,1384.2 372.131,1384.19 375.435,1384.18 378.74,1384.16 382.044,1384.14 385.348,1384.12 388.652,1384.08 391.957,1384.04 
  395.261,1383.98 398.565,1383.9 401.869,1383.81 405.174,1383.68 408.478,1383.52 411.782,1383.31 415.086,1383.04 418.391,1382.68 421.695,1382.22 424.999,1381.62 
  428.303,1380.83 431.607,1379.81 434.912,1378.48 438.216,1376.74 441.52,1374.48 444.824,1371.52 448.129,1367.68 451.433,1362.68 454.737,1356.2 458.041,1347.83 
  461.346,1337.07 464.65,1323.38 467.954,1306.25 471.258,1285.48 474.563,1261.98 477.867,1239.91 481.171,1231.32 484.475,1257.28 487.779,1314.32 491.084,1357.06 
  494.388,1374.44 497.692,1380.3 500.996,1382.37 504.301,1383.2 507.605,1383.56 510.909,1383.74 514.213,1383.84 517.518,1383.88 520.822,1383.9 524.126,1383.91 
  527.43,1383.89 530.735,1383.87 534.039,1383.83 537.343,1383.78 540.647,1383.7 543.951,1383.61 547.256,1383.49 550.56,1383.34 553.864,1383.15 557.168,1382.91 
  560.473,1382.59 563.777,1382.2 567.081,1381.69 570.385,1381.04 573.69,1380.21 576.994,1379.15 580.298,1377.79 583.602,1376.04 586.907,1373.8 590.211,1370.93 
  593.515,1367.26 596.819,1362.55 600.123,1356.55 603.428,1348.94 606.732,1339.34 610.036,1327.39 613.34,1312.8 616.645,1295.62 619.949,1276.78 623.253,1259.34 
  626.557,1250.45 629.862,1261.2 633.166,1294.71 636.47,1332.45 639.774,1357.15 643.079,1369.58 646.383,1375.46 649.687,1378.32 652.991,1379.8 656.295,1380.57 
  659.6,1380.97 662.904,1381.13 666.208,1381.12 669.512,1380.98 672.817,1380.73 676.121,1380.34 679.425,1379.81 682.729,1379.12 686.034,1378.23 689.338,1377.09 
  692.642,1375.66 695.946,1373.84 699.251,1371.56 702.555,1368.69 705.859,1365.1 709.163,1360.61 712.467,1355.03 715.772,1348.15 719.076,1339.76 722.38,1329.69 
  725.684,1317.94 728.989,1304.89 732.293,1291.63 735.597,1280.6 738.901,1276.05 742.206,1282.87 745.51,1301.94 748.814,1326.14 752.118,1346.45 755.423,1359.76 
  758.727,1367.56 762.031,1371.98 765.335,1374.47 768.639,1375.87 771.944,1376.58 775.248,1376.85 778.552,1376.78 781.856,1376.42 785.161,1375.79 788.465,1374.89 
  791.769,1373.67 795.073,1372.1 798.378,1370.11 801.682,1367.62 804.986,1364.53 808.29,1360.72 811.595,1356.07 814.899,1350.43 818.203,1343.69 821.507,1335.79 
  824.811,1326.78 828.116,1316.97 831.42,1307.08 834.724,1298.54 838.028,1293.6 841.333,1294.93 844.637,1304 847.941,1319.04 851.245,1335.37 854.55,1348.97 
  857.854,1358.58 861.158,1364.8 864.462,1368.65 867.767,1370.97 871.071,1372.29 874.375,1372.92 877.679,1373.03 880.983,1372.73 884.288,1372.06 887.592,1371.02 
  890.896,1369.58 894.2,1367.71 897.505,1365.35 900.809,1362.43 904.113,1358.86 907.417,1354.55 910.722,1349.42 914.026,1343.41 917.33,1336.54 920.634,1328.95 
  923.939,1320.98 927.243,1313.33 930.547,1307.14 933.851,1304 937.155,1305.52 940.46,1312.35 943.764,1323.32 947.068,1335.64 950.372,1346.67 953.677,1355.17 
  956.981,1361.13 960.285,1365.09 963.589,1367.59 966.894,1369.07 970.198,1369.79 973.502,1369.94 976.806,1369.61 980.111,1368.85 983.415,1367.65 986.719,1366.02 
  990.023,1363.91 993.327,1361.28 996.632,1358.06 999.936,1354.2 1003.24,1349.64 1006.54,1344.38 1009.85,1338.43 1013.15,1331.97 1016.46,1325.3 1019.76,1318.98 
  1023.07,1313.89 1026.37,1311.16 1029.67,1311.89 1032.98,1316.6 1036.28,1324.67 1039.59,1334.38 1042.89,1343.79 1046.2,1351.63 1049.5,1357.55 1052.8,1361.72 
  1056.11,1364.49 1059.41,1366.21 1062.72,1367.14 1066.02,1367.42 1069.32,1367.18 1072.63,1366.47 1075.93,1365.3 1079.24,1363.67 1082.54,1361.56 1085.85,1358.94 
  1089.15,1355.76 1092.45,1351.98 1095.76,1347.61 1099.06,1342.65 1102.37,1337.2 1105.67,1331.47 1108.98,1325.83 1112.28,1320.84 1115.58,1317.29 1118.89,1316.05 
  1122.19,1317.8 1125.5,1322.62 1128.8,1329.75 1132.11,1337.84 1135.41,1345.53 1138.71,1351.99 1142.02,1356.94 1145.32,1360.5 1148.63,1362.91 1151.93,1364.39 
  1155.23,1365.14 1158.54,1365.29 1161.84,1364.91 1165.15,1364.05 1168.45,1362.73 1171.76,1360.94 1175.06,1358.67 1178.36,1355.88 1181.67,1352.57 1184.97,1348.73 
  1188.28,1344.38 1191.58,1339.61 1194.89,1334.59 1198.19,1329.6 1201.49,1325.09 1204.8,1321.66 1208.1,1319.97 1211.41,1320.62 1214.71,1323.81 1218.02,1329.19 
  1221.32,1335.83 1224.62,1342.66 1227.93,1348.8 1231.23,1353.81 1234.54,1357.61 1237.84,1360.32 1241.15,1362.09 1244.45,1363.11 1247.75,1363.48 1251.06,1363.31 
  1254.36,1362.64 1257.67,1361.5 1260.97,1359.9 1264.27,1357.83 1267.58,1355.29 1270.88,1352.26 1274.19,1348.76 1277.49,1344.82 1280.8,1340.53 1284.1,1336.05 
  1287.4,1331.63 1290.71,1327.66 1294.01,1324.62 1297.32,1323.06 1300.62,1323.44 1303.93,1325.94 1307.23,1330.32 1310.53,1335.91 1313.84,1341.85 1317.14,1347.39 
  1320.45,1352.09 1323.75,1355.77 1327.06,1358.48 1330.36,1360.32 1333.66,1361.42 1336.97,1361.88 1340.27,1361.8 1343.58,1361.21 1346.88,1360.16 1350.18,1358.66 
  1353.49,1356.71 1356.79,1354.31 1360.1,1351.46 1363.4,1348.19 1366.71,1344.54 1370.01,1340.62 1373.31,1336.58 1376.62,1332.68 1379.92,1329.24 1383.23,1326.7 
  1386.53,1325.5 1389.84,1325.99 1393.14,1328.27 1396.44,1332.12 1399.75,1336.99 1403.05,1342.19 1406.36,1347.1 1409.66,1351.34 1412.97,1354.72 1416.27,1357.25 
  1419.57,1358.99 1422.88,1360.04 1426.18,1360.49 1429.49,1360.4 1432.79,1359.83 1436.09,1358.8 1439.4,1357.32 1442.7,1355.42 1446.01,1353.1 1449.31,1350.37 
  1452.62,1347.27 1455.92,1343.85 1459.22,1340.24 1462.53,1336.6 1465.83,1333.18 1469.14,1330.29 1472.44,1328.29 1475.75,1327.55 1479.05,1328.31 1482.35,1330.6 
  1485.66,1334.16 1488.96,1338.52 1492.27,1343.11 1495.57,1347.44 1498.88,1351.18 1502.18,1354.19 1505.48,1356.45 1508.79,1358 1512.09,1358.92 1515.4,1359.27 
  1518.7,1359.11 1522.01,1358.49 1525.31,1357.42 1528.61,1355.94 1531.92,1354.04 1535.22,1351.76 1538.53,1349.11 1541.83,1346.15 1545.13,1342.94 1548.44,1339.62 
  1551.74,1336.37 1555.05,1333.43 1558.35,1331.08 1561.66,1329.65 1564.96,1329.4 1568.26,1330.5 1571.57,1332.87 1574.87,1336.26 1578.18,1340.22 1581.48,1344.29 
  1584.79,1348.09 1588.09,1351.34 1591.39,1353.96 1594.7,1355.9 1598,1357.21 1601.31,1357.95 1604.61,1358.16 1607.92,1357.89 1611.22,1357.18 1614.52,1356.05 
  1617.83,1354.52 1621.13,1352.61 1624.44,1350.35 1627.74,1347.77 1631.04,1344.93 1634.35,1341.94 1637.65,1338.92 1640.96,1336.06 1644.26,1333.6 1647.57,1331.81 
  1650.87,1330.94 1654.17,1331.18 1657.48,1332.6 1660.78,1335.08 1664.09,1338.32 1667.39,1341.93 1670.7,1345.54 1674,1348.85 1677.3,1351.65 1680.61,1353.86 
  1683.91,1355.49 1687.22,1356.54 1690.52,1357.07 1693.83,1357.11 1697.13,1356.71 1700.43,1355.89 1703.74,1354.67 1707.04,1353.09 1710.35,1351.16 1713.65,1348.91 
  1716.95,1346.4 1720.26,1343.71 1723.56,1340.93 1726.87,1338.23 1730.17,1335.79 1733.48,1333.83 1736.78,1332.59 1740.08,1332.26 1743.39,1332.96 1746.69,1334.66 
  1750,1337.2 1753.3,1340.28 1756.61,1343.57 1759.91,1346.75 1763.21,1349.6 1766.52,1351.97 1769.82,1353.81 1773.13,1355.12 1776.43,1355.91 1779.74,1356.22 
  1783.04,1356.09 1786.34,1355.54 1789.65,1354.6 1792.95,1353.3 1796.26,1351.65 1799.56,1349.7 1802.87,1347.48 1806.17,1345.06 1809.47,1342.53 1812.78,1340.01 
  1816.08,1337.65 1819.39,1335.64 1822.69,1334.19 1825.99,1333.49 1829.3,1333.66 1832.6,1334.74 1835.91,1336.66 1839.21,1339.2 1842.52,1342.1 1845.82,1345.06 
  1849.12,1347.84 1852.43,1350.27 1855.73,1352.25 1859.04,1353.74 1862.34,1354.74 1865.65,1355.28 1868.95,1355.37 1872.25,1355.06 1875.56,1354.36 1878.86,1353.31 
  1882.17,1351.92 1885.47,1350.22 1888.78,1348.27 1892.08,1346.1 1895.38,1343.8 1898.69,1341.46 1901.99,1339.22 1905.3,1337.24 1908.6,1335.68 1911.9,1334.74 
  1915.21,1334.53 1918.51,1335.14 1921.82,1336.53 1925.12,1338.58 1928.43,1341.07 1931.73,1343.75 1935.03,1346.38 1938.34,1348.78 1941.64,1350.82 1944.95,1352.43 
  1948.25,1353.6 1951.56,1354.32 1954.86,1354.61 1958.16,1354.5 1961.47,1354.02 1964.77,1353.18 1968.08,1352.01 1971.38,1350.55 1974.69,1348.83 1977.99,1346.89 
  1981.29,1344.8 1984.6,1342.65 1987.9,1340.54 1991.21,1338.62 1994.51,1337.03 1997.81,1335.94 2001.12,1335.47 2004.42,1335.71 2007.73,1336.68 2011.03,1338.29 
  2014.34,1340.39 2017.64,1342.76 2020.94,1345.2 2024.25,1347.51 2027.55,1349.54 2030.86,1351.22 2034.16,1352.5 2037.47,1353.37 2040.77,1353.82 2044.07,1353.89 
  2047.38,1353.59 2050.68,1352.95 2053.99,1351.99 2057.29,1350.73 2060.6,1349.21 2063.9,1347.48 2067.2,1345.59 2070.51,1343.61 2073.81,1341.65 2077.12,1339.82 
  2080.42,1338.24 2083.73,1337.06 2087.03,1336.41 2090.33,1336.38 2093.64,1337.01 2096.94,1338.24 2100.25,1339.98 2103.55,1342.05 2106.85,1344.26 2110.16,1346.44 
  2113.46,1348.43 2116.77,1350.13 2120.07,1351.48 2123.38,1352.45 2126.68,1353.04 2129.98,1353.26 2133.29,1353.12 2136.59,1352.65 2139.9,1351.86 2143.2,1350.79 
  2146.51,1349.46 2149.81,1347.92 2153.11,1346.21 2156.42,1344.41 2159.72,1342.58 2163.03,1340.84 2166.33,1339.31 2169.64,1338.1 2172.94,1337.33 2176.24,1337.09 
  2179.55,1337.44 2182.85,1338.36 2186.16,1339.78 2189.46,1341.56 2192.76,1343.54 2196.07,1345.56 2199.37,1347.46 2202.68,1349.14 2205.98,1350.53 2209.29,1351.58 
  2212.59,1352.28 2215.89,1352.62 2219.2,1352.62 2222.5,1352.3 2225.81,1351.67 2229.11,1350.77 2232.42,1349.61 2235.72,1348.24 2239.02,1346.7 2242.33,1345.05 
  2245.63,1343.36 2248.94,1341.73 2252.24,1340.25 2255.55,1339.03 2258.85,1338.19 2262.15,1337.81 2265.46,1337.94 2268.76,1338.6 2272.07,1339.74 2275.37,1341.25 
  2278.67,1343 2281.98,1344.84 2285.28,1346.64 2288.59,1348.28 2291.89,1349.67 
  "/>
<polyline clip-path="url(#clip222)" style="stroke:#e26f46; stroke-linecap:butt; stroke-linejoin:round; stroke-width:12; stroke-opacity:1; fill:none" points="
  263.091,1286.92 266.396,1249.25 269.7,1236.16 273.004,1251 276.308,1274.81 279.613,1295.79 282.917,1312.26 286.221,1325.05 289.525,1335.08 292.83,1343.05 
  296.134,1349.44 299.438,1354.62 302.742,1358.85 306.047,1362.32 309.351,1365.19 312.655,1367.58 315.959,1369.58 319.263,1371.26 322.568,1372.68 325.872,1373.89 
  329.176,1374.93 332.48,1375.81 335.785,1376.58 339.089,1377.24 342.393,1377.81 345.697,1378.32 349.002,1378.76 352.306,1379.15 355.61,1379.49 358.914,1379.8 
  362.219,1380.07 365.523,1380.31 368.827,1380.53 372.131,1380.73 375.435,1380.91 378.74,1381.07 382.044,1381.21 385.348,1381.35 388.652,1381.47 391.957,1381.58 
  395.261,1381.69 398.565,1381.78 401.869,1381.87 405.174,1381.95 408.478,1382.02 411.782,1382.09 415.086,1382.15 418.391,1382.2 421.695,1382.25 424.999,1382.3 
  428.303,1382.33 431.607,1382.36 434.912,1382.38 438.216,1382.39 441.52,1382.38 444.824,1382.36 448.129,1382.31 451.433,1382.22 454.737,1382.09 458.041,1381.88 
  461.346,1381.55 464.65,1381 467.954,1380.05 471.258,1378.27 474.563,1374.66 477.867,1366.67 481.171,1348.81 484.475,1317.5 487.779,1292.48 491.084,1294.57 
  494.388,1309.29 497.692,1323.92 500.996,1335.75 504.301,1344.98 507.605,1352.17 510.909,1357.82 514.213,1362.29 517.518,1365.87 520.822,1368.74 524.126,1371.08 
  527.43,1372.98 530.735,1374.54 534.039,1375.83 537.343,1376.9 540.647,1377.78 543.951,1378.53 547.256,1379.15 550.56,1379.68 553.864,1380.12 557.168,1380.5 
  560.473,1380.82 563.777,1381.1 567.081,1381.33 570.385,1381.53 573.69,1381.69 576.994,1381.83 580.298,1381.94 583.602,1382.02 586.907,1382.08 590.211,1382.12 
  593.515,1382.12 596.819,1382.08 600.123,1381.99 603.428,1381.83 606.732,1381.55 610.036,1381.1 613.34,1380.34 616.645,1378.99 619.949,1376.47 623.253,1371.49 
  626.557,1361.71 629.862,1345.05 633.166,1326.52 636.47,1318.12 639.774,1321.71 643.079,1330.34 646.383,1339.34 649.687,1347.17 652.991,1353.61 656.295,1358.82 
  659.6,1363.01 662.904,1366.4 666.208,1369.13 669.512,1371.35 672.817,1373.16 676.121,1374.64 679.425,1375.86 682.729,1376.85 686.034,1377.67 689.338,1378.34 
  692.642,1378.88 695.946,1379.32 699.251,1379.66 702.555,1379.91 705.859,1380.07 709.163,1380.15 712.467,1380.12 715.772,1379.96 719.076,1379.63 722.38,1379.05 
  725.684,1378.07 728.989,1376.43 732.293,1373.63 735.597,1368.85 738.901,1361.01 742.206,1349.77 745.51,1337.78 748.814,1330.33 752.118,1329.86 755.423,1334.28 
  758.727,1340.55 762.031,1346.88 765.335,1352.56 768.639,1357.4 771.944,1361.44 775.248,1364.77 778.552,1367.51 781.856,1369.76 785.161,1371.6 788.465,1373.1 
  791.769,1374.33 795.073,1375.32 798.378,1376.1 801.682,1376.71 804.986,1377.16 808.29,1377.45 811.595,1377.58 814.899,1377.53 818.203,1377.27 821.507,1376.72 
  824.811,1375.78 828.116,1374.25 831.42,1371.82 834.724,1368.04 838.028,1362.38 841.333,1354.64 844.637,1345.81 847.941,1338.39 851.245,1334.87 854.55,1335.66 
  857.854,1339.33 861.158,1344.24 864.462,1349.29 867.767,1353.97 871.071,1358.07 874.375,1361.57 877.679,1364.52 880.983,1366.97 884.288,1369 887.592,1370.66 
  890.896,1372.02 894.2,1373.1 897.505,1373.95 900.809,1374.57 904.113,1374.99 907.417,1375.2 910.722,1375.18 914.026,1374.89 917.33,1374.28 920.634,1373.22 
  923.939,1371.55 927.243,1369.03 930.547,1365.35 933.851,1360.26 937.155,1353.86 940.46,1347.02 943.764,1341.36 947.068,1338.44 950.372,1338.63 953.677,1341.2 
  956.981,1345.04 960.285,1349.27 963.589,1353.39 966.894,1357.13 970.198,1360.4 973.502,1363.21 976.806,1365.58 980.111,1367.56 983.415,1369.19 986.719,1370.5 
  990.023,1371.54 993.327,1372.33 996.632,1372.87 999.936,1373.18 1003.24,1373.23 1006.54,1372.99 1009.85,1372.41 1013.15,1371.39 1016.46,1369.81 1019.76,1367.49 
  1023.07,1364.22 1026.37,1359.9 1029.67,1354.63 1032.98,1349.05 1036.28,1344.24 1039.59,1341.33 1042.89,1340.81 1046.2,1342.37 1049.5,1345.28 1052.8,1348.82 
  1056.11,1352.46 1059.41,1355.91 1062.72,1359.02 1066.02,1361.74 1069.32,1364.08 1072.63,1366.05 1075.93,1367.68 1079.24,1369 1082.54,1370.04 1085.85,1370.81 
  1089.15,1371.33 1092.45,1371.58 1095.76,1371.55 1099.06,1371.21 1102.37,1370.49 1105.67,1369.3 1108.98,1367.54 1112.28,1365.06 1115.58,1361.75 1118.89,1357.64 
  1122.19,1352.99 1125.5,1348.44 1128.8,1344.85 1132.11,1342.96 1135.41,1342.96 1138.71,1344.54 1142.02,1347.15 1145.32,1350.25 1148.63,1353.45 1151.93,1356.5 
  1155.23,1359.27 1158.54,1361.72 1161.84,1363.82 1165.15,1365.6 1168.45,1367.07 1171.76,1368.24 1175.06,1369.14 1178.36,1369.78 1181.67,1370.14 1184.97,1370.22 
  1188.28,1370 1191.58,1369.42 1194.89,1368.42 1198.19,1366.92 1201.49,1364.81 1204.8,1362.03 1208.1,1358.58 1211.41,1354.64 1214.71,1350.65 1218.02,1347.24 
  1221.32,1345.04 1224.62,1344.38 1227.93,1345.18 1231.23,1347.08 1234.54,1349.63 1237.84,1352.45 1241.15,1355.26 1244.45,1357.91 1247.75,1360.31 1251.06,1362.4 
  1254.36,1364.2 1257.67,1365.7 1260.97,1366.92 1264.27,1367.86 1267.58,1368.53 1270.88,1368.94 1274.19,1369.06 1277.49,1368.87 1280.8,1368.34 1284.1,1367.42 
  1287.4,1366.03 1290.71,1364.11 1294.01,1361.61 1297.32,1358.56 1300.62,1355.12 1303.93,1351.64 1307.23,1348.62 1310.53,1346.57 1313.84,1345.77 1317.14,1346.23 
  1320.45,1347.71 1323.75,1349.86 1327.06,1352.33 1330.36,1354.88 1333.66,1357.34 1336.97,1359.59 1340.27,1361.6 1343.58,1363.33 1346.88,1364.79 1350.18,1365.98 
  1353.49,1366.9 1356.79,1367.55 1360.1,1367.94 1363.4,1368.04 1366.71,1367.84 1370.01,1367.3 1373.31,1366.38 1376.62,1365.03 1379.92,1363.2 1383.23,1360.86 
  1386.53,1358.08 1389.84,1355.01 1393.14,1351.98 1396.44,1349.39 1399.75,1347.64 1403.05,1346.96 1406.36,1347.35 1409.66,1348.63 1412.97,1350.51 1416.27,1352.72 
  1419.57,1355.02 1422.88,1357.26 1426.18,1359.35 1429.49,1361.21 1432.79,1362.84 1436.09,1364.21 1439.4,1365.32 1442.7,1366.17 1446.01,1366.76 1449.31,1367.09 
  1452.62,1367.14 1455.92,1366.88 1459.22,1366.29 1462.53,1365.34 1465.83,1363.97 1469.14,1362.17 1472.44,1359.94 1475.75,1357.36 1479.05,1354.61 1482.35,1351.99 
  1485.66,1349.83 1488.96,1348.44 1492.27,1347.98 1495.57,1348.44 1498.88,1349.64 1502.18,1351.36 1505.48,1353.36 1508.79,1355.46 1512.09,1357.5 1515.4,1359.4 
  1518.7,1361.11 1522.01,1362.59 1525.31,1363.84 1528.61,1364.85 1531.92,1365.6 1535.22,1366.1 1538.53,1366.34 1541.83,1366.31 1545.13,1365.97 1548.44,1365.3 
  1551.74,1364.28 1555.05,1362.88 1558.35,1361.08 1561.66,1358.94 1564.96,1356.55 1568.26,1354.1 1571.57,1351.86 1574.87,1350.13 1578.18,1349.11 1581.48,1348.91 
  1584.79,1349.49 1588.09,1350.69 1591.39,1352.3 1594.7,1354.14 1598,1356.05 1601.31,1357.9 1604.61,1359.63 1607.92,1361.17 1611.22,1362.51 1614.52,1363.62 
  1617.83,1364.5 1621.13,1365.14 1624.44,1365.53 1627.74,1365.66 1631.04,1365.51 1634.35,1365.08 1637.65,1364.32 1640.96,1363.22 1644.26,1361.77 1647.57,1359.98 
  1650.87,1357.93 1654.17,1355.73 1657.48,1353.59 1660.78,1351.73 1664.09,1350.4 1667.39,1349.75 1670.7,1349.81 1674,1350.52 1677.3,1351.73 1680.61,1353.27 
  1683.91,1354.97 1687.22,1356.71 1690.52,1358.39 1693.83,1359.94 1697.13,1361.32 1700.43,1362.5 1703.74,1363.47 1707.04,1364.21 1710.35,1364.72 1713.65,1364.99 
  1716.95,1365 1720.26,1364.73 1723.56,1364.18 1726.87,1363.32 1730.17,1362.15 1733.48,1360.66 1736.78,1358.9 1740.08,1356.96 1743.39,1354.98 1746.69,1353.15 
  1750,1351.67 1753.3,1350.73 1756.61,1350.41 1759.91,1350.7 1763.21,1351.53 1766.52,1352.75 1769.82,1354.22 1773.13,1355.8 1776.43,1357.39 1779.74,1358.9 
  1783.04,1360.28 1786.34,1361.5 1789.65,1362.52 1792.95,1363.34 1796.26,1363.94 1799.56,1364.32 1802.87,1364.45 1806.17,1364.33 1809.47,1363.95 1812.78,1363.28 
  1816.08,1362.33 1819.39,1361.08 1822.69,1359.58 1825.99,1357.88 1829.3,1356.08 1832.6,1354.34 1835.91,1352.83 1839.21,1351.73 1842.52,1351.14 1845.82,1351.11 
  1849.12,1351.6 1852.43,1352.52 1855.73,1353.74 1859.04,1355.14 1862.34,1356.6 1865.65,1358.04 1868.95,1359.39 1872.25,1360.61 1875.56,1361.67 1878.86,1362.54 
  1882.17,1363.21 1885.47,1363.67 1888.78,1363.9 1892.08,1363.9 1895.38,1363.65 1898.69,1363.14 1901.99,1362.37 1905.3,1361.33 1908.6,1360.04 1911.9,1358.55 
  1915.21,1356.94 1918.51,1355.32 1921.82,1353.85 1925.12,1352.67 1928.43,1351.91 1931.73,1351.63 1935.03,1351.85 1938.34,1352.49 1941.64,1353.48 1944.95,1354.68 
  1948.25,1356 1951.56,1357.34 1954.86,1358.64 1958.16,1359.84 1961.47,1360.91 1964.77,1361.81 1968.08,1362.52 1971.38,1363.05 1974.69,1363.36 1977.99,1363.45 
  1981.29,1363.32 1984.6,1362.94 1987.9,1362.32 1991.21,1361.45 1994.51,1360.35 1997.81,1359.05 2001.12,1357.61 2004.42,1356.13 2007.73,1354.72 2011.03,1353.53 
  2014.34,1352.67 2017.64,1352.22 2020.94,1352.21 2024.25,1352.62 2027.55,1353.38 2030.86,1354.39 2034.16,1355.56 2037.47,1356.8 2040.77,1358.02 2044.07,1359.18 
  2047.38,1360.23 2050.68,1361.15 2053.99,1361.89 2057.29,1362.46 2060.6,1362.84 2063.9,1363.01 2067.2,1362.97 2070.51,1362.7 2073.81,1362.21 2077.12,1361.48 
  2080.42,1360.54 2083.73,1359.41 2087.03,1358.12 2090.33,1356.78 2093.64,1355.46 2096.94,1354.29 2100.25,1353.38 2103.55,1352.81 2106.85,1352.64 2110.16,1352.86 
  2113.46,1353.42 2116.77,1354.24 2120.07,1355.26 2123.38,1356.37 2126.68,1357.51 2129.98,1358.62 2133.29,1359.65 2136.59,1360.55 2139.9,1361.32 2143.2,1361.92 
  2146.51,1362.34 2149.81,1362.58 2153.11,1362.61 2156.42,1362.44 2159.72,1362.05 2163.03,1361.45 2166.33,1360.65 2169.64,1359.66 2172.94,1358.52 2176.24,1357.3 
  2179.55,1356.08 2182.85,1354.96 2186.16,1354.03 2189.46,1353.39 2192.76,1353.1 2196.07,1353.15 2199.37,1353.54 2202.68,1354.2 2205.98,1355.07 2209.29,1356.06 
  2212.59,1357.11 2215.89,1358.15 2219.2,1359.14 2222.5,1360.03 2225.81,1360.79 2229.11,1361.42 2232.42,1361.87 2235.72,1362.16 2239.02,1362.26 2242.33,1362.16 
  2245.63,1361.87 2248.94,1361.38 2252.24,1360.69 2255.55,1359.83 2258.85,1358.82 2262.15,1357.72 2265.46,1356.6 2268.76,1355.54 2272.07,1354.62 2275.37,1353.94 
  2278.67,1353.56 2281.98,1353.49 2285.28,1353.73 2288.59,1354.24 2291.89,1354.97 
  "/>
<polyline clip-path="url(#clip222)" style="stroke:#3da44d; stroke-linecap:butt; stroke-linejoin:round; stroke-width:12; stroke-opacity:1; fill:none" points="
  263.091,1286.92 266.396,1092.32 269.7,735.132 273.004,341.075 276.308,121.643 279.613,86.1857 282.917,163.288 286.221,292.805 289.525,436.839 292.83,574.968 
  296.134,698.1 299.438,803.583 302.742,891.981 306.047,965.219 309.351,1025.6 312.655,1075.35 315.959,1116.42 319.263,1150.46 322.568,1178.81 325.872,1202.54 
  329.176,1222.54 332.48,1239.48 335.785,1253.93 339.089,1266.32 342.393,1277.01 345.697,1286.28 349.002,1294.37 352.306,1301.46 355.61,1307.71 358.914,1313.24 
  362.219,1318.16 365.523,1322.55 368.827,1326.49 372.131,1330.03 375.435,1333.22 378.74,1336.12 382.044,1338.75 385.348,1341.15 388.652,1343.33 391.957,1345.34 
  395.261,1347.18 398.565,1348.87 401.869,1350.42 405.174,1351.85 408.478,1353.17 411.782,1354.39 415.086,1355.51 418.391,1356.53 421.695,1357.46 424.999,1358.31 
  428.303,1359.06 431.607,1359.72 434.912,1360.27 438.216,1360.72 441.52,1361.02 444.824,1361.16 448.129,1361.1 451.433,1360.76 454.737,1360.04 458.041,1358.77 
  461.346,1356.66 464.65,1353.18 467.954,1347.28 471.258,1336.7 474.563,1316.1 477.867,1271.44 481.171,1164.92 484.475,921.697 487.779,559.892 491.084,338.626 
  494.388,337.215 497.692,444.134 500.996,579.875 504.301,710.451 507.605,824.102 510.909,918.614 514.213,995.53 517.518,1057.56 520.822,1107.48 524.126,1147.75 
  527.43,1180.39 530.735,1207.02 534.039,1228.88 537.343,1246.98 540.647,1262.06 543.951,1274.72 547.256,1285.43 550.56,1294.54 553.864,1302.34 557.168,1309.05 
  560.473,1314.84 563.777,1319.87 567.081,1324.24 570.385,1328.03 573.69,1331.32 576.994,1334.16 580.298,1336.57 583.602,1338.59 586.907,1340.21 590.211,1341.42 
  593.515,1342.17 596.819,1342.4 600.123,1341.97 603.428,1340.67 606.732,1338.15 610.036,1333.76 613.34,1326.34 616.645,1313.65 619.949,1291.02 623.253,1248.62 
  626.557,1166.99 629.862,1020.27 633.166,821.09 636.47,668.339 639.774,634.083 643.079,687.204 646.383,774.945 649.687,866.457 652.991,949.006 656.295,1018.96 
  659.6,1076.54 662.904,1123.31 666.208,1161.14 669.512,1191.76 672.817,1216.62 676.121,1236.88 679.425,1253.48 682.729,1267.15 686.034,1278.42 689.338,1287.74 
  692.642,1295.42 695.946,1301.7 699.251,1306.76 702.555,1310.7 705.859,1313.57 709.163,1315.35 712.467,1315.94 715.772,1315.13 719.076,1312.54 722.38,1307.48 
  725.684,1298.78 728.989,1284.4 732.293,1260.69 735.597,1221.51 738.901,1157.99 742.206,1063.44 745.51,948.879 748.814,853.177 752.118,812.859 755.423,828.317 
  758.727,877.112 762.031,938.072 765.335,998.691 768.639,1053.32 771.944,1100.21 775.248,1139.43 778.552,1171.81 781.856,1198.38 785.161,1220.12 788.465,1237.9 
  791.769,1252.4 795.073,1264.18 798.378,1273.67 801.682,1281.19 804.986,1286.94 808.29,1291.04 811.595,1293.51 814.899,1294.24 818.203,1292.98 821.507,1289.26 
  824.811,1282.28 828.116,1270.72 831.42,1252.47 834.724,1224.38 838.028,1182.4 841.333,1123.37 844.637,1050.12 847.941,977.085 851.245,926.079 854.55,910.285 
  857.854,926.457 861.158,962.499 864.462,1006.78 867.767,1051.63 871.071,1093.05 874.375,1129.44 877.679,1160.5 880.983,1186.58 884.288,1208.23 887.592,1226.06 
  890.896,1240.64 894.2,1252.42 897.505,1261.78 900.809,1268.98 904.113,1274.17 907.417,1277.43 910.722,1278.67 914.026,1277.69 917.33,1274.07 920.634,1267.12 
  923.939,1255.76 927.243,1238.41 930.547,1212.96 933.851,1177.21 937.155,1130.28 940.46,1075.39 943.764,1022.05 947.068,983.308 950.372,967.971 953.677,975.843 
  956.981,1000.32 960.285,1033.5 963.589,1069.25 966.894,1103.75 970.198,1135.08 973.502,1162.5 976.806,1185.95 980.111,1205.67 983.415,1222.04 986.719,1235.43 
  990.023,1246.18 993.327,1254.57 996.632,1260.76 999.936,1264.85 1003.24,1266.81 1006.54,1266.47 1009.85,1263.53 1013.15,1257.44 1016.46,1247.37 1019.76,1232.21 
  1023.07,1210.57 1026.37,1181.15 1029.67,1143.7 1032.98,1100.55 1036.28,1057.85 1039.59,1024.3 1042.89,1006.95 1046.2,1007.59 1049.5,1022.98 1052.8,1047.71 
  1056.11,1076.66 1059.41,1106.17 1062.72,1134.03 1066.02,1159.11 1069.32,1181.01 1072.63,1199.71 1075.93,1215.4 1079.24,1228.3 1082.54,1238.67 1085.85,1246.69 
  1089.15,1252.51 1092.45,1256.16 1095.76,1257.59 1099.06,1256.61 1102.37,1252.9 1105.67,1245.94 1108.98,1235 1112.28,1219.17 1115.58,1197.52 1118.89,1169.55 
  1122.19,1136.02 1125.5,1099.92 1128.8,1066.68 1132.11,1042.58 1135.41,1031.86 1138.71,1035.02 1142.02,1049.33 1145.32,1070.75 1148.63,1095.5 1151.93,1120.75 
  1155.23,1144.74 1158.54,1166.51 1161.84,1185.64 1165.15,1202.05 1168.45,1215.81 1171.76,1227.07 1175.06,1235.99 1178.36,1242.67 1181.67,1247.18 1184.97,1249.49 
  1188.28,1249.49 1191.58,1246.92 1194.89,1241.41 1198.19,1232.44 1201.49,1219.35 1204.8,1201.5 1208.1,1178.53 1211.41,1150.9 1214.71,1120.56 1218.02,1091.23 
  1221.32,1067.67 1224.62,1053.91 1227.93,1051.59 1231.23,1059.67 1234.54,1075.38 1237.84,1095.58 1241.15,1117.55 1244.45,1139.36 1247.75,1159.79 1251.06,1178.18 
  1254.36,1194.25 1257.67,1207.93 1260.97,1219.27 1264.27,1228.35 1267.58,1235.25 1270.88,1240.01 1274.19,1242.6 1277.49,1242.92 1280.8,1240.78 1284.1,1235.87 
  1287.4,1227.77 1290.71,1216 1294.01,1200.11 1297.32,1179.95 1300.62,1156 1303.93,1129.88 1307.23,1104.49 1310.53,1083.54 1313.84,1070.35 1317.14,1066.56 
  1320.45,1071.77 1323.75,1084.07 1327.06,1100.95 1330.36,1120.06 1333.66,1139.57 1336.97,1158.25 1340.27,1175.36 1343.58,1190.5 1346.88,1203.53 1350.18,1214.4 
  1353.49,1223.14 1356.79,1229.78 1360.1,1234.34 1363.4,1236.78 1366.71,1237 1370.01,1234.81 1373.31,1229.96 1376.62,1222.11 1379.92,1210.9 1383.23,1196.05 
  1386.53,1177.59 1389.84,1156.15 1393.14,1133.25 1396.44,1111.37 1399.75,1093.51 1403.05,1082.28 1406.36,1078.99 1409.66,1083.36 1412.97,1093.9 1416.27,1108.6 
  1419.57,1125.48 1422.88,1142.94 1426.18,1159.86 1429.49,1175.5 1432.79,1189.44 1436.09,1201.49 1439.4,1211.57 1442.7,1219.64 1446.01,1225.71 1449.31,1229.77 
  1452.62,1231.76 1455.92,1231.56 1459.22,1229.01 1462.53,1223.88 1465.83,1215.9 1469.14,1204.81 1472.44,1190.52 1475.75,1173.23 1479.05,1153.72 1482.35,1133.52 
  1485.66,1114.84 1488.96,1100.12 1492.27,1091.36 1495.57,1089.43 1498.88,1093.98 1502.18,1103.75 1505.48,1117.05 1508.79,1132.24 1512.09,1147.96 1515.4,1163.23 
  1518.7,1177.39 1522.01,1190.03 1525.31,1200.95 1528.61,1210.04 1531.92,1217.25 1535.22,1222.55 1538.53,1225.9 1541.83,1227.21 1545.13,1226.39 1548.44,1223.26 
  1551.74,1217.63 1555.05,1209.3 1558.35,1198.14 1561.66,1184.18 1564.96,1167.84 1568.26,1150.05 1571.57,1132.34 1574.87,1116.67 1578.18,1105.03 1581.48,1098.83 
  1584.79,1098.57 1588.09,1103.77 1591.39,1113.25 1594.7,1125.62 1598,1139.48 1601.31,1153.71 1604.61,1167.47 1607.92,1180.19 1611.22,1191.52 1614.52,1201.25 
  1617.83,1209.26 1621.13,1215.49 1624.44,1219.88 1627.74,1222.38 1631.04,1222.89 1634.35,1221.3 1637.65,1217.46 1640.96,1211.21 1644.26,1202.44 1647.57,1191.12 
  1650.87,1177.48 1654.17,1162.09 1657.48,1146 1660.78,1130.72 1664.09,1117.96 1667.39,1109.25 1670.7,1105.54 1674,1106.96 1677.3,1112.91 1680.61,1122.32 
  1683.91,1133.97 1687.22,1146.71 1690.52,1159.62 1693.83,1172 1697.13,1183.35 1700.43,1193.39 1703.74,1201.91 1707.04,1208.8 1710.35,1213.98 1713.65,1217.39 
  1716.95,1218.95 1720.26,1218.57 1723.56,1216.13 1726.87,1211.52 1730.17,1204.62 1733.48,1195.4 1736.78,1183.98 1740.08,1170.75 1743.39,1156.43 1746.69,1142.16 
  1750,1129.32 1753.3,1119.36 1756.61,1113.4 1759.91,1111.96 1763.21,1114.9 1766.52,1121.54 1769.82,1130.9 1773.13,1141.92 1776.43,1153.67 1779.74,1165.37 
  1783.04,1176.44 1786.34,1186.5 1789.65,1195.28 1792.95,1202.6 1796.26,1208.36 1799.56,1212.47 1802.87,1214.85 1806.17,1215.43 1809.47,1214.11 1812.78,1210.8 
  1816.08,1205.4 1819.39,1197.88 1822.69,1188.31 1825.99,1176.95 1829.3,1164.32 1832.6,1151.28 1835.91,1138.94 1839.21,1128.56 1842.52,1121.27 1845.82,1117.8 
  1849.12,1118.34 1852.43,1122.55 1855.73,1129.72 1859.04,1138.96 1862.34,1149.37 1865.65,1160.16 1868.95,1170.72 1872.25,1180.57 1875.56,1189.39 1878.86,1196.95 
  1882.17,1203.09 1885.47,1207.73 1888.78,1210.76 1892.08,1212.11 1895.38,1211.69 1898.69,1209.43 1901.99,1205.26 1905.3,1199.13 1908.6,1191.1 1911.9,1181.34 
  1915.21,1170.25 1918.51,1158.47 1921.82,1146.91 1925.12,1136.63 1928.43,1128.67 1931.73,1123.85 1935.03,1122.56 1938.34,1124.75 1941.64,1129.95 1944.95,1137.45 
  1948.25,1146.46 1951.56,1156.22 1954.86,1166.09 1958.16,1175.55 1961.47,1184.23 1964.77,1191.86 1968.08,1198.24 1971.38,1203.24 1974.69,1206.77 1977.99,1208.73 
  1981.29,1209.05 1984.6,1207.66 1987.9,1204.5 1991.21,1199.53 1994.51,1192.79 1997.81,1184.41 2001.12,1174.68 2004.42,1164.12 2007.73,1153.45 2011.03,1143.56 
  2014.34,1135.38 2017.64,1129.72 2020.94,1127.11 2024.25,1127.68 2027.55,1131.17 2030.86,1137.06 2034.16,1144.69 2037.47,1153.36 2040.77,1162.43 2044.07,1171.37 
  2047.38,1179.78 2050.68,1187.33 2053.99,1193.81 2057.29,1199.05 2060.6,1202.94 2063.9,1205.39 2067.2,1206.31 2070.51,1205.64 2073.81,1203.32 2077.12,1199.33 
  2080.42,1193.68 2083.73,1186.48 2087.03,1177.97 2090.33,1168.54 2093.64,1158.78 2096.94,1149.43 2100.25,1141.33 2103.55,1135.23 2106.85,1131.7 2110.16,1131 
  2113.46,1133.06 2116.77,1137.52 2120.07,1143.84 2123.38,1151.4 2126.68,1159.62 2129.98,1167.95 2133.29,1175.97 2136.59,1183.34 2139.9,1189.8 2143.2,1195.18 
  2146.51,1199.33 2149.81,1202.15 2153.11,1203.56 2156.42,1203.49 2159.72,1201.88 2163.03,1198.71 2166.33,1194 2169.64,1187.82 2172.94,1180.38 2176.24,1171.98 
  2179.55,1163.1 2182.85,1154.39 2186.16,1146.54 2189.46,1140.26 2192.76,1136.13 2196.07,1134.48 2199.37,1135.36 2202.68,1138.57 2205.98,1143.69 2209.29,1150.19 
  2212.59,1157.53 2215.89,1165.2 2219.2,1172.76 2222.5,1179.85 2225.81,1186.21 2229.11,1191.63 2232.42,1195.95 2235.72,1199.05 2239.02,1200.85 2242.33,1201.27 
  2245.63,1200.26 2248.94,1197.8 2252.24,1193.89 2255.55,1188.61 2258.85,1182.1 2262.15,1174.63 2265.46,1166.6 2268.76,1158.54 2272.07,1151.06 2275.37,1144.79 
  2278.67,1140.3 2281.98,1137.95 2285.28,1137.9 2288.59,1140.04 2291.89,1144.08 
  "/>
<path clip-path="url(#clip220)" d="
M1984.69 300.469 L2281.07 300.469 L2281.07 93.1086 L1984.69 93.1086  Z
  " fill="#ffffff" fill-rule="evenodd" fill-opacity="1"/>
<polyline clip-path="url(#clip220)" style="stroke:#000000; stroke-linecap:butt; stroke-linejoin:round; stroke-width:4; stroke-opacity:1; fill:none" points="
  1984.69,300.469 2281.07,300.469 2281.07,93.1086 1984.69,93.1086 1984.69,300.469 
  "/>
<polyline clip-path="url(#clip220)" style="stroke:#009af9; stroke-linecap:butt; stroke-linejoin:round; stroke-width:4; stroke-opacity:1; fill:none" points="
  2008.59,144.949 2151.96,144.949 
  "/>
<path clip-path="url(#clip220)" d="M2177.43 127.669 L2182.45 127.669 L2191.04 140.516 L2199.67 127.669 L2204.69 127.669 L2193.58 144.266 L2205.44 162.229 L2200.41 162.229 L2190.69 147.53 L2180.9 162.229 L2175.85 162.229 L2188.19 143.78 L2177.43 127.669 Z" fill="#000000" fill-rule="evenodd" fill-opacity="1" /><path clip-path="url(#clip220)" d="M2212.8 158.293 L2220.43 158.293 L2220.43 131.928 L2212.12 133.595 L2212.12 129.335 L2220.39 127.669 L2225.06 127.669 L2225.06 158.293 L2232.7 158.293 L2232.7 162.229 L2212.8 162.229 L2212.8 158.293 Z" fill="#000000" fill-rule="evenodd" fill-opacity="1" /><polyline clip-path="url(#clip220)" style="stroke:#e26f46; stroke-linecap:butt; stroke-linejoin:round; stroke-width:4; stroke-opacity:1; fill:none" points="
  2008.59,196.789 2151.96,196.789 
  "/>
<path clip-path="url(#clip220)" d="M2177.43 179.509 L2182.45 179.509 L2191.04 192.356 L2199.67 179.509 L2204.69 179.509 L2193.58 196.106 L2205.44 214.069 L2200.41 214.069 L2190.69 199.37 L2180.9 214.069 L2175.85 214.069 L2188.19 195.62 L2177.43 179.509 Z" fill="#000000" fill-rule="evenodd" fill-opacity="1" /><path clip-path="url(#clip220)" d="M2216.01 210.133 L2232.33 210.133 L2232.33 214.069 L2210.39 214.069 L2210.39 210.133 Q2213.05 207.379 2217.63 202.749 Q2222.24 198.096 2223.42 196.754 Q2225.67 194.231 2226.55 192.495 Q2227.45 190.735 2227.45 189.046 Q2227.45 186.291 2225.5 184.555 Q2223.58 182.819 2220.48 182.819 Q2218.28 182.819 2215.83 183.583 Q2213.4 184.347 2210.62 185.897 L2210.62 181.175 Q2213.44 180.041 2215.9 179.462 Q2218.35 178.884 2220.39 178.884 Q2225.76 178.884 2228.95 181.569 Q2232.15 184.254 2232.15 188.745 Q2232.15 190.874 2231.34 192.796 Q2230.55 194.694 2228.44 197.286 Q2227.87 197.958 2224.76 201.175 Q2221.66 204.37 2216.01 210.133 Z" fill="#000000" fill-rule="evenodd" fill-opacity="1" /><polyline clip-path="url(#clip220)" style="stroke:#3da44d; stroke-linecap:butt; stroke-linejoin:round; stroke-width:4; stroke-opacity:1; fill:none" points="
  2008.59,248.629 2151.96,248.629 
  "/>
<path clip-path="url(#clip220)" d="M2177.43 231.349 L2182.45 231.349 L2191.04 244.196 L2199.67 231.349 L2204.69 231.349 L2193.58 247.946 L2205.44 265.909 L2200.41 265.909 L2190.69 251.21 L2180.9 265.909 L2175.85 265.909 L2188.19 247.46 L2177.43 231.349 Z" fill="#000000" fill-rule="evenodd" fill-opacity="1" /><path clip-path="url(#clip220)" d="M2226.15 247.274 Q2229.51 247.992 2231.38 250.261 Q2233.28 252.529 2233.28 255.862 Q2233.28 260.978 2229.76 263.779 Q2226.25 266.58 2219.76 266.58 Q2217.59 266.58 2215.27 266.14 Q2212.98 265.723 2210.53 264.867 L2210.53 260.353 Q2212.47 261.487 2214.79 262.066 Q2217.1 262.645 2219.62 262.645 Q2224.02 262.645 2226.31 260.909 Q2228.63 259.173 2228.63 255.862 Q2228.63 252.807 2226.48 251.094 Q2224.35 249.358 2220.53 249.358 L2216.5 249.358 L2216.5 245.515 L2220.71 245.515 Q2224.16 245.515 2225.99 244.149 Q2227.82 242.761 2227.82 240.168 Q2227.82 237.506 2225.92 236.094 Q2224.05 234.659 2220.53 234.659 Q2218.61 234.659 2216.41 235.075 Q2214.21 235.492 2211.57 236.372 L2211.57 232.205 Q2214.23 231.464 2216.55 231.094 Q2218.88 230.724 2220.94 230.724 Q2226.27 230.724 2229.37 233.154 Q2232.47 235.562 2232.47 239.682 Q2232.47 242.552 2230.83 244.543 Q2229.18 246.511 2226.15 247.274 Z" fill="#000000" fill-rule="evenodd" fill-opacity="1" /></svg>
