<?xml version="1.0" encoding="utf-8"?>
<svg xmlns="http://www.w3.org/2000/svg" xmlns:xlink="http://www.w3.org/1999/xlink" width="600" height="400" viewBox="0 0 2400 1600">
<defs>
  <clipPath id="clip050">
    <rect x="0" y="0" width="2400" height="1600"/>
  </clipPath>
</defs>
<path clip-path="url(#clip050)" d="
M0 1600 L2400 1600 L2400 0 L0 0  Z
  " fill="#ffffff" fill-rule="evenodd" fill-opacity="1"/>
<defs>
  <clipPath id="clip051">
    <rect x="480" y="0" width="1681" height="1600"/>
  </clipPath>
</defs>
<path clip-path="url(#clip050)" d="
M251.071 1410.9 L2352.76 1410.9 L2352.76 47.2441 L251.071 47.2441  Z
  " fill="#ffffff" fill-rule="evenodd" fill-opacity="1"/>
<defs>
  <clipPath id="clip052">
    <rect x="251" y="47" width="2103" height="1365"/>
  </clipPath>
</defs>
<polyline clip-path="url(#clip052)" style="stroke:#000000; stroke-linecap:butt; stroke-linejoin:round; stroke-width:2; stroke-opacity:0.1; fill:none" points="
  648.08,1410.9 648.08,47.2441 
  "/>
<polyline clip-path="url(#clip052)" style="stroke:#000000; stroke-linecap:butt; stroke-linejoin:round; stroke-width:2; stroke-opacity:0.1; fill:none" points="
  1860.95,1410.9 1860.95,47.2441 
  "/>
<polyline clip-path="url(#clip050)" style="stroke:#000000; stroke-linecap:butt; stroke-linejoin:round; stroke-width:4; stroke-opacity:1; fill:none" points="
  251.071,1410.9 2352.76,1410.9 
  "/>
<polyline clip-path="url(#clip050)" style="stroke:#000000; stroke-linecap:butt; stroke-linejoin:round; stroke-width:4; stroke-opacity:1; fill:none" points="
  251.071,47.2441 2352.76,47.2441 
  "/>
<polyline clip-path="url(#clip050)" style="stroke:#000000; stroke-linecap:butt; stroke-linejoin:round; stroke-width:4; stroke-opacity:1; fill:none" points="
  648.08,1410.9 648.08,1392 
  "/>
<polyline clip-path="url(#clip050)" style="stroke:#000000; stroke-linecap:butt; stroke-linejoin:round; stroke-width:4; stroke-opacity:1; fill:none" points="
  1860.95,1410.9 1860.95,1392 
  "/>
<path clip-path="url(#clip050)" d="M597.961 1485.02 L605.6 1485.02 L605.6 1458.66 L597.289 1460.32 L597.289 1456.06 L605.553 1454.4 L610.229 1454.4 L610.229 1485.02 L617.868 1485.02 L617.868 1488.96 L597.961 1488.96 L597.961 1485.02 Z" fill="#000000" fill-rule="evenodd" fill-opacity="1" /><path clip-path="url(#clip050)" d="M637.312 1457.48 Q633.701 1457.48 631.873 1461.04 Q630.067 1464.58 630.067 1471.71 Q630.067 1478.82 631.873 1482.38 Q633.701 1485.92 637.312 1485.92 Q640.947 1485.92 642.752 1482.38 Q644.581 1478.82 644.581 1471.71 Q644.581 1464.58 642.752 1461.04 Q640.947 1457.48 637.312 1457.48 M637.312 1453.77 Q643.122 1453.77 646.178 1458.38 Q649.257 1462.96 649.257 1471.71 Q649.257 1480.44 646.178 1485.04 Q643.122 1489.63 637.312 1489.63 Q631.502 1489.63 628.423 1485.04 Q625.368 1480.44 625.368 1471.71 Q625.368 1462.96 628.423 1458.38 Q631.502 1453.77 637.312 1453.77 Z" fill="#000000" fill-rule="evenodd" fill-opacity="1" /><path clip-path="url(#clip050)" d="M649.257 1447.87 L673.368 1447.87 L673.368 1451.07 L649.257 1451.07 L649.257 1447.87 Z" fill="#000000" fill-rule="evenodd" fill-opacity="1" /><path clip-path="url(#clip050)" d="M693.079 1446.41 Q695.806 1446.99 697.329 1448.83 Q698.872 1450.68 698.872 1453.38 Q698.872 1457.54 696.013 1459.82 Q693.154 1462.09 687.888 1462.09 Q686.12 1462.09 684.239 1461.73 Q682.377 1461.4 680.384 1460.7 L680.384 1457.03 Q681.963 1457.95 683.844 1458.42 Q685.725 1458.89 687.775 1458.89 Q691.348 1458.89 693.21 1457.48 Q695.091 1456.07 695.091 1453.38 Q695.091 1450.9 693.342 1449.51 Q691.612 1448.1 688.509 1448.1 L685.236 1448.1 L685.236 1444.98 L688.659 1444.98 Q691.461 1444.98 692.947 1443.87 Q694.433 1442.74 694.433 1440.63 Q694.433 1438.47 692.891 1437.32 Q691.367 1436.16 688.509 1436.16 Q686.947 1436.16 685.161 1436.49 Q683.374 1436.83 681.23 1437.55 L681.23 1434.16 Q683.393 1433.56 685.274 1433.26 Q687.173 1432.96 688.847 1432.96 Q693.173 1432.96 695.693 1434.93 Q698.213 1436.89 698.213 1440.24 Q698.213 1442.57 696.878 1444.19 Q695.543 1445.79 693.079 1446.41 Z" fill="#000000" fill-rule="evenodd" fill-opacity="1" /><path clip-path="url(#clip050)" d="M1811.22 1485.02 L1818.86 1485.02 L1818.86 1458.66 L1810.55 1460.32 L1810.55 1456.06 L1818.81 1454.4 L1823.49 1454.4 L1823.49 1485.02 L1831.12 1485.02 L1831.12 1488.96 L1811.22 1488.96 L1811.22 1485.02 Z" fill="#000000" fill-rule="evenodd" fill-opacity="1" /><path clip-path="url(#clip050)" d="M1850.57 1457.48 Q1846.96 1457.48 1845.13 1461.04 Q1843.32 1464.58 1843.32 1471.71 Q1843.32 1478.82 1845.13 1482.38 Q1846.96 1485.92 1850.57 1485.92 Q1854.2 1485.92 1856.01 1482.38 Q1857.84 1478.82 1857.84 1471.71 Q1857.84 1464.58 1856.01 1461.04 Q1854.2 1457.48 1850.57 1457.48 M1850.57 1453.77 Q1856.38 1453.77 1859.43 1458.38 Q1862.51 1462.96 1862.51 1471.71 Q1862.51 1480.44 1859.43 1485.04 Q1856.38 1489.63 1850.57 1489.63 Q1844.76 1489.63 1841.68 1485.04 Q1838.62 1480.44 1838.62 1471.71 Q1838.62 1462.96 1841.68 1458.38 Q1844.76 1453.77 1850.57 1453.77 Z" fill="#000000" fill-rule="evenodd" fill-opacity="1" /><path clip-path="url(#clip050)" d="M1862.51 1447.87 L1886.62 1447.87 L1886.62 1451.07 L1862.51 1451.07 L1862.51 1447.87 Z" fill="#000000" fill-rule="evenodd" fill-opacity="1" /><path clip-path="url(#clip050)" d="M1898.1 1458.35 L1911.36 1458.35 L1911.36 1461.55 L1893.53 1461.55 L1893.53 1458.35 Q1895.69 1456.11 1899.41 1452.35 Q1903.16 1448.57 1904.12 1447.48 Q1905.94 1445.43 1906.65 1444.02 Q1907.39 1442.59 1907.39 1441.22 Q1907.39 1438.98 1905.81 1437.57 Q1904.25 1436.16 1901.73 1436.16 Q1899.94 1436.16 1897.95 1436.78 Q1895.97 1437.4 1893.71 1438.66 L1893.71 1434.82 Q1896.01 1433.9 1898 1433.43 Q1900 1432.96 1901.65 1432.96 Q1906.01 1432.96 1908.61 1435.14 Q1911.21 1437.32 1911.21 1440.97 Q1911.21 1442.7 1910.55 1444.26 Q1909.91 1445.8 1908.2 1447.91 Q1907.73 1448.46 1905.21 1451.07 Q1902.69 1453.67 1898.1 1458.35 Z" fill="#000000" fill-rule="evenodd" fill-opacity="1" /><path clip-path="url(#clip050)" d="M914.353 1526.67 L944.4 1526.67 L944.4 1532.08 L920.783 1532.08 L920.783 1546.14 L943.413 1546.14 L943.413 1551.56 L920.783 1551.56 L920.783 1568.77 L944.972 1568.77 L944.972 1574.19 L914.353 1574.19 L914.353 1526.67 Z" fill="#000000" fill-rule="evenodd" fill-opacity="1" /><path clip-path="url(#clip050)" d="M984.917 1538.54 L972.027 1555.88 L985.586 1574.19 L978.679 1574.19 L968.303 1560.18 L957.927 1574.19 L951.02 1574.19 L964.865 1555.53 L952.198 1538.54 L959.104 1538.54 L968.557 1551.24 L978.011 1538.54 L984.917 1538.54 Z" fill="#000000" fill-rule="evenodd" fill-opacity="1" /><path clip-path="url(#clip050)" d="M1022.35 1554.9 L1022.35 1557.76 L995.421 1557.76 Q995.803 1563.81 999.049 1566.99 Q1002.33 1570.14 1008.15 1570.14 Q1011.53 1570.14 1014.68 1569.32 Q1017.86 1568.49 1020.98 1566.83 L1020.98 1572.37 Q1017.83 1573.71 1014.52 1574.41 Q1011.21 1575.11 1007.8 1575.11 Q999.272 1575.11 994.275 1570.14 Q989.31 1565.18 989.31 1556.71 Q989.31 1547.96 994.02 1542.83 Q998.763 1537.68 1006.78 1537.68 Q1013.98 1537.68 1018.15 1542.33 Q1022.35 1546.94 1022.35 1554.9 M1016.49 1553.18 Q1016.43 1548.37 1013.79 1545.51 Q1011.18 1542.64 1006.85 1542.64 Q1001.95 1542.64 998.986 1545.41 Q996.057 1548.18 995.612 1553.21 L1016.49 1553.18 Z" fill="#000000" fill-rule="evenodd" fill-opacity="1" /><path clip-path="url(#clip050)" d="M1057.61 1539.91 L1057.61 1545.38 Q1055.13 1544.01 1052.62 1543.34 Q1050.13 1542.64 1047.59 1542.64 Q1041.89 1542.64 1038.74 1546.27 Q1035.59 1549.87 1035.59 1556.39 Q1035.59 1562.92 1038.74 1566.55 Q1041.89 1570.14 1047.59 1570.14 Q1050.13 1570.14 1052.62 1569.47 Q1055.13 1568.77 1057.61 1567.41 L1057.61 1572.82 Q1055.16 1573.96 1052.52 1574.54 Q1049.91 1575.11 1046.95 1575.11 Q1038.9 1575.11 1034.16 1570.05 Q1029.41 1564.99 1029.41 1556.39 Q1029.41 1547.67 1034.19 1542.68 Q1038.99 1537.68 1047.33 1537.68 Q1050.04 1537.68 1052.62 1538.25 Q1055.19 1538.79 1057.61 1539.91 Z" fill="#000000" fill-rule="evenodd" fill-opacity="1" /><path clip-path="url(#clip050)" d="M1067.19 1560.12 L1067.19 1538.54 L1073.05 1538.54 L1073.05 1559.89 Q1073.05 1564.96 1075.02 1567.5 Q1077 1570.02 1080.94 1570.02 Q1085.69 1570.02 1088.42 1566.99 Q1091.19 1563.97 1091.19 1558.75 L1091.19 1538.54 L1097.05 1538.54 L1097.05 1574.19 L1091.19 1574.19 L1091.19 1568.71 Q1089.06 1571.96 1086.23 1573.55 Q1083.43 1575.11 1079.7 1575.11 Q1073.56 1575.11 1070.38 1571.29 Q1067.19 1567.47 1067.19 1560.12 M1081.93 1537.68 L1081.93 1537.68 Z" fill="#000000" fill-rule="evenodd" fill-opacity="1" /><path clip-path="url(#clip050)" d="M1114.91 1528.42 L1114.91 1538.54 L1126.97 1538.54 L1126.97 1543.09 L1114.91 1543.09 L1114.91 1562.44 Q1114.91 1566.8 1116.08 1568.04 Q1117.29 1569.28 1120.95 1569.28 L1126.97 1569.28 L1126.97 1574.19 L1120.95 1574.19 Q1114.17 1574.19 1111.59 1571.67 Q1109.02 1569.12 1109.02 1562.44 L1109.02 1543.09 L1104.72 1543.09 L1104.72 1538.54 L1109.02 1538.54 L1109.02 1528.42 L1114.91 1528.42 Z" fill="#000000" fill-rule="evenodd" fill-opacity="1" /><path clip-path="url(#clip050)" d="M1134.67 1538.54 L1140.53 1538.54 L1140.53 1574.19 L1134.67 1574.19 L1134.67 1538.54 M1134.67 1524.66 L1140.53 1524.66 L1140.53 1532.08 L1134.67 1532.08 L1134.67 1524.66 Z" fill="#000000" fill-rule="evenodd" fill-opacity="1" /><path clip-path="url(#clip050)" d="M1166.59 1542.64 Q1161.88 1542.64 1159.15 1546.34 Q1156.41 1550 1156.41 1556.39 Q1156.41 1562.79 1159.11 1566.48 Q1161.85 1570.14 1166.59 1570.14 Q1171.27 1570.14 1174.01 1566.45 Q1176.75 1562.76 1176.75 1556.39 Q1176.75 1550.06 1174.01 1546.37 Q1171.27 1542.64 1166.59 1542.64 M1166.59 1537.68 Q1174.23 1537.68 1178.59 1542.64 Q1182.95 1547.61 1182.95 1556.39 Q1182.95 1565.15 1178.59 1570.14 Q1174.23 1575.11 1166.59 1575.11 Q1158.92 1575.11 1154.56 1570.14 Q1150.23 1565.15 1150.23 1556.39 Q1150.23 1547.61 1154.56 1542.64 Q1158.92 1537.68 1166.59 1537.68 Z" fill="#000000" fill-rule="evenodd" fill-opacity="1" /><path clip-path="url(#clip050)" d="M1222.29 1552.67 L1222.29 1574.19 L1216.44 1574.19 L1216.44 1552.86 Q1216.44 1547.8 1214.46 1545.29 Q1212.49 1542.77 1208.54 1542.77 Q1203.8 1542.77 1201.06 1545.79 Q1198.33 1548.82 1198.33 1554.04 L1198.33 1574.19 L1192.44 1574.19 L1192.44 1538.54 L1198.33 1538.54 L1198.33 1544.08 Q1200.43 1540.86 1203.26 1539.27 Q1206.13 1537.68 1209.85 1537.68 Q1215.99 1537.68 1219.14 1541.5 Q1222.29 1545.29 1222.29 1552.67 Z" fill="#000000" fill-rule="evenodd" fill-opacity="1" /><path clip-path="url(#clip050)" d="M1260.49 1528.42 L1260.49 1538.54 L1272.55 1538.54 L1272.55 1543.09 L1260.49 1543.09 L1260.49 1562.44 Q1260.49 1566.8 1261.67 1568.04 Q1262.88 1569.28 1266.54 1569.28 L1272.55 1569.28 L1272.55 1574.19 L1266.54 1574.19 Q1259.76 1574.19 1257.18 1571.67 Q1254.6 1569.12 1254.6 1562.44 L1254.6 1543.09 L1250.3 1543.09 L1250.3 1538.54 L1254.6 1538.54 L1254.6 1528.42 L1260.49 1528.42 Z" fill="#000000" fill-rule="evenodd" fill-opacity="1" /><path clip-path="url(#clip050)" d="M1280.25 1538.54 L1286.11 1538.54 L1286.11 1574.19 L1280.25 1574.19 L1280.25 1538.54 M1280.25 1524.66 L1286.11 1524.66 L1286.11 1532.08 L1280.25 1532.08 L1280.25 1524.66 Z" fill="#000000" fill-rule="evenodd" fill-opacity="1" /><path clip-path="url(#clip050)" d="M1326.12 1545.38 Q1328.32 1541.43 1331.37 1539.56 Q1334.43 1537.68 1338.56 1537.68 Q1344.13 1537.68 1347.16 1541.59 Q1350.18 1545.48 1350.18 1552.67 L1350.18 1574.19 L1344.29 1574.19 L1344.29 1552.86 Q1344.29 1547.74 1342.48 1545.25 Q1340.66 1542.77 1336.94 1542.77 Q1332.39 1542.77 1329.75 1545.79 Q1327.11 1548.82 1327.11 1554.04 L1327.11 1574.19 L1321.22 1574.19 L1321.22 1552.86 Q1321.22 1547.7 1319.4 1545.25 Q1317.59 1542.77 1313.8 1542.77 Q1309.31 1542.77 1306.67 1545.83 Q1304.03 1548.85 1304.03 1554.04 L1304.03 1574.19 L1298.14 1574.19 L1298.14 1538.54 L1304.03 1538.54 L1304.03 1544.08 Q1306.04 1540.8 1308.84 1539.24 Q1311.64 1537.68 1315.49 1537.68 Q1319.37 1537.68 1322.08 1539.65 Q1324.81 1541.62 1326.12 1545.38 Z" fill="#000000" fill-rule="evenodd" fill-opacity="1" /><path clip-path="url(#clip050)" d="M1392.35 1554.9 L1392.35 1557.76 L1365.43 1557.76 Q1365.81 1563.81 1369.06 1566.99 Q1372.33 1570.14 1378.16 1570.14 Q1381.53 1570.14 1384.68 1569.32 Q1387.87 1568.49 1390.99 1566.83 L1390.99 1572.37 Q1387.83 1573.71 1384.52 1574.41 Q1381.21 1575.11 1377.81 1575.11 Q1369.28 1575.11 1364.28 1570.14 Q1359.32 1565.18 1359.32 1556.71 Q1359.32 1547.96 1364.03 1542.83 Q1368.77 1537.68 1376.79 1537.68 Q1383.98 1537.68 1388.15 1542.33 Q1392.35 1546.94 1392.35 1554.9 M1386.5 1553.18 Q1386.43 1548.37 1383.79 1545.51 Q1381.18 1542.64 1376.85 1542.64 Q1371.95 1542.64 1368.99 1545.41 Q1366.06 1548.18 1365.62 1553.21 L1386.5 1553.18 Z" fill="#000000" fill-rule="evenodd" fill-opacity="1" /><path clip-path="url(#clip050)" d="M1436.76 1524.72 Q1432.49 1532.04 1430.42 1539.21 Q1428.35 1546.37 1428.35 1553.72 Q1428.35 1561.07 1430.42 1568.3 Q1432.52 1575.49 1436.76 1582.78 L1431.66 1582.78 Q1426.89 1575.3 1424.5 1568.07 Q1422.15 1560.85 1422.15 1553.72 Q1422.15 1546.62 1424.5 1539.43 Q1426.86 1532.24 1431.66 1524.72 L1436.76 1524.72 Z" fill="#000000" fill-rule="evenodd" fill-opacity="1" /><path clip-path="url(#clip050)" d="M1470.84 1539.59 L1470.84 1545.13 Q1468.36 1543.85 1465.69 1543.22 Q1463.01 1542.58 1460.15 1542.58 Q1455.79 1542.58 1453.59 1543.92 Q1451.43 1545.25 1451.43 1547.93 Q1451.43 1549.96 1452.99 1551.14 Q1454.55 1552.29 1459.26 1553.34 L1461.26 1553.78 Q1467.5 1555.12 1470.11 1557.57 Q1472.75 1559.99 1472.75 1564.35 Q1472.75 1569.32 1468.81 1572.21 Q1464.89 1575.11 1458.02 1575.11 Q1455.15 1575.11 1452.03 1574.54 Q1448.95 1573.99 1445.51 1572.88 L1445.51 1566.83 Q1448.75 1568.52 1451.91 1569.38 Q1455.06 1570.21 1458.14 1570.21 Q1462.28 1570.21 1464.51 1568.81 Q1466.74 1567.37 1466.74 1564.8 Q1466.74 1562.41 1465.11 1561.14 Q1463.52 1559.86 1458.08 1558.68 L1456.04 1558.21 Q1450.6 1557.06 1448.18 1554.71 Q1445.76 1552.32 1445.76 1548.18 Q1445.76 1543.15 1449.33 1540.42 Q1452.89 1537.68 1459.45 1537.68 Q1462.7 1537.68 1465.56 1538.16 Q1468.42 1538.63 1470.84 1539.59 Z" fill="#000000" fill-rule="evenodd" fill-opacity="1" /><path clip-path="url(#clip050)" d="M1507.73 1539.91 L1507.73 1545.38 Q1505.25 1544.01 1502.74 1543.34 Q1500.25 1542.64 1497.71 1542.64 Q1492.01 1542.64 1488.86 1546.27 Q1485.71 1549.87 1485.71 1556.39 Q1485.71 1562.92 1488.86 1566.55 Q1492.01 1570.14 1497.71 1570.14 Q1500.25 1570.14 1502.74 1569.47 Q1505.25 1568.77 1507.73 1567.41 L1507.73 1572.82 Q1505.28 1573.96 1502.64 1574.54 Q1500.03 1575.11 1497.07 1575.11 Q1489.02 1575.11 1484.28 1570.05 Q1479.53 1564.99 1479.53 1556.39 Q1479.53 1547.67 1484.31 1542.68 Q1489.11 1537.68 1497.45 1537.68 Q1500.16 1537.68 1502.74 1538.25 Q1505.31 1538.79 1507.73 1539.91 Z" fill="#000000" fill-rule="evenodd" fill-opacity="1" /><path clip-path="url(#clip050)" d="M1519.41 1566.1 L1526.13 1566.1 L1526.13 1571.58 L1520.91 1581.76 L1516.8 1581.76 L1519.41 1571.58 L1519.41 1566.1 Z" fill="#000000" fill-rule="evenodd" fill-opacity="1" /><path clip-path="url(#clip050)" d="M1559.61 1526.67 L1566.04 1526.67 L1566.04 1568.77 L1589.18 1568.77 L1589.18 1574.19 L1559.61 1574.19 L1559.61 1526.67 Z" fill="#000000" fill-rule="evenodd" fill-opacity="1" /><path clip-path="url(#clip050)" d="M1608.34 1542.64 Q1603.63 1542.64 1600.89 1546.34 Q1598.16 1550 1598.16 1556.39 Q1598.16 1562.79 1600.86 1566.48 Q1603.6 1570.14 1608.34 1570.14 Q1613.02 1570.14 1615.76 1566.45 Q1618.5 1562.76 1618.5 1556.39 Q1618.5 1550.06 1615.76 1546.37 Q1613.02 1542.64 1608.34 1542.64 M1608.34 1537.68 Q1615.98 1537.68 1620.34 1542.64 Q1624.7 1547.61 1624.7 1556.39 Q1624.7 1565.15 1620.34 1570.14 Q1615.98 1575.11 1608.34 1575.11 Q1600.67 1575.11 1596.31 1570.14 Q1591.98 1565.15 1591.98 1556.39 Q1591.98 1547.61 1596.31 1542.64 Q1600.67 1537.68 1608.34 1537.68 Z" fill="#000000" fill-rule="evenodd" fill-opacity="1" /><path clip-path="url(#clip050)" d="M1657.87 1555.95 Q1657.87 1549.58 1655.23 1546.08 Q1652.62 1542.58 1647.87 1542.58 Q1643.16 1542.58 1640.52 1546.08 Q1637.91 1549.58 1637.91 1555.95 Q1637.91 1562.28 1640.52 1565.78 Q1643.16 1569.28 1647.87 1569.28 Q1652.62 1569.28 1655.23 1565.78 Q1657.87 1562.28 1657.87 1555.95 M1663.72 1569.76 Q1663.72 1578.86 1659.68 1583.29 Q1655.64 1587.74 1647.3 1587.74 Q1644.21 1587.74 1641.48 1587.27 Q1638.74 1586.82 1636.16 1585.87 L1636.16 1580.17 Q1638.74 1581.57 1641.25 1582.24 Q1643.77 1582.91 1646.38 1582.91 Q1652.14 1582.91 1655 1579.88 Q1657.87 1576.89 1657.87 1570.81 L1657.87 1567.92 Q1656.05 1571.07 1653.22 1572.63 Q1650.39 1574.19 1646.44 1574.19 Q1639.88 1574.19 1635.87 1569.19 Q1631.86 1564.19 1631.86 1555.95 Q1631.86 1547.67 1635.87 1542.68 Q1639.88 1537.68 1646.44 1537.68 Q1650.39 1537.68 1653.22 1539.24 Q1656.05 1540.8 1657.87 1543.95 L1657.87 1538.54 L1663.72 1538.54 L1663.72 1569.76 Z" fill="#000000" fill-rule="evenodd" fill-opacity="1" /><path clip-path="url(#clip050)" d="M1674.86 1524.72 L1679.96 1524.72 Q1684.73 1532.24 1687.09 1539.43 Q1689.47 1546.62 1689.47 1553.72 Q1689.47 1560.85 1687.09 1568.07 Q1684.73 1575.3 1679.96 1582.78 L1674.86 1582.78 Q1679.1 1575.49 1681.17 1568.3 Q1683.27 1561.07 1683.27 1553.72 Q1683.27 1546.37 1681.17 1539.21 Q1679.1 1532.04 1674.86 1524.72 Z" fill="#000000" fill-rule="evenodd" fill-opacity="1" /><polyline clip-path="url(#clip052)" style="stroke:#000000; stroke-linecap:butt; stroke-linejoin:round; stroke-width:2; stroke-opacity:0.1; fill:none" points="
  251.071,1209.6 2352.76,1209.6 
  "/>
<polyline clip-path="url(#clip052)" style="stroke:#000000; stroke-linecap:butt; stroke-linejoin:round; stroke-width:2; stroke-opacity:0.1; fill:none" points="
  251.071,534.184 2352.76,534.184 
  "/>
<polyline clip-path="url(#clip050)" style="stroke:#000000; stroke-linecap:butt; stroke-linejoin:round; stroke-width:4; stroke-opacity:1; fill:none" points="
  251.071,1410.9 251.071,47.2441 
  "/>
<polyline clip-path="url(#clip050)" style="stroke:#000000; stroke-linecap:butt; stroke-linejoin:round; stroke-width:4; stroke-opacity:1; fill:none" points="
  2352.76,1410.9 2352.76,47.2441 
  "/>
<polyline clip-path="url(#clip050)" style="stroke:#000000; stroke-linecap:butt; stroke-linejoin:round; stroke-width:4; stroke-opacity:1; fill:none" points="
  251.071,1209.6 269.969,1209.6 
  "/>
<polyline clip-path="url(#clip050)" style="stroke:#000000; stroke-linecap:butt; stroke-linejoin:round; stroke-width:4; stroke-opacity:1; fill:none" points="
  251.071,534.184 269.969,534.184 
  "/>
<path clip-path="url(#clip050)" d="M114.931 1229.39 L122.57 1229.39 L122.57 1203.02 L114.26 1204.69 L114.26 1200.43 L122.524 1198.76 L127.2 1198.76 L127.2 1229.39 L134.839 1229.39 L134.839 1233.32 L114.931 1233.32 L114.931 1229.39 Z" fill="#000000" fill-rule="evenodd" fill-opacity="1" /><path clip-path="url(#clip050)" d="M154.283 1201.84 Q150.672 1201.84 148.843 1205.41 Q147.038 1208.95 147.038 1216.08 Q147.038 1223.18 148.843 1226.75 Q150.672 1230.29 154.283 1230.29 Q157.917 1230.29 159.723 1226.75 Q161.552 1223.18 161.552 1216.08 Q161.552 1208.95 159.723 1205.41 Q157.917 1201.84 154.283 1201.84 M154.283 1198.14 Q160.093 1198.14 163.149 1202.74 Q166.227 1207.33 166.227 1216.08 Q166.227 1224.8 163.149 1229.41 Q160.093 1233.99 154.283 1233.99 Q148.473 1233.99 145.394 1229.41 Q142.339 1224.8 142.339 1216.08 Q142.339 1207.33 145.394 1202.74 Q148.473 1198.14 154.283 1198.14 Z" fill="#000000" fill-rule="evenodd" fill-opacity="1" /><path clip-path="url(#clip050)" d="M166.227 1192.24 L190.339 1192.24 L190.339 1195.44 L166.227 1195.44 L166.227 1192.24 Z" fill="#000000" fill-rule="evenodd" fill-opacity="1" /><path clip-path="url(#clip050)" d="M201.812 1202.72 L215.071 1202.72 L215.071 1205.91 L197.241 1205.91 L197.241 1202.72 Q199.404 1200.48 203.128 1196.72 Q206.871 1192.94 207.83 1191.84 Q209.655 1189.79 210.369 1188.38 Q211.103 1186.95 211.103 1185.58 Q211.103 1183.34 209.523 1181.93 Q207.962 1180.52 205.442 1180.52 Q203.655 1180.52 201.661 1181.14 Q199.686 1181.76 197.43 1183.02 L197.43 1179.19 Q199.724 1178.27 201.718 1177.8 Q203.711 1177.32 205.366 1177.32 Q209.73 1177.32 212.325 1179.51 Q214.921 1181.69 214.921 1185.34 Q214.921 1187.07 214.263 1188.63 Q213.623 1190.17 211.912 1192.28 Q211.441 1192.82 208.921 1195.44 Q206.401 1198.03 201.812 1202.72 Z" fill="#000000" fill-rule="evenodd" fill-opacity="1" /><path clip-path="url(#clip050)" d="M144.366 553.977 L152.004 553.977 L152.004 527.611 L143.694 529.278 L143.694 525.019 L151.958 523.352 L156.634 523.352 L156.634 553.977 L164.273 553.977 L164.273 557.912 L144.366 557.912 L144.366 553.977 Z" fill="#000000" fill-rule="evenodd" fill-opacity="1" /><path clip-path="url(#clip050)" d="M183.717 526.431 Q180.106 526.431 178.277 529.995 Q176.472 533.537 176.472 540.667 Q176.472 547.773 178.277 551.338 Q180.106 554.879 183.717 554.879 Q187.351 554.879 189.157 551.338 Q190.986 547.773 190.986 540.667 Q190.986 533.537 189.157 529.995 Q187.351 526.431 183.717 526.431 M183.717 522.727 Q189.527 522.727 192.583 527.333 Q195.662 531.917 195.662 540.667 Q195.662 549.393 192.583 554 Q189.527 558.583 183.717 558.583 Q177.907 558.583 174.828 554 Q171.773 549.393 171.773 540.667 Q171.773 531.917 174.828 527.333 Q177.907 522.727 183.717 522.727 Z" fill="#000000" fill-rule="evenodd" fill-opacity="1" /><path clip-path="url(#clip050)" d="M205.366 504.923 Q202.432 504.923 200.947 507.819 Q199.48 510.697 199.48 516.49 Q199.48 522.264 200.947 525.16 Q202.432 528.038 205.366 528.038 Q208.319 528.038 209.786 525.16 Q211.272 522.264 211.272 516.49 Q211.272 510.697 209.786 507.819 Q208.319 504.923 205.366 504.923 M205.366 501.914 Q210.087 501.914 212.57 505.656 Q215.071 509.38 215.071 516.49 Q215.071 523.58 212.57 527.323 Q210.087 531.047 205.366 531.047 Q200.646 531.047 198.144 527.323 Q195.662 523.58 195.662 516.49 Q195.662 509.38 198.144 505.656 Q200.646 501.914 205.366 501.914 Z" fill="#000000" fill-rule="evenodd" fill-opacity="1" /><path clip-path="url(#clip050)" d="M16.4842 1034.96 L16.4842 1004.91 L21.895 1004.91 L21.895 1028.53 L35.9632 1028.53 L35.9632 1005.9 L41.3741 1005.9 L41.3741 1028.53 L58.5933 1028.53 L58.5933 1004.34 L64.0042 1004.34 L64.0042 1034.96 L16.4842 1034.96 Z" fill="#000000" fill-rule="evenodd" fill-opacity="1" /><path clip-path="url(#clip050)" d="M33.8307 973.37 Q33.2578 974.357 33.0032 975.535 Q32.7167 976.68 32.7167 978.081 Q32.7167 983.046 35.9632 985.72 Q39.1779 988.362 45.2253 988.362 L64.0042 988.362 L64.0042 994.25 L28.3562 994.25 L28.3562 988.362 L33.8944 988.362 Q30.6479 986.515 29.0883 983.555 Q27.4968 980.595 27.4968 976.362 Q27.4968 975.757 27.5923 975.025 Q27.656 974.293 27.8151 973.402 L33.8307 973.37 Z" fill="#000000" fill-rule="evenodd" fill-opacity="1" /><path clip-path="url(#clip050)" d="M33.8307 947.716 Q33.2578 948.703 33.0032 949.881 Q32.7167 951.027 32.7167 952.427 Q32.7167 957.392 35.9632 960.066 Q39.1779 962.708 45.2253 962.708 L64.0042 962.708 L64.0042 968.596 L28.3562 968.596 L28.3562 962.708 L33.8944 962.708 Q30.6479 960.862 29.0883 957.902 Q27.4968 954.942 27.4968 950.708 Q27.4968 950.104 27.5923 949.372 Q27.656 948.64 27.8151 947.748 L33.8307 947.716 Z" fill="#000000" fill-rule="evenodd" fill-opacity="1" /><path clip-path="url(#clip050)" d="M32.4621 929.192 Q32.4621 933.903 36.1542 936.64 Q39.8145 939.377 46.212 939.377 Q52.6095 939.377 56.3017 936.672 Q59.9619 933.935 59.9619 929.192 Q59.9619 924.513 56.2698 921.776 Q52.5777 919.039 46.212 919.039 Q39.8781 919.039 36.186 921.776 Q32.4621 924.513 32.4621 929.192 M27.4968 929.192 Q27.4968 921.553 32.4621 917.193 Q37.4273 912.832 46.212 912.832 Q54.9649 912.832 59.9619 917.193 Q64.9272 921.553 64.9272 929.192 Q64.9272 936.863 59.9619 941.223 Q54.9649 945.552 46.212 945.552 Q37.4273 945.552 32.4621 941.223 Q27.4968 936.863 27.4968 929.192 Z" fill="#000000" fill-rule="evenodd" fill-opacity="1" /><path clip-path="url(#clip050)" d="M33.8307 882.468 Q33.2578 883.455 33.0032 884.632 Q32.7167 885.778 32.7167 887.179 Q32.7167 892.144 35.9632 894.817 Q39.1779 897.459 45.2253 897.459 L64.0042 897.459 L64.0042 903.348 L28.3562 903.348 L28.3562 897.459 L33.8944 897.459 Q30.6479 895.613 29.0883 892.653 Q27.4968 889.693 27.4968 885.46 Q27.4968 884.855 27.5923 884.123 Q27.656 883.391 27.8151 882.5 L33.8307 882.468 Z" fill="#000000" fill-rule="evenodd" fill-opacity="1" /><path clip-path="url(#clip050)" d="M55.9197 875.975 L55.9197 869.259 L64.0042 869.259 L64.0042 875.975 L55.9197 875.975 M30.2977 875.975 L30.2977 869.259 L38.3822 869.259 L38.3822 875.975 L30.2977 875.975 Z" fill="#000000" fill-rule="evenodd" fill-opacity="1" /><path clip-path="url(#clip050)" d="M58.5933 828.423 L58.5933 805.984 L64.0042 805.984 L64.0042 836.157 L58.5933 836.157 Q54.8057 832.497 48.44 826.195 Q42.0425 819.861 40.1964 818.238 Q36.7271 815.151 34.34 813.941 Q31.921 812.7 29.5975 812.7 Q25.8099 812.7 23.4228 815.373 Q21.0356 818.015 21.0356 822.28 Q21.0356 825.304 22.086 828.678 Q23.1363 832.02 25.2688 835.839 L18.7758 835.839 Q17.2162 831.956 16.4205 828.582 Q15.6248 825.208 15.6248 822.408 Q15.6248 815.023 19.3169 810.631 Q23.009 806.239 29.1837 806.239 Q32.112 806.239 34.7537 807.353 Q37.3637 808.435 40.9285 811.331 Q41.8515 812.127 46.2757 816.392 Q50.668 820.657 58.5933 828.423 Z" fill="#000000" fill-rule="evenodd" fill-opacity="1" /><path clip-path="url(#clip050)" d="M43.5384 796.276 L43.5384 779.121 L48.7583 779.121 L48.7583 796.276 L43.5384 796.276 Z" fill="#000000" fill-rule="evenodd" fill-opacity="1" /><path clip-path="url(#clip050)" d="M42.4881 740.163 L64.0042 740.163 L64.0042 746.019 L42.679 746.019 Q37.6183 746.019 35.1038 747.992 Q32.5894 749.966 32.5894 753.913 Q32.5894 758.655 35.6131 761.392 Q38.6368 764.129 43.8567 764.129 L64.0042 764.129 L64.0042 770.018 L28.3562 770.018 L28.3562 764.129 L33.8944 764.129 Q30.6797 762.029 29.0883 759.196 Q27.4968 756.332 27.4968 752.608 Q27.4968 746.465 31.3163 743.314 Q35.1038 740.163 42.4881 740.163 Z" fill="#000000" fill-rule="evenodd" fill-opacity="1" /><path clip-path="url(#clip050)" d="M32.4621 714.668 Q32.4621 719.379 36.1542 722.116 Q39.8145 724.853 46.212 724.853 Q52.6095 724.853 56.3017 722.148 Q59.9619 719.41 59.9619 714.668 Q59.9619 709.989 56.2698 707.252 Q52.5777 704.515 46.212 704.515 Q39.8781 704.515 36.186 707.252 Q32.4621 709.989 32.4621 714.668 M27.4968 714.668 Q27.4968 707.029 32.4621 702.669 Q37.4273 698.308 46.212 698.308 Q54.9649 698.308 59.9619 702.669 Q64.9272 707.029 64.9272 714.668 Q64.9272 722.339 59.9619 726.699 Q54.9649 731.028 46.212 731.028 Q37.4273 731.028 32.4621 726.699 Q27.4968 722.339 27.4968 714.668 Z" fill="#000000" fill-rule="evenodd" fill-opacity="1" /><path clip-path="url(#clip050)" d="M33.8307 667.944 Q33.2578 668.93 33.0032 670.108 Q32.7167 671.254 32.7167 672.654 Q32.7167 677.62 35.9632 680.293 Q39.1779 682.935 45.2253 682.935 L64.0042 682.935 L64.0042 688.823 L28.3562 688.823 L28.3562 682.935 L33.8944 682.935 Q30.6479 681.089 29.0883 678.129 Q27.4968 675.169 27.4968 670.936 Q27.4968 670.331 27.5923 669.599 Q27.656 668.867 27.8151 667.975 L33.8307 667.944 Z" fill="#000000" fill-rule="evenodd" fill-opacity="1" /><path clip-path="url(#clip050)" d="M35.1993 635.192 Q31.2526 632.996 29.3747 629.94 Q27.4968 626.885 27.4968 622.747 Q27.4968 617.177 31.4117 614.153 Q35.2948 611.13 42.4881 611.13 L64.0042 611.13 L64.0042 617.018 L42.679 617.018 Q37.5546 617.018 35.072 618.832 Q32.5894 620.646 32.5894 624.37 Q32.5894 628.922 35.6131 631.564 Q38.6368 634.205 43.8567 634.205 L64.0042 634.205 L64.0042 640.094 L42.679 640.094 Q37.5228 640.094 35.072 641.908 Q32.5894 643.722 32.5894 647.51 Q32.5894 651.998 35.6449 654.639 Q38.6686 657.281 43.8567 657.281 L64.0042 657.281 L64.0042 663.169 L28.3562 663.169 L28.3562 657.281 L33.8944 657.281 Q30.616 655.276 29.0564 652.475 Q27.4968 649.674 27.4968 645.823 Q27.4968 641.94 29.4702 639.234 Q31.4436 636.497 35.1993 635.192 Z" fill="#000000" fill-rule="evenodd" fill-opacity="1" /><path clip-path="url(#clip050)" d="M14.5426 564.66 Q21.8632 568.925 29.0246 570.994 Q36.186 573.063 43.5384 573.063 Q50.8908 573.063 58.1159 570.994 Q65.3091 568.893 72.5979 564.66 L72.5979 569.753 Q65.1182 574.527 57.8931 576.914 Q50.668 579.269 43.5384 579.269 Q36.4406 579.269 29.2474 576.914 Q22.0542 574.559 14.5426 569.753 L14.5426 564.66 Z" fill="#000000" fill-rule="evenodd" fill-opacity="1" /><path clip-path="url(#clip050)" d="M16.4842 553.043 L16.4842 546.613 L58.5933 546.613 L58.5933 523.474 L64.0042 523.474 L64.0042 553.043 L16.4842 553.043 Z" fill="#000000" fill-rule="evenodd" fill-opacity="1" /><path clip-path="url(#clip050)" d="M32.4621 504.313 Q32.4621 509.024 36.1542 511.761 Q39.8145 514.498 46.212 514.498 Q52.6095 514.498 56.3017 511.793 Q59.9619 509.056 59.9619 504.313 Q59.9619 499.634 56.2698 496.897 Q52.5777 494.16 46.212 494.16 Q39.8781 494.16 36.186 496.897 Q32.4621 499.634 32.4621 504.313 M27.4968 504.313 Q27.4968 496.674 32.4621 492.314 Q37.4273 487.953 46.212 487.953 Q54.9649 487.953 59.9619 492.314 Q64.9272 496.674 64.9272 504.313 Q64.9272 511.984 59.9619 516.344 Q54.9649 520.673 46.212 520.673 Q37.4273 520.673 32.4621 516.344 Q27.4968 511.984 27.4968 504.313 Z" fill="#000000" fill-rule="evenodd" fill-opacity="1" /><path clip-path="url(#clip050)" d="M45.7664 454.788 Q39.4007 454.788 35.8996 457.43 Q32.3984 460.04 32.3984 464.782 Q32.3984 469.493 35.8996 472.135 Q39.4007 474.744 45.7664 474.744 Q52.1003 474.744 55.6014 472.135 Q59.1026 469.493 59.1026 464.782 Q59.1026 460.04 55.6014 457.43 Q52.1003 454.788 45.7664 454.788 M59.58 448.932 Q68.683 448.932 73.1071 452.974 Q77.5631 457.016 77.5631 465.355 Q77.5631 468.442 77.0857 471.18 Q76.6401 473.917 75.6852 476.495 L69.9879 476.495 Q71.3884 473.917 72.0568 471.402 Q72.7252 468.888 72.7252 466.278 Q72.7252 460.517 69.7015 457.653 Q66.7096 454.788 60.6303 454.788 L57.7339 454.788 Q60.885 456.602 62.4446 459.435 Q64.0042 462.268 64.0042 466.214 Q64.0042 472.771 59.0071 476.782 Q54.01 480.792 45.7664 480.792 Q37.491 480.792 32.4939 476.782 Q27.4968 472.771 27.4968 466.214 Q27.4968 462.268 29.0564 459.435 Q30.616 456.602 33.7671 454.788 L28.3562 454.788 L28.3562 448.932 L59.58 448.932 Z" fill="#000000" fill-rule="evenodd" fill-opacity="1" /><path clip-path="url(#clip050)" d="M14.5426 437.792 L14.5426 432.699 Q22.0542 427.925 29.2474 425.569 Q36.4406 423.182 43.5384 423.182 Q50.668 423.182 57.8931 425.569 Q65.1182 427.925 72.5979 432.699 L72.5979 437.792 Q65.3091 433.558 58.1159 431.489 Q50.8908 429.389 43.5384 429.389 Q36.186 429.389 29.0246 431.489 Q21.8632 433.558 14.5426 437.792 Z" fill="#000000" fill-rule="evenodd" fill-opacity="1" /><polyline clip-path="url(#clip052)" style="stroke:#009af9; stroke-linecap:butt; stroke-linejoin:round; stroke-width:12; stroke-opacity:1; fill:none" points="
  364.056,601.509 712.981,758.037 1078.85,912.915 1424.31,1066.48 1796.43,1219.45 2153.88,1372.16 
  "/>
<circle clip-path="url(#clip052)" cx="364.056" cy="601.509" r="18" fill="#009af9" fill-rule="evenodd" fill-opacity="1" stroke="#000000" stroke-opacity="1" stroke-width="3.2"/>
<circle clip-path="url(#clip052)" cx="712.981" cy="758.037" r="18" fill="#009af9" fill-rule="evenodd" fill-opacity="1" stroke="#000000" stroke-opacity="1" stroke-width="3.2"/>
<circle clip-path="url(#clip052)" cx="1078.85" cy="912.915" r="18" fill="#009af9" fill-rule="evenodd" fill-opacity="1" stroke="#000000" stroke-opacity="1" stroke-width="3.2"/>
<circle clip-path="url(#clip052)" cx="1424.31" cy="1066.48" r="18" fill="#009af9" fill-rule="evenodd" fill-opacity="1" stroke="#000000" stroke-opacity="1" stroke-width="3.2"/>
<circle clip-path="url(#clip052)" cx="1796.43" cy="1219.45" r="18" fill="#009af9" fill-rule="evenodd" fill-opacity="1" stroke="#000000" stroke-opacity="1" stroke-width="3.2"/>
<circle clip-path="url(#clip052)" cx="2153.88" cy="1372.16" r="18" fill="#009af9" fill-rule="evenodd" fill-opacity="1" stroke="#000000" stroke-opacity="1" stroke-width="3.2"/>
<polyline clip-path="url(#clip052)" style="stroke:#e26f46; stroke-linecap:butt; stroke-linejoin:round; stroke-width:12; stroke-opacity:1; fill:none" points="
  367.039,611.313 671.627,762.095 1029.07,914.517 1384.89,1067.15 1761.11,1219.75 2114.78,1372.3 
  "/>
<path clip-path="url(#clip052)" d="M347.039 591.313 L347.039 631.313 L387.039 631.313 L387.039 591.313 L347.039 591.313 Z" fill="#e26f46" fill-rule="evenodd" fill-opacity="1" stroke="#000000" stroke-opacity="1" stroke-width="3.2"/>
<path clip-path="url(#clip052)" d="M651.627 742.095 L651.627 782.095 L691.627 782.095 L691.627 742.095 L651.627 742.095 Z" fill="#e26f46" fill-rule="evenodd" fill-opacity="1" stroke="#000000" stroke-opacity="1" stroke-width="3.2"/>
<path clip-path="url(#clip052)" d="M1009.07 894.517 L1009.07 934.517 L1049.07 934.517 L1049.07 894.517 L1009.07 894.517 Z" fill="#e26f46" fill-rule="evenodd" fill-opacity="1" stroke="#000000" stroke-opacity="1" stroke-width="3.2"/>
<path clip-path="url(#clip052)" d="M1364.89 1047.15 L1364.89 1087.15 L1404.89 1087.15 L1404.89 1047.15 L1364.89 1047.15 Z" fill="#e26f46" fill-rule="evenodd" fill-opacity="1" stroke="#000000" stroke-opacity="1" stroke-width="3.2"/>
<path clip-path="url(#clip052)" d="M1741.11 1199.75 L1741.11 1239.75 L1781.11 1239.75 L1781.11 1199.75 L1741.11 1199.75 Z" fill="#e26f46" fill-rule="evenodd" fill-opacity="1" stroke="#000000" stroke-opacity="1" stroke-width="3.2"/>
<path clip-path="url(#clip052)" d="M2094.78 1352.3 L2094.78 1392.3 L2134.78 1392.3 L2134.78 1352.3 L2094.78 1352.3 Z" fill="#e26f46" fill-rule="evenodd" fill-opacity="1" stroke="#000000" stroke-opacity="1" stroke-width="3.2"/>
<polyline clip-path="url(#clip052)" style="stroke:#3da44d; stroke-linecap:butt; stroke-linejoin:round; stroke-width:12; stroke-opacity:1; fill:none" points="
  310.553,85.838 642.457,218.053 1025.89,308.224 1369.64,377.691 1728.03,437.53 2074.67,492.79 
  "/>
<path clip-path="url(#clip052)" d="M326.553 85.838 L302.553 71.838 L302.553 99.838 L326.553 85.838 Z" fill="#3da44d" fill-rule="evenodd" fill-opacity="1" stroke="#000000" stroke-opacity="1" stroke-width="3.2"/>
<path clip-path="url(#clip052)" d="M658.457 218.053 L634.457 204.053 L634.457 232.053 L658.457 218.053 Z" fill="#3da44d" fill-rule="evenodd" fill-opacity="1" stroke="#000000" stroke-opacity="1" stroke-width="3.2"/>
<path clip-path="url(#clip052)" d="M1041.89 308.224 L1017.89 294.224 L1017.89 322.224 L1041.89 308.224 Z" fill="#3da44d" fill-rule="evenodd" fill-opacity="1" stroke="#000000" stroke-opacity="1" stroke-width="3.2"/>
<path clip-path="url(#clip052)" d="M1385.64 377.691 L1361.64 363.691 L1361.64 391.691 L1385.64 377.691 Z" fill="#3da44d" fill-rule="evenodd" fill-opacity="1" stroke="#000000" stroke-opacity="1" stroke-width="3.2"/>
<path clip-path="url(#clip052)" d="M1744.03 437.53 L1720.03 423.53 L1720.03 451.53 L1744.03 437.53 Z" fill="#3da44d" fill-rule="evenodd" fill-opacity="1" stroke="#000000" stroke-opacity="1" stroke-width="3.2"/>
<path clip-path="url(#clip052)" d="M2090.67 492.79 L2066.67 478.79 L2066.67 506.79 L2090.67 492.79 Z" fill="#3da44d" fill-rule="evenodd" fill-opacity="1" stroke="#000000" stroke-opacity="1" stroke-width="3.2"/>
<polyline clip-path="url(#clip052)" style="stroke:#c271d2; stroke-linecap:butt; stroke-linejoin:round; stroke-width:12; stroke-opacity:1; fill:none" points="
  407.525,350.533 776.794,353.939 1099.21,376.375 1447.53,411.753 1827.28,454.551 2159.89,501.293 
  "/>
<path clip-path="url(#clip052)" d="M407.525 330.533 L387.525 350.533 L407.525 370.533 L427.525 350.533 L407.525 330.533 Z" fill="#c271d2" fill-rule="evenodd" fill-opacity="1" stroke="#000000" stroke-opacity="1" stroke-width="3.2"/>
<path clip-path="url(#clip052)" d="M776.794 333.939 L756.794 353.939 L776.794 373.939 L796.794 353.939 L776.794 333.939 Z" fill="#c271d2" fill-rule="evenodd" fill-opacity="1" stroke="#000000" stroke-opacity="1" stroke-width="3.2"/>
<path clip-path="url(#clip052)" d="M1099.21 356.375 L1079.21 376.375 L1099.21 396.375 L1119.21 376.375 L1099.21 356.375 Z" fill="#c271d2" fill-rule="evenodd" fill-opacity="1" stroke="#000000" stroke-opacity="1" stroke-width="3.2"/>
<path clip-path="url(#clip052)" d="M1447.53 391.753 L1427.53 411.753 L1447.53 431.753 L1467.53 411.753 L1447.53 391.753 Z" fill="#c271d2" fill-rule="evenodd" fill-opacity="1" stroke="#000000" stroke-opacity="1" stroke-width="3.2"/>
<path clip-path="url(#clip052)" d="M1827.28 434.551 L1807.28 454.551 L1827.28 474.551 L1847.28 454.551 L1827.28 434.551 Z" fill="#c271d2" fill-rule="evenodd" fill-opacity="1" stroke="#000000" stroke-opacity="1" stroke-width="3.2"/>
<path clip-path="url(#clip052)" d="M2159.89 481.293 L2139.89 501.293 L2159.89 521.293 L2179.89 501.293 L2159.89 481.293 Z" fill="#c271d2" fill-rule="evenodd" fill-opacity="1" stroke="#000000" stroke-opacity="1" stroke-width="3.2"/>
<polyline clip-path="url(#clip052)" style="stroke:#ac8d18; stroke-linecap:butt; stroke-linejoin:round; stroke-width:12; stroke-opacity:1; fill:none" points="
  516.387,601.509 878.52,758.036 1229.18,912.914 1572.36,1066.48 1918.57,1219.45 2293.27,1372.16 
  "/>
<circle clip-path="url(#clip052)" cx="516.387" cy="601.509" r="18" fill="#ac8d18" fill-rule="evenodd" fill-opacity="1" stroke="#000000" stroke-opacity="1" stroke-width="3.2"/>
<circle clip-path="url(#clip052)" cx="878.52" cy="758.036" r="18" fill="#ac8d18" fill-rule="evenodd" fill-opacity="1" stroke="#000000" stroke-opacity="1" stroke-width="3.2"/>
<circle clip-path="url(#clip052)" cx="1229.18" cy="912.914" r="18" fill="#ac8d18" fill-rule="evenodd" fill-opacity="1" stroke="#000000" stroke-opacity="1" stroke-width="3.2"/>
<circle clip-path="url(#clip052)" cx="1572.36" cy="1066.48" r="18" fill="#ac8d18" fill-rule="evenodd" fill-opacity="1" stroke="#000000" stroke-opacity="1" stroke-width="3.2"/>
<circle clip-path="url(#clip052)" cx="1918.57" cy="1219.45" r="18" fill="#ac8d18" fill-rule="evenodd" fill-opacity="1" stroke="#000000" stroke-opacity="1" stroke-width="3.2"/>
<circle clip-path="url(#clip052)" cx="2293.27" cy="1372.16" r="18" fill="#ac8d18" fill-rule="evenodd" fill-opacity="1" stroke="#000000" stroke-opacity="1" stroke-width="3.2"/>
<polyline clip-path="url(#clip052)" style="stroke:#00a9ad; stroke-linecap:butt; stroke-linejoin:round; stroke-width:12; stroke-opacity:1; fill:none" points="
  456.716,611.313 714.691,762.093 1075.65,914.517 1410.09,1067.15 1807.66,1219.75 2125.69,1372.3 
  "/>
<path clip-path="url(#clip052)" d="M436.716 591.313 L436.716 631.313 L476.716 631.313 L476.716 591.313 L436.716 591.313 Z" fill="#00a9ad" fill-rule="evenodd" fill-opacity="1" stroke="#000000" stroke-opacity="1" stroke-width="3.2"/>
<path clip-path="url(#clip052)" d="M694.691 742.093 L694.691 782.093 L734.691 782.093 L734.691 742.093 L694.691 742.093 Z" fill="#00a9ad" fill-rule="evenodd" fill-opacity="1" stroke="#000000" stroke-opacity="1" stroke-width="3.2"/>
<path clip-path="url(#clip052)" d="M1055.65 894.517 L1055.65 934.517 L1095.65 934.517 L1095.65 894.517 L1055.65 894.517 Z" fill="#00a9ad" fill-rule="evenodd" fill-opacity="1" stroke="#000000" stroke-opacity="1" stroke-width="3.2"/>
<path clip-path="url(#clip052)" d="M1390.09 1047.15 L1390.09 1087.15 L1430.09 1087.15 L1430.09 1047.15 L1390.09 1047.15 Z" fill="#00a9ad" fill-rule="evenodd" fill-opacity="1" stroke="#000000" stroke-opacity="1" stroke-width="3.2"/>
<path clip-path="url(#clip052)" d="M1787.66 1199.75 L1787.66 1239.75 L1827.66 1239.75 L1827.66 1199.75 L1787.66 1199.75 Z" fill="#00a9ad" fill-rule="evenodd" fill-opacity="1" stroke="#000000" stroke-opacity="1" stroke-width="3.2"/>
<path clip-path="url(#clip052)" d="M2105.69 1352.3 L2105.69 1392.3 L2145.69 1392.3 L2145.69 1352.3 L2105.69 1352.3 Z" fill="#00a9ad" fill-rule="evenodd" fill-opacity="1" stroke="#000000" stroke-opacity="1" stroke-width="3.2"/>
</svg>
