<?xml version="1.0" encoding="utf-8"?>
<svg xmlns="http://www.w3.org/2000/svg" xmlns:xlink="http://www.w3.org/1999/xlink" width="600" height="400" viewBox="0 0 2400 1600">
<defs>
  <clipPath id="clip270">
    <rect x="0" y="0" width="2400" height="1600"/>
  </clipPath>
</defs>
<path clip-path="url(#clip270)" d="
M0 1600 L2400 1600 L2400 0 L0 0  Z
  " fill="#ffffff" fill-rule="evenodd" fill-opacity="1"/>
<defs>
  <clipPath id="clip271">
    <rect x="480" y="0" width="1681" height="1600"/>
  </clipPath>
</defs>
<path clip-path="url(#clip270)" d="
M221.637 1410.9 L2352.76 1410.9 L2352.76 47.2441 L221.637 47.2441  Z
  " fill="#ffffff" fill-rule="evenodd" fill-opacity="1"/>
<defs>
  <clipPath id="clip272">
    <rect x="221" y="47" width="2132" height="1365"/>
  </clipPath>
</defs>
<polyline clip-path="url(#clip272)" style="stroke:#000000; stroke-linecap:butt; stroke-linejoin:round; stroke-width:2; stroke-opacity:0.1; fill:none" points="
  524.719,1410.9 524.719,47.2441 
  "/>
<polyline clip-path="url(#clip272)" style="stroke:#000000; stroke-linecap:butt; stroke-linejoin:round; stroke-width:2; stroke-opacity:0.1; fill:none" points="
  1154.68,1410.9 1154.68,47.2441 
  "/>
<polyline clip-path="url(#clip272)" style="stroke:#000000; stroke-linecap:butt; stroke-linejoin:round; stroke-width:2; stroke-opacity:0.1; fill:none" points="
  1784.64,1410.9 1784.64,47.2441 
  "/>
<polyline clip-path="url(#clip270)" style="stroke:#000000; stroke-linecap:butt; stroke-linejoin:round; stroke-width:4; stroke-opacity:1; fill:none" points="
  221.637,1410.9 2352.76,1410.9 
  "/>
<polyline clip-path="url(#clip270)" style="stroke:#000000; stroke-linecap:butt; stroke-linejoin:round; stroke-width:4; stroke-opacity:1; fill:none" points="
  221.637,47.2441 2352.76,47.2441 
  "/>
<polyline clip-path="url(#clip270)" style="stroke:#000000; stroke-linecap:butt; stroke-linejoin:round; stroke-width:4; stroke-opacity:1; fill:none" points="
  524.719,1410.9 524.719,1392 
  "/>
<polyline clip-path="url(#clip270)" style="stroke:#000000; stroke-linecap:butt; stroke-linejoin:round; stroke-width:4; stroke-opacity:1; fill:none" points="
  1154.68,1410.9 1154.68,1392 
  "/>
<polyline clip-path="url(#clip270)" style="stroke:#000000; stroke-linecap:butt; stroke-linejoin:round; stroke-width:4; stroke-opacity:1; fill:none" points="
  1784.64,1410.9 1784.64,1392 
  "/>
<path clip-path="url(#clip270)" d="M456.365 1485.02 L464.004 1485.02 L464.004 1458.66 L455.694 1460.32 L455.694 1456.06 L463.957 1454.4 L468.633 1454.4 L468.633 1485.02 L476.272 1485.02 L476.272 1488.96 L456.365 1488.96 L456.365 1485.02 Z" fill="#000000" fill-rule="evenodd" fill-opacity="1" /><path clip-path="url(#clip270)" d="M495.717 1457.48 Q492.105 1457.48 490.277 1461.04 Q488.471 1464.58 488.471 1471.71 Q488.471 1478.82 490.277 1482.38 Q492.105 1485.92 495.717 1485.92 Q499.351 1485.92 501.156 1482.38 Q502.985 1478.82 502.985 1471.71 Q502.985 1464.58 501.156 1461.04 Q499.351 1457.48 495.717 1457.48 M495.717 1453.77 Q501.527 1453.77 504.582 1458.38 Q507.661 1462.96 507.661 1471.71 Q507.661 1480.44 504.582 1485.04 Q501.527 1489.63 495.717 1489.63 Q489.906 1489.63 486.828 1485.04 Q483.772 1480.44 483.772 1471.71 Q483.772 1462.96 486.828 1458.38 Q489.906 1453.77 495.717 1453.77 Z" fill="#000000" fill-rule="evenodd" fill-opacity="1" /><path clip-path="url(#clip270)" d="M507.661 1447.87 L531.772 1447.87 L531.772 1451.07 L507.661 1451.07 L507.661 1447.87 Z" fill="#000000" fill-rule="evenodd" fill-opacity="1" /><path clip-path="url(#clip270)" d="M540.631 1458.35 L546.838 1458.35 L546.838 1436.93 L540.086 1438.28 L540.086 1434.82 L546.8 1433.47 L550.599 1433.47 L550.599 1458.35 L556.806 1458.35 L556.806 1461.55 L540.631 1461.55 L540.631 1458.35 Z" fill="#000000" fill-rule="evenodd" fill-opacity="1" /><path clip-path="url(#clip270)" d="M564.479 1456.77 L568.448 1456.77 L568.448 1461.55 L564.479 1461.55 L564.479 1456.77 Z" fill="#000000" fill-rule="evenodd" fill-opacity="1" /><path clip-path="url(#clip270)" d="M576.761 1433.47 L591.675 1433.47 L591.675 1436.66 L580.24 1436.66 L580.24 1443.55 Q581.068 1443.27 581.895 1443.13 Q582.723 1442.98 583.55 1442.98 Q588.252 1442.98 590.998 1445.56 Q593.744 1448.14 593.744 1452.54 Q593.744 1457.07 590.923 1459.59 Q588.102 1462.09 582.967 1462.09 Q581.199 1462.09 579.356 1461.79 Q577.532 1461.49 575.576 1460.89 L575.576 1457.07 Q577.268 1457.99 579.074 1458.44 Q580.88 1458.89 582.892 1458.89 Q586.146 1458.89 588.045 1457.18 Q589.945 1455.47 589.945 1452.54 Q589.945 1449.6 588.045 1447.89 Q586.146 1446.18 582.892 1446.18 Q581.369 1446.18 579.845 1446.52 Q578.341 1446.86 576.761 1447.57 L576.761 1433.47 Z" fill="#000000" fill-rule="evenodd" fill-opacity="1" /><path clip-path="url(#clip270)" d="M1085.92 1485.02 L1093.56 1485.02 L1093.56 1458.66 L1085.25 1460.32 L1085.25 1456.06 L1093.51 1454.4 L1098.19 1454.4 L1098.19 1485.02 L1105.83 1485.02 L1105.83 1488.96 L1085.92 1488.96 L1085.92 1485.02 Z" fill="#000000" fill-rule="evenodd" fill-opacity="1" /><path clip-path="url(#clip270)" d="M1125.27 1457.48 Q1121.66 1457.48 1119.83 1461.04 Q1118.03 1464.58 1118.03 1471.71 Q1118.03 1478.82 1119.83 1482.38 Q1121.66 1485.92 1125.27 1485.92 Q1128.91 1485.92 1130.71 1482.38 Q1132.54 1478.82 1132.54 1471.71 Q1132.54 1464.58 1130.71 1461.04 Q1128.91 1457.48 1125.27 1457.48 M1125.27 1453.77 Q1131.08 1453.77 1134.14 1458.38 Q1137.22 1462.96 1137.22 1471.71 Q1137.22 1480.44 1134.14 1485.04 Q1131.08 1489.63 1125.27 1489.63 Q1119.46 1489.63 1116.38 1485.04 Q1113.33 1480.44 1113.33 1471.71 Q1113.33 1462.96 1116.38 1458.38 Q1119.46 1453.77 1125.27 1453.77 Z" fill="#000000" fill-rule="evenodd" fill-opacity="1" /><path clip-path="url(#clip270)" d="M1137.22 1447.87 L1161.33 1447.87 L1161.33 1451.07 L1137.22 1451.07 L1137.22 1447.87 Z" fill="#000000" fill-rule="evenodd" fill-opacity="1" /><path clip-path="url(#clip270)" d="M1170.19 1458.35 L1176.39 1458.35 L1176.39 1436.93 L1169.64 1438.28 L1169.64 1434.82 L1176.36 1433.47 L1180.16 1433.47 L1180.16 1458.35 L1186.36 1458.35 L1186.36 1461.55 L1170.19 1461.55 L1170.19 1458.35 Z" fill="#000000" fill-rule="evenodd" fill-opacity="1" /><path clip-path="url(#clip270)" d="M1194.04 1456.77 L1198 1456.77 L1198 1461.55 L1194.04 1461.55 L1194.04 1456.77 Z" fill="#000000" fill-rule="evenodd" fill-opacity="1" /><path clip-path="url(#clip270)" d="M1214.4 1435.97 Q1211.47 1435.97 1209.98 1438.86 Q1208.52 1441.74 1208.52 1447.53 Q1208.52 1453.31 1209.98 1456.2 Q1211.47 1459.08 1214.4 1459.08 Q1217.36 1459.08 1218.82 1456.2 Q1220.31 1453.31 1220.31 1447.53 Q1220.31 1441.74 1218.82 1438.86 Q1217.36 1435.97 1214.4 1435.97 M1214.4 1432.96 Q1219.13 1432.96 1221.61 1436.7 Q1224.11 1440.43 1224.11 1447.53 Q1224.11 1454.62 1221.61 1458.37 Q1219.13 1462.09 1214.4 1462.09 Q1209.68 1462.09 1207.18 1458.37 Q1204.7 1454.62 1204.7 1447.53 Q1204.7 1440.43 1207.18 1436.7 Q1209.68 1432.96 1214.4 1432.96 Z" fill="#000000" fill-rule="evenodd" fill-opacity="1" /><path clip-path="url(#clip270)" d="M1716.29 1485.02 L1723.93 1485.02 L1723.93 1458.66 L1715.62 1460.32 L1715.62 1456.06 L1723.88 1454.4 L1728.56 1454.4 L1728.56 1485.02 L1736.19 1485.02 L1736.19 1488.96 L1716.29 1488.96 L1716.29 1485.02 Z" fill="#000000" fill-rule="evenodd" fill-opacity="1" /><path clip-path="url(#clip270)" d="M1755.64 1457.48 Q1752.03 1457.48 1750.2 1461.04 Q1748.39 1464.58 1748.39 1471.71 Q1748.39 1478.82 1750.2 1482.38 Q1752.03 1485.92 1755.64 1485.92 Q1759.27 1485.92 1761.08 1482.38 Q1762.91 1478.82 1762.91 1471.71 Q1762.91 1464.58 1761.08 1461.04 Q1759.27 1457.48 1755.64 1457.48 M1755.64 1453.77 Q1761.45 1453.77 1764.5 1458.38 Q1767.58 1462.96 1767.58 1471.71 Q1767.58 1480.44 1764.5 1485.04 Q1761.45 1489.63 1755.64 1489.63 Q1749.83 1489.63 1746.75 1485.04 Q1743.69 1480.44 1743.69 1471.71 Q1743.69 1462.96 1746.75 1458.38 Q1749.83 1453.77 1755.64 1453.77 Z" fill="#000000" fill-rule="evenodd" fill-opacity="1" /><path clip-path="url(#clip270)" d="M1767.58 1447.87 L1791.69 1447.87 L1791.69 1451.07 L1767.58 1451.07 L1767.58 1447.87 Z" fill="#000000" fill-rule="evenodd" fill-opacity="1" /><path clip-path="url(#clip270)" d="M1808.02 1435.97 Q1805.09 1435.97 1803.6 1438.86 Q1802.13 1441.74 1802.13 1447.53 Q1802.13 1453.31 1803.6 1456.2 Q1805.09 1459.08 1808.02 1459.08 Q1810.97 1459.08 1812.44 1456.2 Q1813.93 1453.31 1813.93 1447.53 Q1813.93 1441.74 1812.44 1438.86 Q1810.97 1435.97 1808.02 1435.97 M1808.02 1432.96 Q1812.74 1432.96 1815.22 1436.7 Q1817.72 1440.43 1817.72 1447.53 Q1817.72 1454.62 1815.22 1458.37 Q1812.74 1462.09 1808.02 1462.09 Q1803.3 1462.09 1800.8 1458.37 Q1798.31 1454.62 1798.31 1447.53 Q1798.31 1440.43 1800.8 1436.7 Q1803.3 1432.96 1808.02 1432.96 Z" fill="#000000" fill-rule="evenodd" fill-opacity="1" /><path clip-path="url(#clip270)" d="M1824.4 1456.77 L1828.37 1456.77 L1828.37 1461.55 L1824.4 1461.55 L1824.4 1456.77 Z" fill="#000000" fill-rule="evenodd" fill-opacity="1" /><path clip-path="url(#clip270)" d="M1836.68 1433.47 L1851.6 1433.47 L1851.6 1436.66 L1840.16 1436.66 L1840.16 1443.55 Q1840.99 1443.27 1841.82 1443.13 Q1842.64 1442.98 1843.47 1442.98 Q1848.17 1442.98 1850.92 1445.56 Q1853.67 1448.14 1853.67 1452.54 Q1853.67 1457.07 1850.84 1459.59 Q1848.02 1462.09 1842.89 1462.09 Q1841.12 1462.09 1839.28 1461.79 Q1837.45 1461.49 1835.5 1460.89 L1835.5 1457.07 Q1837.19 1457.99 1839 1458.44 Q1840.8 1458.89 1842.81 1458.89 Q1846.07 1458.89 1847.97 1457.18 Q1849.87 1455.47 1849.87 1452.54 Q1849.87 1449.6 1847.97 1447.89 Q1846.07 1446.18 1842.81 1446.18 Q1841.29 1446.18 1839.77 1446.52 Q1838.26 1446.86 1836.68 1447.57 L1836.68 1433.47 Z" fill="#000000" fill-rule="evenodd" fill-opacity="1" /><path clip-path="url(#clip270)" d="M899.636 1526.67 L929.682 1526.67 L929.682 1532.08 L906.066 1532.08 L906.066 1546.14 L928.696 1546.14 L928.696 1551.56 L906.066 1551.56 L906.066 1568.77 L930.255 1568.77 L930.255 1574.19 L899.636 1574.19 L899.636 1526.67 Z" fill="#000000" fill-rule="evenodd" fill-opacity="1" /><path clip-path="url(#clip270)" d="M970.2 1538.54 L957.31 1555.88 L970.869 1574.19 L963.962 1574.19 L953.586 1560.18 L943.21 1574.19 L936.303 1574.19 L950.148 1555.53 L937.48 1538.54 L944.387 1538.54 L953.84 1551.24 L963.293 1538.54 L970.2 1538.54 Z" fill="#000000" fill-rule="evenodd" fill-opacity="1" /><path clip-path="url(#clip270)" d="M1007.63 1554.9 L1007.63 1557.76 L980.704 1557.76 Q981.086 1563.81 984.332 1566.99 Q987.61 1570.14 993.435 1570.14 Q996.809 1570.14 999.96 1569.32 Q1003.14 1568.49 1006.26 1566.83 L1006.26 1572.37 Q1003.11 1573.71 999.801 1574.41 Q996.491 1575.11 993.085 1575.11 Q984.555 1575.11 979.558 1570.14 Q974.593 1565.18 974.593 1556.71 Q974.593 1547.96 979.303 1542.83 Q984.046 1537.68 992.066 1537.68 Q999.26 1537.68 1003.43 1542.33 Q1007.63 1546.94 1007.63 1554.9 M1001.77 1553.18 Q1001.71 1548.37 999.069 1545.51 Q996.459 1542.64 992.13 1542.64 Q987.228 1542.64 984.268 1545.41 Q981.34 1548.18 980.895 1553.21 L1001.77 1553.18 Z" fill="#000000" fill-rule="evenodd" fill-opacity="1" /><path clip-path="url(#clip270)" d="M1042.9 1539.91 L1042.9 1545.38 Q1040.41 1544.01 1037.9 1543.34 Q1035.42 1542.64 1032.87 1542.64 Q1027.17 1542.64 1024.02 1546.27 Q1020.87 1549.87 1020.87 1556.39 Q1020.87 1562.92 1024.02 1566.55 Q1027.17 1570.14 1032.87 1570.14 Q1035.42 1570.14 1037.9 1569.47 Q1040.41 1568.77 1042.9 1567.41 L1042.9 1572.82 Q1040.45 1573.96 1037.8 1574.54 Q1035.19 1575.11 1032.23 1575.11 Q1024.18 1575.11 1019.44 1570.05 Q1014.7 1564.99 1014.7 1556.39 Q1014.7 1547.67 1019.47 1542.68 Q1024.28 1537.68 1032.62 1537.68 Q1035.32 1537.68 1037.9 1538.25 Q1040.48 1538.79 1042.9 1539.91 Z" fill="#000000" fill-rule="evenodd" fill-opacity="1" /><path clip-path="url(#clip270)" d="M1052.48 1560.12 L1052.48 1538.54 L1058.33 1538.54 L1058.33 1559.89 Q1058.33 1564.96 1060.31 1567.5 Q1062.28 1570.02 1066.23 1570.02 Q1070.97 1570.02 1073.71 1566.99 Q1076.48 1563.97 1076.48 1558.75 L1076.48 1538.54 L1082.33 1538.54 L1082.33 1574.19 L1076.48 1574.19 L1076.48 1568.71 Q1074.34 1571.96 1071.51 1573.55 Q1068.71 1575.11 1064.99 1575.11 Q1058.84 1575.11 1055.66 1571.29 Q1052.48 1567.47 1052.48 1560.12 M1067.21 1537.68 L1067.21 1537.68 Z" fill="#000000" fill-rule="evenodd" fill-opacity="1" /><path clip-path="url(#clip270)" d="M1100.19 1528.42 L1100.19 1538.54 L1112.25 1538.54 L1112.25 1543.09 L1100.19 1543.09 L1100.19 1562.44 Q1100.19 1566.8 1101.37 1568.04 Q1102.58 1569.28 1106.24 1569.28 L1112.25 1569.28 L1112.25 1574.19 L1106.24 1574.19 Q1099.46 1574.19 1096.88 1571.67 Q1094.3 1569.12 1094.3 1562.44 L1094.3 1543.09 L1090 1543.09 L1090 1538.54 L1094.3 1538.54 L1094.3 1528.42 L1100.19 1528.42 Z" fill="#000000" fill-rule="evenodd" fill-opacity="1" /><path clip-path="url(#clip270)" d="M1119.95 1538.54 L1125.81 1538.54 L1125.81 1574.19 L1119.95 1574.19 L1119.95 1538.54 M1119.95 1524.66 L1125.81 1524.66 L1125.81 1532.08 L1119.95 1532.08 L1119.95 1524.66 Z" fill="#000000" fill-rule="evenodd" fill-opacity="1" /><path clip-path="url(#clip270)" d="M1151.88 1542.64 Q1147.17 1542.64 1144.43 1546.34 Q1141.69 1550 1141.69 1556.39 Q1141.69 1562.79 1144.4 1566.48 Q1147.14 1570.14 1151.88 1570.14 Q1156.56 1570.14 1159.29 1566.45 Q1162.03 1562.76 1162.03 1556.39 Q1162.03 1550.06 1159.29 1546.37 Q1156.56 1542.64 1151.88 1542.64 M1151.88 1537.68 Q1159.52 1537.68 1163.88 1542.64 Q1168.24 1547.61 1168.24 1556.39 Q1168.24 1565.15 1163.88 1570.14 Q1159.52 1575.11 1151.88 1575.11 Q1144.21 1575.11 1139.85 1570.14 Q1135.52 1565.15 1135.52 1556.39 Q1135.52 1547.61 1139.85 1542.64 Q1144.21 1537.68 1151.88 1537.68 Z" fill="#000000" fill-rule="evenodd" fill-opacity="1" /><path clip-path="url(#clip270)" d="M1207.58 1552.67 L1207.58 1574.19 L1201.72 1574.19 L1201.72 1552.86 Q1201.72 1547.8 1199.75 1545.29 Q1197.77 1542.77 1193.83 1542.77 Q1189.09 1542.77 1186.35 1545.79 Q1183.61 1548.82 1183.61 1554.04 L1183.61 1574.19 L1177.72 1574.19 L1177.72 1538.54 L1183.61 1538.54 L1183.61 1544.08 Q1185.71 1540.86 1188.54 1539.27 Q1191.41 1537.68 1195.13 1537.68 Q1201.28 1537.68 1204.43 1541.5 Q1207.58 1545.29 1207.58 1552.67 Z" fill="#000000" fill-rule="evenodd" fill-opacity="1" /><path clip-path="url(#clip270)" d="M1245.77 1528.42 L1245.77 1538.54 L1257.83 1538.54 L1257.83 1543.09 L1245.77 1543.09 L1245.77 1562.44 Q1245.77 1566.8 1246.95 1568.04 Q1248.16 1569.28 1251.82 1569.28 L1257.83 1569.28 L1257.83 1574.19 L1251.82 1574.19 Q1245.04 1574.19 1242.46 1571.67 Q1239.88 1569.12 1239.88 1562.44 L1239.88 1543.09 L1235.59 1543.09 L1235.59 1538.54 L1239.88 1538.54 L1239.88 1528.42 L1245.77 1528.42 Z" fill="#000000" fill-rule="evenodd" fill-opacity="1" /><path clip-path="url(#clip270)" d="M1265.54 1538.54 L1271.39 1538.54 L1271.39 1574.19 L1265.54 1574.19 L1265.54 1538.54 M1265.54 1524.66 L1271.39 1524.66 L1271.39 1532.08 L1265.54 1532.08 L1265.54 1524.66 Z" fill="#000000" fill-rule="evenodd" fill-opacity="1" /><path clip-path="url(#clip270)" d="M1311.4 1545.38 Q1313.6 1541.43 1316.65 1539.56 Q1319.71 1537.68 1323.85 1537.68 Q1329.42 1537.68 1332.44 1541.59 Q1335.46 1545.48 1335.46 1552.67 L1335.46 1574.19 L1329.58 1574.19 L1329.58 1552.86 Q1329.58 1547.74 1327.76 1545.25 Q1325.95 1542.77 1322.22 1542.77 Q1317.67 1542.77 1315.03 1545.79 Q1312.39 1548.82 1312.39 1554.04 L1312.39 1574.19 L1306.5 1574.19 L1306.5 1552.86 Q1306.5 1547.7 1304.69 1545.25 Q1302.87 1542.77 1299.08 1542.77 Q1294.6 1542.77 1291.95 1545.83 Q1289.31 1548.85 1289.31 1554.04 L1289.31 1574.19 L1283.42 1574.19 L1283.42 1538.54 L1289.31 1538.54 L1289.31 1544.08 Q1291.32 1540.8 1294.12 1539.24 Q1296.92 1537.68 1300.77 1537.68 Q1304.65 1537.68 1307.36 1539.65 Q1310.1 1541.62 1311.4 1545.38 Z" fill="#000000" fill-rule="evenodd" fill-opacity="1" /><path clip-path="url(#clip270)" d="M1377.64 1554.9 L1377.64 1557.76 L1350.71 1557.76 Q1351.09 1563.81 1354.34 1566.99 Q1357.62 1570.14 1363.44 1570.14 Q1366.82 1570.14 1369.97 1569.32 Q1373.15 1568.49 1376.27 1566.83 L1376.27 1572.37 Q1373.12 1573.71 1369.81 1574.41 Q1366.5 1575.11 1363.09 1575.11 Q1354.56 1575.11 1349.56 1570.14 Q1344.6 1565.18 1344.6 1556.71 Q1344.6 1547.96 1349.31 1542.83 Q1354.05 1537.68 1362.07 1537.68 Q1369.27 1537.68 1373.44 1542.33 Q1377.64 1546.94 1377.64 1554.9 M1371.78 1553.18 Q1371.72 1548.37 1369.08 1545.51 Q1366.47 1542.64 1362.14 1542.64 Q1357.24 1542.64 1354.28 1545.41 Q1351.35 1548.18 1350.9 1553.21 L1371.78 1553.18 Z" fill="#000000" fill-rule="evenodd" fill-opacity="1" /><path clip-path="url(#clip270)" d="M1422.04 1524.72 Q1417.77 1532.04 1415.7 1539.21 Q1413.64 1546.37 1413.64 1553.72 Q1413.64 1561.07 1415.7 1568.3 Q1417.8 1575.49 1422.04 1582.78 L1416.95 1582.78 Q1412.17 1575.3 1409.78 1568.07 Q1407.43 1560.85 1407.43 1553.72 Q1407.43 1546.62 1409.78 1539.43 Q1412.14 1532.24 1416.95 1524.72 L1422.04 1524.72 Z" fill="#000000" fill-rule="evenodd" fill-opacity="1" /><path clip-path="url(#clip270)" d="M1456.13 1539.59 L1456.13 1545.13 Q1453.64 1543.85 1450.97 1543.22 Q1448.3 1542.58 1445.43 1542.58 Q1441.07 1542.58 1438.88 1543.92 Q1436.71 1545.25 1436.71 1547.93 Q1436.71 1549.96 1438.27 1551.14 Q1439.83 1552.29 1444.54 1553.34 L1446.55 1553.78 Q1452.78 1555.12 1455.39 1557.57 Q1458.04 1559.99 1458.04 1564.35 Q1458.04 1569.32 1454.09 1572.21 Q1450.17 1575.11 1443.3 1575.11 Q1440.43 1575.11 1437.32 1574.54 Q1434.23 1573.99 1430.79 1572.88 L1430.79 1566.83 Q1434.04 1568.52 1437.19 1569.38 Q1440.34 1570.21 1443.43 1570.21 Q1447.56 1570.21 1449.79 1568.81 Q1452.02 1567.37 1452.02 1564.8 Q1452.02 1562.41 1450.4 1561.14 Q1448.81 1559.86 1443.36 1558.68 L1441.33 1558.21 Q1435.88 1557.06 1433.46 1554.71 Q1431.05 1552.32 1431.05 1548.18 Q1431.05 1543.15 1434.61 1540.42 Q1438.18 1537.68 1444.73 1537.68 Q1447.98 1537.68 1450.84 1538.16 Q1453.71 1538.63 1456.13 1539.59 Z" fill="#000000" fill-rule="evenodd" fill-opacity="1" /><path clip-path="url(#clip270)" d="M1493.02 1539.91 L1493.02 1545.38 Q1490.53 1544.01 1488.02 1543.34 Q1485.54 1542.64 1482.99 1542.64 Q1477.29 1542.64 1474.14 1546.27 Q1470.99 1549.87 1470.99 1556.39 Q1470.99 1562.92 1474.14 1566.55 Q1477.29 1570.14 1482.99 1570.14 Q1485.54 1570.14 1488.02 1569.47 Q1490.53 1568.77 1493.02 1567.41 L1493.02 1572.82 Q1490.56 1573.96 1487.92 1574.54 Q1485.31 1575.11 1482.35 1575.11 Q1474.3 1575.11 1469.56 1570.05 Q1464.82 1564.99 1464.82 1556.39 Q1464.82 1547.67 1469.59 1542.68 Q1474.4 1537.68 1482.74 1537.68 Q1485.44 1537.68 1488.02 1538.25 Q1490.6 1538.79 1493.02 1539.91 Z" fill="#000000" fill-rule="evenodd" fill-opacity="1" /><path clip-path="url(#clip270)" d="M1504.7 1566.1 L1511.41 1566.1 L1511.41 1571.58 L1506.19 1581.76 L1502.09 1581.76 L1504.7 1571.58 L1504.7 1566.1 Z" fill="#000000" fill-rule="evenodd" fill-opacity="1" /><path clip-path="url(#clip270)" d="M1544.9 1526.67 L1551.33 1526.67 L1551.33 1568.77 L1574.46 1568.77 L1574.46 1574.19 L1544.9 1574.19 L1544.9 1526.67 Z" fill="#000000" fill-rule="evenodd" fill-opacity="1" /><path clip-path="url(#clip270)" d="M1593.63 1542.64 Q1588.92 1542.64 1586.18 1546.34 Q1583.44 1550 1583.44 1556.39 Q1583.44 1562.79 1586.15 1566.48 Q1588.88 1570.14 1593.63 1570.14 Q1598.3 1570.14 1601.04 1566.45 Q1603.78 1562.76 1603.78 1556.39 Q1603.78 1550.06 1601.04 1546.37 Q1598.3 1542.64 1593.63 1542.64 M1593.63 1537.68 Q1601.26 1537.68 1605.63 1542.64 Q1609.99 1547.61 1609.99 1556.39 Q1609.99 1565.15 1605.63 1570.14 Q1601.26 1575.11 1593.63 1575.11 Q1585.96 1575.11 1581.59 1570.14 Q1577.27 1565.15 1577.27 1556.39 Q1577.27 1547.61 1581.59 1542.64 Q1585.96 1537.68 1593.63 1537.68 Z" fill="#000000" fill-rule="evenodd" fill-opacity="1" /><path clip-path="url(#clip270)" d="M1643.15 1555.95 Q1643.15 1549.58 1640.51 1546.08 Q1637.9 1542.58 1633.16 1542.58 Q1628.45 1542.58 1625.8 1546.08 Q1623.19 1549.58 1623.19 1555.95 Q1623.19 1562.28 1625.8 1565.78 Q1628.45 1569.28 1633.16 1569.28 Q1637.9 1569.28 1640.51 1565.78 Q1643.15 1562.28 1643.15 1555.95 M1649.01 1569.76 Q1649.01 1578.86 1644.97 1583.29 Q1640.92 1587.74 1632.58 1587.74 Q1629.5 1587.74 1626.76 1587.27 Q1624.02 1586.82 1621.44 1585.87 L1621.44 1580.17 Q1624.02 1581.57 1626.54 1582.24 Q1629.05 1582.91 1631.66 1582.91 Q1637.42 1582.91 1640.29 1579.88 Q1643.15 1576.89 1643.15 1570.81 L1643.15 1567.92 Q1641.34 1571.07 1638.5 1572.63 Q1635.67 1574.19 1631.72 1574.19 Q1625.17 1574.19 1621.16 1569.19 Q1617.15 1564.19 1617.15 1555.95 Q1617.15 1547.67 1621.16 1542.68 Q1625.17 1537.68 1631.72 1537.68 Q1635.67 1537.68 1638.5 1539.24 Q1641.34 1540.8 1643.15 1543.95 L1643.15 1538.54 L1649.01 1538.54 L1649.01 1569.76 Z" fill="#000000" fill-rule="evenodd" fill-opacity="1" /><path clip-path="url(#clip270)" d="M1660.15 1524.72 L1665.24 1524.72 Q1670.01 1532.24 1672.37 1539.43 Q1674.76 1546.62 1674.76 1553.72 Q1674.76 1560.85 1672.37 1568.07 Q1670.01 1575.3 1665.24 1582.78 L1660.15 1582.78 Q1664.38 1575.49 1666.45 1568.3 Q1668.55 1561.07 1668.55 1553.72 Q1668.55 1546.37 1666.45 1539.21 Q1664.38 1532.04 1660.15 1524.72 Z" fill="#000000" fill-rule="evenodd" fill-opacity="1" /><polyline clip-path="url(#clip272)" style="stroke:#000000; stroke-linecap:butt; stroke-linejoin:round; stroke-width:2; stroke-opacity:0.1; fill:none" points="
  221.637,1229.97 2352.76,1229.97 
  "/>
<polyline clip-path="url(#clip272)" style="stroke:#000000; stroke-linecap:butt; stroke-linejoin:round; stroke-width:2; stroke-opacity:0.1; fill:none" points="
  221.637,722.898 2352.76,722.898 
  "/>
<polyline clip-path="url(#clip272)" style="stroke:#000000; stroke-linecap:butt; stroke-linejoin:round; stroke-width:2; stroke-opacity:0.1; fill:none" points="
  221.637,215.829 2352.76,215.829 
  "/>
<polyline clip-path="url(#clip270)" style="stroke:#000000; stroke-linecap:butt; stroke-linejoin:round; stroke-width:4; stroke-opacity:1; fill:none" points="
  221.637,1410.9 221.637,47.2441 
  "/>
<polyline clip-path="url(#clip270)" style="stroke:#000000; stroke-linecap:butt; stroke-linejoin:round; stroke-width:4; stroke-opacity:1; fill:none" points="
  2352.76,1410.9 2352.76,47.2441 
  "/>
<polyline clip-path="url(#clip270)" style="stroke:#000000; stroke-linecap:butt; stroke-linejoin:round; stroke-width:4; stroke-opacity:1; fill:none" points="
  221.637,1229.97 240.535,1229.97 
  "/>
<polyline clip-path="url(#clip270)" style="stroke:#000000; stroke-linecap:butt; stroke-linejoin:round; stroke-width:4; stroke-opacity:1; fill:none" points="
  221.637,722.898 240.535,722.898 
  "/>
<polyline clip-path="url(#clip270)" style="stroke:#000000; stroke-linecap:butt; stroke-linejoin:round; stroke-width:4; stroke-opacity:1; fill:none" points="
  221.637,215.829 240.535,215.829 
  "/>
<path clip-path="url(#clip270)" d="M114.931 1249.76 L122.57 1249.76 L122.57 1223.39 L114.26 1225.06 L114.26 1220.8 L122.524 1219.13 L127.2 1219.13 L127.2 1249.76 L134.839 1249.76 L134.839 1253.69 L114.931 1253.69 L114.931 1249.76 Z" fill="#000000" fill-rule="evenodd" fill-opacity="1" /><path clip-path="url(#clip270)" d="M154.283 1222.21 Q150.672 1222.21 148.843 1225.78 Q147.038 1229.32 147.038 1236.45 Q147.038 1243.56 148.843 1247.12 Q150.672 1250.66 154.283 1250.66 Q157.917 1250.66 159.723 1247.12 Q161.552 1243.56 161.552 1236.45 Q161.552 1229.32 159.723 1225.78 Q157.917 1222.21 154.283 1222.21 M154.283 1218.51 Q160.093 1218.51 163.149 1223.12 Q166.227 1227.7 166.227 1236.45 Q166.227 1245.18 163.149 1249.78 Q160.093 1254.37 154.283 1254.37 Q148.473 1254.37 145.394 1249.78 Q142.339 1245.18 142.339 1236.45 Q142.339 1227.7 145.394 1223.12 Q148.473 1218.51 154.283 1218.51 Z" fill="#000000" fill-rule="evenodd" fill-opacity="1" /><path clip-path="url(#clip270)" d="M175.932 1200.71 Q172.998 1200.71 171.512 1203.6 Q170.045 1206.48 170.045 1212.27 Q170.045 1218.05 171.512 1220.94 Q172.998 1223.82 175.932 1223.82 Q178.885 1223.82 180.352 1220.94 Q181.838 1218.05 181.838 1212.27 Q181.838 1206.48 180.352 1203.6 Q178.885 1200.71 175.932 1200.71 M175.932 1197.7 Q180.653 1197.7 183.136 1201.44 Q185.637 1205.16 185.637 1212.27 Q185.637 1219.36 183.136 1223.11 Q180.653 1226.83 175.932 1226.83 Q171.212 1226.83 168.71 1223.11 Q166.227 1219.36 166.227 1212.27 Q166.227 1205.16 168.71 1201.44 Q171.212 1197.7 175.932 1197.7 Z" fill="#000000" fill-rule="evenodd" fill-opacity="1" /><path clip-path="url(#clip270)" d="M117.621 742.691 L125.26 742.691 L125.26 716.325 L116.95 717.992 L116.95 713.732 L125.214 712.066 L129.889 712.066 L129.889 742.691 L137.528 742.691 L137.528 746.626 L117.621 746.626 L117.621 742.691 Z" fill="#000000" fill-rule="evenodd" fill-opacity="1" /><path clip-path="url(#clip270)" d="M156.973 715.144 Q153.362 715.144 151.533 718.709 Q149.727 722.251 149.727 729.38 Q149.727 736.487 151.533 740.052 Q153.362 743.593 156.973 743.593 Q160.607 743.593 162.412 740.052 Q164.241 736.487 164.241 729.38 Q164.241 722.251 162.412 718.709 Q160.607 715.144 156.973 715.144 M156.973 711.441 Q162.783 711.441 165.838 716.047 Q168.917 720.63 168.917 729.38 Q168.917 738.107 165.838 742.714 Q162.783 747.297 156.973 747.297 Q151.162 747.297 148.084 742.714 Q145.028 738.107 145.028 729.38 Q145.028 720.63 148.084 716.047 Q151.162 711.441 156.973 711.441 Z" fill="#000000" fill-rule="evenodd" fill-opacity="1" /><path clip-path="url(#clip270)" d="M169.462 716.018 L175.669 716.018 L175.669 694.596 L168.917 695.95 L168.917 692.489 L175.631 691.135 L179.431 691.135 L179.431 716.018 L185.637 716.018 L185.637 719.215 L169.462 719.215 L169.462 716.018 Z" fill="#000000" fill-rule="evenodd" fill-opacity="1" /><path clip-path="url(#clip270)" d="M116.511 235.621 L124.15 235.621 L124.15 209.256 L115.84 210.922 L115.84 206.663 L124.104 204.996 L128.78 204.996 L128.78 235.621 L136.419 235.621 L136.419 239.556 L116.511 239.556 L116.511 235.621 Z" fill="#000000" fill-rule="evenodd" fill-opacity="1" /><path clip-path="url(#clip270)" d="M155.863 208.075 Q152.252 208.075 150.423 211.64 Q148.618 215.181 148.618 222.311 Q148.618 229.418 150.423 232.982 Q152.252 236.524 155.863 236.524 Q159.497 236.524 161.303 232.982 Q163.131 229.418 163.131 222.311 Q163.131 215.181 161.303 211.64 Q159.497 208.075 155.863 208.075 M155.863 204.371 Q161.673 204.371 164.729 208.978 Q167.807 213.561 167.807 222.311 Q167.807 231.038 164.729 235.644 Q161.673 240.228 155.863 240.228 Q150.053 240.228 146.974 235.644 Q143.919 231.038 143.919 222.311 Q143.919 213.561 146.974 208.978 Q150.053 204.371 155.863 204.371 Z" fill="#000000" fill-rule="evenodd" fill-opacity="1" /><path clip-path="url(#clip270)" d="M172.378 208.949 L185.637 208.949 L185.637 212.146 L167.807 212.146 L167.807 208.949 Q169.97 206.711 173.694 202.949 Q177.437 199.169 178.396 198.078 Q180.22 196.028 180.935 194.617 Q181.669 193.188 181.669 191.815 Q181.669 189.577 180.089 188.166 Q178.528 186.755 176.008 186.755 Q174.221 186.755 172.227 187.376 Q170.252 187.997 167.995 189.257 L167.995 185.42 Q170.29 184.499 172.284 184.028 Q174.277 183.558 175.932 183.558 Q180.296 183.558 182.891 185.74 Q185.487 187.922 185.487 191.57 Q185.487 193.301 184.828 194.862 Q184.189 196.404 182.477 198.51 Q182.007 199.056 179.487 201.67 Q176.967 204.265 172.378 208.949 Z" fill="#000000" fill-rule="evenodd" fill-opacity="1" /><path clip-path="url(#clip270)" d="M16.4842 1034.96 L16.4842 1004.91 L21.895 1004.91 L21.895 1028.53 L35.9632 1028.53 L35.9632 1005.9 L41.3741 1005.9 L41.3741 1028.53 L58.5933 1028.53 L58.5933 1004.34 L64.0042 1004.34 L64.0042 1034.96 L16.4842 1034.96 Z" fill="#000000" fill-rule="evenodd" fill-opacity="1" /><path clip-path="url(#clip270)" d="M33.8307 973.37 Q33.2578 974.357 33.0032 975.535 Q32.7167 976.68 32.7167 978.081 Q32.7167 983.046 35.9632 985.72 Q39.1779 988.362 45.2253 988.362 L64.0042 988.362 L64.0042 994.25 L28.3562 994.25 L28.3562 988.362 L33.8944 988.362 Q30.6479 986.515 29.0883 983.555 Q27.4968 980.595 27.4968 976.362 Q27.4968 975.757 27.5923 975.025 Q27.656 974.293 27.8151 973.402 L33.8307 973.37 Z" fill="#000000" fill-rule="evenodd" fill-opacity="1" /><path clip-path="url(#clip270)" d="M33.8307 947.716 Q33.2578 948.703 33.0032 949.881 Q32.7167 951.027 32.7167 952.427 Q32.7167 957.392 35.9632 960.066 Q39.1779 962.708 45.2253 962.708 L64.0042 962.708 L64.0042 968.596 L28.3562 968.596 L28.3562 962.708 L33.8944 962.708 Q30.6479 960.862 29.0883 957.902 Q27.4968 954.942 27.4968 950.708 Q27.4968 950.104 27.5923 949.372 Q27.656 948.64 27.8151 947.748 L33.8307 947.716 Z" fill="#000000" fill-rule="evenodd" fill-opacity="1" /><path clip-path="url(#clip270)" d="M32.4621 929.192 Q32.4621 933.903 36.1542 936.64 Q39.8145 939.377 46.212 939.377 Q52.6095 939.377 56.3017 936.672 Q59.9619 933.935 59.9619 929.192 Q59.9619 924.513 56.2698 921.776 Q52.5777 919.039 46.212 919.039 Q39.8781 919.039 36.186 921.776 Q32.4621 924.513 32.4621 929.192 M27.4968 929.192 Q27.4968 921.553 32.4621 917.193 Q37.4273 912.832 46.212 912.832 Q54.9649 912.832 59.9619 917.193 Q64.9272 921.553 64.9272 929.192 Q64.9272 936.863 59.9619 941.223 Q54.9649 945.552 46.212 945.552 Q37.4273 945.552 32.4621 941.223 Q27.4968 936.863 27.4968 929.192 Z" fill="#000000" fill-rule="evenodd" fill-opacity="1" /><path clip-path="url(#clip270)" d="M33.8307 882.468 Q33.2578 883.455 33.0032 884.632 Q32.7167 885.778 32.7167 887.179 Q32.7167 892.144 35.9632 894.817 Q39.1779 897.459 45.2253 897.459 L64.0042 897.459 L64.0042 903.348 L28.3562 903.348 L28.3562 897.459 L33.8944 897.459 Q30.6479 895.613 29.0883 892.653 Q27.4968 889.693 27.4968 885.46 Q27.4968 884.855 27.5923 884.123 Q27.656 883.391 27.8151 882.5 L33.8307 882.468 Z" fill="#000000" fill-rule="evenodd" fill-opacity="1" /><path clip-path="url(#clip270)" d="M55.9197 875.975 L55.9197 869.259 L64.0042 869.259 L64.0042 875.975 L55.9197 875.975 M30.2977 875.975 L30.2977 869.259 L38.3822 869.259 L38.3822 875.975 L30.2977 875.975 Z" fill="#000000" fill-rule="evenodd" fill-opacity="1" /><path clip-path="url(#clip270)" d="M58.5933 828.423 L58.5933 805.984 L64.0042 805.984 L64.0042 836.157 L58.5933 836.157 Q54.8057 832.497 48.44 826.195 Q42.0425 819.861 40.1964 818.238 Q36.7271 815.151 34.34 813.941 Q31.921 812.7 29.5975 812.7 Q25.8099 812.7 23.4228 815.373 Q21.0356 818.015 21.0356 822.28 Q21.0356 825.304 22.086 828.678 Q23.1363 832.02 25.2688 835.839 L18.7758 835.839 Q17.2162 831.956 16.4205 828.582 Q15.6248 825.208 15.6248 822.408 Q15.6248 815.023 19.3169 810.631 Q23.009 806.239 29.1837 806.239 Q32.112 806.239 34.7537 807.353 Q37.3637 808.435 40.9285 811.331 Q41.8515 812.127 46.2757 816.392 Q50.668 820.657 58.5933 828.423 Z" fill="#000000" fill-rule="evenodd" fill-opacity="1" /><path clip-path="url(#clip270)" d="M43.5384 796.276 L43.5384 779.121 L48.7583 779.121 L48.7583 796.276 L43.5384 796.276 Z" fill="#000000" fill-rule="evenodd" fill-opacity="1" /><path clip-path="url(#clip270)" d="M42.4881 740.163 L64.0042 740.163 L64.0042 746.019 L42.679 746.019 Q37.6183 746.019 35.1038 747.992 Q32.5894 749.966 32.5894 753.913 Q32.5894 758.655 35.6131 761.392 Q38.6368 764.129 43.8567 764.129 L64.0042 764.129 L64.0042 770.018 L28.3562 770.018 L28.3562 764.129 L33.8944 764.129 Q30.6797 762.029 29.0883 759.196 Q27.4968 756.332 27.4968 752.608 Q27.4968 746.465 31.3163 743.314 Q35.1038 740.163 42.4881 740.163 Z" fill="#000000" fill-rule="evenodd" fill-opacity="1" /><path clip-path="url(#clip270)" d="M32.4621 714.668 Q32.4621 719.379 36.1542 722.116 Q39.8145 724.853 46.212 724.853 Q52.6095 724.853 56.3017 722.148 Q59.9619 719.41 59.9619 714.668 Q59.9619 709.989 56.2698 707.252 Q52.5777 704.515 46.212 704.515 Q39.8781 704.515 36.186 707.252 Q32.4621 709.989 32.4621 714.668 M27.4968 714.668 Q27.4968 707.029 32.4621 702.669 Q37.4273 698.308 46.212 698.308 Q54.9649 698.308 59.9619 702.669 Q64.9272 707.029 64.9272 714.668 Q64.9272 722.339 59.9619 726.699 Q54.9649 731.028 46.212 731.028 Q37.4273 731.028 32.4621 726.699 Q27.4968 722.339 27.4968 714.668 Z" fill="#000000" fill-rule="evenodd" fill-opacity="1" /><path clip-path="url(#clip270)" d="M33.8307 667.944 Q33.2578 668.93 33.0032 670.108 Q32.7167 671.254 32.7167 672.654 Q32.7167 677.62 35.9632 680.293 Q39.1779 682.935 45.2253 682.935 L64.0042 682.935 L64.0042 688.823 L28.3562 688.823 L28.3562 682.935 L33.8944 682.935 Q30.6479 681.089 29.0883 678.129 Q27.4968 675.169 27.4968 670.936 Q27.4968 670.331 27.5923 669.599 Q27.656 668.867 27.8151 667.975 L33.8307 667.944 Z" fill="#000000" fill-rule="evenodd" fill-opacity="1" /><path clip-path="url(#clip270)" d="M35.1993 635.192 Q31.2526 632.996 29.3747 629.94 Q27.4968 626.885 27.4968 622.747 Q27.4968 617.177 31.4117 614.153 Q35.2948 611.13 42.4881 611.13 L64.0042 611.13 L64.0042 617.018 L42.679 617.018 Q37.5546 617.018 35.072 618.832 Q32.5894 620.646 32.5894 624.37 Q32.5894 628.922 35.6131 631.564 Q38.6368 634.205 43.8567 634.205 L64.0042 634.205 L64.0042 640.094 L42.679 640.094 Q37.5228 640.094 35.072 641.908 Q32.5894 643.722 32.5894 647.51 Q32.5894 651.998 35.6449 654.639 Q38.6686 657.281 43.8567 657.281 L64.0042 657.281 L64.0042 663.169 L28.3562 663.169 L28.3562 657.281 L33.8944 657.281 Q30.616 655.276 29.0564 652.475 Q27.4968 649.674 27.4968 645.823 Q27.4968 641.94 29.4702 639.234 Q31.4436 636.497 35.1993 635.192 Z" fill="#000000" fill-rule="evenodd" fill-opacity="1" /><path clip-path="url(#clip270)" d="M14.5426 564.66 Q21.8632 568.925 29.0246 570.994 Q36.186 573.063 43.5384 573.063 Q50.8908 573.063 58.1159 570.994 Q65.3091 568.893 72.5979 564.66 L72.5979 569.753 Q65.1182 574.527 57.8931 576.914 Q50.668 579.269 43.5384 579.269 Q36.4406 579.269 29.2474 576.914 Q22.0542 574.559 14.5426 569.753 L14.5426 564.66 Z" fill="#000000" fill-rule="evenodd" fill-opacity="1" /><path clip-path="url(#clip270)" d="M16.4842 553.043 L16.4842 546.613 L58.5933 546.613 L58.5933 523.474 L64.0042 523.474 L64.0042 553.043 L16.4842 553.043 Z" fill="#000000" fill-rule="evenodd" fill-opacity="1" /><path clip-path="url(#clip270)" d="M32.4621 504.313 Q32.4621 509.024 36.1542 511.761 Q39.8145 514.498 46.212 514.498 Q52.6095 514.498 56.3017 511.793 Q59.9619 509.056 59.9619 504.313 Q59.9619 499.634 56.2698 496.897 Q52.5777 494.16 46.212 494.16 Q39.8781 494.16 36.186 496.897 Q32.4621 499.634 32.4621 504.313 M27.4968 504.313 Q27.4968 496.674 32.4621 492.314 Q37.4273 487.953 46.212 487.953 Q54.9649 487.953 59.9619 492.314 Q64.9272 496.674 64.9272 504.313 Q64.9272 511.984 59.9619 516.344 Q54.9649 520.673 46.212 520.673 Q37.4273 520.673 32.4621 516.344 Q27.4968 511.984 27.4968 504.313 Z" fill="#000000" fill-rule="evenodd" fill-opacity="1" /><path clip-path="url(#clip270)" d="M45.7664 454.788 Q39.4007 454.788 35.8996 457.43 Q32.3984 460.04 32.3984 464.782 Q32.3984 469.493 35.8996 472.135 Q39.4007 474.744 45.7664 474.744 Q52.1003 474.744 55.6014 472.135 Q59.1026 469.493 59.1026 464.782 Q59.1026 460.04 55.6014 457.43 Q52.1003 454.788 45.7664 454.788 M59.58 448.932 Q68.683 448.932 73.1071 452.974 Q77.5631 457.016 77.5631 465.355 Q77.5631 468.442 77.0857 471.18 Q76.6401 473.917 75.6852 476.495 L69.9879 476.495 Q71.3884 473.917 72.0568 471.402 Q72.7252 468.888 72.7252 466.278 Q72.7252 460.517 69.7015 457.653 Q66.7096 454.788 60.6303 454.788 L57.7339 454.788 Q60.885 456.602 62.4446 459.435 Q64.0042 462.268 64.0042 466.214 Q64.0042 472.771 59.0071 476.782 Q54.01 480.792 45.7664 480.792 Q37.491 480.792 32.4939 476.782 Q27.4968 472.771 27.4968 466.214 Q27.4968 462.268 29.0564 459.435 Q30.616 456.602 33.7671 454.788 L28.3562 454.788 L28.3562 448.932 L59.58 448.932 Z" fill="#000000" fill-rule="evenodd" fill-opacity="1" /><path clip-path="url(#clip270)" d="M14.5426 437.792 L14.5426 432.699 Q22.0542 427.925 29.2474 425.569 Q36.4406 423.182 43.5384 423.182 Q50.668 423.182 57.8931 425.569 Q65.1182 427.925 72.5979 432.699 L72.5979 437.792 Q65.3091 433.558 58.1159 431.489 Q50.8908 429.389 43.5384 429.389 Q36.186 429.389 29.0246 431.489 Q21.8632 433.558 14.5426 437.792 Z" fill="#000000" fill-rule="evenodd" fill-opacity="1" /><polyline clip-path="url(#clip272)" style="stroke:#009af9; stroke-linecap:butt; stroke-linejoin:round; stroke-width:12; stroke-opacity:1; fill:none" points="
  281.952,441.505 565.815,900.387 901.635,989.574 1282.52,1171.29 1675.73,1368.95 
  "/>
<circle clip-path="url(#clip272)" cx="281.952" cy="441.505" r="18" fill="#009af9" fill-rule="evenodd" fill-opacity="1" stroke="#000000" stroke-opacity="1" stroke-width="3.2"/>
<circle clip-path="url(#clip272)" cx="565.815" cy="900.387" r="18" fill="#009af9" fill-rule="evenodd" fill-opacity="1" stroke="#000000" stroke-opacity="1" stroke-width="3.2"/>
<circle clip-path="url(#clip272)" cx="901.635" cy="989.574" r="18" fill="#009af9" fill-rule="evenodd" fill-opacity="1" stroke="#000000" stroke-opacity="1" stroke-width="3.2"/>
<circle clip-path="url(#clip272)" cx="1282.52" cy="1171.29" r="18" fill="#009af9" fill-rule="evenodd" fill-opacity="1" stroke="#000000" stroke-opacity="1" stroke-width="3.2"/>
<circle clip-path="url(#clip272)" cx="1675.73" cy="1368.95" r="18" fill="#009af9" fill-rule="evenodd" fill-opacity="1" stroke="#000000" stroke-opacity="1" stroke-width="3.2"/>
<polyline clip-path="url(#clip272)" style="stroke:#e26f46; stroke-linecap:butt; stroke-linejoin:round; stroke-width:12; stroke-opacity:1; fill:none" points="
  596.985,594.835 863.202,793.567 1090.61,982.488 1428.36,1170.78 1774.52,1368.99 
  "/>
<path clip-path="url(#clip272)" d="M576.985 574.835 L576.985 614.835 L616.985 614.835 L616.985 574.835 L576.985 574.835 Z" fill="#e26f46" fill-rule="evenodd" fill-opacity="1" stroke="#000000" stroke-opacity="1" stroke-width="3.2"/>
<path clip-path="url(#clip272)" d="M843.202 773.567 L843.202 813.567 L883.202 813.567 L883.202 773.567 L843.202 773.567 Z" fill="#e26f46" fill-rule="evenodd" fill-opacity="1" stroke="#000000" stroke-opacity="1" stroke-width="3.2"/>
<path clip-path="url(#clip272)" d="M1070.61 962.488 L1070.61 1002.49 L1110.61 1002.49 L1110.61 962.488 L1070.61 962.488 Z" fill="#e26f46" fill-rule="evenodd" fill-opacity="1" stroke="#000000" stroke-opacity="1" stroke-width="3.2"/>
<path clip-path="url(#clip272)" d="M1408.36 1150.78 L1408.36 1190.78 L1448.36 1190.78 L1448.36 1150.78 L1408.36 1150.78 Z" fill="#e26f46" fill-rule="evenodd" fill-opacity="1" stroke="#000000" stroke-opacity="1" stroke-width="3.2"/>
<path clip-path="url(#clip272)" d="M1754.52 1348.99 L1754.52 1388.99 L1794.52 1388.99 L1794.52 1348.99 L1754.52 1348.99 Z" fill="#e26f46" fill-rule="evenodd" fill-opacity="1" stroke="#000000" stroke-opacity="1" stroke-width="3.2"/>
<polyline clip-path="url(#clip272)" style="stroke:#3da44d; stroke-linecap:butt; stroke-linejoin:round; stroke-width:12; stroke-opacity:1; fill:none" points="
  625.629,105.736 1009.85,137.263 1389.23,107.493 1773.3,85.838 
  "/>
<path clip-path="url(#clip272)" d="M641.629 105.736 L617.629 91.7362 L617.629 119.736 L641.629 105.736 Z" fill="#3da44d" fill-rule="evenodd" fill-opacity="1" stroke="#000000" stroke-opacity="1" stroke-width="3.2"/>
<path clip-path="url(#clip272)" d="M1025.85 137.263 L1001.85 123.263 L1001.85 151.263 L1025.85 137.263 Z" fill="#3da44d" fill-rule="evenodd" fill-opacity="1" stroke="#000000" stroke-opacity="1" stroke-width="3.2"/>
<path clip-path="url(#clip272)" d="M1405.23 107.493 L1381.23 93.4931 L1381.23 121.493 L1405.23 107.493 Z" fill="#3da44d" fill-rule="evenodd" fill-opacity="1" stroke="#000000" stroke-opacity="1" stroke-width="3.2"/>
<path clip-path="url(#clip272)" d="M1789.3 85.838 L1765.3 71.838 L1765.3 99.838 L1789.3 85.838 Z" fill="#3da44d" fill-rule="evenodd" fill-opacity="1" stroke="#000000" stroke-opacity="1" stroke-width="3.2"/>
<polyline clip-path="url(#clip272)" style="stroke:#c271d2; stroke-linecap:butt; stroke-linejoin:round; stroke-width:12; stroke-opacity:1; fill:none" points="
  931.449,400.47 1285.81,314.405 1621.43,227.445 1942.86,151.476 2292.44,135.222 
  "/>
<path clip-path="url(#clip272)" d="M931.449 380.47 L911.449 400.47 L931.449 420.47 L951.449 400.47 L931.449 380.47 Z" fill="#c271d2" fill-rule="evenodd" fill-opacity="1" stroke="#000000" stroke-opacity="1" stroke-width="3.2"/>
<path clip-path="url(#clip272)" d="M1285.81 294.405 L1265.81 314.405 L1285.81 334.405 L1305.81 314.405 L1285.81 294.405 Z" fill="#c271d2" fill-rule="evenodd" fill-opacity="1" stroke="#000000" stroke-opacity="1" stroke-width="3.2"/>
<path clip-path="url(#clip272)" d="M1621.43 207.445 L1601.43 227.445 L1621.43 247.445 L1641.43 227.445 L1621.43 207.445 Z" fill="#c271d2" fill-rule="evenodd" fill-opacity="1" stroke="#000000" stroke-opacity="1" stroke-width="3.2"/>
<path clip-path="url(#clip272)" d="M1942.86 131.476 L1922.86 151.476 L1942.86 171.476 L1962.86 151.476 L1942.86 131.476 Z" fill="#c271d2" fill-rule="evenodd" fill-opacity="1" stroke="#000000" stroke-opacity="1" stroke-width="3.2"/>
<path clip-path="url(#clip272)" d="M2292.44 115.222 L2272.44 135.222 L2292.44 155.222 L2312.44 135.222 L2292.44 115.222 Z" fill="#c271d2" fill-rule="evenodd" fill-opacity="1" stroke="#000000" stroke-opacity="1" stroke-width="3.2"/>
<polyline clip-path="url(#clip272)" style="stroke:#ac8d18; stroke-linecap:butt; stroke-linejoin:round; stroke-width:12; stroke-opacity:1; fill:none" points="
  623.914,445.701 983.324,903.307 1356.25,992.835 1743.92,1174.59 2138.13,1372.26 
  "/>
<circle clip-path="url(#clip272)" cx="623.914" cy="445.701" r="18" fill="#ac8d18" fill-rule="evenodd" fill-opacity="1" stroke="#000000" stroke-opacity="1" stroke-width="3.2"/>
<circle clip-path="url(#clip272)" cx="983.324" cy="903.307" r="18" fill="#ac8d18" fill-rule="evenodd" fill-opacity="1" stroke="#000000" stroke-opacity="1" stroke-width="3.2"/>
<circle clip-path="url(#clip272)" cx="1356.25" cy="992.835" r="18" fill="#ac8d18" fill-rule="evenodd" fill-opacity="1" stroke="#000000" stroke-opacity="1" stroke-width="3.2"/>
<circle clip-path="url(#clip272)" cx="1743.92" cy="1174.59" r="18" fill="#ac8d18" fill-rule="evenodd" fill-opacity="1" stroke="#000000" stroke-opacity="1" stroke-width="3.2"/>
<circle clip-path="url(#clip272)" cx="2138.13" cy="1372.26" r="18" fill="#ac8d18" fill-rule="evenodd" fill-opacity="1" stroke="#000000" stroke-opacity="1" stroke-width="3.2"/>
<polyline clip-path="url(#clip272)" style="stroke:#00a9ad; stroke-linecap:butt; stroke-linejoin:round; stroke-width:12; stroke-opacity:1; fill:none" points="
  985.303,598.231 1281.7,796.846 1594.99,985.763 1930.93,1174.08 2263.67,1372.3 
  "/>
<path clip-path="url(#clip272)" d="M965.303 578.231 L965.303 618.231 L1005.3 618.231 L1005.3 578.231 L965.303 578.231 Z" fill="#00a9ad" fill-rule="evenodd" fill-opacity="1" stroke="#000000" stroke-opacity="1" stroke-width="3.2"/>
<path clip-path="url(#clip272)" d="M1261.7 776.846 L1261.7 816.846 L1301.7 816.846 L1301.7 776.846 L1261.7 776.846 Z" fill="#00a9ad" fill-rule="evenodd" fill-opacity="1" stroke="#000000" stroke-opacity="1" stroke-width="3.2"/>
<path clip-path="url(#clip272)" d="M1574.99 965.763 L1574.99 1005.76 L1614.99 1005.76 L1614.99 965.763 L1574.99 965.763 Z" fill="#00a9ad" fill-rule="evenodd" fill-opacity="1" stroke="#000000" stroke-opacity="1" stroke-width="3.2"/>
<path clip-path="url(#clip272)" d="M1910.93 1154.08 L1910.93 1194.08 L1950.93 1194.08 L1950.93 1154.08 L1910.93 1154.08 Z" fill="#00a9ad" fill-rule="evenodd" fill-opacity="1" stroke="#000000" stroke-opacity="1" stroke-width="3.2"/>
<path clip-path="url(#clip272)" d="M2243.67 1352.3 L2243.67 1392.3 L2283.67 1392.3 L2283.67 1352.3 L2243.67 1352.3 Z" fill="#00a9ad" fill-rule="evenodd" fill-opacity="1" stroke="#000000" stroke-opacity="1" stroke-width="3.2"/>
</svg>
