<?xml version="1.0" encoding="utf-8"?>
<svg xmlns="http://www.w3.org/2000/svg" xmlns:xlink="http://www.w3.org/1999/xlink" width="600" height="400" viewBox="0 0 2400 1600">
<defs>
  <clipPath id="clip500">
    <rect x="0" y="0" width="2400" height="1600"/>
  </clipPath>
</defs>
<path clip-path="url(#clip500)" d="
M0 1600 L2400 1600 L2400 0 L0 0  Z
  " fill="#ffffff" fill-rule="evenodd" fill-opacity="1"/>
<defs>
  <clipPath id="clip501">
    <rect x="480" y="0" width="1681" height="1600"/>
  </clipPath>
</defs>
<path clip-path="url(#clip500)" d="
M252.764 1410.9 L2352.76 1410.9 L2352.76 47.2441 L252.764 47.2441  Z
  " fill="#ffffff" fill-rule="evenodd" fill-opacity="1"/>
<defs>
  <clipPath id="clip502">
    <rect x="252" y="47" width="2101" height="1365"/>
  </clipPath>
</defs>
<polyline clip-path="url(#clip502)" style="stroke:#000000; stroke-linecap:butt; stroke-linejoin:round; stroke-width:2; stroke-opacity:0.1; fill:none" points="
  299.078,1410.9 299.078,47.2441 
  "/>
<polyline clip-path="url(#clip502)" style="stroke:#000000; stroke-linecap:butt; stroke-linejoin:round; stroke-width:2; stroke-opacity:0.1; fill:none" points="
  1470.44,1410.9 1470.44,47.2441 
  "/>
<polyline clip-path="url(#clip500)" style="stroke:#000000; stroke-linecap:butt; stroke-linejoin:round; stroke-width:4; stroke-opacity:1; fill:none" points="
  252.764,1410.9 2352.76,1410.9 
  "/>
<polyline clip-path="url(#clip500)" style="stroke:#000000; stroke-linecap:butt; stroke-linejoin:round; stroke-width:4; stroke-opacity:1; fill:none" points="
  252.764,47.2441 2352.76,47.2441 
  "/>
<polyline clip-path="url(#clip500)" style="stroke:#000000; stroke-linecap:butt; stroke-linejoin:round; stroke-width:4; stroke-opacity:1; fill:none" points="
  299.078,1410.9 299.078,1392 
  "/>
<polyline clip-path="url(#clip500)" style="stroke:#000000; stroke-linecap:butt; stroke-linejoin:round; stroke-width:4; stroke-opacity:1; fill:none" points="
  1470.44,1410.9 1470.44,1392 
  "/>
<path clip-path="url(#clip500)" d="M248.497 1485.02 L256.136 1485.02 L256.136 1458.66 L247.826 1460.32 L247.826 1456.06 L256.09 1454.4 L260.766 1454.4 L260.766 1485.02 L268.405 1485.02 L268.405 1488.96 L248.497 1488.96 L248.497 1485.02 Z" fill="#000000" fill-rule="evenodd" fill-opacity="1" /><path clip-path="url(#clip500)" d="M287.849 1457.48 Q284.238 1457.48 282.409 1461.04 Q280.604 1464.58 280.604 1471.71 Q280.604 1478.82 282.409 1482.38 Q284.238 1485.92 287.849 1485.92 Q291.483 1485.92 293.289 1482.38 Q295.117 1478.82 295.117 1471.71 Q295.117 1464.58 293.289 1461.04 Q291.483 1457.48 287.849 1457.48 M287.849 1453.77 Q293.659 1453.77 296.715 1458.38 Q299.793 1462.96 299.793 1471.71 Q299.793 1480.44 296.715 1485.04 Q293.659 1489.63 287.849 1489.63 Q282.039 1489.63 278.96 1485.04 Q275.905 1480.44 275.905 1471.71 Q275.905 1462.96 278.96 1458.38 Q282.039 1453.77 287.849 1453.77 Z" fill="#000000" fill-rule="evenodd" fill-opacity="1" /><path clip-path="url(#clip500)" d="M299.793 1447.87 L323.905 1447.87 L323.905 1451.07 L299.793 1451.07 L299.793 1447.87 Z" fill="#000000" fill-rule="evenodd" fill-opacity="1" /><path clip-path="url(#clip500)" d="M342.543 1436.78 L332.951 1451.77 L342.543 1451.77 L342.543 1436.78 M341.547 1433.47 L346.324 1433.47 L346.324 1451.77 L350.33 1451.77 L350.33 1454.93 L346.324 1454.93 L346.324 1461.55 L342.543 1461.55 L342.543 1454.93 L329.867 1454.93 L329.867 1451.26 L341.547 1433.47 Z" fill="#000000" fill-rule="evenodd" fill-opacity="1" /><path clip-path="url(#clip500)" d="M1420.32 1485.02 L1427.96 1485.02 L1427.96 1458.66 L1419.65 1460.32 L1419.65 1456.06 L1427.91 1454.4 L1432.59 1454.4 L1432.59 1485.02 L1440.23 1485.02 L1440.23 1488.96 L1420.32 1488.96 L1420.32 1485.02 Z" fill="#000000" fill-rule="evenodd" fill-opacity="1" /><path clip-path="url(#clip500)" d="M1459.67 1457.48 Q1456.06 1457.48 1454.23 1461.04 Q1452.43 1464.58 1452.43 1471.71 Q1452.43 1478.82 1454.23 1482.38 Q1456.06 1485.92 1459.67 1485.92 Q1463.31 1485.92 1465.11 1482.38 Q1466.94 1478.82 1466.94 1471.71 Q1466.94 1464.58 1465.11 1461.04 Q1463.31 1457.48 1459.67 1457.48 M1459.67 1453.77 Q1465.48 1453.77 1468.54 1458.38 Q1471.62 1462.96 1471.62 1471.71 Q1471.62 1480.44 1468.54 1485.04 Q1465.48 1489.63 1459.67 1489.63 Q1453.86 1489.63 1450.78 1485.04 Q1447.73 1480.44 1447.73 1471.71 Q1447.73 1462.96 1450.78 1458.38 Q1453.86 1453.77 1459.67 1453.77 Z" fill="#000000" fill-rule="evenodd" fill-opacity="1" /><path clip-path="url(#clip500)" d="M1471.62 1447.87 L1495.73 1447.87 L1495.73 1451.07 L1471.62 1451.07 L1471.62 1447.87 Z" fill="#000000" fill-rule="evenodd" fill-opacity="1" /><path clip-path="url(#clip500)" d="M1515.44 1446.41 Q1518.17 1446.99 1519.69 1448.83 Q1521.23 1450.68 1521.23 1453.38 Q1521.23 1457.54 1518.37 1459.82 Q1515.51 1462.09 1510.25 1462.09 Q1508.48 1462.09 1506.6 1461.73 Q1504.74 1461.4 1502.74 1460.7 L1502.74 1457.03 Q1504.32 1457.95 1506.2 1458.42 Q1508.09 1458.89 1510.14 1458.89 Q1513.71 1458.89 1515.57 1457.48 Q1517.45 1456.07 1517.45 1453.38 Q1517.45 1450.9 1515.7 1449.51 Q1513.97 1448.1 1510.87 1448.1 L1507.6 1448.1 L1507.6 1444.98 L1511.02 1444.98 Q1513.82 1444.98 1515.31 1443.87 Q1516.79 1442.74 1516.79 1440.63 Q1516.79 1438.47 1515.25 1437.32 Q1513.73 1436.16 1510.87 1436.16 Q1509.31 1436.16 1507.52 1436.49 Q1505.73 1436.83 1503.59 1437.55 L1503.59 1434.16 Q1505.75 1433.56 1507.63 1433.26 Q1509.53 1432.96 1511.21 1432.96 Q1515.53 1432.96 1518.05 1434.93 Q1520.57 1436.89 1520.57 1440.24 Q1520.57 1442.57 1519.24 1444.19 Q1517.9 1445.79 1515.44 1446.41 Z" fill="#000000" fill-rule="evenodd" fill-opacity="1" /><path clip-path="url(#clip500)" d="M915.2 1526.67 L945.246 1526.67 L945.246 1532.08 L921.629 1532.08 L921.629 1546.14 L944.259 1546.14 L944.259 1551.56 L921.629 1551.56 L921.629 1568.77 L945.819 1568.77 L945.819 1574.19 L915.2 1574.19 L915.2 1526.67 Z" fill="#000000" fill-rule="evenodd" fill-opacity="1" /><path clip-path="url(#clip500)" d="M985.764 1538.54 L972.873 1555.88 L986.432 1574.19 L979.525 1574.19 L969.149 1560.18 L958.773 1574.19 L951.866 1574.19 L965.712 1555.53 L953.044 1538.54 L959.951 1538.54 L969.404 1551.24 L978.857 1538.54 L985.764 1538.54 Z" fill="#000000" fill-rule="evenodd" fill-opacity="1" /><path clip-path="url(#clip500)" d="M1023.19 1554.9 L1023.19 1557.76 L996.267 1557.76 Q996.649 1563.81 999.896 1566.99 Q1003.17 1570.14 1009 1570.14 Q1012.37 1570.14 1015.52 1569.32 Q1018.71 1568.49 1021.83 1566.83 L1021.83 1572.37 Q1018.67 1573.71 1015.36 1574.41 Q1012.05 1575.11 1008.65 1575.11 Q1000.12 1575.11 995.121 1570.14 Q990.156 1565.18 990.156 1556.71 Q990.156 1547.96 994.867 1542.83 Q999.609 1537.68 1007.63 1537.68 Q1014.82 1537.68 1018.99 1542.33 Q1023.19 1546.94 1023.19 1554.9 M1017.34 1553.18 Q1017.27 1548.37 1014.63 1545.51 Q1012.02 1542.64 1007.69 1542.64 Q1002.79 1542.64 999.832 1545.41 Q996.904 1548.18 996.458 1553.21 L1017.34 1553.18 Z" fill="#000000" fill-rule="evenodd" fill-opacity="1" /><path clip-path="url(#clip500)" d="M1058.46 1539.91 L1058.46 1545.38 Q1055.98 1544.01 1053.46 1543.34 Q1050.98 1542.64 1048.43 1542.64 Q1042.74 1542.64 1039.59 1546.27 Q1036.43 1549.87 1036.43 1556.39 Q1036.43 1562.92 1039.59 1566.55 Q1042.74 1570.14 1048.43 1570.14 Q1050.98 1570.14 1053.46 1569.47 Q1055.98 1568.77 1058.46 1567.41 L1058.46 1572.82 Q1056.01 1573.96 1053.37 1574.54 Q1050.76 1575.11 1047.8 1575.11 Q1039.74 1575.11 1035 1570.05 Q1030.26 1564.99 1030.26 1556.39 Q1030.26 1547.67 1035.03 1542.68 Q1039.84 1537.68 1048.18 1537.68 Q1050.88 1537.68 1053.46 1538.25 Q1056.04 1538.79 1058.46 1539.91 Z" fill="#000000" fill-rule="evenodd" fill-opacity="1" /><path clip-path="url(#clip500)" d="M1068.04 1560.12 L1068.04 1538.54 L1073.9 1538.54 L1073.9 1559.89 Q1073.9 1564.96 1075.87 1567.5 Q1077.84 1570.02 1081.79 1570.02 Q1086.53 1570.02 1089.27 1566.99 Q1092.04 1563.97 1092.04 1558.75 L1092.04 1538.54 L1097.9 1538.54 L1097.9 1574.19 L1092.04 1574.19 L1092.04 1568.71 Q1089.91 1571.96 1087.07 1573.55 Q1084.27 1575.11 1080.55 1575.11 Q1074.41 1575.11 1071.22 1571.29 Q1068.04 1567.47 1068.04 1560.12 M1082.78 1537.68 L1082.78 1537.68 Z" fill="#000000" fill-rule="evenodd" fill-opacity="1" /><path clip-path="url(#clip500)" d="M1115.75 1528.42 L1115.75 1538.54 L1127.81 1538.54 L1127.81 1543.09 L1115.75 1543.09 L1115.75 1562.44 Q1115.75 1566.8 1116.93 1568.04 Q1118.14 1569.28 1121.8 1569.28 L1127.81 1569.28 L1127.81 1574.19 L1121.8 1574.19 Q1115.02 1574.19 1112.44 1571.67 Q1109.86 1569.12 1109.86 1562.44 L1109.86 1543.09 L1105.57 1543.09 L1105.57 1538.54 L1109.86 1538.54 L1109.86 1528.42 L1115.75 1528.42 Z" fill="#000000" fill-rule="evenodd" fill-opacity="1" /><path clip-path="url(#clip500)" d="M1135.52 1538.54 L1141.37 1538.54 L1141.37 1574.19 L1135.52 1574.19 L1135.52 1538.54 M1135.52 1524.66 L1141.37 1524.66 L1141.37 1532.08 L1135.52 1532.08 L1135.52 1524.66 Z" fill="#000000" fill-rule="evenodd" fill-opacity="1" /><path clip-path="url(#clip500)" d="M1167.44 1542.64 Q1162.73 1542.64 1159.99 1546.34 Q1157.26 1550 1157.26 1556.39 Q1157.26 1562.79 1159.96 1566.48 Q1162.7 1570.14 1167.44 1570.14 Q1172.12 1570.14 1174.86 1566.45 Q1177.59 1562.76 1177.59 1556.39 Q1177.59 1550.06 1174.86 1546.37 Q1172.12 1542.64 1167.44 1542.64 M1167.44 1537.68 Q1175.08 1537.68 1179.44 1542.64 Q1183.8 1547.61 1183.8 1556.39 Q1183.8 1565.15 1179.44 1570.14 Q1175.08 1575.11 1167.44 1575.11 Q1159.77 1575.11 1155.41 1570.14 Q1151.08 1565.15 1151.08 1556.39 Q1151.08 1547.61 1155.41 1542.64 Q1159.77 1537.68 1167.44 1537.68 Z" fill="#000000" fill-rule="evenodd" fill-opacity="1" /><path clip-path="url(#clip500)" d="M1223.14 1552.67 L1223.14 1574.19 L1217.28 1574.19 L1217.28 1552.86 Q1217.28 1547.8 1215.31 1545.29 Q1213.34 1542.77 1209.39 1542.77 Q1204.65 1542.77 1201.91 1545.79 Q1199.17 1548.82 1199.17 1554.04 L1199.17 1574.19 L1193.29 1574.19 L1193.29 1538.54 L1199.17 1538.54 L1199.17 1544.08 Q1201.27 1540.86 1204.11 1539.27 Q1206.97 1537.68 1210.7 1537.68 Q1216.84 1537.68 1219.99 1541.5 Q1223.14 1545.29 1223.14 1552.67 Z" fill="#000000" fill-rule="evenodd" fill-opacity="1" /><path clip-path="url(#clip500)" d="M1261.34 1528.42 L1261.34 1538.54 L1273.4 1538.54 L1273.4 1543.09 L1261.34 1543.09 L1261.34 1562.44 Q1261.34 1566.8 1262.51 1568.04 Q1263.72 1569.28 1267.38 1569.28 L1273.4 1569.28 L1273.4 1574.19 L1267.38 1574.19 Q1260.6 1574.19 1258.02 1571.67 Q1255.45 1569.12 1255.45 1562.44 L1255.45 1543.09 L1251.15 1543.09 L1251.15 1538.54 L1255.45 1538.54 L1255.45 1528.42 L1261.34 1528.42 Z" fill="#000000" fill-rule="evenodd" fill-opacity="1" /><path clip-path="url(#clip500)" d="M1281.1 1538.54 L1286.96 1538.54 L1286.96 1574.19 L1281.1 1574.19 L1281.1 1538.54 M1281.1 1524.66 L1286.96 1524.66 L1286.96 1532.08 L1281.1 1532.08 L1281.1 1524.66 Z" fill="#000000" fill-rule="evenodd" fill-opacity="1" /><path clip-path="url(#clip500)" d="M1326.97 1545.38 Q1329.16 1541.43 1332.22 1539.56 Q1335.27 1537.68 1339.41 1537.68 Q1344.98 1537.68 1348 1541.59 Q1351.03 1545.48 1351.03 1552.67 L1351.03 1574.19 L1345.14 1574.19 L1345.14 1552.86 Q1345.14 1547.74 1343.33 1545.25 Q1341.51 1542.77 1337.79 1542.77 Q1333.24 1542.77 1330.59 1545.79 Q1327.95 1548.82 1327.95 1554.04 L1327.95 1574.19 L1322.06 1574.19 L1322.06 1552.86 Q1322.06 1547.7 1320.25 1545.25 Q1318.44 1542.77 1314.65 1542.77 Q1310.16 1542.77 1307.52 1545.83 Q1304.88 1548.85 1304.88 1554.04 L1304.88 1574.19 L1298.99 1574.19 L1298.99 1538.54 L1304.88 1538.54 L1304.88 1544.08 Q1306.88 1540.8 1309.68 1539.24 Q1312.48 1537.68 1316.33 1537.68 Q1320.22 1537.68 1322.92 1539.65 Q1325.66 1541.62 1326.97 1545.38 Z" fill="#000000" fill-rule="evenodd" fill-opacity="1" /><path clip-path="url(#clip500)" d="M1393.2 1554.9 L1393.2 1557.76 L1366.27 1557.76 Q1366.66 1563.81 1369.9 1566.99 Q1373.18 1570.14 1379.01 1570.14 Q1382.38 1570.14 1385.53 1569.32 Q1388.71 1568.49 1391.83 1566.83 L1391.83 1572.37 Q1388.68 1573.71 1385.37 1574.41 Q1382.06 1575.11 1378.66 1575.11 Q1370.13 1575.11 1365.13 1570.14 Q1360.16 1565.18 1360.16 1556.71 Q1360.16 1547.96 1364.87 1542.83 Q1369.62 1537.68 1377.64 1537.68 Q1384.83 1537.68 1389 1542.33 Q1393.2 1546.94 1393.2 1554.9 M1387.34 1553.18 Q1387.28 1548.37 1384.64 1545.51 Q1382.03 1542.64 1377.7 1542.64 Q1372.8 1542.64 1369.84 1545.41 Q1366.91 1548.18 1366.46 1553.21 L1387.34 1553.18 Z" fill="#000000" fill-rule="evenodd" fill-opacity="1" /><path clip-path="url(#clip500)" d="M1437.6 1524.72 Q1433.34 1532.04 1431.27 1539.21 Q1429.2 1546.37 1429.2 1553.72 Q1429.2 1561.07 1431.27 1568.3 Q1433.37 1575.49 1437.6 1582.78 L1432.51 1582.78 Q1427.73 1575.3 1425.35 1568.07 Q1422.99 1560.85 1422.99 1553.72 Q1422.99 1546.62 1425.35 1539.43 Q1427.7 1532.24 1432.51 1524.72 L1437.6 1524.72 Z" fill="#000000" fill-rule="evenodd" fill-opacity="1" /><path clip-path="url(#clip500)" d="M1471.69 1539.59 L1471.69 1545.13 Q1469.21 1543.85 1466.53 1543.22 Q1463.86 1542.58 1461 1542.58 Q1456.63 1542.58 1454.44 1543.92 Q1452.27 1545.25 1452.27 1547.93 Q1452.27 1549.96 1453.83 1551.14 Q1455.39 1552.29 1460.1 1553.34 L1462.11 1553.78 Q1468.35 1555.12 1470.96 1557.57 Q1473.6 1559.99 1473.6 1564.35 Q1473.6 1569.32 1469.65 1572.21 Q1465.74 1575.11 1458.86 1575.11 Q1456 1575.11 1452.88 1574.54 Q1449.79 1573.99 1446.35 1572.88 L1446.35 1566.83 Q1449.6 1568.52 1452.75 1569.38 Q1455.9 1570.21 1458.99 1570.21 Q1463.13 1570.21 1465.36 1568.81 Q1467.58 1567.37 1467.58 1564.8 Q1467.58 1562.41 1465.96 1561.14 Q1464.37 1559.86 1458.93 1558.68 L1456.89 1558.21 Q1451.45 1557.06 1449.03 1554.71 Q1446.61 1552.32 1446.61 1548.18 Q1446.61 1543.15 1450.17 1540.42 Q1453.74 1537.68 1460.3 1537.68 Q1463.54 1537.68 1466.41 1538.16 Q1469.27 1538.63 1471.69 1539.59 Z" fill="#000000" fill-rule="evenodd" fill-opacity="1" /><path clip-path="url(#clip500)" d="M1508.58 1539.91 L1508.58 1545.38 Q1506.1 1544.01 1503.58 1543.34 Q1501.1 1542.64 1498.55 1542.64 Q1492.86 1542.64 1489.7 1546.27 Q1486.55 1549.87 1486.55 1556.39 Q1486.55 1562.92 1489.7 1566.55 Q1492.86 1570.14 1498.55 1570.14 Q1501.1 1570.14 1503.58 1569.47 Q1506.1 1568.77 1508.58 1567.41 L1508.58 1572.82 Q1506.13 1573.96 1503.49 1574.54 Q1500.88 1575.11 1497.92 1575.11 Q1489.86 1575.11 1485.12 1570.05 Q1480.38 1564.99 1480.38 1556.39 Q1480.38 1547.67 1485.15 1542.68 Q1489.96 1537.68 1498.3 1537.68 Q1501 1537.68 1503.58 1538.25 Q1506.16 1538.79 1508.58 1539.91 Z" fill="#000000" fill-rule="evenodd" fill-opacity="1" /><path clip-path="url(#clip500)" d="M1520.26 1566.1 L1526.98 1566.1 L1526.98 1571.58 L1521.76 1581.76 L1517.65 1581.76 L1520.26 1571.58 L1520.26 1566.1 Z" fill="#000000" fill-rule="evenodd" fill-opacity="1" /><path clip-path="url(#clip500)" d="M1560.46 1526.67 L1566.89 1526.67 L1566.89 1568.77 L1590.03 1568.77 L1590.03 1574.19 L1560.46 1574.19 L1560.46 1526.67 Z" fill="#000000" fill-rule="evenodd" fill-opacity="1" /><path clip-path="url(#clip500)" d="M1609.19 1542.64 Q1604.48 1542.64 1601.74 1546.34 Q1599 1550 1599 1556.39 Q1599 1562.79 1601.71 1566.48 Q1604.45 1570.14 1609.19 1570.14 Q1613.87 1570.14 1616.61 1566.45 Q1619.34 1562.76 1619.34 1556.39 Q1619.34 1550.06 1616.61 1546.37 Q1613.87 1542.64 1609.19 1542.64 M1609.19 1537.68 Q1616.83 1537.68 1621.19 1542.64 Q1625.55 1547.61 1625.55 1556.39 Q1625.55 1565.15 1621.19 1570.14 Q1616.83 1575.11 1609.19 1575.11 Q1601.52 1575.11 1597.16 1570.14 Q1592.83 1565.15 1592.83 1556.39 Q1592.83 1547.61 1597.16 1542.64 Q1601.52 1537.68 1609.19 1537.68 Z" fill="#000000" fill-rule="evenodd" fill-opacity="1" /><path clip-path="url(#clip500)" d="M1658.71 1555.95 Q1658.71 1549.58 1656.07 1546.08 Q1653.46 1542.58 1648.72 1542.58 Q1644.01 1542.58 1641.37 1546.08 Q1638.76 1549.58 1638.76 1555.95 Q1638.76 1562.28 1641.37 1565.78 Q1644.01 1569.28 1648.72 1569.28 Q1653.46 1569.28 1656.07 1565.78 Q1658.71 1562.28 1658.71 1555.95 M1664.57 1569.76 Q1664.57 1578.86 1660.53 1583.29 Q1656.49 1587.74 1648.15 1587.74 Q1645.06 1587.74 1642.32 1587.27 Q1639.59 1586.82 1637.01 1585.87 L1637.01 1580.17 Q1639.59 1581.57 1642.1 1582.24 Q1644.61 1582.91 1647.22 1582.91 Q1652.99 1582.91 1655.85 1579.88 Q1658.71 1576.89 1658.71 1570.81 L1658.71 1567.92 Q1656.9 1571.07 1654.07 1572.63 Q1651.23 1574.19 1647.29 1574.19 Q1640.73 1574.19 1636.72 1569.19 Q1632.71 1564.19 1632.71 1555.95 Q1632.71 1547.67 1636.72 1542.68 Q1640.73 1537.68 1647.29 1537.68 Q1651.23 1537.68 1654.07 1539.24 Q1656.9 1540.8 1658.71 1543.95 L1658.71 1538.54 L1664.57 1538.54 L1664.57 1569.76 Z" fill="#000000" fill-rule="evenodd" fill-opacity="1" /><path clip-path="url(#clip500)" d="M1675.71 1524.72 L1680.8 1524.72 Q1685.58 1532.24 1687.93 1539.43 Q1690.32 1546.62 1690.32 1553.72 Q1690.32 1560.85 1687.93 1568.07 Q1685.58 1575.3 1680.8 1582.78 L1675.71 1582.78 Q1679.94 1575.49 1682.01 1568.3 Q1684.11 1561.07 1684.11 1553.72 Q1684.11 1546.37 1682.01 1539.21 Q1679.94 1532.04 1675.71 1524.72 Z" fill="#000000" fill-rule="evenodd" fill-opacity="1" /><polyline clip-path="url(#clip502)" style="stroke:#000000; stroke-linecap:butt; stroke-linejoin:round; stroke-width:2; stroke-opacity:0.1; fill:none" points="
  252.764,1346.03 2352.76,1346.03 
  "/>
<polyline clip-path="url(#clip502)" style="stroke:#000000; stroke-linecap:butt; stroke-linejoin:round; stroke-width:2; stroke-opacity:0.1; fill:none" points="
  252.764,634.904 2352.76,634.904 
  "/>
<polyline clip-path="url(#clip500)" style="stroke:#000000; stroke-linecap:butt; stroke-linejoin:round; stroke-width:4; stroke-opacity:1; fill:none" points="
  252.764,1410.9 252.764,47.2441 
  "/>
<polyline clip-path="url(#clip500)" style="stroke:#000000; stroke-linecap:butt; stroke-linejoin:round; stroke-width:4; stroke-opacity:1; fill:none" points="
  2352.76,1410.9 2352.76,47.2441 
  "/>
<polyline clip-path="url(#clip500)" style="stroke:#000000; stroke-linecap:butt; stroke-linejoin:round; stroke-width:4; stroke-opacity:1; fill:none" points="
  252.764,1346.03 271.662,1346.03 
  "/>
<polyline clip-path="url(#clip500)" style="stroke:#000000; stroke-linecap:butt; stroke-linejoin:round; stroke-width:4; stroke-opacity:1; fill:none" points="
  252.764,634.904 271.662,634.904 
  "/>
<path clip-path="url(#clip500)" d="M114.931 1365.82 L122.57 1365.82 L122.57 1339.46 L114.26 1341.12 L114.26 1336.86 L122.524 1335.2 L127.2 1335.2 L127.2 1365.82 L134.839 1365.82 L134.839 1369.76 L114.931 1369.76 L114.931 1365.82 Z" fill="#000000" fill-rule="evenodd" fill-opacity="1" /><path clip-path="url(#clip500)" d="M154.283 1338.28 Q150.672 1338.28 148.843 1341.84 Q147.038 1345.38 147.038 1352.51 Q147.038 1359.62 148.843 1363.18 Q150.672 1366.72 154.283 1366.72 Q157.917 1366.72 159.723 1363.18 Q161.552 1359.62 161.552 1352.51 Q161.552 1345.38 159.723 1341.84 Q157.917 1338.28 154.283 1338.28 M154.283 1334.57 Q160.093 1334.57 163.149 1339.18 Q166.227 1343.76 166.227 1352.51 Q166.227 1361.24 163.149 1365.85 Q160.093 1370.43 154.283 1370.43 Q148.473 1370.43 145.394 1365.85 Q142.339 1361.24 142.339 1352.51 Q142.339 1343.76 145.394 1339.18 Q148.473 1334.57 154.283 1334.57 Z" fill="#000000" fill-rule="evenodd" fill-opacity="1" /><path clip-path="url(#clip500)" d="M166.227 1328.67 L190.339 1328.67 L190.339 1331.87 L166.227 1331.87 L166.227 1328.67 Z" fill="#000000" fill-rule="evenodd" fill-opacity="1" /><path clip-path="url(#clip500)" d="M208.978 1317.58 L199.386 1332.57 L208.978 1332.57 L208.978 1317.58 M207.981 1314.27 L212.758 1314.27 L212.758 1332.57 L216.764 1332.57 L216.764 1335.73 L212.758 1335.73 L212.758 1342.35 L208.978 1342.35 L208.978 1335.73 L196.301 1335.73 L196.301 1332.06 L207.981 1314.27 Z" fill="#000000" fill-rule="evenodd" fill-opacity="1" /><path clip-path="url(#clip500)" d="M116.624 654.697 L124.263 654.697 L124.263 628.331 L115.953 629.998 L115.953 625.738 L124.217 624.072 L128.893 624.072 L128.893 654.697 L136.531 654.697 L136.531 658.632 L116.624 658.632 L116.624 654.697 Z" fill="#000000" fill-rule="evenodd" fill-opacity="1" /><path clip-path="url(#clip500)" d="M155.976 627.15 Q152.365 627.15 150.536 630.715 Q148.73 634.257 148.73 641.386 Q148.73 648.493 150.536 652.058 Q152.365 655.599 155.976 655.599 Q159.61 655.599 161.416 652.058 Q163.244 648.493 163.244 641.386 Q163.244 634.257 161.416 630.715 Q159.61 627.15 155.976 627.15 M155.976 623.447 Q161.786 623.447 164.841 628.053 Q167.92 632.636 167.92 641.386 Q167.92 650.113 164.841 654.72 Q161.786 659.303 155.976 659.303 Q150.166 659.303 147.087 654.72 Q144.031 650.113 144.031 641.386 Q144.031 632.636 147.087 628.053 Q150.166 623.447 155.976 623.447 Z" fill="#000000" fill-rule="evenodd" fill-opacity="1" /><path clip-path="url(#clip500)" d="M167.92 617.548 L192.032 617.548 L192.032 620.745 L167.92 620.745 L167.92 617.548 Z" fill="#000000" fill-rule="evenodd" fill-opacity="1" /><path clip-path="url(#clip500)" d="M203.504 628.024 L216.764 628.024 L216.764 631.221 L198.934 631.221 L198.934 628.024 Q201.097 625.786 204.821 622.024 Q208.564 618.244 209.523 617.153 Q211.347 615.103 212.062 613.692 Q212.796 612.263 212.796 610.89 Q212.796 608.652 211.216 607.241 Q209.655 605.831 207.134 605.831 Q205.348 605.831 203.354 606.451 Q201.379 607.072 199.122 608.332 L199.122 604.495 Q201.417 603.574 203.41 603.104 Q205.404 602.634 207.059 602.634 Q211.423 602.634 214.018 604.815 Q216.613 606.997 216.613 610.646 Q216.613 612.376 215.955 613.937 Q215.316 615.479 213.604 617.586 Q213.134 618.131 210.614 620.745 Q208.094 623.341 203.504 628.024 Z" fill="#000000" fill-rule="evenodd" fill-opacity="1" /><path clip-path="url(#clip500)" d="M16.4842 1034.96 L16.4842 1004.91 L21.895 1004.91 L21.895 1028.53 L35.9632 1028.53 L35.9632 1005.9 L41.3741 1005.9 L41.3741 1028.53 L58.5933 1028.53 L58.5933 1004.34 L64.0042 1004.34 L64.0042 1034.96 L16.4842 1034.96 Z" fill="#000000" fill-rule="evenodd" fill-opacity="1" /><path clip-path="url(#clip500)" d="M33.8307 973.37 Q33.2578 974.357 33.0032 975.535 Q32.7167 976.68 32.7167 978.081 Q32.7167 983.046 35.9632 985.72 Q39.1779 988.362 45.2253 988.362 L64.0042 988.362 L64.0042 994.25 L28.3562 994.25 L28.3562 988.362 L33.8944 988.362 Q30.6479 986.515 29.0883 983.555 Q27.4968 980.595 27.4968 976.362 Q27.4968 975.757 27.5923 975.025 Q27.656 974.293 27.8151 973.402 L33.8307 973.37 Z" fill="#000000" fill-rule="evenodd" fill-opacity="1" /><path clip-path="url(#clip500)" d="M33.8307 947.716 Q33.2578 948.703 33.0032 949.881 Q32.7167 951.027 32.7167 952.427 Q32.7167 957.392 35.9632 960.066 Q39.1779 962.708 45.2253 962.708 L64.0042 962.708 L64.0042 968.596 L28.3562 968.596 L28.3562 962.708 L33.8944 962.708 Q30.6479 960.862 29.0883 957.902 Q27.4968 954.942 27.4968 950.708 Q27.4968 950.104 27.5923 949.372 Q27.656 948.64 27.8151 947.748 L33.8307 947.716 Z" fill="#000000" fill-rule="evenodd" fill-opacity="1" /><path clip-path="url(#clip500)" d="M32.4621 929.192 Q32.4621 933.903 36.1542 936.64 Q39.8145 939.377 46.212 939.377 Q52.6095 939.377 56.3017 936.672 Q59.9619 933.935 59.9619 929.192 Q59.9619 924.513 56.2698 921.776 Q52.5777 919.039 46.212 919.039 Q39.8781 919.039 36.186 921.776 Q32.4621 924.513 32.4621 929.192 M27.4968 929.192 Q27.4968 921.553 32.4621 917.193 Q37.4273 912.832 46.212 912.832 Q54.9649 912.832 59.9619 917.193 Q64.9272 921.553 64.9272 929.192 Q64.9272 936.863 59.9619 941.223 Q54.9649 945.552 46.212 945.552 Q37.4273 945.552 32.4621 941.223 Q27.4968 936.863 27.4968 929.192 Z" fill="#000000" fill-rule="evenodd" fill-opacity="1" /><path clip-path="url(#clip500)" d="M33.8307 882.468 Q33.2578 883.455 33.0032 884.632 Q32.7167 885.778 32.7167 887.179 Q32.7167 892.144 35.9632 894.817 Q39.1779 897.459 45.2253 897.459 L64.0042 897.459 L64.0042 903.348 L28.3562 903.348 L28.3562 897.459 L33.8944 897.459 Q30.6479 895.613 29.0883 892.653 Q27.4968 889.693 27.4968 885.46 Q27.4968 884.855 27.5923 884.123 Q27.656 883.391 27.8151 882.5 L33.8307 882.468 Z" fill="#000000" fill-rule="evenodd" fill-opacity="1" /><path clip-path="url(#clip500)" d="M55.9197 875.975 L55.9197 869.259 L64.0042 869.259 L64.0042 875.975 L55.9197 875.975 M30.2977 875.975 L30.2977 869.259 L38.3822 869.259 L38.3822 875.975 L30.2977 875.975 Z" fill="#000000" fill-rule="evenodd" fill-opacity="1" /><path clip-path="url(#clip500)" d="M58.5933 828.423 L58.5933 805.984 L64.0042 805.984 L64.0042 836.157 L58.5933 836.157 Q54.8057 832.497 48.44 826.195 Q42.0425 819.861 40.1964 818.238 Q36.7271 815.151 34.34 813.941 Q31.921 812.7 29.5975 812.7 Q25.8099 812.7 23.4228 815.373 Q21.0356 818.015 21.0356 822.28 Q21.0356 825.304 22.086 828.678 Q23.1363 832.02 25.2688 835.839 L18.7758 835.839 Q17.2162 831.956 16.4205 828.582 Q15.6248 825.208 15.6248 822.408 Q15.6248 815.023 19.3169 810.631 Q23.009 806.239 29.1837 806.239 Q32.112 806.239 34.7537 807.353 Q37.3637 808.435 40.9285 811.331 Q41.8515 812.127 46.2757 816.392 Q50.668 820.657 58.5933 828.423 Z" fill="#000000" fill-rule="evenodd" fill-opacity="1" /><path clip-path="url(#clip500)" d="M43.5384 796.276 L43.5384 779.121 L48.7583 779.121 L48.7583 796.276 L43.5384 796.276 Z" fill="#000000" fill-rule="evenodd" fill-opacity="1" /><path clip-path="url(#clip500)" d="M42.4881 740.163 L64.0042 740.163 L64.0042 746.019 L42.679 746.019 Q37.6183 746.019 35.1038 747.992 Q32.5894 749.966 32.5894 753.913 Q32.5894 758.655 35.6131 761.392 Q38.6368 764.129 43.8567 764.129 L64.0042 764.129 L64.0042 770.018 L28.3562 770.018 L28.3562 764.129 L33.8944 764.129 Q30.6797 762.029 29.0883 759.196 Q27.4968 756.332 27.4968 752.608 Q27.4968 746.465 31.3163 743.314 Q35.1038 740.163 42.4881 740.163 Z" fill="#000000" fill-rule="evenodd" fill-opacity="1" /><path clip-path="url(#clip500)" d="M32.4621 714.668 Q32.4621 719.379 36.1542 722.116 Q39.8145 724.853 46.212 724.853 Q52.6095 724.853 56.3017 722.148 Q59.9619 719.41 59.9619 714.668 Q59.9619 709.989 56.2698 707.252 Q52.5777 704.515 46.212 704.515 Q39.8781 704.515 36.186 707.252 Q32.4621 709.989 32.4621 714.668 M27.4968 714.668 Q27.4968 707.029 32.4621 702.669 Q37.4273 698.308 46.212 698.308 Q54.9649 698.308 59.9619 702.669 Q64.9272 707.029 64.9272 714.668 Q64.9272 722.339 59.9619 726.699 Q54.9649 731.028 46.212 731.028 Q37.4273 731.028 32.4621 726.699 Q27.4968 722.339 27.4968 714.668 Z" fill="#000000" fill-rule="evenodd" fill-opacity="1" /><path clip-path="url(#clip500)" d="M33.8307 667.944 Q33.2578 668.93 33.0032 670.108 Q32.7167 671.254 32.7167 672.654 Q32.7167 677.62 35.9632 680.293 Q39.1779 682.935 45.2253 682.935 L64.0042 682.935 L64.0042 688.823 L28.3562 688.823 L28.3562 682.935 L33.8944 682.935 Q30.6479 681.089 29.0883 678.129 Q27.4968 675.169 27.4968 670.936 Q27.4968 670.331 27.5923 669.599 Q27.656 668.867 27.8151 667.975 L33.8307 667.944 Z" fill="#000000" fill-rule="evenodd" fill-opacity="1" /><path clip-path="url(#clip500)" d="M35.1993 635.192 Q31.2526 632.996 29.3747 629.94 Q27.4968 626.885 27.4968 622.747 Q27.4968 617.177 31.4117 614.153 Q35.2948 611.13 42.4881 611.13 L64.0042 611.13 L64.0042 617.018 L42.679 617.018 Q37.5546 617.018 35.072 618.832 Q32.5894 620.646 32.5894 624.37 Q32.5894 628.922 35.6131 631.564 Q38.6368 634.205 43.8567 634.205 L64.0042 634.205 L64.0042 640.094 L42.679 640.094 Q37.5228 640.094 35.072 641.908 Q32.5894 643.722 32.5894 647.51 Q32.5894 651.998 35.6449 654.639 Q38.6686 657.281 43.8567 657.281 L64.0042 657.281 L64.0042 663.169 L28.3562 663.169 L28.3562 657.281 L33.8944 657.281 Q30.616 655.276 29.0564 652.475 Q27.4968 649.674 27.4968 645.823 Q27.4968 641.94 29.4702 639.234 Q31.4436 636.497 35.1993 635.192 Z" fill="#000000" fill-rule="evenodd" fill-opacity="1" /><path clip-path="url(#clip500)" d="M14.5426 564.66 Q21.8632 568.925 29.0246 570.994 Q36.186 573.063 43.5384 573.063 Q50.8908 573.063 58.1159 570.994 Q65.3091 568.893 72.5979 564.66 L72.5979 569.753 Q65.1182 574.527 57.8931 576.914 Q50.668 579.269 43.5384 579.269 Q36.4406 579.269 29.2474 576.914 Q22.0542 574.559 14.5426 569.753 L14.5426 564.66 Z" fill="#000000" fill-rule="evenodd" fill-opacity="1" /><path clip-path="url(#clip500)" d="M16.4842 553.043 L16.4842 546.613 L58.5933 546.613 L58.5933 523.474 L64.0042 523.474 L64.0042 553.043 L16.4842 553.043 Z" fill="#000000" fill-rule="evenodd" fill-opacity="1" /><path clip-path="url(#clip500)" d="M32.4621 504.313 Q32.4621 509.024 36.1542 511.761 Q39.8145 514.498 46.212 514.498 Q52.6095 514.498 56.3017 511.793 Q59.9619 509.056 59.9619 504.313 Q59.9619 499.634 56.2698 496.897 Q52.5777 494.16 46.212 494.16 Q39.8781 494.16 36.186 496.897 Q32.4621 499.634 32.4621 504.313 M27.4968 504.313 Q27.4968 496.674 32.4621 492.314 Q37.4273 487.953 46.212 487.953 Q54.9649 487.953 59.9619 492.314 Q64.9272 496.674 64.9272 504.313 Q64.9272 511.984 59.9619 516.344 Q54.9649 520.673 46.212 520.673 Q37.4273 520.673 32.4621 516.344 Q27.4968 511.984 27.4968 504.313 Z" fill="#000000" fill-rule="evenodd" fill-opacity="1" /><path clip-path="url(#clip500)" d="M45.7664 454.788 Q39.4007 454.788 35.8996 457.43 Q32.3984 460.04 32.3984 464.782 Q32.3984 469.493 35.8996 472.135 Q39.4007 474.744 45.7664 474.744 Q52.1003 474.744 55.6014 472.135 Q59.1026 469.493 59.1026 464.782 Q59.1026 460.04 55.6014 457.43 Q52.1003 454.788 45.7664 454.788 M59.58 448.932 Q68.683 448.932 73.1071 452.974 Q77.5631 457.016 77.5631 465.355 Q77.5631 468.442 77.0857 471.18 Q76.6401 473.917 75.6852 476.495 L69.9879 476.495 Q71.3884 473.917 72.0568 471.402 Q72.7252 468.888 72.7252 466.278 Q72.7252 460.517 69.7015 457.653 Q66.7096 454.788 60.6303 454.788 L57.7339 454.788 Q60.885 456.602 62.4446 459.435 Q64.0042 462.268 64.0042 466.214 Q64.0042 472.771 59.0071 476.782 Q54.01 480.792 45.7664 480.792 Q37.491 480.792 32.4939 476.782 Q27.4968 472.771 27.4968 466.214 Q27.4968 462.268 29.0564 459.435 Q30.616 456.602 33.7671 454.788 L28.3562 454.788 L28.3562 448.932 L59.58 448.932 Z" fill="#000000" fill-rule="evenodd" fill-opacity="1" /><path clip-path="url(#clip500)" d="M14.5426 437.792 L14.5426 432.699 Q22.0542 427.925 29.2474 425.569 Q36.4406 423.182 43.5384 423.182 Q50.668 423.182 57.8931 425.569 Q65.1182 427.925 72.5979 432.699 L72.5979 437.792 Q65.3091 433.558 58.1159 431.489 Q50.8908 429.389 43.5384 429.389 Q36.186 429.389 29.0246 431.489 Q21.8632 433.558 14.5426 437.792 Z" fill="#000000" fill-rule="evenodd" fill-opacity="1" /><polyline clip-path="url(#clip502)" style="stroke:#009af9; stroke-linecap:butt; stroke-linejoin:round; stroke-width:12; stroke-opacity:1; fill:none" points="
  312.198,161.387 742.189,309.482 1153.06,444.516 1432.54,570.299 1780.64,690.076 2117.87,805.882 
  "/>
<circle clip-path="url(#clip502)" cx="312.198" cy="161.387" r="18" fill="#009af9" fill-rule="evenodd" fill-opacity="1" stroke="#000000" stroke-opacity="1" stroke-width="3.2"/>
<circle clip-path="url(#clip502)" cx="742.189" cy="309.482" r="18" fill="#009af9" fill-rule="evenodd" fill-opacity="1" stroke="#000000" stroke-opacity="1" stroke-width="3.2"/>
<circle clip-path="url(#clip502)" cx="1153.06" cy="444.516" r="18" fill="#009af9" fill-rule="evenodd" fill-opacity="1" stroke="#000000" stroke-opacity="1" stroke-width="3.2"/>
<circle clip-path="url(#clip502)" cx="1432.54" cy="570.299" r="18" fill="#009af9" fill-rule="evenodd" fill-opacity="1" stroke="#000000" stroke-opacity="1" stroke-width="3.2"/>
<circle clip-path="url(#clip502)" cx="1780.64" cy="690.076" r="18" fill="#009af9" fill-rule="evenodd" fill-opacity="1" stroke="#000000" stroke-opacity="1" stroke-width="3.2"/>
<circle clip-path="url(#clip502)" cx="2117.87" cy="805.882" r="18" fill="#009af9" fill-rule="evenodd" fill-opacity="1" stroke="#000000" stroke-opacity="1" stroke-width="3.2"/>
<polyline clip-path="url(#clip502)" style="stroke:#e26f46; stroke-linecap:butt; stroke-linejoin:round; stroke-width:12; stroke-opacity:1; fill:none" points="
  546.427,557.018 864.75,723.914 1196.32,888.697 1517.99,1050.65 1868.64,1211.25 2171.36,1372.3 
  "/>
<path clip-path="url(#clip502)" d="M526.427 537.018 L526.427 577.018 L566.427 577.018 L566.427 537.018 L526.427 537.018 Z" fill="#e26f46" fill-rule="evenodd" fill-opacity="1" stroke="#000000" stroke-opacity="1" stroke-width="3.2"/>
<path clip-path="url(#clip502)" d="M844.75 703.914 L844.75 743.914 L884.75 743.914 L884.75 703.914 L844.75 703.914 Z" fill="#e26f46" fill-rule="evenodd" fill-opacity="1" stroke="#000000" stroke-opacity="1" stroke-width="3.2"/>
<path clip-path="url(#clip502)" d="M1176.32 868.697 L1176.32 908.697 L1216.32 908.697 L1216.32 868.697 L1176.32 868.697 Z" fill="#e26f46" fill-rule="evenodd" fill-opacity="1" stroke="#000000" stroke-opacity="1" stroke-width="3.2"/>
<path clip-path="url(#clip502)" d="M1497.99 1030.65 L1497.99 1070.65 L1537.99 1070.65 L1537.99 1030.65 L1497.99 1030.65 Z" fill="#e26f46" fill-rule="evenodd" fill-opacity="1" stroke="#000000" stroke-opacity="1" stroke-width="3.2"/>
<path clip-path="url(#clip502)" d="M1848.64 1191.25 L1848.64 1231.25 L1888.64 1231.25 L1888.64 1191.25 L1848.64 1191.25 Z" fill="#e26f46" fill-rule="evenodd" fill-opacity="1" stroke="#000000" stroke-opacity="1" stroke-width="3.2"/>
<path clip-path="url(#clip502)" d="M2151.36 1352.3 L2151.36 1392.3 L2191.36 1392.3 L2191.36 1352.3 L2151.36 1352.3 Z" fill="#e26f46" fill-rule="evenodd" fill-opacity="1" stroke="#000000" stroke-opacity="1" stroke-width="3.2"/>
<polyline clip-path="url(#clip502)" style="stroke:#3da44d; stroke-linecap:butt; stroke-linejoin:round; stroke-width:12; stroke-opacity:1; fill:none" points="
  318.786,85.838 742.191,152.82 1048.84,214.959 1377.42,274.253 1723.9,331.716 2091.32,387.944 
  "/>
<path clip-path="url(#clip502)" d="M334.786 85.838 L310.786 71.838 L310.786 99.838 L334.786 85.838 Z" fill="#3da44d" fill-rule="evenodd" fill-opacity="1" stroke="#000000" stroke-opacity="1" stroke-width="3.2"/>
<path clip-path="url(#clip502)" d="M758.191 152.82 L734.191 138.82 L734.191 166.82 L758.191 152.82 Z" fill="#3da44d" fill-rule="evenodd" fill-opacity="1" stroke="#000000" stroke-opacity="1" stroke-width="3.2"/>
<path clip-path="url(#clip502)" d="M1064.84 214.959 L1040.84 200.959 L1040.84 228.959 L1064.84 214.959 Z" fill="#3da44d" fill-rule="evenodd" fill-opacity="1" stroke="#000000" stroke-opacity="1" stroke-width="3.2"/>
<path clip-path="url(#clip502)" d="M1393.42 274.253 L1369.42 260.253 L1369.42 288.253 L1393.42 274.253 Z" fill="#3da44d" fill-rule="evenodd" fill-opacity="1" stroke="#000000" stroke-opacity="1" stroke-width="3.2"/>
<path clip-path="url(#clip502)" d="M1739.9 331.716 L1715.9 317.716 L1715.9 345.716 L1739.9 331.716 Z" fill="#3da44d" fill-rule="evenodd" fill-opacity="1" stroke="#000000" stroke-opacity="1" stroke-width="3.2"/>
<path clip-path="url(#clip502)" d="M2107.32 387.944 L2083.32 373.944 L2083.32 401.944 L2107.32 387.944 Z" fill="#3da44d" fill-rule="evenodd" fill-opacity="1" stroke="#000000" stroke-opacity="1" stroke-width="3.2"/>
<polyline clip-path="url(#clip502)" style="stroke:#c271d2; stroke-linecap:butt; stroke-linejoin:round; stroke-width:12; stroke-opacity:1; fill:none" points="
  588.221,143.299 1002.89,196.497 1229.62,247.111 1558.85,297.541 1908.72,348.411 2258.23,399.847 
  "/>
<path clip-path="url(#clip502)" d="M588.221 123.299 L568.221 143.299 L588.221 163.299 L608.221 143.299 L588.221 123.299 Z" fill="#c271d2" fill-rule="evenodd" fill-opacity="1" stroke="#000000" stroke-opacity="1" stroke-width="3.2"/>
<path clip-path="url(#clip502)" d="M1002.89 176.497 L982.895 196.497 L1002.89 216.497 L1022.89 196.497 L1002.89 176.497 Z" fill="#c271d2" fill-rule="evenodd" fill-opacity="1" stroke="#000000" stroke-opacity="1" stroke-width="3.2"/>
<path clip-path="url(#clip502)" d="M1229.62 227.111 L1209.62 247.111 L1229.62 267.111 L1249.62 247.111 L1229.62 227.111 Z" fill="#c271d2" fill-rule="evenodd" fill-opacity="1" stroke="#000000" stroke-opacity="1" stroke-width="3.2"/>
<path clip-path="url(#clip502)" d="M1558.85 277.541 L1538.85 297.541 L1558.85 317.541 L1578.85 297.541 L1558.85 277.541 Z" fill="#c271d2" fill-rule="evenodd" fill-opacity="1" stroke="#000000" stroke-opacity="1" stroke-width="3.2"/>
<path clip-path="url(#clip502)" d="M1908.72 328.411 L1888.72 348.411 L1908.72 368.411 L1928.72 348.411 L1908.72 328.411 Z" fill="#c271d2" fill-rule="evenodd" fill-opacity="1" stroke="#000000" stroke-opacity="1" stroke-width="3.2"/>
<path clip-path="url(#clip502)" d="M2258.23 379.847 L2238.23 399.847 L2258.23 419.847 L2278.23 399.847 L2258.23 379.847 Z" fill="#c271d2" fill-rule="evenodd" fill-opacity="1" stroke="#000000" stroke-opacity="1" stroke-width="3.2"/>
<polyline clip-path="url(#clip502)" style="stroke:#ac8d18; stroke-linecap:butt; stroke-linejoin:round; stroke-width:12; stroke-opacity:1; fill:none" points="
  486.939,161.39 962.236,309.482 1256.27,444.515 1594.35,570.298 1929.15,690.076 2293.32,805.883 
  "/>
<circle clip-path="url(#clip502)" cx="486.939" cy="161.39" r="18" fill="#ac8d18" fill-rule="evenodd" fill-opacity="1" stroke="#000000" stroke-opacity="1" stroke-width="3.2"/>
<circle clip-path="url(#clip502)" cx="962.236" cy="309.482" r="18" fill="#ac8d18" fill-rule="evenodd" fill-opacity="1" stroke="#000000" stroke-opacity="1" stroke-width="3.2"/>
<circle clip-path="url(#clip502)" cx="1256.27" cy="444.515" r="18" fill="#ac8d18" fill-rule="evenodd" fill-opacity="1" stroke="#000000" stroke-opacity="1" stroke-width="3.2"/>
<circle clip-path="url(#clip502)" cx="1594.35" cy="570.298" r="18" fill="#ac8d18" fill-rule="evenodd" fill-opacity="1" stroke="#000000" stroke-opacity="1" stroke-width="3.2"/>
<circle clip-path="url(#clip502)" cx="1929.15" cy="690.076" r="18" fill="#ac8d18" fill-rule="evenodd" fill-opacity="1" stroke="#000000" stroke-opacity="1" stroke-width="3.2"/>
<circle clip-path="url(#clip502)" cx="2293.32" cy="805.883" r="18" fill="#ac8d18" fill-rule="evenodd" fill-opacity="1" stroke="#000000" stroke-opacity="1" stroke-width="3.2"/>
<polyline clip-path="url(#clip502)" style="stroke:#00a9ad; stroke-linecap:butt; stroke-linejoin:round; stroke-width:12; stroke-opacity:1; fill:none" points="
  513.887,557.014 931.398,723.913 1209.63,888.694 1539.68,1050.65 1884.73,1211.25 2215.39,1372.3 
  "/>
<path clip-path="url(#clip502)" d="M493.887 537.014 L493.887 577.014 L533.887 577.014 L533.887 537.014 L493.887 537.014 Z" fill="#00a9ad" fill-rule="evenodd" fill-opacity="1" stroke="#000000" stroke-opacity="1" stroke-width="3.2"/>
<path clip-path="url(#clip502)" d="M911.398 703.913 L911.398 743.913 L951.398 743.913 L951.398 703.913 L911.398 703.913 Z" fill="#00a9ad" fill-rule="evenodd" fill-opacity="1" stroke="#000000" stroke-opacity="1" stroke-width="3.2"/>
<path clip-path="url(#clip502)" d="M1189.63 868.694 L1189.63 908.694 L1229.63 908.694 L1229.63 868.694 L1189.63 868.694 Z" fill="#00a9ad" fill-rule="evenodd" fill-opacity="1" stroke="#000000" stroke-opacity="1" stroke-width="3.2"/>
<path clip-path="url(#clip502)" d="M1519.68 1030.65 L1519.68 1070.65 L1559.68 1070.65 L1559.68 1030.65 L1519.68 1030.65 Z" fill="#00a9ad" fill-rule="evenodd" fill-opacity="1" stroke="#000000" stroke-opacity="1" stroke-width="3.2"/>
<path clip-path="url(#clip502)" d="M1864.73 1191.25 L1864.73 1231.25 L1904.73 1231.25 L1904.73 1191.25 L1864.73 1191.25 Z" fill="#00a9ad" fill-rule="evenodd" fill-opacity="1" stroke="#000000" stroke-opacity="1" stroke-width="3.2"/>
<path clip-path="url(#clip502)" d="M2195.39 1352.3 L2195.39 1392.3 L2235.39 1392.3 L2235.39 1352.3 L2195.39 1352.3 Z" fill="#00a9ad" fill-rule="evenodd" fill-opacity="1" stroke="#000000" stroke-opacity="1" stroke-width="3.2"/>
</svg>
