<?xml version="1.0" encoding="utf-8"?>
<svg xmlns="http://www.w3.org/2000/svg" xmlns:xlink="http://www.w3.org/1999/xlink" width="600" height="400" viewBox="0 0 2400 1600">
<defs>
  <clipPath id="clip170">
    <rect x="0" y="0" width="2400" height="1600"/>
  </clipPath>
</defs>
<path clip-path="url(#clip170)" d="
M0 1600 L2400 1600 L2400 0 L0 0  Z
  " fill="#ffffff" fill-rule="evenodd" fill-opacity="1"/>
<defs>
  <clipPath id="clip171">
    <rect x="480" y="0" width="1681" height="1600"/>
  </clipPath>
</defs>
<path clip-path="url(#clip170)" d="
M251.842 1410.9 L1668.07 1410.9 L1668.07 47.2441 L251.842 47.2441  Z
  " fill="#ffffff" fill-rule="evenodd" fill-opacity="1"/>
<defs>
  <clipPath id="clip172">
    <rect x="251" y="47" width="1417" height="1365"/>
  </clipPath>
</defs>
<polyline clip-path="url(#clip172)" style="stroke:#000000; stroke-linecap:butt; stroke-linejoin:round; stroke-width:2; stroke-opacity:0.1; fill:none" points="
  641.728,1410.9 641.728,47.2441 
  "/>
<polyline clip-path="url(#clip172)" style="stroke:#000000; stroke-linecap:butt; stroke-linejoin:round; stroke-width:2; stroke-opacity:0.1; fill:none" points="
  1168.78,1410.9 1168.78,47.2441 
  "/>
<polyline clip-path="url(#clip170)" style="stroke:#000000; stroke-linecap:butt; stroke-linejoin:round; stroke-width:4; stroke-opacity:1; fill:none" points="
  251.842,1410.9 1668.07,1410.9 
  "/>
<polyline clip-path="url(#clip170)" style="stroke:#000000; stroke-linecap:butt; stroke-linejoin:round; stroke-width:4; stroke-opacity:1; fill:none" points="
  251.842,47.2441 1668.07,47.2441 
  "/>
<polyline clip-path="url(#clip170)" style="stroke:#000000; stroke-linecap:butt; stroke-linejoin:round; stroke-width:4; stroke-opacity:1; fill:none" points="
  641.728,1410.9 641.728,1392 
  "/>
<polyline clip-path="url(#clip170)" style="stroke:#000000; stroke-linecap:butt; stroke-linejoin:round; stroke-width:4; stroke-opacity:1; fill:none" points="
  1168.78,1410.9 1168.78,1392 
  "/>
<path clip-path="url(#clip170)" d="M591.994 1485.02 L599.633 1485.02 L599.633 1458.66 L591.323 1460.32 L591.323 1456.06 L599.586 1454.4 L604.262 1454.4 L604.262 1485.02 L611.901 1485.02 L611.901 1488.96 L591.994 1488.96 L591.994 1485.02 Z" fill="#000000" fill-rule="evenodd" fill-opacity="1" /><path clip-path="url(#clip170)" d="M631.345 1457.48 Q627.734 1457.48 625.906 1461.04 Q624.1 1464.58 624.1 1471.71 Q624.1 1478.82 625.906 1482.38 Q627.734 1485.92 631.345 1485.92 Q634.98 1485.92 636.785 1482.38 Q638.614 1478.82 638.614 1471.71 Q638.614 1464.58 636.785 1461.04 Q634.98 1457.48 631.345 1457.48 M631.345 1453.77 Q637.156 1453.77 640.211 1458.38 Q643.29 1462.96 643.29 1471.71 Q643.29 1480.44 640.211 1485.04 Q637.156 1489.63 631.345 1489.63 Q625.535 1489.63 622.457 1485.04 Q619.401 1480.44 619.401 1471.71 Q619.401 1462.96 622.457 1458.38 Q625.535 1453.77 631.345 1453.77 Z" fill="#000000" fill-rule="evenodd" fill-opacity="1" /><path clip-path="url(#clip170)" d="M643.29 1447.87 L667.401 1447.87 L667.401 1451.07 L643.29 1451.07 L643.29 1447.87 Z" fill="#000000" fill-rule="evenodd" fill-opacity="1" /><path clip-path="url(#clip170)" d="M678.874 1458.35 L692.134 1458.35 L692.134 1461.55 L674.304 1461.55 L674.304 1458.35 Q676.467 1456.11 680.191 1452.35 Q683.933 1448.57 684.893 1447.48 Q686.717 1445.43 687.432 1444.02 Q688.165 1442.59 688.165 1441.22 Q688.165 1438.98 686.585 1437.57 Q685.024 1436.16 682.504 1436.16 Q680.717 1436.16 678.724 1436.78 Q676.749 1437.4 674.492 1438.66 L674.492 1434.82 Q676.786 1433.9 678.78 1433.43 Q680.774 1432.96 682.429 1432.96 Q686.792 1432.96 689.388 1435.14 Q691.983 1437.32 691.983 1440.97 Q691.983 1442.7 691.325 1444.26 Q690.685 1445.8 688.974 1447.91 Q688.504 1448.46 685.983 1451.07 Q683.463 1453.67 678.874 1458.35 Z" fill="#000000" fill-rule="evenodd" fill-opacity="1" /><path clip-path="url(#clip170)" d="M1118.89 1485.02 L1126.53 1485.02 L1126.53 1458.66 L1118.22 1460.32 L1118.22 1456.06 L1126.49 1454.4 L1131.16 1454.4 L1131.16 1485.02 L1138.8 1485.02 L1138.8 1488.96 L1118.89 1488.96 L1118.89 1485.02 Z" fill="#000000" fill-rule="evenodd" fill-opacity="1" /><path clip-path="url(#clip170)" d="M1158.25 1457.48 Q1154.64 1457.48 1152.81 1461.04 Q1151 1464.58 1151 1471.71 Q1151 1478.82 1152.81 1482.38 Q1154.64 1485.92 1158.25 1485.92 Q1161.88 1485.92 1163.69 1482.38 Q1165.51 1478.82 1165.51 1471.71 Q1165.51 1464.58 1163.69 1461.04 Q1161.88 1457.48 1158.25 1457.48 M1158.25 1453.77 Q1164.06 1453.77 1167.11 1458.38 Q1170.19 1462.96 1170.19 1471.71 Q1170.19 1480.44 1167.11 1485.04 Q1164.06 1489.63 1158.25 1489.63 Q1152.44 1489.63 1149.36 1485.04 Q1146.3 1480.44 1146.3 1471.71 Q1146.3 1462.96 1149.36 1458.38 Q1152.44 1453.77 1158.25 1453.77 Z" fill="#000000" fill-rule="evenodd" fill-opacity="1" /><path clip-path="url(#clip170)" d="M1170.19 1447.87 L1194.3 1447.87 L1194.3 1451.07 L1170.19 1451.07 L1170.19 1447.87 Z" fill="#000000" fill-rule="evenodd" fill-opacity="1" /><path clip-path="url(#clip170)" d="M1203.16 1458.35 L1209.37 1458.35 L1209.37 1436.93 L1202.62 1438.28 L1202.62 1434.82 L1209.33 1433.47 L1213.13 1433.47 L1213.13 1458.35 L1219.34 1458.35 L1219.34 1461.55 L1203.16 1461.55 L1203.16 1458.35 Z" fill="#000000" fill-rule="evenodd" fill-opacity="1" /><path clip-path="url(#clip170)" d="M572.394 1526.67 L602.44 1526.67 L602.44 1532.08 L578.823 1532.08 L578.823 1546.14 L601.453 1546.14 L601.453 1551.56 L578.823 1551.56 L578.823 1568.77 L603.013 1568.77 L603.013 1574.19 L572.394 1574.19 L572.394 1526.67 Z" fill="#000000" fill-rule="evenodd" fill-opacity="1" /><path clip-path="url(#clip170)" d="M642.958 1538.54 L630.067 1555.88 L643.626 1574.19 L636.719 1574.19 L626.343 1560.18 L615.967 1574.19 L609.06 1574.19 L622.906 1555.53 L610.238 1538.54 L617.145 1538.54 L626.598 1551.24 L636.051 1538.54 L642.958 1538.54 Z" fill="#000000" fill-rule="evenodd" fill-opacity="1" /><path clip-path="url(#clip170)" d="M680.388 1554.9 L680.388 1557.76 L653.461 1557.76 Q653.843 1563.81 657.09 1566.99 Q660.368 1570.14 666.193 1570.14 Q669.566 1570.14 672.717 1569.32 Q675.9 1568.49 679.02 1566.83 L679.02 1572.37 Q675.869 1573.71 672.558 1574.41 Q669.248 1575.11 665.843 1575.11 Q657.312 1575.11 652.315 1570.14 Q647.35 1565.18 647.35 1556.71 Q647.35 1547.96 652.061 1542.83 Q656.803 1537.68 664.824 1537.68 Q672.017 1537.68 676.187 1542.33 Q680.388 1546.94 680.388 1554.9 M674.532 1553.18 Q674.468 1548.37 671.826 1545.51 Q669.216 1542.64 664.888 1542.64 Q659.986 1542.64 657.026 1545.41 Q654.098 1548.18 653.652 1553.21 L674.532 1553.18 Z" fill="#000000" fill-rule="evenodd" fill-opacity="1" /><path clip-path="url(#clip170)" d="M715.654 1539.91 L715.654 1545.38 Q713.172 1544.01 710.657 1543.34 Q708.174 1542.64 705.628 1542.64 Q699.931 1542.64 696.78 1546.27 Q693.629 1549.87 693.629 1556.39 Q693.629 1562.92 696.78 1566.55 Q699.931 1570.14 705.628 1570.14 Q708.174 1570.14 710.657 1569.47 Q713.172 1568.77 715.654 1567.41 L715.654 1572.82 Q713.203 1573.96 710.562 1574.54 Q707.952 1575.11 704.992 1575.11 Q696.939 1575.11 692.197 1570.05 Q687.454 1564.99 687.454 1556.39 Q687.454 1547.67 692.228 1542.68 Q697.034 1537.68 705.374 1537.68 Q708.079 1537.68 710.657 1538.25 Q713.235 1538.79 715.654 1539.91 Z" fill="#000000" fill-rule="evenodd" fill-opacity="1" /><path clip-path="url(#clip170)" d="M725.235 1560.12 L725.235 1538.54 L731.091 1538.54 L731.091 1559.89 Q731.091 1564.96 733.064 1567.5 Q735.038 1570.02 738.984 1570.02 Q743.727 1570.02 746.464 1566.99 Q749.233 1563.97 749.233 1558.75 L749.233 1538.54 L755.09 1538.54 L755.09 1574.19 L749.233 1574.19 L749.233 1568.71 Q747.101 1571.96 744.268 1573.55 Q741.467 1575.11 737.743 1575.11 Q731.6 1575.11 728.417 1571.29 Q725.235 1567.47 725.235 1560.12 M739.971 1537.68 L739.971 1537.68 Z" fill="#000000" fill-rule="evenodd" fill-opacity="1" /><path clip-path="url(#clip170)" d="M772.946 1528.42 L772.946 1538.54 L785.009 1538.54 L785.009 1543.09 L772.946 1543.09 L772.946 1562.44 Q772.946 1566.8 774.123 1568.04 Q775.333 1569.28 778.993 1569.28 L785.009 1569.28 L785.009 1574.19 L778.993 1574.19 Q772.213 1574.19 769.635 1571.67 Q767.057 1569.12 767.057 1562.44 L767.057 1543.09 L762.76 1543.09 L762.76 1538.54 L767.057 1538.54 L767.057 1528.42 L772.946 1528.42 Z" fill="#000000" fill-rule="evenodd" fill-opacity="1" /><path clip-path="url(#clip170)" d="M792.711 1538.54 L798.568 1538.54 L798.568 1574.19 L792.711 1574.19 L792.711 1538.54 M792.711 1524.66 L798.568 1524.66 L798.568 1532.08 L792.711 1532.08 L792.711 1524.66 Z" fill="#000000" fill-rule="evenodd" fill-opacity="1" /><path clip-path="url(#clip170)" d="M824.635 1542.64 Q819.924 1542.64 817.187 1546.34 Q814.45 1550 814.45 1556.39 Q814.45 1562.79 817.155 1566.48 Q819.893 1570.14 824.635 1570.14 Q829.314 1570.14 832.051 1566.45 Q834.788 1562.76 834.788 1556.39 Q834.788 1550.06 832.051 1546.37 Q829.314 1542.64 824.635 1542.64 M824.635 1537.68 Q832.274 1537.68 836.634 1542.64 Q840.995 1547.61 840.995 1556.39 Q840.995 1565.15 836.634 1570.14 Q832.274 1575.11 824.635 1575.11 Q816.964 1575.11 812.604 1570.14 Q808.275 1565.15 808.275 1556.39 Q808.275 1547.61 812.604 1542.64 Q816.964 1537.68 824.635 1537.68 Z" fill="#000000" fill-rule="evenodd" fill-opacity="1" /><path clip-path="url(#clip170)" d="M880.335 1552.67 L880.335 1574.19 L874.479 1574.19 L874.479 1552.86 Q874.479 1547.8 872.505 1545.29 Q870.532 1542.77 866.585 1542.77 Q861.843 1542.77 859.105 1545.79 Q856.368 1548.82 856.368 1554.04 L856.368 1574.19 L850.48 1574.19 L850.48 1538.54 L856.368 1538.54 L856.368 1544.08 Q858.469 1540.86 861.302 1539.27 Q864.166 1537.68 867.89 1537.68 Q874.033 1537.68 877.184 1541.5 Q880.335 1545.29 880.335 1552.67 Z" fill="#000000" fill-rule="evenodd" fill-opacity="1" /><path clip-path="url(#clip170)" d="M918.529 1528.42 L918.529 1538.54 L930.592 1538.54 L930.592 1543.09 L918.529 1543.09 L918.529 1562.44 Q918.529 1566.8 919.707 1568.04 Q920.916 1569.28 924.577 1569.28 L930.592 1569.28 L930.592 1574.19 L924.577 1574.19 Q917.797 1574.19 915.219 1571.67 Q912.641 1569.12 912.641 1562.44 L912.641 1543.09 L908.344 1543.09 L908.344 1538.54 L912.641 1538.54 L912.641 1528.42 L918.529 1528.42 Z" fill="#000000" fill-rule="evenodd" fill-opacity="1" /><path clip-path="url(#clip170)" d="M938.295 1538.54 L944.151 1538.54 L944.151 1574.19 L938.295 1574.19 L938.295 1538.54 M938.295 1524.66 L944.151 1524.66 L944.151 1532.08 L938.295 1532.08 L938.295 1524.66 Z" fill="#000000" fill-rule="evenodd" fill-opacity="1" /><path clip-path="url(#clip170)" d="M984.16 1545.38 Q986.356 1541.43 989.411 1539.56 Q992.467 1537.68 996.605 1537.68 Q1002.17 1537.68 1005.2 1541.59 Q1008.22 1545.48 1008.22 1552.67 L1008.22 1574.19 L1002.33 1574.19 L1002.33 1552.86 Q1002.33 1547.74 1000.52 1545.25 Q998.705 1542.77 994.981 1542.77 Q990.43 1542.77 987.788 1545.79 Q985.146 1548.82 985.146 1554.04 L985.146 1574.19 L979.258 1574.19 L979.258 1552.86 Q979.258 1547.7 977.444 1545.25 Q975.63 1542.77 971.842 1542.77 Q967.354 1542.77 964.712 1545.83 Q962.071 1548.85 962.071 1554.04 L962.071 1574.19 L956.182 1574.19 L956.182 1538.54 L962.071 1538.54 L962.071 1544.08 Q964.076 1540.8 966.877 1539.24 Q969.678 1537.68 973.529 1537.68 Q977.412 1537.68 980.117 1539.65 Q982.855 1541.62 984.16 1545.38 Z" fill="#000000" fill-rule="evenodd" fill-opacity="1" /><path clip-path="url(#clip170)" d="M1050.39 1554.9 L1050.39 1557.76 L1023.47 1557.76 Q1023.85 1563.81 1027.1 1566.99 Q1030.37 1570.14 1036.2 1570.14 Q1039.57 1570.14 1042.72 1569.32 Q1045.91 1568.49 1049.03 1566.83 L1049.03 1572.37 Q1045.88 1573.71 1042.57 1574.41 Q1039.25 1575.11 1035.85 1575.11 Q1027.32 1575.11 1022.32 1570.14 Q1017.36 1565.18 1017.36 1556.71 Q1017.36 1547.96 1022.07 1542.83 Q1026.81 1537.68 1034.83 1537.68 Q1042.02 1537.68 1046.19 1542.33 Q1050.39 1546.94 1050.39 1554.9 M1044.54 1553.18 Q1044.47 1548.37 1041.83 1545.51 Q1039.22 1542.64 1034.89 1542.64 Q1029.99 1542.64 1027.03 1545.41 Q1024.1 1548.18 1023.66 1553.21 L1044.54 1553.18 Z" fill="#000000" fill-rule="evenodd" fill-opacity="1" /><path clip-path="url(#clip170)" d="M1094.8 1524.72 Q1090.53 1532.04 1088.46 1539.21 Q1086.39 1546.37 1086.39 1553.72 Q1086.39 1561.07 1088.46 1568.3 Q1090.56 1575.49 1094.8 1582.78 L1089.7 1582.78 Q1084.93 1575.3 1082.54 1568.07 Q1080.19 1560.85 1080.19 1553.72 Q1080.19 1546.62 1082.54 1539.43 Q1084.9 1532.24 1089.7 1524.72 L1094.8 1524.72 Z" fill="#000000" fill-rule="evenodd" fill-opacity="1" /><path clip-path="url(#clip170)" d="M1128.88 1539.59 L1128.88 1545.13 Q1126.4 1543.85 1123.73 1543.22 Q1121.05 1542.58 1118.19 1542.58 Q1113.83 1542.58 1111.63 1543.92 Q1109.47 1545.25 1109.47 1547.93 Q1109.47 1549.96 1111.03 1551.14 Q1112.59 1552.29 1117.3 1553.34 L1119.3 1553.78 Q1125.54 1555.12 1128.15 1557.57 Q1130.79 1559.99 1130.79 1564.35 Q1130.79 1569.32 1126.85 1572.21 Q1122.93 1575.11 1116.06 1575.11 Q1113.19 1575.11 1110.07 1574.54 Q1106.99 1573.99 1103.55 1572.88 L1103.55 1566.83 Q1106.8 1568.52 1109.95 1569.38 Q1113.1 1570.21 1116.18 1570.21 Q1120.32 1570.21 1122.55 1568.81 Q1124.78 1567.37 1124.78 1564.8 Q1124.78 1562.41 1123.15 1561.14 Q1121.56 1559.86 1116.12 1558.68 L1114.08 1558.21 Q1108.64 1557.06 1106.22 1554.71 Q1103.8 1552.32 1103.8 1548.18 Q1103.8 1543.15 1107.37 1540.42 Q1110.93 1537.68 1117.49 1537.68 Q1120.74 1537.68 1123.6 1538.16 Q1126.47 1538.63 1128.88 1539.59 Z" fill="#000000" fill-rule="evenodd" fill-opacity="1" /><path clip-path="url(#clip170)" d="M1165.77 1539.91 L1165.77 1545.38 Q1163.29 1544.01 1160.78 1543.34 Q1158.29 1542.64 1155.75 1542.64 Q1150.05 1542.64 1146.9 1546.27 Q1143.75 1549.87 1143.75 1556.39 Q1143.75 1562.92 1146.9 1566.55 Q1150.05 1570.14 1155.75 1570.14 Q1158.29 1570.14 1160.78 1569.47 Q1163.29 1568.77 1165.77 1567.41 L1165.77 1572.82 Q1163.32 1573.96 1160.68 1574.54 Q1158.07 1575.11 1155.11 1575.11 Q1147.06 1575.11 1142.32 1570.05 Q1137.57 1564.99 1137.57 1556.39 Q1137.57 1547.67 1142.35 1542.68 Q1147.15 1537.68 1155.49 1537.68 Q1158.2 1537.68 1160.78 1538.25 Q1163.35 1538.79 1165.77 1539.91 Z" fill="#000000" fill-rule="evenodd" fill-opacity="1" /><path clip-path="url(#clip170)" d="M1177.45 1566.1 L1184.17 1566.1 L1184.17 1571.58 L1178.95 1581.76 L1174.84 1581.76 L1177.45 1571.58 L1177.45 1566.1 Z" fill="#000000" fill-rule="evenodd" fill-opacity="1" /><path clip-path="url(#clip170)" d="M1217.65 1526.67 L1224.08 1526.67 L1224.08 1568.77 L1247.22 1568.77 L1247.22 1574.19 L1217.65 1574.19 L1217.65 1526.67 Z" fill="#000000" fill-rule="evenodd" fill-opacity="1" /><path clip-path="url(#clip170)" d="M1266.38 1542.64 Q1261.67 1542.64 1258.94 1546.34 Q1256.2 1550 1256.2 1556.39 Q1256.2 1562.79 1258.9 1566.48 Q1261.64 1570.14 1266.38 1570.14 Q1271.06 1570.14 1273.8 1566.45 Q1276.54 1562.76 1276.54 1556.39 Q1276.54 1550.06 1273.8 1546.37 Q1271.06 1542.64 1266.38 1542.64 M1266.38 1537.68 Q1274.02 1537.68 1278.38 1542.64 Q1282.74 1547.61 1282.74 1556.39 Q1282.74 1565.15 1278.38 1570.14 Q1274.02 1575.11 1266.38 1575.11 Q1258.71 1575.11 1254.35 1570.14 Q1250.02 1565.15 1250.02 1556.39 Q1250.02 1547.61 1254.35 1542.64 Q1258.71 1537.68 1266.38 1537.68 Z" fill="#000000" fill-rule="evenodd" fill-opacity="1" /><path clip-path="url(#clip170)" d="M1315.91 1555.95 Q1315.91 1549.58 1313.27 1546.08 Q1310.66 1542.58 1305.91 1542.58 Q1301.2 1542.58 1298.56 1546.08 Q1295.95 1549.58 1295.95 1555.95 Q1295.95 1562.28 1298.56 1565.78 Q1301.2 1569.28 1305.91 1569.28 Q1310.66 1569.28 1313.27 1565.78 Q1315.91 1562.28 1315.91 1555.95 M1321.76 1569.76 Q1321.76 1578.86 1317.72 1583.29 Q1313.68 1587.74 1305.34 1587.74 Q1302.25 1587.74 1299.52 1587.27 Q1296.78 1586.82 1294.2 1585.87 L1294.2 1580.17 Q1296.78 1581.57 1299.29 1582.24 Q1301.81 1582.91 1304.42 1582.91 Q1310.18 1582.91 1313.04 1579.88 Q1315.91 1576.89 1315.91 1570.81 L1315.91 1567.92 Q1314.09 1571.07 1311.26 1572.63 Q1308.43 1574.19 1304.48 1574.19 Q1297.93 1574.19 1293.91 1569.19 Q1289.9 1564.19 1289.9 1555.95 Q1289.9 1547.67 1293.91 1542.68 Q1297.93 1537.68 1304.48 1537.68 Q1308.43 1537.68 1311.26 1539.24 Q1314.09 1540.8 1315.91 1543.95 L1315.91 1538.54 L1321.76 1538.54 L1321.76 1569.76 Z" fill="#000000" fill-rule="evenodd" fill-opacity="1" /><path clip-path="url(#clip170)" d="M1332.9 1524.72 L1338 1524.72 Q1342.77 1532.24 1345.13 1539.43 Q1347.51 1546.62 1347.51 1553.72 Q1347.51 1560.85 1345.13 1568.07 Q1342.77 1575.3 1338 1582.78 L1332.9 1582.78 Q1337.14 1575.49 1339.21 1568.3 Q1341.31 1561.07 1341.31 1553.72 Q1341.31 1546.37 1339.21 1539.21 Q1337.14 1532.04 1332.9 1524.72 Z" fill="#000000" fill-rule="evenodd" fill-opacity="1" /><polyline clip-path="url(#clip172)" style="stroke:#000000; stroke-linecap:butt; stroke-linejoin:round; stroke-width:2; stroke-opacity:0.1; fill:none" points="
  251.842,1097.74 1668.07,1097.74 
  "/>
<polyline clip-path="url(#clip172)" style="stroke:#000000; stroke-linecap:butt; stroke-linejoin:round; stroke-width:2; stroke-opacity:0.1; fill:none" points="
  251.842,457.79 1668.07,457.79 
  "/>
<polyline clip-path="url(#clip170)" style="stroke:#000000; stroke-linecap:butt; stroke-linejoin:round; stroke-width:4; stroke-opacity:1; fill:none" points="
  251.842,1410.9 251.842,47.2441 
  "/>
<polyline clip-path="url(#clip170)" style="stroke:#000000; stroke-linecap:butt; stroke-linejoin:round; stroke-width:4; stroke-opacity:1; fill:none" points="
  1668.07,1410.9 1668.07,47.2441 
  "/>
<polyline clip-path="url(#clip170)" style="stroke:#000000; stroke-linecap:butt; stroke-linejoin:round; stroke-width:4; stroke-opacity:1; fill:none" points="
  251.842,1097.74 264.581,1097.74 
  "/>
<polyline clip-path="url(#clip170)" style="stroke:#000000; stroke-linecap:butt; stroke-linejoin:round; stroke-width:4; stroke-opacity:1; fill:none" points="
  251.842,457.79 264.581,457.79 
  "/>
<path clip-path="url(#clip170)" d="M114.931 1117.54 L122.57 1117.54 L122.57 1091.17 L114.26 1092.84 L114.26 1088.58 L122.524 1086.91 L127.2 1086.91 L127.2 1117.54 L134.839 1117.54 L134.839 1121.47 L114.931 1121.47 L114.931 1117.54 Z" fill="#000000" fill-rule="evenodd" fill-opacity="1" /><path clip-path="url(#clip170)" d="M154.283 1089.99 Q150.672 1089.99 148.843 1093.56 Q147.038 1097.1 147.038 1104.23 Q147.038 1111.33 148.843 1114.9 Q150.672 1118.44 154.283 1118.44 Q157.917 1118.44 159.723 1114.9 Q161.552 1111.33 161.552 1104.23 Q161.552 1097.1 159.723 1093.56 Q157.917 1089.99 154.283 1089.99 M154.283 1086.29 Q160.093 1086.29 163.149 1090.89 Q166.227 1095.48 166.227 1104.23 Q166.227 1112.95 163.149 1117.56 Q160.093 1122.14 154.283 1122.14 Q148.473 1122.14 145.394 1117.56 Q142.339 1112.95 142.339 1104.23 Q142.339 1095.48 145.394 1090.89 Q148.473 1086.29 154.283 1086.29 Z" fill="#000000" fill-rule="evenodd" fill-opacity="1" /><path clip-path="url(#clip170)" d="M166.227 1080.39 L190.339 1080.39 L190.339 1083.59 L166.227 1083.59 L166.227 1080.39 Z" fill="#000000" fill-rule="evenodd" fill-opacity="1" /><path clip-path="url(#clip170)" d="M210.05 1078.92 Q212.777 1079.5 214.3 1081.35 Q215.842 1083.19 215.842 1085.9 Q215.842 1090.06 212.984 1092.33 Q210.125 1094.61 204.859 1094.61 Q203.091 1094.61 201.21 1094.25 Q199.348 1093.91 197.354 1093.22 L197.354 1089.55 Q198.934 1090.47 200.815 1090.94 Q202.696 1091.41 204.746 1091.41 Q208.319 1091.41 210.181 1090 Q212.062 1088.59 212.062 1085.9 Q212.062 1083.42 210.313 1082.02 Q208.583 1080.61 205.479 1080.61 L202.207 1080.61 L202.207 1077.49 L205.63 1077.49 Q208.432 1077.49 209.918 1076.38 Q211.404 1075.25 211.404 1073.15 Q211.404 1070.98 209.861 1069.84 Q208.338 1068.67 205.479 1068.67 Q203.918 1068.67 202.132 1069.01 Q200.345 1069.35 198.201 1070.06 L198.201 1066.68 Q200.364 1066.08 202.244 1065.78 Q204.144 1065.47 205.818 1065.47 Q210.144 1065.47 212.664 1067.45 Q215.184 1069.4 215.184 1072.75 Q215.184 1075.08 213.849 1076.7 Q212.513 1078.3 210.05 1078.92 Z" fill="#000000" fill-rule="evenodd" fill-opacity="1" /><path clip-path="url(#clip170)" d="M145.137 477.582 L152.776 477.582 L152.776 451.217 L144.465 452.883 L144.465 448.624 L152.729 446.957 L157.405 446.957 L157.405 477.582 L165.044 477.582 L165.044 481.517 L145.137 481.517 L145.137 477.582 Z" fill="#000000" fill-rule="evenodd" fill-opacity="1" /><path clip-path="url(#clip170)" d="M184.488 450.036 Q180.877 450.036 179.049 453.601 Q177.243 457.143 177.243 464.272 Q177.243 471.379 179.049 474.943 Q180.877 478.485 184.488 478.485 Q188.123 478.485 189.928 474.943 Q191.757 471.379 191.757 464.272 Q191.757 457.143 189.928 453.601 Q188.123 450.036 184.488 450.036 M184.488 446.332 Q190.299 446.332 193.354 450.939 Q196.433 455.522 196.433 464.272 Q196.433 472.999 193.354 477.605 Q190.299 482.189 184.488 482.189 Q178.678 482.189 175.6 477.605 Q172.544 472.999 172.544 464.272 Q172.544 455.522 175.6 450.939 Q178.678 446.332 184.488 446.332 Z" fill="#000000" fill-rule="evenodd" fill-opacity="1" /><path clip-path="url(#clip170)" d="M206.138 428.528 Q203.204 428.528 201.718 431.425 Q200.251 434.302 200.251 440.095 Q200.251 445.869 201.718 448.766 Q203.204 451.643 206.138 451.643 Q209.09 451.643 210.557 448.766 Q212.043 445.869 212.043 440.095 Q212.043 434.302 210.557 431.425 Q209.09 428.528 206.138 428.528 M206.138 425.519 Q210.858 425.519 213.341 429.262 Q215.842 432.986 215.842 440.095 Q215.842 447.186 213.341 450.928 Q210.858 454.652 206.138 454.652 Q201.417 454.652 198.915 450.928 Q196.433 447.186 196.433 440.095 Q196.433 432.986 198.915 429.262 Q201.417 425.519 206.138 425.519 Z" fill="#000000" fill-rule="evenodd" fill-opacity="1" /><path clip-path="url(#clip170)" d="M16.4842 1034.96 L16.4842 1004.91 L21.895 1004.91 L21.895 1028.53 L35.9632 1028.53 L35.9632 1005.9 L41.3741 1005.9 L41.3741 1028.53 L58.5933 1028.53 L58.5933 1004.34 L64.0042 1004.34 L64.0042 1034.96 L16.4842 1034.96 Z" fill="#000000" fill-rule="evenodd" fill-opacity="1" /><path clip-path="url(#clip170)" d="M33.8307 973.37 Q33.2578 974.357 33.0032 975.535 Q32.7167 976.68 32.7167 978.081 Q32.7167 983.046 35.9632 985.72 Q39.1779 988.362 45.2253 988.362 L64.0042 988.362 L64.0042 994.25 L28.3562 994.25 L28.3562 988.362 L33.8944 988.362 Q30.6479 986.515 29.0883 983.555 Q27.4968 980.595 27.4968 976.362 Q27.4968 975.757 27.5923 975.025 Q27.656 974.293 27.8151 973.402 L33.8307 973.37 Z" fill="#000000" fill-rule="evenodd" fill-opacity="1" /><path clip-path="url(#clip170)" d="M33.8307 947.716 Q33.2578 948.703 33.0032 949.881 Q32.7167 951.027 32.7167 952.427 Q32.7167 957.392 35.9632 960.066 Q39.1779 962.708 45.2253 962.708 L64.0042 962.708 L64.0042 968.596 L28.3562 968.596 L28.3562 962.708 L33.8944 962.708 Q30.6479 960.862 29.0883 957.902 Q27.4968 954.942 27.4968 950.708 Q27.4968 950.104 27.5923 949.372 Q27.656 948.64 27.8151 947.748 L33.8307 947.716 Z" fill="#000000" fill-rule="evenodd" fill-opacity="1" /><path clip-path="url(#clip170)" d="M32.4621 929.192 Q32.4621 933.903 36.1542 936.64 Q39.8145 939.377 46.212 939.377 Q52.6095 939.377 56.3017 936.672 Q59.9619 933.935 59.9619 929.192 Q59.9619 924.513 56.2698 921.776 Q52.5777 919.039 46.212 919.039 Q39.8781 919.039 36.186 921.776 Q32.4621 924.513 32.4621 929.192 M27.4968 929.192 Q27.4968 921.553 32.4621 917.193 Q37.4273 912.832 46.212 912.832 Q54.9649 912.832 59.9619 917.193 Q64.9272 921.553 64.9272 929.192 Q64.9272 936.863 59.9619 941.223 Q54.9649 945.552 46.212 945.552 Q37.4273 945.552 32.4621 941.223 Q27.4968 936.863 27.4968 929.192 Z" fill="#000000" fill-rule="evenodd" fill-opacity="1" /><path clip-path="url(#clip170)" d="M33.8307 882.468 Q33.2578 883.455 33.0032 884.632 Q32.7167 885.778 32.7167 887.179 Q32.7167 892.144 35.9632 894.817 Q39.1779 897.459 45.2253 897.459 L64.0042 897.459 L64.0042 903.348 L28.3562 903.348 L28.3562 897.459 L33.8944 897.459 Q30.6479 895.613 29.0883 892.653 Q27.4968 889.693 27.4968 885.46 Q27.4968 884.855 27.5923 884.123 Q27.656 883.391 27.8151 882.5 L33.8307 882.468 Z" fill="#000000" fill-rule="evenodd" fill-opacity="1" /><path clip-path="url(#clip170)" d="M55.9197 875.975 L55.9197 869.259 L64.0042 869.259 L64.0042 875.975 L55.9197 875.975 M30.2977 875.975 L30.2977 869.259 L38.3822 869.259 L38.3822 875.975 L30.2977 875.975 Z" fill="#000000" fill-rule="evenodd" fill-opacity="1" /><path clip-path="url(#clip170)" d="M58.5933 828.423 L58.5933 805.984 L64.0042 805.984 L64.0042 836.157 L58.5933 836.157 Q54.8057 832.497 48.44 826.195 Q42.0425 819.861 40.1964 818.238 Q36.7271 815.151 34.34 813.941 Q31.921 812.7 29.5975 812.7 Q25.8099 812.7 23.4228 815.373 Q21.0356 818.015 21.0356 822.28 Q21.0356 825.304 22.086 828.678 Q23.1363 832.02 25.2688 835.839 L18.7758 835.839 Q17.2162 831.956 16.4205 828.582 Q15.6248 825.208 15.6248 822.408 Q15.6248 815.023 19.3169 810.631 Q23.009 806.239 29.1837 806.239 Q32.112 806.239 34.7537 807.353 Q37.3637 808.435 40.9285 811.331 Q41.8515 812.127 46.2757 816.392 Q50.668 820.657 58.5933 828.423 Z" fill="#000000" fill-rule="evenodd" fill-opacity="1" /><path clip-path="url(#clip170)" d="M43.5384 796.276 L43.5384 779.121 L48.7583 779.121 L48.7583 796.276 L43.5384 796.276 Z" fill="#000000" fill-rule="evenodd" fill-opacity="1" /><path clip-path="url(#clip170)" d="M42.4881 740.163 L64.0042 740.163 L64.0042 746.019 L42.679 746.019 Q37.6183 746.019 35.1038 747.992 Q32.5894 749.966 32.5894 753.913 Q32.5894 758.655 35.6131 761.392 Q38.6368 764.129 43.8567 764.129 L64.0042 764.129 L64.0042 770.018 L28.3562 770.018 L28.3562 764.129 L33.8944 764.129 Q30.6797 762.029 29.0883 759.196 Q27.4968 756.332 27.4968 752.608 Q27.4968 746.465 31.3163 743.314 Q35.1038 740.163 42.4881 740.163 Z" fill="#000000" fill-rule="evenodd" fill-opacity="1" /><path clip-path="url(#clip170)" d="M32.4621 714.668 Q32.4621 719.379 36.1542 722.116 Q39.8145 724.853 46.212 724.853 Q52.6095 724.853 56.3017 722.148 Q59.9619 719.41 59.9619 714.668 Q59.9619 709.989 56.2698 707.252 Q52.5777 704.515 46.212 704.515 Q39.8781 704.515 36.186 707.252 Q32.4621 709.989 32.4621 714.668 M27.4968 714.668 Q27.4968 707.029 32.4621 702.669 Q37.4273 698.308 46.212 698.308 Q54.9649 698.308 59.9619 702.669 Q64.9272 707.029 64.9272 714.668 Q64.9272 722.339 59.9619 726.699 Q54.9649 731.028 46.212 731.028 Q37.4273 731.028 32.4621 726.699 Q27.4968 722.339 27.4968 714.668 Z" fill="#000000" fill-rule="evenodd" fill-opacity="1" /><path clip-path="url(#clip170)" d="M33.8307 667.944 Q33.2578 668.93 33.0032 670.108 Q32.7167 671.254 32.7167 672.654 Q32.7167 677.62 35.9632 680.293 Q39.1779 682.935 45.2253 682.935 L64.0042 682.935 L64.0042 688.823 L28.3562 688.823 L28.3562 682.935 L33.8944 682.935 Q30.6479 681.089 29.0883 678.129 Q27.4968 675.169 27.4968 670.936 Q27.4968 670.331 27.5923 669.599 Q27.656 668.867 27.8151 667.975 L33.8307 667.944 Z" fill="#000000" fill-rule="evenodd" fill-opacity="1" /><path clip-path="url(#clip170)" d="M35.1993 635.192 Q31.2526 632.996 29.3747 629.94 Q27.4968 626.885 27.4968 622.747 Q27.4968 617.177 31.4117 614.153 Q35.2948 611.13 42.4881 611.13 L64.0042 611.13 L64.0042 617.018 L42.679 617.018 Q37.5546 617.018 35.072 618.832 Q32.5894 620.646 32.5894 624.37 Q32.5894 628.922 35.6131 631.564 Q38.6368 634.205 43.8567 634.205 L64.0042 634.205 L64.0042 640.094 L42.679 640.094 Q37.5228 640.094 35.072 641.908 Q32.5894 643.722 32.5894 647.51 Q32.5894 651.998 35.6449 654.639 Q38.6686 657.281 43.8567 657.281 L64.0042 657.281 L64.0042 663.169 L28.3562 663.169 L28.3562 657.281 L33.8944 657.281 Q30.616 655.276 29.0564 652.475 Q27.4968 649.674 27.4968 645.823 Q27.4968 641.94 29.4702 639.234 Q31.4436 636.497 35.1993 635.192 Z" fill="#000000" fill-rule="evenodd" fill-opacity="1" /><path clip-path="url(#clip170)" d="M14.5426 564.66 Q21.8632 568.925 29.0246 570.994 Q36.186 573.063 43.5384 573.063 Q50.8908 573.063 58.1159 570.994 Q65.3091 568.893 72.5979 564.66 L72.5979 569.753 Q65.1182 574.527 57.8931 576.914 Q50.668 579.269 43.5384 579.269 Q36.4406 579.269 29.2474 576.914 Q22.0542 574.559 14.5426 569.753 L14.5426 564.66 Z" fill="#000000" fill-rule="evenodd" fill-opacity="1" /><path clip-path="url(#clip170)" d="M16.4842 553.043 L16.4842 546.613 L58.5933 546.613 L58.5933 523.474 L64.0042 523.474 L64.0042 553.043 L16.4842 553.043 Z" fill="#000000" fill-rule="evenodd" fill-opacity="1" /><path clip-path="url(#clip170)" d="M32.4621 504.313 Q32.4621 509.024 36.1542 511.761 Q39.8145 514.498 46.212 514.498 Q52.6095 514.498 56.3017 511.793 Q59.9619 509.056 59.9619 504.313 Q59.9619 499.634 56.2698 496.897 Q52.5777 494.16 46.212 494.16 Q39.8781 494.16 36.186 496.897 Q32.4621 499.634 32.4621 504.313 M27.4968 504.313 Q27.4968 496.674 32.4621 492.314 Q37.4273 487.953 46.212 487.953 Q54.9649 487.953 59.9619 492.314 Q64.9272 496.674 64.9272 504.313 Q64.9272 511.984 59.9619 516.344 Q54.9649 520.673 46.212 520.673 Q37.4273 520.673 32.4621 516.344 Q27.4968 511.984 27.4968 504.313 Z" fill="#000000" fill-rule="evenodd" fill-opacity="1" /><path clip-path="url(#clip170)" d="M45.7664 454.788 Q39.4007 454.788 35.8996 457.43 Q32.3984 460.04 32.3984 464.782 Q32.3984 469.493 35.8996 472.135 Q39.4007 474.744 45.7664 474.744 Q52.1003 474.744 55.6014 472.135 Q59.1026 469.493 59.1026 464.782 Q59.1026 460.04 55.6014 457.43 Q52.1003 454.788 45.7664 454.788 M59.58 448.932 Q68.683 448.932 73.1071 452.974 Q77.5631 457.016 77.5631 465.355 Q77.5631 468.442 77.0857 471.18 Q76.6401 473.917 75.6852 476.495 L69.9879 476.495 Q71.3884 473.917 72.0568 471.402 Q72.7252 468.888 72.7252 466.278 Q72.7252 460.517 69.7015 457.653 Q66.7096 454.788 60.6303 454.788 L57.7339 454.788 Q60.885 456.602 62.4446 459.435 Q64.0042 462.268 64.0042 466.214 Q64.0042 472.771 59.0071 476.782 Q54.01 480.792 45.7664 480.792 Q37.491 480.792 32.4939 476.782 Q27.4968 472.771 27.4968 466.214 Q27.4968 462.268 29.0564 459.435 Q30.616 456.602 33.7671 454.788 L28.3562 454.788 L28.3562 448.932 L59.58 448.932 Z" fill="#000000" fill-rule="evenodd" fill-opacity="1" /><path clip-path="url(#clip170)" d="M14.5426 437.792 L14.5426 432.699 Q22.0542 427.925 29.2474 425.569 Q36.4406 423.182 43.5384 423.182 Q50.668 423.182 57.8931 425.569 Q65.1182 427.925 72.5979 432.699 L72.5979 437.792 Q65.3091 433.558 58.1159 431.489 Q50.8908 429.389 43.5384 429.389 Q36.186 429.389 29.0246 431.489 Q21.8632 433.558 14.5426 437.792 Z" fill="#000000" fill-rule="evenodd" fill-opacity="1" /><polyline clip-path="url(#clip172)" style="stroke:#009af9; stroke-linecap:butt; stroke-linejoin:round; stroke-width:12; stroke-opacity:1; fill:none" points="
  521.552,992.135 676.133,1061.02 848.931,1130.37 1002.23,1200.12 1165.64,1270.44 1317.18,1342.01 
  "/>
<circle clip-path="url(#clip172)" cx="521.552" cy="992.135" r="18" fill="#009af9" fill-rule="evenodd" fill-opacity="1" stroke="#000000" stroke-opacity="1" stroke-width="3.2"/>
<circle clip-path="url(#clip172)" cx="676.133" cy="1061.02" r="18" fill="#009af9" fill-rule="evenodd" fill-opacity="1" stroke="#000000" stroke-opacity="1" stroke-width="3.2"/>
<circle clip-path="url(#clip172)" cx="848.931" cy="1130.37" r="18" fill="#009af9" fill-rule="evenodd" fill-opacity="1" stroke="#000000" stroke-opacity="1" stroke-width="3.2"/>
<circle clip-path="url(#clip172)" cx="1002.23" cy="1200.12" r="18" fill="#009af9" fill-rule="evenodd" fill-opacity="1" stroke="#000000" stroke-opacity="1" stroke-width="3.2"/>
<circle clip-path="url(#clip172)" cx="1165.64" cy="1270.44" r="18" fill="#009af9" fill-rule="evenodd" fill-opacity="1" stroke="#000000" stroke-opacity="1" stroke-width="3.2"/>
<circle clip-path="url(#clip172)" cx="1317.18" cy="1342.01" r="18" fill="#009af9" fill-rule="evenodd" fill-opacity="1" stroke="#000000" stroke-opacity="1" stroke-width="3.2"/>
<polyline clip-path="url(#clip172)" style="stroke:#e26f46; stroke-linecap:butt; stroke-linejoin:round; stroke-width:12; stroke-opacity:1; fill:none" points="
  541.687,1019.14 700.736,1087.48 847.345,1156.39 996.435,1225.85 1159.72,1296.42 1318.17,1368.35 
  "/>
<path clip-path="url(#clip172)" d="M521.687 999.138 L521.687 1039.14 L561.687 1039.14 L561.687 999.138 L521.687 999.138 Z" fill="#e26f46" fill-rule="evenodd" fill-opacity="1" stroke="#000000" stroke-opacity="1" stroke-width="3.2"/>
<path clip-path="url(#clip172)" d="M680.736 1067.48 L680.736 1107.48 L720.736 1107.48 L720.736 1067.48 L680.736 1067.48 Z" fill="#e26f46" fill-rule="evenodd" fill-opacity="1" stroke="#000000" stroke-opacity="1" stroke-width="3.2"/>
<path clip-path="url(#clip172)" d="M827.345 1136.39 L827.345 1176.39 L867.345 1176.39 L867.345 1136.39 L827.345 1136.39 Z" fill="#e26f46" fill-rule="evenodd" fill-opacity="1" stroke="#000000" stroke-opacity="1" stroke-width="3.2"/>
<path clip-path="url(#clip172)" d="M976.435 1205.85 L976.435 1245.85 L1016.44 1245.85 L1016.44 1205.85 L976.435 1205.85 Z" fill="#e26f46" fill-rule="evenodd" fill-opacity="1" stroke="#000000" stroke-opacity="1" stroke-width="3.2"/>
<path clip-path="url(#clip172)" d="M1139.72 1276.42 L1139.72 1316.42 L1179.72 1316.42 L1179.72 1276.42 L1139.72 1276.42 Z" fill="#e26f46" fill-rule="evenodd" fill-opacity="1" stroke="#000000" stroke-opacity="1" stroke-width="3.2"/>
<path clip-path="url(#clip172)" d="M1298.17 1348.35 L1298.17 1388.35 L1338.17 1388.35 L1338.17 1348.35 L1298.17 1348.35 Z" fill="#e26f46" fill-rule="evenodd" fill-opacity="1" stroke="#000000" stroke-opacity="1" stroke-width="3.2"/>
<polyline clip-path="url(#clip172)" style="stroke:#3da44d; stroke-linecap:butt; stroke-linejoin:round; stroke-width:12; stroke-opacity:1; fill:none" points="
  751.573,812.308 918.057,845.959 1063.24,879.133 1231.46,911.961 1392.53,944.562 
  "/>
<path clip-path="url(#clip172)" d="M767.573 812.308 L743.573 798.308 L743.573 826.308 L767.573 812.308 Z" fill="#3da44d" fill-rule="evenodd" fill-opacity="1" stroke="#000000" stroke-opacity="1" stroke-width="3.2"/>
<path clip-path="url(#clip172)" d="M934.057 845.959 L910.057 831.959 L910.057 859.959 L934.057 845.959 Z" fill="#3da44d" fill-rule="evenodd" fill-opacity="1" stroke="#000000" stroke-opacity="1" stroke-width="3.2"/>
<path clip-path="url(#clip172)" d="M1079.24 879.133 L1055.24 865.133 L1055.24 893.133 L1079.24 879.133 Z" fill="#3da44d" fill-rule="evenodd" fill-opacity="1" stroke="#000000" stroke-opacity="1" stroke-width="3.2"/>
<path clip-path="url(#clip172)" d="M1247.46 911.961 L1223.46 897.961 L1223.46 925.961 L1247.46 911.961 Z" fill="#3da44d" fill-rule="evenodd" fill-opacity="1" stroke="#000000" stroke-opacity="1" stroke-width="3.2"/>
<path clip-path="url(#clip172)" d="M1408.53 944.562 L1384.53 930.562 L1384.53 958.562 L1408.53 944.562 Z" fill="#3da44d" fill-rule="evenodd" fill-opacity="1" stroke="#000000" stroke-opacity="1" stroke-width="3.2"/>
<polyline clip-path="url(#clip172)" style="stroke:#c271d2; stroke-linecap:butt; stroke-linejoin:round; stroke-width:12; stroke-opacity:1; fill:none" points="
  726.935,792.135 872.846,821.908 1023.26,852.425 1153.73,883.459 1328.48,914.836 1473.98,946.446 
  "/>
<path clip-path="url(#clip172)" d="M726.935 772.135 L706.935 792.135 L726.935 812.135 L746.935 792.135 L726.935 772.135 Z" fill="#c271d2" fill-rule="evenodd" fill-opacity="1" stroke="#000000" stroke-opacity="1" stroke-width="3.2"/>
<path clip-path="url(#clip172)" d="M872.846 801.908 L852.846 821.908 L872.846 841.908 L892.846 821.908 L872.846 801.908 Z" fill="#c271d2" fill-rule="evenodd" fill-opacity="1" stroke="#000000" stroke-opacity="1" stroke-width="3.2"/>
<path clip-path="url(#clip172)" d="M1023.26 832.425 L1003.26 852.425 L1023.26 872.425 L1043.26 852.425 L1023.26 832.425 Z" fill="#c271d2" fill-rule="evenodd" fill-opacity="1" stroke="#000000" stroke-opacity="1" stroke-width="3.2"/>
<path clip-path="url(#clip172)" d="M1153.73 863.459 L1133.73 883.459 L1153.73 903.459 L1173.73 883.459 L1153.73 863.459 Z" fill="#c271d2" fill-rule="evenodd" fill-opacity="1" stroke="#000000" stroke-opacity="1" stroke-width="3.2"/>
<path clip-path="url(#clip172)" d="M1328.48 894.836 L1308.48 914.836 L1328.48 934.836 L1348.48 914.836 L1328.48 894.836 Z" fill="#c271d2" fill-rule="evenodd" fill-opacity="1" stroke="#000000" stroke-opacity="1" stroke-width="3.2"/>
<path clip-path="url(#clip172)" d="M1473.98 926.446 L1453.98 946.446 L1473.98 966.446 L1493.98 946.446 L1473.98 926.446 Z" fill="#c271d2" fill-rule="evenodd" fill-opacity="1" stroke="#000000" stroke-opacity="1" stroke-width="3.2"/>
<polyline clip-path="url(#clip172)" style="stroke:#ac8d18; stroke-linecap:butt; stroke-linejoin:round; stroke-width:12; stroke-opacity:1; fill:none" points="
  698.965,997.275 848.876,1066.42 1007.55,1136 1159.84,1205.96 1329.98,1276.48 1476.38,1348.31 
  "/>
<circle clip-path="url(#clip172)" cx="698.965" cy="997.275" r="18" fill="#ac8d18" fill-rule="evenodd" fill-opacity="1" stroke="#000000" stroke-opacity="1" stroke-width="3.2"/>
<circle clip-path="url(#clip172)" cx="848.876" cy="1066.42" r="18" fill="#ac8d18" fill-rule="evenodd" fill-opacity="1" stroke="#000000" stroke-opacity="1" stroke-width="3.2"/>
<circle clip-path="url(#clip172)" cx="1007.55" cy="1136" r="18" fill="#ac8d18" fill-rule="evenodd" fill-opacity="1" stroke="#000000" stroke-opacity="1" stroke-width="3.2"/>
<circle clip-path="url(#clip172)" cx="1159.84" cy="1205.96" r="18" fill="#ac8d18" fill-rule="evenodd" fill-opacity="1" stroke="#000000" stroke-opacity="1" stroke-width="3.2"/>
<circle clip-path="url(#clip172)" cx="1329.98" cy="1276.48" r="18" fill="#ac8d18" fill-rule="evenodd" fill-opacity="1" stroke="#000000" stroke-opacity="1" stroke-width="3.2"/>
<circle clip-path="url(#clip172)" cx="1476.38" cy="1348.31" r="18" fill="#ac8d18" fill-rule="evenodd" fill-opacity="1" stroke="#000000" stroke-opacity="1" stroke-width="3.2"/>
<polyline clip-path="url(#clip172)" style="stroke:#00a9ad; stroke-linecap:butt; stroke-linejoin:round; stroke-width:12; stroke-opacity:1; fill:none" points="
  708.052,1022.7 860.959,1091.12 1011.53,1160.1 1153.51,1229.64 1316.86,1300.3 1472.58,1372.3 
  "/>
<path clip-path="url(#clip172)" d="M688.052 1002.7 L688.052 1042.7 L728.052 1042.7 L728.052 1002.7 L688.052 1002.7 Z" fill="#00a9ad" fill-rule="evenodd" fill-opacity="1" stroke="#000000" stroke-opacity="1" stroke-width="3.2"/>
<path clip-path="url(#clip172)" d="M840.959 1071.12 L840.959 1111.12 L880.959 1111.12 L880.959 1071.12 L840.959 1071.12 Z" fill="#00a9ad" fill-rule="evenodd" fill-opacity="1" stroke="#000000" stroke-opacity="1" stroke-width="3.2"/>
<path clip-path="url(#clip172)" d="M991.531 1140.1 L991.531 1180.1 L1031.53 1180.1 L1031.53 1140.1 L991.531 1140.1 Z" fill="#00a9ad" fill-rule="evenodd" fill-opacity="1" stroke="#000000" stroke-opacity="1" stroke-width="3.2"/>
<path clip-path="url(#clip172)" d="M1133.51 1209.64 L1133.51 1249.64 L1173.51 1249.64 L1173.51 1209.64 L1133.51 1209.64 Z" fill="#00a9ad" fill-rule="evenodd" fill-opacity="1" stroke="#000000" stroke-opacity="1" stroke-width="3.2"/>
<path clip-path="url(#clip172)" d="M1296.86 1280.3 L1296.86 1320.3 L1336.86 1320.3 L1336.86 1280.3 L1296.86 1280.3 Z" fill="#00a9ad" fill-rule="evenodd" fill-opacity="1" stroke="#000000" stroke-opacity="1" stroke-width="3.2"/>
<path clip-path="url(#clip172)" d="M1452.58 1352.3 L1452.58 1392.3 L1492.58 1392.3 L1492.58 1352.3 L1452.58 1352.3 Z" fill="#00a9ad" fill-rule="evenodd" fill-opacity="1" stroke="#000000" stroke-opacity="1" stroke-width="3.2"/>
<polyline clip-path="url(#clip172)" style="stroke:#ed5d92; stroke-linecap:butt; stroke-linejoin:round; stroke-width:8; stroke-opacity:1; fill:none" points="
  291.924,734.266 514.525,765.86 757.296,797.686 1034.27,829.636 1327.59,861.654 1627.98,893.713 
  "/>
<path clip-path="url(#clip172)" d="M291.924 718.266 L288.164 729.082 L276.708 729.322 L285.844 736.25 L282.516 747.21 L291.924 740.666 L301.332 747.21 L298.004 736.25 L307.14 729.322 L295.684 729.082 L291.924 718.266 Z" fill="#ed5d92" fill-rule="evenodd" fill-opacity="1" stroke="#000000" stroke-opacity="1" stroke-width="3.2"/>
<path clip-path="url(#clip172)" d="M514.525 749.86 L510.765 760.676 L499.309 760.916 L508.445 767.844 L505.117 778.804 L514.525 772.26 L523.933 778.804 L520.605 767.844 L529.741 760.916 L518.285 760.676 L514.525 749.86 Z" fill="#ed5d92" fill-rule="evenodd" fill-opacity="1" stroke="#000000" stroke-opacity="1" stroke-width="3.2"/>
<path clip-path="url(#clip172)" d="M757.296 781.686 L753.536 792.502 L742.08 792.742 L751.216 799.67 L747.888 810.63 L757.296 804.086 L766.704 810.63 L763.376 799.67 L772.512 792.742 L761.056 792.502 L757.296 781.686 Z" fill="#ed5d92" fill-rule="evenodd" fill-opacity="1" stroke="#000000" stroke-opacity="1" stroke-width="3.2"/>
<path clip-path="url(#clip172)" d="M1034.27 813.636 L1030.51 824.452 L1019.06 824.692 L1028.19 831.62 L1024.87 842.58 L1034.27 836.036 L1043.68 842.58 L1040.35 831.62 L1049.49 824.692 L1038.03 824.452 L1034.27 813.636 Z" fill="#ed5d92" fill-rule="evenodd" fill-opacity="1" stroke="#000000" stroke-opacity="1" stroke-width="3.2"/>
<path clip-path="url(#clip172)" d="M1327.59 845.654 L1323.83 856.47 L1312.37 856.71 L1321.51 863.638 L1318.18 874.598 L1327.59 868.054 L1336.99 874.598 L1333.67 863.638 L1342.8 856.71 L1331.35 856.47 L1327.59 845.654 Z" fill="#ed5d92" fill-rule="evenodd" fill-opacity="1" stroke="#000000" stroke-opacity="1" stroke-width="3.2"/>
<path clip-path="url(#clip172)" d="M1627.98 877.713 L1624.22 888.529 L1612.77 888.769 L1621.9 895.697 L1618.58 906.657 L1627.98 900.113 L1637.39 906.657 L1634.06 895.697 L1643.2 888.769 L1631.74 888.529 L1627.98 877.713 Z" fill="#ed5d92" fill-rule="evenodd" fill-opacity="1" stroke="#000000" stroke-opacity="1" stroke-width="3.2"/>
<polyline clip-path="url(#clip172)" style="stroke:#c68125; stroke-linecap:butt; stroke-linejoin:round; stroke-width:12; stroke-opacity:1; fill:none" points="
  653.417,992.135 819.263,1061.02 976.672,1130.37 1144.95,1200.12 1305.1,1270.44 1461.97,1342.01 
  "/>
<circle clip-path="url(#clip172)" cx="653.417" cy="992.135" r="18" fill="#c68125" fill-rule="evenodd" fill-opacity="1" stroke="#000000" stroke-opacity="1" stroke-width="3.2"/>
<circle clip-path="url(#clip172)" cx="819.263" cy="1061.02" r="18" fill="#c68125" fill-rule="evenodd" fill-opacity="1" stroke="#000000" stroke-opacity="1" stroke-width="3.2"/>
<circle clip-path="url(#clip172)" cx="976.672" cy="1130.37" r="18" fill="#c68125" fill-rule="evenodd" fill-opacity="1" stroke="#000000" stroke-opacity="1" stroke-width="3.2"/>
<circle clip-path="url(#clip172)" cx="1144.95" cy="1200.12" r="18" fill="#c68125" fill-rule="evenodd" fill-opacity="1" stroke="#000000" stroke-opacity="1" stroke-width="3.2"/>
<circle clip-path="url(#clip172)" cx="1305.1" cy="1270.44" r="18" fill="#c68125" fill-rule="evenodd" fill-opacity="1" stroke="#000000" stroke-opacity="1" stroke-width="3.2"/>
<circle clip-path="url(#clip172)" cx="1461.97" cy="1342.01" r="18" fill="#c68125" fill-rule="evenodd" fill-opacity="1" stroke="#000000" stroke-opacity="1" stroke-width="3.2"/>
<polyline clip-path="url(#clip172)" style="stroke:#00a98d; stroke-linecap:butt; stroke-linejoin:round; stroke-width:12; stroke-opacity:1; fill:none" points="
  501.485,772.717 665.832,807.082 830.921,840.783 994.014,873.99 1170.54,906.846 1314.21,939.463 
  "/>
<path clip-path="url(#clip172)" d="M501.485 792.717 L484.165 782.717 L484.165 762.717 L501.485 752.717 L518.805 762.717 L518.805 782.717 Z" fill="#00a98d" fill-rule="evenodd" fill-opacity="1" stroke="#000000" stroke-opacity="1" stroke-width="3.2"/>
<path clip-path="url(#clip172)" d="M665.832 827.082 L648.512 817.082 L648.512 797.082 L665.832 787.082 L683.152 797.082 L683.152 817.082 Z" fill="#00a98d" fill-rule="evenodd" fill-opacity="1" stroke="#000000" stroke-opacity="1" stroke-width="3.2"/>
<path clip-path="url(#clip172)" d="M830.921 860.783 L813.601 850.783 L813.601 830.783 L830.921 820.783 L848.241 830.783 L848.241 850.783 Z" fill="#00a98d" fill-rule="evenodd" fill-opacity="1" stroke="#000000" stroke-opacity="1" stroke-width="3.2"/>
<path clip-path="url(#clip172)" d="M994.014 893.99 L976.694 883.99 L976.694 863.99 L994.014 853.99 L1011.33 863.99 L1011.33 883.99 Z" fill="#00a98d" fill-rule="evenodd" fill-opacity="1" stroke="#000000" stroke-opacity="1" stroke-width="3.2"/>
<path clip-path="url(#clip172)" d="M1170.54 926.846 L1153.22 916.846 L1153.22 896.846 L1170.54 886.846 L1187.86 896.846 L1187.86 916.846 Z" fill="#00a98d" fill-rule="evenodd" fill-opacity="1" stroke="#000000" stroke-opacity="1" stroke-width="3.2"/>
<path clip-path="url(#clip172)" d="M1314.21 959.463 L1296.89 949.463 L1296.89 929.463 L1314.21 919.463 L1331.53 929.463 L1331.53 949.463 Z" fill="#00a98d" fill-rule="evenodd" fill-opacity="1" stroke="#000000" stroke-opacity="1" stroke-width="3.2"/>
<polyline clip-path="url(#clip172)" style="stroke:#8e971d; stroke-linecap:butt; stroke-linejoin:round; stroke-width:12; stroke-opacity:1; fill:none" points="
  542.829,246.287 700.225,214.224 861.057,182.14 1206.06,150.044 1199.42,117.943 1338.29,85.838 
  "/>
<path clip-path="url(#clip172)" d="M542.829 226.287 L522.829 266.287 L562.829 266.287 L542.829 226.287 Z" fill="#8e971d" fill-rule="evenodd" fill-opacity="1" stroke="#000000" stroke-opacity="1" stroke-width="3.2"/>
<path clip-path="url(#clip172)" d="M700.225 194.224 L680.225 234.224 L720.225 234.224 L700.225 194.224 Z" fill="#8e971d" fill-rule="evenodd" fill-opacity="1" stroke="#000000" stroke-opacity="1" stroke-width="3.2"/>
<path clip-path="url(#clip172)" d="M861.057 162.14 L841.057 202.14 L881.057 202.14 L861.057 162.14 Z" fill="#8e971d" fill-rule="evenodd" fill-opacity="1" stroke="#000000" stroke-opacity="1" stroke-width="3.2"/>
<path clip-path="url(#clip172)" d="M1206.06 130.044 L1186.06 170.044 L1226.06 170.044 L1206.06 130.044 Z" fill="#8e971d" fill-rule="evenodd" fill-opacity="1" stroke="#000000" stroke-opacity="1" stroke-width="3.2"/>
<path clip-path="url(#clip172)" d="M1199.42 97.9427 L1179.42 137.943 L1219.42 137.943 L1199.42 97.9427 Z" fill="#8e971d" fill-rule="evenodd" fill-opacity="1" stroke="#000000" stroke-opacity="1" stroke-width="3.2"/>
<path clip-path="url(#clip172)" d="M1338.29 65.838 L1318.29 105.838 L1358.29 105.838 L1338.29 65.838 Z" fill="#8e971d" fill-rule="evenodd" fill-opacity="1" stroke="#000000" stroke-opacity="1" stroke-width="3.2"/>
<polyline clip-path="url(#clip172)" style="stroke:#00a8cb; stroke-linecap:butt; stroke-linejoin:round; stroke-width:12; stroke-opacity:1; fill:none" points="
  529.349,246.285 716.72,214.224 1084.57,182.14 1049.59,150.044 1207.79,117.943 1395.49,85.838 
  "/>
<path clip-path="url(#clip172)" d="M549.349 226.285 L509.349 226.285 L529.349 266.285 L549.349 226.285 Z" fill="#00a8cb" fill-rule="evenodd" fill-opacity="1" stroke="#000000" stroke-opacity="1" stroke-width="3.2"/>
<path clip-path="url(#clip172)" d="M736.72 194.224 L696.72 194.224 L716.72 234.224 L736.72 194.224 Z" fill="#00a8cb" fill-rule="evenodd" fill-opacity="1" stroke="#000000" stroke-opacity="1" stroke-width="3.2"/>
<path clip-path="url(#clip172)" d="M1104.57 162.14 L1064.57 162.14 L1084.57 202.14 L1104.57 162.14 Z" fill="#00a8cb" fill-rule="evenodd" fill-opacity="1" stroke="#000000" stroke-opacity="1" stroke-width="3.2"/>
<path clip-path="url(#clip172)" d="M1069.59 130.044 L1029.59 130.044 L1049.59 170.044 L1069.59 130.044 Z" fill="#00a8cb" fill-rule="evenodd" fill-opacity="1" stroke="#000000" stroke-opacity="1" stroke-width="3.2"/>
<path clip-path="url(#clip172)" d="M1227.79 97.9427 L1187.79 97.9427 L1207.79 137.943 L1227.79 97.9427 Z" fill="#00a8cb" fill-rule="evenodd" fill-opacity="1" stroke="#000000" stroke-opacity="1" stroke-width="3.2"/>
<path clip-path="url(#clip172)" d="M1415.49 65.838 L1375.49 65.838 L1395.49 105.838 L1415.49 65.838 Z" fill="#00a8cb" fill-rule="evenodd" fill-opacity="1" stroke="#000000" stroke-opacity="1" stroke-width="3.2"/>
<polyline clip-path="url(#clip172)" style="stroke:#9b7fe8; stroke-linecap:butt; stroke-linejoin:round; stroke-width:8; stroke-opacity:1; fill:none" points="
  559.793,246.285 921.79,214.224 1094.53,182.14 1030.94,150.044 1197.92,117.943 1398.99,85.838 
  "/>
<path clip-path="url(#clip172)" d="M559.793 226.285 L540.773 240.105 L548.033 262.465 L571.553 262.465 L578.813 240.105 Z" fill="#9b7fe8" fill-rule="evenodd" fill-opacity="1" stroke="#000000" stroke-opacity="1" stroke-width="3.2"/>
<path clip-path="url(#clip172)" d="M921.79 194.224 L902.77 208.044 L910.03 230.404 L933.55 230.404 L940.81 208.044 Z" fill="#9b7fe8" fill-rule="evenodd" fill-opacity="1" stroke="#000000" stroke-opacity="1" stroke-width="3.2"/>
<path clip-path="url(#clip172)" d="M1094.53 162.14 L1075.51 175.96 L1082.77 198.32 L1106.29 198.32 L1113.55 175.96 Z" fill="#9b7fe8" fill-rule="evenodd" fill-opacity="1" stroke="#000000" stroke-opacity="1" stroke-width="3.2"/>
<path clip-path="url(#clip172)" d="M1030.94 130.044 L1011.92 143.864 L1019.18 166.224 L1042.7 166.224 L1049.96 143.864 Z" fill="#9b7fe8" fill-rule="evenodd" fill-opacity="1" stroke="#000000" stroke-opacity="1" stroke-width="3.2"/>
<path clip-path="url(#clip172)" d="M1197.92 97.9427 L1178.9 111.763 L1186.16 134.123 L1209.68 134.123 L1216.94 111.763 Z" fill="#9b7fe8" fill-rule="evenodd" fill-opacity="1" stroke="#000000" stroke-opacity="1" stroke-width="3.2"/>
<path clip-path="url(#clip172)" d="M1398.99 65.838 L1379.97 79.658 L1387.23 102.018 L1410.75 102.018 L1418.01 79.658 Z" fill="#9b7fe8" fill-rule="evenodd" fill-opacity="1" stroke="#000000" stroke-opacity="1" stroke-width="3.2"/>
<path clip-path="url(#clip170)" d="
M1738.1 1040.11 L2352.76 1040.11 L2352.76 366.19 L1738.1 366.19  Z
  " fill="#ffffff" fill-rule="evenodd" fill-opacity="1"/>
<polyline clip-path="url(#clip170)" style="stroke:#000000; stroke-linecap:butt; stroke-linejoin:round; stroke-width:4; stroke-opacity:1; fill:none" points="
  1738.1,1040.11 2352.76,1040.11 2352.76,366.19 1738.1,366.19 1738.1,1040.11 
  "/>
<polyline clip-path="url(#clip170)" style="stroke:#009af9; stroke-linecap:butt; stroke-linejoin:round; stroke-width:4; stroke-opacity:1; fill:none" points="
  1761.44,418.03 1901.5,418.03 
  "/>
<circle clip-path="url(#clip170)" cx="1831.47" cy="418.03" r="23.04" fill="#009af9" fill-rule="evenodd" fill-opacity="1" stroke="#000000" stroke-opacity="1" stroke-width="4.096"/>
<path clip-path="url(#clip170)" d="M1931.95 400.75 L1936.63 400.75 L1936.63 432.903 Q1936.63 439.153 1934.24 441.977 Q1931.88 444.801 1926.63 444.801 L1924.84 444.801 L1924.84 440.866 L1926.3 440.866 Q1929.4 440.866 1930.68 439.13 Q1931.95 437.394 1931.95 432.903 L1931.95 400.75 Z" fill="#000000" fill-rule="evenodd" fill-opacity="1" /><path clip-path="url(#clip170)" d="M1941.9 420.426 L1954.38 420.426 L1954.38 424.222 L1941.9 424.222 L1941.9 420.426 Z" fill="#000000" fill-rule="evenodd" fill-opacity="1" /><path clip-path="url(#clip170)" d="M1966.02 404.593 L1966.02 417.579 L1971.9 417.579 Q1975.17 417.579 1976.95 415.889 Q1978.73 414.199 1978.73 411.074 Q1978.73 407.973 1976.95 406.283 Q1975.17 404.593 1971.9 404.593 L1966.02 404.593 M1961.35 400.75 L1971.9 400.75 Q1977.71 400.75 1980.68 403.389 Q1983.66 406.005 1983.66 411.074 Q1983.66 416.19 1980.68 418.806 Q1977.71 421.422 1971.9 421.422 L1966.02 421.422 L1966.02 435.31 L1961.35 435.31 L1961.35 400.75 Z" fill="#000000" fill-rule="evenodd" fill-opacity="1" /><path clip-path="url(#clip170)" d="M2015.82 403.412 L2015.82 408.343 Q2013.45 406.144 2010.77 405.056 Q2008.11 403.968 2005.1 403.968 Q1999.17 403.968 1996.02 407.602 Q1992.88 411.213 1992.88 418.065 Q1992.88 424.894 1996.02 428.528 Q1999.17 432.139 2005.1 432.139 Q2008.11 432.139 2010.77 431.051 Q2013.45 429.963 2015.82 427.764 L2015.82 432.648 Q2013.36 434.315 2010.61 435.148 Q2007.88 435.982 2004.82 435.982 Q1996.97 435.982 1992.46 431.19 Q1987.95 426.375 1987.95 418.065 Q1987.95 409.732 1992.46 404.94 Q1996.97 400.125 2004.82 400.125 Q2007.92 400.125 2010.65 400.959 Q2013.41 401.769 2015.82 403.412 Z" fill="#000000" fill-rule="evenodd" fill-opacity="1" /><polyline clip-path="url(#clip170)" style="stroke:#e26f46; stroke-linecap:butt; stroke-linejoin:round; stroke-width:4; stroke-opacity:1; fill:none" points="
  1761.44,469.87 1901.5,469.87 
  "/>
<path clip-path="url(#clip170)" d="M1805.87 444.27 L1805.87 495.47 L1857.07 495.47 L1857.07 444.27 L1805.87 444.27 Z" fill="#e26f46" fill-rule="evenodd" fill-opacity="1" stroke="#000000" stroke-opacity="1" stroke-width="4.096"/>
<path clip-path="url(#clip170)" d="M1931.95 452.59 L1936.63 452.59 L1936.63 484.743 Q1936.63 490.993 1934.24 493.817 Q1931.88 496.641 1926.63 496.641 L1924.84 496.641 L1924.84 492.706 L1926.3 492.706 Q1929.4 492.706 1930.68 490.97 Q1931.95 489.234 1931.95 484.743 L1931.95 452.59 Z" fill="#000000" fill-rule="evenodd" fill-opacity="1" /><path clip-path="url(#clip170)" d="M1941.9 472.266 L1954.38 472.266 L1954.38 476.062 L1941.9 476.062 L1941.9 472.266 Z" fill="#000000" fill-rule="evenodd" fill-opacity="1" /><path clip-path="url(#clip170)" d="M1961.35 452.59 L1967.64 452.59 L1982.97 481.502 L1982.97 452.59 L1987.51 452.59 L1987.51 487.15 L1981.21 487.15 L1965.89 458.238 L1965.89 487.15 L1961.35 487.15 L1961.35 452.59 Z" fill="#000000" fill-rule="evenodd" fill-opacity="1" /><path clip-path="url(#clip170)" d="M2013.2 470.947 Q2014.7 471.456 2016.12 473.123 Q2017.55 474.789 2018.99 477.706 L2023.73 487.15 L2018.71 487.15 L2014.29 478.285 Q2012.58 474.812 2010.95 473.678 Q2009.36 472.544 2006.58 472.544 L2001.49 472.544 L2001.49 487.15 L1996.81 487.15 L1996.81 452.59 L2007.37 452.59 Q2013.29 452.59 2016.21 455.067 Q2019.13 457.544 2019.13 462.544 Q2019.13 465.808 2017.6 467.961 Q2016.09 470.113 2013.2 470.947 M2001.49 456.433 L2001.49 468.701 L2007.37 468.701 Q2010.75 468.701 2012.46 467.15 Q2014.2 465.576 2014.2 462.544 Q2014.2 459.512 2012.46 457.984 Q2010.75 456.433 2007.37 456.433 L2001.49 456.433 Z" fill="#000000" fill-rule="evenodd" fill-opacity="1" /><polyline clip-path="url(#clip170)" style="stroke:#3da44d; stroke-linecap:butt; stroke-linejoin:round; stroke-width:4; stroke-opacity:1; fill:none" points="
  1761.44,521.71 1901.5,521.71 
  "/>
<path clip-path="url(#clip170)" d="M1851.95 521.71 L1821.23 503.79 L1821.23 539.63 L1851.95 521.71 Z" fill="#3da44d" fill-rule="evenodd" fill-opacity="1" stroke="#000000" stroke-opacity="1" stroke-width="4.096"/>
<path clip-path="url(#clip170)" d="M1924.84 504.43 L1931.81 504.43 L1940.63 527.949 L1949.5 504.43 L1956.46 504.43 L1956.46 538.99 L1951.9 538.99 L1951.9 508.643 L1942.99 532.347 L1938.29 532.347 L1929.38 508.643 L1929.38 538.99 L1924.84 538.99 L1924.84 504.43 Z" fill="#000000" fill-rule="evenodd" fill-opacity="1" /><path clip-path="url(#clip170)" d="M1963.41 524.106 L1975.89 524.106 L1975.89 527.902 L1963.41 527.902 L1963.41 524.106 Z" fill="#000000" fill-rule="evenodd" fill-opacity="1" /><path clip-path="url(#clip170)" d="M1987.53 508.273 L1987.53 521.259 L1993.41 521.259 Q1996.67 521.259 1998.45 519.569 Q2000.24 517.879 2000.24 514.754 Q2000.24 511.653 1998.45 509.963 Q1996.67 508.273 1993.41 508.273 L1987.53 508.273 M1982.85 504.43 L1993.41 504.43 Q1999.22 504.43 2002.18 507.069 Q2005.17 509.685 2005.17 514.754 Q2005.17 519.87 2002.18 522.486 Q1999.22 525.102 1993.41 525.102 L1987.53 525.102 L1987.53 538.99 L1982.85 538.99 L1982.85 504.43 Z" fill="#000000" fill-rule="evenodd" fill-opacity="1" /><path clip-path="url(#clip170)" d="M2011.44 504.43 L2016.12 504.43 L2016.12 538.99 L2011.44 538.99 L2011.44 504.43 Z" fill="#000000" fill-rule="evenodd" fill-opacity="1" /><path clip-path="url(#clip170)" d="M2023.08 524.106 L2035.56 524.106 L2035.56 527.902 L2023.08 527.902 L2023.08 524.106 Z" fill="#000000" fill-rule="evenodd" fill-opacity="1" /><path clip-path="url(#clip170)" d="M2042.53 504.43 L2064.38 504.43 L2064.38 508.366 L2047.2 508.366 L2047.2 518.597 L2063.66 518.597 L2063.66 522.532 L2047.2 522.532 L2047.2 535.055 L2064.8 535.055 L2064.8 538.99 L2042.53 538.99 L2042.53 504.43 Z" fill="#000000" fill-rule="evenodd" fill-opacity="1" /><path clip-path="url(#clip170)" d="M2070.82 504.43 L2075.84 504.43 L2084.43 517.278 L2093.06 504.43 L2098.08 504.43 L2086.97 521.028 L2098.82 538.99 L2093.8 538.99 L2084.08 524.291 L2074.29 538.99 L2069.24 538.99 L2081.58 520.541 L2070.82 504.43 Z" fill="#000000" fill-rule="evenodd" fill-opacity="1" /><polyline clip-path="url(#clip170)" style="stroke:#c271d2; stroke-linecap:butt; stroke-linejoin:round; stroke-width:4; stroke-opacity:1; fill:none" points="
  1761.44,573.55 1901.5,573.55 
  "/>
<path clip-path="url(#clip170)" d="M1831.47 547.95 L1805.87 573.55 L1831.47 599.15 L1857.07 573.55 L1831.47 547.95 Z" fill="#c271d2" fill-rule="evenodd" fill-opacity="1" stroke="#000000" stroke-opacity="1" stroke-width="4.096"/>
<path clip-path="url(#clip170)" d="M1924.84 556.27 L1931.81 556.27 L1940.63 579.789 L1949.5 556.27 L1956.46 556.27 L1956.46 590.83 L1951.9 590.83 L1951.9 560.483 L1942.99 584.187 L1938.29 584.187 L1929.38 560.483 L1929.38 590.83 L1924.84 590.83 L1924.84 556.27 Z" fill="#000000" fill-rule="evenodd" fill-opacity="1" /><path clip-path="url(#clip170)" d="M1963.41 575.946 L1975.89 575.946 L1975.89 579.742 L1963.41 579.742 L1963.41 575.946 Z" fill="#000000" fill-rule="evenodd" fill-opacity="1" /><path clip-path="url(#clip170)" d="M1987.53 560.113 L1987.53 573.099 L1993.41 573.099 Q1996.67 573.099 1998.45 571.409 Q2000.24 569.719 2000.24 566.594 Q2000.24 563.493 1998.45 561.803 Q1996.67 560.113 1993.41 560.113 L1987.53 560.113 M1982.85 556.27 L1993.41 556.27 Q1999.22 556.27 2002.18 558.909 Q2005.17 561.525 2005.17 566.594 Q2005.17 571.71 2002.18 574.326 Q1999.22 576.942 1993.41 576.942 L1987.53 576.942 L1987.53 590.83 L1982.85 590.83 L1982.85 556.27 Z" fill="#000000" fill-rule="evenodd" fill-opacity="1" /><path clip-path="url(#clip170)" d="M2011.44 556.27 L2016.12 556.27 L2016.12 590.83 L2011.44 590.83 L2011.44 556.27 Z" fill="#000000" fill-rule="evenodd" fill-opacity="1" /><path clip-path="url(#clip170)" d="M2023.08 575.946 L2035.56 575.946 L2035.56 579.742 L2023.08 579.742 L2023.08 575.946 Z" fill="#000000" fill-rule="evenodd" fill-opacity="1" /><path clip-path="url(#clip170)" d="M2042.53 556.27 L2047.2 556.27 L2047.2 590.83 L2042.53 590.83 L2042.53 556.27 Z" fill="#000000" fill-rule="evenodd" fill-opacity="1" /><path clip-path="url(#clip170)" d="M2056.51 556.27 L2063.48 556.27 L2072.3 579.789 L2081.16 556.27 L2088.13 556.27 L2088.13 590.83 L2083.57 590.83 L2083.57 560.483 L2074.66 584.187 L2069.96 584.187 L2061.05 560.483 L2061.05 590.83 L2056.51 590.83 L2056.51 556.27 Z" fill="#000000" fill-rule="evenodd" fill-opacity="1" /><path clip-path="url(#clip170)" d="M2098.64 586.895 L2106.28 586.895 L2106.28 560.53 L2097.97 562.196 L2097.97 557.937 L2106.23 556.27 L2110.91 556.27 L2110.91 586.895 L2118.55 586.895 L2118.55 590.83 L2098.64 590.83 L2098.64 586.895 Z" fill="#000000" fill-rule="evenodd" fill-opacity="1" /><polyline clip-path="url(#clip170)" style="stroke:#ac8d18; stroke-linecap:butt; stroke-linejoin:round; stroke-width:4; stroke-opacity:1; fill:none" points="
  1761.44,625.39 1901.5,625.39 
  "/>
<circle clip-path="url(#clip170)" cx="1831.47" cy="625.39" r="23.04" fill="#ac8d18" fill-rule="evenodd" fill-opacity="1" stroke="#000000" stroke-opacity="1" stroke-width="4.096"/>
<path clip-path="url(#clip170)" d="M1924.84 608.11 L1931.81 608.11 L1940.63 631.629 L1949.5 608.11 L1956.46 608.11 L1956.46 642.67 L1951.9 642.67 L1951.9 612.323 L1942.99 636.027 L1938.29 636.027 L1929.38 612.323 L1929.38 642.67 L1924.84 642.67 L1924.84 608.11 Z" fill="#000000" fill-rule="evenodd" fill-opacity="1" /><path clip-path="url(#clip170)" d="M1963.41 627.786 L1975.89 627.786 L1975.89 631.582 L1963.41 631.582 L1963.41 627.786 Z" fill="#000000" fill-rule="evenodd" fill-opacity="1" /><path clip-path="url(#clip170)" d="M1987.53 611.953 L1987.53 624.939 L1993.41 624.939 Q1996.67 624.939 1998.45 623.249 Q2000.24 621.559 2000.24 618.434 Q2000.24 615.333 1998.45 613.643 Q1996.67 611.953 1993.41 611.953 L1987.53 611.953 M1982.85 608.11 L1993.41 608.11 Q1999.22 608.11 2002.18 610.749 Q2005.17 613.365 2005.17 618.434 Q2005.17 623.55 2002.18 626.166 Q1999.22 628.782 1993.41 628.782 L1987.53 628.782 L1987.53 642.67 L1982.85 642.67 L1982.85 608.11 Z" fill="#000000" fill-rule="evenodd" fill-opacity="1" /><path clip-path="url(#clip170)" d="M2011.44 608.11 L2016.12 608.11 L2016.12 642.67 L2011.44 642.67 L2011.44 608.11 Z" fill="#000000" fill-rule="evenodd" fill-opacity="1" /><path clip-path="url(#clip170)" d="M2023.08 627.786 L2035.56 627.786 L2035.56 631.582 L2023.08 631.582 L2023.08 627.786 Z" fill="#000000" fill-rule="evenodd" fill-opacity="1" /><path clip-path="url(#clip170)" d="M2047.2 611.953 L2047.2 624.939 L2053.08 624.939 Q2056.35 624.939 2058.13 623.249 Q2059.91 621.559 2059.91 618.434 Q2059.91 615.333 2058.13 613.643 Q2056.35 611.953 2053.08 611.953 L2047.2 611.953 M2042.53 608.11 L2053.08 608.11 Q2058.89 608.11 2061.86 610.749 Q2064.84 613.365 2064.84 618.434 Q2064.84 623.55 2061.86 626.166 Q2058.89 628.782 2053.08 628.782 L2047.2 628.782 L2047.2 642.67 L2042.53 642.67 L2042.53 608.11 Z" fill="#000000" fill-rule="evenodd" fill-opacity="1" /><path clip-path="url(#clip170)" d="M2097 610.772 L2097 615.703 Q2094.63 613.504 2091.95 612.416 Q2089.29 611.328 2086.28 611.328 Q2080.35 611.328 2077.2 614.962 Q2074.06 618.573 2074.06 625.425 Q2074.06 632.254 2077.2 635.888 Q2080.35 639.499 2086.28 639.499 Q2089.29 639.499 2091.95 638.411 Q2094.63 637.323 2097 635.124 L2097 640.008 Q2094.54 641.675 2091.79 642.508 Q2089.06 643.342 2086 643.342 Q2078.15 643.342 2073.64 638.55 Q2069.13 633.735 2069.13 625.425 Q2069.13 617.092 2073.64 612.3 Q2078.15 607.485 2086 607.485 Q2089.1 607.485 2091.83 608.319 Q2094.59 609.129 2097 610.772 Z" fill="#000000" fill-rule="evenodd" fill-opacity="1" /><polyline clip-path="url(#clip170)" style="stroke:#00a9ad; stroke-linecap:butt; stroke-linejoin:round; stroke-width:4; stroke-opacity:1; fill:none" points="
  1761.44,677.23 1901.5,677.23 
  "/>
<path clip-path="url(#clip170)" d="M1805.87 651.63 L1805.87 702.83 L1857.07 702.83 L1857.07 651.63 L1805.87 651.63 Z" fill="#00a9ad" fill-rule="evenodd" fill-opacity="1" stroke="#000000" stroke-opacity="1" stroke-width="4.096"/>
<path clip-path="url(#clip170)" d="M1924.84 659.95 L1931.81 659.95 L1940.63 683.469 L1949.5 659.95 L1956.46 659.95 L1956.46 694.51 L1951.9 694.51 L1951.9 664.163 L1942.99 687.867 L1938.29 687.867 L1929.38 664.163 L1929.38 694.51 L1924.84 694.51 L1924.84 659.95 Z" fill="#000000" fill-rule="evenodd" fill-opacity="1" /><path clip-path="url(#clip170)" d="M1963.41 679.626 L1975.89 679.626 L1975.89 683.422 L1963.41 683.422 L1963.41 679.626 Z" fill="#000000" fill-rule="evenodd" fill-opacity="1" /><path clip-path="url(#clip170)" d="M1987.53 663.793 L1987.53 676.779 L1993.41 676.779 Q1996.67 676.779 1998.45 675.089 Q2000.24 673.399 2000.24 670.274 Q2000.24 667.173 1998.45 665.483 Q1996.67 663.793 1993.41 663.793 L1987.53 663.793 M1982.85 659.95 L1993.41 659.95 Q1999.22 659.95 2002.18 662.589 Q2005.17 665.205 2005.17 670.274 Q2005.17 675.39 2002.18 678.006 Q1999.22 680.622 1993.41 680.622 L1987.53 680.622 L1987.53 694.51 L1982.85 694.51 L1982.85 659.95 Z" fill="#000000" fill-rule="evenodd" fill-opacity="1" /><path clip-path="url(#clip170)" d="M2011.44 659.95 L2016.12 659.95 L2016.12 694.51 L2011.44 694.51 L2011.44 659.95 Z" fill="#000000" fill-rule="evenodd" fill-opacity="1" /><path clip-path="url(#clip170)" d="M2023.08 679.626 L2035.56 679.626 L2035.56 683.422 L2023.08 683.422 L2023.08 679.626 Z" fill="#000000" fill-rule="evenodd" fill-opacity="1" /><path clip-path="url(#clip170)" d="M2042.53 659.95 L2047.2 659.95 L2047.2 694.51 L2042.53 694.51 L2042.53 659.95 Z" fill="#000000" fill-rule="evenodd" fill-opacity="1" /><path clip-path="url(#clip170)" d="M2056.51 659.95 L2063.48 659.95 L2072.3 683.469 L2081.16 659.95 L2088.13 659.95 L2088.13 694.51 L2083.57 694.51 L2083.57 664.163 L2074.66 687.867 L2069.96 687.867 L2061.05 664.163 L2061.05 694.51 L2056.51 694.51 L2056.51 659.95 Z" fill="#000000" fill-rule="evenodd" fill-opacity="1" /><path clip-path="url(#clip170)" d="M2101.86 690.575 L2118.18 690.575 L2118.18 694.51 L2096.23 694.51 L2096.23 690.575 Q2098.89 687.821 2103.48 683.191 Q2108.08 678.538 2109.26 677.196 Q2111.51 674.673 2112.39 672.936 Q2113.29 671.177 2113.29 669.487 Q2113.29 666.733 2111.35 664.997 Q2109.43 663.261 2106.32 663.261 Q2104.13 663.261 2101.67 664.024 Q2099.24 664.788 2096.46 666.339 L2096.46 661.617 Q2099.29 660.483 2101.74 659.904 Q2104.2 659.325 2106.23 659.325 Q2111.6 659.325 2114.8 662.011 Q2117.99 664.696 2117.99 669.186 Q2117.99 671.316 2117.18 673.237 Q2116.39 675.135 2114.29 677.728 Q2113.71 678.399 2110.61 681.617 Q2107.51 684.811 2101.86 690.575 Z" fill="#000000" fill-rule="evenodd" fill-opacity="1" /><polyline clip-path="url(#clip170)" style="stroke:#ed5d92; stroke-linecap:butt; stroke-linejoin:round; stroke-width:4; stroke-opacity:1; fill:none" points="
  1761.44,729.07 1901.5,729.07 
  "/>
<path clip-path="url(#clip170)" d="M1831.47 703.47 L1825.45 720.776 L1807.12 721.16 L1821.74 732.245 L1816.42 749.781 L1831.47 739.31 L1846.52 749.781 L1841.2 732.245 L1855.82 721.16 L1837.49 720.776 L1831.47 703.47 Z" fill="#ed5d92" fill-rule="evenodd" fill-opacity="1" stroke="#000000" stroke-opacity="1" stroke-width="5.12"/>
<path clip-path="url(#clip170)" d="M1931.95 711.79 L1936.63 711.79 L1936.63 743.943 Q1936.63 750.193 1934.24 753.017 Q1931.88 755.841 1926.63 755.841 L1924.84 755.841 L1924.84 751.906 L1926.3 751.906 Q1929.4 751.906 1930.68 750.17 Q1931.95 748.434 1931.95 743.943 L1931.95 711.79 Z" fill="#000000" fill-rule="evenodd" fill-opacity="1" /><path clip-path="url(#clip170)" d="M1941.9 731.466 L1954.38 731.466 L1954.38 735.262 L1941.9 735.262 L1941.9 731.466 Z" fill="#000000" fill-rule="evenodd" fill-opacity="1" /><path clip-path="url(#clip170)" d="M1961.35 711.79 L1967.64 711.79 L1982.97 740.702 L1982.97 711.79 L1987.51 711.79 L1987.51 746.35 L1981.21 746.35 L1965.89 717.438 L1965.89 746.35 L1961.35 746.35 L1961.35 711.79 Z" fill="#000000" fill-rule="evenodd" fill-opacity="1" /><path clip-path="url(#clip170)" d="M2006.67 723.411 Q2003.25 723.411 2001.26 726.096 Q1999.27 728.758 1999.27 733.411 Q1999.27 738.063 2001.23 740.749 Q2003.22 743.411 2006.67 743.411 Q2010.08 743.411 2012.07 740.725 Q2014.06 738.04 2014.06 733.411 Q2014.06 728.804 2012.07 726.119 Q2010.08 723.411 2006.67 723.411 M2006.67 719.8 Q2012.23 719.8 2015.4 723.411 Q2018.57 727.022 2018.57 733.411 Q2018.57 739.776 2015.4 743.411 Q2012.23 747.022 2006.67 747.022 Q2001.09 747.022 1997.92 743.411 Q1994.77 739.776 1994.77 733.411 Q1994.77 727.022 1997.92 723.411 Q2001.09 719.8 2006.67 719.8 Z" fill="#000000" fill-rule="evenodd" fill-opacity="1" /><path clip-path="url(#clip170)" d="M2047.18 730.702 L2047.18 746.35 L2042.92 746.35 L2042.92 730.841 Q2042.92 727.161 2041.49 725.332 Q2040.05 723.503 2037.18 723.503 Q2033.73 723.503 2031.74 725.702 Q2029.75 727.901 2029.75 731.698 L2029.75 746.35 L2025.47 746.35 L2025.47 720.425 L2029.75 720.425 L2029.75 724.452 Q2031.28 722.114 2033.34 720.957 Q2035.42 719.8 2038.13 719.8 Q2042.6 719.8 2044.89 722.577 Q2047.18 725.332 2047.18 730.702 Z" fill="#000000" fill-rule="evenodd" fill-opacity="1" /><path clip-path="url(#clip170)" d="M2055.86 711.79 L2060.54 711.79 L2060.54 742.415 L2077.37 742.415 L2077.37 746.35 L2055.86 746.35 L2055.86 711.79 Z" fill="#000000" fill-rule="evenodd" fill-opacity="1" /><path clip-path="url(#clip170)" d="M2082.09 720.425 L2086.35 720.425 L2086.35 746.35 L2082.09 746.35 L2082.09 720.425 M2082.09 710.332 L2086.35 710.332 L2086.35 715.726 L2082.09 715.726 L2082.09 710.332 Z" fill="#000000" fill-rule="evenodd" fill-opacity="1" /><path clip-path="url(#clip170)" d="M2116.81 730.702 L2116.81 746.35 L2112.55 746.35 L2112.55 730.841 Q2112.55 727.161 2111.12 725.332 Q2109.68 723.503 2106.81 723.503 Q2103.36 723.503 2101.37 725.702 Q2099.38 727.901 2099.38 731.698 L2099.38 746.35 L2095.1 746.35 L2095.1 720.425 L2099.38 720.425 L2099.38 724.452 Q2100.91 722.114 2102.97 720.957 Q2105.05 719.8 2107.76 719.8 Q2112.23 719.8 2114.52 722.577 Q2116.81 725.332 2116.81 730.702 Z" fill="#000000" fill-rule="evenodd" fill-opacity="1" /><path clip-path="url(#clip170)" d="M2147.48 732.323 L2147.48 734.406 L2127.9 734.406 Q2128.18 738.804 2130.54 741.119 Q2132.92 743.411 2137.16 743.411 Q2139.61 743.411 2141.9 742.809 Q2144.22 742.207 2146.49 741.003 L2146.49 745.031 Q2144.19 746.003 2141.79 746.512 Q2139.38 747.022 2136.9 747.022 Q2130.7 747.022 2127.07 743.411 Q2123.45 739.799 2123.45 733.642 Q2123.45 727.276 2126.88 723.55 Q2130.33 719.8 2136.16 719.8 Q2141.39 719.8 2144.43 723.179 Q2147.48 726.536 2147.48 732.323 M2143.22 731.073 Q2143.18 727.577 2141.26 725.494 Q2139.36 723.411 2136.21 723.411 Q2132.64 723.411 2130.49 725.425 Q2128.36 727.438 2128.04 731.096 L2143.22 731.073 Z" fill="#000000" fill-rule="evenodd" fill-opacity="1" /><path clip-path="url(#clip170)" d="M2166.25 733.318 Q2161.09 733.318 2159.1 734.499 Q2157.11 735.679 2157.11 738.526 Q2157.11 740.795 2158.59 742.137 Q2160.1 743.457 2162.67 743.457 Q2166.21 743.457 2168.34 740.957 Q2170.49 738.434 2170.49 734.267 L2170.49 733.318 L2166.25 733.318 M2174.75 731.559 L2174.75 746.35 L2170.49 746.35 L2170.49 742.415 Q2169.03 744.776 2166.86 745.911 Q2164.68 747.022 2161.53 747.022 Q2157.55 747.022 2155.19 744.799 Q2152.85 742.554 2152.85 738.804 Q2152.85 734.429 2155.77 732.207 Q2158.71 729.985 2164.52 729.985 L2170.49 729.985 L2170.49 729.568 Q2170.49 726.628 2168.55 725.031 Q2166.63 723.411 2163.13 723.411 Q2160.91 723.411 2158.8 723.943 Q2156.69 724.475 2154.75 725.54 L2154.75 721.605 Q2157.09 720.702 2159.29 720.263 Q2161.49 719.8 2163.57 719.8 Q2169.19 719.8 2171.97 722.716 Q2174.75 725.633 2174.75 731.559 Z" fill="#000000" fill-rule="evenodd" fill-opacity="1" /><path clip-path="url(#clip170)" d="M2198.55 724.406 Q2197.83 723.989 2196.97 723.804 Q2196.14 723.596 2195.12 723.596 Q2191.51 723.596 2189.56 725.957 Q2187.64 728.295 2187.64 732.693 L2187.64 746.35 L2183.36 746.35 L2183.36 720.425 L2187.64 720.425 L2187.64 724.452 Q2188.99 722.091 2191.14 720.957 Q2193.29 719.8 2196.37 719.8 Q2196.81 719.8 2197.34 719.869 Q2197.88 719.915 2198.52 720.031 L2198.55 724.406 Z" fill="#000000" fill-rule="evenodd" fill-opacity="1" /><path clip-path="url(#clip170)" d="M2214.75 716.397 L2208.41 733.596 L2221.12 733.596 L2214.75 716.397 M2212.11 711.79 L2217.41 711.79 L2230.58 746.35 L2225.72 746.35 L2222.57 737.485 L2207 737.485 L2203.85 746.35 L2198.92 746.35 L2212.11 711.79 Z" fill="#000000" fill-rule="evenodd" fill-opacity="1" /><path clip-path="url(#clip170)" d="M2235.44 710.332 L2239.7 710.332 L2239.7 746.35 L2235.44 746.35 L2235.44 710.332 Z" fill="#000000" fill-rule="evenodd" fill-opacity="1" /><path clip-path="url(#clip170)" d="M2265.68 733.087 Q2265.68 728.457 2263.75 725.911 Q2261.86 723.364 2258.41 723.364 Q2254.98 723.364 2253.06 725.911 Q2251.16 728.457 2251.16 733.087 Q2251.16 737.693 2253.06 740.239 Q2254.98 742.786 2258.41 742.786 Q2261.86 742.786 2263.75 740.239 Q2265.68 737.693 2265.68 733.087 M2269.93 743.133 Q2269.93 749.753 2267 752.971 Q2264.06 756.211 2257.99 756.211 Q2255.75 756.211 2253.75 755.864 Q2251.76 755.54 2249.89 754.846 L2249.89 750.702 Q2251.76 751.721 2253.59 752.207 Q2255.42 752.693 2257.32 752.693 Q2261.51 752.693 2263.59 750.494 Q2265.68 748.318 2265.68 743.897 L2265.68 741.79 Q2264.36 744.082 2262.3 745.216 Q2260.24 746.35 2257.37 746.35 Q2252.6 746.35 2249.68 742.716 Q2246.76 739.082 2246.76 733.087 Q2246.76 727.068 2249.68 723.434 Q2252.6 719.8 2257.37 719.8 Q2260.24 719.8 2262.3 720.934 Q2264.36 722.068 2265.68 724.36 L2265.68 720.425 L2269.93 720.425 L2269.93 743.133 Z" fill="#000000" fill-rule="evenodd" fill-opacity="1" /><polyline clip-path="url(#clip170)" style="stroke:#c68125; stroke-linecap:butt; stroke-linejoin:round; stroke-width:4; stroke-opacity:1; fill:none" points="
  1761.44,780.91 1901.5,780.91 
  "/>
<circle clip-path="url(#clip170)" cx="1831.47" cy="780.91" r="23.04" fill="#c68125" fill-rule="evenodd" fill-opacity="1" stroke="#000000" stroke-opacity="1" stroke-width="4.096"/>
<path clip-path="url(#clip170)" d="M1931.95 763.63 L1936.63 763.63 L1936.63 795.783 Q1936.63 802.033 1934.24 804.857 Q1931.88 807.681 1926.63 807.681 L1924.84 807.681 L1924.84 803.746 L1926.3 803.746 Q1929.4 803.746 1930.68 802.01 Q1931.95 800.274 1931.95 795.783 L1931.95 763.63 Z" fill="#000000" fill-rule="evenodd" fill-opacity="1" /><path clip-path="url(#clip170)" d="M1941.9 783.306 L1954.38 783.306 L1954.38 787.102 L1941.9 787.102 L1941.9 783.306 Z" fill="#000000" fill-rule="evenodd" fill-opacity="1" /><path clip-path="url(#clip170)" d="M1966.02 767.473 L1966.02 780.459 L1971.9 780.459 Q1975.17 780.459 1976.95 778.769 Q1978.73 777.079 1978.73 773.954 Q1978.73 770.853 1976.95 769.163 Q1975.17 767.473 1971.9 767.473 L1966.02 767.473 M1961.35 763.63 L1971.9 763.63 Q1977.71 763.63 1980.68 766.269 Q1983.66 768.885 1983.66 773.954 Q1983.66 779.07 1980.68 781.686 Q1977.71 784.302 1971.9 784.302 L1966.02 784.302 L1966.02 798.19 L1961.35 798.19 L1961.35 763.63 Z" fill="#000000" fill-rule="evenodd" fill-opacity="1" /><path clip-path="url(#clip170)" d="M1989.94 763.63 L2011.79 763.63 L2011.79 767.566 L1994.61 767.566 L1994.61 777.797 L2011.07 777.797 L2011.07 781.732 L1994.61 781.732 L1994.61 794.255 L2012.2 794.255 L2012.2 798.19 L1989.94 798.19 L1989.94 763.63 Z" fill="#000000" fill-rule="evenodd" fill-opacity="1" /><path clip-path="url(#clip170)" d="M2045.77 766.292 L2045.77 771.223 Q2043.41 769.024 2040.72 767.936 Q2038.06 766.848 2035.05 766.848 Q2029.13 766.848 2025.98 770.482 Q2022.83 774.093 2022.83 780.945 Q2022.83 787.774 2025.98 791.408 Q2029.13 795.019 2035.05 795.019 Q2038.06 795.019 2040.72 793.931 Q2043.41 792.843 2045.77 790.644 L2045.77 795.528 Q2043.32 797.195 2040.56 798.028 Q2037.83 798.862 2034.77 798.862 Q2026.93 798.862 2022.41 794.07 Q2017.9 789.255 2017.9 780.945 Q2017.9 772.612 2022.41 767.82 Q2026.93 763.005 2034.77 763.005 Q2037.88 763.005 2040.61 763.839 Q2043.36 764.649 2045.77 766.292 Z" fill="#000000" fill-rule="evenodd" fill-opacity="1" /><path clip-path="url(#clip170)" d="M2052.99 763.63 L2074.84 763.63 L2074.84 767.566 L2057.67 767.566 L2057.67 777.797 L2074.13 777.797 L2074.13 781.732 L2057.67 781.732 L2057.67 794.255 L2075.26 794.255 L2075.26 798.19 L2052.99 798.19 L2052.99 763.63 Z" fill="#000000" fill-rule="evenodd" fill-opacity="1" /><polyline clip-path="url(#clip170)" style="stroke:#00a98d; stroke-linecap:butt; stroke-linejoin:round; stroke-width:4; stroke-opacity:1; fill:none" points="
  1761.44,832.75 1901.5,832.75 
  "/>
<path clip-path="url(#clip170)" d="M1831.47 858.35 L1809.3 845.55 L1809.3 819.95 L1831.47 807.15 L1853.64 819.95 L1853.64 845.55 Z" fill="#00a98d" fill-rule="evenodd" fill-opacity="1" stroke="#000000" stroke-opacity="1" stroke-width="4.096"/>
<path clip-path="url(#clip170)" d="M1931.95 815.47 L1936.63 815.47 L1936.63 847.623 Q1936.63 853.873 1934.24 856.697 Q1931.88 859.521 1926.63 859.521 L1924.84 859.521 L1924.84 855.586 L1926.3 855.586 Q1929.4 855.586 1930.68 853.85 Q1931.95 852.114 1931.95 847.623 L1931.95 815.47 Z" fill="#000000" fill-rule="evenodd" fill-opacity="1" /><path clip-path="url(#clip170)" d="M1941.9 835.146 L1954.38 835.146 L1954.38 838.942 L1941.9 838.942 L1941.9 835.146 Z" fill="#000000" fill-rule="evenodd" fill-opacity="1" /><path clip-path="url(#clip170)" d="M1966.02 819.313 L1966.02 832.299 L1971.9 832.299 Q1975.17 832.299 1976.95 830.609 Q1978.73 828.919 1978.73 825.794 Q1978.73 822.693 1976.95 821.003 Q1975.17 819.313 1971.9 819.313 L1966.02 819.313 M1961.35 815.47 L1971.9 815.47 Q1977.71 815.47 1980.68 818.109 Q1983.66 820.725 1983.66 825.794 Q1983.66 830.91 1980.68 833.526 Q1977.71 836.142 1971.9 836.142 L1966.02 836.142 L1966.02 850.03 L1961.35 850.03 L1961.35 815.47 Z" fill="#000000" fill-rule="evenodd" fill-opacity="1" /><path clip-path="url(#clip170)" d="M1989.94 815.47 L1994.61 815.47 L1994.61 850.03 L1989.94 850.03 L1989.94 815.47 Z" fill="#000000" fill-rule="evenodd" fill-opacity="1" /><path clip-path="url(#clip170)" d="M2001.58 835.146 L2014.06 835.146 L2014.06 838.942 L2001.58 838.942 L2001.58 835.146 Z" fill="#000000" fill-rule="evenodd" fill-opacity="1" /><path clip-path="url(#clip170)" d="M2021.02 815.47 L2042.88 815.47 L2042.88 819.406 L2025.7 819.406 L2025.7 829.637 L2042.16 829.637 L2042.16 833.572 L2025.7 833.572 L2025.7 846.095 L2043.29 846.095 L2043.29 850.03 L2021.02 850.03 L2021.02 815.47 Z" fill="#000000" fill-rule="evenodd" fill-opacity="1" /><path clip-path="url(#clip170)" d="M2049.31 815.47 L2054.33 815.47 L2062.92 828.318 L2071.56 815.47 L2076.58 815.47 L2065.47 832.068 L2077.32 850.03 L2072.3 850.03 L2062.57 835.331 L2052.78 850.03 L2047.74 850.03 L2060.07 831.581 L2049.31 815.47 Z" fill="#000000" fill-rule="evenodd" fill-opacity="1" /><polyline clip-path="url(#clip170)" style="stroke:#8e971d; stroke-linecap:butt; stroke-linejoin:round; stroke-width:4; stroke-opacity:1; fill:none" points="
  1761.44,884.59 1901.5,884.59 
  "/>
<path clip-path="url(#clip170)" d="M1831.47 858.99 L1805.87 910.19 L1857.07 910.19 L1831.47 858.99 Z" fill="#8e971d" fill-rule="evenodd" fill-opacity="1" stroke="#000000" stroke-opacity="1" stroke-width="4.096"/>
<path clip-path="url(#clip170)" d="M1931.95 867.31 L1936.63 867.31 L1936.63 899.463 Q1936.63 905.713 1934.24 908.537 Q1931.88 911.361 1926.63 911.361 L1924.84 911.361 L1924.84 907.426 L1926.3 907.426 Q1929.4 907.426 1930.68 905.69 Q1931.95 903.954 1931.95 899.463 L1931.95 867.31 Z" fill="#000000" fill-rule="evenodd" fill-opacity="1" /><path clip-path="url(#clip170)" d="M1941.9 886.986 L1954.38 886.986 L1954.38 890.782 L1941.9 890.782 L1941.9 886.986 Z" fill="#000000" fill-rule="evenodd" fill-opacity="1" /><path clip-path="url(#clip170)" d="M1961.35 867.31 L1981.21 867.31 L1981.21 871.246 L1966.02 871.246 L1966.02 881.431 L1979.73 881.431 L1979.73 885.366 L1966.02 885.366 L1966.02 901.87 L1961.35 901.87 L1961.35 867.31 Z" fill="#000000" fill-rule="evenodd" fill-opacity="1" /><path clip-path="url(#clip170)" d="M1988.62 867.31 L1993.29 867.31 L1993.29 897.935 L2010.12 897.935 L2010.12 901.87 L1988.62 901.87 L1988.62 867.31 Z" fill="#000000" fill-rule="evenodd" fill-opacity="1" /><path clip-path="url(#clip170)" d="M2015.03 867.31 L2022 867.31 L2030.82 890.829 L2039.68 867.31 L2046.65 867.31 L2046.65 901.87 L2042.09 901.87 L2042.09 871.523 L2033.18 895.227 L2028.48 895.227 L2019.57 871.523 L2019.57 901.87 L2015.03 901.87 L2015.03 867.31 Z" fill="#000000" fill-rule="evenodd" fill-opacity="1" /><path clip-path="url(#clip170)" d="M2055.93 867.31 L2062.9 867.31 L2071.72 890.829 L2080.58 867.31 L2087.55 867.31 L2087.55 901.87 L2082.99 901.87 L2082.99 871.523 L2074.08 895.227 L2069.38 895.227 L2060.47 871.523 L2060.47 901.87 L2055.93 901.87 L2055.93 867.31 Z" fill="#000000" fill-rule="evenodd" fill-opacity="1" /><path clip-path="url(#clip170)" d="M2101.51 885.366 L2101.51 898.028 L2109.01 898.028 Q2112.78 898.028 2114.59 896.477 Q2116.42 894.903 2116.42 891.685 Q2116.42 888.445 2114.59 886.917 Q2112.78 885.366 2109.01 885.366 L2101.51 885.366 M2101.51 871.153 L2101.51 881.57 L2108.43 881.57 Q2111.86 881.57 2113.52 880.296 Q2115.21 879 2115.21 876.361 Q2115.21 873.746 2113.52 872.449 Q2111.86 871.153 2108.43 871.153 L2101.51 871.153 M2096.83 867.31 L2108.78 867.31 Q2114.13 867.31 2117.02 869.533 Q2119.91 871.755 2119.91 875.852 Q2119.91 879.023 2118.43 880.898 Q2116.95 882.773 2114.08 883.236 Q2117.53 883.977 2119.43 886.338 Q2121.35 888.676 2121.35 892.194 Q2121.35 896.824 2118.2 899.347 Q2115.05 901.87 2109.24 901.87 L2096.83 901.87 L2096.83 867.31 Z" fill="#000000" fill-rule="evenodd" fill-opacity="1" /><path clip-path="url(#clip170)" d="M2134.03 871.153 L2134.03 898.028 L2139.68 898.028 Q2146.83 898.028 2150.14 894.787 Q2153.48 891.546 2153.48 884.556 Q2153.48 877.611 2150.14 874.394 Q2146.83 871.153 2139.68 871.153 L2134.03 871.153 M2129.36 867.31 L2138.96 867.31 Q2149.01 867.31 2153.71 871.5 Q2158.41 875.667 2158.41 884.556 Q2158.41 893.491 2153.69 897.681 Q2148.96 901.87 2138.96 901.87 L2129.36 901.87 L2129.36 867.31 Z" fill="#000000" fill-rule="evenodd" fill-opacity="1" /><path clip-path="url(#clip170)" d="M2165.86 867.31 L2185.72 867.31 L2185.72 871.246 L2170.54 871.246 L2170.54 881.431 L2184.24 881.431 L2184.24 885.366 L2170.54 885.366 L2170.54 901.87 L2165.86 901.87 L2165.86 867.31 Z" fill="#000000" fill-rule="evenodd" fill-opacity="1" /><polyline clip-path="url(#clip170)" style="stroke:#00a8cb; stroke-linecap:butt; stroke-linejoin:round; stroke-width:4; stroke-opacity:1; fill:none" points="
  1761.44,936.43 1901.5,936.43 
  "/>
<path clip-path="url(#clip170)" d="M1857.07 910.83 L1805.87 910.83 L1831.47 962.03 L1857.07 910.83 Z" fill="#00a8cb" fill-rule="evenodd" fill-opacity="1" stroke="#000000" stroke-opacity="1" stroke-width="4.096"/>
<path clip-path="url(#clip170)" d="M1931.95 919.15 L1936.63 919.15 L1936.63 951.303 Q1936.63 957.553 1934.24 960.377 Q1931.88 963.201 1926.63 963.201 L1924.84 963.201 L1924.84 959.266 L1926.3 959.266 Q1929.4 959.266 1930.68 957.53 Q1931.95 955.794 1931.95 951.303 L1931.95 919.15 Z" fill="#000000" fill-rule="evenodd" fill-opacity="1" /><path clip-path="url(#clip170)" d="M1941.9 938.826 L1954.38 938.826 L1954.38 942.622 L1941.9 942.622 L1941.9 938.826 Z" fill="#000000" fill-rule="evenodd" fill-opacity="1" /><path clip-path="url(#clip170)" d="M1961.35 919.15 L1981.21 919.15 L1981.21 923.086 L1966.02 923.086 L1966.02 933.271 L1979.73 933.271 L1979.73 937.206 L1966.02 937.206 L1966.02 953.71 L1961.35 953.71 L1961.35 919.15 Z" fill="#000000" fill-rule="evenodd" fill-opacity="1" /><path clip-path="url(#clip170)" d="M1988.62 919.15 L1993.29 919.15 L1993.29 949.775 L2010.12 949.775 L2010.12 953.71 L1988.62 953.71 L1988.62 919.15 Z" fill="#000000" fill-rule="evenodd" fill-opacity="1" /><path clip-path="url(#clip170)" d="M2015.03 919.15 L2022 919.15 L2030.82 942.669 L2039.68 919.15 L2046.65 919.15 L2046.65 953.71 L2042.09 953.71 L2042.09 923.363 L2033.18 947.067 L2028.48 947.067 L2019.57 923.363 L2019.57 953.71 L2015.03 953.71 L2015.03 919.15 Z" fill="#000000" fill-rule="evenodd" fill-opacity="1" /><path clip-path="url(#clip170)" d="M2055.93 919.15 L2062.9 919.15 L2071.72 942.669 L2080.58 919.15 L2087.55 919.15 L2087.55 953.71 L2082.99 953.71 L2082.99 923.363 L2074.08 947.067 L2069.38 947.067 L2060.47 923.363 L2060.47 953.71 L2055.93 953.71 L2055.93 919.15 Z" fill="#000000" fill-rule="evenodd" fill-opacity="1" /><path clip-path="url(#clip170)" d="M2096.83 919.15 L2103.13 919.15 L2118.45 948.062 L2118.45 919.15 L2122.99 919.15 L2122.99 953.71 L2116.69 953.71 L2101.37 924.798 L2101.37 953.71 L2096.83 953.71 L2096.83 919.15 Z" fill="#000000" fill-rule="evenodd" fill-opacity="1" /><path clip-path="url(#clip170)" d="M2154.29 939.683 L2154.29 941.766 L2134.7 941.766 Q2134.98 946.164 2137.34 948.479 Q2139.73 950.771 2143.96 950.771 Q2146.42 950.771 2148.71 950.169 Q2151.02 949.567 2153.29 948.363 L2153.29 952.391 Q2151 953.363 2148.59 953.872 Q2146.19 954.382 2143.71 954.382 Q2137.51 954.382 2133.87 950.771 Q2130.26 947.159 2130.26 941.002 Q2130.26 934.636 2133.69 930.91 Q2137.13 927.16 2142.97 927.16 Q2148.2 927.16 2151.23 930.539 Q2154.29 933.896 2154.29 939.683 M2150.03 938.433 Q2149.98 934.937 2148.06 932.854 Q2146.16 930.771 2143.01 930.771 Q2139.45 930.771 2137.3 932.785 Q2135.17 934.798 2134.84 938.456 L2150.03 938.433 Z" fill="#000000" fill-rule="evenodd" fill-opacity="1" /><path clip-path="url(#clip170)" d="M2158.8 927.785 L2163.06 927.785 L2168.38 948.016 L2173.69 927.785 L2178.71 927.785 L2184.03 948.016 L2189.33 927.785 L2193.59 927.785 L2186.81 953.71 L2181.79 953.71 L2176.21 932.46 L2170.61 953.71 L2165.58 953.71 L2158.8 927.785 Z" fill="#000000" fill-rule="evenodd" fill-opacity="1" /><path clip-path="url(#clip170)" d="M2204.26 920.424 L2204.26 927.785 L2213.04 927.785 L2213.04 931.095 L2204.26 931.095 L2204.26 945.169 Q2204.26 948.34 2205.12 949.243 Q2206 950.146 2208.66 950.146 L2213.04 950.146 L2213.04 953.71 L2208.66 953.71 Q2203.73 953.71 2201.86 951.882 Q2199.98 950.03 2199.98 945.169 L2199.98 931.095 L2196.86 931.095 L2196.86 927.785 L2199.98 927.785 L2199.98 920.424 L2204.26 920.424 Z" fill="#000000" fill-rule="evenodd" fill-opacity="1" /><path clip-path="url(#clip170)" d="M2228.69 930.771 Q2225.26 930.771 2223.27 933.456 Q2221.28 936.118 2221.28 940.771 Q2221.28 945.423 2223.25 948.109 Q2225.24 950.771 2228.69 950.771 Q2232.09 950.771 2234.08 948.085 Q2236.07 945.4 2236.07 940.771 Q2236.07 936.164 2234.08 933.479 Q2232.09 930.771 2228.69 930.771 M2228.69 927.16 Q2234.24 927.16 2237.41 930.771 Q2240.58 934.382 2240.58 940.771 Q2240.58 947.136 2237.41 950.771 Q2234.24 954.382 2228.69 954.382 Q2223.11 954.382 2219.94 950.771 Q2216.79 947.136 2216.79 940.771 Q2216.79 934.382 2219.94 930.771 Q2223.11 927.16 2228.69 927.16 Z" fill="#000000" fill-rule="evenodd" fill-opacity="1" /><path clip-path="url(#clip170)" d="M2269.19 938.062 L2269.19 953.71 L2264.93 953.71 L2264.93 938.201 Q2264.93 934.521 2263.5 932.692 Q2262.06 930.863 2259.19 930.863 Q2255.75 930.863 2253.75 933.062 Q2251.76 935.261 2251.76 939.058 L2251.76 953.71 L2247.48 953.71 L2247.48 927.785 L2251.76 927.785 L2251.76 931.812 Q2253.29 929.474 2255.35 928.317 Q2257.43 927.16 2260.14 927.16 Q2264.61 927.16 2266.9 929.937 Q2269.19 932.692 2269.19 938.062 Z" fill="#000000" fill-rule="evenodd" fill-opacity="1" /><path clip-path="url(#clip170)" d="M2301.44 948.78 L2301.44 939.497 L2293.8 939.497 L2293.8 935.655 L2306.07 935.655 L2306.07 950.493 Q2303.36 952.414 2300.1 953.409 Q2296.83 954.382 2293.13 954.382 Q2285.03 954.382 2280.44 949.659 Q2275.88 944.914 2275.88 936.465 Q2275.88 927.993 2280.44 923.271 Q2285.03 918.525 2293.13 918.525 Q2296.51 918.525 2299.54 919.359 Q2302.6 920.192 2305.17 921.812 L2305.17 926.789 Q2302.57 924.59 2299.66 923.479 Q2296.74 922.368 2293.52 922.368 Q2287.18 922.368 2283.99 925.91 Q2280.81 929.451 2280.81 936.465 Q2280.81 943.456 2283.99 946.997 Q2287.18 950.539 2293.52 950.539 Q2296 950.539 2297.94 950.122 Q2299.89 949.683 2301.44 948.78 Z" fill="#000000" fill-rule="evenodd" fill-opacity="1" /><polyline clip-path="url(#clip170)" style="stroke:#9b7fe8; stroke-linecap:butt; stroke-linejoin:round; stroke-width:4; stroke-opacity:1; fill:none" points="
  1761.44,988.27 1901.5,988.27 
  "/>
<path clip-path="url(#clip170)" d="M1831.47 962.67 L1807.12 980.36 L1816.42 1008.98 L1846.52 1008.98 L1855.82 980.36 Z" fill="#9b7fe8" fill-rule="evenodd" fill-opacity="1" stroke="#000000" stroke-opacity="1" stroke-width="4.096"/>
<path clip-path="url(#clip170)" d="M1931.95 970.99 L1936.63 970.99 L1936.63 1003.14 Q1936.63 1009.39 1934.24 1012.22 Q1931.88 1015.04 1926.63 1015.04 L1924.84 1015.04 L1924.84 1011.11 L1926.3 1011.11 Q1929.4 1011.11 1930.68 1009.37 Q1931.95 1007.63 1931.95 1003.14 L1931.95 970.99 Z" fill="#000000" fill-rule="evenodd" fill-opacity="1" /><path clip-path="url(#clip170)" d="M1941.9 990.666 L1954.38 990.666 L1954.38 994.462 L1941.9 994.462 L1941.9 990.666 Z" fill="#000000" fill-rule="evenodd" fill-opacity="1" /><path clip-path="url(#clip170)" d="M1961.35 970.99 L1981.21 970.99 L1981.21 974.926 L1966.02 974.926 L1966.02 985.111 L1979.73 985.111 L1979.73 989.046 L1966.02 989.046 L1966.02 1005.55 L1961.35 1005.55 L1961.35 970.99 Z" fill="#000000" fill-rule="evenodd" fill-opacity="1" /><path clip-path="url(#clip170)" d="M1988.62 970.99 L1993.29 970.99 L1993.29 1001.62 L2010.12 1001.62 L2010.12 1005.55 L1988.62 1005.55 L1988.62 970.99 Z" fill="#000000" fill-rule="evenodd" fill-opacity="1" /><path clip-path="url(#clip170)" d="M2015.03 970.99 L2022 970.99 L2030.82 994.509 L2039.68 970.99 L2046.65 970.99 L2046.65 1005.55 L2042.09 1005.55 L2042.09 975.203 L2033.18 998.907 L2028.48 998.907 L2019.57 975.203 L2019.57 1005.55 L2015.03 1005.55 L2015.03 970.99 Z" fill="#000000" fill-rule="evenodd" fill-opacity="1" /><path clip-path="url(#clip170)" d="M2055.93 970.99 L2062.9 970.99 L2071.72 994.509 L2080.58 970.99 L2087.55 970.99 L2087.55 1005.55 L2082.99 1005.55 L2082.99 975.203 L2074.08 998.907 L2069.38 998.907 L2060.47 975.203 L2060.47 1005.55 L2055.93 1005.55 L2055.93 970.99 Z" fill="#000000" fill-rule="evenodd" fill-opacity="1" /><path clip-path="url(#clip170)" d="M2092.04 970.99 L2121.28 970.99 L2121.28 974.926 L2109.01 974.926 L2109.01 1005.55 L2104.31 1005.55 L2104.31 974.926 L2092.04 974.926 L2092.04 970.99 Z" fill="#000000" fill-rule="evenodd" fill-opacity="1" /><path clip-path="url(#clip170)" d="M2133.66 983.606 Q2132.94 983.189 2132.09 983.004 Q2131.26 982.796 2130.24 982.796 Q2126.63 982.796 2124.68 985.157 Q2122.76 987.495 2122.76 991.893 L2122.76 1005.55 L2118.48 1005.55 L2118.48 979.625 L2122.76 979.625 L2122.76 983.652 Q2124.1 981.291 2126.26 980.157 Q2128.41 979 2131.49 979 Q2131.93 979 2132.46 979.069 Q2132.99 979.115 2133.64 979.231 L2133.66 983.606 Z" fill="#000000" fill-rule="evenodd" fill-opacity="1" /><path clip-path="url(#clip170)" d="M2149.91 992.518 Q2144.75 992.518 2142.76 993.699 Q2140.77 994.879 2140.77 997.726 Q2140.77 999.995 2142.25 1001.34 Q2143.75 1002.66 2146.32 1002.66 Q2149.87 1002.66 2152 1000.16 Q2154.15 997.634 2154.15 993.467 L2154.15 992.518 L2149.91 992.518 M2158.41 990.759 L2158.41 1005.55 L2154.15 1005.55 L2154.15 1001.62 Q2152.69 1003.98 2150.51 1005.11 Q2148.34 1006.22 2145.19 1006.22 Q2141.21 1006.22 2138.85 1004 Q2136.51 1001.75 2136.51 998.004 Q2136.51 993.629 2139.43 991.407 Q2142.37 989.185 2148.18 989.185 L2154.15 989.185 L2154.15 988.768 Q2154.15 985.828 2152.2 984.231 Q2150.28 982.611 2146.79 982.611 Q2144.57 982.611 2142.46 983.143 Q2140.35 983.675 2138.41 984.74 L2138.41 980.805 Q2140.75 979.902 2142.94 979.463 Q2145.14 979 2147.23 979 Q2152.85 979 2155.63 981.916 Q2158.41 984.833 2158.41 990.759 Z" fill="#000000" fill-rule="evenodd" fill-opacity="1" /><path clip-path="url(#clip170)" d="M2171.3 1001.66 L2171.3 1015.41 L2167.02 1015.41 L2167.02 979.625 L2171.3 979.625 L2171.3 983.56 Q2172.64 981.245 2174.68 980.134 Q2176.74 979 2179.59 979 Q2184.31 979 2187.25 982.75 Q2190.21 986.5 2190.21 992.611 Q2190.21 998.722 2187.25 1002.47 Q2184.31 1006.22 2179.59 1006.22 Q2176.74 1006.22 2174.68 1005.11 Q2172.64 1003.98 2171.3 1001.66 M2185.79 992.611 Q2185.79 987.912 2183.85 985.25 Q2181.93 982.564 2178.55 982.564 Q2175.17 982.564 2173.22 985.25 Q2171.3 987.912 2171.3 992.611 Q2171.3 997.31 2173.22 999.995 Q2175.17 1002.66 2178.55 1002.66 Q2181.93 1002.66 2183.85 999.995 Q2185.79 997.31 2185.79 992.611 Z" fill="#000000" fill-rule="evenodd" fill-opacity="1" /></svg>
