<?xml version="1.0" encoding="utf-8"?>
<svg xmlns="http://www.w3.org/2000/svg" xmlns:xlink="http://www.w3.org/1999/xlink" width="600" height="400" viewBox="0 0 2400 1600">
<defs>
  <clipPath id="clip340">
    <rect x="0" y="0" width="2400" height="1600"/>
  </clipPath>
</defs>
<path clip-path="url(#clip340)" d="
M0 1600 L2400 1600 L2400 0 L0 0  Z
  " fill="#ffffff" fill-rule="evenodd" fill-opacity="1"/>
<defs>
  <clipPath id="clip341">
    <rect x="480" y="0" width="1681" height="1600"/>
  </clipPath>
</defs>
<path clip-path="url(#clip340)" d="
M251.372 1410.9 L2352.76 1410.9 L2352.76 47.2441 L251.372 47.2441  Z
  " fill="#ffffff" fill-rule="evenodd" fill-opacity="1"/>
<defs>
  <clipPath id="clip342">
    <rect x="251" y="47" width="2102" height="1365"/>
  </clipPath>
</defs>
<polyline clip-path="url(#clip342)" style="stroke:#000000; stroke-linecap:butt; stroke-linejoin:round; stroke-width:2; stroke-opacity:0.1; fill:none" points="
  708.256,1410.9 708.256,47.2441 
  "/>
<polyline clip-path="url(#clip342)" style="stroke:#000000; stroke-linecap:butt; stroke-linejoin:round; stroke-width:2; stroke-opacity:0.1; fill:none" points="
  1832.11,1410.9 1832.11,47.2441 
  "/>
<polyline clip-path="url(#clip340)" style="stroke:#000000; stroke-linecap:butt; stroke-linejoin:round; stroke-width:4; stroke-opacity:1; fill:none" points="
  251.372,1410.9 2352.76,1410.9 
  "/>
<polyline clip-path="url(#clip340)" style="stroke:#000000; stroke-linecap:butt; stroke-linejoin:round; stroke-width:4; stroke-opacity:1; fill:none" points="
  251.372,47.2441 2352.76,47.2441 
  "/>
<polyline clip-path="url(#clip340)" style="stroke:#000000; stroke-linecap:butt; stroke-linejoin:round; stroke-width:4; stroke-opacity:1; fill:none" points="
  708.256,1410.9 708.256,1392 
  "/>
<polyline clip-path="url(#clip340)" style="stroke:#000000; stroke-linecap:butt; stroke-linejoin:round; stroke-width:4; stroke-opacity:1; fill:none" points="
  1832.11,1410.9 1832.11,1392 
  "/>
<path clip-path="url(#clip340)" d="M658.136 1485.02 L665.775 1485.02 L665.775 1458.66 L657.464 1460.32 L657.464 1456.06 L665.728 1454.4 L670.404 1454.4 L670.404 1485.02 L678.043 1485.02 L678.043 1488.96 L658.136 1488.96 L658.136 1485.02 Z" fill="#000000" fill-rule="evenodd" fill-opacity="1" /><path clip-path="url(#clip340)" d="M697.487 1457.48 Q693.876 1457.48 692.048 1461.04 Q690.242 1464.58 690.242 1471.71 Q690.242 1478.82 692.048 1482.38 Q693.876 1485.92 697.487 1485.92 Q701.122 1485.92 702.927 1482.38 Q704.756 1478.82 704.756 1471.71 Q704.756 1464.58 702.927 1461.04 Q701.122 1457.48 697.487 1457.48 M697.487 1453.77 Q703.298 1453.77 706.353 1458.38 Q709.432 1462.96 709.432 1471.71 Q709.432 1480.44 706.353 1485.04 Q703.298 1489.63 697.487 1489.63 Q691.677 1489.63 688.599 1485.04 Q685.543 1480.44 685.543 1471.71 Q685.543 1462.96 688.599 1458.38 Q691.677 1453.77 697.487 1453.77 Z" fill="#000000" fill-rule="evenodd" fill-opacity="1" /><path clip-path="url(#clip340)" d="M709.432 1447.87 L733.543 1447.87 L733.543 1451.07 L709.432 1451.07 L709.432 1447.87 Z" fill="#000000" fill-rule="evenodd" fill-opacity="1" /><path clip-path="url(#clip340)" d="M753.254 1446.41 Q755.981 1446.99 757.504 1448.83 Q759.047 1450.68 759.047 1453.38 Q759.047 1457.54 756.188 1459.82 Q753.329 1462.09 748.063 1462.09 Q746.295 1462.09 744.414 1461.73 Q742.552 1461.4 740.559 1460.7 L740.559 1457.03 Q742.138 1457.95 744.019 1458.42 Q745.9 1458.89 747.95 1458.89 Q751.524 1458.89 753.385 1457.48 Q755.266 1456.07 755.266 1453.38 Q755.266 1450.9 753.517 1449.51 Q751.787 1448.1 748.684 1448.1 L745.411 1448.1 L745.411 1444.98 L748.834 1444.98 Q751.636 1444.98 753.122 1443.87 Q754.608 1442.74 754.608 1440.63 Q754.608 1438.47 753.066 1437.32 Q751.542 1436.16 748.684 1436.16 Q747.123 1436.16 745.336 1436.49 Q743.549 1436.83 741.405 1437.55 L741.405 1434.16 Q743.568 1433.56 745.449 1433.26 Q747.348 1432.96 749.022 1432.96 Q753.348 1432.96 755.868 1434.93 Q758.388 1436.89 758.388 1440.24 Q758.388 1442.57 757.053 1444.19 Q755.718 1445.79 753.254 1446.41 Z" fill="#000000" fill-rule="evenodd" fill-opacity="1" /><path clip-path="url(#clip340)" d="M1782.37 1485.02 L1790.01 1485.02 L1790.01 1458.66 L1781.7 1460.32 L1781.7 1456.06 L1789.97 1454.4 L1794.64 1454.4 L1794.64 1485.02 L1802.28 1485.02 L1802.28 1488.96 L1782.37 1488.96 L1782.37 1485.02 Z" fill="#000000" fill-rule="evenodd" fill-opacity="1" /><path clip-path="url(#clip340)" d="M1821.72 1457.48 Q1818.11 1457.48 1816.29 1461.04 Q1814.48 1464.58 1814.48 1471.71 Q1814.48 1478.82 1816.29 1482.38 Q1818.11 1485.92 1821.72 1485.92 Q1825.36 1485.92 1827.16 1482.38 Q1828.99 1478.82 1828.99 1471.71 Q1828.99 1464.58 1827.16 1461.04 Q1825.36 1457.48 1821.72 1457.48 M1821.72 1453.77 Q1827.54 1453.77 1830.59 1458.38 Q1833.67 1462.96 1833.67 1471.71 Q1833.67 1480.44 1830.59 1485.04 Q1827.54 1489.63 1821.72 1489.63 Q1815.91 1489.63 1812.84 1485.04 Q1809.78 1480.44 1809.78 1471.71 Q1809.78 1462.96 1812.84 1458.38 Q1815.91 1453.77 1821.72 1453.77 Z" fill="#000000" fill-rule="evenodd" fill-opacity="1" /><path clip-path="url(#clip340)" d="M1833.67 1447.87 L1857.78 1447.87 L1857.78 1451.07 L1833.67 1451.07 L1833.67 1447.87 Z" fill="#000000" fill-rule="evenodd" fill-opacity="1" /><path clip-path="url(#clip340)" d="M1869.25 1458.35 L1882.51 1458.35 L1882.51 1461.55 L1864.68 1461.55 L1864.68 1458.35 Q1866.85 1456.11 1870.57 1452.35 Q1874.31 1448.57 1875.27 1447.48 Q1877.1 1445.43 1877.81 1444.02 Q1878.54 1442.59 1878.54 1441.22 Q1878.54 1438.98 1876.96 1437.57 Q1875.4 1436.16 1872.88 1436.16 Q1871.1 1436.16 1869.1 1436.78 Q1867.13 1437.4 1864.87 1438.66 L1864.87 1434.82 Q1867.17 1433.9 1869.16 1433.43 Q1871.15 1432.96 1872.81 1432.96 Q1877.17 1432.96 1879.77 1435.14 Q1882.36 1437.32 1882.36 1440.97 Q1882.36 1442.7 1881.7 1444.26 Q1881.06 1445.8 1879.35 1447.91 Q1878.88 1448.46 1876.36 1451.07 Q1873.84 1453.67 1869.25 1458.35 Z" fill="#000000" fill-rule="evenodd" fill-opacity="1" /><path clip-path="url(#clip340)" d="M914.504 1526.67 L944.55 1526.67 L944.55 1532.08 L920.933 1532.08 L920.933 1546.14 L943.563 1546.14 L943.563 1551.56 L920.933 1551.56 L920.933 1568.77 L945.123 1568.77 L945.123 1574.19 L914.504 1574.19 L914.504 1526.67 Z" fill="#000000" fill-rule="evenodd" fill-opacity="1" /><path clip-path="url(#clip340)" d="M985.068 1538.54 L972.177 1555.88 L985.736 1574.19 L978.829 1574.19 L968.453 1560.18 L958.077 1574.19 L951.17 1574.19 L965.016 1555.53 L952.348 1538.54 L959.255 1538.54 L968.708 1551.24 L978.161 1538.54 L985.068 1538.54 Z" fill="#000000" fill-rule="evenodd" fill-opacity="1" /><path clip-path="url(#clip340)" d="M1022.5 1554.9 L1022.5 1557.76 L995.571 1557.76 Q995.953 1563.81 999.2 1566.99 Q1002.48 1570.14 1008.3 1570.14 Q1011.68 1570.14 1014.83 1569.32 Q1018.01 1568.49 1021.13 1566.83 L1021.13 1572.37 Q1017.98 1573.71 1014.67 1574.41 Q1011.36 1575.11 1007.95 1575.11 Q999.422 1575.11 994.425 1570.14 Q989.46 1565.18 989.46 1556.71 Q989.46 1547.96 994.171 1542.83 Q998.913 1537.68 1006.93 1537.68 Q1014.13 1537.68 1018.3 1542.33 Q1022.5 1546.94 1022.5 1554.9 M1016.64 1553.18 Q1016.58 1548.37 1013.94 1545.51 Q1011.33 1542.64 1007 1542.64 Q1002.1 1542.64 999.136 1545.41 Q996.208 1548.18 995.762 1553.21 L1016.64 1553.18 Z" fill="#000000" fill-rule="evenodd" fill-opacity="1" /><path clip-path="url(#clip340)" d="M1057.76 1539.91 L1057.76 1545.38 Q1055.28 1544.01 1052.77 1543.34 Q1050.28 1542.64 1047.74 1542.64 Q1042.04 1542.64 1038.89 1546.27 Q1035.74 1549.87 1035.74 1556.39 Q1035.74 1562.92 1038.89 1566.55 Q1042.04 1570.14 1047.74 1570.14 Q1050.28 1570.14 1052.77 1569.47 Q1055.28 1568.77 1057.76 1567.41 L1057.76 1572.82 Q1055.31 1573.96 1052.67 1574.54 Q1050.06 1575.11 1047.1 1575.11 Q1039.05 1575.11 1034.31 1570.05 Q1029.56 1564.99 1029.56 1556.39 Q1029.56 1547.67 1034.34 1542.68 Q1039.14 1537.68 1047.48 1537.68 Q1050.19 1537.68 1052.77 1538.25 Q1055.35 1538.79 1057.76 1539.91 Z" fill="#000000" fill-rule="evenodd" fill-opacity="1" /><path clip-path="url(#clip340)" d="M1067.34 1560.12 L1067.34 1538.54 L1073.2 1538.54 L1073.2 1559.89 Q1073.2 1564.96 1075.17 1567.5 Q1077.15 1570.02 1081.09 1570.02 Q1085.84 1570.02 1088.57 1566.99 Q1091.34 1563.97 1091.34 1558.75 L1091.34 1538.54 L1097.2 1538.54 L1097.2 1574.19 L1091.34 1574.19 L1091.34 1568.71 Q1089.21 1571.96 1086.38 1573.55 Q1083.58 1575.11 1079.85 1575.11 Q1073.71 1575.11 1070.53 1571.29 Q1067.34 1567.47 1067.34 1560.12 M1082.08 1537.68 L1082.08 1537.68 Z" fill="#000000" fill-rule="evenodd" fill-opacity="1" /><path clip-path="url(#clip340)" d="M1115.06 1528.42 L1115.06 1538.54 L1127.12 1538.54 L1127.12 1543.09 L1115.06 1543.09 L1115.06 1562.44 Q1115.06 1566.8 1116.23 1568.04 Q1117.44 1569.28 1121.1 1569.28 L1127.12 1569.28 L1127.12 1574.19 L1121.1 1574.19 Q1114.32 1574.19 1111.75 1571.67 Q1109.17 1569.12 1109.17 1562.44 L1109.17 1543.09 L1104.87 1543.09 L1104.87 1538.54 L1109.17 1538.54 L1109.17 1528.42 L1115.06 1528.42 Z" fill="#000000" fill-rule="evenodd" fill-opacity="1" /><path clip-path="url(#clip340)" d="M1134.82 1538.54 L1140.68 1538.54 L1140.68 1574.19 L1134.82 1574.19 L1134.82 1538.54 M1134.82 1524.66 L1140.68 1524.66 L1140.68 1532.08 L1134.82 1532.08 L1134.82 1524.66 Z" fill="#000000" fill-rule="evenodd" fill-opacity="1" /><path clip-path="url(#clip340)" d="M1166.75 1542.64 Q1162.03 1542.64 1159.3 1546.34 Q1156.56 1550 1156.56 1556.39 Q1156.56 1562.79 1159.27 1566.48 Q1162 1570.14 1166.75 1570.14 Q1171.42 1570.14 1174.16 1566.45 Q1176.9 1562.76 1176.9 1556.39 Q1176.9 1550.06 1174.16 1546.37 Q1171.42 1542.64 1166.75 1542.64 M1166.75 1537.68 Q1174.38 1537.68 1178.74 1542.64 Q1183.1 1547.61 1183.1 1556.39 Q1183.1 1565.15 1178.74 1570.14 Q1174.38 1575.11 1166.75 1575.11 Q1159.07 1575.11 1154.71 1570.14 Q1150.39 1565.15 1150.39 1556.39 Q1150.39 1547.61 1154.71 1542.64 Q1159.07 1537.68 1166.75 1537.68 Z" fill="#000000" fill-rule="evenodd" fill-opacity="1" /><path clip-path="url(#clip340)" d="M1222.44 1552.67 L1222.44 1574.19 L1216.59 1574.19 L1216.59 1552.86 Q1216.59 1547.8 1214.62 1545.29 Q1212.64 1542.77 1208.7 1542.77 Q1203.95 1542.77 1201.22 1545.79 Q1198.48 1548.82 1198.48 1554.04 L1198.48 1574.19 L1192.59 1574.19 L1192.59 1538.54 L1198.48 1538.54 L1198.48 1544.08 Q1200.58 1540.86 1203.41 1539.27 Q1206.28 1537.68 1210 1537.68 Q1216.14 1537.68 1219.29 1541.5 Q1222.44 1545.29 1222.44 1552.67 Z" fill="#000000" fill-rule="evenodd" fill-opacity="1" /><path clip-path="url(#clip340)" d="M1260.64 1528.42 L1260.64 1538.54 L1272.7 1538.54 L1272.7 1543.09 L1260.64 1543.09 L1260.64 1562.44 Q1260.64 1566.8 1261.82 1568.04 Q1263.03 1569.28 1266.69 1569.28 L1272.7 1569.28 L1272.7 1574.19 L1266.69 1574.19 Q1259.91 1574.19 1257.33 1571.67 Q1254.75 1569.12 1254.75 1562.44 L1254.75 1543.09 L1250.45 1543.09 L1250.45 1538.54 L1254.75 1538.54 L1254.75 1528.42 L1260.64 1528.42 Z" fill="#000000" fill-rule="evenodd" fill-opacity="1" /><path clip-path="url(#clip340)" d="M1280.4 1538.54 L1286.26 1538.54 L1286.26 1574.19 L1280.4 1574.19 L1280.4 1538.54 M1280.4 1524.66 L1286.26 1524.66 L1286.26 1532.08 L1280.4 1532.08 L1280.4 1524.66 Z" fill="#000000" fill-rule="evenodd" fill-opacity="1" /><path clip-path="url(#clip340)" d="M1326.27 1545.38 Q1328.47 1541.43 1331.52 1539.56 Q1334.58 1537.68 1338.71 1537.68 Q1344.28 1537.68 1347.31 1541.59 Q1350.33 1545.48 1350.33 1552.67 L1350.33 1574.19 L1344.44 1574.19 L1344.44 1552.86 Q1344.44 1547.74 1342.63 1545.25 Q1340.82 1542.77 1337.09 1542.77 Q1332.54 1542.77 1329.9 1545.79 Q1327.26 1548.82 1327.26 1554.04 L1327.26 1574.19 L1321.37 1574.19 L1321.37 1552.86 Q1321.37 1547.7 1319.55 1545.25 Q1317.74 1542.77 1313.95 1542.77 Q1309.46 1542.77 1306.82 1545.83 Q1304.18 1548.85 1304.18 1554.04 L1304.18 1574.19 L1298.29 1574.19 L1298.29 1538.54 L1304.18 1538.54 L1304.18 1544.08 Q1306.19 1540.8 1308.99 1539.24 Q1311.79 1537.68 1315.64 1537.68 Q1319.52 1537.68 1322.23 1539.65 Q1324.96 1541.62 1326.27 1545.38 Z" fill="#000000" fill-rule="evenodd" fill-opacity="1" /><path clip-path="url(#clip340)" d="M1392.5 1554.9 L1392.5 1557.76 L1365.58 1557.76 Q1365.96 1563.81 1369.21 1566.99 Q1372.48 1570.14 1378.31 1570.14 Q1381.68 1570.14 1384.83 1569.32 Q1388.02 1568.49 1391.14 1566.83 L1391.14 1572.37 Q1387.99 1573.71 1384.67 1574.41 Q1381.36 1575.11 1377.96 1575.11 Q1369.43 1575.11 1364.43 1570.14 Q1359.47 1565.18 1359.47 1556.71 Q1359.47 1547.96 1364.18 1542.83 Q1368.92 1537.68 1376.94 1537.68 Q1384.13 1537.68 1388.3 1542.33 Q1392.5 1546.94 1392.5 1554.9 M1386.65 1553.18 Q1386.58 1548.37 1383.94 1545.51 Q1381.33 1542.64 1377 1542.64 Q1372.1 1542.64 1369.14 1545.41 Q1366.21 1548.18 1365.77 1553.21 L1386.65 1553.18 Z" fill="#000000" fill-rule="evenodd" fill-opacity="1" /><path clip-path="url(#clip340)" d="M1436.91 1524.72 Q1432.64 1532.04 1430.57 1539.21 Q1428.5 1546.37 1428.5 1553.72 Q1428.5 1561.07 1430.57 1568.3 Q1432.67 1575.49 1436.91 1582.78 L1431.81 1582.78 Q1427.04 1575.3 1424.65 1568.07 Q1422.3 1560.85 1422.3 1553.72 Q1422.3 1546.62 1424.65 1539.43 Q1427.01 1532.24 1431.81 1524.72 L1436.91 1524.72 Z" fill="#000000" fill-rule="evenodd" fill-opacity="1" /><path clip-path="url(#clip340)" d="M1470.99 1539.59 L1470.99 1545.13 Q1468.51 1543.85 1465.84 1543.22 Q1463.16 1542.58 1460.3 1542.58 Q1455.94 1542.58 1453.74 1543.92 Q1451.58 1545.25 1451.58 1547.93 Q1451.58 1549.96 1453.14 1551.14 Q1454.7 1552.29 1459.41 1553.34 L1461.41 1553.78 Q1467.65 1555.12 1470.26 1557.57 Q1472.9 1559.99 1472.9 1564.35 Q1472.9 1569.32 1468.96 1572.21 Q1465.04 1575.11 1458.17 1575.11 Q1455.3 1575.11 1452.18 1574.54 Q1449.1 1573.99 1445.66 1572.88 L1445.66 1566.83 Q1448.9 1568.52 1452.06 1569.38 Q1455.21 1570.21 1458.29 1570.21 Q1462.43 1570.21 1464.66 1568.81 Q1466.89 1567.37 1466.89 1564.8 Q1466.89 1562.41 1465.26 1561.14 Q1463.67 1559.86 1458.23 1558.68 L1456.19 1558.21 Q1450.75 1557.06 1448.33 1554.71 Q1445.91 1552.32 1445.91 1548.18 Q1445.91 1543.15 1449.48 1540.42 Q1453.04 1537.68 1459.6 1537.68 Q1462.85 1537.68 1465.71 1538.16 Q1468.58 1538.63 1470.99 1539.59 Z" fill="#000000" fill-rule="evenodd" fill-opacity="1" /><path clip-path="url(#clip340)" d="M1507.88 1539.91 L1507.88 1545.38 Q1505.4 1544.01 1502.89 1543.34 Q1500.4 1542.64 1497.86 1542.64 Q1492.16 1542.64 1489.01 1546.27 Q1485.86 1549.87 1485.86 1556.39 Q1485.86 1562.92 1489.01 1566.55 Q1492.16 1570.14 1497.86 1570.14 Q1500.4 1570.14 1502.89 1569.47 Q1505.4 1568.77 1507.88 1567.41 L1507.88 1572.82 Q1505.43 1573.96 1502.79 1574.54 Q1500.18 1575.11 1497.22 1575.11 Q1489.17 1575.11 1484.43 1570.05 Q1479.68 1564.99 1479.68 1556.39 Q1479.68 1547.67 1484.46 1542.68 Q1489.26 1537.68 1497.6 1537.68 Q1500.31 1537.68 1502.89 1538.25 Q1505.46 1538.79 1507.88 1539.91 Z" fill="#000000" fill-rule="evenodd" fill-opacity="1" /><path clip-path="url(#clip340)" d="M1519.56 1566.1 L1526.28 1566.1 L1526.28 1571.58 L1521.06 1581.76 L1516.95 1581.76 L1519.56 1571.58 L1519.56 1566.1 Z" fill="#000000" fill-rule="evenodd" fill-opacity="1" /><path clip-path="url(#clip340)" d="M1559.76 1526.67 L1566.19 1526.67 L1566.19 1568.77 L1589.33 1568.77 L1589.33 1574.19 L1559.76 1574.19 L1559.76 1526.67 Z" fill="#000000" fill-rule="evenodd" fill-opacity="1" /><path clip-path="url(#clip340)" d="M1608.49 1542.64 Q1603.78 1542.64 1601.05 1546.34 Q1598.31 1550 1598.31 1556.39 Q1598.31 1562.79 1601.01 1566.48 Q1603.75 1570.14 1608.49 1570.14 Q1613.17 1570.14 1615.91 1566.45 Q1618.65 1562.76 1618.65 1556.39 Q1618.65 1550.06 1615.91 1546.37 Q1613.17 1542.64 1608.49 1542.64 M1608.49 1537.68 Q1616.13 1537.68 1620.49 1542.64 Q1624.85 1547.61 1624.85 1556.39 Q1624.85 1565.15 1620.49 1570.14 Q1616.13 1575.11 1608.49 1575.11 Q1600.82 1575.11 1596.46 1570.14 Q1592.13 1565.15 1592.13 1556.39 Q1592.13 1547.61 1596.46 1542.64 Q1600.82 1537.68 1608.49 1537.68 Z" fill="#000000" fill-rule="evenodd" fill-opacity="1" /><path clip-path="url(#clip340)" d="M1658.02 1555.95 Q1658.02 1549.58 1655.38 1546.08 Q1652.77 1542.58 1648.02 1542.58 Q1643.31 1542.58 1640.67 1546.08 Q1638.06 1549.58 1638.06 1555.95 Q1638.06 1562.28 1640.67 1565.78 Q1643.31 1569.28 1648.02 1569.28 Q1652.77 1569.28 1655.38 1565.78 Q1658.02 1562.28 1658.02 1555.95 M1663.87 1569.76 Q1663.87 1578.86 1659.83 1583.29 Q1655.79 1587.74 1647.45 1587.74 Q1644.36 1587.74 1641.63 1587.27 Q1638.89 1586.82 1636.31 1585.87 L1636.31 1580.17 Q1638.89 1581.57 1641.4 1582.24 Q1643.92 1582.91 1646.53 1582.91 Q1652.29 1582.91 1655.15 1579.88 Q1658.02 1576.89 1658.02 1570.81 L1658.02 1567.92 Q1656.2 1571.07 1653.37 1572.63 Q1650.54 1574.19 1646.59 1574.19 Q1640.04 1574.19 1636.02 1569.19 Q1632.01 1564.19 1632.01 1555.95 Q1632.01 1547.67 1636.02 1542.68 Q1640.04 1537.68 1646.59 1537.68 Q1650.54 1537.68 1653.37 1539.24 Q1656.2 1540.8 1658.02 1543.95 L1658.02 1538.54 L1663.87 1538.54 L1663.87 1569.76 Z" fill="#000000" fill-rule="evenodd" fill-opacity="1" /><path clip-path="url(#clip340)" d="M1675.01 1524.72 L1680.11 1524.72 Q1684.88 1532.24 1687.24 1539.43 Q1689.62 1546.62 1689.62 1553.72 Q1689.62 1560.85 1687.24 1568.07 Q1684.88 1575.3 1680.11 1582.78 L1675.01 1582.78 Q1679.25 1575.49 1681.32 1568.3 Q1683.42 1561.07 1683.42 1553.72 Q1683.42 1546.37 1681.32 1539.21 Q1679.25 1532.04 1675.01 1524.72 Z" fill="#000000" fill-rule="evenodd" fill-opacity="1" /><polyline clip-path="url(#clip342)" style="stroke:#000000; stroke-linecap:butt; stroke-linejoin:round; stroke-width:2; stroke-opacity:0.1; fill:none" points="
  251.372,1033.43 2352.76,1033.43 
  "/>
<polyline clip-path="url(#clip342)" style="stroke:#000000; stroke-linecap:butt; stroke-linejoin:round; stroke-width:2; stroke-opacity:0.1; fill:none" points="
  251.372,492.448 2352.76,492.448 
  "/>
<polyline clip-path="url(#clip340)" style="stroke:#000000; stroke-linecap:butt; stroke-linejoin:round; stroke-width:4; stroke-opacity:1; fill:none" points="
  251.372,1410.9 251.372,47.2441 
  "/>
<polyline clip-path="url(#clip340)" style="stroke:#000000; stroke-linecap:butt; stroke-linejoin:round; stroke-width:4; stroke-opacity:1; fill:none" points="
  2352.76,1410.9 2352.76,47.2441 
  "/>
<polyline clip-path="url(#clip340)" style="stroke:#000000; stroke-linecap:butt; stroke-linejoin:round; stroke-width:4; stroke-opacity:1; fill:none" points="
  251.372,1033.43 270.27,1033.43 
  "/>
<polyline clip-path="url(#clip340)" style="stroke:#000000; stroke-linecap:butt; stroke-linejoin:round; stroke-width:4; stroke-opacity:1; fill:none" points="
  251.372,492.448 270.27,492.448 
  "/>
<path clip-path="url(#clip340)" d="M115.232 1053.22 L122.871 1053.22 L122.871 1026.86 L114.561 1028.52 L114.561 1024.27 L122.825 1022.6 L127.501 1022.6 L127.501 1053.22 L135.14 1053.22 L135.14 1057.16 L115.232 1057.16 L115.232 1053.22 Z" fill="#000000" fill-rule="evenodd" fill-opacity="1" /><path clip-path="url(#clip340)" d="M154.584 1025.68 Q150.973 1025.68 149.144 1029.24 Q147.339 1032.78 147.339 1039.91 Q147.339 1047.02 149.144 1050.58 Q150.973 1054.13 154.584 1054.13 Q158.218 1054.13 160.024 1050.58 Q161.852 1047.02 161.852 1039.91 Q161.852 1032.78 160.024 1029.24 Q158.218 1025.68 154.584 1025.68 M154.584 1021.97 Q160.394 1021.97 163.45 1026.58 Q166.528 1031.16 166.528 1039.91 Q166.528 1048.64 163.45 1053.25 Q160.394 1057.83 154.584 1057.83 Q148.774 1057.83 145.695 1053.25 Q142.64 1048.64 142.64 1039.91 Q142.64 1031.16 145.695 1026.58 Q148.774 1021.97 154.584 1021.97 Z" fill="#000000" fill-rule="evenodd" fill-opacity="1" /><path clip-path="url(#clip340)" d="M166.528 1016.08 L190.64 1016.08 L190.64 1019.27 L166.528 1019.27 L166.528 1016.08 Z" fill="#000000" fill-rule="evenodd" fill-opacity="1" /><path clip-path="url(#clip340)" d="M202.113 1026.55 L215.372 1026.55 L215.372 1029.75 L197.542 1029.75 L197.542 1026.55 Q199.705 1024.31 203.429 1020.55 Q207.172 1016.77 208.131 1015.68 Q209.956 1013.63 210.67 1012.22 Q211.404 1010.79 211.404 1009.42 Q211.404 1007.18 209.824 1005.77 Q208.263 1004.36 205.743 1004.36 Q203.956 1004.36 201.962 1004.98 Q199.987 1005.6 197.73 1006.86 L197.73 1003.02 Q200.025 1002.1 202.019 1001.63 Q204.012 1001.16 205.667 1001.16 Q210.031 1001.16 212.626 1003.34 Q215.222 1005.52 215.222 1009.17 Q215.222 1010.9 214.563 1012.46 Q213.924 1014.01 212.212 1016.11 Q211.742 1016.66 209.222 1019.27 Q206.702 1021.87 202.113 1026.55 Z" fill="#000000" fill-rule="evenodd" fill-opacity="1" /><path clip-path="url(#clip340)" d="M114.931 512.241 L122.57 512.241 L122.57 485.875 L114.26 487.542 L114.26 483.283 L122.524 481.616 L127.2 481.616 L127.2 512.241 L134.839 512.241 L134.839 516.176 L114.931 516.176 L114.931 512.241 Z" fill="#000000" fill-rule="evenodd" fill-opacity="1" /><path clip-path="url(#clip340)" d="M154.283 484.695 Q150.672 484.695 148.843 488.259 Q147.038 491.801 147.038 498.931 Q147.038 506.037 148.843 509.602 Q150.672 513.144 154.283 513.144 Q157.917 513.144 159.723 509.602 Q161.552 506.037 161.552 498.931 Q161.552 491.801 159.723 488.259 Q157.917 484.695 154.283 484.695 M154.283 480.991 Q160.093 480.991 163.149 485.597 Q166.227 490.181 166.227 498.931 Q166.227 507.657 163.149 512.264 Q160.093 516.847 154.283 516.847 Q148.473 516.847 145.394 512.264 Q142.339 507.657 142.339 498.931 Q142.339 490.181 145.394 485.597 Q148.473 480.991 154.283 480.991 Z" fill="#000000" fill-rule="evenodd" fill-opacity="1" /><path clip-path="url(#clip340)" d="M166.227 475.092 L190.339 475.092 L190.339 478.29 L166.227 478.29 L166.227 475.092 Z" fill="#000000" fill-rule="evenodd" fill-opacity="1" /><path clip-path="url(#clip340)" d="M199.197 485.568 L205.404 485.568 L205.404 464.146 L198.652 465.5 L198.652 462.04 L205.366 460.686 L209.166 460.686 L209.166 485.568 L215.372 485.568 L215.372 488.766 L199.197 488.766 L199.197 485.568 Z" fill="#000000" fill-rule="evenodd" fill-opacity="1" /><path clip-path="url(#clip340)" d="M16.4842 1034.96 L16.4842 1004.91 L21.895 1004.91 L21.895 1028.53 L35.9632 1028.53 L35.9632 1005.9 L41.3741 1005.9 L41.3741 1028.53 L58.5933 1028.53 L58.5933 1004.34 L64.0042 1004.34 L64.0042 1034.96 L16.4842 1034.96 Z" fill="#000000" fill-rule="evenodd" fill-opacity="1" /><path clip-path="url(#clip340)" d="M33.8307 973.37 Q33.2578 974.357 33.0032 975.535 Q32.7167 976.68 32.7167 978.081 Q32.7167 983.046 35.9632 985.72 Q39.1779 988.362 45.2253 988.362 L64.0042 988.362 L64.0042 994.25 L28.3562 994.25 L28.3562 988.362 L33.8944 988.362 Q30.6479 986.515 29.0883 983.555 Q27.4968 980.595 27.4968 976.362 Q27.4968 975.757 27.5923 975.025 Q27.656 974.293 27.8151 973.402 L33.8307 973.37 Z" fill="#000000" fill-rule="evenodd" fill-opacity="1" /><path clip-path="url(#clip340)" d="M33.8307 947.716 Q33.2578 948.703 33.0032 949.881 Q32.7167 951.027 32.7167 952.427 Q32.7167 957.392 35.9632 960.066 Q39.1779 962.708 45.2253 962.708 L64.0042 962.708 L64.0042 968.596 L28.3562 968.596 L28.3562 962.708 L33.8944 962.708 Q30.6479 960.862 29.0883 957.902 Q27.4968 954.942 27.4968 950.708 Q27.4968 950.104 27.5923 949.372 Q27.656 948.64 27.8151 947.748 L33.8307 947.716 Z" fill="#000000" fill-rule="evenodd" fill-opacity="1" /><path clip-path="url(#clip340)" d="M32.4621 929.192 Q32.4621 933.903 36.1542 936.64 Q39.8145 939.377 46.212 939.377 Q52.6095 939.377 56.3017 936.672 Q59.9619 933.935 59.9619 929.192 Q59.9619 924.513 56.2698 921.776 Q52.5777 919.039 46.212 919.039 Q39.8781 919.039 36.186 921.776 Q32.4621 924.513 32.4621 929.192 M27.4968 929.192 Q27.4968 921.553 32.4621 917.193 Q37.4273 912.832 46.212 912.832 Q54.9649 912.832 59.9619 917.193 Q64.9272 921.553 64.9272 929.192 Q64.9272 936.863 59.9619 941.223 Q54.9649 945.552 46.212 945.552 Q37.4273 945.552 32.4621 941.223 Q27.4968 936.863 27.4968 929.192 Z" fill="#000000" fill-rule="evenodd" fill-opacity="1" /><path clip-path="url(#clip340)" d="M33.8307 882.468 Q33.2578 883.455 33.0032 884.632 Q32.7167 885.778 32.7167 887.179 Q32.7167 892.144 35.9632 894.817 Q39.1779 897.459 45.2253 897.459 L64.0042 897.459 L64.0042 903.348 L28.3562 903.348 L28.3562 897.459 L33.8944 897.459 Q30.6479 895.613 29.0883 892.653 Q27.4968 889.693 27.4968 885.46 Q27.4968 884.855 27.5923 884.123 Q27.656 883.391 27.8151 882.5 L33.8307 882.468 Z" fill="#000000" fill-rule="evenodd" fill-opacity="1" /><path clip-path="url(#clip340)" d="M55.9197 875.975 L55.9197 869.259 L64.0042 869.259 L64.0042 875.975 L55.9197 875.975 M30.2977 875.975 L30.2977 869.259 L38.3822 869.259 L38.3822 875.975 L30.2977 875.975 Z" fill="#000000" fill-rule="evenodd" fill-opacity="1" /><path clip-path="url(#clip340)" d="M58.5933 828.423 L58.5933 805.984 L64.0042 805.984 L64.0042 836.157 L58.5933 836.157 Q54.8057 832.497 48.44 826.195 Q42.0425 819.861 40.1964 818.238 Q36.7271 815.151 34.34 813.941 Q31.921 812.7 29.5975 812.7 Q25.8099 812.7 23.4228 815.373 Q21.0356 818.015 21.0356 822.28 Q21.0356 825.304 22.086 828.678 Q23.1363 832.02 25.2688 835.839 L18.7758 835.839 Q17.2162 831.956 16.4205 828.582 Q15.6248 825.208 15.6248 822.408 Q15.6248 815.023 19.3169 810.631 Q23.009 806.239 29.1837 806.239 Q32.112 806.239 34.7537 807.353 Q37.3637 808.435 40.9285 811.331 Q41.8515 812.127 46.2757 816.392 Q50.668 820.657 58.5933 828.423 Z" fill="#000000" fill-rule="evenodd" fill-opacity="1" /><path clip-path="url(#clip340)" d="M43.5384 796.276 L43.5384 779.121 L48.7583 779.121 L48.7583 796.276 L43.5384 796.276 Z" fill="#000000" fill-rule="evenodd" fill-opacity="1" /><path clip-path="url(#clip340)" d="M42.4881 740.163 L64.0042 740.163 L64.0042 746.019 L42.679 746.019 Q37.6183 746.019 35.1038 747.992 Q32.5894 749.966 32.5894 753.913 Q32.5894 758.655 35.6131 761.392 Q38.6368 764.129 43.8567 764.129 L64.0042 764.129 L64.0042 770.018 L28.3562 770.018 L28.3562 764.129 L33.8944 764.129 Q30.6797 762.029 29.0883 759.196 Q27.4968 756.332 27.4968 752.608 Q27.4968 746.465 31.3163 743.314 Q35.1038 740.163 42.4881 740.163 Z" fill="#000000" fill-rule="evenodd" fill-opacity="1" /><path clip-path="url(#clip340)" d="M32.4621 714.668 Q32.4621 719.379 36.1542 722.116 Q39.8145 724.853 46.212 724.853 Q52.6095 724.853 56.3017 722.148 Q59.9619 719.41 59.9619 714.668 Q59.9619 709.989 56.2698 707.252 Q52.5777 704.515 46.212 704.515 Q39.8781 704.515 36.186 707.252 Q32.4621 709.989 32.4621 714.668 M27.4968 714.668 Q27.4968 707.029 32.4621 702.669 Q37.4273 698.308 46.212 698.308 Q54.9649 698.308 59.9619 702.669 Q64.9272 707.029 64.9272 714.668 Q64.9272 722.339 59.9619 726.699 Q54.9649 731.028 46.212 731.028 Q37.4273 731.028 32.4621 726.699 Q27.4968 722.339 27.4968 714.668 Z" fill="#000000" fill-rule="evenodd" fill-opacity="1" /><path clip-path="url(#clip340)" d="M33.8307 667.944 Q33.2578 668.93 33.0032 670.108 Q32.7167 671.254 32.7167 672.654 Q32.7167 677.62 35.9632 680.293 Q39.1779 682.935 45.2253 682.935 L64.0042 682.935 L64.0042 688.823 L28.3562 688.823 L28.3562 682.935 L33.8944 682.935 Q30.6479 681.089 29.0883 678.129 Q27.4968 675.169 27.4968 670.936 Q27.4968 670.331 27.5923 669.599 Q27.656 668.867 27.8151 667.975 L33.8307 667.944 Z" fill="#000000" fill-rule="evenodd" fill-opacity="1" /><path clip-path="url(#clip340)" d="M35.1993 635.192 Q31.2526 632.996 29.3747 629.94 Q27.4968 626.885 27.4968 622.747 Q27.4968 617.177 31.4117 614.153 Q35.2948 611.13 42.4881 611.13 L64.0042 611.13 L64.0042 617.018 L42.679 617.018 Q37.5546 617.018 35.072 618.832 Q32.5894 620.646 32.5894 624.37 Q32.5894 628.922 35.6131 631.564 Q38.6368 634.205 43.8567 634.205 L64.0042 634.205 L64.0042 640.094 L42.679 640.094 Q37.5228 640.094 35.072 641.908 Q32.5894 643.722 32.5894 647.51 Q32.5894 651.998 35.6449 654.639 Q38.6686 657.281 43.8567 657.281 L64.0042 657.281 L64.0042 663.169 L28.3562 663.169 L28.3562 657.281 L33.8944 657.281 Q30.616 655.276 29.0564 652.475 Q27.4968 649.674 27.4968 645.823 Q27.4968 641.94 29.4702 639.234 Q31.4436 636.497 35.1993 635.192 Z" fill="#000000" fill-rule="evenodd" fill-opacity="1" /><path clip-path="url(#clip340)" d="M14.5426 564.66 Q21.8632 568.925 29.0246 570.994 Q36.186 573.063 43.5384 573.063 Q50.8908 573.063 58.1159 570.994 Q65.3091 568.893 72.5979 564.66 L72.5979 569.753 Q65.1182 574.527 57.8931 576.914 Q50.668 579.269 43.5384 579.269 Q36.4406 579.269 29.2474 576.914 Q22.0542 574.559 14.5426 569.753 L14.5426 564.66 Z" fill="#000000" fill-rule="evenodd" fill-opacity="1" /><path clip-path="url(#clip340)" d="M16.4842 553.043 L16.4842 546.613 L58.5933 546.613 L58.5933 523.474 L64.0042 523.474 L64.0042 553.043 L16.4842 553.043 Z" fill="#000000" fill-rule="evenodd" fill-opacity="1" /><path clip-path="url(#clip340)" d="M32.4621 504.313 Q32.4621 509.024 36.1542 511.761 Q39.8145 514.498 46.212 514.498 Q52.6095 514.498 56.3017 511.793 Q59.9619 509.056 59.9619 504.313 Q59.9619 499.634 56.2698 496.897 Q52.5777 494.16 46.212 494.16 Q39.8781 494.16 36.186 496.897 Q32.4621 499.634 32.4621 504.313 M27.4968 504.313 Q27.4968 496.674 32.4621 492.314 Q37.4273 487.953 46.212 487.953 Q54.9649 487.953 59.9619 492.314 Q64.9272 496.674 64.9272 504.313 Q64.9272 511.984 59.9619 516.344 Q54.9649 520.673 46.212 520.673 Q37.4273 520.673 32.4621 516.344 Q27.4968 511.984 27.4968 504.313 Z" fill="#000000" fill-rule="evenodd" fill-opacity="1" /><path clip-path="url(#clip340)" d="M45.7664 454.788 Q39.4007 454.788 35.8996 457.43 Q32.3984 460.04 32.3984 464.782 Q32.3984 469.493 35.8996 472.135 Q39.4007 474.744 45.7664 474.744 Q52.1003 474.744 55.6014 472.135 Q59.1026 469.493 59.1026 464.782 Q59.1026 460.04 55.6014 457.43 Q52.1003 454.788 45.7664 454.788 M59.58 448.932 Q68.683 448.932 73.1071 452.974 Q77.5631 457.016 77.5631 465.355 Q77.5631 468.442 77.0857 471.18 Q76.6401 473.917 75.6852 476.495 L69.9879 476.495 Q71.3884 473.917 72.0568 471.402 Q72.7252 468.888 72.7252 466.278 Q72.7252 460.517 69.7015 457.653 Q66.7096 454.788 60.6303 454.788 L57.7339 454.788 Q60.885 456.602 62.4446 459.435 Q64.0042 462.268 64.0042 466.214 Q64.0042 472.771 59.0071 476.782 Q54.01 480.792 45.7664 480.792 Q37.491 480.792 32.4939 476.782 Q27.4968 472.771 27.4968 466.214 Q27.4968 462.268 29.0564 459.435 Q30.616 456.602 33.7671 454.788 L28.3562 454.788 L28.3562 448.932 L59.58 448.932 Z" fill="#000000" fill-rule="evenodd" fill-opacity="1" /><path clip-path="url(#clip340)" d="M14.5426 437.792 L14.5426 432.699 Q22.0542 427.925 29.2474 425.569 Q36.4406 423.182 43.5384 423.182 Q50.668 423.182 57.8931 425.569 Q65.1182 427.925 72.5979 432.699 L72.5979 437.792 Q65.3091 433.558 58.1159 431.489 Q50.8908 429.389 43.5384 429.389 Q36.186 429.389 29.0246 431.489 Q21.8632 433.558 14.5426 437.792 Z" fill="#000000" fill-rule="evenodd" fill-opacity="1" /><polyline clip-path="url(#clip342)" style="stroke:#009af9; stroke-linecap:butt; stroke-linejoin:round; stroke-width:12; stroke-opacity:1; fill:none" points="
  777.234,387.033 1103.43,728.817 1463.16,958.439 1764.56,1166.74 2121.71,1372.17 
  "/>
<circle clip-path="url(#clip342)" cx="777.234" cy="387.033" r="14.4" fill="#009af9" fill-rule="evenodd" fill-opacity="1" stroke="#000000" stroke-opacity="1" stroke-width="3.2"/>
<circle clip-path="url(#clip342)" cx="1103.43" cy="728.817" r="14.4" fill="#009af9" fill-rule="evenodd" fill-opacity="1" stroke="#000000" stroke-opacity="1" stroke-width="3.2"/>
<circle clip-path="url(#clip342)" cx="1463.16" cy="958.439" r="14.4" fill="#009af9" fill-rule="evenodd" fill-opacity="1" stroke="#000000" stroke-opacity="1" stroke-width="3.2"/>
<circle clip-path="url(#clip342)" cx="1764.56" cy="1166.74" r="14.4" fill="#009af9" fill-rule="evenodd" fill-opacity="1" stroke="#000000" stroke-opacity="1" stroke-width="3.2"/>
<circle clip-path="url(#clip342)" cx="2121.71" cy="1372.17" r="14.4" fill="#009af9" fill-rule="evenodd" fill-opacity="1" stroke="#000000" stroke-opacity="1" stroke-width="3.2"/>
<polyline clip-path="url(#clip342)" style="stroke:#e26f46; stroke-linecap:butt; stroke-linejoin:round; stroke-width:12; stroke-opacity:1; fill:none" points="
  310.845,384.568 621.734,564.64 953.975,761.099 1288.1,963.43 1632.37,1167.54 1964.52,1372.3 
  "/>
<path clip-path="url(#clip342)" d="M294.845 368.568 L294.845 400.568 L326.845 400.568 L326.845 368.568 L294.845 368.568 Z" fill="#e26f46" fill-rule="evenodd" fill-opacity="1" stroke="#000000" stroke-opacity="1" stroke-width="3.2"/>
<path clip-path="url(#clip342)" d="M605.734 548.64 L605.734 580.64 L637.734 580.64 L637.734 548.64 L605.734 548.64 Z" fill="#e26f46" fill-rule="evenodd" fill-opacity="1" stroke="#000000" stroke-opacity="1" stroke-width="3.2"/>
<path clip-path="url(#clip342)" d="M937.975 745.099 L937.975 777.099 L969.975 777.099 L969.975 745.099 L937.975 745.099 Z" fill="#e26f46" fill-rule="evenodd" fill-opacity="1" stroke="#000000" stroke-opacity="1" stroke-width="3.2"/>
<path clip-path="url(#clip342)" d="M1272.1 947.43 L1272.1 979.43 L1304.1 979.43 L1304.1 947.43 L1272.1 947.43 Z" fill="#e26f46" fill-rule="evenodd" fill-opacity="1" stroke="#000000" stroke-opacity="1" stroke-width="3.2"/>
<path clip-path="url(#clip342)" d="M1616.37 1151.54 L1616.37 1183.54 L1648.37 1183.54 L1648.37 1151.54 L1616.37 1151.54 Z" fill="#e26f46" fill-rule="evenodd" fill-opacity="1" stroke="#000000" stroke-opacity="1" stroke-width="3.2"/>
<path clip-path="url(#clip342)" d="M1948.52 1356.3 L1948.52 1388.3 L1980.52 1388.3 L1980.52 1356.3 L1948.52 1356.3 Z" fill="#e26f46" fill-rule="evenodd" fill-opacity="1" stroke="#000000" stroke-opacity="1" stroke-width="3.2"/>
<polyline clip-path="url(#clip342)" style="stroke:#3da44d; stroke-linecap:butt; stroke-linejoin:round; stroke-width:12; stroke-opacity:1; fill:none" points="
  750.234,85.838 1055.23,289.725 1385.59,426.503 1770.76,538.878 2048.27,646.53 
  "/>
<path clip-path="url(#clip342)" d="M763.034 85.838 L743.834 74.638 L743.834 97.038 L763.034 85.838 Z" fill="#3da44d" fill-rule="evenodd" fill-opacity="1" stroke="#000000" stroke-opacity="1" stroke-width="3.2"/>
<path clip-path="url(#clip342)" d="M1068.03 289.725 L1048.83 278.525 L1048.83 300.925 L1068.03 289.725 Z" fill="#3da44d" fill-rule="evenodd" fill-opacity="1" stroke="#000000" stroke-opacity="1" stroke-width="3.2"/>
<path clip-path="url(#clip342)" d="M1398.39 426.503 L1379.19 415.303 L1379.19 437.703 L1398.39 426.503 Z" fill="#3da44d" fill-rule="evenodd" fill-opacity="1" stroke="#000000" stroke-opacity="1" stroke-width="3.2"/>
<path clip-path="url(#clip342)" d="M1783.56 538.878 L1764.36 527.678 L1764.36 550.078 L1783.56 538.878 Z" fill="#3da44d" fill-rule="evenodd" fill-opacity="1" stroke="#000000" stroke-opacity="1" stroke-width="3.2"/>
<path clip-path="url(#clip342)" d="M2061.07 646.53 L2041.87 635.33 L2041.87 657.73 L2061.07 646.53 Z" fill="#3da44d" fill-rule="evenodd" fill-opacity="1" stroke="#000000" stroke-opacity="1" stroke-width="3.2"/>
<polyline clip-path="url(#clip342)" style="stroke:#c271d2; stroke-linecap:butt; stroke-linejoin:round; stroke-width:12; stroke-opacity:1; fill:none" points="
  436.366,396.828 755.136,400.645 1197.69,440.159 1461.39,493.667 1795.89,552.635 2115.34,605.272 
  "/>
<path clip-path="url(#clip342)" d="M436.366 380.828 L420.366 396.828 L436.366 412.828 L452.366 396.828 L436.366 380.828 Z" fill="#c271d2" fill-rule="evenodd" fill-opacity="1" stroke="#000000" stroke-opacity="1" stroke-width="3.2"/>
<path clip-path="url(#clip342)" d="M755.136 384.645 L739.136 400.645 L755.136 416.645 L771.136 400.645 L755.136 384.645 Z" fill="#c271d2" fill-rule="evenodd" fill-opacity="1" stroke="#000000" stroke-opacity="1" stroke-width="3.2"/>
<path clip-path="url(#clip342)" d="M1197.69 424.159 L1181.69 440.159 L1197.69 456.159 L1213.69 440.159 L1197.69 424.159 Z" fill="#c271d2" fill-rule="evenodd" fill-opacity="1" stroke="#000000" stroke-opacity="1" stroke-width="3.2"/>
<path clip-path="url(#clip342)" d="M1461.39 477.667 L1445.39 493.667 L1461.39 509.667 L1477.39 493.667 L1461.39 477.667 Z" fill="#c271d2" fill-rule="evenodd" fill-opacity="1" stroke="#000000" stroke-opacity="1" stroke-width="3.2"/>
<path clip-path="url(#clip342)" d="M1795.89 536.635 L1779.89 552.635 L1795.89 568.635 L1811.89 552.635 L1795.89 536.635 Z" fill="#c271d2" fill-rule="evenodd" fill-opacity="1" stroke="#000000" stroke-opacity="1" stroke-width="3.2"/>
<path clip-path="url(#clip342)" d="M2115.34 589.272 L2099.34 605.272 L2115.34 621.272 L2131.34 605.272 L2115.34 589.272 Z" fill="#c271d2" fill-rule="evenodd" fill-opacity="1" stroke="#000000" stroke-opacity="1" stroke-width="3.2"/>
<polyline clip-path="url(#clip342)" style="stroke:#ac8d18; stroke-linecap:butt; stroke-linejoin:round; stroke-width:12; stroke-opacity:1; fill:none" points="
  962.287,395.947 1304.53,749.061 1636.77,980.288 1990.79,1039.2 2293.28,950.29 
  "/>
<circle clip-path="url(#clip342)" cx="962.287" cy="395.947" r="14.4" fill="#ac8d18" fill-rule="evenodd" fill-opacity="1" stroke="#000000" stroke-opacity="1" stroke-width="3.2"/>
<circle clip-path="url(#clip342)" cx="1304.53" cy="749.061" r="14.4" fill="#ac8d18" fill-rule="evenodd" fill-opacity="1" stroke="#000000" stroke-opacity="1" stroke-width="3.2"/>
<circle clip-path="url(#clip342)" cx="1636.77" cy="980.288" r="14.4" fill="#ac8d18" fill-rule="evenodd" fill-opacity="1" stroke="#000000" stroke-opacity="1" stroke-width="3.2"/>
<circle clip-path="url(#clip342)" cx="1990.79" cy="1039.2" r="14.4" fill="#ac8d18" fill-rule="evenodd" fill-opacity="1" stroke="#000000" stroke-opacity="1" stroke-width="3.2"/>
<circle clip-path="url(#clip342)" cx="2293.28" cy="950.29" r="14.4" fill="#ac8d18" fill-rule="evenodd" fill-opacity="1" stroke="#000000" stroke-opacity="1" stroke-width="3.2"/>
<polyline clip-path="url(#clip342)" style="stroke:#00a9ad; stroke-linecap:butt; stroke-linejoin:round; stroke-width:12; stroke-opacity:1; fill:none" points="
  468.112,385.207 728.249,583.57 1121.49,783.727 1434.15,984.381 1763.79,1039.2 2086.3,950.28 
  "/>
<path clip-path="url(#clip342)" d="M448.112 365.207 L448.112 405.207 L488.112 405.207 L488.112 365.207 L448.112 365.207 Z" fill="#00a9ad" fill-rule="evenodd" fill-opacity="1" stroke="#000000" stroke-opacity="1" stroke-width="3.2"/>
<path clip-path="url(#clip342)" d="M708.249 563.57 L708.249 603.57 L748.249 603.57 L748.249 563.57 L708.249 563.57 Z" fill="#00a9ad" fill-rule="evenodd" fill-opacity="1" stroke="#000000" stroke-opacity="1" stroke-width="3.2"/>
<path clip-path="url(#clip342)" d="M1101.49 763.727 L1101.49 803.727 L1141.49 803.727 L1141.49 763.727 L1101.49 763.727 Z" fill="#00a9ad" fill-rule="evenodd" fill-opacity="1" stroke="#000000" stroke-opacity="1" stroke-width="3.2"/>
<path clip-path="url(#clip342)" d="M1414.15 964.381 L1414.15 1004.38 L1454.15 1004.38 L1454.15 964.381 L1414.15 964.381 Z" fill="#00a9ad" fill-rule="evenodd" fill-opacity="1" stroke="#000000" stroke-opacity="1" stroke-width="3.2"/>
<path clip-path="url(#clip342)" d="M1743.79 1019.2 L1743.79 1059.2 L1783.79 1059.2 L1783.79 1019.2 L1743.79 1019.2 Z" fill="#00a9ad" fill-rule="evenodd" fill-opacity="1" stroke="#000000" stroke-opacity="1" stroke-width="3.2"/>
<path clip-path="url(#clip342)" d="M2066.3 930.28 L2066.3 970.28 L2106.3 970.28 L2106.3 930.28 L2066.3 930.28 Z" fill="#00a9ad" fill-rule="evenodd" fill-opacity="1" stroke="#000000" stroke-opacity="1" stroke-width="3.2"/>
<path clip-path="url(#clip340)" d="
M1855.52 455.579 L2282.71 455.579 L2282.71 92.6992 L1855.52 92.6992  Z
  " fill="#ffffff" fill-rule="evenodd" fill-opacity="1"/>
<polyline clip-path="url(#clip340)" style="stroke:#000000; stroke-linecap:butt; stroke-linejoin:round; stroke-width:4; stroke-opacity:1; fill:none" points="
  1855.52,455.579 2282.71,455.579 2282.71,92.6992 1855.52,92.6992 1855.52,455.579 
  "/>
<polyline clip-path="url(#clip340)" style="stroke:#009af9; stroke-linecap:butt; stroke-linejoin:round; stroke-width:4; stroke-opacity:1; fill:none" points="
  1878.87,144.539 2018.96,144.539 
  "/>
<circle clip-path="url(#clip340)" cx="1948.91" cy="144.539" r="23.04" fill="#009af9" fill-rule="evenodd" fill-opacity="1" stroke="#000000" stroke-opacity="1" stroke-width="5.12"/>
<path clip-path="url(#clip340)" d="M2049.42 127.259 L2054.09 127.259 L2054.09 159.412 Q2054.09 165.662 2051.71 168.486 Q2049.35 171.31 2044.09 171.31 L2042.31 171.31 L2042.31 167.375 L2043.77 167.375 Q2046.87 167.375 2048.14 165.639 Q2049.42 163.903 2049.42 159.412 L2049.42 127.259 Z" fill="#000000" fill-rule="evenodd" fill-opacity="1" /><path clip-path="url(#clip340)" d="M2059.37 146.935 L2071.85 146.935 L2071.85 150.731 L2059.37 150.731 L2059.37 146.935 Z" fill="#000000" fill-rule="evenodd" fill-opacity="1" /><path clip-path="url(#clip340)" d="M2083.49 131.102 L2083.49 144.088 L2089.37 144.088 Q2092.63 144.088 2094.42 142.398 Q2096.2 140.708 2096.2 137.583 Q2096.2 134.481 2094.42 132.792 Q2092.63 131.102 2089.37 131.102 L2083.49 131.102 M2078.81 127.259 L2089.37 127.259 Q2095.18 127.259 2098.14 129.898 Q2101.13 132.514 2101.13 137.583 Q2101.13 142.699 2098.14 145.315 Q2095.18 147.93 2089.37 147.93 L2083.49 147.93 L2083.49 161.819 L2078.81 161.819 L2078.81 127.259 Z" fill="#000000" fill-rule="evenodd" fill-opacity="1" /><path clip-path="url(#clip340)" d="M2133.28 129.921 L2133.28 134.852 Q2130.92 132.653 2128.24 131.565 Q2125.57 130.477 2122.56 130.477 Q2116.64 130.477 2113.49 134.111 Q2110.34 137.722 2110.34 144.574 Q2110.34 151.403 2113.49 155.037 Q2116.64 158.648 2122.56 158.648 Q2125.57 158.648 2128.24 157.56 Q2130.92 156.472 2133.28 154.273 L2133.28 159.157 Q2130.83 160.824 2128.07 161.657 Q2125.34 162.49 2122.29 162.49 Q2114.44 162.49 2109.93 157.699 Q2105.41 152.884 2105.41 144.574 Q2105.41 136.241 2109.93 131.449 Q2114.44 126.634 2122.29 126.634 Q2125.39 126.634 2128.12 127.468 Q2130.87 128.278 2133.28 129.921 Z" fill="#000000" fill-rule="evenodd" fill-opacity="1" /><polyline clip-path="url(#clip340)" style="stroke:#e26f46; stroke-linecap:butt; stroke-linejoin:round; stroke-width:4; stroke-opacity:1; fill:none" points="
  1878.87,196.379 2018.96,196.379 
  "/>
<path clip-path="url(#clip340)" d="M1923.31 170.779 L1923.31 221.979 L1974.51 221.979 L1974.51 170.779 L1923.31 170.779 Z" fill="#e26f46" fill-rule="evenodd" fill-opacity="1" stroke="#000000" stroke-opacity="1" stroke-width="5.12"/>
<path clip-path="url(#clip340)" d="M2049.42 179.099 L2054.09 179.099 L2054.09 211.252 Q2054.09 217.502 2051.71 220.326 Q2049.35 223.15 2044.09 223.15 L2042.31 223.15 L2042.31 219.215 L2043.77 219.215 Q2046.87 219.215 2048.14 217.479 Q2049.42 215.743 2049.42 211.252 L2049.42 179.099 Z" fill="#000000" fill-rule="evenodd" fill-opacity="1" /><path clip-path="url(#clip340)" d="M2059.37 198.775 L2071.85 198.775 L2071.85 202.571 L2059.37 202.571 L2059.37 198.775 Z" fill="#000000" fill-rule="evenodd" fill-opacity="1" /><path clip-path="url(#clip340)" d="M2078.81 179.099 L2085.11 179.099 L2100.43 208.011 L2100.43 179.099 L2104.97 179.099 L2104.97 213.659 L2098.68 213.659 L2083.35 184.747 L2083.35 213.659 L2078.81 213.659 L2078.81 179.099 Z" fill="#000000" fill-rule="evenodd" fill-opacity="1" /><path clip-path="url(#clip340)" d="M2130.67 197.456 Q2132.17 197.965 2133.58 199.631 Q2135.02 201.298 2136.45 204.215 L2141.2 213.659 L2136.17 213.659 L2131.75 204.793 Q2130.04 201.321 2128.42 200.187 Q2126.82 199.053 2124.05 199.053 L2118.95 199.053 L2118.95 213.659 L2114.28 213.659 L2114.28 179.099 L2124.83 179.099 Q2130.76 179.099 2133.67 181.576 Q2136.59 184.053 2136.59 189.053 Q2136.59 192.317 2135.06 194.469 Q2133.56 196.622 2130.67 197.456 M2118.95 182.942 L2118.95 195.21 L2124.83 195.21 Q2128.21 195.21 2129.92 193.659 Q2131.66 192.085 2131.66 189.053 Q2131.66 186.02 2129.92 184.493 Q2128.21 182.942 2124.83 182.942 L2118.95 182.942 Z" fill="#000000" fill-rule="evenodd" fill-opacity="1" /><polyline clip-path="url(#clip340)" style="stroke:#3da44d; stroke-linecap:butt; stroke-linejoin:round; stroke-width:4; stroke-opacity:1; fill:none" points="
  1878.87,248.219 2018.96,248.219 
  "/>
<path clip-path="url(#clip340)" d="M1969.39 248.219 L1938.67 230.299 L1938.67 266.139 L1969.39 248.219 Z" fill="#3da44d" fill-rule="evenodd" fill-opacity="1" stroke="#000000" stroke-opacity="1" stroke-width="5.12"/>
<path clip-path="url(#clip340)" d="M2042.31 230.939 L2049.28 230.939 L2058.1 254.458 L2066.96 230.939 L2073.93 230.939 L2073.93 265.499 L2069.37 265.499 L2069.37 235.152 L2060.46 258.856 L2055.76 258.856 L2046.85 235.152 L2046.85 265.499 L2042.31 265.499 L2042.31 230.939 Z" fill="#000000" fill-rule="evenodd" fill-opacity="1" /><path clip-path="url(#clip340)" d="M2080.87 250.615 L2093.35 250.615 L2093.35 254.411 L2080.87 254.411 L2080.87 250.615 Z" fill="#000000" fill-rule="evenodd" fill-opacity="1" /><path clip-path="url(#clip340)" d="M2104.99 234.782 L2104.99 247.768 L2110.87 247.768 Q2114.14 247.768 2115.92 246.078 Q2117.7 244.388 2117.7 241.263 Q2117.7 238.161 2115.92 236.472 Q2114.14 234.782 2110.87 234.782 L2104.99 234.782 M2100.32 230.939 L2110.87 230.939 Q2116.68 230.939 2119.65 233.578 Q2122.63 236.194 2122.63 241.263 Q2122.63 246.379 2119.65 248.995 Q2116.68 251.61 2110.87 251.61 L2104.99 251.61 L2104.99 265.499 L2100.32 265.499 L2100.32 230.939 Z" fill="#000000" fill-rule="evenodd" fill-opacity="1" /><path clip-path="url(#clip340)" d="M2128.91 230.939 L2133.58 230.939 L2133.58 265.499 L2128.91 265.499 L2128.91 230.939 Z" fill="#000000" fill-rule="evenodd" fill-opacity="1" /><path clip-path="url(#clip340)" d="M2140.55 250.615 L2153.03 250.615 L2153.03 254.411 L2140.55 254.411 L2140.55 250.615 Z" fill="#000000" fill-rule="evenodd" fill-opacity="1" /><path clip-path="url(#clip340)" d="M2159.99 230.939 L2181.85 230.939 L2181.85 234.874 L2164.67 234.874 L2164.67 245.106 L2181.13 245.106 L2181.13 249.041 L2164.67 249.041 L2164.67 261.564 L2182.26 261.564 L2182.26 265.499 L2159.99 265.499 L2159.99 230.939 Z" fill="#000000" fill-rule="evenodd" fill-opacity="1" /><path clip-path="url(#clip340)" d="M2188.28 230.939 L2193.3 230.939 L2201.89 243.786 L2210.53 230.939 L2215.55 230.939 L2204.44 247.536 L2216.29 265.499 L2211.27 265.499 L2201.54 250.8 L2191.75 265.499 L2186.71 265.499 L2199.04 247.05 L2188.28 230.939 Z" fill="#000000" fill-rule="evenodd" fill-opacity="1" /><polyline clip-path="url(#clip340)" style="stroke:#c271d2; stroke-linecap:butt; stroke-linejoin:round; stroke-width:4; stroke-opacity:1; fill:none" points="
  1878.87,300.059 2018.96,300.059 
  "/>
<path clip-path="url(#clip340)" d="M1948.91 274.459 L1923.31 300.059 L1948.91 325.659 L1974.51 300.059 L1948.91 274.459 Z" fill="#c271d2" fill-rule="evenodd" fill-opacity="1" stroke="#000000" stroke-opacity="1" stroke-width="5.12"/>
<path clip-path="url(#clip340)" d="M2042.31 282.779 L2049.28 282.779 L2058.1 306.298 L2066.96 282.779 L2073.93 282.779 L2073.93 317.339 L2069.37 317.339 L2069.37 286.992 L2060.46 310.696 L2055.76 310.696 L2046.85 286.992 L2046.85 317.339 L2042.31 317.339 L2042.31 282.779 Z" fill="#000000" fill-rule="evenodd" fill-opacity="1" /><path clip-path="url(#clip340)" d="M2080.87 302.455 L2093.35 302.455 L2093.35 306.251 L2080.87 306.251 L2080.87 302.455 Z" fill="#000000" fill-rule="evenodd" fill-opacity="1" /><path clip-path="url(#clip340)" d="M2104.99 286.622 L2104.99 299.608 L2110.87 299.608 Q2114.14 299.608 2115.92 297.918 Q2117.7 296.228 2117.7 293.103 Q2117.7 290.001 2115.92 288.312 Q2114.14 286.622 2110.87 286.622 L2104.99 286.622 M2100.32 282.779 L2110.87 282.779 Q2116.68 282.779 2119.65 285.418 Q2122.63 288.034 2122.63 293.103 Q2122.63 298.219 2119.65 300.835 Q2116.68 303.45 2110.87 303.45 L2104.99 303.45 L2104.99 317.339 L2100.32 317.339 L2100.32 282.779 Z" fill="#000000" fill-rule="evenodd" fill-opacity="1" /><path clip-path="url(#clip340)" d="M2128.91 282.779 L2133.58 282.779 L2133.58 317.339 L2128.91 317.339 L2128.91 282.779 Z" fill="#000000" fill-rule="evenodd" fill-opacity="1" /><path clip-path="url(#clip340)" d="M2140.55 302.455 L2153.03 302.455 L2153.03 306.251 L2140.55 306.251 L2140.55 302.455 Z" fill="#000000" fill-rule="evenodd" fill-opacity="1" /><path clip-path="url(#clip340)" d="M2159.99 282.779 L2164.67 282.779 L2164.67 317.339 L2159.99 317.339 L2159.99 282.779 Z" fill="#000000" fill-rule="evenodd" fill-opacity="1" /><path clip-path="url(#clip340)" d="M2173.98 282.779 L2180.94 282.779 L2189.76 306.298 L2198.63 282.779 L2205.6 282.779 L2205.6 317.339 L2201.04 317.339 L2201.04 286.992 L2192.12 310.696 L2187.42 310.696 L2178.51 286.992 L2178.51 317.339 L2173.98 317.339 L2173.98 282.779 Z" fill="#000000" fill-rule="evenodd" fill-opacity="1" /><path clip-path="url(#clip340)" d="M2216.11 313.404 L2223.74 313.404 L2223.74 287.038 L2215.43 288.705 L2215.43 284.446 L2223.7 282.779 L2228.37 282.779 L2228.37 313.404 L2236.01 313.404 L2236.01 317.339 L2216.11 317.339 L2216.11 313.404 Z" fill="#000000" fill-rule="evenodd" fill-opacity="1" /><polyline clip-path="url(#clip340)" style="stroke:#ac8d18; stroke-linecap:butt; stroke-linejoin:round; stroke-width:4; stroke-opacity:1; fill:none" points="
  1878.87,351.899 2018.96,351.899 
  "/>
<circle clip-path="url(#clip340)" cx="1948.91" cy="351.899" r="23.04" fill="#ac8d18" fill-rule="evenodd" fill-opacity="1" stroke="#000000" stroke-opacity="1" stroke-width="5.12"/>
<path clip-path="url(#clip340)" d="M2042.31 334.619 L2049.28 334.619 L2058.1 358.138 L2066.96 334.619 L2073.93 334.619 L2073.93 369.179 L2069.37 369.179 L2069.37 338.832 L2060.46 362.536 L2055.76 362.536 L2046.85 338.832 L2046.85 369.179 L2042.31 369.179 L2042.31 334.619 Z" fill="#000000" fill-rule="evenodd" fill-opacity="1" /><path clip-path="url(#clip340)" d="M2080.87 354.295 L2093.35 354.295 L2093.35 358.091 L2080.87 358.091 L2080.87 354.295 Z" fill="#000000" fill-rule="evenodd" fill-opacity="1" /><path clip-path="url(#clip340)" d="M2104.99 338.462 L2104.99 351.448 L2110.87 351.448 Q2114.14 351.448 2115.92 349.758 Q2117.7 348.068 2117.7 344.943 Q2117.7 341.841 2115.92 340.152 Q2114.14 338.462 2110.87 338.462 L2104.99 338.462 M2100.32 334.619 L2110.87 334.619 Q2116.68 334.619 2119.65 337.258 Q2122.63 339.874 2122.63 344.943 Q2122.63 350.059 2119.65 352.675 Q2116.68 355.29 2110.87 355.29 L2104.99 355.29 L2104.99 369.179 L2100.32 369.179 L2100.32 334.619 Z" fill="#000000" fill-rule="evenodd" fill-opacity="1" /><path clip-path="url(#clip340)" d="M2128.91 334.619 L2133.58 334.619 L2133.58 369.179 L2128.91 369.179 L2128.91 334.619 Z" fill="#000000" fill-rule="evenodd" fill-opacity="1" /><path clip-path="url(#clip340)" d="M2140.55 354.295 L2153.03 354.295 L2153.03 358.091 L2140.55 358.091 L2140.55 354.295 Z" fill="#000000" fill-rule="evenodd" fill-opacity="1" /><path clip-path="url(#clip340)" d="M2164.67 338.462 L2164.67 351.448 L2170.55 351.448 Q2173.81 351.448 2175.6 349.758 Q2177.38 348.068 2177.38 344.943 Q2177.38 341.841 2175.6 340.152 Q2173.81 338.462 2170.55 338.462 L2164.67 338.462 M2159.99 334.619 L2170.55 334.619 Q2176.36 334.619 2179.32 337.258 Q2182.31 339.874 2182.31 344.943 Q2182.31 350.059 2179.32 352.675 Q2176.36 355.29 2170.55 355.29 L2164.67 355.29 L2164.67 369.179 L2159.99 369.179 L2159.99 334.619 Z" fill="#000000" fill-rule="evenodd" fill-opacity="1" /><path clip-path="url(#clip340)" d="M2214.46 337.281 L2214.46 342.212 Q2212.1 340.013 2209.42 338.925 Q2206.75 337.837 2203.74 337.837 Q2197.82 337.837 2194.67 341.471 Q2191.52 345.082 2191.52 351.934 Q2191.52 358.763 2194.67 362.397 Q2197.82 366.008 2203.74 366.008 Q2206.75 366.008 2209.42 364.92 Q2212.1 363.832 2214.46 361.633 L2214.46 366.517 Q2212.01 368.184 2209.25 369.017 Q2206.52 369.85 2203.47 369.85 Q2195.62 369.85 2191.11 365.059 Q2186.59 360.244 2186.59 351.934 Q2186.59 343.601 2191.11 338.809 Q2195.62 333.994 2203.47 333.994 Q2206.57 333.994 2209.3 334.828 Q2212.05 335.638 2214.46 337.281 Z" fill="#000000" fill-rule="evenodd" fill-opacity="1" /><polyline clip-path="url(#clip340)" style="stroke:#00a9ad; stroke-linecap:butt; stroke-linejoin:round; stroke-width:4; stroke-opacity:1; fill:none" points="
  1878.87,403.739 2018.96,403.739 
  "/>
<path clip-path="url(#clip340)" d="M1923.31 378.139 L1923.31 429.339 L1974.51 429.339 L1974.51 378.139 L1923.31 378.139 Z" fill="#00a9ad" fill-rule="evenodd" fill-opacity="1" stroke="#000000" stroke-opacity="1" stroke-width="4.096"/>
<path clip-path="url(#clip340)" d="M2042.31 386.459 L2049.28 386.459 L2058.1 409.978 L2066.96 386.459 L2073.93 386.459 L2073.93 421.019 L2069.37 421.019 L2069.37 390.672 L2060.46 414.376 L2055.76 414.376 L2046.85 390.672 L2046.85 421.019 L2042.31 421.019 L2042.31 386.459 Z" fill="#000000" fill-rule="evenodd" fill-opacity="1" /><path clip-path="url(#clip340)" d="M2080.87 406.135 L2093.35 406.135 L2093.35 409.931 L2080.87 409.931 L2080.87 406.135 Z" fill="#000000" fill-rule="evenodd" fill-opacity="1" /><path clip-path="url(#clip340)" d="M2104.99 390.302 L2104.99 403.288 L2110.87 403.288 Q2114.14 403.288 2115.92 401.598 Q2117.7 399.908 2117.7 396.783 Q2117.7 393.681 2115.92 391.992 Q2114.14 390.302 2110.87 390.302 L2104.99 390.302 M2100.32 386.459 L2110.87 386.459 Q2116.68 386.459 2119.65 389.098 Q2122.63 391.714 2122.63 396.783 Q2122.63 401.899 2119.65 404.515 Q2116.68 407.13 2110.87 407.13 L2104.99 407.13 L2104.99 421.019 L2100.32 421.019 L2100.32 386.459 Z" fill="#000000" fill-rule="evenodd" fill-opacity="1" /><path clip-path="url(#clip340)" d="M2128.91 386.459 L2133.58 386.459 L2133.58 421.019 L2128.91 421.019 L2128.91 386.459 Z" fill="#000000" fill-rule="evenodd" fill-opacity="1" /><path clip-path="url(#clip340)" d="M2140.55 406.135 L2153.03 406.135 L2153.03 409.931 L2140.55 409.931 L2140.55 406.135 Z" fill="#000000" fill-rule="evenodd" fill-opacity="1" /><path clip-path="url(#clip340)" d="M2159.99 386.459 L2164.67 386.459 L2164.67 421.019 L2159.99 421.019 L2159.99 386.459 Z" fill="#000000" fill-rule="evenodd" fill-opacity="1" /><path clip-path="url(#clip340)" d="M2173.98 386.459 L2180.94 386.459 L2189.76 409.978 L2198.63 386.459 L2205.6 386.459 L2205.6 421.019 L2201.04 421.019 L2201.04 390.672 L2192.12 414.376 L2187.42 414.376 L2178.51 390.672 L2178.51 421.019 L2173.98 421.019 L2173.98 386.459 Z" fill="#000000" fill-rule="evenodd" fill-opacity="1" /><path clip-path="url(#clip340)" d="M2219.32 417.084 L2235.64 417.084 L2235.64 421.019 L2213.7 421.019 L2213.7 417.084 Q2216.36 414.329 2220.94 409.7 Q2225.55 405.047 2226.73 403.704 Q2228.98 401.181 2229.85 399.445 Q2230.76 397.686 2230.76 395.996 Q2230.76 393.242 2228.81 391.505 Q2226.89 389.769 2223.79 389.769 Q2221.59 389.769 2219.14 390.533 Q2216.71 391.297 2213.93 392.848 L2213.93 388.126 Q2216.75 386.992 2219.21 386.413 Q2221.66 385.834 2223.7 385.834 Q2229.07 385.834 2232.26 388.519 Q2235.46 391.205 2235.46 395.695 Q2235.46 397.825 2234.65 399.746 Q2233.86 401.644 2231.75 404.237 Q2231.17 404.908 2228.07 408.126 Q2224.97 411.32 2219.32 417.084 Z" fill="#000000" fill-rule="evenodd" fill-opacity="1" /></svg>
