<?xml version="1.0" encoding="utf-8"?>
<svg xmlns="http://www.w3.org/2000/svg" xmlns:xlink="http://www.w3.org/1999/xlink" width="600" height="400" viewBox="0 0 2400 1600">
<defs>
  <clipPath id="clip950">
    <rect x="0" y="0" width="2400" height="1600"/>
  </clipPath>
</defs>
<path clip-path="url(#clip950)" d="
M0 1600 L2400 1600 L2400 0 L0 0  Z
  " fill="#ffffff" fill-rule="evenodd" fill-opacity="1"/>
<defs>
  <clipPath id="clip951">
    <rect x="480" y="0" width="1681" height="1600"/>
  </clipPath>
</defs>
<path clip-path="url(#clip950)" d="
M251.372 1410.9 L2352.76 1410.9 L2352.76 47.2441 L251.372 47.2441  Z
  " fill="#ffffff" fill-rule="evenodd" fill-opacity="1"/>
<defs>
  <clipPath id="clip952">
    <rect x="251" y="47" width="2102" height="1365"/>
  </clipPath>
</defs>
<polyline clip-path="url(#clip952)" style="stroke:#000000; stroke-linecap:butt; stroke-linejoin:round; stroke-width:2; stroke-opacity:0.1; fill:none" points="
  714.581,1410.9 714.581,47.2441 
  "/>
<polyline clip-path="url(#clip952)" style="stroke:#000000; stroke-linecap:butt; stroke-linejoin:round; stroke-width:2; stroke-opacity:0.1; fill:none" points="
  1833.95,1410.9 1833.95,47.2441 
  "/>
<polyline clip-path="url(#clip950)" style="stroke:#000000; stroke-linecap:butt; stroke-linejoin:round; stroke-width:4; stroke-opacity:1; fill:none" points="
  251.372,1410.9 2352.76,1410.9 
  "/>
<polyline clip-path="url(#clip950)" style="stroke:#000000; stroke-linecap:butt; stroke-linejoin:round; stroke-width:4; stroke-opacity:1; fill:none" points="
  251.372,47.2441 2352.76,47.2441 
  "/>
<polyline clip-path="url(#clip950)" style="stroke:#000000; stroke-linecap:butt; stroke-linejoin:round; stroke-width:4; stroke-opacity:1; fill:none" points="
  714.581,1410.9 714.581,1392 
  "/>
<polyline clip-path="url(#clip950)" style="stroke:#000000; stroke-linecap:butt; stroke-linejoin:round; stroke-width:4; stroke-opacity:1; fill:none" points="
  1833.95,1410.9 1833.95,1392 
  "/>
<path clip-path="url(#clip950)" d="M664.461 1485.02 L672.1 1485.02 L672.1 1458.66 L663.79 1460.32 L663.79 1456.06 L672.054 1454.4 L676.73 1454.4 L676.73 1485.02 L684.369 1485.02 L684.369 1488.96 L664.461 1488.96 L664.461 1485.02 Z" fill="#000000" fill-rule="evenodd" fill-opacity="1" /><path clip-path="url(#clip950)" d="M703.813 1457.48 Q700.202 1457.48 698.373 1461.04 Q696.568 1464.58 696.568 1471.71 Q696.568 1478.82 698.373 1482.38 Q700.202 1485.92 703.813 1485.92 Q707.447 1485.92 709.253 1482.38 Q711.081 1478.82 711.081 1471.71 Q711.081 1464.58 709.253 1461.04 Q707.447 1457.48 703.813 1457.48 M703.813 1453.77 Q709.623 1453.77 712.679 1458.38 Q715.757 1462.96 715.757 1471.71 Q715.757 1480.44 712.679 1485.04 Q709.623 1489.63 703.813 1489.63 Q698.003 1489.63 694.924 1485.04 Q691.869 1480.44 691.869 1471.71 Q691.869 1462.96 694.924 1458.38 Q698.003 1453.77 703.813 1453.77 Z" fill="#000000" fill-rule="evenodd" fill-opacity="1" /><path clip-path="url(#clip950)" d="M715.757 1447.87 L739.869 1447.87 L739.869 1451.07 L715.757 1451.07 L715.757 1447.87 Z" fill="#000000" fill-rule="evenodd" fill-opacity="1" /><path clip-path="url(#clip950)" d="M759.579 1446.41 Q762.307 1446.99 763.83 1448.83 Q765.372 1450.68 765.372 1453.38 Q765.372 1457.54 762.514 1459.82 Q759.655 1462.09 754.389 1462.09 Q752.621 1462.09 750.74 1461.73 Q748.878 1461.4 746.884 1460.7 L746.884 1457.03 Q748.464 1457.95 750.345 1458.42 Q752.226 1458.89 754.276 1458.89 Q757.849 1458.89 759.711 1457.48 Q761.592 1456.07 761.592 1453.38 Q761.592 1450.9 759.843 1449.51 Q758.112 1448.1 755.009 1448.1 L751.737 1448.1 L751.737 1444.98 L755.16 1444.98 Q757.962 1444.98 759.448 1443.87 Q760.934 1442.74 760.934 1440.63 Q760.934 1438.47 759.391 1437.32 Q757.868 1436.16 755.009 1436.16 Q753.448 1436.16 751.661 1436.49 Q749.875 1436.83 747.731 1437.55 L747.731 1434.16 Q749.893 1433.56 751.774 1433.26 Q753.674 1432.96 755.348 1432.96 Q759.674 1432.96 762.194 1434.93 Q764.714 1436.89 764.714 1440.24 Q764.714 1442.57 763.379 1444.19 Q762.043 1445.79 759.579 1446.41 Z" fill="#000000" fill-rule="evenodd" fill-opacity="1" /><path clip-path="url(#clip950)" d="M1784.21 1485.02 L1791.85 1485.02 L1791.85 1458.66 L1783.54 1460.32 L1783.54 1456.06 L1791.81 1454.4 L1796.48 1454.4 L1796.48 1485.02 L1804.12 1485.02 L1804.12 1488.96 L1784.21 1488.96 L1784.21 1485.02 Z" fill="#000000" fill-rule="evenodd" fill-opacity="1" /><path clip-path="url(#clip950)" d="M1823.57 1457.48 Q1819.95 1457.48 1818.13 1461.04 Q1816.32 1464.58 1816.32 1471.71 Q1816.32 1478.82 1818.13 1482.38 Q1819.95 1485.92 1823.57 1485.92 Q1827.2 1485.92 1829.01 1482.38 Q1830.83 1478.82 1830.83 1471.71 Q1830.83 1464.58 1829.01 1461.04 Q1827.2 1457.48 1823.57 1457.48 M1823.57 1453.77 Q1829.38 1453.77 1832.43 1458.38 Q1835.51 1462.96 1835.51 1471.71 Q1835.51 1480.44 1832.43 1485.04 Q1829.38 1489.63 1823.57 1489.63 Q1817.76 1489.63 1814.68 1485.04 Q1811.62 1480.44 1811.62 1471.71 Q1811.62 1462.96 1814.68 1458.38 Q1817.76 1453.77 1823.57 1453.77 Z" fill="#000000" fill-rule="evenodd" fill-opacity="1" /><path clip-path="url(#clip950)" d="M1835.51 1447.87 L1859.62 1447.87 L1859.62 1451.07 L1835.51 1451.07 L1835.51 1447.87 Z" fill="#000000" fill-rule="evenodd" fill-opacity="1" /><path clip-path="url(#clip950)" d="M1871.09 1458.35 L1884.35 1458.35 L1884.35 1461.55 L1866.52 1461.55 L1866.52 1458.35 Q1868.69 1456.11 1872.41 1452.35 Q1876.15 1448.57 1877.11 1447.48 Q1878.94 1445.43 1879.65 1444.02 Q1880.39 1442.59 1880.39 1441.22 Q1880.39 1438.98 1878.81 1437.57 Q1877.24 1436.16 1874.72 1436.16 Q1872.94 1436.16 1870.94 1436.78 Q1868.97 1437.4 1866.71 1438.66 L1866.71 1434.82 Q1869.01 1433.9 1871 1433.43 Q1872.99 1432.96 1874.65 1432.96 Q1879.01 1432.96 1881.61 1435.14 Q1884.2 1437.32 1884.2 1440.97 Q1884.2 1442.7 1883.54 1444.26 Q1882.91 1445.8 1881.19 1447.91 Q1880.72 1448.46 1878.2 1451.07 Q1875.68 1453.67 1871.09 1458.35 Z" fill="#000000" fill-rule="evenodd" fill-opacity="1" /><path clip-path="url(#clip950)" d="M914.504 1526.67 L944.55 1526.67 L944.55 1532.08 L920.933 1532.08 L920.933 1546.14 L943.563 1546.14 L943.563 1551.56 L920.933 1551.56 L920.933 1568.77 L945.123 1568.77 L945.123 1574.19 L914.504 1574.19 L914.504 1526.67 Z" fill="#000000" fill-rule="evenodd" fill-opacity="1" /><path clip-path="url(#clip950)" d="M985.068 1538.54 L972.177 1555.88 L985.736 1574.19 L978.829 1574.19 L968.453 1560.18 L958.077 1574.19 L951.17 1574.19 L965.016 1555.53 L952.348 1538.54 L959.255 1538.54 L968.708 1551.24 L978.161 1538.54 L985.068 1538.54 Z" fill="#000000" fill-rule="evenodd" fill-opacity="1" /><path clip-path="url(#clip950)" d="M1022.5 1554.9 L1022.5 1557.76 L995.571 1557.76 Q995.953 1563.81 999.2 1566.99 Q1002.48 1570.14 1008.3 1570.14 Q1011.68 1570.14 1014.83 1569.32 Q1018.01 1568.49 1021.13 1566.83 L1021.13 1572.37 Q1017.98 1573.71 1014.67 1574.41 Q1011.36 1575.11 1007.95 1575.11 Q999.422 1575.11 994.425 1570.14 Q989.46 1565.18 989.46 1556.71 Q989.46 1547.96 994.171 1542.83 Q998.913 1537.68 1006.93 1537.68 Q1014.13 1537.68 1018.3 1542.33 Q1022.5 1546.94 1022.5 1554.9 M1016.64 1553.18 Q1016.58 1548.37 1013.94 1545.51 Q1011.33 1542.64 1007 1542.64 Q1002.1 1542.64 999.136 1545.41 Q996.208 1548.18 995.762 1553.21 L1016.64 1553.18 Z" fill="#000000" fill-rule="evenodd" fill-opacity="1" /><path clip-path="url(#clip950)" d="M1057.76 1539.91 L1057.76 1545.38 Q1055.28 1544.01 1052.77 1543.34 Q1050.28 1542.64 1047.74 1542.64 Q1042.04 1542.64 1038.89 1546.27 Q1035.74 1549.87 1035.74 1556.39 Q1035.74 1562.92 1038.89 1566.55 Q1042.04 1570.14 1047.74 1570.14 Q1050.28 1570.14 1052.77 1569.47 Q1055.28 1568.77 1057.76 1567.41 L1057.76 1572.82 Q1055.31 1573.96 1052.67 1574.54 Q1050.06 1575.11 1047.1 1575.11 Q1039.05 1575.11 1034.31 1570.05 Q1029.56 1564.99 1029.56 1556.39 Q1029.56 1547.67 1034.34 1542.68 Q1039.14 1537.68 1047.48 1537.68 Q1050.19 1537.68 1052.77 1538.25 Q1055.35 1538.79 1057.76 1539.91 Z" fill="#000000" fill-rule="evenodd" fill-opacity="1" /><path clip-path="url(#clip950)" d="M1067.34 1560.12 L1067.34 1538.54 L1073.2 1538.54 L1073.2 1559.89 Q1073.2 1564.96 1075.17 1567.5 Q1077.15 1570.02 1081.09 1570.02 Q1085.84 1570.02 1088.57 1566.99 Q1091.34 1563.97 1091.34 1558.75 L1091.34 1538.54 L1097.2 1538.54 L1097.2 1574.19 L1091.34 1574.19 L1091.34 1568.71 Q1089.21 1571.96 1086.38 1573.55 Q1083.58 1575.11 1079.85 1575.11 Q1073.71 1575.11 1070.53 1571.29 Q1067.34 1567.47 1067.34 1560.12 M1082.08 1537.68 L1082.08 1537.68 Z" fill="#000000" fill-rule="evenodd" fill-opacity="1" /><path clip-path="url(#clip950)" d="M1115.06 1528.42 L1115.06 1538.54 L1127.12 1538.54 L1127.12 1543.09 L1115.06 1543.09 L1115.06 1562.44 Q1115.06 1566.8 1116.23 1568.04 Q1117.44 1569.28 1121.1 1569.28 L1127.12 1569.28 L1127.12 1574.19 L1121.1 1574.19 Q1114.32 1574.19 1111.75 1571.67 Q1109.17 1569.12 1109.17 1562.44 L1109.17 1543.09 L1104.87 1543.09 L1104.87 1538.54 L1109.17 1538.54 L1109.17 1528.42 L1115.06 1528.42 Z" fill="#000000" fill-rule="evenodd" fill-opacity="1" /><path clip-path="url(#clip950)" d="M1134.82 1538.54 L1140.68 1538.54 L1140.68 1574.19 L1134.82 1574.19 L1134.82 1538.54 M1134.82 1524.66 L1140.68 1524.66 L1140.68 1532.08 L1134.82 1532.08 L1134.82 1524.66 Z" fill="#000000" fill-rule="evenodd" fill-opacity="1" /><path clip-path="url(#clip950)" d="M1166.75 1542.64 Q1162.03 1542.64 1159.3 1546.34 Q1156.56 1550 1156.56 1556.39 Q1156.56 1562.79 1159.27 1566.48 Q1162 1570.14 1166.75 1570.14 Q1171.42 1570.14 1174.16 1566.45 Q1176.9 1562.76 1176.9 1556.39 Q1176.9 1550.06 1174.16 1546.37 Q1171.42 1542.64 1166.75 1542.64 M1166.75 1537.68 Q1174.38 1537.68 1178.74 1542.64 Q1183.1 1547.61 1183.1 1556.39 Q1183.1 1565.15 1178.74 1570.14 Q1174.38 1575.11 1166.75 1575.11 Q1159.07 1575.11 1154.71 1570.14 Q1150.39 1565.15 1150.39 1556.39 Q1150.39 1547.61 1154.71 1542.64 Q1159.07 1537.68 1166.75 1537.68 Z" fill="#000000" fill-rule="evenodd" fill-opacity="1" /><path clip-path="url(#clip950)" d="M1222.44 1552.67 L1222.44 1574.19 L1216.59 1574.19 L1216.59 1552.86 Q1216.59 1547.8 1214.62 1545.29 Q1212.64 1542.77 1208.7 1542.77 Q1203.95 1542.77 1201.22 1545.79 Q1198.48 1548.82 1198.48 1554.04 L1198.48 1574.19 L1192.59 1574.19 L1192.59 1538.54 L1198.48 1538.54 L1198.48 1544.08 Q1200.58 1540.86 1203.41 1539.27 Q1206.28 1537.68 1210 1537.68 Q1216.14 1537.68 1219.29 1541.5 Q1222.44 1545.29 1222.44 1552.67 Z" fill="#000000" fill-rule="evenodd" fill-opacity="1" /><path clip-path="url(#clip950)" d="M1260.64 1528.42 L1260.64 1538.54 L1272.7 1538.54 L1272.7 1543.09 L1260.64 1543.09 L1260.64 1562.44 Q1260.64 1566.8 1261.82 1568.04 Q1263.03 1569.28 1266.69 1569.28 L1272.7 1569.28 L1272.7 1574.19 L1266.69 1574.19 Q1259.91 1574.19 1257.33 1571.67 Q1254.75 1569.12 1254.75 1562.44 L1254.75 1543.09 L1250.45 1543.09 L1250.45 1538.54 L1254.75 1538.54 L1254.75 1528.42 L1260.64 1528.42 Z" fill="#000000" fill-rule="evenodd" fill-opacity="1" /><path clip-path="url(#clip950)" d="M1280.4 1538.54 L1286.26 1538.54 L1286.26 1574.19 L1280.4 1574.19 L1280.4 1538.54 M1280.4 1524.66 L1286.26 1524.66 L1286.26 1532.08 L1280.4 1532.08 L1280.4 1524.66 Z" fill="#000000" fill-rule="evenodd" fill-opacity="1" /><path clip-path="url(#clip950)" d="M1326.27 1545.38 Q1328.47 1541.43 1331.52 1539.56 Q1334.58 1537.68 1338.71 1537.68 Q1344.28 1537.68 1347.31 1541.59 Q1350.33 1545.48 1350.33 1552.67 L1350.33 1574.19 L1344.44 1574.19 L1344.44 1552.86 Q1344.44 1547.74 1342.63 1545.25 Q1340.82 1542.77 1337.09 1542.77 Q1332.54 1542.77 1329.9 1545.79 Q1327.26 1548.82 1327.26 1554.04 L1327.26 1574.19 L1321.37 1574.19 L1321.37 1552.86 Q1321.37 1547.7 1319.55 1545.25 Q1317.74 1542.77 1313.95 1542.77 Q1309.46 1542.77 1306.82 1545.83 Q1304.18 1548.85 1304.18 1554.04 L1304.18 1574.19 L1298.29 1574.19 L1298.29 1538.54 L1304.18 1538.54 L1304.18 1544.08 Q1306.19 1540.8 1308.99 1539.24 Q1311.79 1537.68 1315.64 1537.68 Q1319.52 1537.68 1322.23 1539.65 Q1324.96 1541.62 1326.27 1545.38 Z" fill="#000000" fill-rule="evenodd" fill-opacity="1" /><path clip-path="url(#clip950)" d="M1392.5 1554.9 L1392.5 1557.76 L1365.58 1557.76 Q1365.96 1563.81 1369.21 1566.99 Q1372.48 1570.14 1378.31 1570.14 Q1381.68 1570.14 1384.83 1569.32 Q1388.02 1568.49 1391.14 1566.83 L1391.14 1572.37 Q1387.99 1573.71 1384.67 1574.41 Q1381.36 1575.11 1377.96 1575.11 Q1369.43 1575.11 1364.43 1570.14 Q1359.47 1565.18 1359.47 1556.71 Q1359.47 1547.96 1364.18 1542.83 Q1368.92 1537.68 1376.94 1537.68 Q1384.13 1537.68 1388.3 1542.33 Q1392.5 1546.94 1392.5 1554.9 M1386.65 1553.18 Q1386.58 1548.37 1383.94 1545.51 Q1381.33 1542.64 1377 1542.64 Q1372.1 1542.64 1369.14 1545.41 Q1366.21 1548.18 1365.77 1553.21 L1386.65 1553.18 Z" fill="#000000" fill-rule="evenodd" fill-opacity="1" /><path clip-path="url(#clip950)" d="M1436.91 1524.72 Q1432.64 1532.04 1430.57 1539.21 Q1428.5 1546.37 1428.5 1553.72 Q1428.5 1561.07 1430.57 1568.3 Q1432.67 1575.49 1436.91 1582.78 L1431.81 1582.78 Q1427.04 1575.3 1424.65 1568.07 Q1422.3 1560.85 1422.3 1553.72 Q1422.3 1546.62 1424.65 1539.43 Q1427.01 1532.24 1431.81 1524.72 L1436.91 1524.72 Z" fill="#000000" fill-rule="evenodd" fill-opacity="1" /><path clip-path="url(#clip950)" d="M1470.99 1539.59 L1470.99 1545.13 Q1468.51 1543.85 1465.84 1543.22 Q1463.16 1542.58 1460.3 1542.58 Q1455.94 1542.58 1453.74 1543.92 Q1451.58 1545.25 1451.58 1547.93 Q1451.58 1549.96 1453.14 1551.14 Q1454.7 1552.29 1459.41 1553.34 L1461.41 1553.78 Q1467.65 1555.12 1470.26 1557.57 Q1472.9 1559.99 1472.9 1564.35 Q1472.9 1569.32 1468.96 1572.21 Q1465.04 1575.11 1458.17 1575.11 Q1455.3 1575.11 1452.18 1574.54 Q1449.1 1573.99 1445.66 1572.88 L1445.66 1566.83 Q1448.9 1568.52 1452.06 1569.38 Q1455.21 1570.21 1458.29 1570.21 Q1462.43 1570.21 1464.66 1568.81 Q1466.89 1567.37 1466.89 1564.8 Q1466.89 1562.41 1465.26 1561.14 Q1463.67 1559.86 1458.23 1558.68 L1456.19 1558.21 Q1450.75 1557.06 1448.33 1554.71 Q1445.91 1552.32 1445.91 1548.18 Q1445.91 1543.15 1449.48 1540.42 Q1453.04 1537.68 1459.6 1537.68 Q1462.85 1537.68 1465.71 1538.16 Q1468.58 1538.63 1470.99 1539.59 Z" fill="#000000" fill-rule="evenodd" fill-opacity="1" /><path clip-path="url(#clip950)" d="M1507.88 1539.91 L1507.88 1545.38 Q1505.4 1544.01 1502.89 1543.34 Q1500.4 1542.64 1497.86 1542.64 Q1492.16 1542.64 1489.01 1546.27 Q1485.86 1549.87 1485.86 1556.39 Q1485.86 1562.92 1489.01 1566.55 Q1492.16 1570.14 1497.86 1570.14 Q1500.4 1570.14 1502.89 1569.47 Q1505.4 1568.77 1507.88 1567.41 L1507.88 1572.82 Q1505.43 1573.96 1502.79 1574.54 Q1500.18 1575.11 1497.22 1575.11 Q1489.17 1575.11 1484.43 1570.05 Q1479.68 1564.99 1479.68 1556.39 Q1479.68 1547.67 1484.46 1542.68 Q1489.26 1537.68 1497.6 1537.68 Q1500.31 1537.68 1502.89 1538.25 Q1505.46 1538.79 1507.88 1539.91 Z" fill="#000000" fill-rule="evenodd" fill-opacity="1" /><path clip-path="url(#clip950)" d="M1519.56 1566.1 L1526.28 1566.1 L1526.28 1571.58 L1521.06 1581.76 L1516.95 1581.76 L1519.56 1571.58 L1519.56 1566.1 Z" fill="#000000" fill-rule="evenodd" fill-opacity="1" /><path clip-path="url(#clip950)" d="M1559.76 1526.67 L1566.19 1526.67 L1566.19 1568.77 L1589.33 1568.77 L1589.33 1574.19 L1559.76 1574.19 L1559.76 1526.67 Z" fill="#000000" fill-rule="evenodd" fill-opacity="1" /><path clip-path="url(#clip950)" d="M1608.49 1542.64 Q1603.78 1542.64 1601.05 1546.34 Q1598.31 1550 1598.31 1556.39 Q1598.31 1562.79 1601.01 1566.48 Q1603.75 1570.14 1608.49 1570.14 Q1613.17 1570.14 1615.91 1566.45 Q1618.65 1562.76 1618.65 1556.39 Q1618.65 1550.06 1615.91 1546.37 Q1613.17 1542.64 1608.49 1542.64 M1608.49 1537.68 Q1616.13 1537.68 1620.49 1542.64 Q1624.85 1547.61 1624.85 1556.39 Q1624.85 1565.15 1620.49 1570.14 Q1616.13 1575.11 1608.49 1575.11 Q1600.82 1575.11 1596.46 1570.14 Q1592.13 1565.15 1592.13 1556.39 Q1592.13 1547.61 1596.46 1542.64 Q1600.82 1537.68 1608.49 1537.68 Z" fill="#000000" fill-rule="evenodd" fill-opacity="1" /><path clip-path="url(#clip950)" d="M1658.02 1555.95 Q1658.02 1549.58 1655.38 1546.08 Q1652.77 1542.58 1648.02 1542.58 Q1643.31 1542.58 1640.67 1546.08 Q1638.06 1549.58 1638.06 1555.95 Q1638.06 1562.28 1640.67 1565.78 Q1643.31 1569.28 1648.02 1569.28 Q1652.77 1569.28 1655.38 1565.78 Q1658.02 1562.28 1658.02 1555.95 M1663.87 1569.76 Q1663.87 1578.86 1659.83 1583.29 Q1655.79 1587.74 1647.45 1587.74 Q1644.36 1587.74 1641.63 1587.27 Q1638.89 1586.82 1636.31 1585.87 L1636.31 1580.17 Q1638.89 1581.57 1641.4 1582.24 Q1643.92 1582.91 1646.53 1582.91 Q1652.29 1582.91 1655.15 1579.88 Q1658.02 1576.89 1658.02 1570.81 L1658.02 1567.92 Q1656.2 1571.07 1653.37 1572.63 Q1650.54 1574.19 1646.59 1574.19 Q1640.04 1574.19 1636.02 1569.19 Q1632.01 1564.19 1632.01 1555.95 Q1632.01 1547.67 1636.02 1542.68 Q1640.04 1537.68 1646.59 1537.68 Q1650.54 1537.68 1653.37 1539.24 Q1656.2 1540.8 1658.02 1543.95 L1658.02 1538.54 L1663.87 1538.54 L1663.87 1569.76 Z" fill="#000000" fill-rule="evenodd" fill-opacity="1" /><path clip-path="url(#clip950)" d="M1675.01 1524.72 L1680.11 1524.72 Q1684.88 1532.24 1687.24 1539.43 Q1689.62 1546.62 1689.62 1553.72 Q1689.62 1560.85 1687.24 1568.07 Q1684.88 1575.3 1680.11 1582.78 L1675.01 1582.78 Q1679.25 1575.49 1681.32 1568.3 Q1683.42 1561.07 1683.42 1553.72 Q1683.42 1546.37 1681.32 1539.21 Q1679.25 1532.04 1675.01 1524.72 Z" fill="#000000" fill-rule="evenodd" fill-opacity="1" /><polyline clip-path="url(#clip952)" style="stroke:#000000; stroke-linecap:butt; stroke-linejoin:round; stroke-width:2; stroke-opacity:0.1; fill:none" points="
  251.372,1033.43 2352.76,1033.43 
  "/>
<polyline clip-path="url(#clip952)" style="stroke:#000000; stroke-linecap:butt; stroke-linejoin:round; stroke-width:2; stroke-opacity:0.1; fill:none" points="
  251.372,492.448 2352.76,492.448 
  "/>
<polyline clip-path="url(#clip950)" style="stroke:#000000; stroke-linecap:butt; stroke-linejoin:round; stroke-width:4; stroke-opacity:1; fill:none" points="
  251.372,1410.9 251.372,47.2441 
  "/>
<polyline clip-path="url(#clip950)" style="stroke:#000000; stroke-linecap:butt; stroke-linejoin:round; stroke-width:4; stroke-opacity:1; fill:none" points="
  2352.76,1410.9 2352.76,47.2441 
  "/>
<polyline clip-path="url(#clip950)" style="stroke:#000000; stroke-linecap:butt; stroke-linejoin:round; stroke-width:4; stroke-opacity:1; fill:none" points="
  251.372,1033.43 270.27,1033.43 
  "/>
<polyline clip-path="url(#clip950)" style="stroke:#000000; stroke-linecap:butt; stroke-linejoin:round; stroke-width:4; stroke-opacity:1; fill:none" points="
  251.372,492.448 270.27,492.448 
  "/>
<path clip-path="url(#clip950)" d="M115.232 1053.22 L122.871 1053.22 L122.871 1026.86 L114.561 1028.52 L114.561 1024.27 L122.825 1022.6 L127.501 1022.6 L127.501 1053.22 L135.14 1053.22 L135.14 1057.16 L115.232 1057.16 L115.232 1053.22 Z" fill="#000000" fill-rule="evenodd" fill-opacity="1" /><path clip-path="url(#clip950)" d="M154.584 1025.68 Q150.973 1025.68 149.144 1029.24 Q147.339 1032.78 147.339 1039.91 Q147.339 1047.02 149.144 1050.58 Q150.973 1054.13 154.584 1054.13 Q158.218 1054.13 160.024 1050.58 Q161.852 1047.02 161.852 1039.91 Q161.852 1032.78 160.024 1029.24 Q158.218 1025.68 154.584 1025.68 M154.584 1021.97 Q160.394 1021.97 163.45 1026.58 Q166.528 1031.16 166.528 1039.91 Q166.528 1048.64 163.45 1053.25 Q160.394 1057.83 154.584 1057.83 Q148.774 1057.83 145.695 1053.25 Q142.64 1048.64 142.64 1039.91 Q142.64 1031.16 145.695 1026.58 Q148.774 1021.97 154.584 1021.97 Z" fill="#000000" fill-rule="evenodd" fill-opacity="1" /><path clip-path="url(#clip950)" d="M166.528 1016.08 L190.64 1016.08 L190.64 1019.27 L166.528 1019.27 L166.528 1016.08 Z" fill="#000000" fill-rule="evenodd" fill-opacity="1" /><path clip-path="url(#clip950)" d="M202.113 1026.55 L215.372 1026.55 L215.372 1029.75 L197.542 1029.75 L197.542 1026.55 Q199.705 1024.31 203.429 1020.55 Q207.172 1016.77 208.131 1015.68 Q209.956 1013.63 210.67 1012.22 Q211.404 1010.79 211.404 1009.42 Q211.404 1007.18 209.824 1005.77 Q208.263 1004.36 205.743 1004.36 Q203.956 1004.36 201.962 1004.98 Q199.987 1005.6 197.73 1006.86 L197.73 1003.02 Q200.025 1002.1 202.019 1001.63 Q204.012 1001.16 205.667 1001.16 Q210.031 1001.16 212.626 1003.34 Q215.222 1005.52 215.222 1009.17 Q215.222 1010.9 214.563 1012.46 Q213.924 1014.01 212.212 1016.11 Q211.742 1016.66 209.222 1019.27 Q206.702 1021.87 202.113 1026.55 Z" fill="#000000" fill-rule="evenodd" fill-opacity="1" /><path clip-path="url(#clip950)" d="M114.931 512.241 L122.57 512.241 L122.57 485.875 L114.26 487.542 L114.26 483.283 L122.524 481.616 L127.2 481.616 L127.2 512.241 L134.839 512.241 L134.839 516.176 L114.931 516.176 L114.931 512.241 Z" fill="#000000" fill-rule="evenodd" fill-opacity="1" /><path clip-path="url(#clip950)" d="M154.283 484.695 Q150.672 484.695 148.843 488.259 Q147.038 491.801 147.038 498.931 Q147.038 506.037 148.843 509.602 Q150.672 513.144 154.283 513.144 Q157.917 513.144 159.723 509.602 Q161.552 506.037 161.552 498.931 Q161.552 491.801 159.723 488.259 Q157.917 484.695 154.283 484.695 M154.283 480.991 Q160.093 480.991 163.149 485.597 Q166.227 490.181 166.227 498.931 Q166.227 507.657 163.149 512.264 Q160.093 516.847 154.283 516.847 Q148.473 516.847 145.394 512.264 Q142.339 507.657 142.339 498.931 Q142.339 490.181 145.394 485.597 Q148.473 480.991 154.283 480.991 Z" fill="#000000" fill-rule="evenodd" fill-opacity="1" /><path clip-path="url(#clip950)" d="M166.227 475.092 L190.339 475.092 L190.339 478.29 L166.227 478.29 L166.227 475.092 Z" fill="#000000" fill-rule="evenodd" fill-opacity="1" /><path clip-path="url(#clip950)" d="M199.197 485.568 L205.404 485.568 L205.404 464.146 L198.652 465.5 L198.652 462.04 L205.366 460.686 L209.166 460.686 L209.166 485.568 L215.372 485.568 L215.372 488.766 L199.197 488.766 L199.197 485.568 Z" fill="#000000" fill-rule="evenodd" fill-opacity="1" /><path clip-path="url(#clip950)" d="M16.4842 1034.96 L16.4842 1004.91 L21.895 1004.91 L21.895 1028.53 L35.9632 1028.53 L35.9632 1005.9 L41.3741 1005.9 L41.3741 1028.53 L58.5933 1028.53 L58.5933 1004.34 L64.0042 1004.34 L64.0042 1034.96 L16.4842 1034.96 Z" fill="#000000" fill-rule="evenodd" fill-opacity="1" /><path clip-path="url(#clip950)" d="M33.8307 973.37 Q33.2578 974.357 33.0032 975.535 Q32.7167 976.68 32.7167 978.081 Q32.7167 983.046 35.9632 985.72 Q39.1779 988.362 45.2253 988.362 L64.0042 988.362 L64.0042 994.25 L28.3562 994.25 L28.3562 988.362 L33.8944 988.362 Q30.6479 986.515 29.0883 983.555 Q27.4968 980.595 27.4968 976.362 Q27.4968 975.757 27.5923 975.025 Q27.656 974.293 27.8151 973.402 L33.8307 973.37 Z" fill="#000000" fill-rule="evenodd" fill-opacity="1" /><path clip-path="url(#clip950)" d="M33.8307 947.716 Q33.2578 948.703 33.0032 949.881 Q32.7167 951.027 32.7167 952.427 Q32.7167 957.392 35.9632 960.066 Q39.1779 962.708 45.2253 962.708 L64.0042 962.708 L64.0042 968.596 L28.3562 968.596 L28.3562 962.708 L33.8944 962.708 Q30.6479 960.862 29.0883 957.902 Q27.4968 954.942 27.4968 950.708 Q27.4968 950.104 27.5923 949.372 Q27.656 948.64 27.8151 947.748 L33.8307 947.716 Z" fill="#000000" fill-rule="evenodd" fill-opacity="1" /><path clip-path="url(#clip950)" d="M32.4621 929.192 Q32.4621 933.903 36.1542 936.64 Q39.8145 939.377 46.212 939.377 Q52.6095 939.377 56.3017 936.672 Q59.9619 933.935 59.9619 929.192 Q59.9619 924.513 56.2698 921.776 Q52.5777 919.039 46.212 919.039 Q39.8781 919.039 36.186 921.776 Q32.4621 924.513 32.4621 929.192 M27.4968 929.192 Q27.4968 921.553 32.4621 917.193 Q37.4273 912.832 46.212 912.832 Q54.9649 912.832 59.9619 917.193 Q64.9272 921.553 64.9272 929.192 Q64.9272 936.863 59.9619 941.223 Q54.9649 945.552 46.212 945.552 Q37.4273 945.552 32.4621 941.223 Q27.4968 936.863 27.4968 929.192 Z" fill="#000000" fill-rule="evenodd" fill-opacity="1" /><path clip-path="url(#clip950)" d="M33.8307 882.468 Q33.2578 883.455 33.0032 884.632 Q32.7167 885.778 32.7167 887.179 Q32.7167 892.144 35.9632 894.817 Q39.1779 897.459 45.2253 897.459 L64.0042 897.459 L64.0042 903.348 L28.3562 903.348 L28.3562 897.459 L33.8944 897.459 Q30.6479 895.613 29.0883 892.653 Q27.4968 889.693 27.4968 885.46 Q27.4968 884.855 27.5923 884.123 Q27.656 883.391 27.8151 882.5 L33.8307 882.468 Z" fill="#000000" fill-rule="evenodd" fill-opacity="1" /><path clip-path="url(#clip950)" d="M55.9197 875.975 L55.9197 869.259 L64.0042 869.259 L64.0042 875.975 L55.9197 875.975 M30.2977 875.975 L30.2977 869.259 L38.3822 869.259 L38.3822 875.975 L30.2977 875.975 Z" fill="#000000" fill-rule="evenodd" fill-opacity="1" /><path clip-path="url(#clip950)" d="M58.5933 828.423 L58.5933 805.984 L64.0042 805.984 L64.0042 836.157 L58.5933 836.157 Q54.8057 832.497 48.44 826.195 Q42.0425 819.861 40.1964 818.238 Q36.7271 815.151 34.34 813.941 Q31.921 812.7 29.5975 812.7 Q25.8099 812.7 23.4228 815.373 Q21.0356 818.015 21.0356 822.28 Q21.0356 825.304 22.086 828.678 Q23.1363 832.02 25.2688 835.839 L18.7758 835.839 Q17.2162 831.956 16.4205 828.582 Q15.6248 825.208 15.6248 822.408 Q15.6248 815.023 19.3169 810.631 Q23.009 806.239 29.1837 806.239 Q32.112 806.239 34.7537 807.353 Q37.3637 808.435 40.9285 811.331 Q41.8515 812.127 46.2757 816.392 Q50.668 820.657 58.5933 828.423 Z" fill="#000000" fill-rule="evenodd" fill-opacity="1" /><path clip-path="url(#clip950)" d="M43.5384 796.276 L43.5384 779.121 L48.7583 779.121 L48.7583 796.276 L43.5384 796.276 Z" fill="#000000" fill-rule="evenodd" fill-opacity="1" /><path clip-path="url(#clip950)" d="M42.4881 740.163 L64.0042 740.163 L64.0042 746.019 L42.679 746.019 Q37.6183 746.019 35.1038 747.992 Q32.5894 749.966 32.5894 753.913 Q32.5894 758.655 35.6131 761.392 Q38.6368 764.129 43.8567 764.129 L64.0042 764.129 L64.0042 770.018 L28.3562 770.018 L28.3562 764.129 L33.8944 764.129 Q30.6797 762.029 29.0883 759.196 Q27.4968 756.332 27.4968 752.608 Q27.4968 746.465 31.3163 743.314 Q35.1038 740.163 42.4881 740.163 Z" fill="#000000" fill-rule="evenodd" fill-opacity="1" /><path clip-path="url(#clip950)" d="M32.4621 714.668 Q32.4621 719.379 36.1542 722.116 Q39.8145 724.853 46.212 724.853 Q52.6095 724.853 56.3017 722.148 Q59.9619 719.41 59.9619 714.668 Q59.9619 709.989 56.2698 707.252 Q52.5777 704.515 46.212 704.515 Q39.8781 704.515 36.186 707.252 Q32.4621 709.989 32.4621 714.668 M27.4968 714.668 Q27.4968 707.029 32.4621 702.669 Q37.4273 698.308 46.212 698.308 Q54.9649 698.308 59.9619 702.669 Q64.9272 707.029 64.9272 714.668 Q64.9272 722.339 59.9619 726.699 Q54.9649 731.028 46.212 731.028 Q37.4273 731.028 32.4621 726.699 Q27.4968 722.339 27.4968 714.668 Z" fill="#000000" fill-rule="evenodd" fill-opacity="1" /><path clip-path="url(#clip950)" d="M33.8307 667.944 Q33.2578 668.93 33.0032 670.108 Q32.7167 671.254 32.7167 672.654 Q32.7167 677.62 35.9632 680.293 Q39.1779 682.935 45.2253 682.935 L64.0042 682.935 L64.0042 688.823 L28.3562 688.823 L28.3562 682.935 L33.8944 682.935 Q30.6479 681.089 29.0883 678.129 Q27.4968 675.169 27.4968 670.936 Q27.4968 670.331 27.5923 669.599 Q27.656 668.867 27.8151 667.975 L33.8307 667.944 Z" fill="#000000" fill-rule="evenodd" fill-opacity="1" /><path clip-path="url(#clip950)" d="M35.1993 635.192 Q31.2526 632.996 29.3747 629.94 Q27.4968 626.885 27.4968 622.747 Q27.4968 617.177 31.4117 614.153 Q35.2948 611.13 42.4881 611.13 L64.0042 611.13 L64.0042 617.018 L42.679 617.018 Q37.5546 617.018 35.072 618.832 Q32.5894 620.646 32.5894 624.37 Q32.5894 628.922 35.6131 631.564 Q38.6368 634.205 43.8567 634.205 L64.0042 634.205 L64.0042 640.094 L42.679 640.094 Q37.5228 640.094 35.072 641.908 Q32.5894 643.722 32.5894 647.51 Q32.5894 651.998 35.6449 654.639 Q38.6686 657.281 43.8567 657.281 L64.0042 657.281 L64.0042 663.169 L28.3562 663.169 L28.3562 657.281 L33.8944 657.281 Q30.616 655.276 29.0564 652.475 Q27.4968 649.674 27.4968 645.823 Q27.4968 641.94 29.4702 639.234 Q31.4436 636.497 35.1993 635.192 Z" fill="#000000" fill-rule="evenodd" fill-opacity="1" /><path clip-path="url(#clip950)" d="M14.5426 564.66 Q21.8632 568.925 29.0246 570.994 Q36.186 573.063 43.5384 573.063 Q50.8908 573.063 58.1159 570.994 Q65.3091 568.893 72.5979 564.66 L72.5979 569.753 Q65.1182 574.527 57.8931 576.914 Q50.668 579.269 43.5384 579.269 Q36.4406 579.269 29.2474 576.914 Q22.0542 574.559 14.5426 569.753 L14.5426 564.66 Z" fill="#000000" fill-rule="evenodd" fill-opacity="1" /><path clip-path="url(#clip950)" d="M16.4842 553.043 L16.4842 546.613 L58.5933 546.613 L58.5933 523.474 L64.0042 523.474 L64.0042 553.043 L16.4842 553.043 Z" fill="#000000" fill-rule="evenodd" fill-opacity="1" /><path clip-path="url(#clip950)" d="M32.4621 504.313 Q32.4621 509.024 36.1542 511.761 Q39.8145 514.498 46.212 514.498 Q52.6095 514.498 56.3017 511.793 Q59.9619 509.056 59.9619 504.313 Q59.9619 499.634 56.2698 496.897 Q52.5777 494.16 46.212 494.16 Q39.8781 494.16 36.186 496.897 Q32.4621 499.634 32.4621 504.313 M27.4968 504.313 Q27.4968 496.674 32.4621 492.314 Q37.4273 487.953 46.212 487.953 Q54.9649 487.953 59.9619 492.314 Q64.9272 496.674 64.9272 504.313 Q64.9272 511.984 59.9619 516.344 Q54.9649 520.673 46.212 520.673 Q37.4273 520.673 32.4621 516.344 Q27.4968 511.984 27.4968 504.313 Z" fill="#000000" fill-rule="evenodd" fill-opacity="1" /><path clip-path="url(#clip950)" d="M45.7664 454.788 Q39.4007 454.788 35.8996 457.43 Q32.3984 460.04 32.3984 464.782 Q32.3984 469.493 35.8996 472.135 Q39.4007 474.744 45.7664 474.744 Q52.1003 474.744 55.6014 472.135 Q59.1026 469.493 59.1026 464.782 Q59.1026 460.04 55.6014 457.43 Q52.1003 454.788 45.7664 454.788 M59.58 448.932 Q68.683 448.932 73.1071 452.974 Q77.5631 457.016 77.5631 465.355 Q77.5631 468.442 77.0857 471.18 Q76.6401 473.917 75.6852 476.495 L69.9879 476.495 Q71.3884 473.917 72.0568 471.402 Q72.7252 468.888 72.7252 466.278 Q72.7252 460.517 69.7015 457.653 Q66.7096 454.788 60.6303 454.788 L57.7339 454.788 Q60.885 456.602 62.4446 459.435 Q64.0042 462.268 64.0042 466.214 Q64.0042 472.771 59.0071 476.782 Q54.01 480.792 45.7664 480.792 Q37.491 480.792 32.4939 476.782 Q27.4968 472.771 27.4968 466.214 Q27.4968 462.268 29.0564 459.435 Q30.616 456.602 33.7671 454.788 L28.3562 454.788 L28.3562 448.932 L59.58 448.932 Z" fill="#000000" fill-rule="evenodd" fill-opacity="1" /><path clip-path="url(#clip950)" d="M14.5426 437.792 L14.5426 432.699 Q22.0542 427.925 29.2474 425.569 Q36.4406 423.182 43.5384 423.182 Q50.668 423.182 57.8931 425.569 Q65.1182 427.925 72.5979 432.699 L72.5979 437.792 Q65.3091 433.558 58.1159 431.489 Q50.8908 429.389 43.5384 429.389 Q36.186 429.389 29.0246 431.489 Q21.8632 433.558 14.5426 437.792 Z" fill="#000000" fill-rule="evenodd" fill-opacity="1" /><polyline clip-path="url(#clip952)" style="stroke:#009af9; stroke-linecap:butt; stroke-linejoin:round; stroke-width:12; stroke-opacity:1; fill:none" points="
  798.466,387.033 1116.46,728.817 1455.65,958.439 1777.81,1166.74 2110.68,1372.17 
  "/>
<circle clip-path="url(#clip952)" cx="798.466" cy="387.033" r="14.4" fill="#009af9" fill-rule="evenodd" fill-opacity="1" stroke="#000000" stroke-opacity="1" stroke-width="3.2"/>
<circle clip-path="url(#clip952)" cx="1116.46" cy="728.817" r="14.4" fill="#009af9" fill-rule="evenodd" fill-opacity="1" stroke="#000000" stroke-opacity="1" stroke-width="3.2"/>
<circle clip-path="url(#clip952)" cx="1455.65" cy="958.439" r="14.4" fill="#009af9" fill-rule="evenodd" fill-opacity="1" stroke="#000000" stroke-opacity="1" stroke-width="3.2"/>
<circle clip-path="url(#clip952)" cx="1777.81" cy="1166.74" r="14.4" fill="#009af9" fill-rule="evenodd" fill-opacity="1" stroke="#000000" stroke-opacity="1" stroke-width="3.2"/>
<circle clip-path="url(#clip952)" cx="2110.68" cy="1372.17" r="14.4" fill="#009af9" fill-rule="evenodd" fill-opacity="1" stroke="#000000" stroke-opacity="1" stroke-width="3.2"/>
<polyline clip-path="url(#clip952)" style="stroke:#e26f46; stroke-linecap:butt; stroke-linejoin:round; stroke-width:12; stroke-opacity:1; fill:none" points="
  310.845,384.568 642.176,564.64 970.985,761.099 1307.53,963.43 1646.62,1167.54 1967.59,1372.3 
  "/>
<path clip-path="url(#clip952)" d="M294.845 368.568 L294.845 400.568 L326.845 400.568 L326.845 368.568 L294.845 368.568 Z" fill="#e26f46" fill-rule="evenodd" fill-opacity="1" stroke="#000000" stroke-opacity="1" stroke-width="3.2"/>
<path clip-path="url(#clip952)" d="M626.176 548.64 L626.176 580.64 L658.176 580.64 L658.176 548.64 L626.176 548.64 Z" fill="#e26f46" fill-rule="evenodd" fill-opacity="1" stroke="#000000" stroke-opacity="1" stroke-width="3.2"/>
<path clip-path="url(#clip952)" d="M954.985 745.099 L954.985 777.099 L986.985 777.099 L986.985 745.099 L954.985 745.099 Z" fill="#e26f46" fill-rule="evenodd" fill-opacity="1" stroke="#000000" stroke-opacity="1" stroke-width="3.2"/>
<path clip-path="url(#clip952)" d="M1291.53 947.43 L1291.53 979.43 L1323.53 979.43 L1323.53 947.43 L1291.53 947.43 Z" fill="#e26f46" fill-rule="evenodd" fill-opacity="1" stroke="#000000" stroke-opacity="1" stroke-width="3.2"/>
<path clip-path="url(#clip952)" d="M1630.62 1151.54 L1630.62 1183.54 L1662.62 1183.54 L1662.62 1151.54 L1630.62 1151.54 Z" fill="#e26f46" fill-rule="evenodd" fill-opacity="1" stroke="#000000" stroke-opacity="1" stroke-width="3.2"/>
<path clip-path="url(#clip952)" d="M1951.59 1356.3 L1951.59 1388.3 L1983.59 1388.3 L1983.59 1356.3 L1951.59 1356.3 Z" fill="#e26f46" fill-rule="evenodd" fill-opacity="1" stroke="#000000" stroke-opacity="1" stroke-width="3.2"/>
<polyline clip-path="url(#clip952)" style="stroke:#3da44d; stroke-linecap:butt; stroke-linejoin:round; stroke-width:12; stroke-opacity:1; fill:none" points="
  756.392,85.838 1060.17,289.725 1389.21,426.503 1772.84,538.878 2049.25,646.53 
  "/>
<path clip-path="url(#clip952)" d="M769.192 85.838 L749.992 74.638 L749.992 97.038 L769.192 85.838 Z" fill="#3da44d" fill-rule="evenodd" fill-opacity="1" stroke="#000000" stroke-opacity="1" stroke-width="3.2"/>
<path clip-path="url(#clip952)" d="M1072.97 289.725 L1053.77 278.525 L1053.77 300.925 L1072.97 289.725 Z" fill="#3da44d" fill-rule="evenodd" fill-opacity="1" stroke="#000000" stroke-opacity="1" stroke-width="3.2"/>
<path clip-path="url(#clip952)" d="M1402.01 426.503 L1382.81 415.303 L1382.81 437.703 L1402.01 426.503 Z" fill="#3da44d" fill-rule="evenodd" fill-opacity="1" stroke="#000000" stroke-opacity="1" stroke-width="3.2"/>
<path clip-path="url(#clip952)" d="M1785.64 538.878 L1766.44 527.678 L1766.44 550.078 L1785.64 538.878 Z" fill="#3da44d" fill-rule="evenodd" fill-opacity="1" stroke="#000000" stroke-opacity="1" stroke-width="3.2"/>
<path clip-path="url(#clip952)" d="M2062.05 646.53 L2042.85 635.33 L2042.85 657.73 L2062.05 646.53 Z" fill="#3da44d" fill-rule="evenodd" fill-opacity="1" stroke="#000000" stroke-opacity="1" stroke-width="3.2"/>
<polyline clip-path="url(#clip952)" style="stroke:#c271d2; stroke-linecap:butt; stroke-linejoin:round; stroke-width:12; stroke-opacity:1; fill:none" points="
  443.777,396.828 761.274,400.645 1202.06,440.159 1464.71,493.667 1797.87,552.635 2116.05,605.272 
  "/>
<path clip-path="url(#clip952)" d="M443.777 380.828 L427.777 396.828 L443.777 412.828 L459.777 396.828 L443.777 380.828 Z" fill="#c271d2" fill-rule="evenodd" fill-opacity="1" stroke="#000000" stroke-opacity="1" stroke-width="3.2"/>
<path clip-path="url(#clip952)" d="M761.274 384.645 L745.274 400.645 L761.274 416.645 L777.274 400.645 L761.274 384.645 Z" fill="#c271d2" fill-rule="evenodd" fill-opacity="1" stroke="#000000" stroke-opacity="1" stroke-width="3.2"/>
<path clip-path="url(#clip952)" d="M1202.06 424.159 L1186.06 440.159 L1202.06 456.159 L1218.06 440.159 L1202.06 424.159 Z" fill="#c271d2" fill-rule="evenodd" fill-opacity="1" stroke="#000000" stroke-opacity="1" stroke-width="3.2"/>
<path clip-path="url(#clip952)" d="M1464.71 477.667 L1448.71 493.667 L1464.71 509.667 L1480.71 493.667 L1464.71 477.667 Z" fill="#c271d2" fill-rule="evenodd" fill-opacity="1" stroke="#000000" stroke-opacity="1" stroke-width="3.2"/>
<path clip-path="url(#clip952)" d="M1797.87 536.635 L1781.87 552.635 L1797.87 568.635 L1813.87 552.635 L1797.87 536.635 Z" fill="#c271d2" fill-rule="evenodd" fill-opacity="1" stroke="#000000" stroke-opacity="1" stroke-width="3.2"/>
<path clip-path="url(#clip952)" d="M2116.05 589.272 L2100.05 605.272 L2116.05 621.272 L2132.05 605.272 L2116.05 589.272 Z" fill="#c271d2" fill-rule="evenodd" fill-opacity="1" stroke="#000000" stroke-opacity="1" stroke-width="3.2"/>
<polyline clip-path="url(#clip952)" style="stroke:#ac8d18; stroke-linecap:butt; stroke-linejoin:round; stroke-width:12; stroke-opacity:1; fill:none" points="
  967.598,395.947 1308.47,749.061 1639.39,980.288 1991.99,1039.2 2293.28,950.29 
  "/>
<circle clip-path="url(#clip952)" cx="967.598" cy="395.947" r="14.4" fill="#ac8d18" fill-rule="evenodd" fill-opacity="1" stroke="#000000" stroke-opacity="1" stroke-width="3.2"/>
<circle clip-path="url(#clip952)" cx="1308.47" cy="749.061" r="14.4" fill="#ac8d18" fill-rule="evenodd" fill-opacity="1" stroke="#000000" stroke-opacity="1" stroke-width="3.2"/>
<circle clip-path="url(#clip952)" cx="1639.39" cy="980.288" r="14.4" fill="#ac8d18" fill-rule="evenodd" fill-opacity="1" stroke="#000000" stroke-opacity="1" stroke-width="3.2"/>
<circle clip-path="url(#clip952)" cx="1991.99" cy="1039.2" r="14.4" fill="#ac8d18" fill-rule="evenodd" fill-opacity="1" stroke="#000000" stroke-opacity="1" stroke-width="3.2"/>
<circle clip-path="url(#clip952)" cx="2293.28" cy="950.29" r="14.4" fill="#ac8d18" fill-rule="evenodd" fill-opacity="1" stroke="#000000" stroke-opacity="1" stroke-width="3.2"/>
<polyline clip-path="url(#clip952)" style="stroke:#00a9ad; stroke-linecap:butt; stroke-linejoin:round; stroke-width:12; stroke-opacity:1; fill:none" points="
  475.396,385.207 734.495,583.57 1126.17,783.727 1437.57,984.381 1765.9,1039.2 2087.13,950.28 
  "/>
<path clip-path="url(#clip952)" d="M455.396 365.207 L455.396 405.207 L495.396 405.207 L495.396 365.207 L455.396 365.207 Z" fill="#00a9ad" fill-rule="evenodd" fill-opacity="1" stroke="#000000" stroke-opacity="1" stroke-width="3.2"/>
<path clip-path="url(#clip952)" d="M714.495 563.57 L714.495 603.57 L754.495 603.57 L754.495 563.57 L714.495 563.57 Z" fill="#00a9ad" fill-rule="evenodd" fill-opacity="1" stroke="#000000" stroke-opacity="1" stroke-width="3.2"/>
<path clip-path="url(#clip952)" d="M1106.17 763.727 L1106.17 803.727 L1146.17 803.727 L1146.17 763.727 L1106.17 763.727 Z" fill="#00a9ad" fill-rule="evenodd" fill-opacity="1" stroke="#000000" stroke-opacity="1" stroke-width="3.2"/>
<path clip-path="url(#clip952)" d="M1417.57 964.381 L1417.57 1004.38 L1457.57 1004.38 L1457.57 964.381 L1417.57 964.381 Z" fill="#00a9ad" fill-rule="evenodd" fill-opacity="1" stroke="#000000" stroke-opacity="1" stroke-width="3.2"/>
<path clip-path="url(#clip952)" d="M1745.9 1019.2 L1745.9 1059.2 L1785.9 1059.2 L1785.9 1019.2 L1745.9 1019.2 Z" fill="#00a9ad" fill-rule="evenodd" fill-opacity="1" stroke="#000000" stroke-opacity="1" stroke-width="3.2"/>
<path clip-path="url(#clip952)" d="M2067.13 930.28 L2067.13 970.28 L2107.13 970.28 L2107.13 930.28 L2067.13 930.28 Z" fill="#00a9ad" fill-rule="evenodd" fill-opacity="1" stroke="#000000" stroke-opacity="1" stroke-width="3.2"/>
</svg>
